<svg width="190" height="133" viewBox="0 0 190 133" fill="none" xmlns="http://www.w3.org/2000/svg">
<g clip-path="url(#clip0_1264_4302)">
<path d="M148.486 27.2887C150.605 27.2887 152.324 25.5728 152.324 23.4561C152.324 21.3395 150.605 19.6235 148.486 19.6235C146.366 19.6235 144.647 21.3395 144.647 23.4561C144.647 25.5728 146.366 27.2887 148.486 27.2887Z" fill="#50429B"/>
<path d="M152.575 16.8706C154.007 16.8706 155.168 15.7114 155.168 14.2814C155.168 12.8515 154.007 11.6923 152.575 11.6923C151.143 11.6923 149.982 12.8515 149.982 14.2814C149.982 15.7114 151.143 16.8706 152.575 16.8706Z" fill="#50429B"/>
<path d="M148.322 9.87573C149.343 9.87573 150.172 9.0487 150.172 8.02851C150.172 7.00832 149.343 6.18129 148.322 6.18129C147.3 6.18129 146.472 7.00832 146.472 8.02851C146.472 9.0487 147.3 9.87573 148.322 9.87573Z" fill="#50429B"/>
<path d="M189.718 2.96272L189.99 0.982459C190.01 0.836869 189.992 0.688651 189.938 0.55179C189.885 0.414929 189.797 0.293938 189.684 0.200234C189.571 0.10653 189.435 0.0432028 189.291 0.0162271C189.146 -0.0107486 188.997 -0.000482994 188.857 0.0460554L173.002 5.43933L157.326 29.6016C157.245 29.7242 157.197 29.8653 157.187 30.0115C157.176 30.1577 157.203 30.3041 157.265 30.4369C157.328 30.5697 157.423 30.6844 157.542 30.7702C157.661 30.856 157.8 30.9099 157.946 30.9269L161.758 31.3977C161.925 31.4183 162.093 31.3907 162.244 31.3181C162.395 31.2455 162.522 31.131 162.609 30.9883L175.672 9.29752C175.77 9.13988 175.915 9.01655 176.087 8.94445L189.185 3.64328C189.326 3.58602 189.449 3.4931 189.542 3.37373C189.636 3.25436 189.696 3.11268 189.718 2.96272Z" fill="#50429B"/>
<path d="M177.276 37.9576L177.107 39.329C177.032 39.9341 176.721 40.4854 176.241 40.8621C175.761 41.2389 175.151 41.4107 174.544 41.3399C174.245 41.3055 173.943 41.3839 173.699 41.5599C173.457 41.7362 173.292 41.998 173.237 42.2917L166.237 80.5154C166.204 80.6948 166.127 80.8634 166.014 81.0069C165.901 81.1504 165.755 81.2645 165.589 81.3394C165.422 81.4143 165.24 81.4478 165.057 81.4371C164.875 81.4264 164.698 81.3717 164.541 81.2778C163.279 80.5583 161.885 80.0989 160.441 79.9269C158.834 79.7288 157.203 79.8878 155.665 80.3925C155.517 80.4404 155.36 80.4567 155.205 80.4404C155.05 80.4242 154.9 80.3757 154.765 80.2981C154.63 80.2205 154.512 80.1155 154.42 79.9899C154.328 79.8643 154.263 79.7208 154.23 79.5687C152.508 72.405 146.205 66.6535 138.088 65.6659C129.97 64.6784 122.478 68.7361 119.075 75.2807C119.006 75.4198 118.907 75.5428 118.787 75.6419C118.667 75.741 118.528 75.8141 118.378 75.8564C118.228 75.8988 118.071 75.9095 117.917 75.8879C117.762 75.8663 117.614 75.8129 117.482 75.731C116.153 74.899 114.661 74.3596 113.107 74.1487C111.552 73.9378 109.971 74.0603 108.468 74.508C108.292 74.5639 108.105 74.5763 107.924 74.5441C107.742 74.512 107.571 74.4362 107.425 74.3235C107.28 74.2107 107.164 74.0642 107.087 73.8967C107.011 73.7292 106.976 73.5456 106.986 73.3618L109.508 34.519C109.528 34.2202 109.434 33.9249 109.243 33.6936C109.053 33.4624 108.78 33.3128 108.483 33.2756C107.876 33.2026 107.323 32.8921 106.946 32.4124C106.568 31.9327 106.397 31.323 106.469 30.7171L106.633 29.3458C106.673 29.0361 106.833 28.7547 107.08 28.5629C107.327 28.3712 107.64 28.2847 107.95 28.3224L113.075 28.9466L113.633 29.0183C114.006 29.0658 114.349 29.2483 114.596 29.5312C114.844 29.8141 114.979 30.1778 114.976 30.5534C114.976 32.3136 114.207 34.9488 114.433 36.4123C114.658 37.8757 117.784 39.0271 118.092 33.3012C118.23 30.7427 119.193 30.1542 119.378 30.8911C120.357 34.7493 121.735 31.848 121.428 30.6864C121.428 30.6864 121.428 30.6557 121.428 30.6352C121.428 30.6148 121.028 30.1645 121.771 30.011L176.322 36.663C176.616 36.718 176.878 36.8823 177.055 37.1226C177.232 37.3629 177.311 37.6614 177.276 37.9576Z" fill="#50429B"/>
<path d="M166.714 94.152C166.482 95.871 165.766 97.4887 164.648 98.8161C163.53 100.144 162.057 101.126 160.4 101.648C160.011 101.775 159.666 102.009 159.405 102.323C159.144 102.637 158.977 103.019 158.924 103.424L158.458 107.205C158.424 107.486 158.334 107.758 158.195 108.004C158.056 108.251 157.869 108.467 157.646 108.642C157.423 108.816 157.167 108.945 156.894 109.021C156.621 109.096 156.336 109.118 156.055 109.083L110.143 103.48C109.862 103.446 109.59 103.357 109.343 103.218C109.097 103.079 108.88 102.892 108.705 102.669C108.53 102.447 108.401 102.191 108.325 101.919C108.25 101.646 108.228 101.361 108.263 101.08L108.724 97.3092C108.773 96.9054 108.707 96.4959 108.533 96.1281C108.359 95.7604 108.084 95.4495 107.74 95.2317L107.499 95.0782C106.141 94.2168 105.039 93.0064 104.311 91.5737C103.582 90.1411 103.253 88.5391 103.358 86.9357C103.462 85.3323 103.997 83.7866 104.906 82.4607C105.815 81.1348 107.065 80.0776 108.524 79.3998C109.92 78.7284 111.452 78.3844 113.002 78.3942C114.551 78.4039 116.079 78.7672 117.466 79.4561C117.952 79.7102 118.516 79.7711 119.044 79.6268C119.573 79.4825 120.027 79.1436 120.316 78.6784C123.657 73.1213 130.309 69.7441 137.473 70.6191C144.637 71.4941 150.284 76.3706 152.186 82.5724C152.354 83.0893 152.711 83.524 153.186 83.7896C153.661 84.0552 154.219 84.1321 154.748 84.0051C155.877 83.7573 157.039 83.702 158.186 83.8414C160.05 84.0643 161.815 84.8034 163.28 85.9751C164.505 86.9316 165.463 88.1853 166.064 89.6168C166.665 91.0483 166.889 92.6097 166.714 94.152Z" fill="#50429B"/>
<path d="M107.791 104.928C106.679 113.98 113.597 122.551 123.98 126.118C123.375 127.822 122.181 130.078 119.936 131.235C123.807 131.149 127.56 129.891 130.698 127.627C144.473 129.213 156.659 121.825 157.976 111.048L107.791 104.928ZM124.666 116.155C124.293 116.167 123.924 116.064 123.611 115.86C123.297 115.657 123.054 115.362 122.913 115.016C122.773 114.67 122.742 114.29 122.824 113.926C122.907 113.562 123.099 113.231 123.375 112.98C123.651 112.728 123.998 112.567 124.369 112.518C124.74 112.469 125.116 112.535 125.449 112.706C125.781 112.878 126.052 113.147 126.227 113.477C126.401 113.807 126.47 114.183 126.424 114.553C126.4 114.997 126.203 115.414 125.874 115.714C125.545 116.013 125.111 116.172 124.666 116.155ZM134.716 120.1C134.33 120.653 133.8 121.091 133.184 121.367C132.568 121.642 131.888 121.744 131.217 121.663C130.547 121.581 129.912 121.319 129.38 120.904C128.847 120.489 128.439 119.937 128.197 119.307C128.123 119.081 128.139 118.835 128.243 118.621C128.347 118.408 128.53 118.242 128.753 118.161C128.977 118.079 129.223 118.087 129.441 118.184C129.658 118.28 129.83 118.457 129.919 118.678C130.046 118.989 130.253 119.262 130.521 119.467C130.788 119.671 131.106 119.801 131.44 119.842C131.774 119.884 132.114 119.835 132.423 119.701C132.732 119.567 133 119.354 133.199 119.082C133.335 118.878 133.546 118.737 133.786 118.689C134.027 118.641 134.276 118.69 134.48 118.826C134.684 118.962 134.825 119.173 134.873 119.413C134.921 119.653 134.872 119.902 134.736 120.105L134.716 120.1ZM138.908 117.895C138.534 117.907 138.166 117.804 137.853 117.601C137.539 117.398 137.296 117.103 137.155 116.758C137.014 116.412 136.982 116.032 137.064 115.668C137.146 115.304 137.338 114.973 137.614 114.722C137.889 114.47 138.236 114.308 138.606 114.258C138.977 114.209 139.353 114.274 139.686 114.444C140.018 114.615 140.29 114.883 140.465 115.213C140.64 115.542 140.71 115.918 140.665 116.288C140.639 116.73 140.44 117.144 140.112 117.442C139.783 117.739 139.351 117.896 138.908 117.879V117.895Z" fill="#50429B"/>
<path d="M67.6705 95.1089C68.1487 92.6616 68.4128 90.1773 68.4597 87.6842C68.5143 85.0643 68.5434 82.5314 68.5468 80.0855C68.5468 77.933 68.5758 75.7498 68.6339 73.5358C68.6909 71.3073 68.8963 69.085 69.2489 66.8838L69.5102 65.4868L70.9092 65.2259C74.7561 64.8847 78.591 64.6801 82.414 64.6118C86.2277 64.5552 90.0409 64.7604 93.8265 65.2259L95.2306 65.4868L102.405 118.944L101.534 119.645C94.4903 124.25 86.7922 127.769 78.6986 130.083C70.5627 132.348 62.1178 133.307 53.6803 132.923C49.9943 132.754 46.3256 132.316 42.7034 131.613C39.1627 130.927 35.6925 129.918 32.3363 128.599C29.0055 127.288 25.8352 125.602 22.8865 123.575C19.8584 121.479 17.1041 119.014 14.6872 116.237C9.82412 110.769 6.1074 104.383 3.75636 97.4576C1.37521 90.5381 0.119154 83.2825 0.035894 75.9664C-0.0489117 68.6132 0.998484 61.2906 3.14141 54.2551C5.22958 47.2544 8.43989 40.6377 12.6476 34.6623C16.8796 28.6443 22.0129 23.3116 27.8676 18.8509C33.3745 14.7106 39.443 11.3734 45.8909 8.93932C52.4297 6.49585 59.2458 4.86827 66.1843 4.09356C73.4732 3.27093 80.8167 3.03649 88.1433 3.39254H89.1938L89.7063 4.44152C91.7663 8.45776 93.2253 12.754 94.0366 17.193C94.8728 21.6658 95.4137 26.1888 95.656 30.7325V32.7485H93.642C90.3213 32.7485 86.6332 32.8509 82.578 33.0556C78.5227 33.2602 74.4435 33.6696 70.3404 34.2836C66.3082 34.8785 62.3245 35.7644 58.4206 36.9342C54.8686 37.9651 51.4815 39.4951 48.361 41.4781C46.6874 42.5534 45.1403 43.8133 43.7488 45.2339C42.6768 46.2962 41.6818 47.4333 40.7714 48.6367C39.8774 49.8365 39.0593 51.0909 38.3218 52.3925C37.0078 54.7384 35.938 57.2126 35.1292 59.7763C34.2874 62.4121 33.7593 65.1378 33.556 67.8969C33.3489 70.6418 33.4953 73.4019 33.9916 76.1096C34.4695 78.7682 35.4021 81.3248 36.7486 83.6674C37.8859 85.7714 39.3806 87.662 41.166 89.2551C42.8733 90.7602 44.7891 92.0114 46.8543 92.97C48.9591 93.9426 51.1786 94.6458 53.4599 95.0629C55.7949 95.5031 58.166 95.7241 60.5422 95.723C61.7106 95.723 62.9063 95.6786 64.1294 95.5899C65.3188 95.5047 66.5015 95.3441 67.6705 95.1089Z" fill="#50429B"/>
</g>
<defs>
<clipPath id="clip0_1264_4302">
<rect width="190" height="133" fill="white"/>
</clipPath>
</defs>
</svg>
