<svg width="222" height="299" viewBox="0 0 222 299" fill="none" xmlns="http://www.w3.org/2000/svg">
<path d="M1.90256 182.264C3.66896 172.899 12.6254 166.759 22.1021 167.904C28.7502 168.707 37.5888 167.369 39.5147 155.345C42.6884 135.541 42.2249 117.521 55.4616 107.977C68.6983 98.4326 86.6546 119.783 99.1205 118.23C111.586 116.678 136.389 98.2742 165.859 107.977C195.33 117.679 195.842 159.481 199.773 168.092C203.705 176.702 232.436 200.029 214.875 224.841C197.315 249.653 178.577 244.538 178.452 271.792C178.328 299.047 119.465 305.378 110.828 287.393C102.191 269.409 81.9893 287.082 64.1767 282.932C46.364 278.782 22.7636 268.038 26.8242 243.267C30.8849 218.496 5.0019 221.084 2.71853 202.059C1.67038 193.335 0.954635 187.291 1.90256 182.264Z" fill="#50429B"/>
<path d="M136.423 299C132.816 299 129.324 298.7 126.13 298.095C117.771 296.511 111.869 292.934 109.51 288.025C104.771 278.154 96.3711 280.129 85.7359 282.631C78.9067 284.238 71.1671 286.058 63.8443 284.352C55.9101 282.504 44.7062 278.85 36.367 271.956C27.18 264.357 23.4827 254.626 25.3835 243.03C27.5099 230.057 20.968 225.165 14.0427 219.987C8.29332 215.687 2.3502 211.241 1.26447 202.23C0.222173 193.545 -0.531156 187.269 0.463539 181.993C2.34352 172.027 11.923 165.205 22.2758 166.453C31.3793 167.553 36.6868 163.738 38.069 155.116C38.6595 151.43 39.1255 147.789 39.5724 144.269C41.5885 128.522 43.3307 114.925 54.6005 106.796C63.1093 100.659 73.2884 106.119 82.2691 110.939C88.4285 114.243 94.2472 117.358 98.9334 116.781C102.299 116.364 106.821 114.562 112.056 112.48C125.847 106.996 144.734 99.4872 166.311 106.593C176.653 109.999 184.739 117.687 190.343 129.442C195.026 139.266 197.176 150.06 198.745 157.941C199.581 162.126 200.299 165.739 201.097 167.488C201.879 169.2 203.911 171.775 206.264 174.756C215.309 186.207 230.442 205.375 216.069 225.682C208.843 235.89 201.278 241.237 195.2 245.532C186.037 252.007 179.985 256.286 179.916 271.799C179.887 278.139 176.834 283.927 171.085 288.537C166.122 292.519 159.292 295.562 151.334 297.354C146.439 298.443 141.438 298.995 136.423 299ZM97.9587 277.723C103.7 277.723 108.79 279.767 112.149 286.763C116.065 294.921 133.355 298.393 150.691 294.503C158.218 292.813 164.638 289.963 169.252 286.262C174.362 282.165 176.965 277.294 176.991 271.786C177.068 254.77 184.324 249.643 193.511 243.151C199.714 238.767 206.746 233.799 213.682 223.999C226.794 205.47 213.062 188.07 203.974 176.56C201.402 173.302 199.371 170.724 198.443 168.696C197.503 166.64 196.789 163.051 195.884 158.509C192.767 142.856 187.55 116.661 165.4 109.362C144.831 102.587 126.515 109.87 113.141 115.189C107.72 117.345 103.036 119.207 99.3 119.673C93.6809 120.371 87.4714 117.037 80.8885 113.505C72.2628 108.876 63.3432 104.091 56.316 109.158C46.0717 116.544 44.4055 129.562 42.4771 144.635C42.0236 148.178 41.5542 151.843 40.9562 155.573C39.3277 165.744 32.5661 170.639 21.9251 169.35C13.0964 168.284 4.93508 174.076 3.34072 182.534C2.42871 187.369 3.15949 193.455 4.17089 201.885C5.10295 209.656 10.2969 213.541 15.7957 217.653C23.1144 223.126 30.6811 228.786 28.2691 243.503C24.2076 268.28 49.232 277.952 64.5116 281.511C71.1671 283.062 78.2335 281.399 85.0678 279.792C89.4341 278.764 93.8622 277.723 97.9587 277.723Z" fill="#371A45"/>
<path d="M191.581 233.643C191.37 234.383 191.113 235.109 190.811 235.816C186.939 235.727 180.196 234.482 172.697 232.343C165.198 230.204 158.816 227.703 155.482 225.736C155.6 224.976 155.766 224.225 155.978 223.485C155.989 223.45 155.998 223.415 156.009 223.38C156.104 223.051 156.209 222.726 156.323 222.407C156.582 221.665 156.889 220.941 157.241 220.239C157.255 220.211 157.269 220.183 157.284 220.156C159.228 216.353 162.431 213.339 166.35 211.626C170.268 209.914 174.659 209.608 178.778 210.76C182.896 211.913 186.488 214.454 188.943 217.95C191.397 221.447 192.564 225.683 192.244 229.941C192.237 230.033 192.229 230.127 192.22 230.219C192.148 231.001 192.027 231.777 191.857 232.543C191.793 232.83 191.722 233.117 191.643 233.405C191.625 233.486 191.604 233.564 191.581 233.643Z" fill="#FFB200"/>
<path d="M186.761 241.744C184.752 243.715 182.318 245.203 179.646 246.093C176.974 246.984 174.133 247.254 171.34 246.883C168.547 246.512 165.876 245.51 163.53 243.954C161.184 242.397 159.224 240.326 157.801 237.9C157.29 237.028 156.852 236.117 156.49 235.175C156.204 234.435 155.968 233.676 155.781 232.905C159.982 234.967 165.177 236.952 170.91 238.587C176.642 240.223 182.102 241.277 186.761 241.744Z" fill="#FF9100"/>
<path d="M190.811 235.815C186.94 235.726 180.196 234.482 172.698 232.343C165.2 230.205 158.816 227.703 155.481 225.736C155.601 224.977 155.767 224.225 155.978 223.485C155.988 223.45 155.998 223.416 156.009 223.381C156.105 223.048 156.209 222.727 156.323 222.407C156.583 221.666 156.89 220.943 157.241 220.24C157.255 220.213 157.27 220.184 157.285 220.157C158.996 216.816 161.684 214.074 164.992 212.295C168.301 210.515 172.073 209.781 175.809 210.192C169.496 210.579 157.877 218.728 166.918 228.005C172.37 233.601 188.325 235.054 191.011 235.274C190.849 235.778 191.014 235.338 190.811 235.815Z" fill="#FF9100"/>
<path d="M170.91 238.587C176.641 240.223 182.101 241.277 186.761 241.744C186.221 242.273 185.649 242.768 185.048 243.227C181.39 242.953 176.052 241.92 170.226 240.257C164.644 238.665 159.748 236.819 156.49 235.172C156.204 234.431 155.968 233.673 155.781 232.902C159.982 234.967 165.177 236.952 170.91 238.587Z" fill="#D66B09"/>
<path d="M191.646 233.407C191.625 233.49 191.604 233.564 191.581 233.643C191.37 234.383 191.113 235.109 190.811 235.816C186.939 235.727 180.196 234.482 172.697 232.343C165.198 230.204 158.816 227.703 155.482 225.736C155.6 224.976 155.766 224.225 155.978 223.485C155.989 223.45 155.998 223.415 156.009 223.38C159.029 225.413 165.454 228.044 173.099 230.224C181.045 232.492 188.131 233.651 191.646 233.407Z" fill="#D66B09"/>
<path d="M158.684 217.731L159.539 216.824C161.376 218.551 167.769 221.215 175.08 223.3C183.8 225.789 190.189 226.505 191.993 225.926L192.375 227.112C189.988 227.878 182.9 226.827 174.737 224.498C167.138 222.327 160.688 219.611 158.684 217.731Z" fill="#D66B09"/>
<path d="M163.463 213.532L164.121 212.474C166.558 213.985 171.405 215.874 176.769 217.404C182.39 219.008 187.627 219.959 190.427 219.887L190.46 221.132C187.536 221.208 182.161 220.238 176.429 218.602C170.961 217.042 165.991 215.099 163.463 213.532Z" fill="#D66B09"/>
<path d="M156.881 220.632L157.693 219.685C159.893 221.565 166.514 224.296 174.171 226.48C182.201 228.771 189.574 229.946 192.1 229.337L192.393 230.549C189.637 231.216 182.175 230.058 173.828 227.678C165.893 225.412 159.241 222.648 156.881 220.632Z" fill="#D66B09"/>
<path d="M157.616 238.15L157.8 237.9L157.868 237.595L157.932 237.609L157.985 237.648C160.012 239.127 164.652 241.032 169.806 242.503C174.989 243.982 179.797 244.793 182.354 244.621L182.397 245.242C179.772 245.419 174.88 244.599 169.634 243.102C164.335 241.59 159.73 239.693 157.616 238.15Z" fill="#D66B09"/>
<path d="M173.762 248.003C169.394 248.002 165.154 246.535 161.722 243.838C158.29 241.141 155.867 237.371 154.842 233.133L154.356 231.132L156.206 232.039C160.508 234.15 165.684 236.093 171.174 237.659C176.663 239.226 182.087 240.306 186.857 240.784L188.906 240.99L187.436 242.43C183.784 246.002 178.875 248.002 173.762 248.003V248.003ZM157.347 234.708C158.31 237.273 159.863 239.577 161.879 241.435C163.896 243.293 166.321 244.653 168.96 245.406C171.599 246.158 174.378 246.283 177.074 245.77C179.77 245.256 182.307 244.119 184.483 242.449C180.163 241.88 175.426 240.877 170.647 239.514C165.869 238.151 161.314 236.503 157.347 234.708Z" fill="#371A45"/>
<path d="M200.96 239.042C200.215 241.645 194.63 242.533 186.762 241.744C182.103 241.277 176.642 240.223 170.911 238.587C165.18 236.952 159.983 234.967 155.781 232.905C148.682 229.424 144.413 225.724 145.158 223.121C145.835 220.757 150.503 219.808 157.245 220.243C156.893 220.945 156.587 221.669 156.327 222.41C154.389 222.376 153.196 222.64 153.026 223.238C152.856 223.835 153.76 224.722 155.486 225.739C158.82 227.706 165.203 230.207 172.701 232.346C180.199 234.485 186.943 235.73 190.815 235.819C192.82 235.864 194.053 235.6 194.228 234.992C194.402 234.383 193.526 233.541 191.864 232.548C192.035 231.782 192.156 231.006 192.228 230.224C198.178 233.415 201.638 236.678 200.96 239.042Z" fill="#FFD766"/>
<path d="M156.429 222.105C156.392 222.206 156.355 222.306 156.32 222.407C154.382 222.372 153.19 222.636 153.019 223.234C152.844 223.844 153.754 224.719 155.479 225.734C157.691 227.039 161.242 228.58 165.577 230.093C165.299 230.312 165.067 230.583 164.895 230.891C163.237 230.29 161.664 229.667 160.207 229.037C153.871 226.294 151.271 224.036 151.541 223.105C151.7 222.562 153.068 222.017 156.429 222.105Z" fill="#FFAA39"/>
<path d="M156.642 221.105L156.633 221.355C154.934 221.271 153.543 221.308 152.412 221.425C153.414 221.15 154.82 221.044 156.642 221.105Z" fill="#FF9100"/>
<path d="M156.626 221.607L156.633 221.357C156.663 221.357 156.695 221.357 156.728 221.362L156.626 221.607Z" fill="#FF9100"/>
<path d="M152.412 221.426C151.367 221.71 150.76 222.177 150.575 222.831C150.394 223.468 150.668 224.146 151.26 224.838C152.801 226.642 156.499 228.53 159.809 229.963C161.307 230.612 162.926 231.251 164.632 231.869C164.613 232.393 164.771 232.953 165.094 233.541C162.564 232.64 160.186 231.676 158.038 230.68C150.379 227.13 148.09 224.374 148.457 223.094C148.661 222.382 149.836 221.691 152.412 221.426Z" fill="#FFAA39"/>
<path d="M170.557 238.486C164.962 236.872 159.896 234.925 155.78 232.905C148.681 229.424 144.411 225.724 145.157 223.12C145.834 220.757 150.502 219.809 157.245 220.243C157.141 220.448 157.042 220.659 156.945 220.869L156.973 220.363C153.025 220.149 148.174 220.401 147.485 222.816C147.217 223.75 147.635 224.733 148.469 225.709C150.431 228.004 154.684 230.238 157.61 231.594C160.393 232.87 163.241 233.999 166.143 234.977C167.161 236.097 168.661 237.285 170.557 238.486Z" fill="#FFAA39"/>
<path d="M164.629 231.869C162.924 231.251 161.304 230.612 159.807 229.963C156.496 228.53 152.799 226.642 151.257 224.838C150.665 224.146 150.391 223.468 150.572 222.831C150.76 222.177 151.367 221.71 152.41 221.426C153.536 221.31 154.931 221.275 156.631 221.356L156.623 221.606C156.556 221.773 156.492 221.94 156.429 222.107C153.065 222.023 151.697 222.563 151.541 223.107C151.274 224.041 153.871 226.296 160.207 229.039C161.664 229.669 163.237 230.289 164.895 230.893C164.728 231.192 164.636 231.527 164.627 231.869H164.629Z" fill="#FFCF6E"/>
<path d="M156.633 221.356C154.934 221.273 153.543 221.31 152.412 221.426C153.414 221.15 154.82 221.044 156.642 221.105L156.633 221.356Z" fill="#FFEC90"/>
<path d="M156.626 221.607L156.609 222.107C156.55 222.107 156.49 222.102 156.431 222.102C156.495 221.938 156.559 221.772 156.626 221.607Z" fill="#FFEC90"/>
<path d="M184.901 237.123C181.039 236.549 176.626 235.571 172.139 234.289C169.531 233.545 166.996 232.728 164.629 231.867C164.638 231.525 164.73 231.19 164.897 230.891C167.263 231.755 169.802 232.574 172.414 233.32C176.859 234.588 181.228 235.558 185.046 236.124C191.877 237.136 195.275 236.592 195.543 235.66C195.702 235.103 194.792 233.887 191.769 232.143L192.15 231.487L192.275 231.269C193.862 232.186 195.002 233.019 195.707 233.78C196.435 234.57 196.699 235.28 196.515 235.936C195.858 238.242 189.836 237.855 184.901 237.123Z" fill="#FFEC90"/>
<path d="M166.143 234.977C163.241 233.999 160.393 232.87 157.61 231.594C154.686 230.238 150.427 228.004 148.469 225.709C147.633 224.735 147.216 223.75 147.485 222.816C148.174 220.398 153.025 220.148 156.973 220.363L156.945 220.869C156.87 221.036 156.797 221.196 156.728 221.361C156.695 221.361 156.663 221.356 156.633 221.356L156.642 221.106C154.82 221.046 153.414 221.152 152.412 221.428C149.836 221.692 148.654 222.383 148.454 223.095C148.088 224.377 150.375 227.132 158.036 230.681C160.184 231.677 162.561 232.641 165.091 233.542C165.384 234.06 165.737 234.542 166.143 234.977V234.977Z" fill="#FFCF6E"/>
<path d="M156.642 221.105L156.633 221.355C154.934 221.271 153.543 221.308 152.412 221.425C153.414 221.15 154.82 221.044 156.642 221.105Z" fill="#FFAA39"/>
<path d="M156.945 220.869L156.918 221.37L156.728 221.36C156.797 221.196 156.87 221.033 156.945 220.869Z" fill="#FFEC90"/>
<path d="M185.902 239.667C181.519 239.132 176.527 238.083 171.466 236.641C169.648 236.124 167.866 235.565 166.143 234.974C165.737 234.538 165.384 234.056 165.091 233.538C167.218 234.297 169.454 235.014 171.745 235.669C176.756 237.098 181.693 238.133 186.026 238.663C194.408 239.688 197.81 238.555 198.177 237.275C198.38 236.565 197.75 235.358 195.711 233.778C194.814 233.084 193.645 232.316 192.154 231.486L191.904 231.347L192.39 230.464C195.854 232.363 199.839 235.138 199.148 237.55C198.25 240.692 190.465 240.225 185.902 239.667Z" fill="#FFEC90"/>
<path d="M191.906 242.985C190.032 242.985 188.189 242.855 186.665 242.703C181.783 242.214 176.243 241.111 170.644 239.514C165.045 237.917 159.758 235.93 155.355 233.77C150.688 231.481 143.037 227.017 144.229 222.857C145.256 219.272 151.908 218.939 157.306 219.281L158.761 219.375L158.106 220.675C157.772 221.34 157.48 222.025 157.233 222.726L157.002 223.382L156.306 223.369C155.07 223.353 154.436 223.457 154.126 223.548C154.349 223.798 154.854 224.247 155.973 224.908C159.341 226.894 165.851 229.389 172.963 231.417C180.074 233.445 186.922 234.763 190.835 234.853C192.138 234.88 192.801 234.769 193.121 234.676C192.904 234.433 192.421 234.002 191.367 233.372L190.769 233.015L190.921 232.337C191.082 231.611 191.197 230.875 191.266 230.134L191.398 228.685L192.683 229.373C197.45 231.926 202.918 235.721 201.892 239.307C201.047 242.244 196.392 242.985 191.906 242.985ZM154.199 221.102C148.754 221.102 146.407 222.261 146.085 223.385C145.624 224.998 148.574 228.298 156.206 232.041C160.508 234.152 165.685 236.095 171.175 237.661C176.664 239.227 182.088 240.308 186.857 240.786C195.32 241.635 199.571 240.388 200.032 238.777C200.384 237.549 198.709 235.013 192.998 231.751C192.979 231.861 192.959 231.971 192.939 232.084C194.266 232.941 195.505 234.027 195.151 235.258C194.742 236.687 192.599 236.822 190.789 236.782C186.663 236.687 179.801 235.375 172.432 233.274C165.064 231.172 158.543 228.665 154.99 226.569C153.426 225.646 151.684 224.402 152.093 222.974C152.446 221.741 154.072 221.473 155.652 221.445C155.693 221.342 155.734 221.239 155.777 221.135C155.225 221.113 154.699 221.101 154.199 221.102Z" fill="#371A45"/>
<g opacity="0.41">
<path d="M190.774 235.867C190.323 235.857 189.834 235.831 189.309 235.79C189.492 235.307 189.657 234.813 189.801 234.309C189.823 234.23 189.845 234.152 189.866 234.074C189.945 233.787 190.016 233.499 190.08 233.211C190.25 232.445 190.372 231.669 190.444 230.888C190.452 230.795 190.459 230.702 190.466 230.609C190.689 227.624 190.182 224.629 188.989 221.882C187.796 219.136 185.952 216.719 183.617 214.841C181.282 212.962 178.524 211.678 175.581 211.099C172.639 210.519 169.599 210.662 166.724 211.514C169.644 210.318 172.823 209.888 175.957 210.263C179.091 210.639 182.077 211.809 184.631 213.661C187.185 215.513 189.222 217.986 190.548 220.845C191.874 223.705 192.446 226.855 192.209 229.997C192.203 230.09 192.194 230.184 192.186 230.276C192.115 231.057 191.993 231.833 191.823 232.599C191.759 232.887 191.687 233.175 191.61 233.461C191.589 233.54 191.567 233.618 191.544 233.697C191.332 234.436 191.075 235.16 190.774 235.867V235.867Z" fill="white"/>
</g>
<path d="M191.442 236.794L190.789 236.779C186.663 236.684 179.801 235.372 172.432 233.27C165.064 231.169 158.543 228.661 154.99 226.566L154.428 226.232L154.528 225.588C154.653 224.788 154.827 223.997 155.05 223.219C155.158 222.84 155.281 222.458 155.412 222.085C155.687 221.307 156.011 220.546 156.382 219.809C160.575 211.485 170.146 207.305 179.133 209.868C188.119 212.432 194.032 221.03 193.185 230.309C193.109 231.131 192.981 231.948 192.801 232.754C192.718 233.131 192.62 233.52 192.51 233.906C192.288 234.684 192.017 235.448 191.7 236.192L191.442 236.794ZM156.549 225.235C160.051 227.163 166.237 229.498 172.963 231.417C179.688 233.336 186.177 234.618 190.167 234.828C190.348 234.354 190.511 233.87 190.651 233.379C190.751 233.03 190.84 232.679 190.915 232.338C191.076 231.612 191.191 230.876 191.26 230.134C192.023 221.776 186.699 214.032 178.6 211.722C170.501 209.412 161.882 213.177 158.104 220.675C157.77 221.34 157.478 222.025 157.23 222.726C157.111 223.059 157.002 223.407 156.904 223.75C156.763 224.24 156.646 224.737 156.549 225.235Z" fill="#371A45"/>
<path d="M61.6611 199.877C61.661 200.893 61.5772 201.908 61.4105 202.911C60.771 206.724 58.9498 210.242 56.2033 212.969C53.4567 215.695 49.9229 217.494 46.0989 218.112C42.2748 218.73 38.3529 218.136 34.8847 216.414C31.4165 214.691 28.5765 211.927 26.7641 208.509V208.509C26.4857 207.982 26.2312 207.441 26.0007 206.885C25.7267 206.22 25.493 205.539 25.3008 204.846C25.1222 204.211 24.9795 203.567 24.8732 202.916C24.7063 201.912 24.6225 200.896 24.6227 199.879C24.6227 199.545 24.6327 199.219 24.6486 198.892C24.6854 198.204 24.7606 197.519 24.8741 196.839C25.0222 195.931 25.2406 195.036 25.5272 194.161C26.6557 190.708 28.7778 187.664 31.6287 185.407C34.4796 183.151 37.9331 181.782 41.5583 181.472C45.1836 181.162 48.8201 181.924 52.0141 183.663C55.2081 185.403 57.8183 188.043 59.5189 191.253C59.7973 191.778 60.0503 192.317 60.278 192.871C60.5738 193.59 60.823 194.327 61.0239 195.078C61.2396 195.881 61.4009 196.698 61.5066 197.522C61.5651 197.974 61.6063 198.431 61.6302 198.892C61.6511 199.218 61.6611 199.546 61.6611 199.877Z" fill="#29B8FF"/>
<path d="M61.4774 202.48C60.2162 211.454 52.4858 218.359 43.1444 218.359C32.9168 218.359 24.6252 210.083 24.6252 199.877C24.6252 199.544 24.6352 199.218 24.6511 198.89C24.6669 198.562 24.6937 198.247 24.7279 197.928C26.6045 200.935 29.1306 203.485 32.1213 205.393C35.1121 207.3 38.4921 208.516 42.0142 208.952C45.5363 209.389 49.1115 209.034 52.4787 207.914C55.8458 206.794 58.9197 204.937 61.4757 202.48H61.4774Z" fill="#2C96FF"/>
<path d="M29.2078 206.092C27.9058 206.259 26.8693 206.592 26.0024 206.884C25.8529 206.518 25.7126 206.146 25.5848 205.768C25.5405 205.637 25.4971 205.506 25.4562 205.372C25.4019 205.199 25.351 205.021 25.3008 204.845C26.3632 204.678 27.6327 204.36 29.0241 204.208C29.5051 204.154 30.0221 204.216 30.5716 204.316C31.342 204.901 32.1481 205.437 32.9853 205.921C31.1212 206.274 30.5407 205.927 29.2078 206.092Z" fill="#2366F9"/>
<path d="M60.0977 207.322C60.0381 207.459 59.9763 207.595 59.9123 207.73C59.873 207.813 59.8287 207.897 59.7903 207.98C59.7246 208.117 59.6564 208.253 59.5857 208.388C59.5231 208.508 59.4579 208.629 59.3928 208.749C59.2636 208.984 59.1289 209.216 58.9886 209.447C58.9853 209.454 58.9814 209.461 58.9769 209.467C58.91 209.576 58.8416 209.686 58.7731 209.793C58.6269 210.025 58.4749 210.251 58.3162 210.476C58.2394 210.587 58.1592 210.698 58.079 210.809C57.9989 210.921 57.9187 211.025 57.8343 211.133C57.7904 211.188 57.7461 211.244 57.7016 211.299C55.7639 211.071 53.7829 211.019 51.8712 211.234C48.5221 211.608 47.271 214.109 42.0737 212.296C37.7367 210.783 33.889 210.731 30.2201 212.463C30.0756 212.532 29.9252 212.6 29.7732 212.662C29.7198 212.608 29.6672 212.552 29.6146 212.496C29.5461 212.422 29.4776 212.347 29.4091 212.272C29.3406 212.197 29.2746 212.124 29.2095 212.049C29.0781 211.902 28.9503 211.751 28.8262 211.598C28.7426 211.5 28.665 211.402 28.5865 211.303C28.5798 211.294 28.5731 211.286 28.5664 211.276C28.4829 211.169 28.3994 211.061 28.3159 210.953C28.3107 210.948 28.306 210.942 28.3017 210.935C28.2131 210.816 28.1263 210.697 28.0411 210.576C27.9709 210.477 27.9008 210.378 27.834 210.279C27.7229 210.117 27.6143 209.954 27.5099 209.789C27.4398 209.68 27.3713 209.571 27.3053 209.455C27.2518 209.372 27.1992 209.282 27.1483 209.193C27.0698 209.059 26.9929 208.924 26.9178 208.788C26.8643 208.694 26.815 208.598 26.7641 208.503C28.1083 208.883 29.4979 209.08 30.8949 209.087C33.1198 209.087 34.9037 208.403 36.6108 207.63C41.882 209.587 47.6756 209.628 52.9736 207.744C54.3717 208.024 55.8047 208.088 57.2222 207.932C58.201 207.84 59.1659 207.635 60.0977 207.322V207.322Z" fill="#2366F9"/>
<path d="M34.9513 205.422C31.391 206.514 30.9216 205.878 29.2078 206.089C27.9058 206.256 26.8693 206.589 26.0024 206.881C25.7285 206.216 25.4947 205.535 25.3026 204.842C26.3649 204.675 27.6344 204.358 29.0258 204.205C30.6235 204.029 32.617 205.105 34.8954 204.718C37.6206 204.257 36.3787 204.988 34.9513 205.422Z" fill="#2276FC"/>
<path d="M32.9895 205.921C31.1237 206.274 30.5432 205.927 29.2103 206.088C27.9083 206.254 26.8718 206.588 26.0049 206.88C25.8554 206.514 25.7151 206.142 25.5873 205.764C25.543 205.632 25.4996 205.502 25.4587 205.368C25.4044 205.195 25.3535 205.017 25.3033 204.841C26.3657 204.674 27.6352 204.356 29.0266 204.204C29.5076 204.15 30.0246 204.212 30.5741 204.312C31.3449 204.898 32.1516 205.435 32.9895 205.921Z" fill="#2366F9"/>
<path d="M61.0297 195.076C60.7942 195.12 60.5537 195.168 60.3048 195.221C54.715 196.402 50.5332 193.707 50.1783 193.488C49.6421 193.161 52.9001 193.914 55.1125 193.778C56.8664 193.671 58.6645 193.379 60.2839 192.87C60.5797 193.588 60.8288 194.326 61.0297 195.076V195.076Z" fill="#2276FC"/>
<path d="M60.0977 207.322C59.4707 208.744 58.6662 210.081 57.7032 211.302C55.7656 211.074 53.7829 211.021 51.8712 211.236C48.5221 211.61 47.271 214.111 42.0737 212.299C37.7366 210.786 33.889 210.733 30.2201 212.466C30.0756 212.534 29.9252 212.602 29.7732 212.665C28.5813 211.428 27.5692 210.03 26.7666 208.512C28.111 208.891 29.5004 209.087 30.8974 209.095C36.5858 209.095 39.3677 204.635 45.5071 205.582C49.7022 206.228 51.9213 208.47 57.2263 207.94C58.2041 207.845 59.1676 207.638 60.0977 207.322V207.322Z" fill="#2276FC"/>
<path d="M60.0977 207.322C59.4707 208.744 58.6662 210.081 57.7032 211.302C55.7656 211.074 53.7829 211.021 51.8712 211.236C48.5221 211.61 47.271 214.111 42.0737 212.299C37.7366 210.786 33.889 210.733 30.2201 212.466C30.0756 212.534 29.9252 212.602 29.7732 212.665C28.5812 211.427 27.5691 210.029 26.7666 208.51C28.1108 208.89 29.5004 209.086 30.8974 209.094C36.5858 209.094 39.3677 204.633 45.5071 205.581C49.7022 206.226 51.9213 208.468 57.2263 207.938C58.204 207.844 59.1675 207.637 60.0977 207.322Z" fill="#2276FC"/>
<path d="M60.0976 207.322C60.0381 207.459 59.9763 207.595 59.9122 207.73C59.873 207.813 59.8287 207.897 59.7903 207.98C59.7246 208.117 59.6564 208.253 59.5857 208.388C59.523 208.508 59.4579 208.629 59.3928 208.749C59.2636 208.984 59.1288 209.216 58.9885 209.447C58.9853 209.454 58.9814 209.461 58.9768 209.467C58.91 209.576 58.8415 209.686 58.7731 209.793C58.6269 210.025 58.4749 210.251 58.3162 210.476C58.2394 210.587 58.1592 210.698 58.079 210.809C57.9988 210.921 57.9187 211.025 57.8343 211.133C57.7917 211.189 57.7508 211.247 57.7032 211.299C55.7656 211.071 53.7845 211.019 51.8728 211.234C48.5238 211.608 47.2727 214.109 42.0754 212.296C37.7383 210.783 33.8906 210.731 30.2217 212.463C30.0772 212.532 29.9269 212.6 29.7749 212.662C29.7214 212.608 29.6688 212.552 29.6162 212.496C29.5477 212.422 29.4792 212.347 29.4108 212.272C29.3423 212.197 29.2763 212.124 29.2111 212.049C29.0797 211.902 28.952 211.751 28.8278 211.598C28.7443 211.5 28.6666 211.402 28.5881 211.303C28.5814 211.294 28.5747 211.286 28.5681 211.276C28.4845 211.169 28.401 211.061 28.3175 210.953C28.3124 210.948 28.3077 210.942 28.3033 210.935C28.2148 210.816 28.1279 210.697 28.0427 210.576C27.9726 210.477 27.9024 210.378 27.8356 210.279C27.7245 210.117 27.616 209.954 27.5116 209.789C27.4414 209.68 27.3729 209.571 27.3069 209.455C27.2535 209.372 27.2009 209.282 27.1499 209.193C27.0714 209.059 26.9946 208.924 26.9194 208.788C26.866 208.694 26.8167 208.598 26.7657 208.503C28.1099 208.883 29.4995 209.08 30.8965 209.087C33.1214 209.087 34.9054 208.403 36.6125 207.63C41.8836 209.587 47.6772 209.628 52.9753 207.744C54.3733 208.024 55.8064 208.088 57.2238 207.932C58.2021 207.84 59.1664 207.635 60.0976 207.322V207.322Z" fill="#2366F9"/>
<path d="M61.6611 199.877C61.661 200.893 61.5772 201.908 61.4105 202.911C58.9885 203.661 55.7096 203.541 52.5777 202.841C48.9865 202.039 45.6023 200.757 42.1781 202.055C35.9844 204.407 34.2656 201.165 30.2184 201.429C27.9634 201.577 26.2738 202.293 24.8732 202.914C24.7063 201.91 24.6225 200.895 24.6227 199.877C24.6227 199.544 24.6327 199.218 24.6486 198.89C24.6854 198.202 24.7606 197.517 24.8741 196.838C26.5569 197.505 28.6324 198.061 30.894 198.061C36.5824 198.061 39.3644 193.599 45.5038 194.546C49.6989 195.194 52.3823 198.593 57.1737 198.638C58.6935 198.661 60.1914 198.275 61.5099 197.52C61.5684 197.972 61.6096 198.429 61.6335 198.89C61.6511 199.218 61.6611 199.546 61.6611 199.877Z" fill="#2276FC"/>
<path d="M59.5248 191.252C58.48 190.922 57.1863 190.72 55.5051 190.981C51.9973 191.526 48.1755 192.52 42.1798 191.081C37.2523 189.899 34.1621 190.863 30.8465 192.581C28.9673 193.557 27.2811 194.129 25.5297 194.155C26.3992 191.491 27.865 189.06 29.8159 187.045C30.1691 187.073 30.5291 187.086 30.8932 187.086C36.5816 187.086 40.2823 185.37 45.6759 185.318C49.8634 185.273 53.4163 187.272 57.0343 187.648C58.0045 188.746 58.8405 189.956 59.5248 191.252V191.252Z" fill="#2276FC"/>
<path d="M49.3907 198.408C47.8131 197.29 46.359 196.343 44.778 196.223C43.5052 196.127 43.0008 196.179 40.3691 197.474C38.2411 198.52 35.3481 199.524 36.7445 200.421C37.9137 201.171 40.0125 199.374 42.9632 199.465C46.1294 199.564 47.5492 200.333 48.9765 200.197C51.0611 199.998 50.9692 199.527 49.3907 198.408Z" fill="#29B8FF"/>
<g opacity="0.41">
<path d="M24.6511 198.891C24.6586 199.073 24.6712 199.253 24.6854 199.434C25.4496 191.067 33.4221 184.481 43.1436 184.481C52.8651 184.481 60.8377 191.067 61.601 199.433C61.6152 199.252 61.6277 199.072 61.6361 198.89C61.1208 189.137 53.0396 181.393 43.1436 181.393C33.2476 181.393 25.1664 189.14 24.6511 198.891Z" fill="white"/>
</g>
<g opacity="0.5">
<path d="M52.1902 191.888C52.2111 194.093 55.7598 196.012 56.9791 201.778C57.4961 204.224 59.5682 201.514 57.76 196.901C56.0847 192.625 52.1752 190.335 52.1902 191.888Z" fill="white"/>
</g>
<g opacity="0.5">
<path d="M46.4859 187.899C46.9778 188.561 48.568 188.835 49.9561 189.824C51.4402 190.88 52.551 190.05 50.3328 187.836C47.9684 185.475 45.558 186.648 46.4859 187.899Z" fill="white"/>
</g>
<path d="M27.778 201.834C26.6647 202.132 25.7176 202.54 24.8749 202.914C24.859 202.819 24.844 202.724 24.8298 202.628C24.8181 202.551 24.8064 202.475 24.7981 202.398C24.7897 202.321 24.7755 202.245 24.7672 202.168C24.7513 202.044 24.7363 201.918 24.7246 201.792C24.7179 201.735 24.712 201.681 24.7087 201.625C24.697 201.525 24.6887 201.423 24.682 201.323C24.682 201.297 24.6761 201.269 24.6761 201.244C24.6678 201.135 24.6594 201.026 24.6544 200.917C24.6544 200.867 24.6494 200.818 24.6477 200.768C24.6411 200.631 24.6352 200.492 24.6319 200.351C24.6269 200.193 24.6252 200.035 24.6252 199.875C24.6252 199.541 24.6352 199.215 24.6511 198.888C24.6594 198.742 24.6678 198.597 24.6803 198.452C24.6803 198.419 24.6853 198.385 24.6887 198.353C24.6987 198.21 24.712 198.068 24.7279 197.926C25.6056 199.331 26.6278 200.641 27.778 201.834V201.834Z" fill="#2366F9"/>
<path d="M27.778 201.834C26.6647 202.132 25.7176 202.54 24.8749 202.914C24.859 202.819 24.844 202.724 24.8298 202.628C24.8181 202.551 24.8064 202.475 24.7981 202.398C24.7897 202.321 24.7755 202.245 24.7672 202.168C24.7513 202.044 24.7363 201.918 24.7246 201.792C24.7179 201.735 24.712 201.681 24.7087 201.625C24.697 201.525 24.6887 201.423 24.682 201.323C24.682 201.297 24.6761 201.269 24.6761 201.244C24.6678 201.135 24.6594 201.026 24.6544 200.917C24.6544 200.867 24.6494 200.818 24.6477 200.768C24.6411 200.631 24.6352 200.492 24.6319 200.351C24.6269 200.193 24.6252 200.035 24.6252 199.875C24.6252 199.541 24.6352 199.215 24.6511 198.888C24.6594 198.742 24.6678 198.597 24.6803 198.452C24.6803 198.419 24.6853 198.385 24.6887 198.353C24.6987 198.21 24.712 198.068 24.7279 197.926C25.6056 199.331 26.6278 200.641 27.778 201.834V201.834Z" fill="#2366F9"/>
<path d="M43.1436 219.326C32.4049 219.326 23.6606 210.6 23.6606 199.877C23.6606 199.531 23.6706 199.186 23.6873 198.845C24.2327 188.517 32.779 180.43 43.1469 180.43C53.5148 180.43 62.0578 188.517 62.6024 198.84C62.6199 199.185 62.6299 199.53 62.6299 199.877C62.6266 210.6 53.8865 219.326 43.1436 219.326ZM43.1436 182.36C33.8063 182.36 26.106 189.644 25.6149 198.944C25.6007 199.249 25.5915 199.565 25.5915 199.88C25.5915 209.54 33.4656 217.399 43.1436 217.399C52.8216 217.399 60.6957 209.54 60.6957 199.88C60.6957 199.565 60.6865 199.25 60.6714 198.94C60.1804 189.642 52.4817 182.358 43.1436 182.358V182.36Z" fill="#371A45"/>
<path d="M73.9958 123.707L71.9948 124.162L71.5388 127.319L71.0827 124.162L69.0817 123.707L71.0827 123.252L71.5388 120.095L71.9948 123.252L73.9958 123.707Z" fill="white"/>
<path d="M62.5447 162.655L60.5428 163.11L60.0876 166.266L59.6316 163.11L57.6297 162.655L59.6316 162.2L60.0876 159.043L60.5428 162.2L62.5447 162.655Z" fill="#FFB200"/>
<path d="M189.583 163.506L187.582 163.961L187.126 167.117L186.67 163.961L184.668 163.506L186.67 163.051L187.126 159.894L187.582 163.051L189.583 163.506Z" fill="#FFB200"/>
<path d="M163.253 149.494L161.252 149.949L160.796 153.105L160.34 149.949L158.339 149.494L160.34 149.039L160.796 145.882L161.252 149.039L163.253 149.494Z" fill="white"/>
<path d="M73.9983 266.968L71.9973 267.423L71.5413 270.579L71.0853 267.423L69.0842 266.968L71.0853 266.513L71.5413 263.356L71.9973 266.513L73.9983 266.968Z" fill="white"/>
<path d="M169.803 262.762L167.802 263.218L167.346 266.374L166.89 263.218L164.889 262.762L166.89 262.307L167.346 259.15L167.802 262.307L169.803 262.762Z" fill="white"/>
<path d="M204.527 201.356L202.886 201.729L202.513 204.318L202.139 201.729L200.498 201.356L202.139 200.982L202.513 198.394L202.886 200.982L204.527 201.356Z" fill="white"/>
<path d="M181.945 196.435L180.304 196.809L179.93 199.397L179.556 196.809L177.914 196.435L179.556 196.062L179.93 193.473L180.304 196.062L181.945 196.435Z" fill="white"/>
<path d="M135.805 276.985L134.292 277.329L133.947 279.714L133.603 277.329L132.091 276.985L133.603 276.641L133.947 274.256L134.292 276.641L135.805 276.985Z" fill="#FFB200"/>
<path d="M46.719 249.285L44.7179 249.74L44.2619 252.896L43.8059 249.74L41.8048 249.285L43.8059 248.83L44.2619 245.673L44.7179 248.83L46.719 249.285Z" fill="#FFB200"/>
<path d="M21.7589 182.87L20.4025 183.178L20.0935 185.317L19.7845 183.178L18.429 182.87L19.7845 182.561L20.0935 180.423L20.4025 182.561L21.7589 182.87Z" fill="white"/>
<path d="M153.335 113.558L151.979 113.866L151.67 116.005L151.362 113.866L150.005 113.558L151.362 113.249L151.67 111.11L151.979 113.249L153.335 113.558Z" fill="white"/>
<path d="M120.561 128.401L119.206 128.709L118.897 130.848L118.588 128.709L117.231 128.401L118.588 128.093L118.897 125.954L119.206 128.093L120.561 128.401Z" fill="#FFB200"/>
<path d="M115.189 33.7884L113.477 34.1777L113.087 36.8787L112.697 34.1777L110.985 33.7884L112.697 33.3991L113.087 30.6982L113.477 33.3991L115.189 33.7884Z" fill="white"/>
<path d="M111.964 206.51C111.814 206.51 111.669 206.456 111.555 206.358C111.442 206.26 111.367 206.125 111.345 205.977L92.3354 78.6499C92.311 78.4858 92.3528 78.3188 92.4517 78.1855C92.5506 78.0523 92.6985 77.9637 92.8629 77.9392C93.0272 77.9148 93.1946 77.9565 93.3281 78.0553C93.4616 78.154 93.5504 78.3016 93.5749 78.4657L112.582 205.793C112.594 205.874 112.59 205.957 112.57 206.036C112.55 206.116 112.514 206.191 112.465 206.257C112.416 206.323 112.355 206.378 112.284 206.421C112.214 206.463 112.135 206.491 112.054 206.503C112.024 206.508 111.994 206.51 111.964 206.51V206.51Z" fill="#F9EEFF"/>
<path d="M176.422 61.8632C175.629 69.0374 173.408 75.9812 169.889 82.287C155.305 108.483 122.21 117.916 95.966 103.362C75.069 91.7745 64.8198 68.4647 68.8729 46.2244C70.2346 38.7901 73.1339 31.7208 77.386 25.4675C81.638 19.2142 87.1493 13.9143 93.5682 9.90595C94.7842 9.14568 96.0281 8.4371 97.2998 7.78021C104.14 4.2384 111.655 2.18341 119.348 1.75061L119.551 1.73894C120.022 1.71393 120.493 1.69392 120.971 1.68308C121.91 1.65752 122.849 1.65752 123.788 1.68308C132.546 1.91866 141.117 4.25956 148.775 8.50713C149.198 8.74388 149.618 8.98063 150.033 9.22821C150.283 9.3741 150.534 9.52665 150.777 9.67837C169.184 20.914 178.649 41.532 176.422 61.8632Z" fill="#FFD243"/>
<path d="M176.421 61.8632C175.784 67.6409 174.218 73.2783 171.782 78.5582C171.206 79.8181 170.575 81.0627 169.89 82.292C155.306 108.485 122.211 117.919 95.9618 103.369C87.6949 98.7828 80.7698 92.123 75.8703 84.0478C70.9708 75.9727 68.2665 66.7615 68.0246 57.324C67.7826 47.8865 70.0113 38.5493 74.4906 30.2346C78.9698 21.9198 85.5447 14.9152 93.5657 9.91262C94.78 9.15319 96.027 8.44378 97.2964 7.78688C104.137 4.24624 111.652 2.19158 119.345 1.75811C119.412 1.75811 119.48 1.74811 119.55 1.74561C120.018 1.7206 120.489 1.70059 120.964 1.69059C121.904 1.66669 122.843 1.66669 123.782 1.69059C132.539 1.92202 141.111 4.26289 148.767 8.5138C149.191 8.75055 149.613 8.98647 150.026 9.23572C150.277 9.37994 150.527 9.53166 150.769 9.68588C169.184 20.9131 178.65 41.5311 176.421 61.8632Z" fill="#FFD243"/>
<path d="M171.782 78.5582C171.206 79.8181 170.575 81.0627 169.89 82.292C155.306 108.485 122.211 117.919 95.9618 103.369C85.8308 97.7699 77.7674 89.0731 72.9577 78.5582H171.782Z" fill="#FCAC38"/>
<path d="M155.441 61.884C153.956 68.4955 155.988 73.8465 159.98 73.8365C163.971 73.8265 168.77 68.6289 170.252 62.0174C171.735 55.4059 169.344 49.884 165.352 49.894C161.361 49.904 156.925 55.2692 155.441 61.884Z" fill="#FCAC38"/>
<path d="M152.396 57.4433C150.034 62.3334 150.314 68.398 153.185 72.9854C154.152 74.4684 155.499 75.708 157.266 76.244C157.332 76.2647 157.389 76.3082 157.425 76.3667C157.462 76.4251 157.477 76.4948 157.467 76.563C157.457 76.6313 157.423 76.6938 157.371 76.7392C157.318 76.7847 157.252 76.8101 157.183 76.8109C156.166 76.8009 155.144 76.4708 154.244 75.9564C148.287 72.221 147.206 62.2017 151.81 57.0407C152.085 56.7356 152.588 57.0765 152.4 57.4433H152.396Z" fill="#371A45"/>
<path d="M97.9862 28.0878C100.964 27.8972 103.246 25.6874 103.083 23.1521C102.92 20.6168 100.374 18.7162 97.3963 18.9068C94.4185 19.0974 92.1366 21.3072 92.2996 23.8425C92.4625 26.3778 95.0085 28.2784 97.9862 28.0878Z" fill="#FCAC38"/>
<path d="M100.027 28.1188C102.13 27.342 103.325 25.3395 102.697 23.6461C102.069 21.9526 99.8557 21.2096 97.7529 21.9864C95.6501 22.7632 94.4545 24.7657 95.0824 26.4591C95.7104 28.1525 97.924 28.8956 100.027 28.1188Z" fill="#FFD243"/>
<path d="M97.8569 28.5758C95.4449 28.9201 92.6888 27.668 91.7275 25.3188C90.3503 22.0635 93.0563 18.7098 96.2717 18.1496C98.1158 17.7787 100.128 18.1305 101.647 19.265C103.753 20.6822 104.456 23.85 102.824 25.8457C102.669 26.0516 102.34 25.839 102.46 25.6147C103.506 23.7024 102.785 21.3333 100.965 20.2404C98.4599 18.6031 94.4719 19.3459 93.103 22.0877C91.5839 25.2104 94.7792 27.9989 97.8352 28.0431C98.1567 28.0556 98.1742 28.5433 97.8569 28.5774V28.5758Z" fill="#371A45"/>
<path d="M104.686 20.2295C107.223 23.1614 106.072 27.6354 102.998 29.7187C100.066 31.8194 95.8816 32.0345 92.7982 30.1355C90.7653 28.9417 89.2687 26.6551 89.409 24.2726C89.4118 24.2185 89.4349 24.1674 89.4736 24.1295C89.5124 24.0915 89.5641 24.0695 89.6183 24.0679C89.6726 24.0662 89.7255 24.0849 89.7666 24.1204C89.8076 24.1559 89.8338 24.2054 89.84 24.2593C90.3895 28.6466 95.4356 30.8341 99.3952 29.7862C103.597 28.8567 106.561 24.5819 104.248 20.533C104.086 20.2579 104.484 19.9828 104.686 20.227V20.2295Z" fill="#371A45"/>
<path d="M83.0642 35.8458C88.0894 36.2526 92.0565 40.9776 92.4866 45.9168C93.2383 52.5024 89.0891 59.329 82.8103 61.5181C81.2819 62.0625 79.6567 62.2836 78.0381 62.1675C77.9644 62.1635 77.8951 62.1315 77.8444 62.0781C77.7937 62.0247 77.7654 61.9539 77.7654 61.8803C77.7654 61.8067 77.7937 61.7359 77.8444 61.6825C77.8951 61.629 77.9644 61.5971 78.0381 61.5931C81.0731 61.3147 83.8618 59.9317 85.9973 57.9135C92.642 51.8622 92.5952 39.4296 82.9314 36.546C82.5138 36.436 82.6324 35.8 83.0633 35.8458H83.0642Z" fill="#371A45"/>
<path d="M87.2021 50.2764C88.1056 45.1882 85.4131 40.4576 81.1884 39.7102C76.9636 38.9629 72.8064 42.4818 71.9029 47.5701C70.9995 52.6583 73.6919 57.3889 77.9167 58.1363C82.1415 58.8836 86.2987 55.3647 87.2021 50.2764Z" fill="#FCAC38"/>
<path d="M79.2783 56.9115C82.0419 56.944 84.8523 55.0667 86.2938 51.9097C88.2147 47.7083 86.9837 42.8291 83.5452 41.0109C83.0719 40.7598 82.566 40.5752 82.0419 40.4624C80.0133 41.2877 78.1943 43.0208 77.0918 45.4283C75.145 49.6973 76.1431 54.6023 79.2783 56.9115Z" fill="#FFD243"/>
<path d="M72.0031 45.4983C75.6971 36.957 87.6693 38.1316 87.8063 48.0234C87.8063 53.7987 82.0494 59.2906 76.2274 57.555C74.4009 56.9973 72.8583 55.6635 72.0774 54.0138C71.9254 53.6954 72.3781 53.4394 72.5785 53.7254C77.2129 60.0092 85.9338 54.7532 85.8913 47.9984C85.9748 42.649 80.7841 39.7605 76.1648 42.4014C74.74 43.18 73.5407 44.3879 72.6453 45.8193C72.424 46.1936 71.8377 45.8951 72.0073 45.4983H72.0031Z" fill="#371A45"/>
<path d="M143.907 46.4087C144.651 50.641 143.474 55.2067 140.762 58.5454C135.104 65.7004 124.341 66.4006 117.169 61.1296C113.701 58.6287 111.11 54.8841 110.198 50.721C110.133 50.375 110.627 50.2275 110.752 50.5651C111.44 52.4622 112.427 54.2379 113.675 55.8253C121.526 65.8154 137.88 65.051 142.348 52.3866L142.59 51.6838C142.736 50.9794 142.964 50.2075 143.049 49.4922C143.188 48.4963 143.237 47.49 143.197 46.4853C143.175 46.0527 143.831 45.9727 143.907 46.4095V46.4087Z" fill="#371A45"/>
<path d="M129.736 57.6681C136.09 55.883 139.92 49.7482 138.289 43.9656C136.658 38.183 130.185 34.9424 123.831 36.7276C117.477 38.5127 113.648 44.6475 115.279 50.4301C116.909 56.2127 123.382 59.4533 129.736 57.6681Z" fill="#FCAC38"/>
<path d="M116.981 50.2075C117.994 53.9254 121.345 56.8998 125.726 57.5033C131.56 58.3036 137.015 54.594 137.912 49.2171C138.037 48.4754 138.069 47.7209 138.006 46.9713C136.231 44.6005 133.434 42.8941 130.09 42.4331C124.165 41.6203 118.595 45.029 116.981 50.2075Z" fill="#FFD243"/>
<path d="M128.058 35.78C132.985 36.3493 137.328 40.4174 138.182 45.3358C139.254 50.4492 136.047 55.8995 131.058 57.4725C123.5 60.0334 115.098 54.1188 115.189 46.1252C115.219 43.6502 116.142 41.1927 117.801 39.4204C117.852 39.3693 117.92 39.3389 117.992 39.3352C118.064 39.3316 118.134 39.3549 118.19 39.4006C118.246 39.4463 118.282 39.5112 118.292 39.5824C118.303 39.6536 118.286 39.726 118.245 39.7855C116.915 41.6132 116.261 43.8445 116.394 46.0994C116.739 52.8959 123.981 57.881 130.437 55.6561C137.291 53.2819 138.496 44.8306 133.66 39.8214C132.153 38.1975 130.141 37.0329 127.93 36.4785C127.5 36.3752 127.618 35.7233 128.058 35.7766V35.78Z" fill="#371A45"/>
<path d="M90.6442 83.6275C88.9463 87.9448 90.6025 92.5973 93.3853 96.0526C99.0252 103.026 108.597 106.69 117.471 105.493C121.887 104.857 126.3 102.672 128.423 98.5735C128.572 98.2609 129.081 98.471 128.949 98.8069C128.101 101.058 126.448 102.99 124.449 104.364C114.282 110.959 98.9292 106.485 92.0515 97.0546C89.1727 93.245 87.6251 87.7772 89.992 83.3365C90.2033 82.9464 90.7962 83.2081 90.6442 83.6258V83.6275Z" fill="#371A45"/>
<path d="M125.48 95.0928C127.117 88.9982 121.633 82.2355 113.232 79.9879C104.831 77.7402 96.6934 80.8587 95.0568 86.9533C93.4201 93.0478 98.9039 99.8105 107.305 102.058C115.706 104.306 123.843 101.187 125.48 95.0928Z" fill="#FCAC38"/>
<path d="M123.279 97.3796C124.112 92.8515 118.955 88.1114 111.76 86.7923C104.565 85.4733 98.0567 88.0747 97.2235 92.6029C96.3902 97.131 101.547 101.871 108.742 103.19C115.937 104.509 122.445 101.908 123.279 97.3796Z" fill="#FCAC38"/>
<path d="M119.633 100.952C125.185 97.739 125.341 91.5177 121.423 86.8844C119.114 84.0418 115.811 82.1003 112.356 80.9549C109.213 79.9879 105.801 79.6752 102.585 80.4247C98.6661 81.2658 95.0439 84.3294 95.0723 88.5575C95.0932 93.1549 98.5074 97.0663 102.204 99.4863C103.123 100.061 104.074 100.583 105.053 101.049C105.373 101.203 105.155 101.701 104.826 101.577C102.035 100.577 99.4177 98.9828 97.2939 96.8154C92.5167 91.9845 91.7575 84.5995 97.8418 80.4697C102.435 77.4461 108.449 77.5703 113.476 79.3401C117.068 80.5997 120.427 82.8005 122.756 85.8324C125.003 88.7076 126.335 92.7023 124.986 96.2585C124.659 97.1801 124.179 98.0401 123.566 98.8027C122.606 100.006 121.344 100.935 119.963 101.583C119.879 101.627 119.781 101.636 119.691 101.608C119.6 101.58 119.524 101.518 119.48 101.434C119.436 101.35 119.426 101.253 119.454 101.162C119.482 101.072 119.545 100.996 119.629 100.952H119.633Z" fill="#371A45"/>
<path d="M143.083 26.1574C144.992 24.907 146.411 23.2089 147.092 21.1557C148.334 17.4327 146.821 13.5997 143.572 10.4119C141.441 8.32121 138.536 6.60227 135.113 5.59109C126.474 3.0402 117.803 5.97122 115.747 12.1367C114.982 14.4308 115.241 16.8492 116.313 19.1141C118.12 22.9355 122.302 26.0982 127.726 27.7005" fill="#FFD243"/>
<path d="M146.757 21.0423C147.692 17.5353 146.03 14.0932 143.584 11.6224C138.634 6.65146 130.921 4.52656 124.093 6.08543C120.693 6.89822 117.423 8.89058 116.024 12.2251C115.899 12.5452 115.385 12.3776 115.479 12.0417C115.948 10.186 117.097 8.50544 118.569 7.24584C127.359 0.0241549 144.184 4.60158 147.694 15.5262C148.243 17.4085 148.187 19.4918 147.435 21.2674C147.261 21.6675 146.653 21.4641 146.757 21.0423V21.0423Z" fill="#371A45"/>
<path d="M143.66 18.7054C144.459 13.8053 139.63 8.94391 132.875 7.84706C126.12 6.75022 119.997 9.83333 119.198 14.7334C118.4 19.6334 123.228 24.4949 129.983 25.5917C136.738 26.6886 142.861 23.6055 143.66 18.7054Z" fill="#FCAC38"/>
<path d="M141.072 15.1172C141.364 11.4775 136.913 8.15206 131.13 7.68968C125.347 7.22731 120.423 9.80309 120.131 13.4428C119.839 17.0826 124.29 20.408 130.072 20.8704C135.855 21.3328 140.78 18.757 141.072 15.1172Z" fill="#FFD243"/>
<path d="M122.738 9.72838C117.45 13.7298 120.088 19.8861 125.066 22.7162C126.715 23.6888 128.522 24.3635 130.405 24.7094C142.592 26.836 147.951 16.0264 136.476 9.56499C135.72 9.17601 134.943 8.83115 134.147 8.53213C134.076 8.50817 134.017 8.45766 133.983 8.39126C133.949 8.32486 133.942 8.24779 133.964 8.17633C133.985 8.10488 134.034 8.04465 134.099 8.00837C134.165 7.97209 134.242 7.96261 134.314 7.98194C137.759 8.80556 141.133 10.7771 143.083 13.8548C145.327 17.216 144.739 21.7076 141.534 24.2509C138.11 27.0302 133.308 27.4087 129.158 26.3842C123.721 25.1079 117.605 20.3746 118.613 14.1999C118.788 13.2702 119.147 12.3848 119.67 11.5957C120.363 10.581 121.28 9.73852 122.35 9.13317C122.429 9.08703 122.523 9.07291 122.612 9.0937C122.701 9.1145 122.779 9.16864 122.829 9.24495C122.879 9.32127 122.899 9.41395 122.882 9.5039C122.866 9.59384 122.816 9.67419 122.743 9.72838H122.738Z" fill="#371A45"/>
<path d="M166.473 63.2401C168.345 57.7327 167.531 52.4784 164.655 51.5044C161.778 50.5304 157.929 54.2055 156.057 59.7129C154.185 65.2203 155 70.4746 157.876 71.4486C160.752 72.4226 164.602 68.7475 166.473 63.2401Z" fill="#FFD243"/>
<path d="M169.657 53.3969C167.101 49.2546 162.586 50.8777 159.93 53.9913C156.339 58.0602 153.96 65.6862 156.917 70.6288C159.033 73.9041 162.936 72.6853 165.386 70.4537C166.722 69.2566 167.838 67.7861 168.732 66.2347C169.103 65.557 169.478 64.8092 169.789 64.1048C169.938 63.7889 170.43 63.9856 170.323 64.3157C169.704 66.4056 168.746 68.4247 167.387 70.1461C161.476 77.6679 153.467 74.3734 153.685 65.0151C153.8 58.8388 157.937 50.4959 164.671 49.6239C165.858 49.5406 167.093 49.7965 168.1 50.4476C169.107 51.0986 169.825 52.0481 170.287 53.061C170.322 53.1433 170.324 53.2355 170.294 53.3194C170.264 53.4034 170.204 53.4731 170.125 53.5149C170.046 53.5566 169.954 53.5674 169.867 53.5451C169.781 53.5228 169.706 53.4691 169.657 53.3944V53.3969Z" fill="#371A45"/>
<g opacity="0.5">
<path d="M151 21.0315C151.272 27.5929 162.013 32.9681 166.184 50.0174C167.953 57.2491 173.863 48.9921 168.049 35.429C162.662 22.8588 150.813 16.4082 151 21.0315Z" fill="white"/>
</g>
<g opacity="0.5">
<path d="M134.894 12.1709C136.419 14.0949 141.177 14.7618 145.403 17.5744C149.92 20.5805 153.147 18.0037 146.338 11.6232C139.079 4.82249 132.016 8.54295 134.894 12.1709Z" fill="white"/>
</g>
<path d="M122.275 111.852C110.116 111.83 98.2944 107.862 88.594 100.545C78.8935 93.2278 71.8408 82.9599 68.5001 71.2908C65.1595 59.6217 65.7123 47.1846 70.0751 35.8566C74.4379 24.5286 82.3739 14.9245 92.6854 8.49378C93.9248 7.71851 95.2202 6.98075 96.5322 6.30302C103.589 2.66277 111.333 0.545608 119.263 0.0891864L119.49 0.076682C119.958 0.0516733 120.445 0.0308327 120.935 0.019162C121.876 -0.00584674 122.856 -0.00668036 123.833 0.019162C130.547 0.183048 137.174 1.56375 143.393 4.09392C145.518 4.95255 147.588 5.94059 149.592 7.05245C150.033 7.30253 150.466 7.54345 150.895 7.80271C151.145 7.94859 151.406 8.10781 151.664 8.26787C170.06 19.4976 180.434 40.6125 178.086 62.0508C177.269 69.4471 174.98 76.606 171.353 83.1073C161.12 101.475 141.98 111.852 122.275 111.852ZM122.424 3.33448C121.948 3.33448 121.478 3.34032 121.016 3.35282C120.554 3.36533 120.098 3.38283 119.646 3.40701L119.424 3.41951C111.974 3.85132 104.698 5.84262 98.069 9.26405C96.8371 9.90011 95.6219 10.5928 94.4552 11.3223C86.6765 16.1681 80.2996 22.9565 75.9549 31.0162C71.6103 39.076 69.4483 48.128 69.6828 57.2774C69.9173 66.4267 72.5402 75.3565 77.292 83.184C82.0439 91.0115 88.7602 97.4655 96.7769 101.908C122.172 115.99 154.321 106.826 168.429 81.4842C171.841 75.3719 173.994 68.6405 174.761 61.6857C176.971 41.5236 167.215 21.6717 149.907 11.1039C149.664 10.9538 149.429 10.8096 149.191 10.6704C148.773 10.4203 148.369 10.1944 147.959 9.96513C146.076 8.92005 144.13 7.99131 142.133 7.18416C136.287 4.80615 130.058 3.50823 123.747 3.35366C123.304 3.34088 122.863 3.33448 122.424 3.33448Z" fill="#371A45"/>
<path d="M173.956 73.0788C172.889 76.2688 171.528 79.3529 169.889 82.2912C169.616 82.7813 169.336 83.2659 169.049 83.745C138.047 87.6063 106.685 87.6063 75.6837 83.745C73.6729 80.375 72.0342 76.7973 70.7963 73.0746C105.011 77.9227 139.74 77.9241 173.956 73.0788V73.0788Z" fill="#EDEDED"/>
<g opacity="0.6">
<path d="M173.955 73.0788C173.748 73.6962 173.529 74.312 173.299 74.9261C139.514 79.6502 105.234 79.6502 71.4485 74.9261C71.2191 74.3148 71.0014 73.699 70.7954 73.0788C105.01 77.9255 139.74 77.9255 173.955 73.0788V73.0788Z" fill="white"/>
</g>
<path d="M170.645 80.8848C170.401 81.3556 170.151 81.8246 169.893 82.292C169.619 82.7822 169.34 83.2648 169.052 83.745C138.05 87.6063 106.688 87.6063 75.6862 83.745C75.1294 82.8075 74.5991 81.8541 74.0952 80.8848C106.164 84.7234 138.577 84.7234 170.645 80.8848V80.8848Z" fill="#C1C1C1"/>
<path d="M122.367 87.5988C106.721 87.5997 91.0901 86.6319 75.5643 84.7012L75.0957 84.6428L74.8544 84.2385C72.8092 80.8095 71.1414 77.1699 69.8801 73.3831L69.389 71.9067L70.9315 72.1251C105.057 76.9535 139.695 76.9535 173.82 72.1251L175.365 71.9067L174.872 73.3839C173.785 76.6301 172.4 79.7687 170.733 82.7597C170.454 83.2598 170.169 83.7531 169.877 84.2393L169.635 84.6428L169.168 84.7012C153.643 86.632 138.012 87.5997 122.367 87.5988V87.5988ZM76.2733 82.8472C106.886 86.6135 137.846 86.6135 168.459 82.8472C168.658 82.5087 168.853 82.1672 169.044 81.8227C170.398 79.3926 171.56 76.861 172.52 74.2509C139.245 78.8137 105.501 78.8137 72.2252 74.2509C73.3162 77.2309 74.6709 80.1079 76.2733 82.848V82.8472Z" fill="#371A45"/>
<path d="M122.337 206.51C122.242 206.51 122.148 206.489 122.063 206.447C121.978 206.406 121.903 206.345 121.844 206.271C121.786 206.196 121.745 206.11 121.725 206.017C121.704 205.925 121.706 205.829 121.728 205.737L152.379 80.3538C152.397 80.2725 152.431 80.1955 152.479 80.1275C152.527 80.0595 152.588 80.0018 152.659 79.9577C152.73 79.9136 152.809 79.8841 152.891 79.8709C152.974 79.8577 153.058 79.861 153.139 79.8808C153.22 79.9005 153.296 79.9361 153.363 79.9857C153.43 80.0353 153.487 80.0977 153.529 80.1693C153.572 80.241 153.6 80.3204 153.611 80.4029C153.623 80.4854 153.617 80.5693 153.596 80.6498L125.32 196.318L170.382 78.3348C170.446 78.1865 170.565 78.0686 170.714 78.0058C170.862 77.943 171.03 77.9401 171.181 77.9977C171.332 78.0553 171.455 78.169 171.524 78.3149C171.593 78.4609 171.603 78.6278 171.551 78.7808L122.921 206.108C122.876 206.226 122.796 206.328 122.692 206.4C122.588 206.472 122.464 206.51 122.337 206.51V206.51Z" fill="#F9EEFF"/>
<path d="M122.367 87.5988C106.721 87.5997 91.0901 86.6319 75.5643 84.7012L75.0957 84.6428L74.8544 84.2385C72.8092 80.8095 71.1414 77.1699 69.8801 73.3831L69.389 71.9067L70.9315 72.1251C105.057 76.9535 139.695 76.9535 173.82 72.1251L175.365 71.9067L174.872 73.3839C173.785 76.6301 172.4 79.7687 170.733 82.7597C170.454 83.2598 170.169 83.7531 169.877 84.2393L169.635 84.6428L169.168 84.7012C153.643 86.632 138.012 87.5997 122.367 87.5988V87.5988ZM76.2733 82.8472C106.886 86.6135 137.846 86.6135 168.459 82.8472C168.658 82.5087 168.853 82.1672 169.044 81.8227C170.398 79.3926 171.56 76.861 172.52 74.2509C139.245 78.8137 105.501 78.8137 72.2252 74.2509C73.3162 77.2309 74.6709 80.1079 76.2733 82.848V82.8472Z" fill="#371A45"/>
<path d="M93.8213 86.2801C93.7984 86.2813 93.7756 86.2813 93.7528 86.2801C93.6581 86.2713 93.5661 86.2439 93.482 86.1996C93.3979 86.1553 93.3234 86.0949 93.2627 86.0218C93.2021 85.9487 93.1564 85.8644 93.1285 85.7737C93.1005 85.6829 93.0907 85.5876 93.0997 85.4931L93.4337 81.9269C93.4506 81.7453 93.4045 81.5634 93.3031 81.4116C93.2017 81.2599 93.0512 81.1475 92.8767 81.0933C92.3904 80.9484 91.9677 80.6434 91.6774 80.228C91.3871 79.8126 91.2464 79.3113 91.2781 78.8058L91.4903 75.4288C91.4937 75.3323 91.5164 75.2375 91.5572 75.1499C91.5979 75.0623 91.6559 74.9838 91.7275 74.9189C91.7992 74.8541 91.8831 74.8042 91.9744 74.7722C92.0657 74.7403 92.1625 74.727 92.259 74.733C92.3556 74.739 92.4499 74.7643 92.5366 74.8073C92.6232 74.8503 92.7002 74.9102 92.7633 74.9835C92.8263 75.0567 92.874 75.1418 92.9035 75.2338C92.933 75.3257 92.9438 75.4226 92.9351 75.5188L92.723 78.8967C92.7113 79.0747 92.7602 79.2514 92.8617 79.3982C92.9633 79.545 93.1116 79.6532 93.2826 79.7053C93.7785 79.856 94.2075 80.1724 94.4976 80.6013C94.7878 81.0302 94.9214 81.5456 94.8761 82.0611L94.542 85.6273C94.5246 85.8061 94.4411 85.9719 94.3079 86.0926C94.1746 86.2132 94.0012 86.2801 93.8213 86.2801Z" fill="#371A45"/>
<path d="M169.348 76.5267L168.083 81.5868C168.083 81.5868 170.698 81.811 171.722 80.9974C172.511 80.3713 173.614 77.0552 173.347 76.7042C173.08 76.3533 170.753 76.2624 169.348 76.5267Z" fill="#E0E0E0"/>
<path d="M172.553 79.6777C172.284 80.278 171.987 80.7881 171.718 80.9974C170.693 81.811 168.08 81.5876 168.08 81.5876L169.349 76.5267C169.825 76.4431 170.307 76.3957 170.79 76.3849C170.79 76.3849 169.788 79.6802 170.238 79.8595C170.688 80.0387 171.388 79.957 172.553 79.6777Z" fill="#C1C1C1"/>
<path d="M149.888 78.1155C149.888 78.1155 149.432 82.2386 150.612 83.164C151.19 83.6166 154.306 83.2632 154.722 82.7855C155.839 81.5026 155.312 77.632 155.312 77.632L149.888 78.1155Z" fill="#E0E0E0"/>
<path d="M155.343 81.0666C155.248 81.7593 155.061 82.3912 154.72 82.7847C154.302 83.2623 151.186 83.6183 150.61 83.1656C149.431 82.2395 149.887 78.1147 149.887 78.1147L150.837 78.0313C150.847 79.2509 150.965 81.3016 151.602 81.5451C151.919 81.6626 154.629 81.6118 155.343 81.0666Z" fill="#C1C1C1"/>
<path d="M168.913 82.5829C168.484 82.5829 168.15 82.5596 168.001 82.5463C167.862 82.5345 167.727 82.4927 167.605 82.4237C167.484 82.3547 167.379 82.2602 167.298 82.1468C167.217 82.0333 167.161 81.9036 167.135 81.7666C167.109 81.6296 167.113 81.4886 167.147 81.3533L168.411 76.2932C168.456 76.1143 168.551 75.952 168.685 75.8255C168.82 75.6991 168.988 75.6137 169.169 75.5797C169.208 75.5722 173.239 74.9703 174.115 76.1215C174.899 77.1494 173.207 81.0491 172.323 81.7518C171.439 82.4546 169.917 82.5829 168.913 82.5829ZM170.126 77.3895L169.314 80.6406C170.052 80.6081 170.806 80.4897 171.12 80.2404C171.47 79.932 172.117 78.3031 172.343 77.3903C171.606 77.3179 170.863 77.3177 170.126 77.3895H170.126Z" fill="#371A45"/>
<path d="M151.948 84.3252C151.113 84.3252 150.37 84.2002 150.016 83.9217C148.53 82.7546 148.808 79.1017 148.93 78.0097C148.955 77.7886 149.055 77.5828 149.214 77.4271C149.373 77.2715 149.581 77.1757 149.803 77.156L155.227 76.6725C155.475 76.6485 155.723 76.7222 155.918 76.8779C156.112 77.0336 156.238 77.259 156.269 77.5062C156.367 78.2256 156.787 81.8868 155.451 83.4249C154.961 83.9792 153.333 84.3252 151.948 84.3252ZM151.167 82.362C151.697 82.4996 153.519 82.3228 154.05 82.0827C154.456 81.4992 154.527 79.9562 154.447 78.6749L150.787 79.0017C150.703 80.528 150.861 82.0036 151.167 82.362Z" fill="#371A45"/>
<path d="M111.964 206.51C111.829 206.51 111.697 206.466 111.589 206.385C111.481 206.305 111.402 206.191 111.364 206.062L74.3742 80.6781C74.351 80.5994 74.3436 80.5169 74.3523 80.4353C74.3611 80.3537 74.3858 80.2747 74.4252 80.2026C74.4645 80.1306 74.5177 80.067 74.5817 80.0155C74.6457 79.964 74.7192 79.9256 74.798 79.9024C74.8769 79.8793 74.9596 79.8718 75.0413 79.8806C75.123 79.8893 75.2022 79.914 75.2744 79.9533C75.3466 79.9926 75.4103 80.0457 75.4619 80.1095C75.5135 80.1734 75.552 80.2468 75.5752 80.3255L112.565 205.708C112.593 205.802 112.598 205.9 112.58 205.996C112.563 206.091 112.524 206.182 112.465 206.259C112.407 206.337 112.331 206.4 112.244 206.444C112.157 206.487 112.061 206.51 111.964 206.51V206.51Z" fill="#F9EEFF"/>
<path d="M109.422 196.869C95.0798 193.809 85.188 185.648 81.0121 180.537C76.1364 174.94 71.4076 173.565 68.8879 177.728C67.5875 178.903 64.545 180.426 64.722 184.045C64.8306 186.282 66.5494 187.374 67.2651 188.025C74.1829 197.59 83.6446 207.031 102.329 212.195L109.422 196.869Z" fill="white"/>
<path d="M109.422 196.868L103.934 208.726L102.328 212.194C83.6455 207.035 74.1829 197.59 67.2643 188.024C66.5494 187.374 64.8306 186.281 64.7212 184.047C64.7145 183.88 64.712 183.725 64.7212 183.571C64.8189 180.291 67.6485 178.851 68.8904 177.728C71.4135 173.566 76.1389 174.939 81.0138 180.538C85.188 185.648 95.0807 193.808 109.422 196.868Z" fill="white"/>
<path d="M109.422 196.868L106.47 203.243L103.934 208.726L102.328 212.194C83.6455 207.035 74.1829 197.59 67.2643 188.024C66.5494 187.374 64.8306 186.281 64.7212 184.047C64.7145 183.88 64.712 183.725 64.7212 183.571C64.8189 180.291 67.6485 178.851 68.8904 177.728C71.4135 173.566 76.1389 174.939 81.0138 180.538C83.2346 183.255 87.0722 186.837 92.3355 190.053C97.604 193.273 103.382 195.577 109.422 196.868V196.868Z" fill="white"/>
<path d="M109.422 196.868L106.47 203.243C99.5038 200.852 94.2021 195.991 92.333 190.053C97.6023 193.273 103.381 195.577 109.422 196.868V196.868Z" fill="#E8E8E8"/>
<path d="M138.283 194.166C135.792 198.035 131.721 201.161 126.743 203.007L125.109 199.25C128.85 197.928 133.535 196.167 138.283 194.166Z" fill="#E8E8E8"/>
<path d="M131.925 200.419C127.665 203.187 122.217 204.848 116.277 204.848C110.485 204.848 105.16 203.264 100.95 200.621L104.849 191.163L131.099 195.408C131.099 195.408 131.491 197.335 131.925 200.419Z" fill="#E8E8E8"/>
<path d="M103.934 208.726L102.328 212.194C83.6455 207.035 74.1829 197.59 67.2643 188.024C66.5494 187.374 64.8306 186.281 64.7212 184.047C64.7145 183.88 64.712 183.725 64.7212 183.571C65.3643 184.523 66.2337 185.45 67.1624 185.405C69.0566 185.321 68.4987 181.487 73.0145 181.07C73.0145 181.07 65.705 187.676 81.9926 200.321C92.7055 208.637 102.472 204.689 102.472 204.689L103.934 208.726Z" fill="#E8E8E8"/>
<path d="M102.33 213.174C102.241 213.174 102.153 213.162 102.068 213.138C82.4754 207.728 73.103 197.751 66.5327 188.685C66.46 188.621 66.379 188.555 66.2922 188.482C65.4411 187.772 63.8568 186.451 63.7424 184.092C63.5753 180.606 65.9138 178.81 67.4581 177.622C67.7086 177.431 67.9408 177.251 68.1262 177.088C69.1702 175.439 70.6109 174.492 72.3021 174.346C75.1208 174.105 78.3772 176.024 81.7488 179.895C86.359 185.534 96.4078 193.091 109.623 195.911C109.878 195.965 110.1 196.118 110.242 196.336C110.384 196.554 110.433 196.82 110.378 197.074C110.324 197.328 110.17 197.551 109.952 197.692C109.733 197.833 109.467 197.882 109.213 197.828C95.5158 194.905 85.269 187.3 80.248 181.156C77.4084 177.896 74.5688 176.122 72.4708 176.296C71.3692 176.391 70.4447 177.042 69.7239 178.233L69.6496 178.356L69.5427 178.452C69.2821 178.687 68.9756 178.923 68.6507 179.172C67.2827 180.224 65.5789 181.532 65.6984 183.997C65.771 185.497 66.7974 186.352 67.5466 186.977C67.6877 187.094 67.8147 187.201 67.9224 187.299L68.0569 187.449C74.431 196.263 83.5177 205.983 102.587 211.249C102.816 211.311 103.015 211.455 103.146 211.653C103.277 211.851 103.332 212.09 103.3 212.325C103.268 212.56 103.151 212.775 102.972 212.931C102.793 213.087 102.564 213.173 102.326 213.173L102.33 213.174Z" fill="#371A45"/>
<path d="M82.2841 183.93C82.2841 183.93 83.0191 175.576 79.488 176.395C78.0298 176.733 77.441 179.075 77.4668 181.322C77.3249 181.859 74.1362 185.036 74.5479 187.526" fill="white"/>
<path d="M81.8031 183.887C81.1533 181.822 81.636 179.278 80.3323 177.564C78.9125 176.64 78.4214 180.385 78.4582 181.414C78.2803 182.168 77.7232 182.761 77.2956 183.37C76.3769 184.64 75.3112 185.888 75.0239 187.447C75.0006 187.966 74.2539 188.091 74.0718 187.605C73.2943 185.134 75.0615 182.79 76.5206 180.983C76.5832 180.905 76.5206 181.031 76.5206 181.072L76.488 181.333C76.4212 179.569 76.5782 177.649 77.8026 176.209C78.4097 175.495 79.5356 175.103 80.4885 175.318C82.6683 175.847 83.0775 178.347 83.2362 180.14C83.3456 181.447 83.2755 182.724 82.7669 183.975C82.7283 184.077 82.6574 184.164 82.5649 184.222C82.4724 184.28 82.3635 184.306 82.2546 184.297C82.1457 184.287 82.0429 184.243 81.9618 184.17C81.8808 184.096 81.8259 183.999 81.8056 183.892L81.8031 183.887Z" fill="#371A45"/>
<path d="M81.5058 203.565C81.2502 203.559 81.0069 203.454 80.8277 203.272C80.6484 203.09 80.5473 202.846 80.5458 202.591C80.5443 202.336 80.6425 202.09 80.8195 201.906C80.9966 201.722 81.2386 201.614 81.4941 201.605C89.6646 201.51 91.0986 188.975 91.1145 188.851C91.1418 188.592 91.2709 188.356 91.4732 188.192C91.6756 188.029 91.9347 187.952 92.1935 187.98C92.4523 188.007 92.6897 188.136 92.8534 188.338C93.017 188.54 93.0936 188.798 93.0663 189.057C93.0036 189.64 91.4318 203.451 81.5174 203.568L81.5058 203.565Z" fill="#371A45"/>
<path d="M68.6256 186.482C68.4586 183.321 71.2573 180.375 74.4335 180.435C74.7993 180.414 74.9479 180.935 74.6347 181.112C73.4655 181.746 72.2537 182.294 71.299 183.235C70.3762 184.115 69.7281 185.308 69.3481 186.523C69.2646 186.94 68.654 186.907 68.6256 186.482Z" fill="#371A45"/>
<path d="M117.627 194.217L116.674 199.069L116.187 201.543L107.795 244.187C107.795 244.187 110.74 244.593 114.734 244.82C115.515 244.865 116.337 244.904 117.184 244.93C123.497 245.133 131.242 244.713 134.514 241.861C139.404 237.597 142.993 214.294 140.29 204.55C139.053 200.082 130.337 197.137 124.082 195.572C123.384 195.396 122.715 195.239 122.091 195.099C119.46 194.507 117.627 194.217 117.627 194.217Z" fill="white"/>
<path d="M116.674 199.069L116.187 201.543L109.523 235.403L107.795 244.187L107.973 244.21L108.088 244.225L108.196 244.238C108.225 244.243 108.254 244.245 108.28 244.25C108.291 244.25 108.304 244.25 108.315 244.25C108.368 244.256 108.428 244.264 108.49 244.27C108.504 244.273 108.518 244.275 108.532 244.276L108.693 244.295C108.77 244.305 108.85 244.313 108.935 244.323C108.995 244.328 109.058 244.337 109.123 244.344L109.325 244.366L109.594 244.396C109.783 244.415 109.983 244.438 110.194 244.458C110.38 244.478 110.577 244.497 110.779 244.515C111.014 244.537 111.261 244.561 111.518 244.584C112.465 244.667 113.551 244.75 114.729 244.816L115.427 244.854L115.928 244.878C116.336 244.896 116.755 244.913 117.181 244.926C123.496 245.129 131.24 244.709 134.509 241.857C138.537 238.346 141.684 221.926 141.158 210.794C140.316 220.314 137.783 230.289 134.747 232.935C133.243 234.243 132.061 227.902 132.588 224.887C133.947 217.11 130.917 207.214 124.576 200.197C124.411 200.021 120.121 199.948 116.674 199.069Z" fill="#D8D8D8"/>
<path d="M119.698 245.943C115.673 245.925 111.652 245.658 107.659 245.144L106.647 245.005L116.859 193.122L117.777 193.266C119.959 193.611 139.151 196.842 141.219 204.294C144.044 214.476 140.301 238.098 135.146 242.59C132.092 245.252 125.606 245.943 119.698 245.943ZM108.938 243.359C113.125 243.841 129.044 245.35 133.876 241.138C138.443 237.156 141.927 214.067 139.358 204.808C137.961 199.77 124.53 196.405 118.396 195.322L108.938 243.359Z" fill="#371A45"/>
<path d="M141.848 223.987C140.699 222.78 132.364 221.731 132.364 221.731C131.911 221.712 131.465 221.843 131.096 222.104C130.726 222.365 130.454 222.741 130.322 223.174C129.325 226.425 127.419 234.06 130.356 237C132.794 239.442 136.698 239.001 139.009 237.305C140.813 235.983 141.533 233.176 141.973 230.337C142.448 227.259 142.745 224.929 141.848 223.987Z" fill="white"/>
<path d="M141.973 230.338C141.748 231.802 141.445 233.255 140.957 234.506C140.503 235.678 139.883 236.667 139.009 237.307C136.698 239.002 132.795 239.444 130.356 237.003C128.053 234.696 128.729 229.5 129.604 225.799C129.605 225.797 129.605 225.795 129.604 225.793C129.845 224.778 130.106 223.875 130.316 223.175C130.448 222.743 130.721 222.367 131.091 222.106C131.461 221.845 131.907 221.714 132.36 221.734C132.36 221.734 140.695 222.782 141.845 223.991C142.744 224.929 142.449 227.26 141.973 230.338Z" fill="white"/>
<path d="M140.957 234.503C140.503 235.675 139.883 236.665 139.009 237.304C136.698 238.999 132.795 239.442 130.356 237C128.053 234.693 128.729 229.497 129.604 225.796C129.604 225.953 129.531 229.902 130.83 229.758C131.851 229.646 132.685 227.708 132.736 227.59C132.728 227.848 132.525 235.643 136.764 235.747C138.672 235.797 140.016 235.242 140.957 234.503Z" fill="#D8D8D8"/>
<path d="M134.658 239.661C132.862 239.661 131.057 239.067 129.672 237.68C126.477 234.482 128.129 227.042 129.398 222.892C129.597 222.258 129.999 221.707 130.542 221.323C131.085 220.939 131.74 220.745 132.405 220.769L132.488 220.775C135.097 221.104 141.299 222.009 142.551 223.324C143.743 224.574 143.489 226.864 142.93 230.484C142.485 233.354 141.741 236.502 139.584 238.081C138.233 239.069 136.449 239.661 134.658 239.661ZM132.277 222.693C132.046 222.693 131.821 222.768 131.635 222.905C131.45 223.042 131.312 223.234 131.244 223.454C129.328 229.721 129.251 234.53 131.039 236.321C133.072 238.355 136.397 238.025 138.438 236.528C140.037 235.361 140.657 232.527 141.018 230.193C141.319 228.25 141.77 225.318 141.152 224.656C140.513 224.072 136.067 223.174 132.289 222.695L132.277 222.693Z" fill="#371A45"/>
<path d="M136.393 239.359C134.716 239.388 133.489 238.255 132.762 236.951C131.231 233.958 131.76 230.589 132.421 227.483C132.579 226.866 132.736 226.276 133.035 225.659C133.048 225.629 133.067 225.601 133.091 225.578C133.115 225.555 133.143 225.536 133.174 225.524C133.205 225.512 133.238 225.505 133.271 225.506C133.305 225.506 133.337 225.513 133.368 225.526C133.399 225.54 133.427 225.559 133.45 225.582C133.473 225.606 133.491 225.635 133.504 225.665C133.516 225.696 133.522 225.729 133.522 225.763C133.522 225.796 133.515 225.829 133.501 225.859C133.096 226.958 132.969 228.239 132.872 229.422C132.717 231.714 132.732 234.285 133.975 236.231C134.457 237 135.391 237.767 136.257 237.664C137.461 237.516 137.608 239.313 136.393 239.359V239.359Z" fill="#371A45"/>
<path d="M127.64 201.506C130.832 201.557 134.002 201.729 137.161 202.229C138.224 202.407 139.287 202.616 140.367 202.963C140.49 203.004 140.602 203.069 140.699 203.154C140.796 203.239 140.875 203.342 140.931 203.458C140.987 203.574 141.019 203.7 141.025 203.829C141.032 203.957 141.013 204.086 140.969 204.206C140.924 204.327 140.857 204.438 140.769 204.533C140.681 204.627 140.575 204.703 140.458 204.756C140.34 204.809 140.213 204.837 140.085 204.84C139.956 204.844 139.828 204.821 139.708 204.774C136.868 203.681 133.729 203.234 130.704 202.827C129.67 202.699 128.626 202.584 127.592 202.494C126.967 202.435 127.007 201.505 127.638 201.503L127.64 201.506Z" fill="#371A45"/>
<path d="M107.32 243.046C107.32 243.046 86.8049 238.256 83.5527 239.717C81.1666 240.789 75.6478 253.131 70.0229 253.11C67.7403 253.101 60.9437 250.118 58.1216 247.231C55.0406 244.078 56.2842 240.706 57.6681 239.312C59.65 237.323 62.7201 238.293 64.4848 238.957C67.965 229.508 72.8007 224.912 77.1561 223.051C87.1924 218.767 104.23 222.57 107.32 224.045" fill="white"/>
<path d="M107.32 224.046V243.047C107.32 243.047 86.8049 238.256 83.5528 239.718C81.1667 240.787 75.6486 253.131 70.0229 253.111C67.7378 253.102 60.942 250.119 58.1216 247.231C55.0407 244.076 56.2842 240.706 57.6673 239.312C59.65 237.324 62.7201 238.294 64.484 238.958C67.9633 229.509 72.7999 224.913 77.1545 223.052C80.6196 221.572 84.9216 221.055 89.1944 221.078C97.2981 221.117 105.297 223.078 107.32 224.046Z" fill="white"/>
<path d="M107.32 224.046V243.047C107.32 243.047 86.805 238.256 83.5528 239.718C81.1667 240.787 75.6487 253.131 70.0229 253.111C67.7379 253.101 60.942 250.119 58.1216 247.231C58.1216 247.231 66.6146 252.764 70.7445 249.654C74.8745 246.545 77.9496 238.374 82.391 236.352C89.8183 232.97 87.2643 228.612 89.1944 221.08C97.2981 221.117 105.297 223.078 107.32 224.046Z" fill="#E8E8E8"/>
<path d="M107.101 243.984C101.204 242.659 95.2102 241.39 89.2195 240.654C87.5299 240.507 85.6157 240.192 83.9913 240.58C83.2772 240.99 82.655 241.985 82.0912 242.71C79.3677 246.378 77.0125 250.787 72.8642 253.285C71.7501 253.926 70.2301 254.273 68.908 253.942C66.9428 253.519 65.0962 252.718 63.324 251.858C60.5078 250.378 57.4059 248.723 55.8909 245.749C54.6674 243.313 55.2111 240.124 57.3257 238.322C59.4279 236.506 62.635 237.185 64.824 238.058L63.5779 238.626C66.2296 231.497 70.7437 223.974 78.4323 221.555C85.8454 219.288 93.7912 220.007 101.298 221.38C102.918 221.691 104.52 222.087 106.098 222.567C106.925 222.874 108.729 223.16 108.206 224.455C108.099 224.687 107.903 224.866 107.663 224.954C107.423 225.042 107.157 225.031 106.925 224.924C105.044 224.131 102.935 223.69 100.922 223.27C93.2241 221.866 83.359 220.91 76.2408 224.578C72.642 226.586 69.9578 229.961 67.9826 233.554C66.9809 235.401 66.1155 237.318 65.3935 239.291C65.3493 239.41 65.282 239.519 65.1955 239.612C65.109 239.705 65.005 239.78 64.8895 239.833C64.7739 239.886 64.6491 239.915 64.522 239.92C64.395 239.925 64.2683 239.904 64.1491 239.86C62.2374 239.175 60.1754 238.547 58.566 239.801C57.1662 241.004 56.7729 243.257 57.6348 244.912C59.2592 248.128 64.9008 250.681 68.2682 251.791C71.1571 252.944 73.2793 250.879 75.1467 248.842C77.1069 246.638 78.7296 244.09 80.5295 241.579C81.2911 240.607 82.0645 239.311 83.2981 238.781C85.3743 238.181 87.3796 238.571 89.4425 238.737C95.5676 239.488 101.537 240.757 107.542 242.106C108.76 242.412 108.372 244.246 107.103 243.982L107.101 243.984Z" fill="#371A45"/>
<path d="M131.415 230.063C128.492 231.05 124.734 231.464 121.553 231.613L128.97 223.476C129.853 223.463 130.677 223.45 131.428 223.442C131.59 225.921 131.507 228.096 131.415 230.063Z" fill="#E8E8E8"/>
<path d="M131.099 195.407C131.099 195.407 134.213 210.647 132.519 224.051C130.671 238.705 120.59 247.642 102.093 242.785C85.4328 238.411 90.7846 221.371 90.7846 221.371C90.7846 221.371 93.635 215.28 99.4103 204.35" fill="white"/>
<path d="M132.522 224.052C131.864 229.269 130.163 233.761 127.409 237.166C122.429 243.321 114.009 245.914 102.097 242.786C91.7266 240.062 89.885 232.431 89.9711 227.06C89.9711 227.032 89.9711 227.007 89.9711 226.982C90.0345 223.76 90.7862 221.37 90.7862 221.37C90.7862 221.37 93.6358 215.281 99.4102 204.352L104.847 191.163L131.096 195.408C131.096 195.408 134.213 210.648 132.522 224.052Z" fill="white"/>
<path d="M132.522 224.052C132.438 224.716 132.337 225.368 132.22 226.01C131.414 230.396 129.811 234.194 127.409 237.166C122.429 243.321 114.009 245.914 102.097 242.786C91.7266 240.062 89.885 232.431 89.9711 227.06C89.9711 227.032 89.9711 227.007 89.9711 226.982C90.0345 223.76 90.7862 221.37 90.7862 221.37C90.7862 221.37 93.6358 215.281 99.4102 204.352L104.846 191.163L131.096 195.408C131.096 195.408 132.331 201.448 132.824 209.268C133.115 213.869 133.149 219.086 132.522 224.052Z" fill="white"/>
<path d="M132.522 224.052C132.438 224.716 132.337 225.368 132.22 226.01L121.936 220.364C122.16 220.423 132.017 223.003 131.697 213.506C131.614 210.952 132.086 209.712 132.828 209.268C133.115 213.869 133.149 219.086 132.522 224.052Z" fill="#E8E8E8"/>
<path d="M131.925 200.419C127.665 203.187 122.217 204.848 116.277 204.848C110.485 204.848 105.16 203.264 100.95 200.621L104.849 191.163L131.099 195.408C131.099 195.408 131.491 197.335 131.925 200.419Z" fill="#E8E8E8"/>
<path d="M90.6952 226.955C90.6952 226.955 107.221 230.274 108.048 230.344C112.444 230.713 113.415 227.609 113.67 226.891C116.215 227.202 119.446 227.816 122.662 228.946C126.345 230.238 127.619 226.246 127.619 226.246C127.619 226.246 96.3101 220.393 93.2099 221.608C90.1097 222.823 90.6952 226.955 90.6952 226.955Z" fill="#E8E8E8"/>
<path d="M127.409 237.166C122.429 243.321 114.009 245.914 102.097 242.786C91.7266 240.062 89.885 232.431 89.9711 227.06C89.9894 227.817 90.8363 233.859 113.541 234.02C119.736 234.063 124.197 235.332 127.409 237.166Z" fill="#E8E8E8"/>
<path d="M89.8249 231.131C88.8294 227.842 88.9639 224.346 89.8366 221.03C91.8268 216.634 94.0409 212.366 96.4345 208.18C97.2354 206.801 98.0806 205.447 98.9885 204.126C99.0562 204.029 99.1572 203.96 99.2726 203.931C99.3879 203.903 99.5095 203.918 99.6145 203.974C99.7195 204.029 99.8006 204.121 99.8426 204.231C99.8845 204.342 99.8843 204.465 99.842 204.575C98.6912 207.561 97.3081 210.42 95.9167 213.273C94.8844 215.408 92.7739 219.681 91.7066 221.797C91.0226 224.078 90.5507 228.049 90.7779 230.951C90.8313 231.526 89.992 231.692 89.8299 231.131H89.8249Z" fill="#371A45"/>
<path d="M132.041 195.215C134.174 206.54 136.156 225.417 129.903 235.485C123.905 245.536 112.179 246.616 101.813 243.726C98.4799 242.815 94.9129 241.225 93.103 238.11C93.0455 238.011 93.0244 237.895 93.0432 237.782C93.0621 237.67 93.1198 237.567 93.2063 237.493C93.2929 237.418 93.4029 237.376 93.5173 237.373C93.6317 237.371 93.7434 237.408 93.833 237.479C96.422 239.465 99.1422 241.035 102.316 241.829C116.749 245.69 128.613 240.921 131.242 225.3C132.64 215.488 131.803 205.343 130.15 195.6C129.917 194.375 131.745 193.948 132.041 195.215V195.215Z" fill="#371A45"/>
<path d="M106.371 232.877C106.371 232.877 91.1454 232.96 93.4714 258.469C89.9695 261.177 86.0024 266.489 92.399 269.64C98.0431 272.422 104.73 268.529 107.238 264.138C109.165 260.764 111.226 251.467 111.626 249.652C112.335 246.433 127.706 246.057 132.088 226.666" fill="white"/>
<path d="M132.091 226.67C127.706 246.059 112.335 246.436 111.629 249.654C111.227 251.472 109.168 260.767 107.239 264.141C104.734 268.534 98.0456 272.426 92.4006 269.643C89.7781 268.348 88.897 266.694 89.0148 265.006C89.1818 262.571 91.4059 260.067 93.4721 258.469C91.147 232.96 106.372 232.877 106.372 232.877L122.664 228.945L132.091 226.67Z" fill="white"/>
<path d="M132.091 226.67C127.706 246.059 112.335 246.436 111.629 249.654C111.227 251.472 109.168 260.767 107.239 264.141C104.734 268.534 98.0456 272.426 92.4006 269.643C89.7781 268.348 88.897 266.694 89.0148 265.006C90.5022 266.678 92.875 268.383 96.2474 268.072C101.524 267.585 105.486 264.886 107.489 259.14C109.756 252.642 108.768 248.403 111.629 246.257C114.49 244.112 126.442 237.357 126.136 233.086C126.002 231.216 124.572 229.888 122.664 228.948L132.091 226.67Z" fill="#E8E8E8"/>
<path d="M106.373 233.359C98.0272 234.787 94.7943 242.945 94.3708 250.554C94.1988 253.144 94.2531 255.763 94.4326 258.383C94.4457 258.544 94.4187 258.706 94.354 258.855C94.2893 259.003 94.1889 259.133 94.0618 259.233C90.4831 262.035 87.4322 266.574 93.265 268.979C97.547 270.769 102.511 268.527 105.375 265.132C106.392 263.936 106.986 262.577 107.519 261.098C108.605 258.061 109.414 254.882 110.165 251.734L110.738 249.262C111.108 248.183 112.123 247.62 113.008 247.119C115.976 245.605 118.861 244.368 121.465 242.36C126.643 238.553 129.797 232.668 131.153 226.457C131.181 226.334 131.233 226.217 131.306 226.114C131.379 226.01 131.471 225.923 131.579 225.855C131.686 225.787 131.805 225.741 131.93 225.72C132.055 225.698 132.183 225.702 132.306 225.729C132.43 225.757 132.547 225.809 132.65 225.882C132.754 225.955 132.842 226.047 132.91 226.154C132.977 226.261 133.023 226.38 133.045 226.505C133.066 226.63 133.063 226.757 133.035 226.881C132.291 230.156 131.136 233.383 129.402 236.315C127.671 239.267 125.368 241.845 122.629 243.901C121.271 244.915 119.835 245.82 118.335 246.608C116.861 247.404 115.311 248.08 113.934 248.813C113.504 249.053 112.72 249.49 112.578 249.85C111.666 253.852 110.714 257.885 109.334 261.76C107.121 269.359 96.9599 274.733 90.1657 269.377C85.5998 265.738 89.303 260.399 92.8825 257.713C92.8825 257.713 92.5125 258.564 92.5125 258.561C91.4961 249.494 92.5426 237.176 102.211 233.175C103.554 232.668 104.911 232.363 106.371 232.398C106.494 232.405 106.61 232.458 106.695 232.547C106.78 232.637 106.828 232.755 106.828 232.878C106.829 233.001 106.783 233.12 106.698 233.21C106.614 233.3 106.499 233.354 106.376 233.362L106.373 233.359Z" fill="#371A45"/>
<path d="M125.109 199.249C135.023 195.748 151.551 189.163 158.339 183.16C161.41 179.326 165.328 178.705 166.839 180.556C167.947 181.914 171.114 184.68 170.962 188.176C170.883 189.975 169.442 191.7 168.636 192.236C156.617 207.368 143.831 211.772 131.76 214.544L125.109 199.249Z" fill="white"/>
<path d="M170.961 188.178C170.883 189.978 169.442 191.703 168.636 192.238C156.617 207.371 143.831 211.775 131.759 214.546L131.75 214.526L125.109 199.25C135.026 195.749 151.551 189.163 158.339 183.161C161.41 179.327 165.33 178.706 166.84 180.557C167.662 181.557 169.608 183.341 170.503 185.614C170.834 186.427 170.99 187.301 170.961 188.178V188.178Z" fill="white"/>
<path d="M138.283 194.166C135.792 198.035 131.721 201.161 126.743 203.007L125.109 199.25C128.85 197.928 133.535 196.167 138.283 194.166Z" fill="#E8E8E8"/>
<path d="M170.961 188.178C170.883 189.978 169.442 191.703 168.636 192.238C156.617 207.371 143.831 211.775 131.759 214.546L131.75 214.526C137.899 211.881 157.438 203.139 161.794 197.051C166.867 189.959 162.783 184.942 162.783 184.942C162.783 184.942 165.313 184.838 167.693 188.915C168.76 190.744 170.414 188.439 170.502 185.615C170.833 186.428 170.989 187.301 170.961 188.178V188.178Z" fill="#E8E8E8"/>
<path d="M124.782 198.326C133.451 195.217 142.07 191.823 150.163 187.43C152.826 185.954 155.443 184.355 157.688 182.429L157.572 182.55C158.908 180.92 160.609 179.456 162.819 178.812C164.572 178.286 166.685 178.607 167.825 180.203C169.578 182.129 171.458 184.204 171.865 186.925C172.27 189.303 171.081 191.623 169.183 193.051C169.173 193.061 169.406 192.845 169.405 192.846C161.776 202.433 151.936 209.922 140.007 213.234C137.335 214 134.616 214.595 131.869 215.015C131.747 215.034 131.623 215.007 131.522 214.939C131.42 214.87 131.348 214.766 131.321 214.647C131.293 214.527 131.312 214.402 131.374 214.296C131.435 214.19 131.535 214.112 131.652 214.076C133.406 213.519 135.16 213.003 136.887 212.435C149.591 208.512 159.63 202.148 167.866 191.629L167.941 191.537C168.6 191.092 169.239 190.286 169.595 189.529C170.375 187.968 169.869 186.269 169.011 184.817C168.364 183.671 167.251 182.504 166.35 181.496C166.261 181.376 166.025 181.126 165.924 181.023C165.247 180.419 164.212 180.465 163.341 180.7C161.694 181.17 160.194 182.408 159.046 183.847C156.583 185.968 153.868 187.615 151.112 189.145C142.903 193.597 134.204 197.029 125.436 200.172C124.233 200.577 123.549 198.795 124.782 198.325V198.326Z" fill="#371A45"/>
<path d="M153.777 188.077C153.777 188.077 154.18 179.485 157.246 179.913C158.729 180.12 159.565 182.013 158.745 184.559C158.947 185.077 161.918 187.828 161.79 190.348" fill="white"/>
<path d="M153.295 188.055C152.507 185.074 154.06 176.747 158.6 179.297C160.416 180.547 160.368 183.071 159.679 184.859L159.659 184.203C159.652 184.163 159.601 184.09 159.668 184.158C160.391 184.94 161.052 185.758 161.571 186.71C162.155 187.794 162.613 189.113 162.272 190.372C162.243 190.475 162.181 190.566 162.095 190.631C162.009 190.696 161.904 190.731 161.797 190.731C161.689 190.731 161.584 190.696 161.499 190.631C161.413 190.566 161.35 190.475 161.321 190.372C161.187 189.891 160.993 189.43 160.741 188.998C160.007 187.684 158.894 186.567 158.036 185.317C157.895 185.109 157.777 184.784 157.688 184.548L157.81 184.26C158.061 183.24 158.297 181.259 157.053 180.978C156.036 181.125 155.46 183.589 155.215 184.527C154.965 185.706 154.733 186.923 154.25 188.121C154.089 188.571 153.39 188.515 153.294 188.055L153.295 188.055Z" fill="#371A45"/>
<path d="M152.848 207.496C152.78 207.496 152.711 207.489 152.644 207.476C143.894 205.637 143.189 195.888 144.042 190.996C144.064 190.869 144.111 190.748 144.18 190.639C144.249 190.53 144.338 190.436 144.443 190.362C144.549 190.288 144.668 190.235 144.793 190.207C144.919 190.178 145.049 190.175 145.176 190.197C145.303 190.219 145.425 190.266 145.534 190.334C145.643 190.403 145.737 190.493 145.811 190.598C145.886 190.703 145.938 190.822 145.967 190.947C145.995 191.073 145.998 191.202 145.976 191.329C145.893 191.829 143.972 203.65 153.054 205.558C153.291 205.608 153.502 205.744 153.645 205.94C153.788 206.135 153.853 206.377 153.828 206.618C153.803 206.859 153.69 207.082 153.51 207.244C153.329 207.407 153.095 207.496 152.852 207.496H152.848Z" fill="#371A45"/>
<path d="M166.825 191.317C166.375 189.463 165.286 187.79 163.886 186.507C163.422 186.033 162.9 185.641 162.422 185.156C162.358 185.102 162.314 185.028 162.298 184.945C162.282 184.863 162.294 184.778 162.333 184.704C162.372 184.629 162.435 184.571 162.512 184.537C162.589 184.503 162.675 184.496 162.756 184.518C164.208 184.9 165.455 185.842 166.32 187.063C167.187 188.304 167.716 189.784 167.544 191.322C167.484 191.745 166.876 191.739 166.821 191.317H166.825Z" fill="#371A45"/>
<path d="M83.7323 174.794C84.0764 178.253 84.9433 181.547 86.5677 182.749C87.737 183.611 96.1313 184.027 96.1313 184.027L90.6793 162.076C90.6793 162.076 90.1181 162.206 89.3263 162.433C87.6794 162.91 85.0302 163.825 84.3796 164.917C83.6713 166.104 83.3139 170.569 83.7323 174.794Z" fill="white"/>
<path d="M83.7323 174.794C84.0764 178.253 84.9433 181.547 86.5677 182.749C87.737 183.611 96.1313 184.027 96.1313 184.027L90.6793 162.076C90.6793 162.076 90.1181 162.206 89.3263 162.433C88.141 166.056 87.5017 169.834 87.4296 173.644C87.3745 176.872 85.1479 176.986 83.7323 174.794Z" fill="#D8D8D8"/>
<path d="M97.3816 185.054L96.0838 184.99C93.4722 184.86 87.2593 184.457 85.9948 183.524C81.8824 180.488 82.0603 166.923 83.5503 164.425C84.6711 162.547 89.5059 161.356 90.4639 161.137L91.3876 160.925L97.3816 185.054ZM89.9753 163.246C87.8389 163.83 85.6157 164.73 85.2089 165.413C84.0906 167.289 83.9979 179.656 87.1424 181.977C87.7596 182.357 91.4085 182.774 94.8803 182.995L89.9753 163.246Z" fill="#371944"/>
<path d="M137.654 192.544C149.424 180.796 149.424 161.749 137.654 150.001C125.885 138.253 106.802 138.253 95.0327 150.001C83.263 161.749 83.263 180.796 95.0327 192.544C106.802 204.292 125.885 204.292 137.654 192.544Z" fill="white"/>
<path d="M145.219 179.908C141.506 192.307 129.994 201.348 116.362 201.356C99.7176 201.366 86.212 187.905 86.2053 171.291C86.1905 165.052 88.1291 158.965 91.75 153.879C94.3299 168.863 113.398 180.487 136.528 180.472C139.434 180.472 142.337 180.284 145.219 179.908V179.908Z" fill="#D8D8D8"/>
<path d="M116.34 202.32C99.1965 202.32 85.2465 188.407 85.2357 171.293C85.2312 163.059 88.5038 155.161 94.3335 149.335C100.163 143.51 108.073 140.234 116.322 140.229H116.341C124.587 140.229 132.495 143.498 138.328 149.316C144.16 155.134 147.439 163.026 147.444 171.256C147.453 188.375 133.509 202.31 116.358 202.32H116.34ZM116.34 142.156H116.322C100.235 142.165 87.1557 155.236 87.1658 171.292C87.1758 187.349 100.26 200.394 116.339 200.394H116.357C124.067 200.351 131.447 197.263 136.882 191.805C142.318 186.347 145.368 178.963 145.366 171.267C145.364 163.571 142.31 156.189 136.871 150.734C131.432 145.279 124.05 142.195 116.34 142.156V142.156Z" fill="#371A45"/>
<path d="M116.345 202.32C108.183 202.33 100.345 199.133 94.5251 193.421C88.7054 187.709 85.3714 179.94 85.244 171.794C85.244 171.627 85.239 171.461 85.239 171.294C85.2365 167.217 86.0387 163.179 87.5996 159.412C89.1606 155.644 91.4497 152.22 94.3363 149.335C97.2229 146.451 100.651 144.162 104.423 142.6C108.196 141.037 112.24 140.232 116.325 140.23H116.344C124.59 140.23 132.499 143.499 138.331 149.317C144.164 155.135 147.443 163.027 147.448 171.258C147.457 188.376 133.513 202.312 116.361 202.323L116.345 202.32ZM116.345 142.154H116.327C108.589 142.159 101.171 145.231 95.7027 150.695C90.2348 156.16 87.1655 163.568 87.1699 171.291C87.1699 171.448 87.1699 171.607 87.1749 171.763C87.2968 179.403 90.4247 186.688 95.8828 192.045C101.341 197.401 108.691 200.4 116.346 200.393H116.362C132.448 200.384 145.528 187.313 145.518 171.256C145.513 163.536 142.438 156.134 136.967 150.677C131.497 145.22 124.079 142.154 116.345 142.154V142.154Z" fill="#371A45"/>
<path d="M113.597 200.946C110.676 200.949 107.767 200.564 104.947 199.801C104.924 199.795 104.902 199.787 104.878 199.779C100.32 197.949 96.2657 195.057 93.0548 191.344C89.844 187.632 87.5694 183.207 86.4207 178.438C85.8613 176.359 85.5777 174.216 85.5772 172.064C85.5772 171.942 85.5772 171.843 85.5822 171.742C85.5822 171.619 85.5772 171.452 85.5772 171.287C85.5776 166.983 86.4831 162.727 88.2351 158.795C89.9871 154.862 92.5465 151.34 95.748 148.457C95.7714 148.435 95.7965 148.416 95.8232 148.398C101.039 144.971 107.182 143.159 113.581 143.155H113.601C121.851 143.155 129.61 146.15 135.451 151.589C141.309 157.045 144.537 164.304 144.542 172.029C144.542 179.755 141.327 187.019 135.476 192.481C129.624 197.943 121.873 200.937 113.615 200.942L113.597 200.946ZM105.312 198.604C108.014 199.331 110.8 199.698 113.597 199.695H113.615C121.554 199.691 129.014 196.806 134.62 191.572C140.227 186.337 143.295 179.41 143.29 172.034C143.29 164.659 140.2 157.724 134.598 152.508C128.996 147.292 121.533 144.409 113.602 144.409H113.584C107.444 144.409 101.557 146.146 96.5539 149.421C93.4932 152.187 91.0469 155.562 89.3725 159.329C87.6981 163.095 86.8329 167.17 86.8325 171.291C86.8325 171.45 86.8325 171.611 86.8325 171.769C86.8325 171.889 86.8325 171.967 86.8325 172.047C86.8323 174.102 87.103 176.148 87.6376 178.132C88.737 182.703 90.915 186.946 93.99 190.507C97.0651 194.068 100.948 196.844 105.316 198.604H105.312Z" fill="#371A45"/>
<path d="M140.994 172.035C141.002 186.142 128.743 197.586 113.614 197.596C100.79 197.603 90.0179 189.391 87.0313 178.296C86.4824 176.265 86.2044 174.171 86.2045 172.067C86.2045 171.971 86.2045 171.876 86.2045 171.778C86.3606 157.805 98.5551 146.519 113.58 146.509C128.713 146.501 140.985 157.929 140.994 172.035Z" fill="#371A45"/>
<path d="M140.994 172.035C141.002 186.142 128.743 197.586 113.614 197.596C102.236 197.602 92.4733 191.139 88.3317 181.93C93.7603 187.663 101.706 191.276 110.554 191.267C126.223 191.257 139.048 179.907 140.095 165.544C140.692 167.656 140.994 169.84 140.994 172.035V172.035Z" fill="#220F2D"/>
<path d="M113.596 197.804C100.918 197.804 89.9143 189.807 86.83 178.351C86.277 176.302 85.9962 174.19 85.9948 172.067C85.9948 171.953 85.9948 171.862 85.9998 171.767C86.156 157.737 98.5275 146.31 113.583 146.301H113.601C120.964 146.301 127.889 148.974 133.1 153.827C138.312 158.68 141.197 165.155 141.202 172.035C141.202 178.916 138.336 185.386 133.122 190.254C127.908 195.121 120.984 197.8 113.613 197.804H113.596ZM113.602 146.718H113.584C98.758 146.727 86.5719 157.972 86.4174 171.781C86.4174 171.875 86.4174 171.96 86.4174 172.047C86.4172 174.139 86.6927 176.222 87.2367 178.243C90.2718 189.517 101.112 197.387 113.6 197.387H113.618C120.884 197.383 127.709 194.741 132.842 189.949C137.975 185.158 140.793 178.8 140.789 172.035C140.789 165.272 137.955 158.913 132.821 154.131C127.686 149.35 120.858 146.718 113.602 146.718Z" fill="#371A45"/>
<g opacity="0.5">
<path d="M125.235 156.733C125.235 156.733 112.005 152.231 102.277 157.562L102.246 157.578C100.199 158.701 98.0823 161.6 96.9005 163.589C95.3329 166.22 94.6456 168.258 94.1094 170.078C92.4833 175.61 92.7731 178.506 92.7731 178.506C90.4346 174.662 89.5994 170.825 90.9098 166.203C91.0401 165.748 91.1907 165.284 91.3617 164.812C91.4009 164.702 91.4452 164.596 91.4844 164.488C91.4844 164.488 91.4844 164.484 91.4886 164.481C92.0138 163.3 92.6104 162.151 93.275 161.042C95.6319 157.11 99.7159 152.271 105.895 151.258C117.448 149.362 125.869 156.289 125.235 156.733Z" fill="white"/>
</g>
<g opacity="0.5">
<path d="M134.949 173.69C134.979 171.076 133.155 168.936 130.876 168.91C128.596 168.884 126.723 170.981 126.693 173.595C126.663 176.209 128.486 178.35 130.766 178.376C133.046 178.402 134.919 176.304 134.949 173.69Z" fill="white"/>
</g>
<g opacity="0.5">
<path d="M130.811 184.197C131.749 184.121 132.438 183.186 132.35 182.11C132.262 181.033 131.43 180.223 130.492 180.299C129.554 180.375 128.866 181.31 128.954 182.387C129.042 183.463 129.873 184.274 130.811 184.197Z" fill="white"/>
</g>
<path d="M147.727 167.127L146.343 178.896L145.481 186.232L141.364 186.429L140.974 186.447C139.18 186.197 138.271 181.345 138.946 175.61C138.96 175.481 138.978 175.349 138.995 175.219C139.71 169.678 141.663 165.442 143.416 165.686L143.788 165.809L147.727 167.127Z" fill="white"/>
<path d="M146.343 178.896L145.481 186.232L141.364 186.429L140.974 186.447C139.18 186.197 138.271 181.345 138.946 175.61C138.96 175.481 138.978 175.349 138.995 175.219L139.267 174.542C139.267 174.542 139.693 177.022 140.854 177.408C142.079 177.819 143.006 174.875 143.006 174.875L146.343 178.896Z" fill="#D8D8D8"/>
<path d="M140.978 187.411C140.933 187.411 140.889 187.408 140.844 187.402C137.97 187.001 137.35 180.951 137.991 175.5C138.565 170.622 140.06 166.602 141.801 165.26C142.503 164.719 143.138 164.677 143.555 164.732C143.615 164.739 143.673 164.753 143.73 164.772L148.04 166.214C148.25 166.284 148.43 166.425 148.548 166.612C148.667 166.798 148.718 167.02 148.692 167.24L146.446 186.344C146.419 186.571 146.312 186.78 146.145 186.936C145.978 187.091 145.761 187.183 145.533 187.194L141.023 187.41L140.978 187.411ZM143.239 166.641C143.143 166.67 143.054 166.718 142.978 166.783C141.872 167.635 140.463 170.98 139.905 175.723C139.202 181.7 140.372 185.213 141.054 185.476L144.618 185.305L146.677 167.789L143.239 166.641Z" fill="#371A45"/>
<path d="M149.725 175.72C149.725 175.721 149.725 175.723 149.725 175.725C149.695 176.176 149.652 176.632 149.598 177.098C148.977 182.371 147.136 186.462 145.484 186.231C143.881 186.007 143.042 181.787 143.563 176.703C143.577 176.558 143.594 176.411 143.612 176.262C144.232 170.989 146.075 166.897 147.725 167.127C149.233 167.337 150.06 171.064 149.725 175.72Z" fill="white"/>
<path d="M149.723 175.728C149.693 176.178 149.65 176.634 149.595 177.1C148.975 182.374 147.134 186.465 145.481 186.233C143.878 186.01 143.04 181.79 143.56 176.706C144.158 178.609 145.45 181.98 146.93 181.124C147.798 180.62 148.912 177.958 149.723 175.728Z" fill="#D8D8D8"/>
<path d="M145.612 187.204C145.524 187.203 145.436 187.197 145.348 187.185C142.652 186.809 142.062 181.201 142.656 176.151C143.186 171.642 144.577 167.924 146.192 166.676C146.86 166.162 147.467 166.12 147.862 166.176C150.559 166.551 151.149 172.159 150.555 177.21C150.025 181.719 148.634 185.438 147.02 186.685C146.49 187.094 145.989 187.204 145.612 187.204ZM147.583 168.082C146.983 168.082 145.211 170.942 144.577 176.375C143.879 182.305 145.14 185.211 145.618 185.277H145.63C146.23 185.277 148.002 182.416 148.636 176.983C149.333 171.054 148.073 168.147 147.593 168.082H147.583Z" fill="#371A45"/>
<path d="M88.5972 220.537C88.5972 220.537 90.1699 224.88 90.8405 225.126C92.3255 225.672 105.903 228.217 108.374 228.528C112.159 229.004 112.992 224.794 113.781 221.641C114.616 218.296 115.603 215.214 114.993 214.355C114.278 213.348 110.714 211.065 110.714 211.065" fill="white"/>
<path d="M114.381 219.321C114.188 220.061 113.981 220.843 113.781 221.641C112.992 224.794 112.16 229.004 108.374 228.526C105.902 228.216 92.3255 225.672 90.8414 225.127C90.1732 224.877 88.5964 220.537 88.5964 220.537L98.211 216.419C102.521 217.361 111.283 218.3 113.263 218.549C113.538 218.584 114.135 219.334 114.381 219.321Z" fill="#E8E8E8"/>
<path d="M108.97 229.53C108.73 229.53 108.491 229.514 108.253 229.483C105.939 229.192 92.176 226.644 90.5073 226.03C90.1532 225.9 89.4149 225.629 87.6894 220.862C87.644 220.742 87.6229 220.615 87.6273 220.487C87.6317 220.36 87.6614 220.234 87.7149 220.118C87.7684 220.002 87.8444 219.897 87.9387 219.811C88.0329 219.724 88.1435 219.658 88.2639 219.614C88.3843 219.571 88.5122 219.552 88.6401 219.558C88.768 219.564 88.8933 219.596 89.0088 219.651C89.1243 219.706 89.2277 219.784 89.3129 219.879C89.3981 219.974 89.4634 220.086 89.5051 220.207C90.0897 221.829 90.9249 223.77 91.3099 224.264C93.2041 224.836 105.862 227.237 108.494 227.569C111.037 227.885 111.854 225.417 112.725 221.888L112.845 221.405C112.993 220.81 113.146 220.223 113.295 219.654C113.759 217.883 114.392 215.461 114.189 214.884C113.734 214.279 111.59 212.766 110.193 211.87C110.087 211.802 109.994 211.714 109.922 211.61C109.85 211.506 109.799 211.389 109.772 211.265C109.745 211.142 109.742 211.014 109.765 210.889C109.787 210.765 109.834 210.646 109.902 210.54C109.971 210.433 110.059 210.341 110.163 210.269C110.267 210.197 110.385 210.146 110.509 210.119C110.632 210.092 110.76 210.089 110.885 210.112C111.01 210.134 111.129 210.181 111.236 210.249C111.857 210.648 114.994 212.688 115.781 213.794C116.508 214.819 116.069 216.675 115.163 220.141C115.016 220.702 114.864 221.281 114.717 221.869L114.599 222.347C113.886 225.245 112.832 229.53 108.97 229.53Z" fill="#371A45"/>
<path d="M88.7284 218.778L91.6256 210.792C91.8789 210.093 92.3635 209.501 92.9994 209.115C93.6352 208.728 94.3841 208.569 95.1225 208.665L109.26 210.499C109.73 210.56 110.182 210.723 110.583 210.976C110.984 211.229 111.326 211.566 111.584 211.964C111.841 212.361 112.009 212.81 112.076 213.279C112.142 213.748 112.106 214.226 111.969 214.68L109.27 223.61C109.035 224.385 108.521 225.045 107.827 225.463C107.132 225.881 106.307 226.027 105.511 225.872L91.1771 223.091C90.714 223.001 90.276 222.811 89.8931 222.536C89.5102 222.261 89.1915 221.906 88.9589 221.497C88.7262 221.087 88.5852 220.632 88.5454 220.162C88.5056 219.693 88.568 219.221 88.7284 218.778Z" fill="white"/>
<path d="M106.151 226.899C105.876 226.898 105.602 226.87 105.332 226.816L90.9983 224.036C90.398 223.919 89.8301 223.674 89.3336 223.317C88.8372 222.961 88.424 222.501 88.1224 221.97C87.8209 221.439 87.6381 220.849 87.5867 220.241C87.5353 219.632 87.6165 219.02 87.8247 218.446V218.446L90.7211 210.46C91.0464 209.553 91.6736 208.785 92.4979 208.285C93.3223 207.784 94.2938 207.581 95.2502 207.709L109.387 209.543C109.997 209.622 110.583 209.833 111.103 210.161C111.623 210.488 112.065 210.925 112.399 211.441C112.733 211.957 112.95 212.539 113.036 213.147C113.122 213.755 113.073 214.374 112.895 214.962L110.196 223.891C109.936 224.76 109.402 225.523 108.673 226.065C107.944 226.606 107.06 226.899 106.151 226.899V226.899ZM89.6378 219.106C89.5247 219.418 89.4806 219.751 89.5087 220.083C89.5368 220.414 89.6364 220.735 89.8007 221.024C89.965 221.313 90.19 221.563 90.4603 221.757C90.7306 221.951 91.0398 222.085 91.3667 222.148L105.7 224.929C106.261 225.039 106.843 224.937 107.332 224.642C107.822 224.347 108.184 223.881 108.347 223.334L111.044 214.408C111.141 214.088 111.167 213.752 111.12 213.421C111.073 213.09 110.955 212.774 110.773 212.494C110.591 212.213 110.351 211.976 110.068 211.797C109.785 211.619 109.467 211.504 109.135 211.461L94.998 209.627C94.4769 209.557 93.9474 209.667 93.4985 209.941C93.0495 210.214 92.7084 210.633 92.5326 211.128L89.6378 219.106Z" fill="#371A45"/>
<path d="M108.047 217.283C108.005 218.647 106.939 220.006 105.664 220.317C105.155 220.442 104.688 220.379 104.316 220.172L104.202 220.104L104.188 220.095L102.992 219.371L102.971 218.968L103.438 218.295C103.521 217.142 104.32 216.013 105.345 215.54C105.495 215.47 105.651 215.414 105.812 215.373C106.234 215.258 106.683 215.295 107.081 215.478C107.689 215.77 108.072 216.426 108.047 217.283Z" fill="#1C7AEA"/>
<path d="M105.149 221.105C104.734 221.107 104.326 221.003 103.964 220.802L103.833 220.725L103.79 220.697L102.621 219.99C102.52 219.929 102.436 219.844 102.375 219.744C102.315 219.643 102.28 219.529 102.273 219.411L102.252 219.008C102.243 218.848 102.287 218.689 102.379 218.557L102.74 218.037C102.836 217.399 103.076 216.791 103.444 216.261C103.812 215.73 104.296 215.291 104.861 214.977L105.3 214.34C105.405 214.188 105.565 214.082 105.746 214.044C105.928 214.005 106.117 214.038 106.275 214.135L107.461 214.86C108.318 215.301 108.808 216.209 108.773 217.305C108.723 218.998 107.437 220.629 105.839 221.019C105.614 221.075 105.382 221.104 105.149 221.105V221.105ZM103.813 219.02L104.564 219.474C104.578 219.482 104.591 219.491 104.603 219.5L104.687 219.548C104.895 219.665 105.18 219.689 105.493 219.613C106.454 219.378 107.293 218.3 107.324 217.258C107.341 216.718 107.14 216.307 106.771 216.131C106.73 216.112 106.692 216.089 106.655 216.063L106.1 215.723L105.943 215.949C105.865 216.06 105.758 216.146 105.634 216.199C104.841 216.573 104.223 217.472 104.16 218.343C104.151 218.472 104.107 218.596 104.033 218.703L103.813 219.02Z" fill="#371A45"/>
<path d="M106.147 218.248C107.008 217.01 106.944 215.478 106.004 214.825C105.063 214.173 103.602 214.648 102.741 215.886C101.879 217.124 101.943 218.656 102.884 219.308C103.824 219.961 105.285 219.486 106.147 218.248Z" fill="#22A7F0"/>
<g opacity="0.7">
<path d="M106.753 216.5C106.746 216.714 106.716 216.926 106.663 217.134C106.579 215.923 105.626 215.195 104.434 215.487C103.358 215.749 102.429 216.756 102.142 217.883C102.136 217.798 102.134 217.713 102.137 217.628C102.179 216.263 103.245 214.905 104.52 214.593C105.795 214.281 106.795 215.135 106.753 216.5Z" fill="white"/>
</g>
<path d="M106.675 215.809C106.736 216.034 106.762 216.267 106.753 216.5C106.711 217.864 105.646 219.222 104.37 219.533C103.095 219.844 102.095 218.99 102.137 217.627C102.145 217.402 102.178 217.178 102.238 216.961C102.494 217.906 103.351 218.429 104.394 218.174C105.459 217.915 106.38 216.924 106.675 215.809Z" fill="#1C7AEA"/>
<path d="M103.851 220.32C103.301 220.326 102.766 220.141 102.338 219.797C101.723 219.301 101.385 218.502 101.413 217.605C101.464 215.911 102.749 214.28 104.348 213.89C105.17 213.69 105.954 213.844 106.553 214.328C107.167 214.828 107.504 215.623 107.476 216.52C107.425 218.214 106.14 219.845 104.542 220.234C104.316 220.29 104.084 220.319 103.851 220.32ZM105.031 215.252C104.917 215.252 104.803 215.267 104.692 215.294C103.73 215.529 102.891 216.607 102.86 217.648C102.846 218.097 102.984 218.46 103.248 218.674C103.487 218.867 103.823 218.924 104.198 218.831C105.16 218.596 105.998 217.518 106.03 216.477C106.043 216.029 105.905 215.664 105.642 215.451C105.467 215.316 105.251 215.246 105.031 215.252V215.252Z" fill="#371A45"/>
<path d="M95.6862 224.69C95.5701 224.69 95.4557 224.663 95.3526 224.609C95.2495 224.556 95.1607 224.479 95.0939 224.384C95.027 224.29 94.984 224.18 94.9685 224.065C94.9529 223.95 94.9654 223.834 95.0047 223.725L96.7936 218.732C96.9175 218.384 96.9571 218.012 96.909 217.646C96.861 217.281 96.7267 216.931 96.5172 216.627C96.1801 216.138 95.9632 215.576 95.884 214.988C95.8047 214.399 95.8654 213.8 96.0612 213.239L97.6046 208.838C97.6681 208.657 97.8008 208.509 97.9738 208.426C98.1467 208.343 98.3455 208.332 98.5266 208.395C98.7077 208.458 98.8562 208.591 98.9393 208.764C99.0225 208.936 99.0336 209.135 98.9701 209.315L97.4275 213.716C97.307 214.062 97.2697 214.432 97.3186 214.795C97.3675 215.158 97.5012 215.505 97.709 215.807C98.0487 216.3 98.2665 216.866 98.3443 217.459C98.4221 218.052 98.3578 218.655 98.1566 219.219L96.3677 224.211C96.3174 224.352 96.2249 224.473 96.1029 224.558C95.9809 224.644 95.8353 224.69 95.6862 224.69V224.69Z" fill="#371A45"/>
<path d="M113.04 224.427C113.04 224.427 110.421 222.759 111.497 219.758C112.185 217.841 114.743 217.879 114.743 217.879C114.743 217.879 125.11 217.879 132.523 224.048C132.523 224.048 136.615 229.572 130.815 231.039C127.499 226.907 117.681 224.972 113.04 224.427Z" fill="white"/>
<path d="M132.311 230.466C131.84 230.724 131.337 230.917 130.815 231.042C127.499 226.907 117.681 224.973 113.04 224.426C113.04 224.426 110.646 222.9 111.378 220.147C111.412 220.02 111.45 219.897 111.498 219.762C112.186 217.844 114.742 217.883 114.742 217.883C114.742 217.883 125.109 217.883 132.523 224.051C132.523 224.052 135.81 228.496 132.311 230.466Z" fill="white"/>
<path d="M132.311 230.466C131.84 230.724 131.337 230.917 130.815 231.042C127.499 226.907 117.681 224.973 113.04 224.426C113.04 224.426 110.646 222.9 111.378 220.147C111.77 220.661 112.531 221.23 114 221.552C117.225 222.255 133.033 225.058 132.311 230.466Z" fill="#E8E8E8"/>
<path d="M130.443 232.146L130.048 231.653C127.083 227.955 117.889 225.985 112.927 225.401L112.703 225.375L112.513 225.254C111.379 224.532 109.514 222.384 110.575 219.433C111.494 216.89 114.621 216.905 114.759 216.905C115.195 216.905 125.557 216.981 133.151 223.299L133.242 223.375L133.312 223.47C133.547 223.788 135.584 226.647 134.675 229.188C134.182 230.566 132.964 231.51 131.057 231.992L130.443 232.146ZM113.405 223.484C115.624 223.764 126.798 225.373 131.134 229.923C132.039 229.603 132.607 229.135 132.824 228.528C133.278 227.258 132.269 225.404 131.797 224.724C124.76 218.944 114.843 218.862 114.741 218.862C114.692 218.862 112.857 218.876 112.419 220.092C111.747 221.965 112.952 223.127 113.407 223.484H113.405Z" fill="#371A45"/>
<path d="M111.627 250.376C111.498 250.376 111.371 250.342 111.26 250.276C111.149 250.211 111.057 250.117 110.995 250.004C105.267 239.75 95.4749 243.325 95.0606 243.482C94.8823 243.546 94.6859 243.538 94.5136 243.459C94.3413 243.381 94.2068 243.238 94.139 243.061C94.0712 242.884 94.0756 242.688 94.1511 242.514C94.2266 242.341 94.3672 242.204 94.5428 242.133C94.6556 242.089 105.91 237.933 112.259 249.302C112.32 249.412 112.352 249.536 112.35 249.661C112.349 249.787 112.315 249.91 112.251 250.019C112.187 250.127 112.096 250.217 111.987 250.28C111.878 250.342 111.754 250.375 111.628 250.376L111.627 250.376Z" fill="#371A45"/>
<path d="M83.1728 240.682C83.0872 240.682 83.0024 240.667 82.9222 240.637C73.2033 237.045 72.7481 225.412 72.7439 225.294C72.7412 225.105 72.8134 224.921 72.9448 224.784C73.0762 224.647 73.2563 224.567 73.4462 224.562C73.6362 224.556 73.8208 224.625 73.9601 224.754C74.0995 224.883 74.1825 225.061 74.1913 225.251C74.1913 225.358 74.6306 236.031 83.4233 239.282C83.5825 239.341 83.716 239.453 83.8003 239.601C83.8846 239.748 83.9144 239.92 83.8846 240.086C83.8547 240.253 83.7671 240.404 83.637 240.513C83.5069 240.622 83.3426 240.682 83.1728 240.682V240.682Z" fill="#371A45"/>
<path d="M76.0947 76.5267L77.3591 81.5868C77.3591 81.5868 74.7442 81.811 73.7203 80.9974C72.9318 80.3713 71.5613 77.1502 72.1443 76.3016C72.3932 75.9381 74.6899 76.2624 76.0947 76.5267Z" fill="#E0E0E0"/>
<path d="M77.3591 81.5876C77.3591 81.5876 74.745 81.811 73.7202 80.9974C73.4538 80.7856 73.1222 80.2805 72.8224 79.6636C74.0075 80.1321 75.2219 80.3538 75.4398 80.0429C75.6578 79.7319 74.6656 76.2916 74.6656 76.2916C75.1667 76.3616 75.6678 76.4458 76.0946 76.5258L77.3591 81.5876Z" fill="#C1C1C1"/>
<path d="M76.5289 82.5829C75.5267 82.5829 74.0034 82.4529 73.1197 81.7493C72.1392 80.9699 70.3461 77.2136 71.3483 75.7547C71.6306 75.3429 72.0165 74.7777 76.2759 75.5772C76.4573 75.6113 76.6251 75.6966 76.7594 75.8231C76.8937 75.9496 76.9888 76.1119 77.0334 76.2907L78.2978 81.3508C78.3317 81.4861 78.3358 81.627 78.3097 81.764C78.2837 81.9009 78.2282 82.0306 78.147 82.144C78.0658 82.2574 77.961 82.3519 77.8396 82.421C77.7183 82.49 77.5834 82.5319 77.4443 82.5438C77.2923 82.5596 76.9574 82.5829 76.5289 82.5829ZM72.9677 77.1019C73.0596 78.0022 73.8781 79.882 74.3216 80.2438C74.6356 80.4939 75.3898 80.6114 76.1289 80.6439L75.3096 77.3653C74.2314 77.1844 73.4262 77.1102 72.9677 77.1019Z" fill="#371A45"/>
</svg>
