<svg width="238" height="167" viewBox="0 0 238 167" fill="none" xmlns="http://www.w3.org/2000/svg">
<path d="M237.65 3.71808L237.99 1.23166C238.015 1.04886 237.993 0.862755 237.926 0.690912C237.859 0.51907 237.749 0.367154 237.607 0.249499C237.465 0.131844 237.295 0.0523296 237.114 0.0184589C236.933 -0.0154119 236.746 -0.00252234 236.571 0.0559113L216.707 6.82772L197.067 37.1659C196.966 37.3198 196.906 37.497 196.893 37.6805C196.88 37.8641 196.914 38.048 196.991 38.2147C197.069 38.3815 197.188 38.5255 197.338 38.6332C197.487 38.7409 197.661 38.8086 197.844 38.83L202.62 39.421C202.829 39.447 203.04 39.4123 203.229 39.3211C203.418 39.2299 203.577 39.0862 203.686 38.9071L220.052 11.6721C220.175 11.4741 220.357 11.3193 220.572 11.2287L236.982 4.57259C237.158 4.50069 237.312 4.38403 237.43 4.23415C237.547 4.08427 237.623 3.90638 237.65 3.71808V3.71808Z" fill="#50429B"/>
<path d="M222.061 47.6577L221.849 49.3796C221.756 50.1395 221.366 50.8316 220.765 51.3047C220.163 51.7778 219.399 51.9934 218.639 51.9046C218.264 51.8613 217.886 51.9598 217.58 52.1808C217.277 52.4022 217.07 52.7308 217.002 53.0996L208.232 101.093C208.19 101.319 208.094 101.53 207.952 101.71C207.811 101.891 207.628 102.034 207.419 102.128C207.21 102.222 206.982 102.264 206.753 102.251C206.525 102.237 206.303 102.169 206.106 102.051C204.525 101.147 202.778 100.57 200.97 100.354C198.957 100.106 196.914 100.305 194.986 100.939C194.8 100.999 194.604 101.02 194.41 100.999C194.216 100.979 194.028 100.918 193.858 100.82C193.689 100.723 193.542 100.591 193.427 100.434C193.311 100.276 193.23 100.096 193.189 99.9047C191.031 90.9099 183.134 83.6883 172.964 82.4483C162.795 81.2083 153.408 86.3033 149.145 94.5207C149.057 94.6952 148.934 94.8497 148.784 94.9741C148.633 95.0986 148.459 95.1903 148.271 95.2435C148.083 95.2967 147.886 95.3102 147.693 95.2831C147.5 95.2559 147.314 95.1889 147.148 95.086C145.483 94.0414 143.614 93.3641 141.667 93.0993C139.719 92.8345 137.738 92.9883 135.855 93.5505C135.635 93.6206 135.401 93.6362 135.173 93.5958C134.946 93.5554 134.732 93.4604 134.549 93.3187C134.367 93.1771 134.221 92.9933 134.125 92.7829C134.029 92.5726 133.986 92.3421 133.999 92.1113L137.158 43.3402C137.184 42.9651 137.065 42.5942 136.826 42.3039C136.588 42.0135 136.247 41.8257 135.874 41.779C135.114 41.6873 134.421 41.2975 133.948 40.6952C133.475 40.0929 133.26 39.3273 133.351 38.5665L133.556 36.8447C133.606 36.4558 133.807 36.1025 134.116 35.8617C134.426 35.621 134.817 35.5124 135.206 35.5597L141.627 36.3435L142.326 36.4335C142.794 36.4932 143.223 36.7224 143.533 37.0776C143.843 37.4328 144.012 37.8894 144.009 38.3609C144.009 40.5711 143.045 43.8799 143.328 45.7174C143.61 47.5549 147.527 49.0005 147.912 41.8111C148.085 38.5987 149.293 37.8598 149.524 38.785C150.75 43.6293 152.477 39.9864 152.092 38.528C152.092 38.528 152.092 38.4894 152.092 38.4637C152.092 38.438 151.591 37.8727 152.522 37.6799L220.867 46.0322C221.235 46.1013 221.563 46.3076 221.784 46.6093C222.006 46.9111 222.105 47.2858 222.061 47.6577Z" fill="#50429B"/>
<path d="M208.829 118.216C208.539 120.374 207.641 122.405 206.24 124.072C204.84 125.738 202.994 126.972 200.919 127.628V127.628C200.432 127.787 199.999 128.08 199.672 128.475C199.345 128.869 199.136 129.349 199.07 129.857L198.486 134.605C198.443 134.958 198.331 135.299 198.156 135.608C197.982 135.918 197.748 136.19 197.468 136.409C197.188 136.628 196.868 136.789 196.526 136.884C196.184 136.98 195.827 137.006 195.474 136.963L137.954 129.928C137.602 129.885 137.261 129.773 136.952 129.598C136.643 129.424 136.371 129.19 136.152 128.91C135.933 128.63 135.772 128.31 135.677 127.968C135.582 127.625 135.555 127.267 135.598 126.915L136.176 122.18C136.238 121.673 136.155 121.158 135.937 120.697C135.719 120.235 135.374 119.845 134.943 119.571L134.641 119.378C132.939 118.297 131.56 116.777 130.647 114.978C129.734 113.179 129.321 111.168 129.453 109.155C129.584 107.141 130.254 105.201 131.393 103.536C132.532 101.871 134.097 100.544 135.925 99.6927C137.675 98.8496 139.594 98.4177 141.535 98.4299C143.477 98.4422 145.39 98.8982 147.129 99.7633C147.737 100.082 148.443 100.159 149.106 99.9777C149.768 99.7965 150.337 99.3709 150.699 98.7867C154.885 91.8093 163.218 87.5689 172.194 88.6676C181.17 89.7662 188.245 95.8891 190.627 103.676C190.838 104.325 191.285 104.871 191.88 105.204C192.475 105.538 193.174 105.635 193.837 105.475C195.251 105.164 196.708 105.094 198.145 105.269C200.481 105.549 202.691 106.477 204.527 107.949C206.061 109.149 207.262 110.724 208.015 112.521C208.768 114.318 209.048 116.279 208.829 118.216V118.216Z" fill="#50429B"/>
<path d="M135.007 131.746C133.614 143.112 142.281 153.874 155.289 158.352C154.532 160.491 153.036 163.325 150.223 164.777C155.073 164.669 159.774 163.089 163.706 160.247C180.964 162.239 196.232 152.961 197.882 139.43L135.007 131.746ZM156.15 145.842C155.681 145.857 155.22 145.728 154.827 145.473C154.434 145.217 154.129 144.847 153.953 144.413C153.777 143.978 153.738 143.501 153.841 143.043C153.945 142.586 154.186 142.172 154.532 141.856C154.878 141.54 155.312 141.337 155.777 141.276C156.241 141.215 156.713 141.297 157.129 141.512C157.546 141.728 157.886 142.065 158.104 142.48C158.323 142.895 158.409 143.366 158.352 143.831C158.322 144.389 158.074 144.912 157.662 145.288C157.25 145.664 156.707 145.863 156.15 145.842V145.842ZM168.74 150.796C168.256 151.491 167.593 152.04 166.821 152.386C166.048 152.732 165.197 152.86 164.357 152.758C163.517 152.656 162.721 152.326 162.055 151.805C161.388 151.284 160.876 150.591 160.573 149.8C160.48 149.517 160.5 149.208 160.63 148.939C160.76 148.671 160.99 148.463 161.27 148.361C161.55 148.258 161.859 148.268 162.131 148.39C162.404 148.511 162.619 148.733 162.73 149.01C162.889 149.401 163.149 149.743 163.484 150.001C163.819 150.258 164.217 150.421 164.636 150.472C165.055 150.524 165.48 150.463 165.867 150.295C166.255 150.127 166.59 149.859 166.839 149.517C167.01 149.262 167.274 149.084 167.575 149.024C167.877 148.964 168.189 149.026 168.445 149.196C168.7 149.367 168.877 149.632 168.937 149.933C168.998 150.234 168.936 150.547 168.766 150.802L168.74 150.796ZM173.992 148.027C173.524 148.042 173.062 147.913 172.67 147.658C172.277 147.403 171.972 147.033 171.796 146.599C171.619 146.165 171.579 145.688 171.682 145.231C171.785 144.774 172.025 144.359 172.371 144.043C172.716 143.726 173.15 143.523 173.614 143.461C174.078 143.399 174.55 143.48 174.966 143.695C175.383 143.909 175.724 144.245 175.943 144.659C176.163 145.073 176.25 145.544 176.194 146.009C176.161 146.565 175.912 147.085 175.5 147.458C175.088 147.831 174.547 148.029 173.992 148.008V148.027Z" fill="#50429B"/>
<path d="M84.7421 119.417C85.3413 116.344 85.6721 113.225 85.7308 110.095C85.7993 106.805 85.8357 103.625 85.84 100.554C85.84 97.8509 85.8764 95.1096 85.9491 92.3298C86.0205 89.5317 86.2779 86.7414 86.7196 83.9775L87.047 82.2235L88.7998 81.8958C93.6194 81.4675 98.4239 81.2105 103.214 81.1248C107.992 81.0537 112.769 81.3114 117.512 81.8958L119.271 82.2235L128.259 149.344L127.168 150.224C118.343 156.006 108.699 160.424 98.5588 163.331C88.3656 166.175 77.7854 167.378 67.2145 166.897C62.5965 166.684 58.0002 166.134 53.462 165.252C49.0261 164.39 44.6784 163.124 40.4736 161.468C36.3006 159.821 32.3286 157.705 28.6344 155.159C24.8407 152.527 21.3899 149.432 18.3618 145.945C12.2692 139.08 7.61267 131.062 4.66717 122.366C1.68394 113.678 0.110283 104.568 0.00597122 95.3816C-0.100278 86.1489 1.21195 76.9547 3.89672 68.1209C6.51289 59.3308 10.5349 51.0229 15.8065 43.5201C21.1087 35.9639 27.5399 29.2681 34.875 23.6673C41.7743 18.4688 49.3772 14.2785 57.4555 11.2223C65.6477 8.15428 74.1873 6.11069 82.8802 5.13797C92.0121 4.10506 101.212 3.81071 110.392 4.25776H111.708L112.35 5.57486C114.931 10.6177 116.758 16.012 117.775 21.5856C118.823 27.2018 119.5 32.8807 119.804 38.5858V41.1172H117.281C113.12 41.1172 108.5 41.2457 103.419 41.5027C98.3383 41.7597 93.2277 42.2737 88.0871 43.0447C83.0354 43.7916 78.0444 44.9039 73.1533 46.3727C68.7033 47.6672 64.4598 49.5881 60.5501 52.078C58.4534 53.4282 56.5151 55.0101 54.7718 56.7939C53.4287 58.1277 52.1821 59.5555 51.0416 61.0664C49.9215 62.5729 48.8965 64.1479 47.9726 65.7822C46.3263 68.7277 44.986 71.8343 43.9727 75.0533C42.918 78.3629 42.2564 81.7852 42.0017 85.2496C41.7422 88.6961 41.9256 92.1617 42.5474 95.5615C43.1462 98.8996 44.3146 102.11 46.0016 105.051C47.4264 107.693 49.299 110.067 51.5359 112.067C53.6749 113.957 56.0751 115.528 58.6625 116.731C61.2996 117.953 64.0802 118.836 66.9384 119.359C69.8637 119.912 72.8343 120.189 75.8114 120.188C77.2752 120.188 78.7733 120.132 80.3056 120.021C81.7958 119.914 83.2776 119.712 84.7421 119.417Z" fill="#50429B"/>
<mask id="mask0_3692_9394" style="mask-type:alpha" maskUnits="userSpaceOnUse" x="0" y="0" width="238" height="167">
<path d="M237.65 3.71808L237.99 1.23166C238.015 1.04886 237.993 0.862755 237.926 0.690912C237.859 0.51907 237.749 0.367154 237.607 0.249499C237.465 0.131844 237.295 0.0523296 237.114 0.0184589C236.933 -0.0154119 236.746 -0.00252234 236.571 0.0559113L216.707 6.82772L197.067 37.1659C196.966 37.3198 196.906 37.497 196.893 37.6805C196.88 37.8641 196.914 38.048 196.991 38.2147C197.069 38.3815 197.188 38.5255 197.338 38.6332C197.487 38.7409 197.661 38.8086 197.844 38.83L202.62 39.421C202.829 39.447 203.04 39.4123 203.229 39.3211C203.418 39.2299 203.577 39.0862 203.686 38.9071L220.052 11.6721C220.175 11.4741 220.357 11.3193 220.572 11.2287L236.982 4.57259C237.158 4.50069 237.312 4.38403 237.43 4.23415C237.547 4.08427 237.623 3.90638 237.65 3.71808V3.71808Z" fill="#50429B"/>
<path d="M222.061 47.6577L221.849 49.3796C221.756 50.1395 221.366 50.8316 220.765 51.3047C220.163 51.7778 219.399 51.9934 218.639 51.9046C218.264 51.8613 217.886 51.9598 217.58 52.1808C217.277 52.4022 217.07 52.7308 217.002 53.0996L208.232 101.093C208.19 101.319 208.094 101.53 207.952 101.71C207.811 101.891 207.628 102.034 207.419 102.128C207.21 102.222 206.982 102.264 206.753 102.251C206.525 102.237 206.303 102.169 206.106 102.051C204.525 101.147 202.778 100.57 200.97 100.354C198.957 100.106 196.914 100.305 194.986 100.939C194.8 100.999 194.604 101.02 194.41 100.999C194.216 100.979 194.028 100.918 193.858 100.82C193.689 100.723 193.542 100.591 193.427 100.434C193.311 100.276 193.23 100.096 193.189 99.9047C191.031 90.9099 183.134 83.6883 172.964 82.4483C162.795 81.2083 153.408 86.3033 149.145 94.5207C149.057 94.6952 148.934 94.8497 148.784 94.9741C148.633 95.0986 148.459 95.1903 148.271 95.2435C148.083 95.2967 147.886 95.3102 147.693 95.2831C147.5 95.2559 147.314 95.1889 147.148 95.086C145.483 94.0414 143.614 93.3641 141.667 93.0993C139.719 92.8345 137.738 92.9883 135.855 93.5505C135.635 93.6206 135.401 93.6362 135.173 93.5958C134.946 93.5554 134.732 93.4604 134.549 93.3187C134.367 93.1771 134.221 92.9933 134.125 92.7829C134.029 92.5726 133.986 92.3421 133.999 92.1113L137.158 43.3402C137.184 42.9651 137.065 42.5942 136.826 42.3039C136.588 42.0135 136.247 41.8257 135.874 41.779C135.114 41.6873 134.421 41.2975 133.948 40.6952C133.475 40.0929 133.26 39.3273 133.351 38.5665L133.556 36.8447C133.606 36.4558 133.807 36.1025 134.116 35.8617C134.426 35.621 134.817 35.5124 135.206 35.5597L141.627 36.3435L142.326 36.4335C142.794 36.4932 143.223 36.7224 143.533 37.0776C143.843 37.4328 144.012 37.8894 144.009 38.3609C144.009 40.5711 143.045 43.8799 143.328 45.7174C143.61 47.5549 147.527 49.0005 147.912 41.8111C148.085 38.5987 149.293 37.8598 149.524 38.785C150.75 43.6293 152.477 39.9864 152.092 38.528C152.092 38.528 152.092 38.4894 152.092 38.4637C152.092 38.438 151.591 37.8727 152.522 37.6799L220.867 46.0322C221.235 46.1013 221.563 46.3076 221.784 46.6093C222.006 46.9111 222.105 47.2858 222.061 47.6577Z" fill="#938BBF"/>
<path d="M208.829 118.216C208.539 120.374 207.641 122.405 206.24 124.072C204.84 125.738 202.994 126.972 200.919 127.628V127.628C200.432 127.787 199.999 128.08 199.672 128.475C199.345 128.869 199.136 129.349 199.07 129.857L198.486 134.605C198.443 134.958 198.331 135.299 198.156 135.608C197.982 135.918 197.748 136.19 197.468 136.409C197.188 136.628 196.868 136.789 196.526 136.884C196.184 136.98 195.827 137.006 195.474 136.963L137.954 129.928C137.602 129.885 137.261 129.773 136.952 129.598C136.643 129.424 136.371 129.19 136.152 128.91C135.933 128.63 135.772 128.31 135.677 127.968C135.582 127.625 135.555 127.267 135.598 126.915L136.176 122.18C136.238 121.673 136.155 121.158 135.937 120.697C135.719 120.235 135.374 119.845 134.943 119.571L134.641 119.378C132.939 118.297 131.56 116.777 130.647 114.978C129.734 113.179 129.321 111.168 129.453 109.155C129.584 107.141 130.254 105.201 131.393 103.536C132.532 101.871 134.097 100.544 135.925 99.6927C137.675 98.8496 139.594 98.4177 141.535 98.4299C143.477 98.4422 145.39 98.8982 147.129 99.7633C147.737 100.082 148.443 100.159 149.106 99.9777C149.768 99.7965 150.337 99.3709 150.699 98.7867C154.885 91.8093 163.218 87.5689 172.194 88.6676C181.17 89.7662 188.245 95.8891 190.627 103.676C190.838 104.325 191.285 104.871 191.88 105.204C192.475 105.538 193.174 105.635 193.837 105.475C195.251 105.164 196.708 105.094 198.145 105.269C200.481 105.549 202.691 106.477 204.527 107.949C206.061 109.149 207.262 110.724 208.015 112.521C208.768 114.318 209.048 116.279 208.829 118.216V118.216Z" fill="#50429B"/>
<path d="M135.007 131.746C133.614 143.112 142.281 153.874 155.289 158.352C154.532 160.491 153.036 163.325 150.223 164.777C155.073 164.669 159.774 163.089 163.706 160.247C180.964 162.239 196.232 152.961 197.882 139.43L135.007 131.746ZM156.15 145.842C155.681 145.857 155.22 145.728 154.827 145.473C154.434 145.217 154.129 144.847 153.953 144.413C153.777 143.978 153.738 143.501 153.841 143.043C153.945 142.586 154.186 142.172 154.532 141.856C154.878 141.54 155.312 141.337 155.777 141.276C156.241 141.215 156.713 141.297 157.129 141.512C157.546 141.728 157.886 142.065 158.104 142.48C158.323 142.895 158.409 143.366 158.352 143.831C158.322 144.389 158.074 144.912 157.662 145.288C157.25 145.664 156.707 145.863 156.15 145.842V145.842ZM168.74 150.796C168.256 151.491 167.593 152.04 166.821 152.386C166.048 152.732 165.197 152.86 164.357 152.758C163.517 152.656 162.721 152.326 162.055 151.805C161.388 151.284 160.876 150.591 160.573 149.8C160.48 149.517 160.5 149.208 160.63 148.939C160.76 148.671 160.99 148.463 161.27 148.361C161.55 148.258 161.859 148.268 162.131 148.39C162.404 148.511 162.619 148.733 162.73 149.01C162.889 149.401 163.149 149.743 163.484 150.001C163.819 150.258 164.217 150.421 164.636 150.472C165.055 150.524 165.48 150.463 165.867 150.295C166.255 150.127 166.59 149.859 166.839 149.517C167.01 149.262 167.274 149.084 167.575 149.024C167.877 148.964 168.189 149.026 168.445 149.196C168.7 149.367 168.877 149.632 168.937 149.933C168.998 150.234 168.936 150.547 168.766 150.802L168.74 150.796ZM173.992 148.027C173.524 148.042 173.062 147.913 172.67 147.658C172.277 147.403 171.972 147.033 171.796 146.599C171.619 146.165 171.579 145.688 171.682 145.231C171.785 144.774 172.025 144.359 172.371 144.043C172.716 143.726 173.15 143.523 173.614 143.461C174.078 143.399 174.55 143.48 174.966 143.695C175.383 143.909 175.724 144.245 175.943 144.659C176.163 145.073 176.25 145.544 176.194 146.009C176.161 146.565 175.912 147.085 175.5 147.458C175.088 147.831 174.547 148.029 173.992 148.008V148.027Z" fill="#50429B"/>
<path d="M84.7421 119.417C85.3413 116.344 85.6721 113.225 85.7309 110.095C85.7993 106.805 85.8357 103.625 85.84 100.554C85.84 97.8509 85.8764 95.1096 85.9491 92.3298C86.0205 89.5317 86.2779 86.7414 86.7196 83.9775L87.047 82.2235L88.7998 81.8958C93.6194 81.4675 98.4239 81.2105 103.214 81.1248C107.992 81.0537 112.769 81.3114 117.512 81.8958L119.271 82.2235L128.259 149.344L127.168 150.224C118.343 156.006 108.699 160.424 98.5588 163.331C88.3656 166.175 77.7854 167.378 67.2145 166.897C62.5965 166.684 58.0002 166.134 53.462 165.252C49.0261 164.39 44.6784 163.124 40.4736 161.468C36.3006 159.821 32.3286 157.705 28.6344 155.158C24.8407 152.527 21.3899 149.432 18.3618 145.945C12.2692 139.08 7.61267 131.062 4.66717 122.366C1.68394 113.678 0.110283 104.568 0.00597122 95.3816C-0.100278 86.1489 1.21195 76.9547 3.89672 68.1209C6.51289 59.3308 10.5349 51.0229 15.8065 43.5201C21.1087 35.9639 27.5399 29.2681 34.875 23.6673C41.7743 18.4688 49.3772 14.2785 57.4555 11.2223C65.6477 8.15428 74.1873 6.11069 82.8802 5.13797C92.0121 4.10506 101.212 3.81071 110.392 4.25776H111.708L112.35 5.57486C114.931 10.6177 116.758 16.012 117.775 21.5856C118.823 27.2018 119.5 32.8807 119.804 38.5858V41.1172H117.281C113.12 41.1172 108.5 41.2457 103.419 41.5027C98.3383 41.7597 93.2277 42.2737 88.0871 43.0447C83.0354 43.7916 78.0444 44.9039 73.1533 46.3727C68.7033 47.6672 64.4598 49.5881 60.5501 52.078C58.4534 53.4282 56.5151 55.0101 54.7718 56.7939C53.4287 58.1277 52.1821 59.5555 51.0415 61.0664C49.9215 62.5729 48.8965 64.1479 47.9726 65.7822C46.3263 68.7277 44.986 71.8343 43.9727 75.0533C42.918 78.3629 42.2564 81.7852 42.0017 85.2496C41.7422 88.6961 41.9256 92.1617 42.5474 95.5615C43.1462 98.8996 44.3146 102.11 46.0016 105.051C47.4264 107.693 49.299 110.067 51.5359 112.067C53.6749 113.957 56.0751 115.528 58.6625 116.731C61.2996 117.953 64.0802 118.836 66.9384 119.359C69.8637 119.912 72.8343 120.189 75.8114 120.188C77.2752 120.188 78.7733 120.132 80.3056 120.021C81.7958 119.914 83.2776 119.712 84.7421 119.417Z" fill="#010102"/>
</mask>
<g mask="url(#mask0_3692_9394)">
<path d="M266.039 121.262C243.452 112.183 208.872 109.32 183.512 113.415C164.471 116.485 146.193 123.324 126.685 122.465C108.306 121.647 92.165 114.133 76.228 107.691C60.291 101.249 41.835 95.4944 23.9726 98.5938C4.78718 101.924 -8.41024 114.547 -26.9172 119.389C-46.3401 124.468 -68.1379 120.166 -87.0859 114.281C-106.034 108.396 -124.456 100.816 -145.1 99.1331C-173.599 96.7982 -203.411 107.264 -217.754 124.634V187.299H265.784L266.039 121.262Z" fill="#CB6200"/>
<path d="M379.649 121.262C357.063 112.183 322.483 109.32 297.123 113.415C278.082 116.485 259.804 123.324 240.296 122.465C221.916 121.647 205.776 114.133 189.839 107.691C173.902 101.249 155.446 95.4944 137.583 98.5938C118.398 101.924 105.201 114.547 86.6936 119.389C67.2706 124.468 45.4728 120.166 26.5249 114.281C7.5769 108.396 -10.8452 100.816 -31.4895 99.1331C-59.9878 96.7982 -89.8007 107.264 -104.143 124.634V187.299H379.395L379.649 121.262Z" fill="#FF8C21"/>
</g>
</svg>
