<svg width="36" height="36" viewBox="0 0 36 36" fill="none" xmlns="http://www.w3.org/2000/svg">
<g filter="url(#filter0_d_3733_8412)">
<circle cx="18" cy="14" r="14" fill="white"/>
</g>
<mask id="mask0_3733_8412" style="mask-type:alpha" maskUnits="userSpaceOnUse" x="4" y="0" width="28" height="28">
<circle cx="18" cy="14" r="14" fill="#D9D9D9"/>
</mask>
<g mask="url(#mask0_3733_8412)">
<path d="M24.5367 22.4428V27.9338C24.5371 28.1807 24.4884 28.4252 24.3937 28.6524C24.1421 29.2556 23.5851 29.6773 22.9421 29.6773H13.4386C12.898 29.6773 12.4189 29.3799 12.1297 28.9263C11.9424 28.6306 11.8432 28.2859 11.8442 27.9338V22.4428C11.8435 22.1162 11.9289 21.7954 12.0916 21.5141C12.3355 21.0929 12.7405 20.7927 13.2097 20.7179C13.2854 20.7058 13.362 20.6997 13.4386 20.6998H22.9421C23.0177 20.6998 23.0932 20.7057 23.1679 20.7174C23.5153 20.7719 23.8276 20.9502 24.0656 21.2092C24.3561 21.5256 24.5367 21.9625 24.5367 22.4428Z" fill="white"/>
<path d="M22.942 29.8626H13.4386C12.8571 29.8626 12.3109 29.5505 11.9779 29.0277C11.7713 28.7021 11.662 28.3223 11.6631 27.9344V22.443C11.6626 22.0832 11.7568 21.7299 11.9359 21.42C12.2139 20.9396 12.6679 20.6173 13.1816 20.5354C13.2666 20.5219 13.3525 20.5151 13.4386 20.5151H22.942C23.0267 20.5152 23.1114 20.5218 23.1951 20.5348C23.5713 20.5938 23.9273 20.7887 24.1977 21.0838C24.5329 21.4482 24.7176 21.9311 24.7176 22.4432V27.9341C24.7183 28.206 24.6646 28.4753 24.56 28.7254C24.2719 29.4156 23.6368 29.8626 22.942 29.8626ZM13.4386 20.8847C13.3713 20.8846 13.3042 20.8899 13.2378 20.9004C12.8312 20.9652 12.4703 21.2231 12.2474 21.6081C12.1013 21.8611 12.0245 22.1495 12.0251 22.4431V27.934C12.0239 28.2504 12.113 28.5604 12.2813 28.8261C12.5474 29.2437 12.98 29.4931 13.4386 29.4931H22.942C23.4911 29.4931 23.9953 29.1348 24.2271 28.5806C24.3125 28.3763 24.3561 28.1564 24.3555 27.9343V22.443C24.3555 22.0252 24.2057 21.6322 23.9336 21.3363C23.7151 21.098 23.4405 20.9474 23.1403 20.9C23.0747 20.8899 23.0084 20.8847 22.942 20.8847H13.4386Z" fill="#371A45"/>
<path d="M29.4891 28.8091C29.4891 28.8091 28.2397 34.8941 27.832 35.0292C27.2493 35.2228 25.8475 35.0191 25.8475 35.0191C25.8475 35.0191 22.905 34.6122 20.2865 34.4307C19.5336 34.3785 18.8073 34.3448 18.1861 34.3448C17.5997 34.3448 16.9205 34.3748 16.2138 34.4219C13.5641 34.5988 10.5252 35.0191 10.5252 35.0191C10.5252 35.0191 9.12302 35.2228 8.54021 35.0292C8.13254 34.8939 6.88275 28.8091 6.88275 28.8091C7.62626 27.7118 9.34378 27.8281 10.1628 29.7642C10.3167 29.5127 10.5047 29.2848 10.7212 29.0872C10.9868 28.8455 11.2956 28.6584 11.6305 28.5359C11.7287 28.4994 11.8269 28.4685 11.9241 28.4431C13.2771 28.0819 14.5101 28.6947 15.3793 29.364C15.4585 29.4245 15.5341 29.4859 15.6065 29.547C15.6137 29.5535 15.6214 29.559 15.6289 29.5655C15.6864 29.614 15.741 29.6625 15.795 29.7105C16.0556 29.9437 16.3467 30.1386 16.6601 30.2896C16.7049 30.3104 16.7497 30.3313 16.7953 30.3506C17.2356 30.5404 17.7087 30.6383 18.1866 30.6385C19.0681 30.6385 19.916 30.3045 20.578 29.7106C21.3119 29.052 22.4476 28.2923 23.7453 28.3381C24.0858 28.3503 24.4224 28.4171 24.7426 28.5362C25.131 28.6781 25.4836 28.9065 25.7747 29.205C25.9399 29.3742 26.0861 29.5618 26.2105 29.7643C27.028 27.8281 28.7455 27.7123 29.4891 28.8091Z" fill="white"/>
<path d="M9.29123 35.2968C8.98789 35.2968 8.69172 35.2739 8.48374 35.2046C8.33582 35.1553 8.13311 35.088 7.38288 31.9115C7.02306 30.3884 6.70918 28.8622 6.70605 28.847C6.70099 28.8225 6.70089 28.7971 6.70575 28.7725C6.7106 28.748 6.72031 28.7247 6.73428 28.704C7.10296 28.1597 7.70101 27.8733 8.33549 27.9371C9.08482 28.013 9.7491 28.5399 10.192 29.3982C10.5566 28.9131 11.0185 28.5653 11.5685 28.3623C12.6711 27.955 13.8792 28.146 15.0622 28.9147C15.0823 28.9277 15.0996 28.9447 15.1133 28.9645C15.1269 28.9844 15.1366 29.0068 15.1417 29.0305C15.1469 29.0542 15.1474 29.0787 15.1433 29.1026C15.1392 29.1265 15.1305 29.1493 15.1177 29.1698C15.1049 29.1902 15.0883 29.2079 15.0689 29.2219C15.0494 29.2358 15.0274 29.2457 15.0042 29.2509C14.981 29.2562 14.957 29.2567 14.9336 29.2525C14.9102 29.2483 14.8879 29.2394 14.8678 29.2264C13.7675 28.5114 12.6989 28.3376 11.6917 28.7096C11.1227 28.9197 10.6597 29.3076 10.3154 29.8627C10.2978 29.8911 10.273 29.914 10.2435 29.929C10.2141 29.9441 10.1812 29.9506 10.1484 29.948C10.1155 29.9454 10.0841 29.9336 10.0573 29.9141C10.0305 29.8945 10.0095 29.8679 9.99641 29.8371C9.61441 28.9335 8.99596 28.3752 8.29985 28.3044C7.82304 28.256 7.37167 28.4596 7.07685 28.851C7.64196 31.5917 8.36283 34.5407 8.6209 34.8609C9.08034 34.997 10.1277 34.8897 10.4993 34.8359C10.5495 34.8289 15.4212 34.1601 18.1865 34.1601C20.9519 34.1601 25.8232 34.8289 25.872 34.8356C26.2447 34.8899 27.2922 34.9971 27.7517 34.8609C28.0094 34.5407 28.7309 31.5915 29.2958 28.8512C29.0009 28.4599 28.5503 28.2565 28.0729 28.3046C27.3767 28.375 26.7582 28.9337 26.3763 29.8373C26.3632 29.8681 26.3422 29.8948 26.3154 29.9143C26.2886 29.9338 26.2571 29.9456 26.2243 29.9482C26.1915 29.9508 26.1586 29.9443 26.1291 29.9293C26.0997 29.9142 26.0748 29.8913 26.0572 29.8629C25.713 29.3078 25.2503 28.92 24.6811 28.7099C23.6653 28.3347 22.5873 28.5144 21.4775 29.2446C21.4575 29.2577 21.4352 29.2667 21.4118 29.2711C21.3884 29.2754 21.3644 29.275 21.3412 29.2699C21.3179 29.2647 21.2959 29.255 21.2764 29.2412C21.2568 29.2274 21.2402 29.2098 21.2273 29.1894C21.2144 29.169 21.2056 29.1462 21.2013 29.1224C21.1971 29.0985 21.1975 29.074 21.2025 29.0503C21.2075 29.0266 21.2171 29.0041 21.2306 28.9842C21.2441 28.9642 21.2614 28.9472 21.2814 28.934C22.4741 28.1493 23.6922 27.9516 24.8042 28.3622C25.3543 28.5652 25.8161 28.913 26.1808 29.3981C26.6235 28.5402 27.2879 28.0127 28.0371 27.937C28.6719 27.8728 29.2698 28.1596 29.6383 28.7039C29.6523 28.7245 29.662 28.7479 29.6669 28.7724C29.6717 28.797 29.6716 28.8223 29.6666 28.8469C29.6634 28.8621 29.3495 30.3883 28.9897 31.9114C28.2396 35.0878 28.0372 35.1552 27.8889 35.2045C27.2725 35.4095 25.8811 35.2103 25.8222 35.2018C25.7748 35.1951 20.927 34.5297 18.1865 34.5297C15.446 34.5297 10.5983 35.1951 10.5496 35.2019C10.5106 35.2076 9.88716 35.2968 9.29123 35.2968Z" fill="#371A45"/>
<path d="M27.47 35.0289H27.8323C28.0404 35.0291 28.244 34.9677 28.4186 34.8522C28.5932 34.7367 28.7313 34.572 28.8162 34.3781C29.3583 33.1388 30.3468 30.416 29.4213 28.7545C29.3942 28.706 29.3654 28.6593 29.3349 28.6146C29.3349 28.6146 28.446 27.7893 27.8075 28.9568C27.2106 30.0473 25.9586 34.7105 27.47 35.0289Z" fill="#AFAFB2"/>
<g opacity="0.7">
<path d="M27.4802 29.734C27.4962 29.7078 27.5121 29.6831 27.5277 29.6603C28.3129 28.4929 29.4059 29.3181 29.4059 29.3181C29.4436 29.3629 29.4789 29.4096 29.5119 29.458C29.6198 29.6158 29.709 29.786 29.7777 29.9652C29.7329 29.5288 29.6229 29.1162 29.421 28.7545C29.394 28.706 29.3652 28.6593 29.3346 28.6146C29.3346 28.6146 28.4458 27.7893 27.8073 28.9568C27.7105 29.1335 27.5967 29.4035 27.4802 29.734Z" fill="white"/>
</g>
<path d="M8.90201 35.0289H8.53984C8.33175 35.0291 8.12809 34.9677 7.95346 34.8522C7.77883 34.7367 7.64073 34.572 7.55585 34.3781C7.01371 33.1388 6.02525 30.416 6.95074 28.7545C6.97763 28.706 7.00639 28.6593 7.03702 28.6146C7.03702 28.6146 7.92587 27.7893 8.56449 28.9568C9.16142 30.0473 10.4135 34.7105 8.90201 35.0289Z" fill="#AFAFB2"/>
<g opacity="0.7">
<path d="M8.89189 29.7341C8.87598 29.7079 8.85995 29.6832 8.84438 29.6604C8.05919 28.4929 6.96617 29.3182 6.96617 29.3182C6.92856 29.363 6.89318 29.4096 6.86016 29.4581C6.75229 29.616 6.66307 29.7863 6.59436 29.9656C6.63918 29.5292 6.74922 29.1166 6.95115 28.7549C6.97805 28.7064 7.00681 28.6597 7.03744 28.615C7.03744 28.615 7.92629 27.7897 8.56491 28.9572C8.66161 29.1336 8.77546 29.4035 8.89189 29.7341Z" fill="white"/>
</g>
<path d="M26.2533 26.8232H10.1201C10.1201 25.2191 10.8292 23.8493 11.8441 22.7418C12.3708 22.1663 12.9816 21.6619 13.6178 21.2329C13.9037 21.0398 14.1948 20.8621 14.4861 20.6999C15.9204 19.9019 17.3576 19.4806 18.1869 19.4806C19.0163 19.4806 20.4534 19.9019 21.8873 20.6999C22.456 21.0149 22.9975 21.3784 23.5062 21.7865C23.8731 22.0806 24.2177 22.4025 24.5372 22.7494C25.5478 23.8548 26.2533 25.2223 26.2533 26.8232Z" fill="white"/>
<path d="M26.2534 27.0076H10.1201C10.0721 27.0076 10.0261 26.9881 9.99219 26.9535C9.95825 26.9189 9.93918 26.8719 9.93915 26.8229C9.93915 24.1837 11.7474 22.3381 13.2643 21.2546C15.0641 19.9689 17.103 19.2961 18.1866 19.2961C19.2702 19.2961 21.3093 19.9689 23.1092 21.2546C24.6262 22.3381 26.4341 24.1837 26.4341 26.8229C26.4341 26.8719 26.415 26.9188 26.3812 26.9534C26.3473 26.9881 26.3013 27.0075 26.2534 27.0076V27.0076ZM10.3042 26.6382H26.0693C25.9863 24.2556 24.3121 22.5647 22.9018 21.5573C21.1817 20.3286 19.1887 19.6657 18.1867 19.6657C17.1848 19.6657 15.1918 20.3291 13.4717 21.5573C12.0614 22.5653 10.3874 24.2556 10.3042 26.6382V26.6382Z" fill="#371A45"/>
<path d="M25.4487 27.2319C25.4442 27.2319 25.4397 27.2319 25.4351 27.2312C25.4018 27.2277 25.371 27.2113 25.349 27.1855C25.327 27.1596 25.3155 27.1262 25.3168 27.092C25.3177 27.0682 25.3182 27.0442 25.3187 27.0199V27.0126C25.3192 26.9787 25.3323 26.9463 25.3552 26.9218C25.3782 26.8973 25.4094 26.8825 25.4426 26.8805C25.4757 26.8784 25.5084 26.8892 25.5341 26.9108C25.5598 26.9323 25.5765 26.9629 25.581 26.9965C25.5834 27.0139 25.5845 27.0315 25.5844 27.0491C25.5844 27.0726 25.5824 27.0961 25.5785 27.1192C25.5734 27.1506 25.5576 27.1792 25.5338 27.1998C25.5101 27.2205 25.4799 27.2318 25.4487 27.2319V27.2319Z" fill="#371A45"/>
<path d="M25.5552 25.3249C25.5552 25.3313 25.5552 25.3372 25.5552 25.3435C25.5345 25.6611 24.9725 25.9534 24.0395 26.187C22.7072 25.8524 20.6172 25.6368 18.2672 25.6368C15.9172 25.6368 13.8268 25.8524 12.494 26.187C11.5613 25.9534 10.9994 25.6609 10.9787 25.3435C10.9787 25.3372 10.9787 25.3313 10.9787 25.3249C10.9787 24.5453 14.2421 23.9127 18.2676 23.9127C22.2932 23.9127 25.5552 24.5453 25.5552 25.3249Z" fill="white"/>
<path d="M25.5551 25.3249C25.5551 25.3312 25.5551 25.3371 25.5551 25.3435C25.5464 25.4784 25.4397 25.6088 25.2481 25.7324C25.1966 25.7656 25.1385 25.7984 25.0751 25.8308C24.8196 25.9599 24.4685 26.0797 24.0396 26.1875C22.707 25.8527 20.6171 25.6373 18.2671 25.6373C15.9171 25.6373 13.8269 25.8527 12.4939 26.1875C12.065 26.0797 11.714 25.9599 11.4585 25.8308C11.395 25.7984 11.3369 25.7656 11.2854 25.7324C11.0942 25.6092 10.9875 25.4788 10.9789 25.3435C10.9781 25.3373 10.9778 25.3311 10.978 25.3249C10.978 24.5451 14.2414 23.9126 18.2671 23.9126C22.2928 23.9126 25.5551 24.5451 25.5551 25.3249Z" fill="white"/>
<path d="M25.0747 25.8305C24.8192 25.9595 24.4681 26.0794 24.0391 26.1871C22.7065 25.8523 20.6167 25.6369 18.2667 25.6369C15.9167 25.6369 13.8265 25.8523 12.4934 26.1871C12.0646 26.0794 11.7135 25.9595 11.458 25.8305C12.5071 25.3001 15.1599 24.9232 18.2667 24.9232C21.3735 24.9232 24.0256 25.3001 25.0747 25.8305Z" fill="#371A45"/>
<path d="M12.494 26.3719C12.4795 26.3719 12.465 26.3701 12.4509 26.3665C11.3649 26.0947 10.8244 25.764 10.7977 25.3561C10.7969 25.3471 10.7968 25.3367 10.7968 25.3253C10.7968 24.1536 15.264 23.7283 18.2667 23.7283C21.2694 23.7283 25.7363 24.1536 25.7363 25.3253C25.7363 25.3368 25.7363 25.3482 25.735 25.3597C25.7087 25.7638 25.168 26.0944 24.0821 26.3662C24.0538 26.3733 24.0242 26.3733 23.9958 26.3662C22.6168 26.0198 20.5287 25.8213 18.2667 25.8213C16.0047 25.8213 13.9162 26.0198 12.5367 26.3662C12.5228 26.3698 12.5085 26.3717 12.494 26.3719V26.3719ZM18.2667 24.0979C16.3309 24.0979 14.5128 24.2438 13.1465 24.5084C11.5742 24.8132 11.1588 25.1761 11.1588 25.3255C11.1588 25.3263 11.1588 25.3309 11.1588 25.3316C11.161 25.3659 11.2175 25.6712 12.4937 25.9973C13.9003 25.651 16.0001 25.4526 18.2666 25.4526C20.5331 25.4526 22.6325 25.651 24.0385 25.9973C25.3153 25.6711 25.372 25.3658 25.374 25.3317V25.3255C25.374 25.1761 24.9586 24.8132 23.3865 24.5084C22.0206 24.2433 20.2023 24.0979 18.2667 24.0979Z" fill="#371A45"/>
<path d="M23.9627 26.1681C23.9668 26.1691 23.9705 26.1715 23.9732 26.1749C23.9758 26.1784 23.9773 26.1826 23.9773 26.1869C23.9773 26.1913 23.9758 26.1955 23.9732 26.1989C23.9705 26.2024 23.9668 26.2048 23.9627 26.2058C22.6276 26.5296 20.5723 26.7372 18.2667 26.7372C15.9611 26.7372 13.9028 26.5293 12.5673 26.2052C12.5632 26.2042 12.5597 26.2019 12.5571 26.1986C12.5546 26.1952 12.5532 26.1912 12.5532 26.1869C12.5532 26.1827 12.5546 26.1786 12.5571 26.1753C12.5597 26.172 12.5632 26.1697 12.5673 26.1687C13.9028 25.8445 15.9597 25.6367 18.2667 25.6367C20.5736 25.6367 22.6276 25.8444 23.9627 26.1681Z" fill="#371A45"/>
<path d="M18.2668 26.922C16.0241 26.922 13.9314 26.7263 12.5254 26.385C12.4818 26.3744 12.443 26.3491 12.4152 26.3132C12.3874 26.2772 12.3723 26.2328 12.3723 26.1871C12.3723 26.1413 12.3874 26.0969 12.4152 26.061C12.443 26.025 12.4818 25.9997 12.5254 25.9891C13.9316 25.6478 16.0242 25.4521 18.2669 25.4521C20.5095 25.4521 22.5994 25.6476 24.0048 25.9886C24.0486 25.9992 24.0875 26.0246 24.1154 26.0606C24.1433 26.0966 24.1584 26.1412 24.1584 26.1871C24.1584 26.233 24.1433 26.2775 24.1154 26.3135C24.0875 26.3496 24.0486 26.3749 24.0048 26.3856C22.5992 26.7265 20.5077 26.922 18.2668 26.922ZM13.3882 26.187C14.7105 26.4215 16.4362 26.553 18.2668 26.553C20.0973 26.553 21.8223 26.4219 23.1447 26.187C21.8224 25.9526 20.0967 25.821 18.2668 25.821C16.4368 25.821 14.7108 25.9526 13.3882 26.187V26.187Z" fill="#371A45"/>
<path d="M22.0606 28.9119C21.9279 28.8433 21.8962 28.626 21.9923 28.4253C23.4814 25.3197 24.9703 22.2141 26.4592 19.1084C26.5555 18.9078 26.8169 18.8308 27.0365 18.9449C27.2561 19.0593 27.3487 19.3203 27.2462 19.5177L22.4864 28.6823C22.3839 28.8798 22.1934 28.981 22.0606 28.9119Z" fill="#F9B653"/>
<g opacity="0.3">
<path d="M27.2878 19.3439C27.2883 19.4044 27.274 19.464 27.2462 19.5175C25.6599 22.5727 24.0734 25.6277 22.4867 28.6824C22.384 28.8797 22.1933 28.9811 22.0609 28.9121C21.9284 28.8431 21.8964 28.6261 21.9928 28.4254L23.8916 24.4648C23.9017 24.4731 23.9125 24.4803 23.9241 24.4863C24.0572 24.5549 24.2476 24.4538 24.3499 24.2567C25.2635 22.4974 26.1773 20.7379 27.0913 18.9783C27.2165 19.0663 27.2878 19.2063 27.2878 19.3439Z" fill="#371A45"/>
</g>
<path d="M22.1517 29.0683C22.0993 29.0686 22.0476 29.0561 22.0008 29.0318V29.0318C21.8007 28.9276 21.7449 28.6353 21.8741 28.3661L26.3408 19.0492C26.371 18.9873 26.4131 18.9322 26.4645 18.8872C26.5159 18.8422 26.5756 18.8082 26.6401 18.7872C26.7912 18.7379 26.9551 18.7515 27.0964 18.825C27.2377 18.8985 27.3449 19.0259 27.3946 19.1796C27.4158 19.2452 27.4239 19.3145 27.4185 19.3834C27.413 19.4523 27.3941 19.5194 27.3628 19.5807L22.603 28.7453C22.4982 28.9475 22.3195 29.0683 22.1517 29.0683ZM22.1206 28.792C22.1721 28.8186 22.2945 28.7645 22.37 28.6193L27.1298 19.4547C27.1447 19.4248 27.1535 19.3922 27.1558 19.3588C27.1581 19.3254 27.1538 19.2919 27.1432 19.2602C27.1147 19.1754 27.055 19.1051 26.9767 19.0644C26.8984 19.0237 26.8076 19.0156 26.7236 19.042C26.6924 19.0519 26.6634 19.068 26.6384 19.0895C26.6134 19.1109 26.5928 19.1373 26.5779 19.167L22.111 28.4845C22.04 28.6323 22.0693 28.7653 22.1206 28.792Z" fill="#371A45"/>
<path d="M21.9881 28.6913C21.8679 28.6015 21.8704 28.3825 21.9968 28.1995L27.8611 19.7286C27.9875 19.5456 28.2576 19.5126 28.4566 19.6611C28.6555 19.8098 28.7061 20.0825 28.5741 20.2607L22.4445 28.5339C22.3123 28.712 22.1086 28.781 21.9881 28.6913Z" fill="#F9B653"/>
<g opacity="0.3">
<path d="M28.6476 20.0319C28.6483 20.1143 28.6225 20.1946 28.5742 20.2606C26.5309 23.0183 24.4877 25.7761 22.4447 28.5339C22.3123 28.7117 22.1085 28.7808 21.988 28.6912C21.8676 28.6015 21.8706 28.3823 21.9968 28.1993C22.6663 27.2325 23.3359 26.2655 24.0054 25.2982C24.019 25.3237 24.0382 25.3457 24.0614 25.3625C24.1829 25.4509 24.3864 25.3793 24.5158 25.1997C25.8439 23.3656 27.1721 21.5313 28.5004 19.6969C28.5461 19.7395 28.5827 19.7912 28.6081 19.8488C28.6334 19.9064 28.6469 19.9687 28.6476 20.0319V20.0319Z" fill="#371A45"/>
</g>
<path d="M22.113 28.8653C22.0403 28.8663 21.9692 28.8433 21.9104 28.7999V28.7999C21.7289 28.6646 21.7199 28.367 21.8891 28.1222L27.7535 19.6508C27.793 19.5947 27.843 19.5471 27.9008 19.5111C27.9585 19.475 28.0227 19.4511 28.0897 19.4407C28.2465 19.4168 28.4062 19.457 28.5342 19.5525C28.6621 19.6481 28.748 19.7912 28.7732 19.951C28.7839 20.0192 28.7811 20.089 28.7649 20.1561C28.7488 20.2232 28.7196 20.2864 28.6791 20.3418L22.5495 28.615C22.4303 28.776 22.2641 28.8653 22.113 28.8653ZM22.0659 28.5827C22.1188 28.622 22.2494 28.5738 22.3392 28.4527L28.4688 20.1794C28.4881 20.1524 28.5018 20.1217 28.5093 20.0892C28.5168 20.0567 28.5178 20.023 28.5123 19.9901C28.4974 19.9017 28.4495 19.8226 28.3785 19.7697C28.3076 19.7167 28.2192 19.694 28.1322 19.7064C28.0998 19.7111 28.0686 19.7223 28.0405 19.7394C28.0124 19.7566 27.9879 19.7793 27.9686 19.8062L22.1041 28.2775C22.0111 28.4119 22.0193 28.548 22.0657 28.5826L22.0659 28.5827Z" fill="#371A45"/>
<path d="M25.5547 25.3435V26.8631C25.5547 26.9137 25.5542 26.9645 25.5532 27.0153C25.5526 27.0428 25.5522 27.0703 25.551 27.0972C25.4299 31.0979 22.2152 34.3031 18.2662 34.3031C14.3173 34.3031 11.103 31.0974 10.9825 27.0972C10.9813 27.0703 10.9809 27.0428 10.9803 27.0153C10.9793 26.9646 10.9788 26.9138 10.9788 26.8631V25.3435C10.9995 25.6611 11.5615 25.9535 12.494 26.187C13.8268 26.5216 15.9174 26.7373 18.2673 26.7373C20.6171 26.7373 22.7072 26.5216 24.0396 26.187C24.9716 25.9535 25.534 25.6611 25.5547 25.3435Z" fill="#F92323"/>
<g opacity="0.4">
<path d="M25.5546 25.4438V26.0937C25.534 26.3935 24.9719 26.6694 24.0391 26.8901C22.7065 27.2058 20.6166 27.4094 18.2667 27.4094C15.9167 27.4094 13.8265 27.2058 12.4934 26.8901C11.5606 26.6694 10.999 26.3935 10.9784 26.0937V25.4438C10.999 25.7435 11.5611 26.0195 12.4934 26.2402C13.8269 26.5558 15.9168 26.7595 18.2667 26.7595C20.6165 26.7595 22.7065 26.5558 24.0391 26.2402C24.9716 26.0195 25.534 25.7435 25.5546 25.4438Z" fill="white"/>
</g>
<g opacity="0.3">
<path d="M25.4385 26.5834V27.4632C25.4385 27.5103 25.4385 27.557 25.4369 27.6033C25.4369 27.6289 25.436 27.6542 25.4348 27.6789C25.4105 28.4401 25.2542 29.1908 24.9733 29.8963C23.9486 32.4728 21.3426 34.3036 18.2907 34.3036C15.2621 34.3036 12.674 32.5014 11.6328 29.9572C11.3364 29.2344 11.1716 28.4624 11.1466 27.6793C11.1458 27.6546 11.1453 27.6293 11.1446 27.6037C11.1437 27.5574 11.1432 27.5107 11.1433 27.4635V26.4617C11.1638 26.4428 11.1844 26.4251 11.2058 26.4083C11.3691 26.2784 11.5561 26.1976 11.7593 26.1803C12.5014 26.1173 13.0123 26.804 13.0988 27.8652C13.1582 28.5945 13.0016 29.3108 12.6568 29.7067C13.9654 31.308 16.0022 32.3363 18.2907 32.3363C20.547 32.3363 22.5591 31.3362 23.869 29.7737C23.4834 29.3935 23.3058 28.6386 23.3684 27.8689C23.4549 26.8077 23.9658 26.1209 24.708 26.184C24.9545 26.205 25.1768 26.319 25.3618 26.5012C25.3883 26.5275 25.4144 26.5548 25.4385 26.5834Z" fill="#371A45"/>
</g>
<g opacity="0.3">
<path d="M25.4385 26.0664V26.5834C25.4139 26.5548 25.3883 26.5275 25.3619 26.5018C25.378 26.3953 25.392 26.2884 25.4031 26.1804C25.4232 26.1456 25.4353 26.1067 25.4385 26.0664Z" fill="#343C47"/>
<path d="M25.4385 26.6051C25.4355 26.6051 25.4325 26.6044 25.4298 26.6031C25.4271 26.6019 25.4246 26.6 25.4226 26.5977C25.3975 26.5688 25.3722 26.5418 25.3472 26.5176C25.3451 26.5156 25.3435 26.5131 25.3423 26.5104C25.3412 26.5077 25.3406 26.5048 25.3406 26.5018C25.358 26.3848 25.3714 26.28 25.382 26.1779C25.3822 26.1749 25.3831 26.1719 25.3846 26.1693C25.403 26.1374 25.4142 26.1017 25.4173 26.0649C25.4178 26.0594 25.4204 26.0542 25.4245 26.0506C25.4286 26.0469 25.4339 26.045 25.4393 26.0452C25.4448 26.0454 25.4499 26.0477 25.4538 26.0517C25.4576 26.0556 25.4598 26.0609 25.4599 26.0665V26.5835C25.46 26.5879 25.4586 26.5922 25.4562 26.5958C25.4537 26.5994 25.4502 26.6022 25.4462 26.6037C25.4437 26.6047 25.4411 26.6051 25.4385 26.6051V26.6051ZM25.3846 26.4938C25.3956 26.5046 25.4064 26.5158 25.4173 26.5274V26.2482C25.4083 26.3268 25.3975 26.4084 25.3846 26.4938V26.4938Z" fill="#371A45"/>
</g>
<path d="M18.2662 34.4377C16.3247 34.4377 14.4889 33.6773 13.0968 32.2967C11.7073 30.9191 10.9099 29.0739 10.85 27.1009C10.8491 27.0767 10.8487 27.0508 10.8481 27.025V27.0176C10.847 26.9659 10.8465 26.9143 10.8465 26.8626V25.3435C10.8463 25.3084 10.8594 25.2745 10.8832 25.2492C10.907 25.2239 10.9396 25.209 10.974 25.2079C11.0083 25.2067 11.0418 25.2193 11.0672 25.243C11.0926 25.2666 11.1079 25.2995 11.1099 25.3345C11.1218 25.515 11.4996 25.7995 12.525 26.0564C13.9082 26.4035 16.0015 26.6028 18.2667 26.6028C20.532 26.6028 22.6248 26.4036 24.0075 26.0565C25.0333 25.7995 25.4114 25.5152 25.4231 25.3347C25.4255 25.2999 25.441 25.2675 25.4664 25.2442C25.4917 25.2209 25.5249 25.2085 25.559 25.2097C25.5931 25.2109 25.6254 25.2254 25.6492 25.2504C25.673 25.2754 25.6864 25.3088 25.6865 25.3436V26.8632C25.6865 26.9149 25.686 26.9666 25.685 27.0182C25.685 27.0463 25.684 27.0747 25.6828 27.1026C25.6231 29.0745 24.8251 30.9197 23.436 32.2972C22.0437 33.6778 20.2078 34.4377 18.2662 34.4377ZM11.1101 25.7734V26.8631C11.1101 26.9128 11.1106 26.9626 11.1116 27.0125V27.0199C11.1116 27.0442 11.1125 27.0682 11.1134 27.092C11.2336 31.0609 14.3754 34.1689 18.2659 34.1689C22.1565 34.1689 25.2989 31.0608 25.4191 27.0931C25.4201 27.0659 25.4206 27.0394 25.4212 27.0131C25.4221 26.963 25.4226 26.9131 25.4226 26.8633V25.7735C25.1649 25.9761 24.716 26.1562 24.0702 26.318C22.6679 26.6702 20.5525 26.8721 18.2665 26.8721C15.9805 26.8721 13.8647 26.6702 12.4619 26.318C11.8164 26.156 11.3681 25.976 11.1101 25.7734Z" fill="#371A45"/>
<path d="M18.2662 34.4883C16.3119 34.4883 14.4638 33.7229 13.0626 32.3332C11.6649 30.9465 10.8612 29.0891 10.801 27.103C10.8001 27.0789 10.7995 27.0527 10.799 27.0265V27.019C10.798 26.9671 10.7975 26.9151 10.7974 26.8631V25.3435C10.7971 25.2954 10.8152 25.249 10.8479 25.2143C10.8806 25.1797 10.9252 25.1593 10.9723 25.1577C11.0194 25.1561 11.0653 25.1733 11.1002 25.2057C11.1351 25.2381 11.1562 25.2831 11.159 25.3312C11.1613 25.3655 11.2191 25.6776 12.5368 26.0077C13.9164 26.3539 16.0049 26.5526 18.2669 26.5526C20.5289 26.5526 22.6169 26.3539 23.996 26.0077C25.3143 25.6774 25.372 25.3657 25.3743 25.3313C25.3771 25.2832 25.3982 25.2383 25.4331 25.2059C25.468 25.1735 25.5138 25.1563 25.5609 25.1579C25.608 25.1594 25.6527 25.1797 25.6854 25.2144C25.718 25.2491 25.7362 25.2954 25.7359 25.3435V26.8631C25.7359 26.9151 25.7354 26.9671 25.7343 27.0192C25.7343 27.0475 25.7332 27.0763 25.7321 27.1045C25.672 29.089 24.8692 30.9465 23.4704 32.3332C22.0688 33.7229 20.2206 34.4883 18.2662 34.4883ZM11.1594 25.8686V26.8637C11.1594 26.9131 11.1598 26.9627 11.1608 27.0124V27.02C11.1608 27.0437 11.1618 27.0675 11.1626 27.0909C11.2821 31.033 14.4023 34.1198 18.2661 34.1198C22.1299 34.1198 25.2508 31.033 25.3706 27.0925C25.3716 27.0652 25.3722 27.0391 25.3726 27.0124C25.3736 26.9625 25.3741 26.913 25.3741 26.8637V25.8686C25.101 26.0539 24.6721 26.219 24.0825 26.3666C22.6765 26.7197 20.5568 26.9222 18.2667 26.9222C15.9765 26.9222 13.8568 26.7197 12.4502 26.3666C11.8611 26.2188 11.4323 26.0538 11.1594 25.8686Z" fill="#371A45"/>
<path d="M12.5974 27.3527C12.6922 28.5144 12.2862 29.6459 11.4735 29.715C10.6609 29.784 9.92534 28.8982 9.83066 27.7362C9.73597 26.5742 10.3178 25.5767 11.1305 25.5077C11.9433 25.4386 12.5027 26.191 12.5974 27.3527Z" fill="white"/>
<path d="M11.3847 29.7448C10.5958 29.7448 9.89711 28.8698 9.80466 27.7387C9.75849 27.1715 9.86965 26.6248 10.1184 26.1993C10.3682 25.7709 10.7269 25.5163 11.1283 25.4823C11.9391 25.4131 12.5246 26.1468 12.6228 27.3507C12.6712 27.9446 12.5918 28.5141 12.3987 28.9543C12.1911 29.4285 11.8631 29.708 11.4753 29.7409C11.4454 29.7434 11.4152 29.7448 11.3847 29.7448ZM11.2308 25.5297C11.1983 25.5297 11.1655 25.5312 11.1321 25.534C10.7475 25.5667 10.4029 25.8123 10.1617 26.2259C9.91884 26.6422 9.81015 27.1779 9.85553 27.7345C9.94899 28.88 10.6742 29.7569 11.471 29.6891C11.9432 29.649 12.2105 29.2558 12.3521 28.9331C12.5415 28.5007 12.6193 27.9404 12.5716 27.3546C12.4805 26.2328 11.9588 25.5297 11.2313 25.5297H11.2308Z" fill="#371A45"/>
<g opacity="0.35">
<path d="M12.5975 28.0107C12.5022 26.8496 11.9427 26.0984 11.1305 26.1675C10.4558 26.2247 9.94015 26.9224 9.83862 27.8224C9.83537 27.7943 9.83269 27.7652 9.83044 27.7367C9.73564 26.5751 10.3178 25.577 11.1303 25.5079C11.9429 25.4388 12.5027 26.1911 12.5975 27.3531C12.6155 27.5719 12.6155 27.7919 12.5975 28.0107Z" fill="white"/>
</g>
<g opacity="0.3">
<path d="M11.4734 29.7149C10.6608 29.7835 9.9252 28.8982 9.8304 27.7361C9.80429 27.4298 9.82731 27.1211 9.89853 26.8223C10.1183 27.7602 10.7668 28.4219 11.4734 28.3621C12.0449 28.3133 12.4156 27.7388 12.5523 26.9982C12.5721 27.1111 12.5875 27.2295 12.5971 27.3528C12.6923 28.5146 12.286 29.6458 11.4734 29.7149Z" fill="#371A45"/>
</g>
<path d="M11.386 29.9034C10.5167 29.9034 9.74928 28.9655 9.65023 27.752C9.60126 27.152 9.72004 26.5718 9.98472 26.1181C10.2609 25.6445 10.6626 25.3625 11.1155 25.3239C12.0186 25.2468 12.6718 26.0374 12.7778 27.337C12.8284 27.9572 12.7442 28.5543 12.541 29.0184C12.3091 29.5479 11.9353 29.8604 11.4885 29.8984C11.4543 29.902 11.42 29.9034 11.386 29.9034ZM11.2291 25.6886C11.2017 25.6886 11.174 25.6898 11.1459 25.6922C10.8127 25.7205 10.5111 25.9388 10.2962 26.307C10.0699 26.6952 9.96869 27.1974 10.0114 27.7212C10.0948 28.7424 10.7022 29.534 11.3843 29.5341C11.4091 29.5341 11.434 29.533 11.4591 29.5309C11.8554 29.4973 12.0866 29.152 12.211 28.8683C12.3871 28.4659 12.4624 27.9189 12.4175 27.3681C12.3329 26.3359 11.8703 25.6886 11.2287 25.6886H11.2291Z" fill="#371A45"/>
<path d="M23.8921 27.3527C23.7972 28.5144 24.2032 29.6459 25.0159 29.715C25.8285 29.784 26.5641 28.8982 26.6589 27.7362C26.7537 26.5742 26.1717 25.5767 25.359 25.5077C24.5464 25.4386 23.9867 26.191 23.8921 27.3527Z" fill="white"/>
<path d="M25.1044 29.7448C25.0743 29.7448 25.0442 29.7435 25.0139 29.7409C24.1482 29.6674 23.7767 28.4545 23.8667 27.3504C23.9649 26.1468 24.5516 25.4133 25.3612 25.4819C26.1866 25.552 26.7801 26.5643 26.6844 27.7384C26.5921 28.8698 25.8933 29.7448 25.1044 29.7448ZM23.9175 27.355C23.8295 28.4337 24.1854 29.6184 25.0181 29.6891C25.8163 29.757 26.5401 28.88 26.6336 27.7345C26.727 26.589 26.1544 25.6018 25.357 25.534C24.5793 25.4678 24.0131 26.1825 23.9175 27.355V27.355Z" fill="#371A45"/>
<g opacity="0.35">
<path d="M23.8919 28.0107C23.9872 26.8496 24.5467 26.0984 25.359 26.1675C26.0336 26.2247 26.5494 26.9224 26.6509 27.8224C26.654 27.7943 26.6567 27.7652 26.659 27.7367C26.7538 26.5751 26.1716 25.577 25.3591 25.5079C24.5465 25.4388 23.9867 26.1911 23.8919 27.3531C23.8739 27.5719 23.8739 27.7919 23.8919 28.0107V28.0107Z" fill="white"/>
</g>
<g opacity="0.3">
<path d="M25.0159 29.7149C25.8286 29.7835 26.5642 28.8982 26.6589 27.7361C26.685 27.4298 26.662 27.1211 26.5908 26.8223C26.371 27.7602 25.7225 28.4219 25.0159 28.3621C24.4444 28.3133 24.0737 27.7388 23.937 26.9982C23.9172 27.1111 23.9018 27.2295 23.8922 27.3528C23.7971 28.5146 24.2032 29.6458 25.0159 29.7149Z" fill="#371A45"/>
</g>
<path d="M25.1035 29.9035C25.0699 29.9035 25.0352 29.9021 25.0009 29.8991C24.0346 29.817 23.6154 28.5181 23.7122 27.337C23.8183 26.037 24.4716 25.2464 25.3746 25.324C26.2854 25.4014 26.9426 26.4906 26.8398 27.752C26.7402 28.9658 25.9728 29.9035 25.1035 29.9035ZM24.0726 27.3682C23.9898 28.3842 24.3256 29.471 25.0311 29.5309C25.7433 29.5913 26.3924 28.7797 26.4788 27.7212C26.5652 26.6628 26.0561 25.7527 25.3443 25.6923C24.657 25.6338 24.1604 26.292 24.0726 27.3682V27.3682Z" fill="#371A45"/>
<path d="M25.4537 18.1981C25.435 18.197 25.4168 18.1922 25.4 18.1839C25.3831 18.1757 25.3681 18.1641 25.3557 18.1498C25.3432 18.1356 25.3337 18.119 25.3275 18.101C25.3214 18.083 25.3188 18.064 25.3199 18.045L25.5533 13.8715C25.5554 13.8331 25.5725 13.7971 25.6006 13.7715C25.6287 13.7459 25.6657 13.7328 25.7033 13.7349V13.7349C25.8989 13.7463 26.0903 13.7969 26.2668 13.8838C26.4432 13.9708 26.6011 14.0923 26.7315 14.2415C26.8619 14.3907 26.9622 14.5647 27.0267 14.7534C27.0912 14.9422 27.1187 15.1421 27.1075 15.3417L27.028 16.765C27.0168 16.9646 26.9672 17.16 26.8821 17.3401C26.7969 17.5201 26.6778 17.6813 26.5316 17.8144C26.3855 17.9475 26.215 18.0499 26.03 18.1157C25.8451 18.1815 25.6492 18.2095 25.4537 18.1981V18.1981Z" fill="white"/>
<path d="M25.5396 18.2339C25.5105 18.2339 25.4813 18.233 25.4519 18.2313C25.4057 18.2286 25.3624 18.2073 25.3315 18.172C25.3007 18.1367 25.2848 18.0904 25.2874 18.0432L25.5209 13.8697C25.5222 13.8464 25.528 13.8235 25.538 13.8024C25.5479 13.7813 25.5619 13.7624 25.579 13.7468C25.5961 13.7312 25.6161 13.7192 25.6377 13.7115C25.6594 13.7038 25.6824 13.7005 25.7053 13.7018C26.5442 13.7508 27.1879 14.4873 27.1396 15.3437L27.0601 16.7668C27.0142 17.5932 26.3406 18.2339 25.5396 18.2339ZM25.4556 18.1652C26.2573 18.211 26.9496 17.583 26.9955 16.7632L27.0751 15.3401C27.121 14.5202 26.5048 13.8151 25.7016 13.7683C25.6872 13.7672 25.6727 13.7692 25.6591 13.774C25.6455 13.7789 25.633 13.7865 25.6223 13.7964C25.6115 13.8062 25.6027 13.818 25.5965 13.8313C25.5902 13.8445 25.5866 13.8589 25.5858 13.8736L25.3523 18.0473C25.3507 18.0769 25.3607 18.106 25.38 18.1282C25.3994 18.1503 25.4266 18.1637 25.4556 18.1655V18.1652Z" fill="#371A45"/>
<g opacity="0.35">
<path d="M27.0653 16.0976L27.028 16.7651C27.0053 17.1683 26.8267 17.5457 26.5314 17.8145C26.2362 18.0833 25.8484 18.2214 25.4535 18.1985C25.4158 18.1962 25.3805 18.1788 25.3554 18.15C25.3304 18.1212 25.3175 18.0835 25.3197 18.045L25.3813 16.9355C25.391 16.9617 25.408 16.9844 25.43 17.001C25.4521 17.0176 25.4783 17.0273 25.5057 17.0291L25.6027 17.0344C25.9116 17.0525 26.2184 16.9721 26.4805 16.8042C26.7425 16.6363 26.9469 16.3894 27.0653 16.0976V16.0976Z" fill="#371A45"/>
</g>
<path d="M25.5397 18.3855C25.5078 18.3855 25.4756 18.3844 25.4433 18.3826C25.3578 18.3776 25.2776 18.3381 25.2206 18.2728C25.1635 18.2075 25.1342 18.1218 25.1391 18.0344L25.3726 13.861C25.375 13.8177 25.3857 13.7754 25.4042 13.7364C25.4226 13.6974 25.4484 13.6624 25.4801 13.6336C25.5117 13.6048 25.5487 13.5826 25.5887 13.5683C25.6288 13.554 25.6712 13.548 25.7136 13.5504C26.6344 13.6042 27.3407 14.4125 27.2881 15.3522L27.2086 16.7755C27.1579 17.6823 26.4187 18.3855 25.5397 18.3855ZM25.5027 18.0154C25.8435 18.0252 26.1747 17.8989 26.4258 17.6634C26.6768 17.428 26.8281 17.1019 26.8474 16.7544L26.9271 15.3312C26.946 14.9839 26.8319 14.6428 26.6089 14.3798C26.3859 14.1169 26.0714 13.9527 25.732 13.9222L25.5027 18.0154Z" fill="#371A45"/>
<path d="M12.2072 12.9485C12.2448 12.9507 12.2801 12.9681 12.3052 12.9968C12.3302 13.0255 12.3431 13.0632 12.341 13.1016L12.1076 17.2751C12.1054 17.3135 12.0884 17.3494 12.0603 17.3751C12.0321 17.4007 11.9952 17.4138 11.9575 17.4116V17.4116C11.5627 17.3886 11.1929 17.2065 10.9296 16.9053C10.6663 16.6041 10.5309 16.2085 10.5533 15.8054L10.633 14.3822C10.6441 14.1825 10.6936 13.9871 10.7787 13.8069C10.8639 13.6268 10.9829 13.4656 11.1291 13.3324C11.2753 13.1993 11.4457 13.0969 11.6307 13.031C11.8157 12.9651 12.0116 12.9371 12.2072 12.9485V12.9485Z" fill="white"/>
<path d="M11.966 17.445H11.9559C11.5523 17.4214 11.1745 17.2352 10.9055 16.9273C10.6365 16.6194 10.4984 16.215 10.5215 15.8031L10.6011 14.38C10.6242 13.9682 10.8066 13.5825 11.1083 13.308C11.4099 13.0334 11.8061 12.8924 12.2096 12.916V12.916C12.2558 12.9187 12.2991 12.9401 12.3299 12.9753C12.3607 13.0106 12.3766 13.0569 12.3741 13.1041L12.1406 17.2776C12.1381 17.323 12.1187 17.3657 12.0863 17.397C12.0539 17.4282 12.0111 17.4457 11.9665 17.4457L11.966 17.445ZM12.1204 12.9791C11.7481 12.9796 11.3901 13.1253 11.1197 13.3864C10.8492 13.6475 10.6867 14.0042 10.6655 14.3836L10.5859 15.8067C10.575 16.0019 10.6019 16.1975 10.665 16.3821C10.7281 16.5668 10.8263 16.737 10.9538 16.8829C11.0814 17.0289 11.2358 17.1478 11.4084 17.2328C11.581 17.3178 11.7682 17.3673 11.9595 17.3784C11.9739 17.3794 11.9883 17.3774 12.002 17.3726C12.0156 17.3677 12.0281 17.3602 12.0388 17.3503C12.0495 17.3405 12.0583 17.3287 12.0646 17.3154C12.0708 17.3022 12.0744 17.2878 12.0752 17.2731L12.3087 13.0997C12.3103 13.07 12.3003 13.0409 12.281 13.0188C12.2616 12.9967 12.2344 12.9832 12.2054 12.9815C12.1771 12.9802 12.1486 12.9791 12.1204 12.9791Z" fill="#371A45"/>
<g opacity="0.35">
<path d="M12.1728 16.1173L12.1079 17.2752C12.1057 17.3136 12.0886 17.3496 12.0604 17.3752C12.0322 17.4008 11.9952 17.4139 11.9575 17.4117C11.762 17.4004 11.5706 17.3498 11.3942 17.2629C11.2179 17.1761 11.06 17.0546 10.9296 16.9054C10.7993 16.7563 10.6989 16.5824 10.6344 16.3936C10.5699 16.2049 10.5424 16.0051 10.5536 15.8055L10.5872 15.2058C10.6904 15.4789 10.8685 15.7158 11.1003 15.8883C11.332 16.0607 11.6075 16.1613 11.8938 16.178L12.043 16.1867C12.0688 16.1881 12.0944 16.1823 12.1172 16.1701C12.14 16.1579 12.1592 16.1397 12.1728 16.1173V16.1173Z" fill="#371A45"/>
</g>
<path d="M11.9661 17.5966C11.9599 17.5966 11.9536 17.5966 11.9473 17.5966C11.728 17.5838 11.5132 17.527 11.3154 17.4295C11.1175 17.332 10.9404 17.1956 10.7942 17.0282C10.648 16.8608 10.5355 16.6657 10.4632 16.4539C10.3909 16.2421 10.3602 16.0179 10.3728 15.794L10.4525 14.3707C10.465 14.1469 10.5206 13.9278 10.6161 13.726C10.7116 13.5241 10.8451 13.3434 11.009 13.1942C11.1729 13.045 11.364 12.9302 11.5714 12.8564C11.7787 12.7826 11.9983 12.7512 12.2176 12.764V12.764C12.3031 12.7691 12.3832 12.8086 12.4402 12.8738C12.4972 12.939 12.5266 13.0247 12.5218 13.112L12.2883 17.2856C12.2836 17.3696 12.2476 17.4486 12.1878 17.5064C12.1279 17.5642 12.0486 17.5965 11.9661 17.5966ZM12.1206 13.1307C11.7862 13.1312 11.4647 13.2621 11.2218 13.4966C10.9789 13.7311 10.8329 14.0514 10.8137 14.3921L10.7347 15.8154C10.7154 16.1626 10.8293 16.5039 11.0523 16.7669C11.2753 17.03 11.5898 17.194 11.9293 17.2244L12.1579 13.1311C12.1457 13.1308 12.1331 13.1307 12.1206 13.1307V13.1307Z" fill="#371A45"/>
<g opacity="0.35">
<path d="M24.0655 21.2097C23.89 21.4126 23.7033 21.605 23.5063 21.7862C22.0466 23.1292 20.0425 23.8386 17.9403 23.5624C16.2707 23.3455 14.7349 22.5178 13.6178 21.2328C13.4739 21.0676 13.3379 20.896 13.2097 20.7181C13.2854 20.706 13.3619 20.7 13.4386 20.7001H14.4861C15.9205 19.902 17.3576 19.4808 18.187 19.4808C19.0163 19.4808 20.4535 19.902 21.8874 20.7001H22.942C23.0176 20.7001 23.0931 20.706 23.1678 20.7177C23.5153 20.7719 23.8275 20.9502 24.0655 21.2097Z" fill="#371A45"/>
</g>
<path d="M18.8314 22.6969C22.6858 22.6969 25.8104 19.5076 25.8104 15.5734C25.8104 11.6392 22.6858 8.44989 18.8314 8.44989C14.977 8.44989 11.8524 11.6392 11.8524 15.5734C11.8524 19.5076 14.977 22.6969 18.8314 22.6969Z" fill="white"/>
<path d="M18.8457 22.7311C18.5416 22.731 18.2378 22.7111 17.9362 22.6714C14.1016 22.1676 11.3837 18.5734 11.8777 14.6595C12.1164 12.7636 13.0645 11.0762 14.5471 9.90813C16.0296 8.7401 17.869 8.23123 19.7265 8.4752C21.584 8.71917 23.2373 9.68761 24.3816 11.2003C25.526 12.7129 26.0245 14.591 25.7854 16.487L25.7531 16.4827L25.7854 16.487C25.5464 18.383 24.5981 20.0705 23.1156 21.2385C21.8759 22.2153 20.3865 22.7311 18.8457 22.7311ZM18.8172 8.48183C17.2905 8.48183 15.8151 8.99288 14.5869 9.96063C13.118 11.1179 12.1786 12.7897 11.9423 14.6681C11.4534 18.5456 14.1461 22.1064 17.945 22.606C19.7852 22.8479 21.6076 22.3437 23.0765 21.1864C24.5454 20.0292 25.4846 18.3574 25.7211 16.479C25.9575 14.6005 25.4639 12.74 24.3301 11.2409C23.1963 9.74171 21.5584 8.78288 19.7182 8.54154C19.4194 8.50203 19.1185 8.48209 18.8172 8.48183V8.48183Z" fill="#371A45"/>
<g opacity="0.35">
<path d="M25.8101 15.4966C25.8137 15.8265 25.7947 16.1562 25.7533 16.4834C25.2602 20.3852 21.7629 23.1411 17.9401 22.6392C14.1174 22.1373 11.4174 18.5662 11.9091 14.6643C11.9233 14.5521 11.94 14.4401 11.9592 14.3303C11.9921 17.8303 14.5494 20.8586 18.047 21.3188C21.7599 21.8054 25.1655 19.22 25.8101 15.4966Z" fill="#371A45"/>
</g>
<path d="M18.8461 22.8827C18.5355 22.8827 18.2252 22.8623 17.9172 22.8218C14.0016 22.3071 11.226 18.6371 11.7299 14.6403C11.9742 12.7042 12.9423 10.9809 14.4563 9.7882C15.9703 8.59546 17.8488 8.07596 19.7454 8.32496C21.6421 8.57396 23.3301 9.56242 24.4992 11.1077C25.6683 12.6529 26.1768 14.5703 25.9327 16.5064C25.6887 18.4424 24.7203 20.1657 23.2064 21.3584C21.9406 22.356 20.4195 22.8827 18.8461 22.8827ZM18.8174 8.6339C17.3234 8.6339 15.8797 9.13396 14.6775 10.0811C13.2401 11.2135 12.3208 12.8491 12.089 14.688C11.6105 18.4827 14.2457 21.9672 17.9634 22.4558C19.7645 22.6925 21.5478 22.199 22.9852 21.0665C24.4225 19.9341 25.3419 18.2986 25.5737 16.4597C25.8056 14.6215 25.3223 12.8012 24.2127 11.3339C23.1031 9.86667 21.5008 8.92853 19.6994 8.69177C19.4069 8.65326 19.1123 8.63393 18.8174 8.6339V8.6339Z" fill="#371A45"/>
<path d="M25.7081 16.6613C25.5543 18.0464 24.9709 19.2814 24.0993 20.2581C23.4459 20.9901 20.9691 22.1176 18.0993 21.8121C15.4383 21.5288 13.1799 19.8022 12.7042 18.9392C12.0691 17.7881 11.7714 16.4511 11.9253 15.0661C12.3325 11.4007 15.5868 10.2384 19.3927 10.6788C23.1987 11.1193 26.1153 12.996 25.7081 16.6613Z" fill="#371A45"/>
<path d="M19.0942 22.0496C18.7555 22.0496 18.417 22.0317 18.0801 21.9958C15.3235 21.7023 13.0462 19.9361 12.5461 19.0299C11.8689 17.8024 11.5919 16.4245 11.7451 15.0453C11.9449 13.2473 12.8052 11.9428 14.3022 11.1678C15.608 10.492 17.3754 10.2594 19.4128 10.495C21.4503 10.7307 23.1219 11.3616 24.2461 12.3187C25.5348 13.416 26.0873 14.8841 25.8877 16.6819C25.7344 18.0612 25.1621 19.3407 24.2329 20.3822C23.662 21.0227 21.6596 22.0496 19.0942 22.0496ZM17.9165 10.7752C16.5655 10.7752 15.3904 11.0191 14.4662 11.4976C13.0847 12.2127 12.2903 13.4203 12.1052 15.0869C11.9605 16.3884 12.2223 17.6892 12.8619 18.8486C13.3162 19.6721 15.5216 21.3519 18.118 21.628C20.9959 21.9343 23.3827 20.7865 23.9655 20.1334C24.8433 19.1497 25.3837 17.9418 25.5283 16.6402C25.7134 14.9737 25.2042 13.6151 24.0145 12.6026C22.9446 11.6918 21.3394 11.09 19.3724 10.8623C18.8891 10.8054 18.403 10.7763 17.9165 10.7752V10.7752Z" fill="#371A45"/>
<g opacity="0.7">
<path d="M24.3807 16.1673C24.5772 15.5005 24.3528 14.8422 23.8795 14.6969C23.4062 14.5516 22.8633 14.9743 22.6668 15.6411C22.4703 16.3078 22.6947 16.9661 23.168 17.1114C23.6413 17.2567 24.1843 16.834 24.3807 16.1673Z" fill="white"/>
</g>
<g opacity="0.7">
<path d="M22.6004 18.4658C22.7311 18.1754 22.6392 17.8472 22.3951 17.7327C22.151 17.6182 21.8471 17.7608 21.7164 18.0512C21.5857 18.3416 21.6776 18.6698 21.9217 18.7843C22.1658 18.8988 22.4697 18.7562 22.6004 18.4658Z" fill="white"/>
</g>
<g opacity="0.35">
<path d="M24.7477 13.0868C25.4985 14.0049 25.8714 15.189 25.7081 16.6612C25.5542 18.0466 24.9706 19.2813 24.0996 20.2582C23.4459 20.9902 20.969 22.1175 18.0991 21.8124C17.0857 21.7047 16.1312 21.3875 15.3109 20.9879C18.8464 21.2865 21.865 19.9004 22.6753 18.9922C23.7816 17.7526 24.5219 16.1849 24.7169 14.4274C24.7679 13.9825 24.7783 13.5336 24.7477 13.0868V13.0868Z" fill="#111A28"/>
</g>
<path d="M25.4726 13.5636C25.4488 13.5636 25.4252 13.5589 25.4033 13.5496C25.3813 13.5403 25.3614 13.5267 25.3446 13.5095C25.3405 13.5053 25.3357 13.5 25.3321 13.4954C25.3251 13.4868 25.3189 13.4775 25.3135 13.4676C24.3316 11.6615 22.1818 10.442 19.4156 10.1217C16.6338 9.79952 14.27 10.528 12.93 12.1202C12.9136 12.1395 12.8935 12.1553 12.8709 12.1665C12.8484 12.1777 12.8238 12.1841 12.7988 12.1853C12.7737 12.1865 12.7487 12.1825 12.7252 12.1735C12.7017 12.1645 12.6803 12.1507 12.6622 12.133C12.6293 12.0987 12.6106 12.0528 12.61 12.0049C12.6094 11.9569 12.6269 11.9105 12.6588 11.8754C14.0787 10.1916 16.5557 9.41852 19.4564 9.7548C22.3363 10.0882 24.584 11.3729 25.6255 13.2802C25.6428 13.3081 25.6525 13.3403 25.6535 13.3734C25.6545 13.4064 25.6467 13.4392 25.6311 13.4681C25.6155 13.4971 25.5925 13.5213 25.5647 13.5381C25.5368 13.5549 25.505 13.5638 25.4726 13.5638V13.5636Z" fill="#371A45"/>
<g opacity="0.7">
<path d="M13.2308 17.4258C13.2308 17.4258 12.5203 13.6812 14.5896 12.4612C16.6588 11.2412 19.4049 11.565 19.3208 11.7374C19.3208 11.7374 16.1964 12.1368 14.734 14.4529C13.6064 16.2389 13.2308 17.4258 13.2308 17.4258Z" fill="white"/>
</g>
<path d="M16.6904 7.06378C16.5542 7.62749 16.4473 8.19816 16.3702 8.7734C16.3624 8.83369 16.372 8.89498 16.3978 8.94981C16.4235 9.00465 16.4643 9.05065 16.5152 9.08222C17.264 9.54729 20.4089 11.3338 24.216 11.1171C24.216 11.1171 24.8547 9.26775 25.0407 8.62276" fill="white"/>
<path d="M23.5679 11.3204C20.0575 11.3204 17.2377 9.74734 16.4211 9.24029C16.3401 9.19001 16.2753 9.1168 16.2344 9.02958C16.1935 8.94236 16.1784 8.84489 16.1908 8.74904C16.2685 8.16646 16.3767 7.58855 16.5151 7.0178C16.5204 6.9937 16.5304 6.97094 16.5445 6.95086C16.5586 6.93078 16.5765 6.91379 16.5971 6.90089C16.6178 6.888 16.6407 6.87946 16.6647 6.87578C16.6886 6.8721 16.713 6.87336 16.7365 6.87948C16.7599 6.8856 16.7819 6.89646 16.8012 6.91141C16.8204 6.92637 16.8366 6.94511 16.8486 6.96654C16.8606 6.98797 16.8683 7.01164 16.8713 7.03616C16.8742 7.06069 16.8723 7.08556 16.8656 7.1093C16.7315 7.66601 16.626 8.22948 16.5496 8.79742C16.5464 8.82218 16.5504 8.84736 16.5609 8.86988C16.5715 8.89239 16.5883 8.91129 16.6092 8.92427C17.4445 9.44297 20.4311 11.1068 24.0854 10.9387C24.2284 10.5226 24.7112 9.11002 24.8671 8.57038C24.8807 8.52336 24.912 8.48377 24.9542 8.46031C24.9963 8.43685 25.0459 8.43146 25.092 8.44531C25.138 8.45915 25.1768 8.49111 25.1998 8.53415C25.2228 8.57719 25.2281 8.62779 25.2145 8.67481C25.0289 9.31704 24.4128 11.1027 24.3867 11.1784C24.3749 11.2128 24.3534 11.2429 24.3249 11.2649C24.2964 11.2868 24.2621 11.2996 24.2265 11.3017C24.0045 11.3145 23.7849 11.3207 23.5679 11.3204Z" fill="#371A45"/>
<g opacity="0.3">
<path d="M25.1341 8.29945C24.9985 8.7684 24.5171 9.93632 24.2644 10.5372C23.8913 10.488 23.5369 10.3417 23.2353 10.1123C22.9336 9.88293 22.6949 9.57814 22.5421 9.22729C21.5682 9.89537 20.299 10.0381 19.1876 9.48715C18.5304 9.16216 17.997 8.62446 17.6703 7.9578C17.3075 8.02294 16.9344 7.99431 16.5852 7.87453C16.6474 7.23092 16.7837 6.74023 16.7837 6.74023L25.1341 8.29945Z" fill="#371A45"/>
</g>
<path d="M26.7748 8.62462C26.2212 9.78911 24.8704 10.2868 23.7592 9.73627C23.2939 9.50611 22.9235 9.11514 22.7138 8.63274C21.7398 9.30106 20.4706 9.44346 19.3593 8.89295C18.7021 8.56779 18.1687 8.02999 17.842 7.36325C17.3869 7.44547 16.9179 7.37903 16.5019 7.17338C15.3595 6.60732 14.91 5.14636 15.4972 3.91005C16.0844 2.67373 17.4886 2.12985 18.6311 2.69592C18.7289 2.74389 18.8228 2.79961 18.9121 2.86256C19.9028 2.1167 21.2337 1.9361 22.3941 2.51108C23.5053 3.06158 24.1809 4.1674 24.2679 5.36128C24.7694 5.23121 25.2998 5.28652 25.7652 5.51741C26.8765 6.06791 27.3293 7.45842 26.7748 8.62462Z" fill="white"/>
<g opacity="0.3">
<path d="M26.7748 8.62487C26.221 9.78947 24.8698 10.2868 23.7593 9.73651C23.2941 9.50608 22.9237 9.1151 22.7137 8.63276C21.7399 9.30084 20.4706 9.44359 19.3592 8.89274C18.7021 8.56767 18.1686 8.02994 17.842 7.36327C17.3869 7.4455 16.9181 7.3791 16.5022 7.17351C15.7331 6.7924 15.2781 6.00617 15.2416 5.15679C15.2241 4.72601 15.3119 4.29754 15.4971 3.91006C16.0858 2.67351 17.4884 2.12999 18.6312 2.69582C18.7286 2.74394 18.8223 2.7997 18.9113 2.86258C19.9021 2.11683 21.2332 1.93611 22.3934 2.51087C23.0774 2.84977 23.6264 3.41842 23.9483 4.12143C23.969 4.16513 23.9881 4.2087 24.0053 4.25228C24.1516 4.60497 24.2402 4.97978 24.2675 5.36176C24.73 5.24197 25.2181 5.27947 25.6578 5.46858C26.0975 5.65769 26.4647 5.98808 26.7037 6.40958C27.0728 7.05731 27.126 7.88609 26.7748 8.62487Z" fill="#371A45"/>
</g>
<path d="M26.6054 7.68456C26.0516 8.84882 25.1094 9.28586 24.1706 8.48018C23.5959 7.98698 23.7907 7.39655 23.8001 6.95048C22.9696 8.11863 21.0312 8.78054 19.3816 7.81667C18.4877 7.29441 17.9087 6.32128 17.8165 5.68362C17.2181 6.8759 16.5701 6.56982 16.1457 6.34701C15.497 6.00697 15.4579 5.54453 15.2423 5.15587C15.2247 4.72545 15.3123 4.29731 15.4972 3.91006C16.0859 2.67351 17.4885 2.12999 18.6313 2.69582C18.7287 2.74394 18.8224 2.7997 18.9114 2.86258C19.9023 2.11683 21.2333 1.93611 22.3935 2.51087C23.0775 2.84977 23.6265 3.41842 23.9485 4.12143C23.9538 4.16844 23.9584 4.21522 23.9619 4.26269C23.9761 4.25903 23.9908 4.25537 24.0054 4.25228C24.1517 4.60497 24.2403 4.97978 24.2676 5.36176C24.7301 5.24197 25.2182 5.27947 25.6579 5.46858C26.0976 5.65769 26.4648 5.98808 26.7039 6.40958C26.845 6.90678 26.7771 7.32301 26.6054 7.68456Z" fill="white"/>
<path d="M24.7731 10.0264C24.3637 10.0258 23.9613 9.91714 23.6052 9.71091C23.2491 9.50468 22.9513 9.20792 22.7407 8.84947C21.7334 9.50749 20.4667 9.61696 19.3868 9.12764C18.7233 8.82862 18.168 8.32511 17.799 7.68773C17.3495 7.75921 16.8894 7.69702 16.4736 7.50861C15.8663 7.23342 15.4067 6.7194 15.1798 6.06161C14.9542 5.4077 14.9858 4.68906 15.2688 4.03882C15.8549 2.69121 17.3488 2.05561 18.5988 2.62201C18.6698 2.65415 18.7361 2.68801 18.7995 2.72495C19.8398 1.941 21.1898 1.77915 22.3533 2.30621C23.4338 2.79575 24.2035 3.82745 24.3997 5.03117C24.8792 4.93514 25.376 4.9918 25.8229 5.19347C26.414 5.46135 26.865 5.95409 27.0921 6.58089C27.3191 7.20768 27.296 7.89041 27.0281 8.50805C26.7601 9.1257 26.2783 9.6006 25.6722 9.84823C25.3864 9.96558 25.0812 10.0261 24.7731 10.0264V10.0264ZM22.804 8.39734C22.8188 8.39733 22.8335 8.39921 22.8479 8.40294C22.8734 8.40945 22.8973 8.4216 22.9178 8.43854C22.9383 8.45547 22.9549 8.47678 22.9665 8.50096C23.1786 8.94326 23.5218 9.28171 23.9589 9.4797C24.4599 9.70674 25.0205 9.71566 25.537 9.50475C26.0553 9.29315 26.4671 8.88585 26.6967 8.35776C26.9267 7.8291 26.9465 7.24371 26.7527 6.70922C26.5597 6.17667 26.1772 5.75828 25.6761 5.53112C25.2418 5.33535 24.7539 5.30162 24.2978 5.43584C24.2724 5.44329 24.2458 5.44498 24.2197 5.44081C24.1936 5.43663 24.1688 5.42669 24.1469 5.41167C24.1249 5.39665 24.1065 5.37693 24.0929 5.35388C24.0792 5.33083 24.0707 5.30501 24.0678 5.27823C23.9446 4.11751 23.231 3.10801 22.2064 2.64386C21.1285 2.15535 19.8707 2.32726 18.9239 3.09234C18.8942 3.11624 18.858 3.13008 18.8202 3.13193C18.7825 3.13377 18.7451 3.12353 18.7134 3.10263C18.63 3.04803 18.5426 3.00019 18.4519 2.95954C17.3841 2.47561 16.1047 3.02714 15.5996 4.18854C15.3544 4.75254 15.3265 5.37419 15.5211 5.93854C15.7146 6.49899 16.105 6.93695 16.6204 7.17039C17.0083 7.34592 17.4407 7.3918 17.8557 7.30147C17.8936 7.29338 17.9332 7.29798 17.9684 7.31458C18.0036 7.33118 18.0327 7.35891 18.0513 7.39366C18.3868 8.01954 18.8993 8.50222 19.5335 8.78908C20.5576 9.253 21.7702 9.11609 22.6978 8.43153C22.7288 8.40905 22.766 8.39708 22.804 8.39734V8.39734Z" fill="#371A45"/>
<path d="M23.5612 7.78348C23.5293 7.86195 23.4947 7.93286 23.4571 8.00526C23.4196 8.07766 23.3797 8.14732 23.338 8.21675C23.2534 8.35577 23.1618 8.49019 23.0635 8.61948L23.0626 8.62062C23.0329 8.65968 22.9892 8.68508 22.9411 8.69125C22.893 8.69742 22.8445 8.68384 22.8062 8.65351C22.768 8.62317 22.7431 8.57856 22.7371 8.52949C22.731 8.48043 22.7443 8.43092 22.774 8.39186C22.7838 8.37904 22.7951 8.36751 22.8077 8.35755C22.9264 8.26516 23.0404 8.1665 23.1491 8.062C23.2033 8.00904 23.2566 7.95448 23.3078 7.89809C23.359 7.8417 23.4094 7.78245 23.4534 7.72435L23.4556 7.72138C23.4647 7.70911 23.4778 7.70066 23.4926 7.69761C23.5073 7.69455 23.5227 7.69711 23.5357 7.7048C23.5488 7.71249 23.5586 7.72478 23.5634 7.73935C23.5682 7.75393 23.5676 7.76979 23.5617 7.78394L23.5612 7.78348Z" fill="#371A45"/>
<path d="M17.7539 6.52936C17.7668 6.60142 17.7854 6.67805 17.8057 6.7516C17.826 6.82514 17.8493 6.8988 17.874 6.97121C17.9241 7.11523 17.9816 7.25649 18.0462 7.39441C18.0665 7.43893 18.0687 7.48981 18.0524 7.53601C18.0362 7.58221 18.0027 7.62 17.9593 7.64117C17.9159 7.66234 17.8661 7.6652 17.8207 7.6491C17.7752 7.63301 17.7378 7.59928 17.7166 7.55522C17.71 7.54102 17.7052 7.52604 17.7022 7.51062V7.5081C17.6721 7.34737 17.6504 7.18515 17.637 7.0221C17.6309 6.94078 17.6265 6.85957 17.6252 6.77836C17.6238 6.69715 17.6252 6.61732 17.6312 6.53256C17.6324 6.5173 17.639 6.503 17.6498 6.49232C17.6605 6.48164 17.6747 6.47531 17.6897 6.47451C17.7047 6.47371 17.7194 6.4785 17.7312 6.48798C17.743 6.49746 17.751 6.51099 17.7537 6.52604L17.7539 6.52936Z" fill="#371A45"/>
<path d="M13.8081 22.8099C13.8144 23.0662 13.7969 23.3158 13.7767 23.5626C13.7655 23.6858 13.7563 23.8087 13.7374 23.9286C13.7214 24.0466 13.6981 24.1635 13.6677 24.2785L13.6663 24.2839C13.6544 24.3267 13.628 24.3639 13.5916 24.3886C13.5553 24.4132 13.5115 24.4238 13.4682 24.4184C13.4249 24.413 13.3849 24.392 13.3555 24.3591C13.326 24.3262 13.3091 24.2837 13.3077 24.2391C13.3031 24.1038 13.325 23.9787 13.3513 23.8547C13.3776 23.7307 13.4171 23.6111 13.4575 23.4921C13.498 23.3732 13.5434 23.2558 13.592 23.1397C13.6411 23.0224 13.6964 22.9079 13.7575 22.7966C13.7604 22.7915 13.765 22.7874 13.7703 22.7851C13.7757 22.7828 13.7817 22.7824 13.7874 22.7839C13.793 22.7853 13.798 22.7887 13.8017 22.7933C13.8053 22.798 13.8074 22.8037 13.8076 22.8096L13.8081 22.8099Z" fill="#371A45"/>
<path d="M22.7974 22.7968C22.8585 22.9081 22.9137 23.0226 22.9629 23.14C23.0118 23.2561 23.0571 23.3734 23.0973 23.4924C23.1376 23.6113 23.1777 23.7311 23.2036 23.8549C23.2295 23.9788 23.2518 24.1041 23.2473 24.2394C23.2458 24.2838 23.2288 24.3263 23.1994 24.3591C23.17 24.3919 23.1301 24.4129 23.0869 24.4183C23.0436 24.4237 22.9999 24.4132 22.9636 24.3887C22.9272 24.3642 22.9007 24.3272 22.8887 24.2844L22.8872 24.2787C22.8569 24.1637 22.8336 24.0468 22.8175 23.9288C22.7987 23.8091 22.7895 23.6861 22.7783 23.5628C22.7579 23.316 22.7406 23.0664 22.7468 22.8101C22.7469 22.8041 22.7489 22.7983 22.7526 22.7936C22.7562 22.7889 22.7613 22.7855 22.767 22.784C22.7727 22.7825 22.7787 22.783 22.7841 22.7854C22.7895 22.7877 22.794 22.7918 22.7969 22.7971L22.7974 22.7968Z" fill="#371A45"/>
<path d="M20.4175 25.6553L20.2382 25.6545C20.2208 25.6544 20.2038 25.66 20.1897 25.6705C20.1756 25.6809 20.1651 25.6957 20.1597 25.7126L20.105 25.8864L20.1058 25.7033C20.1059 25.6856 20.1004 25.6682 20.0902 25.6538C20.08 25.6394 20.0655 25.6287 20.0489 25.6233L19.8787 25.5675L20.058 25.5683C20.0754 25.5683 20.0924 25.5627 20.1065 25.5522C20.1206 25.5418 20.1311 25.527 20.1364 25.51L20.1911 25.3363L20.1903 25.5193C20.1903 25.5371 20.1958 25.5544 20.2061 25.5688C20.2163 25.5832 20.2308 25.5939 20.2474 25.5994L20.4175 25.6553Z" fill="#FFF2BD"/>
<path d="M18.9135 26.2717L18.7476 26.2978C18.7314 26.3003 18.7165 26.3081 18.7049 26.3199C18.6934 26.3317 18.6858 26.347 18.6833 26.3635L18.6576 26.5327L18.6321 26.3635C18.6296 26.347 18.622 26.3317 18.6104 26.3199C18.5988 26.3081 18.5838 26.3003 18.5677 26.2978L18.4019 26.2717L18.5677 26.2455C18.5838 26.243 18.5988 26.2353 18.6104 26.2234C18.622 26.2116 18.6296 26.1964 18.6321 26.1798L18.6576 26.0106L18.6833 26.1798C18.6858 26.1964 18.6933 26.2116 18.7049 26.2234C18.7165 26.2352 18.7314 26.243 18.7476 26.2455L18.9135 26.2717Z" fill="#FFF2BD"/>
<path d="M16.0946 25.9966L15.9361 26.0524C15.9206 26.0579 15.9072 26.0682 15.8979 26.082C15.8886 26.0957 15.8838 26.1121 15.8842 26.1288L15.8886 26.3004L15.8338 26.1386C15.8284 26.1228 15.8183 26.1091 15.8048 26.0996C15.7914 26.09 15.7753 26.0852 15.7589 26.0856L15.5908 26.0901L15.7494 26.0341C15.7649 26.0287 15.7782 26.0183 15.7876 26.0046C15.7969 25.9909 15.8017 25.9744 15.8013 25.9577L15.7969 25.7862L15.8517 25.948C15.857 25.9638 15.8671 25.9774 15.8806 25.987C15.894 25.9965 15.9101 26.0014 15.9264 26.001L16.0946 25.9966Z" fill="#FFF2BD"/>
<path d="M17.5345 25.428L17.4139 25.4623C17.4022 25.4656 17.3917 25.4727 17.3842 25.4825C17.3766 25.4923 17.3723 25.5043 17.3719 25.5167L17.3673 25.6443L17.3337 25.5212C17.3304 25.5092 17.3235 25.4986 17.3139 25.4909C17.3044 25.4832 17.2926 25.4788 17.2805 25.4783L17.1554 25.4737L17.276 25.4394C17.2877 25.4361 17.2981 25.429 17.3057 25.4193C17.3132 25.4095 17.3176 25.3975 17.318 25.3851L17.3226 25.2574L17.3562 25.3805C17.3595 25.3925 17.3664 25.4031 17.3759 25.4108C17.3855 25.4186 17.3972 25.423 17.4094 25.4234L17.5345 25.428Z" fill="#FFF2BD"/>
<path d="M22.3602 26.059L22.222 26.0637C22.2086 26.0642 22.1956 26.069 22.185 26.0775C22.1744 26.086 22.1667 26.0977 22.1631 26.1109L22.1258 26.2468L22.1212 26.1059C22.1208 26.0922 22.116 26.0789 22.1077 26.068C22.0994 26.0572 22.0879 26.0494 22.0749 26.0456L21.9418 26.0077L22.08 26.0029C22.0934 26.0024 22.1064 25.9976 22.117 25.9891C22.1276 25.9806 22.1353 25.9689 22.1389 25.9556L22.1762 25.8199L22.1808 25.9608C22.1812 25.9745 22.1859 25.9878 22.1943 25.9986C22.2026 26.0094 22.2141 26.0173 22.2271 26.0209L22.3602 26.059Z" fill="#FFF2BD"/>
<path d="M14.2559 25.8593L14.1355 25.8936C14.1238 25.897 14.1134 25.9041 14.1058 25.9139C14.0983 25.9238 14.094 25.9358 14.0936 25.9482L14.0897 26.0758L14.0561 25.9529C14.0528 25.9409 14.0458 25.9303 14.0362 25.9226C14.0266 25.915 14.0148 25.9106 14.0026 25.9102L13.8776 25.9062L13.9979 25.8718C14.0097 25.8685 14.0201 25.8614 14.0276 25.8516C14.0352 25.8418 14.0394 25.8297 14.0398 25.8173L14.0437 25.6896L14.0774 25.8126C14.0807 25.8246 14.0877 25.8352 14.0973 25.8429C14.1069 25.8505 14.1187 25.8549 14.1309 25.8553L14.2559 25.8593Z" fill="#FFF2BD"/>
</g>
<defs>
<filter id="filter0_d_3733_8412" x="0" y="0" width="36" height="36" filterUnits="userSpaceOnUse" color-interpolation-filters="sRGB">
<feFlood flood-opacity="0" result="BackgroundImageFix"/>
<feColorMatrix in="SourceAlpha" type="matrix" values="0 0 0 0 0 0 0 0 0 0 0 0 0 0 0 0 0 0 127 0" result="hardAlpha"/>
<feOffset dy="4"/>
<feGaussianBlur stdDeviation="2"/>
<feComposite in2="hardAlpha" operator="out"/>
<feColorMatrix type="matrix" values="0 0 0 0 0 0 0 0 0 0 0 0 0 0 0 0 0 0 0.25 0"/>
<feBlend mode="normal" in2="BackgroundImageFix" result="effect1_dropShadow_3733_8412"/>
<feBlend mode="normal" in="SourceGraphic" in2="effect1_dropShadow_3733_8412" result="shape"/>
</filter>
</defs>
</svg>
