<svg width="18" height="20" viewBox="0 0 18 20" fill="none" xmlns="http://www.w3.org/2000/svg">
<path fill-rule="evenodd" clip-rule="evenodd" d="M17.5999 6.11729C17.4184 5.51884 17.1614 4.94497 16.8347 4.40901C16.0394 3.06303 14.8958 1.94661 13.5195 1.1725C12.1433 0.398395 10.583 -0.00599354 8.99627 0.000173386C7.81293 -0.00712346 6.63989 0.21596 5.54517 0.656487C4.45046 1.09701 3.45584 1.74622 2.61901 2.56645C1.78218 3.38669 1.11978 4.36163 0.67023 5.43475C0.22068 6.50786 -0.00707639 7.65779 0.000167519 8.81785C0.000167519 12.5983 2.44125 15.6213 4.75506 17.5108L4.80354 17.5494C5.93514 18.4699 7.17055 19.2604 8.48563 19.9053C8.81649 20.0316 9.18362 20.0316 9.51449 19.9053C11.4419 18.8967 17.9999 15.1177 17.9999 8.81785C18.003 7.90327 17.8682 6.99325 17.5999 6.11729ZM13.8557 13.8565C13.857 14.1137 13.7803 14.3654 13.6354 14.5798C13.4904 14.7941 13.2837 14.9613 13.0415 15.0602C12.7993 15.1591 12.5327 15.1851 12.2754 15.1351C12.0181 15.085 11.7817 14.9611 11.5965 14.779L8.99627 12.2433L6.39608 14.779C6.25347 14.9172 6.08084 15.022 5.8911 15.0855C5.70136 15.1491 5.49942 15.1698 5.30037 15.1461C5.10132 15.1224 4.91031 15.0549 4.74163 14.9486C4.57294 14.8423 4.43094 14.7001 4.32624 14.5324C4.19938 14.3291 4.13372 14.0948 4.13683 13.8565V7.02342C4.13763 6.44926 4.37065 5.89883 4.78479 5.49284C5.19893 5.08684 5.7604 4.85841 6.34608 4.85762H11.6495C12.2348 4.8588 12.7957 5.08746 13.2093 5.49345C13.6228 5.89945 13.8553 6.44965 13.8557 7.02342V13.8565Z" fill="#786EAD"/>
<path fill-rule="evenodd" clip-rule="evenodd" d="M17.9908 8.8178C17.9908 15.1176 11.4373 18.8966 9.50539 19.9053C9.17722 20.0292 8.81378 20.0292 8.48562 19.9053C7.17054 19.2603 5.93513 18.4699 4.80353 17.5493C4.48534 16.6073 4.32367 15.6212 4.32471 14.6289C4.32471 14.5962 4.32471 14.5635 4.32471 14.5324C4.42941 14.7 4.57141 14.8423 4.7401 14.9485C4.90879 15.0548 5.0998 15.1223 5.29885 15.146C5.4979 15.1698 5.69984 15.1491 5.88958 15.0855C6.07932 15.0219 6.25195 14.9171 6.39456 14.7789L8.99626 12.2433L11.5964 14.7789C11.782 14.9603 12.0183 15.0836 12.2753 15.1332C12.5324 15.1829 12.7987 15.1567 13.0406 15.0579C13.2824 14.9592 13.489 14.7923 13.6341 14.5784C13.7792 14.3646 13.8563 14.1133 13.8557 13.8565V7.02336C13.8554 6.70782 13.7849 6.39615 13.6491 6.11008C13.5132 5.82401 13.3154 5.57045 13.0693 5.36708C13.3102 5.34925 13.5542 5.34034 13.7996 5.34034C15.1076 5.33888 16.4016 5.60342 17.5999 6.11723C17.8651 6.99365 17.9968 7.90365 17.9908 8.8178Z" fill="#50429B"/>
</svg>
