<svg width="24" height="24" viewBox="0 0 24 24" fill="none" xmlns="http://www.w3.org/2000/svg">
<g clip-path="url(#clip0_3917_11236)">
<path d="M24 0H0V24H24V0Z" fill="#FF7F32"/>
<path d="M11.1958 6.1875C12.2375 5.05417 13.8583 4.47917 15.3792 4.75417C16.675 4.98333 17.8208 5.85417 18.4458 7.00417C18.6458 7.35833 18.7708 7.74583 18.9083 8.125C20.1167 11.4417 21.3208 14.7583 22.5292 18.075C22.6042 18.2583 22.6625 18.4583 22.6167 18.6542C22.5542 19.0208 22.2083 19.3125 21.8333 19.3125C20.875 19.3083 19.9167 19.3 18.9583 19.2917C18.475 19.2917 18.0125 18.9708 17.8417 18.5167C17.5333 17.7 17.225 16.8792 16.9208 16.0625C15.2333 16.0625 13.5458 16.0667 11.8625 16.0625C11.3958 16.8583 10.9375 17.6625 10.475 18.4625C10.2042 18.9667 9.65833 19.3083 9.08333 19.3125C7.67917 19.3125 6.275 19.3125 4.87083 19.3125C4.60417 19.3167 4.34583 19.1708 4.2 18.9458C4.0375 18.7042 4.02083 18.3708 4.1625 18.1125C4.54167 17.45 4.925 16.7917 5.30417 16.1333C4.84167 16.1292 4.375 16.1333 3.9125 16.1333C3.525 16.1333 3.175 15.7958 3.16667 15.4083C3.125 14.9875 3.4875 14.5875 3.90833 14.5875C4.66667 14.5875 5.425 14.5875 6.18333 14.5875C6.52917 14.0417 6.83333 13.475 7.1625 12.9208C5.48333 12.9208 3.8 12.9208 2.12083 12.9208C1.85 12.9208 1.59167 12.7625 1.4625 12.525C1.30417 12.25 1.34167 11.8792 1.55417 11.6417C1.70417 11.4667 1.92917 11.3667 2.15833 11.375C4.46667 11.375 6.77083 11.375 9.07917 11.375C9.26667 11.375 9.4625 11.3875 9.6375 11.3167C9.94167 11.2042 10.1583 10.9 10.1708 10.575C10.1875 10.2375 9.97083 9.90417 9.65833 9.77917C9.45 9.6875 9.21667 9.725 8.99583 9.71667C8.275 9.7125 7.55 9.71667 6.82917 9.71667C6.6125 9.7125 6.4 9.60833 6.25833 9.44167C6.05833 9.20833 6.02083 8.85417 6.16667 8.58333C6.29583 8.325 6.57917 8.15833 6.86667 8.16667C7.88333 8.16667 8.89583 8.16667 9.9125 8.16667C10.3292 7.49583 10.65 6.7625 11.1958 6.1875ZM13.4333 11.3917C13.1375 11.4708 12.9042 11.7292 12.8583 12.0333C12.8042 12.3333 12.9458 12.6583 13.2 12.825C13.4583 13 13.8167 13.0042 14.0792 12.8333C14.3042 12.6917 14.4458 12.425 14.4417 12.1583C14.4458 11.875 14.275 11.5958 14.025 11.4625C13.8458 11.3583 13.6292 11.3458 13.4333 11.3917ZM16.4333 11.3833C16.1458 11.45 15.9083 11.6958 15.85 11.9833C15.7917 12.2333 15.8625 12.5083 16.0417 12.6958C16.2208 12.8917 16.4958 12.9833 16.7542 12.9417C17.0708 12.8958 17.3417 12.6375 17.4042 12.325C17.4625 12.0625 17.3792 11.775 17.1875 11.5917C16.9917 11.3958 16.6958 11.3167 16.4333 11.3833Z" fill="white"/>
</g>
<defs>
<clipPath id="clip0_3917_11236">
<rect width="24" height="24" rx="4" fill="white"/>
</clipPath>
</defs>
</svg>
