<svg width="22" height="22" viewBox="0 0 22 22" fill="none" xmlns="http://www.w3.org/2000/svg">
<path d="M7.32324 3.20786C7.20331 3.33065 7.13617 3.49547 7.13617 3.66711C7.13617 3.83875 7.20331 4.00358 7.32324 4.12636L14.0236 11L7.32324 17.8722C7.20331 17.995 7.13617 18.1598 7.13617 18.3315C7.13617 18.5031 7.20331 18.668 7.32324 18.7907C7.38154 18.8506 7.45124 18.8982 7.52822 18.9307C7.60521 18.9632 7.68793 18.9799 7.77149 18.9799C7.85506 18.9799 7.93777 18.9632 8.01476 18.9307C8.09175 18.8982 8.16145 18.8506 8.21974 18.7907L15.345 11.4799C15.4701 11.3515 15.5402 11.1793 15.5402 11C15.5402 10.8207 15.4701 10.6485 15.345 10.5201L8.21974 3.20924C8.16145 3.14936 8.09175 3.10178 8.01476 3.06928C7.93777 3.03679 7.85506 3.02005 7.77149 3.02005C7.68793 3.02005 7.60521 3.03679 7.52822 3.06928C7.45124 3.10178 7.38154 3.14936 7.32324 3.20924V3.20786Z" fill="#C1C1C1"/>
</svg>
