<svg width="27" height="28" viewBox="0 0 27 28" fill="none" xmlns="http://www.w3.org/2000/svg">
<path d="M19.9234 22.8593C17.8723 23.9979 15.8216 25.138 13.7713 26.2796C13.7306 26.3059 13.6917 26.3347 13.6547 26.3659H13.504C13.4082 26.2671 13.4122 26.1413 13.4122 26.0182C13.4096 24.213 13.4096 22.4073 13.4122 20.6009C13.4039 20.486 13.422 20.3707 13.4652 20.2636C13.565 20.1095 13.7579 20.1161 13.8932 20.0232C14.0332 19.9501 14.1062 19.8177 14.1853 19.6939C15.2778 17.9742 16.3905 16.269 17.4817 14.5467C17.5923 14.3721 17.7108 14.2035 17.822 14.0296C17.8649 13.9638 17.9024 13.8801 18.0096 13.8979L18.0766 13.9387C18.2775 14.7107 18.4303 15.4925 18.5971 16.271C19.0425 18.3516 19.5027 20.429 19.9408 22.5116C19.9623 22.6249 20.0239 22.746 19.9234 22.8593Z" fill="#50429B"/>
<path d="M13.5563 20.2136C13.5314 20.3149 13.5146 20.4179 13.506 20.5218C13.5033 22.4701 13.5033 24.4179 13.506 26.3653H13.356C12.072 25.6447 10.7879 24.9239 9.50352 24.203C8.69967 23.7538 7.89582 23.3092 7.09197 22.862C7.00019 22.7704 7.03704 22.6644 7.05914 22.5603C7.65332 19.7683 8.26894 16.9803 8.86781 14.1884C8.89358 14.085 8.93586 13.9863 8.99307 13.8959H9.00513C9.13911 13.8821 9.16858 13.9921 9.21882 14.0705C10.0647 15.3877 10.9096 16.705 11.7536 18.0223C12.1 18.563 12.451 19.1005 12.7939 19.6439C12.9587 19.9073 13.151 20.1181 13.4839 20.1563C13.4997 20.1595 13.5145 20.1664 13.5271 20.1763C13.5397 20.1863 13.5497 20.1991 13.5563 20.2136V20.2136Z" fill="#817CBA"/>
<path d="M13.5563 20.2136C13.2113 20.2274 12.9768 20.0641 12.798 19.7848C11.5703 17.8651 10.3411 15.9465 9.1103 14.029C9.07727 13.9832 9.04171 13.9392 9.00379 13.8972C8.54694 13.1727 8.08271 12.4535 7.63524 11.7237C6.18295 9.35791 6.07577 6.92556 7.49121 4.54459C8.91537 2.14715 11.1467 1.06501 13.9589 1.14141C14.263 1.14931 14.5617 1.23098 14.8679 1.2784C15.0374 1.39564 15.2464 1.41672 15.4306 1.503C16.5861 2.0444 17.4268 2.9138 17.9989 4.00977C19.3654 6.6272 19.3574 9.27888 18.0545 11.9194C17.072 13.9137 16.0779 15.9032 15.0722 17.8879C14.9831 18.0644 14.9148 18.2502 14.823 18.426C14.537 18.972 14.2797 19.5332 13.9602 20.0621C13.851 20.1628 13.7059 20.2173 13.5563 20.2136Z" fill="#FF8C21"/>
<path d="M8.98906 13.8972C8.71665 15.1921 8.44379 16.4874 8.17048 17.7832C7.81321 19.4772 7.45304 21.1712 7.08997 22.8653C5.29336 23.8545 3.4972 24.8451 1.70149 25.837C1.50857 25.9437 1.32234 26.0234 1.13076 25.8515C0.939172 25.6796 1.00482 25.4893 1.07516 25.3042C2.18514 22.4233 3.30316 19.5444 4.4031 16.6589C4.55449 16.2637 4.91287 16.1597 5.21901 15.9864C6.46966 15.2804 7.73171 14.5908 8.98906 13.8972Z" fill="#50429B"/>
<path d="M19.9234 22.8593C19.5483 21.1096 19.1734 19.36 18.7987 17.6107C18.5488 16.4442 18.2963 15.2784 18.0491 14.1113C18.0478 14.0518 18.0561 13.9924 18.0739 13.9355L20.4794 15.2705C21.0997 16.871 21.7133 18.4748 22.333 20.0786C22.9526 21.6824 23.5716 23.2815 24.1885 24.8866C24.2301 24.996 24.3165 25.1059 24.2314 25.2331L19.9234 22.8593Z" fill="#817CBA"/>
<path d="M24.2314 25.2258C23.378 23.0089 22.5243 20.7914 21.6705 18.5736C21.2819 17.5632 20.8907 16.5535 20.5062 15.5439C20.4754 15.4622 20.3836 15.3739 20.4794 15.2758C21.0975 15.6143 21.716 15.9529 22.335 16.2914C22.469 16.3652 22.5279 16.489 22.5788 16.6207C23.6989 19.5227 24.8191 22.4246 25.9396 25.3266C26.0146 25.5209 26.0528 25.7106 25.8666 25.8673C25.6803 26.0241 25.4981 25.953 25.3146 25.8469C24.9555 25.6335 24.5931 25.4326 24.2314 25.2258Z" fill="#50429B"/>
<path d="M9.6308 7.73373C9.75807 5.78285 11.4328 4.20014 13.3861 4.18368C15.5123 4.16655 17.2044 5.67352 17.3779 7.73505C17.396 7.9164 17.396 8.09905 17.3779 8.2804C17.2272 10.1746 15.6295 11.9029 13.218 11.837C11.4569 11.7863 9.75003 10.1351 9.63347 8.2804C9.61392 8.09873 9.61302 7.91558 9.6308 7.73373Z" fill="#FEDDCE"/>
<path d="M9.62993 7.73373C9.62993 7.91618 9.62993 8.09862 9.62993 8.28172C9.57282 8.10355 9.57282 7.9119 9.62993 7.73373V7.73373Z" fill="#FEAA89"/>
<path d="M17.3766 8.2804C17.3766 8.09861 17.3766 7.91683 17.3766 7.73505C17.434 7.91226 17.434 8.10318 17.3766 8.2804V8.2804Z" fill="#FEA683"/>
<path d="M13.7626 10.2576L13.5101 10.2919C13.4116 10.2464 13.3004 10.3037 13.2026 10.2543C11.9238 10.1101 11.0529 8.96802 11.2057 7.64021C11.333 6.52843 12.5454 5.60304 13.7177 5.72555C13.806 5.74028 13.8933 5.76052 13.979 5.78614C14.3206 6.21821 14.2724 6.71285 14.3106 7.23515C14.3601 7.91289 14.3956 8.59721 14.2288 9.2677C14.1397 9.62666 14.0506 9.98891 13.7626 10.2576Z" fill="#FF8C21"/>
<path d="M13.7626 10.2576C14.2489 9.41259 14.3018 8.48984 14.255 7.55128C14.2248 6.95258 14.1431 6.36574 13.7733 5.85858C13.7345 5.80523 13.7244 5.77428 13.8041 5.76572C14.6857 5.7914 15.6717 6.69637 15.7561 7.55392C15.7711 7.64942 15.7917 7.74398 15.8178 7.83713C15.8442 7.94915 15.8442 8.06563 15.8178 8.17765C15.6443 9.516 14.6261 10.1786 13.7626 10.2576Z" fill="#C95B00"/>
<path d="M15.8178 8.17766V7.8378C15.8485 7.88909 15.8647 7.94784 15.8647 8.00773C15.8647 8.06761 15.8485 8.12636 15.8178 8.17766V8.17766Z" fill="#FED5C5"/>
<path d="M13.2026 10.2543L13.5092 10.2919L13.2026 10.2543Z" fill="#FEC4A8"/>
<path d="M20.3166 6.4889C19.7345 3.85435 17.3216 1.55834 14.8652 1.27578C14.829 1.26985 14.7781 1.25997 14.762 1.258L14.4633 1.20135L14.815 1.33308H14.819H14.823L14.8505 1.34296C15.7213 1.63737 16.4387 2.13991 17.0544 2.8137C18.9635 4.89961 19.5423 8.65318 18.2896 11.2219C16.8969 14.0771 15.4661 16.9138 14.0587 19.7624C14.0189 19.8578 13.9851 19.9554 13.9575 20.0549C14.3916 19.6248 14.6475 19.0748 14.9757 18.5749C15.996 17.0192 16.9988 15.4523 18.0089 13.89C18.4698 13.1596 18.9287 12.4278 19.3915 11.6981C20.4158 10.0877 20.7266 8.34494 20.3166 6.4889Z" fill="#C95B00"/>
<path d="M13.7914 5.88409L13.6574 5.71896C13.7618 5.72787 13.8647 5.74871 13.9642 5.78105C14.1572 5.83852 13.7914 5.88409 13.7914 5.88409Z" fill="#C95B00"/>
</svg>
