<svg width="58" height="58" viewBox="0 0 58 58" fill="none" xmlns="http://www.w3.org/2000/svg">
<path d="M41.9227 0.900696C42.4422 0.537599 42.9096 0.114783 43.592 0.0335644C44.7866 -0.109763 45.4666 0.602097 46.0899 1.44773C46.4559 1.76783 46.3638 2.20975 46.3827 2.61346C46.4937 5.00226 46.1466 7.36 45.9695 9.72968C45.7334 12.5962 44.9047 15.243 43.9438 17.9137C42.5271 21.8671 41.8188 26.0117 41.2687 30.1778C40.3668 37.0097 40.2795 43.8751 40.4069 50.7453C40.4376 52.3458 40.5887 53.9487 40.5415 55.5563C40.5014 56.9896 39.9111 57.6584 38.5441 57.9451C38.164 57.957 37.7815 57.9785 37.399 57.9785C25.9858 57.9785 14.5703 57.9594 3.16419 58C1.19274 58 0.059446 57.0445 0.0476409 54.9209C0.0311137 52.0543 -0.0586051 49.2021 0.061807 46.3499C0.237899 41.9304 0.731872 37.5298 1.53981 33.1829C2.72032 26.9601 4.60914 21 7.48014 15.3529C8.42455 13.5183 8.6394 11.5141 8.85898 9.50274C9.12813 7.02556 9.39257 4.55077 9.90255 2.09748C10.1032 1.12763 10.4928 0.315441 11.5198 0.0956718C12.5469 -0.124097 13.326 0.444436 14.0154 1.13719C14.2515 1.36173 14.3271 1.71766 14.6718 1.82755C16.3954 3.22738 17.6255 3.14855 19.1743 1.5385C19.2961 1.37246 19.4525 1.23546 19.6323 1.13719C19.719 1.13412 19.8042 1.11351 19.8828 1.07658C19.9615 1.03966 20.0321 0.987163 20.0904 0.922194C21.7289 -0.439418 23.5398 -0.272203 24.9045 1.39995C25.0698 1.60061 25.1689 1.86099 25.4168 1.98999C27.367 3.3086 29.1779 2.99089 30.8897 1.51223C31.0107 1.4265 31.1447 1.36116 31.2863 1.31874C32.0537 0.685705 32.7997 0.055062 33.8834 0.043118C34.9672 0.031174 35.9423 0.348884 36.7167 1.17302C36.8749 1.34262 37.0142 1.54806 37.2951 1.49312C37.7083 1.732 37.9397 2.17631 38.334 2.44863C39.3185 3.11033 40.4069 2.90728 41.1176 1.93504C41.3632 1.56956 41.5025 1.12047 41.9227 0.900696Z" fill="#F4AF77"/>
<path d="M38.5441 57.9357C39.8427 57.4579 40.3833 56.5168 40.3078 55.1193C40.0528 50.5472 40.0386 45.9678 40.1472 41.3957C40.2063 38.9185 40.3833 36.4366 40.6076 33.9618C40.891 30.8691 41.3136 27.8011 41.8755 24.7577C42.4731 21.4979 43.3979 18.3083 44.6355 15.2384C45.2423 13.7406 45.417 12.1592 45.5799 10.5731C45.7358 9.16608 45.9483 7.76385 46.0521 6.35208C46.1501 4.71904 46.1572 3.08172 46.0734 1.44788C46.5905 0.52342 47.2917 -0.104833 48.4203 0.093437C49.2018 0.231987 49.707 0.738411 50.0045 1.49088C50.7329 3.43672 51.2584 5.45427 51.5722 7.51064C51.9712 9.82061 52.2805 12.1449 52.6866 14.4573C52.977 16.1294 53.7467 17.663 54.2071 19.2898C55.4256 23.6955 56.3275 28.1846 56.9058 32.722C57.8086 39.5342 58.1537 46.4102 57.9375 53.2799C57.9139 54.0539 57.8478 54.8231 57.7841 55.5947C57.6637 57.028 56.7122 57.9453 55.2956 57.9596C53.206 57.9835 51.1189 57.9596 49.0294 57.9596C45.5382 57.958 42.0431 57.95 38.5441 57.9357Z" fill="#E58358"/>
<path d="M31.2769 1.31381C30.0633 2.7017 28.5971 3.37534 26.7579 2.89758C26.2196 2.75665 25.7025 2.52015 25.4074 1.98029C25.6931 1.68169 25.9717 1.37831 26.2644 1.09166C27.7401 -0.34162 29.5297 -0.358343 31.0195 1.07493C31.1022 1.15615 31.1895 1.23259 31.2769 1.31381Z" fill="#E58358"/>
<path d="M19.6228 1.13707C19.0491 2.71367 16.4921 3.66919 15.1369 2.53213C14.9008 2.33863 14.6647 2.16664 14.6647 1.81549C14.8536 1.59094 15.0354 1.35923 15.2337 1.14185C16.6243 -0.377426 18.2015 -0.382205 19.6228 1.13707Z" fill="#E58358"/>
<path d="M41.9227 0.900671C41.7123 1.47908 41.3914 2.00993 40.9783 2.46294C40.4259 3.14136 39.0612 3.24169 38.2608 2.66838C37.85 2.37456 37.3778 2.07835 37.2881 1.48831C38.3104 -0.0859016 40.6242 -0.520662 41.9227 0.900671Z" fill="#E58358"/>
<path d="M26.2148 13.0954H41.2262C41.4315 13.1062 41.6371 13.1062 41.8424 13.0954C41.9453 13.0779 42.0507 13.0822 42.1518 13.1083C42.2529 13.1343 42.3475 13.1815 42.4296 13.2467C42.5116 13.312 42.5793 13.3938 42.6282 13.4871C42.6771 13.5803 42.7062 13.6829 42.7136 13.7882C42.7915 14.2015 42.5696 14.5216 42.2013 14.7437C41.9064 14.8818 41.5798 14.9355 41.2569 14.899H11.0594C10.7076 14.899 10.3511 14.9324 10.0725 14.6362C9.79391 14.34 9.64044 14.0796 9.80099 13.6807C9.96154 13.2818 10.1528 13.0883 10.5849 13.0978C11.4655 13.1169 12.3509 13.0978 13.2339 13.0978L26.2148 13.0954Z" fill="#E58358"/>
<path d="M23.1503 34.9146C24.4276 36.4291 25.9127 37.7405 27.2656 39.181C27.8133 39.7638 28.3257 40.3562 28.2879 41.2568C28.285 41.6596 28.1648 42.0526 27.9422 42.3866C27.7196 42.7206 27.4046 42.9807 27.0366 43.1344C26.7233 43.3025 26.3696 43.3779 26.016 43.3522C25.6623 43.3264 25.323 43.2004 25.0368 42.9887C24.0286 42.2983 23.292 41.3165 22.4066 40.4996C21.8258 39.9597 21.3441 39.3052 20.683 38.8537C19.4695 37.9388 18.2347 37.0358 18.2111 35.2705L18.3858 34.8978C18.714 33.8611 19.1271 33.4861 19.9582 33.4646C20.539 33.1397 21.049 33.4646 21.5779 33.6413C22.4208 33.6676 22.7796 34.2863 23.1503 34.9146Z" fill="#E58358"/>
<path d="M17.845 34.198C14.2374 35.1774 11.7701 32.0791 11.6615 29.7238C11.5718 27.8271 13.3756 25.7751 15.9751 26.6494C17.9678 27.3207 19.8377 29.0071 19.4293 32.2201C19.2262 33.608 18.8414 34.0881 17.845 34.198Z" fill="#FEE1D3"/>
<path d="M26.9468 10.4127C25.3295 10.4127 23.7122 10.4295 22.0972 10.4127C21.7411 10.4228 21.3898 10.3267 21.0872 10.1364C20.7845 9.94616 20.5438 9.6701 20.3949 9.34257C20.236 9.03779 20.17 8.69217 20.2053 8.34943C20.2406 8.0067 20.3756 7.68227 20.5933 7.4172C20.7691 7.17692 21.0006 6.98397 21.2673 6.85528C21.5341 6.72658 21.828 6.66608 22.1232 6.67906C25.3578 6.67906 28.59 6.66234 31.8246 6.67906C32.316 6.66744 32.7921 6.85227 33.1497 7.19347C33.5072 7.53467 33.7174 8.00473 33.7347 8.50171C33.7348 8.75695 33.6843 9.00962 33.5863 9.24481C33.4883 9.48 33.3448 9.69294 33.1641 9.87107C32.9834 10.0492 32.7693 10.1889 32.5344 10.2819C32.2994 10.375 32.0485 10.4194 31.7963 10.4127C30.1814 10.4342 28.5593 10.4127 26.9468 10.4127Z" fill="white"/>
<path d="M21.932 32.9415C21.5094 31.6539 21.7951 30.5766 22.7844 29.6402C23.835 28.644 24.829 27.5882 25.8537 26.5586C25.9788 26.432 26.0898 26.2982 26.2315 26.1836C26.5927 25.8706 26.9728 25.8372 27.3341 26.1692C27.6953 26.5013 27.5536 26.8859 27.2916 27.194C26.8194 27.7243 26.2999 28.2069 25.8159 28.7252C25.6577 28.8972 25.2918 29.0764 25.6011 29.3654C25.8655 29.6043 26.0733 29.3129 26.2645 29.1433C26.7533 28.6655 27.2278 28.1878 27.7024 27.6981C28.04 27.3517 28.4107 27.2442 28.7743 27.6192C29.1379 27.9943 29.0387 28.3598 28.6964 28.7014C28.2242 29.1791 27.7331 29.6569 27.2798 30.1561C27.1121 30.3377 26.8076 30.5598 27.0578 30.8274C27.3388 31.1427 27.53 30.7748 27.6906 30.6124C28.1628 30.1633 28.5972 29.6808 29.0718 29.2364C29.4023 28.9259 29.7801 28.6225 30.2122 29.0764C30.6442 29.5303 30.4719 29.934 30.087 30.321C28.9065 31.5154 27.7402 32.7384 26.529 33.9042C25.7333 34.671 24.7912 34.9887 23.6957 34.542C22.7584 34.3939 22.1847 33.8373 21.932 32.9415Z" fill="#FEE1D3"/>
<path d="M18.211 35.2682C18.4872 36.8496 19.7763 37.7119 20.683 38.8514C19.4704 40.2251 18.1882 41.5344 16.8416 42.7738C15.425 44.0805 13.6282 43.4904 13.1584 41.6725C12.9553 40.8819 13.2859 40.2393 13.7723 39.7281C15.2196 38.2064 16.6551 36.6728 18.211 35.2682Z" fill="#D47251"/>
<path d="M17.8451 34.1979C18.7494 33.8444 19.172 33.1014 19.4293 32.22C19.3042 32.7622 19.7315 33.0656 19.9582 33.4526C19.1649 33.6294 18.8627 34.3556 18.3858 34.8859C18.2063 34.6757 18.0269 34.4368 17.8451 34.1979Z" fill="#FBCBB4"/>
<path d="M21.9321 32.9415C22.4232 33.5793 22.9332 34.1956 23.684 34.5443C23.567 34.5372 23.451 34.5697 23.3543 34.6368C23.2577 34.7038 23.1859 34.8016 23.1504 34.9146C22.546 34.5945 22.2438 33.8898 21.578 33.6462C21.5189 33.3141 21.8235 33.1803 21.9321 32.9415Z" fill="#FCCDB6"/>
</svg>
