<svg width="50" height="43" viewBox="0 0 50 43" fill="none" xmlns="http://www.w3.org/2000/svg">
<rect width="35.3871" height="36" rx="10" fill="#F8F8F8"/>
<g filter="url(#filter0_d_4812_12185)">
<path d="M26.1927 13.475C25.5196 13.4519 25.1208 13.0604 24.8804 12.5058C24.638 11.9719 24.5128 11.3907 24.5136 10.8026C24.5144 10.2145 24.641 9.63361 24.8848 9.10035C25.1643 8.46338 25.6398 8.14534 26.3739 8.14534C32.4482 8.16247 38.5225 8.16247 44.5968 8.14534C45.3318 8.14534 45.816 8.46338 46.0772 9.10655C46.6163 10.4266 46.6119 11.7262 45.8081 12.9629C45.7528 13.0745 45.7401 13.2029 45.7724 13.3235C46.4691 16.2062 47.1814 19.0863 47.879 21.9691C47.9538 22.2796 47.9921 22.5981 47.993 22.9179C48 28.3462 48.0017 33.7744 47.9983 39.2027C47.9983 39.8538 47.8572 40 47.2145 40H24.7837C24.1428 40 24.0044 39.8574 24.0044 39.2027C24.0078 33.8367 24.0157 28.4725 24 23.111C24 22.1719 24.2926 21.3073 24.5042 20.4214C25.0372 18.1907 25.5954 15.9662 26.1431 13.739C26.1614 13.6646 26.1718 13.5875 26.1927 13.475ZM41.7414 38.921V38.5028C41.7414 33.3196 41.7414 28.1362 41.7414 22.9524C41.7321 22.7321 41.7485 22.5115 41.7901 22.2951C42.2769 20.2575 42.7742 18.2199 43.2705 16.1894C43.49 15.2911 43.7112 14.3937 43.9359 13.4759H27.29C27.2621 13.5698 27.2343 13.653 27.2134 13.7372C26.6438 16.0601 26.0656 18.3811 25.5091 20.7075C25.3149 21.5226 25.045 22.3093 25.045 23.1686C25.0589 28.2856 25.052 33.4026 25.052 38.5196V38.921H41.7414ZM42.7864 38.2069C43.2488 37.7285 43.6276 37.3086 44.0369 36.9223C44.1452 36.827 44.2305 36.7076 44.2862 36.5733C44.3419 36.439 44.3666 36.2935 44.3582 36.1481C44.3478 32.0357 44.3454 27.923 44.3512 23.81C44.3445 23.6998 44.3474 23.5892 44.3599 23.4796C44.4105 23.1934 44.5846 23.0215 44.8729 23.0215C45.1611 23.0215 45.3344 23.1987 45.3858 23.4796C45.3983 23.5895 45.4012 23.7004 45.3945 23.8109C45.3945 27.9676 45.3945 32.1243 45.3945 36.2809C45.3945 36.4067 45.3945 36.5733 45.4668 36.6513C45.9318 37.1536 46.4168 37.6364 46.9568 38.1883V37.81C46.9568 32.8354 46.9553 27.8607 46.9524 22.886C46.95 22.6433 46.919 22.4018 46.8601 22.1666C46.3724 20.1521 45.879 18.139 45.3797 16.1274C45.2229 15.4922 45.0627 14.8579 44.9042 14.2227C44.8287 14.3077 44.777 14.4117 44.7544 14.5239C44.245 16.6013 43.7286 18.6779 43.2322 20.7589C43.0581 21.4854 42.8099 22.2224 42.8047 22.956C42.7663 27.8976 42.7846 32.8392 42.7846 37.7817L42.7864 38.2069ZM43.5936 9.2164H43.2401C37.625 9.2164 32.0099 9.21375 26.3948 9.20843C26.0769 9.20843 25.908 9.3298 25.8035 9.60178C25.4926 10.3779 25.4926 11.2469 25.8035 12.023C25.9106 12.2985 26.0856 12.4092 26.3991 12.4083C32.0038 12.3977 37.6081 12.395 43.2122 12.4004H43.5936C43.2127 11.3744 43.2127 10.2423 43.5936 9.2164ZM44.8807 9.2164C44.1614 9.82857 44.184 11.9548 44.8999 12.3826C45.5565 11.8839 45.5512 9.72049 44.8763 9.21995L44.8807 9.2164ZM43.5936 38.9351H46.1077L44.8537 37.655L43.5936 38.9351Z" fill="url(#paint0_linear_4812_12185)"/>
<path d="M42.7848 38.2069V37.7808C42.7848 32.8383 42.7665 27.8967 42.8048 22.9551C42.81 22.2215 43.0591 21.4845 43.2324 20.758C43.7287 18.677 44.2451 16.6004 44.7546 14.523C44.778 14.4108 44.8307 14.3071 44.907 14.2227C45.0655 14.8579 45.2257 15.4922 45.3824 16.1274C45.8771 18.1401 46.3705 20.1532 46.8628 22.1666C46.9217 22.4018 46.9527 22.6433 46.9552 22.886C46.9604 27.8606 46.9618 32.8353 46.9595 37.81V38.1883C46.4196 37.6364 45.9345 37.1535 45.4695 36.6512C45.3972 36.5733 45.3981 36.4067 45.3972 36.2809C45.3938 32.1242 45.3938 27.9675 45.3972 23.8109C45.404 23.7004 45.401 23.5895 45.3885 23.4795C45.3372 23.1943 45.1639 23.0215 44.8756 23.0215C44.5874 23.0215 44.4132 23.1934 44.3627 23.4795C44.3502 23.5892 44.3473 23.6998 44.354 23.81C44.354 27.9224 44.3563 32.0351 44.361 36.148C44.3693 36.2935 44.3447 36.439 44.289 36.5733C44.2333 36.7075 44.1479 36.827 44.0396 36.9223C43.626 37.3086 43.2454 37.7285 42.7848 38.2069Z" fill="white"/>
<path d="M43.5936 9.21639C43.2133 10.2415 43.2133 11.3726 43.5936 12.3977H43.2122C37.6081 12.3977 32.0038 12.4004 26.3991 12.4057C26.0856 12.4057 25.9106 12.2958 25.8035 12.0203C25.4926 11.2442 25.4926 10.3752 25.8035 9.59911C25.9036 9.32979 26.0726 9.20842 26.3904 9.20842C32.0055 9.21905 37.6206 9.22171 43.2357 9.21639H43.5936Z" fill="white"/>
<path d="M44.8765 9.21992C45.5514 9.72046 45.5566 11.8839 44.8957 12.3826C44.1842 11.9547 44.1616 9.82854 44.8765 9.21992Z" fill="white"/>
<path d="M43.5938 38.9351L44.8538 37.655L46.1078 38.9351H43.5938Z" fill="white"/>
<path fill-rule="evenodd" clip-rule="evenodd" d="M25.0513 38.9209H41.7416L41.7424 38.5028V22.9524C41.7332 22.7321 41.7496 22.5115 41.7912 22.2951C42.1372 20.8526 42.4875 19.4129 42.8382 17.9717C42.9827 17.3779 43.1273 16.7839 43.2716 16.1894C43.3952 15.6836 43.5193 15.1781 43.6443 14.669C43.7412 14.274 43.8387 13.8769 43.9369 13.4758H27.2902C27.2813 13.5059 27.2723 13.5344 27.2637 13.5621C27.2452 13.6212 27.2278 13.6769 27.2135 13.7372C27.1216 14.1105 27.0295 14.4839 26.9375 14.8572C26.4569 16.8063 25.9763 18.7551 25.5093 20.7075C25.4663 20.8872 25.4195 21.0659 25.3728 21.2446C25.2085 21.8725 25.0443 22.4996 25.0443 23.1686C25.0548 27.0063 25.0535 30.8441 25.0521 34.6818C25.0517 35.9611 25.0513 37.2404 25.0513 38.5196V38.9209Z" fill="url(#paint1_linear_4812_12185)"/>
<path d="M43.3769 30.2535V30.6196H32.5835C32.5389 30.1583 32.5892 29.6927 32.7313 29.2524C32.8735 28.812 33.1042 28.4067 33.4089 28.0622C33.7136 27.7177 34.0855 27.4416 34.5009 27.2516C34.9163 27.0615 35.3661 26.9617 35.8215 26.9584H40.1389C40.9977 26.9584 41.8213 27.3056 42.4285 27.9235C43.0358 28.5415 43.3769 29.3796 43.3769 30.2535ZM39.2034 33.4233C39.0853 33.5034 38.9465 33.5462 38.8045 33.5462C38.6625 33.5462 38.5236 33.5034 38.4055 33.4233L36.4281 32.084H32.5835C32.539 32.5452 32.5894 33.0108 32.7316 33.4511C32.8737 33.8914 33.1045 34.2967 33.4092 34.6412C33.7138 34.9856 34.0857 35.2617 34.501 35.4518C34.9164 35.6419 35.3661 35.7418 35.8215 35.7452H40.1389C40.5943 35.7419 41.0441 35.6421 41.4595 35.452C41.8749 35.262 42.2468 34.9859 42.5515 34.6414C42.8562 34.2969 43.0869 33.8916 43.229 33.4512C43.3712 33.0109 43.4215 32.5453 43.3769 32.084H41.1822L39.2034 33.4233ZM31.1444 30.2535V32.4501C31.1445 33.6836 31.6174 34.8684 32.4626 35.7525H30.8076C29.9311 35.7515 29.085 35.4251 28.4279 34.8347C27.7709 34.2443 27.348 33.4303 27.2386 32.5453L26.1499 23.7161C26.0939 23.3996 26.1064 23.0744 26.1866 22.7632C26.2668 22.4521 26.4127 22.1625 26.6142 21.9147C26.8157 21.6668 27.0679 21.4667 27.3532 21.3283C27.6385 21.1898 27.95 21.1164 28.2661 21.113H33.0274L33.1519 20.0996C33.2173 19.5687 33.4709 19.0803 33.865 18.7261C34.2592 18.372 34.7668 18.1764 35.2926 18.1761H37.6204C37.8113 18.1761 37.9943 18.2532 38.1292 18.3905C38.2642 18.5279 38.34 18.7141 38.34 18.9083C38.34 19.1025 38.2642 19.2887 38.1292 19.4261C37.9943 19.5634 37.8113 19.6405 37.6204 19.6405H35.2926C34.5083 19.6405 34.5536 20.5522 34.4766 21.1138H36.1813C36.5039 21.1161 36.8219 21.1916 37.1122 21.3346C37.4025 21.4777 37.6579 21.6849 37.8596 21.941C38.0614 22.1971 38.2046 22.4957 38.2787 22.8152C38.3528 23.1347 38.3561 23.467 38.2882 23.7879L38.0773 25.494H35.8215C34.5814 25.4951 33.3924 25.9969 32.5155 26.8893C31.6386 27.7816 31.1455 28.9915 31.1444 30.2535ZM34.296 22.5782L34.1183 24.0295H36.8095L36.8706 23.5353C36.9041 23.425 36.9117 23.3083 36.8929 23.1945C36.8742 23.0807 36.8295 22.9729 36.7625 22.8798C36.6956 22.7867 36.6081 22.7108 36.5072 22.6582C36.4063 22.6056 36.2947 22.5777 36.1813 22.5768L34.296 22.5782ZM32.6684 24.0295L32.8476 22.5753H28.2661C28.1586 22.576 28.0527 22.6011 27.9559 22.6487C27.8592 22.6963 27.774 22.7653 27.7067 22.8505C27.6394 22.9358 27.5916 23.0352 27.5667 23.1416C27.5419 23.248 27.5407 23.3587 27.5631 23.4657L27.635 24.0295H32.6684Z" fill="white"/>
</g>
<defs>
<filter id="filter0_d_4812_12185" x="22" y="7.14534" width="28" height="35.8547" filterUnits="userSpaceOnUse" color-interpolation-filters="sRGB">
<feFlood flood-opacity="0" result="BackgroundImageFix"/>
<feColorMatrix in="SourceAlpha" type="matrix" values="0 0 0 0 0 0 0 0 0 0 0 0 0 0 0 0 0 0 127 0" result="hardAlpha"/>
<feOffset dy="1"/>
<feGaussianBlur stdDeviation="1"/>
<feComposite in2="hardAlpha" operator="out"/>
<feColorMatrix type="matrix" values="0 0 0 0 0.192157 0 0 0 0 0.239216 0 0 0 0 0.682353 0 0 0 0.25 0"/>
<feBlend mode="normal" in2="BackgroundImageFix" result="effect1_dropShadow_4812_12185"/>
<feBlend mode="normal" in="SourceGraphic" in2="effect1_dropShadow_4812_12185" result="shape"/>
</filter>
<linearGradient id="paint0_linear_4812_12185" x1="25.042" y1="9.00682" x2="47.5022" y2="39.439" gradientUnits="userSpaceOnUse">
<stop stop-color="#D2D2D2"/>
<stop offset="1" stop-color="#7D7D7D"/>
</linearGradient>
<linearGradient id="paint1_linear_4812_12185" x1="24.9636" y1="9.38786" x2="40.3423" y2="37.8773" gradientUnits="userSpaceOnUse">
<stop stop-color="#D2D2D2"/>
<stop offset="1" stop-color="#7D7D7D"/>
</linearGradient>
</defs>
</svg>
