<svg width="50" height="41" viewBox="0 0 50 41" fill="none" xmlns="http://www.w3.org/2000/svg">
<rect width="36" height="36" rx="10" fill="#F1EFEF"/>
<path d="M49.9708 30.9883V31.6549H29.9797C29.8971 30.8151 29.9904 29.9674 30.2536 29.1657C30.5168 28.3641 30.9442 27.6261 31.5086 26.9989C32.0729 26.3717 32.7617 25.8691 33.5311 25.5231C34.3005 25.1771 35.1335 24.9953 35.977 24.9893H43.9735C45.5641 24.9893 47.0895 25.6214 48.2142 26.7464C49.3389 27.8714 49.9708 29.3973 49.9708 30.9883ZM42.2409 36.7594C42.0221 36.9053 41.7649 36.9831 41.5019 36.9831C41.2389 36.9831 40.9818 36.9053 40.7629 36.7594L37.1005 34.3211H29.9797C29.8973 35.1608 29.9907 36.0085 30.254 36.8101C30.5173 37.6116 30.9448 38.3495 31.509 38.9767C32.0733 39.6038 32.762 40.1065 33.5313 40.4525C34.3006 40.7986 35.1336 40.9805 35.977 40.9867H43.9735C44.817 40.9807 45.6501 40.7989 46.4195 40.4529C47.1888 40.1069 47.8777 39.6043 48.442 38.9771C49.0063 38.3499 49.4337 37.6119 49.6969 36.8103C49.9602 36.0086 50.0534 35.1609 49.9708 34.3211H45.906L42.2409 36.7594ZM27.3142 30.9883V34.9877C27.3145 37.2333 28.1904 39.3903 29.7558 41H26.6905C25.067 40.9981 23.5 40.404 22.283 39.3291C21.0661 38.2542 20.2829 36.7722 20.0801 35.161L18.0637 19.0863C17.96 18.51 17.9832 17.9179 18.1317 17.3515C18.2802 16.785 18.5505 16.2578 18.9237 15.8066C19.2969 15.3554 19.764 14.991 20.2924 14.739C20.8208 14.4869 21.3979 14.3532 21.9833 14.3471H30.802L31.0326 12.5021C31.1537 11.5355 31.6233 10.6463 32.3533 10.0015C33.0834 9.35667 34.0236 9.00056 34.9975 9H39.3089C39.6624 9 40.0013 9.14045 40.2513 9.39046C40.5012 9.64047 40.6416 9.97955 40.6416 10.3331C40.6416 10.6867 40.5012 11.0258 40.2513 11.2758C40.0013 11.5258 39.6624 11.6662 39.3089 11.6662H34.9975C33.5448 11.6662 33.6288 13.3259 33.4862 14.3484H36.6434C37.2409 14.3527 37.8299 14.4901 38.3676 14.7506C38.9053 15.0111 39.3782 15.3882 39.752 15.8545C40.1257 16.3207 40.3909 16.8645 40.5282 17.4461C40.6655 18.0278 40.6714 18.6327 40.5457 19.217L40.1552 22.3231H35.977C33.6802 22.3252 31.478 23.2389 29.8539 24.8634C28.2297 26.488 27.3164 28.6908 27.3142 30.9883ZM33.1516 17.0147L32.8225 19.6569H37.8069L37.9202 18.757C37.9821 18.5563 37.9962 18.3438 37.9615 18.1367C37.9267 17.9295 37.844 17.7333 37.72 17.5638C37.5959 17.3942 37.434 17.256 37.2471 17.1602C37.0602 17.0644 36.8534 17.0137 36.6434 17.012L33.1516 17.0147ZM30.137 19.6569L30.4688 17.0093H21.9833C21.7842 17.0107 21.588 17.0564 21.4088 17.143C21.2296 17.2297 21.0719 17.3552 20.9472 17.5104C20.8225 17.6656 20.734 17.8467 20.688 18.0404C20.642 18.2341 20.6396 18.4357 20.6812 18.6304L20.8145 19.6569H30.137Z" fill="#A2A2A3"/>
</svg>
