<svg width="30" height="30" viewBox="0 0 30 30" fill="none" xmlns="http://www.w3.org/2000/svg">
<path d="M21.6843 0.466155C21.9529 0.278345 22.1947 0.0596467 22.5477 0.0176367C23.1656 -0.0564986 23.5173 0.311706 23.8397 0.749104C24.029 0.914673 23.9814 1.14326 23.9911 1.35207C24.0485 2.58766 23.869 3.80719 23.7774 5.03289C23.6553 6.51559 23.2267 7.88462 22.7296 9.26601C21.9969 11.3109 21.6305 13.4547 21.346 15.6095C20.8795 19.1433 20.8343 22.6944 20.9002 26.2479C20.9161 27.0758 20.9943 27.9049 20.9698 28.7364C20.9491 29.4778 20.6438 29.8237 19.9367 29.972C19.7401 29.9782 19.5422 29.9893 19.3444 29.9893C13.441 29.9893 7.53638 29.9794 1.63666 30.0004C0.616935 30.0004 0.030748 29.5062 0.0246419 28.4077C0.0160934 26.925 -0.0303131 25.4497 0.0319693 23.9744C0.123052 21.6885 0.378556 19.4123 0.796455 17.1639C1.40707 13.9452 2.38404 10.8624 3.86905 7.94146C4.35754 6.99253 4.46867 5.95587 4.58225 4.91551C4.72147 3.6342 4.85824 2.35413 5.12203 1.08518C5.22583 0.583536 5.42733 0.163435 5.95856 0.0497613C6.4898 -0.0639128 6.8928 0.230157 7.2494 0.588478C7.37152 0.704623 7.4106 0.888725 7.5889 0.945562C8.48039 1.66962 9.11665 1.62884 9.91777 0.796057C9.98079 0.710169 10.0617 0.639311 10.1547 0.588478C10.1995 0.58689 10.2436 0.576231 10.2843 0.557132C10.325 0.538032 10.3615 0.510879 10.3916 0.477275C11.2391 -0.22701 12.1758 -0.140519 12.8817 0.724392C12.9672 0.828182 13.0185 0.962861 13.1467 1.02958C14.1554 1.71163 15.0921 1.54729 15.9775 0.782465C16.0401 0.738125 16.1094 0.704327 16.1826 0.682383C16.5795 0.354952 16.9654 0.0287561 17.526 0.0225782C18.0865 0.0164003 18.5909 0.180734 18.9915 0.607012C19.0733 0.694738 19.1453 0.800999 19.2907 0.77258C19.5044 0.896139 19.624 1.12596 19.828 1.26682C20.3372 1.60907 20.9002 1.50405 21.2678 1.00116C21.3948 0.81212 21.4669 0.579829 21.6843 0.466155Z" fill="#F4AF77"/>
<path d="M19.9367 29.9668C20.6084 29.7197 20.8881 29.2328 20.849 28.51C20.7171 26.1451 20.7098 23.7765 20.7659 21.4116C20.7965 20.1303 20.8881 18.8465 21.0041 17.5664C21.1506 15.9667 21.3692 14.3798 21.6599 12.8057C21.969 11.1196 22.4473 9.46974 23.0875 7.88188C23.4013 7.10716 23.4917 6.28921 23.576 5.46877C23.6566 4.74101 23.7665 4.01572 23.8202 3.28549C23.8709 2.44081 23.8746 1.59392 23.8312 0.748829C24.0987 0.270656 24.4614 -0.0543032 25.0451 0.0482506C25.4493 0.119915 25.7107 0.381859 25.8646 0.771069C26.2413 1.77754 26.5131 2.82111 26.6754 3.88475C26.8818 5.07956 27.0418 6.28179 27.2519 7.47784C27.4021 8.34275 27.8002 9.136 28.0383 9.97743C28.6686 12.2563 29.1351 14.5782 29.4342 16.9251C29.9012 20.4487 30.0797 24.0053 29.9679 27.5586C29.9557 27.9589 29.9215 28.3568 29.8885 28.7559C29.8262 29.4973 29.334 29.9717 28.6013 29.9791C27.5205 29.9915 26.441 29.9791 25.3602 29.9791C23.5544 29.9783 21.7466 29.9742 19.9367 29.9668Z" fill="#E58358"/>
<path d="M16.1778 0.67957C15.5501 1.39745 14.7917 1.74588 13.8404 1.49877C13.5619 1.42587 13.2945 1.30354 13.1418 1.0243C13.2896 0.869851 13.4337 0.712932 13.5851 0.564661C14.3484 -0.176691 15.2741 -0.185341 16.0447 0.556011C16.0874 0.598021 16.1326 0.63756 16.1778 0.67957Z" fill="#E58358"/>
<path d="M10.1497 0.588141C9.85296 1.40363 8.53037 1.89786 7.82939 1.30972C7.70727 1.20964 7.58514 1.12068 7.58514 0.939048C7.68284 0.822903 7.77688 0.703051 7.87946 0.590613C8.59876 -0.195221 9.41454 -0.197693 10.1497 0.588141Z" fill="#E58358"/>
<path d="M21.6843 0.465958C21.5754 0.765139 21.4095 1.03972 21.1958 1.27403C20.91 1.62494 20.2042 1.67683 19.7902 1.38029C19.5777 1.22832 19.3334 1.0751 19.287 0.769913C19.8158 -0.0443395 21.0126 -0.269216 21.6843 0.465958Z" fill="#E58358"/>
<path d="M13.5594 6.77357H21.324C21.4301 6.77913 21.5365 6.77913 21.6427 6.77357C21.6959 6.76447 21.7504 6.76674 21.8027 6.78021C21.855 6.79369 21.904 6.81808 21.9464 6.85182C21.9888 6.88556 22.0238 6.92791 22.0491 6.97614C22.0744 7.02437 22.0895 7.07742 22.0933 7.13189C22.1336 7.34565 22.0188 7.51121 21.8283 7.62612C21.6758 7.69756 21.5069 7.72533 21.3398 7.70644H5.72041C5.53845 7.70644 5.35404 7.72374 5.20994 7.57052C5.06583 7.41731 4.98645 7.28263 5.0695 7.07629C5.15254 6.86994 5.25146 6.76986 5.47494 6.7748C5.93046 6.78469 6.38842 6.7748 6.84515 6.7748L13.5594 6.77357Z" fill="#E58358"/>
<path d="M11.9743 18.0594C12.635 18.8428 13.4031 19.5211 14.1029 20.2662C14.3862 20.5677 14.6512 20.8741 14.6317 21.3399C14.6302 21.5483 14.568 21.7515 14.4529 21.9243C14.3377 22.097 14.1748 22.2316 13.9844 22.3111C13.8224 22.398 13.6395 22.437 13.4565 22.4237C13.2736 22.4104 13.0981 22.3452 12.9501 22.2357C12.4286 21.8786 12.0476 21.3708 11.5896 20.9482C11.2892 20.669 11.0401 20.3304 10.6981 20.0969C10.0704 19.6237 9.43171 19.1566 9.41949 18.2435L9.50987 18.0508C9.67962 17.5145 9.89333 17.3205 10.3232 17.3094C10.6236 17.1414 10.8874 17.3094 11.161 17.4008C11.5969 17.4144 11.7826 17.7345 11.9743 18.0594Z" fill="#E58358"/>
<path d="M9.23016 17.6887C7.36413 18.1953 6.08795 16.5928 6.03178 15.3745C5.98537 14.3934 6.91839 13.3321 8.26295 13.7843C9.29366 14.1315 10.2609 15.0038 10.0496 16.6657C9.94458 17.3835 9.74552 17.6319 9.23016 17.6887Z" fill="#FEE1D3"/>
<path d="M13.938 5.38606C13.1015 5.38606 12.265 5.3947 11.4296 5.38606C11.2454 5.39124 11.0637 5.34154 10.9072 5.24313C10.7506 5.14472 10.6261 5.00193 10.5491 4.83251C10.4669 4.67487 10.4328 4.4961 10.4511 4.31882C10.4693 4.14154 10.5391 3.97373 10.6517 3.83663C10.7427 3.71235 10.8624 3.61254 11.0004 3.54598C11.1383 3.47941 11.2904 3.44812 11.4431 3.45483C13.1161 3.45483 14.788 3.44618 16.4611 3.45483C16.7152 3.44882 16.9615 3.54442 17.1464 3.72091C17.3314 3.89739 17.4401 4.14052 17.449 4.39759C17.4491 4.52961 17.423 4.6603 17.3723 4.78195C17.3216 4.9036 17.2473 5.01374 17.1539 5.10588C17.0604 5.19801 16.9497 5.27027 16.8282 5.31839C16.7067 5.36651 16.5769 5.38952 16.4464 5.38606C15.6111 5.39718 14.7721 5.38606 13.938 5.38606Z" fill="white"/>
<path d="M11.3441 17.0387C11.1255 16.3727 11.2733 15.8155 11.785 15.3311C12.3284 14.8159 12.8426 14.2698 13.3726 13.7372C13.4373 13.6717 13.4947 13.6025 13.568 13.5432C13.7548 13.3814 13.9514 13.3641 14.1383 13.5358C14.3251 13.7076 14.2519 13.9065 14.1163 14.0659C13.8721 14.3402 13.6034 14.5898 13.353 14.8579C13.2712 14.9469 13.0819 15.0395 13.2419 15.189C13.3787 15.3126 13.4862 15.1618 13.5851 15.0741C13.8379 14.827 14.0833 14.5799 14.3288 14.3266C14.5034 14.1474 14.6952 14.0918 14.8832 14.2858C15.0713 14.4798 15.02 14.6688 14.8429 14.8455C14.5987 15.0927 14.3447 15.3398 14.1102 15.598C14.0235 15.6919 13.866 15.8068 13.9954 15.9452C14.1407 16.1083 14.2397 15.918 14.3227 15.834C14.5669 15.6017 14.7916 15.3521 15.0371 15.1223C15.2081 14.9617 15.4035 14.8048 15.627 15.0395C15.8504 15.2743 15.7613 15.4831 15.5622 15.6833C14.9516 16.3011 14.3483 16.9337 13.7219 17.5366C13.3103 17.9333 12.823 18.0976 12.2564 17.8665C11.7716 17.7899 11.4748 17.5021 11.3441 17.0387Z" fill="#FEE1D3"/>
<path d="M9.41958 18.2422C9.56247 19.0601 10.2293 19.5062 10.6982 20.0956C10.071 20.8061 9.40779 21.4833 8.71127 22.1244C7.97854 22.8003 7.04919 22.4951 6.80617 21.5548C6.70114 21.1458 6.87211 20.8134 7.12368 20.549C7.87229 19.762 8.6148 18.9687 9.41958 18.2422Z" fill="#D47251"/>
<path d="M9.23032 17.6885C9.69804 17.5056 9.91664 17.1214 10.0498 16.6654C9.98503 16.9459 10.2061 17.1028 10.3233 17.303C9.91298 17.3944 9.75666 17.7701 9.50998 18.0444C9.41716 17.9356 9.32435 17.8121 9.23032 17.6885Z" fill="#FBCBB4"/>
<path d="M11.3442 17.0387C11.5982 17.3686 11.862 17.6874 12.2503 17.8678C12.1898 17.8641 12.1298 17.8809 12.0798 17.9156C12.0298 17.9503 11.9927 18.0009 11.9743 18.0593C11.6617 17.8938 11.5054 17.5293 11.161 17.4032C11.1305 17.2315 11.288 17.1623 11.3442 17.0387Z" fill="#FCCDB6"/>
</svg>
