<svg width="20" height="20" viewBox="0 0 20 20" fill="none" xmlns="http://www.w3.org/2000/svg">
<path d="M10.8333 8.33333C10.8333 8.49815 10.7845 8.65927 10.6929 8.79631C10.6013 8.93335 10.4712 9.04016 10.3189 9.10323C10.1666 9.1663 9.99908 9.18281 9.83743 9.15065C9.67578 9.1185 9.52729 9.03913 9.41075 8.92259C9.2942 8.80604 9.21484 8.65756 9.18268 8.49591C9.15053 8.33426 9.16703 8.1667 9.2301 8.01443C9.29318 7.86216 9.39999 7.73201 9.53703 7.64044C9.67407 7.54887 9.83519 7.5 10 7.5C10.221 7.5 10.433 7.5878 10.5893 7.74408C10.7455 7.90036 10.8333 8.11232 10.8333 8.33333ZM20 10C20 11.9778 19.4135 13.9112 18.3147 15.5557C17.2159 17.2002 15.6541 18.4819 13.8268 19.2388C11.9996 19.9957 9.98891 20.1937 8.0491 19.8078C6.10929 19.422 4.32746 18.4696 2.92894 17.0711C1.53041 15.6725 0.578004 13.8907 0.192152 11.9509C-0.1937 10.0111 0.00433286 8.00043 0.761209 6.17316C1.51809 4.3459 2.79981 2.78412 4.4443 1.6853C6.08879 0.58649 8.02219 0 10 0C12.6513 0.00286757 15.1932 1.05736 17.0679 2.9321C18.9426 4.80684 19.9971 7.34871 20 10ZM12.5 8.33333C12.5019 7.87457 12.3775 7.42413 12.1405 7.03133C11.9035 6.63854 11.5629 6.31854 11.1562 6.10638C10.7494 5.89422 10.2921 5.79808 9.83434 5.82848C9.37659 5.85888 8.93602 6.01466 8.56089 6.27875C8.18575 6.54285 7.89053 6.90507 7.70753 7.32576C7.52453 7.74645 7.46082 8.20938 7.52337 8.66387C7.58593 9.11835 7.77234 9.54686 8.06218 9.90247C8.35203 10.2581 8.73414 10.5271 9.16667 10.68V13.3333C9.16667 13.5543 9.25447 13.7663 9.41075 13.9226C9.56703 14.0789 9.77899 14.1667 10 14.1667C10.221 14.1667 10.433 14.0789 10.5893 13.9226C10.7455 13.7663 10.8333 13.5543 10.8333 13.3333V10.68C11.3191 10.5083 11.7399 10.1906 12.0383 9.77058C12.3366 9.35052 12.4979 8.84855 12.5 8.33333Z" fill="#A5ABDE"/>
</svg>
