<svg width="16" height="16" viewBox="0 0 16 16" fill="none" xmlns="http://www.w3.org/2000/svg">
<path fill-rule="evenodd" clip-rule="evenodd" d="M8.00002 0.666656C3.95002 0.666656 0.666687 3.94999 0.666687 7.99999C0.666687 12.05 3.95002 15.3333 8.00002 15.3333C12.05 15.3333 15.3334 12.05 15.3334 7.99999C15.3334 3.94999 12.05 0.666656 8.00002 0.666656ZM11.1787 6.75999C11.2372 6.69309 11.2818 6.61515 11.3097 6.53077C11.3377 6.44639 11.3485 6.35727 11.3415 6.26865C11.3345 6.18003 11.3099 6.0937 11.2691 6.01474C11.2282 5.93578 11.172 5.86579 11.1037 5.80888C11.0354 5.75198 10.9564 5.7093 10.8714 5.68336C10.7864 5.65743 10.697 5.64877 10.6086 5.65788C10.5202 5.66699 10.4345 5.69369 10.3565 5.73641C10.2786 5.77914 10.2099 5.83702 10.1547 5.90666L7.28802 9.34599L5.80469 7.86199C5.67895 7.74055 5.51055 7.67336 5.33575 7.67487C5.16096 7.67639 4.99375 7.74651 4.87014 7.87011C4.74654 7.99372 4.67642 8.16092 4.6749 8.33572C4.67339 8.51052 4.74058 8.67892 4.86202 8.80466L6.86202 10.8047C6.92753 10.8701 7.00595 10.9212 7.0923 10.9547C7.17864 10.9882 7.27102 11.0033 7.36353 10.9991C7.45605 10.9949 7.54667 10.9715 7.62963 10.9303C7.71258 10.8891 7.78605 10.8311 7.84535 10.76L11.1787 6.75999Z" fill="#ED4C5C"/>
</svg>
