<svg width="36" height="36" viewBox="0 0 36 36" fill="none" xmlns="http://www.w3.org/2000/svg">
<rect width="36" height="36" rx="8" fill="#FFFBF5"/>
<path d="M7.23804 22.1943L8.50077 23.457C8.7686 23.7198 9.11613 23.8862 9.48878 23.9301C9.86143 23.974 10.2381 23.8929 10.5597 23.6995C10.879 23.5174 11.2492 23.4454 11.6135 23.4943C11.9778 23.5433 12.3159 23.7106 12.5758 23.9705C12.8357 24.2304 13.003 24.5685 13.052 24.9328C13.1009 25.297 13.0288 25.6673 12.8468 25.9866C12.6534 26.3082 12.5723 26.6848 12.6162 27.0575C12.6601 27.4302 12.8265 27.7777 13.0893 28.0455L14.352 29.3082C14.8237 29.7799 15.4634 30.0449 16.1305 30.0449C16.7976 30.0449 17.4373 29.7799 17.909 29.3082L20.2803 26.9369L17.909 24.5656C17.7518 24.4084 17.6634 24.1951 17.6634 23.9728C17.6634 23.7504 17.7517 23.5372 17.909 23.3799C18.0662 23.2227 18.2795 23.1344 18.5018 23.1344C18.7242 23.1344 18.9374 23.2227 19.0946 23.3799L21.466 25.7513L27.3943 19.823C28.1792 19.0362 28.62 17.9702 28.62 16.8588C28.62 15.7474 28.1792 14.6815 27.3943 13.8947L27.3172 13.8176C27.0494 13.5548 26.7018 13.3884 26.3292 13.3445C25.9565 13.3006 25.5799 13.3817 25.2583 13.5751C24.939 13.7572 24.5687 13.8292 24.2044 13.7803C23.8402 13.7313 23.5021 13.564 23.2422 13.3041C22.9823 13.0442 22.815 12.7061 22.766 12.3418C22.717 11.9776 22.7891 11.6073 22.9712 11.288C23.1645 10.9664 23.2457 10.5898 23.2018 10.2171C23.1579 9.84445 22.9915 9.49692 22.7287 9.22908L22.6516 9.15202C21.8648 8.36711 20.7988 7.9263 19.6875 7.9263C18.5761 7.9263 17.5101 8.36711 16.7233 9.15202L10.795 15.0803L13.1663 17.4516C13.3236 17.6089 13.4119 17.8221 13.4119 18.0445C13.4119 18.2668 13.3236 18.4801 13.1663 18.6373C13.0091 18.7945 12.7959 18.8829 12.5735 18.8829C12.3512 18.8829 12.1379 18.7945 11.9807 18.6373L9.60936 16.266L7.23804 18.6373C6.76635 19.109 6.50136 19.7487 6.50136 20.4158C6.50136 21.0829 6.76635 21.7226 7.23804 22.1943ZM15.5377 19.823L16.7233 21.0086C16.8805 21.1658 16.9689 21.3791 16.9689 21.6014C16.9689 21.8238 16.8805 22.0371 16.7233 22.1943C16.5661 22.3515 16.3528 22.4398 16.1305 22.4398C15.9081 22.4398 15.6949 22.3515 15.5377 22.1943L14.352 21.0086C14.1948 20.8514 14.1064 20.6381 14.1064 20.4158C14.1064 20.1934 14.1948 19.9802 14.352 19.823C14.5092 19.6657 14.7225 19.5774 14.9448 19.5774C15.1672 19.5774 15.3804 19.6657 15.5377 19.823Z" fill="#F8CD8C"/>
</svg>
