<svg width="36" height="36" viewBox="0 0 36 36" fill="none" xmlns="http://www.w3.org/2000/svg">
<rect width="36" height="36" rx="8" fill="#EDFFED"/>
<path d="M8 19C8 17.6868 8.25866 16.3864 8.7612 15.1732C9.26375 13.9599 10.0003 12.8575 10.9289 11.9289C11.8575 11.0003 12.9599 10.2638 14.1732 9.7612C15.3864 9.25866 16.6868 9 18 9C19.3132 9 20.6136 9.25866 21.8268 9.7612C23.0401 10.2638 24.1425 11.0003 25.0711 11.9289C25.9997 12.8575 26.7362 13.9599 27.2388 15.1732C27.7413 16.3864 28 17.6868 28 19L18 19L8 19Z" fill="#00BF13"/>
<rect x="5" y="20" width="27" height="2" rx="1" fill="#00BF13"/>
<circle cx="12" cy="25" r="2" fill="#00BF13"/>
<circle cx="18" cy="8" r="1" fill="#00BF13"/>
<circle cx="24" cy="25" r="2" fill="#00BF13"/>
</svg>
