<svg width="36" height="36" viewBox="0 0 36 36" fill="none" xmlns="http://www.w3.org/2000/svg">
<rect width="36" height="36" rx="8" fill="#FBFBFF"/>
<path d="M24.3637 22.5614C26.0527 20.9003 27 18.6588 27 16.323C27 13.9873 26.0527 11.7458 24.3637 10.0847C23.5317 9.26593 22.5407 8.61584 21.4483 8.17216C20.3559 7.72847 19.1838 7.5 17.9999 7.5C16.816 7.5 15.6439 7.72847 14.5515 8.17216C13.4591 8.61584 12.4681 9.26593 11.6361 10.0847C9.94315 11.7496 8.99563 13.9975 9.00002 16.3387C9.0044 18.6798 9.96032 20.9244 11.6595 22.5832L14.885 25.5049C15.7111 26.2989 16.825 26.7456 17.9867 26.7485C19.1483 26.7515 20.2647 26.3105 21.095 25.5206L24.3637 22.5614ZM19.2077 20.3179C18.8324 20.4986 18.4192 20.5926 18.0004 20.5926C17.5815 20.5926 17.1684 20.4986 16.793 20.3179L14.993 19.4429C14.5434 19.226 14.1653 18.8911 13.9014 18.476C13.6375 18.0609 13.4984 17.5823 13.5 17.0944V14.5C13.4982 14.012 13.637 13.5332 13.9008 13.118C14.1645 12.7028 14.5426 12.3676 14.9921 12.1506L16.7921 11.2756C17.1673 11.0943 17.5805 11 17.9995 11C18.4184 11 18.8316 11.0943 19.2068 11.2756L21.0068 12.1506C21.4565 12.3675 21.8348 12.7026 22.0987 13.1178C22.3626 13.5331 22.5016 14.0119 22.4999 14.5V17.0952C22.5015 17.5831 22.3626 18.0617 22.0988 18.4767C21.8351 18.8918 21.4571 19.2268 21.0077 19.4437L19.2077 20.3179ZM20.654 14.2322C20.6835 14.3186 20.699 14.409 20.6999 14.5V17.0952C20.7006 17.258 20.6543 17.4176 20.5663 17.5561C20.4784 17.6945 20.3522 17.8062 20.2022 17.8784L18.4022 18.7534C18.2771 18.8138 18.1392 18.8453 17.9995 18.8453C17.8597 18.8453 17.7219 18.8138 17.5967 18.7534L15.7967 17.8784C15.6468 17.806 15.5207 17.6941 15.4329 17.5555C15.345 17.4169 15.299 17.2571 15.2999 17.0944V14.5C15.3014 14.4107 15.3169 14.3222 15.3458 14.2375L17.3078 15.1912C17.5227 15.2957 17.7597 15.35 17.9999 15.35C18.2402 15.35 18.4771 15.2957 18.692 15.1912L20.654 14.2322ZM25.1998 27.625C25.1998 27.8571 25.105 28.0796 24.9362 28.2437C24.7675 28.4078 24.5385 28.5 24.2999 28.5H11.7C11.4613 28.5 11.2324 28.4078 11.0636 28.2437C10.8948 28.0796 10.8 27.8571 10.8 27.625C10.8 27.3929 10.8948 27.1704 11.0636 27.0063C11.2324 26.8422 11.4613 26.75 11.7 26.75H24.2999C24.5385 26.75 24.7675 26.8422 24.9362 27.0063C25.105 27.1704 25.1998 27.3929 25.1998 27.625Z" fill="#50429B"/>
</svg>
