<svg width="36" height="36" viewBox="0 0 36 36" fill="none" xmlns="http://www.w3.org/2000/svg">
<rect width="36" height="36" rx="8" fill="#FFFAF5"/>
<path d="M28.4808 21.9298V22.3673H15.3617C15.3075 21.8162 15.3687 21.2599 15.5414 20.7338C15.7142 20.2077 15.9947 19.7234 16.365 19.3118C16.7353 18.9002 17.1874 18.5703 17.6923 18.3433C18.1972 18.1162 18.7439 17.9969 19.2974 17.993H24.5451C25.5889 17.993 26.59 18.4078 27.3281 19.1461C28.0662 19.8844 28.4808 20.8857 28.4808 21.9298ZM23.4081 25.7171C23.2645 25.8128 23.0957 25.8639 22.9231 25.8639C22.7505 25.8639 22.5818 25.8128 22.4382 25.7171L20.0347 24.117H15.3617C15.3076 24.668 15.3689 25.2243 15.5417 25.7504C15.7145 26.2764 15.995 26.7606 16.3653 27.1722C16.7356 27.5838 17.1876 27.9136 17.6924 28.1407C18.1973 28.3678 18.7439 28.4872 19.2974 28.4913H24.5451C25.0987 28.4873 25.6454 28.3681 26.1503 28.141C26.6552 27.9139 27.1072 27.5841 27.4775 27.1725C27.8479 26.7609 28.1284 26.2766 28.3011 25.7505C28.4739 25.2244 28.5351 24.6681 28.4808 24.117H25.8133L23.4081 25.7171ZM13.6125 21.9298V24.5544C13.6126 26.0281 14.1875 27.4436 15.2148 28.5H13.2032C12.1377 28.4988 11.1093 28.1089 10.3107 27.4035C9.51213 26.6981 8.99813 25.7255 8.86509 24.6681L7.5418 14.1191C7.47372 13.7409 7.48895 13.3524 7.58642 12.9807C7.68389 12.6089 7.86126 12.2629 8.10616 11.9668C8.35106 11.6707 8.65759 11.4316 9.00438 11.2662C9.35116 11.1008 9.72985 11.013 10.114 11.009H15.9013L16.0526 9.79824C16.1321 9.1639 16.4403 8.58038 16.9194 8.15722C17.3985 7.73406 18.0155 7.50037 18.6546 7.5H21.484C21.7159 7.5 21.9384 7.59217 22.1024 7.75624C22.2664 7.92031 22.3586 8.14283 22.3586 8.37485C22.3586 8.60688 22.2664 8.8294 22.1024 8.99347C21.9384 9.15754 21.7159 9.24971 21.484 9.24971H18.6546C17.7013 9.24971 17.7564 10.3389 17.6628 11.0099H19.7347C20.1268 11.0127 20.5134 11.1028 20.8662 11.2738C21.2191 11.4448 21.5295 11.6922 21.7747 11.9982C22.02 12.3042 22.194 12.6611 22.2841 13.0428C22.3742 13.4245 22.3781 13.8215 22.2956 14.2049L22.0393 16.2433H19.2974C17.7901 16.2447 16.3449 16.8442 15.2791 17.9104C14.2133 18.9765 13.6139 20.4221 13.6125 21.9298ZM17.4433 12.7596L17.2272 14.4936H20.4983L20.5726 13.9031C20.6132 13.7713 20.6225 13.6319 20.5997 13.4959C20.5769 13.36 20.5226 13.2312 20.4412 13.12C20.3598 13.0087 20.2536 12.918 20.1309 12.8552C20.0082 12.7923 19.8726 12.759 19.7347 12.7579L17.4433 12.7596ZM15.4649 14.4936L15.6827 12.7561H10.114C9.9834 12.757 9.85461 12.787 9.737 12.8439C9.6194 12.9007 9.51593 12.9831 9.43411 13.085C9.35229 13.1868 9.29417 13.3056 9.26398 13.4328C9.23378 13.5599 9.23226 13.6922 9.25954 13.8199L9.347 14.4936H15.4649Z" fill="#FF8C21"/>
</svg>
