<svg width="36" height="36" viewBox="0 0 36 36" fill="none" xmlns="http://www.w3.org/2000/svg">
<rect width="36" height="36" rx="8" fill="#EAF0FF"/>
<path d="M24.4167 10H11.5833C10.3682 10.0013 9.20326 10.4231 8.34403 11.173C7.48481 11.9228 7.00146 12.9395 7 14H29C28.9985 12.9395 28.5152 11.9228 27.656 11.173C26.7967 10.4231 25.6318 10.0013 24.4167 10Z" fill="#376AED"/>
<path d="M7 21.9091C7.00146 22.9937 7.48481 24.0335 8.34403 24.8004C9.20326 25.5673 10.3682 25.9987 11.5833 26H24.4167C25.6318 25.9987 26.7967 25.5673 27.656 24.8004C28.5152 24.0335 28.9985 22.9937 29 21.9091V17H7V21.9091ZM13.4167 21.5C13.4167 21.7427 13.336 21.98 13.1849 22.1818C13.0339 22.3837 12.8191 22.541 12.5679 22.6339C12.3166 22.7267 12.0401 22.751 11.7734 22.7037C11.5067 22.6563 11.2617 22.5394 11.0694 22.3678C10.8771 22.1962 10.7461 21.9775 10.6931 21.7394C10.64 21.5014 10.6673 21.2546 10.7713 21.0303C10.8754 20.8061 11.0516 20.6144 11.2778 20.4796C11.5039 20.3447 11.7697 20.2727 12.0417 20.2727C12.4063 20.2727 12.7561 20.402 13.0139 20.6322C13.2718 20.8623 13.4167 21.1745 13.4167 21.5Z" fill="#376AED"/>
</svg>
