<svg width="36" height="36" viewBox="0 0 36 36" fill="none" xmlns="http://www.w3.org/2000/svg">
<rect width="36" height="36" rx="8" fill="#FFEBEF"/>
<path d="M20.7 14.3999H26.586C26.2718 13.5673 25.7836 12.8113 25.1541 12.1823L22.0185 9.0449C21.3888 8.41609 20.6326 7.92827 19.8 7.61389V13.4999C19.8 13.9969 20.2029 14.3999 20.7 14.3999Z" fill="#EC6A69"/>
<path d="M26.9784 16.2H20.7C19.2088 16.2 18 14.9911 18 13.4999V7.22152C17.855 7.21161 17.7102 7.19992 17.5634 7.19992H13.4999C11.0159 7.20292 9.00286 9.21591 8.99991 11.7V24.3001C9.00286 26.7841 11.0159 28.7971 13.4999 28.8001H22.5C24.984 28.7971 26.997 26.7841 27 24.3V16.6365C27 16.4898 26.9883 16.3449 26.9784 16.2Z" fill="#EC6A69"/>
</svg>
