<svg width="36" height="36" viewBox="0 0 36 36" fill="none" xmlns="http://www.w3.org/2000/svg">
<rect width="36" height="36" rx="8" fill="#F9F9FF"/>
<g clip-path="url(#clip0_2797_7539)">
<path d="M21.707 14.293C21.896 14.481 22 14.732 22 15C22 15.268 21.896 15.518 21.707 15.707L16 21.414C15.622 21.792 15.12 22 14.586 22H14V21.414C14 20.888 14.214 20.372 14.586 20L20.293 14.293C20.684 13.903 21.316 13.903 21.707 14.293ZM30 18.34V25C30 27.757 27.757 30 25 30H19.083C12.082 30 6.471 25.208 6.029 18.854C5.789 15.378 7.057 11.976 9.509 9.521C11.962 7.065 15.371 5.795 18.836 6.029C25.097 6.454 30 11.862 30 18.341V18.34ZM24 15C24 14.199 23.687 13.445 23.121 12.879C21.951 11.709 20.049 11.709 18.879 12.879L13.172 18.586C12.416 19.341 12 20.346 12 21.414V23C12 23.552 12.447 24 13 24H14.586C15.654 24 16.659 23.583 17.414 22.828L23.121 17.121C23.687 16.554 24 15.801 24 14.999V15Z" fill="#A5ABDE"/>
</g>
<defs>
<clipPath id="clip0_2797_7539">
<rect width="24" height="24" fill="white" transform="translate(6 6)"/>
</clipPath>
</defs>
</svg>
