<svg width="16" height="16" viewBox="0 0 16 16" fill="none" xmlns="http://www.w3.org/2000/svg">
<path d="M11.942 3.353L8.00001 7.295L4.05801 3.353C3.9632 3.26624 3.83857 3.21941 3.71008 3.22225C3.5816 3.2251 3.45917 3.27741 3.36829 3.36828C3.27742 3.45916 3.22511 3.58159 3.22226 3.71008C3.21941 3.83856 3.26625 3.96319 3.35301 4.058L7.29301 8L3.35201 11.941C3.30386 11.9869 3.26537 12.0419 3.23881 12.1029C3.21224 12.1639 3.19813 12.2295 3.1973 12.2961C3.19648 12.3626 3.20896 12.4286 3.23401 12.4902C3.25906 12.5518 3.29617 12.6078 3.34317 12.6548C3.39017 12.7019 3.4461 12.7391 3.50767 12.7642C3.56925 12.7894 3.63523 12.8019 3.70174 12.8012C3.76824 12.8005 3.83393 12.7865 3.89494 12.76C3.95596 12.7335 4.01106 12.6951 4.05701 12.647L8.00001 8.706L11.942 12.648C12.0368 12.7348 12.1615 12.7816 12.2899 12.7788C12.4184 12.7759 12.5409 12.7236 12.6317 12.6327C12.7226 12.5418 12.7749 12.4194 12.7778 12.2909C12.7806 12.1624 12.7338 12.0378 12.647 11.943L8.70501 8.001L12.647 4.058C12.6952 4.01212 12.7336 3.95707 12.7602 3.8961C12.7868 3.83512 12.8009 3.76945 12.8017 3.70295C12.8025 3.63644 12.7901 3.57044 12.765 3.50883C12.74 3.44722 12.7028 3.39124 12.6559 3.34417C12.6089 3.29711 12.5529 3.25992 12.4913 3.23478C12.4298 3.20964 12.3638 3.19707 12.2973 3.1978C12.2308 3.19853 12.1651 3.21255 12.1041 3.23903C12.0431 3.26551 11.988 3.30392 11.942 3.352V3.353Z" fill="#767676"/>
</svg>
