<svg width="16" height="16" viewBox="0 0 16 16" fill="none" xmlns="http://www.w3.org/2000/svg">
<path d="M8.55726 0.018612C7.4143 -0.0613607 6.2675 0.105109 5.19445 0.506757C4.1214 0.908404 3.14714 1.53586 2.33761 2.34666C1.52807 3.15747 0.902134 4.1327 0.502161 5.20637C0.102188 6.28005 -0.0624919 7.42711 0.0192641 8.56995C0.313264 12.8053 4.0546 15.9999 8.72193 15.9999H12.6666C13.5503 15.9989 14.3976 15.6474 15.0225 15.0225C15.6473 14.3976 15.9989 13.5503 15.9999 12.6666V8.22661C16.0248 6.17158 15.2713 4.18321 13.8908 2.66073C12.5103 1.13824 10.6049 0.19437 8.55726 0.018612ZM12.4666 6.47461L7.93793 10.9459C7.68803 11.1949 7.34967 11.3347 6.99693 11.3347C6.64419 11.3347 6.30583 11.1949 6.05593 10.9459L3.53326 8.47661C3.40684 8.35285 3.33477 8.18393 3.33289 8.00702C3.33102 7.83011 3.3995 7.6597 3.52326 7.53328C3.64703 7.40686 3.81595 7.33478 3.99286 7.33291C4.16977 7.33103 4.34018 7.39951 4.4666 7.52328L6.99526 9.99461L11.5326 5.52795C11.6606 5.41536 11.8268 5.35606 11.9971 5.36222C12.1674 5.36838 12.3289 5.43954 12.4484 5.56107C12.5679 5.6826 12.6363 5.84528 12.6395 6.01568C12.6428 6.18608 12.5807 6.35126 12.4659 6.47728L12.4666 6.47461Z" fill="#50429B"/>
</svg>
