<svg width="32" height="32" viewBox="0 0 32 32" fill="none" xmlns="http://www.w3.org/2000/svg">
<rect width="32" height="32" rx="8" fill="#FFE9E9"/>
<path d="M23.5001 9.33332H20.9167C20.518 7.39465 18.8126 6.0025 16.8334 6H15.1667C13.1874 6.0025 11.4821 7.39465 11.0834 9.33332H8.50007C8.03983 9.33332 7.66675 9.7064 7.66675 10.1666C7.66675 10.6269 8.03983 11 8.50007 11H9.33339V21.8333C9.33616 24.1334 11.2 25.9973 13.5001 26H18.5001C20.8001 25.9973 22.664 24.1334 22.6667 21.8333V11H23.5001C23.9603 11 24.3334 10.6269 24.3334 10.1667C24.3334 9.70644 23.9603 9.33332 23.5001 9.33332ZM15.1667 20.1667C15.1667 20.6269 14.7937 21 14.3334 21C13.8732 21 13.5001 20.6269 13.5001 20.1667V15.1667C13.5001 14.7064 13.8732 14.3334 14.3334 14.3334C14.7936 14.3334 15.1667 14.7064 15.1667 15.1667V20.1667H15.1667ZM18.5001 20.1667C18.5001 20.6269 18.127 21 17.6667 21C17.2065 21 16.8334 20.6269 16.8334 20.1667V15.1667C16.8334 14.7064 17.2065 14.3334 17.6667 14.3334C18.127 14.3334 18.5001 14.7064 18.5001 15.1667V20.1667ZM12.8092 9.33332C13.1637 8.33523 14.1076 7.66793 15.1667 7.66664H16.8334C17.8926 7.66793 18.8365 8.33523 19.1909 9.33332H12.8092Z" fill="#EC6A69"/>
</svg>
