<svg width="16" height="20" viewBox="0 0 16 20" fill="none" xmlns="http://www.w3.org/2000/svg">
<path d="M15.2 3.60001H12.72C12.3373 1.73889 10.7001 0.402424 8.8 0.400024H7.19998C5.29989 0.402424 3.66272 1.73889 3.27999 3.60001H0.800003C0.358178 3.60001 1.52588e-05 3.95818 1.52588e-05 4.4C1.52588e-05 4.84183 0.358178 5.20003 0.800003 5.20003H1.59999V15.6C1.60265 17.8081 3.39197 19.5974 5.60001 19.6H10.4C12.608 19.5974 14.3974 17.8081 14.4 15.6V5.20003H15.2C15.6418 5.20003 16 4.84186 16 4.40004C16 3.95821 15.6418 3.60001 15.2 3.60001ZM7.20002 14C7.20002 14.4419 6.84186 14.8 6.40003 14.8C5.95817 14.8 5.60001 14.4419 5.60001 14V9.20004C5.60001 8.75822 5.95817 8.40005 6.39999 8.40005C6.84182 8.40005 7.19998 8.75822 7.19998 9.20004V14H7.20002ZM10.4 14C10.4 14.4419 10.0418 14.8 9.60002 14.8C9.1582 14.8 8.80003 14.4419 8.80003 14V9.20004C8.80003 8.75822 9.1582 8.40005 9.60002 8.40005C10.0418 8.40005 10.4 8.75822 10.4 9.20004V14ZM4.93682 3.60001C5.27709 2.64185 6.18324 2.00124 7.20002 2H8.80003C9.81681 2.00124 10.723 2.64185 11.0632 3.60001H4.93682Z" fill="#EC6A69"/>
</svg>
