<svg width="53" height="45" viewBox="0 0 53 45" fill="none" xmlns="http://www.w3.org/2000/svg">
<rect width="36" height="36" rx="10" fill="#E6F0FF"/>
<g filter="url(#filter0_d_4812_11938)">
<path d="M40.9145 7.00048C45.1132 7.0109 48.3957 10.7889 47.9647 15.068C47.7092 17.6091 46.6846 19.8226 45.343 21.9119C44.247 23.6048 42.9723 25.1673 41.5422 26.5708C40.9908 27.1191 40.8282 27.1239 40.2869 26.5821C38.075 24.364 36.1737 21.9109 34.8908 18.9938C34.2476 17.5391 33.8441 16.0218 33.8157 14.4155C33.7394 10.3637 36.9713 6.99101 40.9145 7.00048ZM40.9081 17.5495C41.5351 17.5474 42.1474 17.3533 42.6672 16.9919C43.187 16.6305 43.5908 16.1181 43.8276 15.5196C44.0643 14.9212 44.1231 14.2638 43.9967 13.6309C43.8702 12.9979 43.5641 12.418 43.1173 11.9646C42.6705 11.5113 42.103 11.205 41.487 11.0847C40.8709 10.9643 40.2341 11.0354 39.6573 11.2887C39.0805 11.5421 38.5897 11.9664 38.2473 12.5077C37.9049 13.0491 37.7262 13.6831 37.7341 14.3293C37.7452 15.188 38.0842 16.0075 38.6777 16.6103C39.2711 17.2131 40.0712 17.5505 40.9044 17.5495H40.9081Z" fill="url(#paint0_linear_4812_11938)"/>
<path d="M28.2125 37.7394H16.1025C16.5335 34.8336 18.1187 33.0237 20.8406 32.2101C20.78 31.8938 20.7193 31.5831 20.6569 31.2725C20.4979 30.4305 20.9785 29.8205 21.8065 29.812C22.0592 29.812 22.3119 29.812 22.5646 29.812C23.3227 29.8253 23.7997 30.4039 23.682 31.1711C23.6278 31.5178 23.5617 31.8625 23.4982 32.229C24.9796 32.6079 26.1751 33.394 27.0674 34.6404C27.7175 35.5457 28.1136 36.6177 28.2125 37.7394Z" fill="url(#paint1_linear_4812_11938)"/>
<path d="M15.5465 40.0001C15.2447 40.0001 15 39.7555 15 39.4537C15 39.1518 15.2447 38.9072 15.5465 38.9072H28.7478C29.0496 38.9072 29.2943 39.1518 29.2943 39.4537C29.2943 39.7555 29.0496 40.0001 28.7478 40.0001H15.5465Z" fill="url(#paint2_linear_4812_11938)"/>
<path d="M24.8168 24.1754C24.9266 23.8793 25.2575 23.7305 25.5518 23.8449L28.6218 25.0383C28.9088 25.1499 29.0527 25.4728 28.9458 25.7615C28.8363 26.0574 28.5063 26.2046 28.2122 26.0905L25.1424 24.8991C24.8544 24.7873 24.7094 24.465 24.8168 24.1754Z" fill="url(#paint3_linear_4812_11938)"/>
<path d="M18.8205 18.734C18.5344 18.7332 18.2918 18.5138 18.3042 18.228C18.3647 16.8302 19.1797 15.5316 20.3702 14.9275C20.6527 14.7841 20.9751 14.9478 21.0726 15.2493C21.1643 15.5328 21.0248 15.842 20.7704 15.9972C19.9628 16.4898 19.5147 17.2113 19.4114 18.1668C19.3779 18.4767 19.1322 18.7348 18.8205 18.734Z" fill="url(#paint4_linear_4812_11938)"/>
<path d="M35.1087 28.1758C35.0003 28.4736 34.6669 28.6266 34.3714 28.5119L31.3035 27.3206C31.018 27.2097 30.8731 26.8913 30.9771 26.6033C31.0847 26.3051 31.4167 26.1542 31.7121 26.2691L34.7824 27.4631C35.0673 27.5739 35.2134 27.8886 35.1087 28.1758Z" fill="url(#paint5_linear_4812_11938)"/>
<path d="M37.0494 37.7138C36.7479 37.7138 36.5034 37.4693 36.5034 37.1678C36.5034 36.8662 36.7479 36.6218 37.0494 36.6218H40.3448C40.614 36.6218 40.8393 36.7938 40.8807 37.0597C40.9322 37.3908 40.6799 37.7138 40.3448 37.7138H37.0494Z" fill="url(#paint6_linear_4812_11938)"/>
<path d="M23.8119 15.6052C23.513 15.6052 23.2706 15.3629 23.2706 15.064C23.2706 14.765 23.513 14.5227 23.8119 14.5227H27.1036C27.4025 14.5227 27.6448 14.765 27.6448 15.064C27.6448 15.3629 27.4025 15.6052 27.1036 15.6052H23.8119Z" fill="url(#paint7_linear_4812_11938)"/>
<path d="M43.5534 36.0288C43.3778 36.2869 43.0169 36.2907 42.7895 36.0768C42.5743 35.8745 42.5516 35.545 42.6992 35.2892C43.182 34.4518 43.2412 33.591 42.8639 32.6896C42.749 32.4153 42.8136 32.0889 43.0544 31.9144C43.2998 31.7364 43.6464 31.7754 43.7922 32.0411C44.4252 33.1946 44.3229 34.8973 43.5534 36.0288Z" fill="url(#paint8_linear_4812_11938)"/>
<path d="M33.7235 36.6455C34.025 36.6455 34.2695 36.8899 34.2695 37.1915C34.2695 37.493 34.025 37.7375 33.7235 37.7375H30.4477C30.1462 37.7375 29.9017 37.493 29.9017 37.1915C29.9017 36.8899 30.1462 36.6455 30.4477 36.6455H33.7235Z" fill="url(#paint9_linear_4812_11938)"/>
<path d="M37.1659 29.0097C37.2749 28.7128 37.6064 28.5631 37.9012 28.6777L40.9692 29.8704C41.2551 29.9816 41.3992 30.3018 41.2939 30.5899C41.1857 30.886 40.8558 31.035 40.5619 30.921L37.4922 29.7313C37.2049 29.6199 37.0598 29.299 37.1659 29.0097Z" fill="url(#paint10_linear_4812_11938)"/>
<path d="M22.4201 22.6331C22.7018 22.7393 22.8333 23.0503 22.7291 23.3328C22.6157 23.6402 22.2679 23.7967 21.9633 23.6758C21.4026 23.4533 20.855 23.2404 20.3271 22.9852C19.7314 22.6997 19.2619 22.2612 18.9144 21.6797C18.7646 21.429 18.883 21.1138 19.1454 20.9857C19.4256 20.8488 19.758 20.9809 19.9406 21.2337C20.5367 22.0591 21.506 22.2885 22.4201 22.6331Z" fill="url(#paint11_linear_4812_11938)"/>
<path d="M32.6068 15.0663C32.6068 15.3676 32.3626 15.6119 32.0613 15.6119H30.4406C30.1393 15.6119 29.895 15.3676 29.895 15.0663C29.895 14.765 30.1393 14.5208 30.4406 14.5208H32.0613C32.3626 14.5208 32.6068 14.765 32.6068 15.0663Z" fill="url(#paint12_linear_4812_11938)"/>
</g>
<defs>
<filter id="filter0_d_4812_11938" x="11" y="4.00046" width="41.0028" height="40.9997" filterUnits="userSpaceOnUse" color-interpolation-filters="sRGB">
<feFlood flood-opacity="0" result="BackgroundImageFix"/>
<feColorMatrix in="SourceAlpha" type="matrix" values="0 0 0 0 0 0 0 0 0 0 0 0 0 0 0 0 0 0 127 0" result="hardAlpha"/>
<feOffset dy="1"/>
<feGaussianBlur stdDeviation="2"/>
<feComposite in2="hardAlpha" operator="out"/>
<feColorMatrix type="matrix" values="0 0 0 0 0.192157 0 0 0 0 0.239216 0 0 0 0 0.682353 0 0 0 0.25 0"/>
<feBlend mode="normal" in2="BackgroundImageFix" result="effect1_dropShadow_4812_11938"/>
<feBlend mode="normal" in="SourceGraphic" in2="effect1_dropShadow_4812_11938" result="shape"/>
</filter>
<linearGradient id="paint0_linear_4812_11938" x1="36.2137" y1="8.17921" x2="45.0529" y2="23.5004" gradientUnits="userSpaceOnUse">
<stop stop-color="#3C72FF"/>
<stop offset="1" stop-color="#124BDD"/>
</linearGradient>
<linearGradient id="paint1_linear_4812_11938" x1="19.1246" y1="31.161" x2="27.3745" y2="37.6431" gradientUnits="userSpaceOnUse">
<stop stop-color="#3C72FF"/>
<stop offset="1" stop-color="#124BDD"/>
</linearGradient>
<linearGradient id="paint2_linear_4812_11938" x1="22.1471" y1="38.9072" x2="22.1471" y2="40.0001" gradientUnits="userSpaceOnUse">
<stop stop-color="#3C72FF"/>
<stop offset="1" stop-color="#124BDD"/>
</linearGradient>
<linearGradient id="paint3_linear_4812_11938" x1="26.881" y1="23.6368" x2="26.881" y2="26.2982" gradientUnits="userSpaceOnUse">
<stop stop-color="#3C72FF"/>
<stop offset="1" stop-color="#124BDD"/>
</linearGradient>
<linearGradient id="paint4_linear_4812_11938" x1="19.7682" y1="14.714" x2="19.7682" y2="18.7355" gradientUnits="userSpaceOnUse">
<stop stop-color="#3C72FF"/>
<stop offset="1" stop-color="#124BDD"/>
</linearGradient>
<linearGradient id="paint5_linear_4812_11938" x1="33.042" y1="26.0595" x2="33.042" y2="28.7209" gradientUnits="userSpaceOnUse">
<stop stop-color="#3C72FF"/>
<stop offset="1" stop-color="#124BDD"/>
</linearGradient>
<linearGradient id="paint6_linear_4812_11938" x1="38.7429" y1="36.6218" x2="38.7429" y2="37.7138" gradientUnits="userSpaceOnUse">
<stop stop-color="#3C72FF"/>
<stop offset="1" stop-color="#124BDD"/>
</linearGradient>
<linearGradient id="paint7_linear_4812_11938" x1="25.4577" y1="14.5227" x2="25.4577" y2="15.6052" gradientUnits="userSpaceOnUse">
<stop stop-color="#3C72FF"/>
<stop offset="1" stop-color="#124BDD"/>
</linearGradient>
<linearGradient id="paint8_linear_4812_11938" x1="43.3088" y1="31.5992" x2="43.3088" y2="36.4608" gradientUnits="userSpaceOnUse">
<stop stop-color="#3C72FF"/>
<stop offset="1" stop-color="#124BDD"/>
</linearGradient>
<linearGradient id="paint9_linear_4812_11938" x1="32.0856" y1="36.6455" x2="32.0856" y2="37.7375" gradientUnits="userSpaceOnUse">
<stop stop-color="#3C72FF"/>
<stop offset="1" stop-color="#124BDD"/>
</linearGradient>
<linearGradient id="paint10_linear_4812_11938" x1="39.2294" y1="28.469" x2="39.2294" y2="31.1285" gradientUnits="userSpaceOnUse">
<stop stop-color="#3C72FF"/>
<stop offset="1" stop-color="#124BDD"/>
</linearGradient>
<linearGradient id="paint11_linear_4812_11938" x1="20.794" y1="20.7339" x2="20.794" y2="23.9001" gradientUnits="userSpaceOnUse">
<stop stop-color="#3C72FF"/>
<stop offset="1" stop-color="#124BDD"/>
</linearGradient>
<linearGradient id="paint12_linear_4812_11938" x1="31.2509" y1="14.5208" x2="31.2509" y2="15.6119" gradientUnits="userSpaceOnUse">
<stop stop-color="#3C72FF"/>
<stop offset="1" stop-color="#124BDD"/>
</linearGradient>
</defs>
</svg>
