<svg width="16" height="9" viewBox="0 0 16 9" fill="none" xmlns="http://www.w3.org/2000/svg">
<path d="M15.061 0.854002C14.9217 0.714612 14.7563 0.604037 14.5743 0.528594C14.3922 0.453152 14.1971 0.414322 14 0.414322C13.8029 0.414322 13.6078 0.453152 13.4258 0.528594C13.2437 0.604037 13.0783 0.714612 12.939 0.854002L8.353 5.439C8.25924 5.53274 8.13209 5.58539 7.99951 5.58539C7.86692 5.58539 7.73977 5.53274 7.646 5.439L3.061 0.854002C2.77974 0.572607 2.39822 0.414468 2.00036 0.414374C1.6025 0.414281 1.2209 0.572239 0.939505 0.853501C0.65811 1.13476 0.499972 1.51629 0.499878 1.91415C0.499784 2.31201 0.657743 2.69361 0.939005 2.975L5.525 7.561C5.85001 7.88604 6.23587 8.14388 6.66053 8.3198C7.08519 8.49571 7.54035 8.58625 8 8.58625C8.45966 8.58625 8.91482 8.49571 9.33948 8.3198C9.76414 8.14388 10.15 7.88604 10.475 7.561L15.061 2.975C15.3422 2.69371 15.5002 2.31225 15.5002 1.9145C15.5002 1.51676 15.3422 1.13529 15.061 0.854002Z" fill="white"/>
</svg>
