<svg width="52" height="44" viewBox="0 0 52 44" fill="none" xmlns="http://www.w3.org/2000/svg">
<rect width="36" height="36" rx="10" fill="#ECF1F9"/>
<g filter="url(#filter0_d_4812_11908)">
<path d="M40.9446 39.0002C40.9444 39.5524 40.4968 40 39.9446 40H17.0194C16.4671 40 16.0194 39.5523 16.0194 39V23.2499C16.0194 22.7245 16.4568 22.2699 16.914 22.5289C16.9991 22.5771 17.0812 22.6321 17.1605 22.6925C17.383 22.8622 17.5798 23.0577 17.7872 23.2436C18.661 24.0236 19.7016 24.0303 20.5743 23.2579C20.7443 23.1073 20.9069 22.949 21.0812 22.8012C21.8779 22.1213 22.9324 22.127 23.726 22.8145C23.926 22.989 24.1131 23.1759 24.3174 23.3476C25.0788 23.9883 26.1077 23.9902 26.8723 23.3476C27.0766 23.1769 27.2648 22.99 27.4659 22.8155C28.2733 22.1156 29.3267 22.1165 30.1395 22.8155C30.3213 22.9728 30.4925 23.1406 30.6743 23.298C31.4732 23.9921 32.5169 23.9979 33.3169 23.3113C33.5308 23.1301 33.7233 22.9299 33.9383 22.7545C34.6869 22.1337 35.7104 22.1318 36.4654 22.7545C36.6718 22.9232 36.8579 23.1111 37.0579 23.2865C37.876 24.0007 38.8974 24.0103 39.7315 23.3085C39.9347 23.1368 40.1176 22.9452 40.3272 22.7812C40.5798 22.5836 40.9485 22.7992 40.9484 23.1198L40.9446 39.0002Z" fill="url(#paint0_linear_4812_11908)"/>
<path d="M43.2621 39.9819C42.7098 39.9819 42.2621 39.5342 42.2621 38.9819V23.1443C42.2621 22.8141 42.6406 22.5913 42.9038 22.7907C43.1444 22.9814 43.3529 23.1988 43.5904 23.3895C44.3229 23.9788 45.324 23.9759 46.0555 23.3809C46.2918 23.1902 46.5036 22.9738 46.7356 22.7774C46.841 22.688 46.9511 22.6091 47.0677 22.5429C47.5399 22.2747 48.004 22.7464 48.004 23.2894V38.9819C48.004 39.5342 47.5563 39.9819 47.004 39.9819H43.2621Z" fill="url(#paint1_linear_4812_11908)"/>
<path d="M33.6548 20.9817C33.6895 20.4113 33.8077 19.8457 34.0078 19.2992L34.0078 19.2992L34.009 19.2959C34.4043 18.1928 35.0172 17.2394 35.9993 16.5039L33.6548 20.9817ZM33.6548 20.9817C34.2704 20.7157 34.9584 20.6121 35.6387 20.6849C36.5086 20.778 37.3202 21.1549 37.9135 21.7571L37.9136 21.7572C38.0957 21.9421 38.2199 22.0543 38.3144 22.12C38.3634 22.154 38.3917 22.1665 38.4041 22.1708C38.4166 22.1665 38.4454 22.1539 38.4952 22.1194C38.5907 22.0532 38.7167 21.9397 38.9009 21.7521L38.902 21.751C40.3603 20.2737 42.8926 20.3141 44.3492 21.7736M33.6548 20.9817L44.9225 18.0794C45.6392 19.1766 45.7644 20.3714 45.442 21.6102L45.9259 21.7361M44.3492 21.7736C44.4036 21.8279 44.4479 21.8738 44.4858 21.9131C44.5863 22.0172 44.6419 22.0748 44.7208 22.1196L44.7209 22.1197C44.7243 22.1216 44.7401 22.1297 44.7679 22.1396C44.7789 22.1436 44.7901 22.1472 44.8011 22.1505C44.8418 22.1211 44.8825 22.0923 44.9214 22.0647C44.9388 22.0523 44.9558 22.0403 44.9724 22.0285C45.07 21.959 45.1569 21.8957 45.2334 21.833C45.3104 21.7699 45.365 21.7169 45.4014 21.6724C45.4378 21.6276 45.4427 21.6074 45.4421 21.61L45.9259 21.7361M44.3492 21.7736C44.3493 21.7737 44.3494 21.7738 44.3495 21.7739L43.9955 22.1271M44.3492 21.7736C44.3491 21.7735 44.349 21.7734 44.3489 21.7733L43.9955 22.1271M45.9259 21.7361C46.2788 20.3802 46.1451 19.0367 45.3409 17.8057L43.9955 22.1271M45.9259 21.7361C45.8527 22.017 45.5199 22.2531 45.208 22.4744C45.1282 22.531 45.0497 22.5867 44.9773 22.642C44.8939 22.7059 44.6126 22.6334 44.4736 22.5542C44.3269 22.4708 44.2082 22.3472 44.0907 22.2248C44.0591 22.1919 44.0275 22.159 43.9955 22.1271M44.1445 14.2531C44.0718 14.2432 43.9984 14.2375 43.9248 14.2359L43.9164 14.2357L43.9164 14.2356C42.4392 14.1788 41.338 14.9261 40.886 16.2317C40.857 16.3178 40.8247 16.4064 40.7924 16.495C40.7794 16.5305 40.7665 16.5659 40.7538 16.6012L40.4667 17.3976L39.9078 16.7617C39.2976 16.0672 38.6216 15.7998 37.9689 15.7918C37.3012 15.7835 36.6094 16.0473 35.9994 16.5038L44.1445 14.2531ZM44.1445 14.2531C44.3076 14.2766 44.377 14.3226 44.3963 14.3398C44.3962 14.341 44.3961 14.3424 44.3959 14.344C44.3945 14.3542 44.3927 14.3599 44.3917 14.3624C44.3908 14.3631 44.3893 14.3642 44.387 14.3656C44.3691 14.3762 44.2935 14.4086 44.1226 14.3884L44.1218 14.3883C42.5272 14.2028 41.3197 15.2105 41.1017 16.5971L40.9959 17.2704L41.6698 17.1692C41.8154 17.1474 41.975 17.1173 42.1226 17.0894C42.2045 17.0739 42.2827 17.0592 42.3528 17.0469C42.5681 17.0092 42.7603 16.9841 42.9432 16.9841C43.8425 16.9841 44.4746 17.3947 44.9224 18.0793L44.1445 14.2531ZM38.3966 22.1729C38.3966 22.1729 38.3973 22.1727 38.3986 22.1725L38.3966 22.1729ZM38.4096 22.1725C38.4109 22.1727 38.4116 22.1729 38.4116 22.1729L38.4096 22.1725Z" fill="white" stroke="url(#paint2_linear_4812_11908)"/>
<path d="M29.3087 13.4456C29.297 13.1455 29.2972 12.8494 29.2987 12.533H32.127V13.7207V14.0813L32.4692 14.1951C33.1458 14.4203 33.7333 14.7096 34.2292 15.1019C32.1947 16.9221 31.3258 19.1235 31.3858 21.6247C31.0758 21.3469 30.7147 21.1224 30.3203 20.9603C29.8462 20.7654 29.3328 20.6644 28.8144 20.6627C28.2959 20.6609 27.7817 20.7584 27.3061 20.95L27.4929 21.4138L27.3061 20.9501C26.8313 21.1413 26.4037 21.4228 26.0541 21.7788C25.9913 21.8416 25.9309 21.9008 25.8691 21.9616C25.8265 22.0035 25.7831 22.0461 25.7377 22.091C25.672 22.1552 25.6288 22.1767 25.6112 22.1824C25.6087 22.1832 25.6071 22.1836 25.6062 22.1837C25.6041 22.1833 25.5985 22.1819 25.5888 22.1774L25.5732 22.1703L25.5573 22.1642C25.5108 22.1465 25.4816 22.1202 25.4664 22.0981C25.452 22.0772 25.4493 22.0599 25.4502 22.0474L25.4511 22.0349L25.4514 22.0223C25.4657 21.3494 25.4634 20.6612 25.4611 19.9805C25.4595 19.4986 25.4579 19.0204 25.4622 18.554L25.4622 18.5521C25.4727 16.6448 26.6474 15.0481 28.7102 14.2994L28.7112 14.299C28.851 14.2479 29.0328 14.1617 29.1616 13.9843C29.2971 13.7976 29.3136 13.5949 29.3088 13.4486L29.3088 13.4486L29.3087 13.4456Z" fill="white" stroke="url(#paint3_linear_4812_11908)"/>
<path d="M28.6909 9.66854H32.7505V10.3515H28.6909V9.66854Z" stroke="url(#paint4_linear_4812_11908)"/>
<mask id="path-7-inside-1_4812_11908" fill="white">
<path fill-rule="evenodd" clip-rule="evenodd" d="M23.6759 21.2612C23.4808 21.2562 23.2881 21.2463 23.0974 21.2365H23.0974C22.6695 21.2146 22.252 21.1932 21.8407 21.2288C21.0846 21.2927 20.4707 21.6579 19.9691 22.167C19.8565 22.2846 19.7366 22.3963 19.6098 22.5017C19.3168 22.7392 19.0676 22.7325 18.7628 22.5017C18.597 22.3755 18.4302 22.25 18.2633 22.1246L18.2632 22.1245L18.2632 22.1245C17.964 21.8996 17.6649 21.6748 17.3725 21.4452C17.2983 21.3802 17.247 21.2974 17.2249 21.2068C16.4549 18.3043 15.8923 15.3779 16.0175 12.3857C16.0529 11.5623 16.2372 10.7412 16.4198 9.92727C16.4409 9.83349 16.4619 9.73982 16.4827 9.64624C16.5586 9.30869 16.7682 8.97877 16.9864 8.68603C17.4965 8.00712 18.2569 7.79544 19.0333 8.21594C19.6688 8.55989 20.2407 8.98964 20.7284 9.48986C22.2503 11.0651 23.2107 12.9378 24.1507 14.822C24.401 15.3245 24.478 15.7526 24.1764 16.2838C23.7753 16.9875 23.677 17.7799 23.6802 18.5722C23.6797 18.9567 23.6789 19.3408 23.6781 19.7185C23.677 20.2513 23.6759 20.7713 23.6759 21.2612Z"/>
</mask>
<path fill-rule="evenodd" clip-rule="evenodd" d="M23.6759 21.2612C23.4808 21.2562 23.2881 21.2463 23.0974 21.2365H23.0974C22.6695 21.2146 22.252 21.1932 21.8407 21.2288C21.0846 21.2927 20.4707 21.6579 19.9691 22.167C19.8565 22.2846 19.7366 22.3963 19.6098 22.5017C19.3168 22.7392 19.0676 22.7325 18.7628 22.5017C18.597 22.3755 18.4302 22.25 18.2633 22.1246L18.2632 22.1245L18.2632 22.1245C17.964 21.8996 17.6649 21.6748 17.3725 21.4452C17.2983 21.3802 17.247 21.2974 17.2249 21.2068C16.4549 18.3043 15.8923 15.3779 16.0175 12.3857C16.0529 11.5623 16.2372 10.7412 16.4198 9.92727C16.4409 9.83349 16.4619 9.73982 16.4827 9.64624C16.5586 9.30869 16.7682 8.97877 16.9864 8.68603C17.4965 8.00712 18.2569 7.79544 19.0333 8.21594C19.6688 8.55989 20.2407 8.98964 20.7284 9.48986C22.2503 11.0651 23.2107 12.9378 24.1507 14.822C24.401 15.3245 24.478 15.7526 24.1764 16.2838C23.7753 16.9875 23.677 17.7799 23.6802 18.5722C23.6797 18.9567 23.6789 19.3408 23.6781 19.7185C23.677 20.2513 23.6759 20.7713 23.6759 21.2612Z" fill="white"/>
<path d="M23.0974 21.2365L23.1487 20.2378L23.1231 20.2365H23.0974V21.2365ZM23.6759 21.2612L23.6503 22.2609L24.6759 22.2871V21.2612H23.6759ZM23.0974 21.2365L23.0462 22.2352L23.0718 22.2365H23.0974V21.2365ZM21.8407 21.2288L21.9249 22.2252L21.927 22.225L21.8407 21.2288ZM19.9691 22.167L19.2566 21.4652L19.247 21.4753L19.9691 22.167ZM19.6098 22.5017L20.2394 23.2788L20.2491 23.2707L19.6098 22.5017ZM18.7628 22.5017L18.1567 23.2972L18.1592 23.299L18.7628 22.5017ZM18.2633 22.1246L17.6573 22.9201L17.6625 22.924L18.2633 22.1246ZM18.2632 22.1245L18.8693 21.3291L18.8604 21.3224L18.8514 21.3158L18.2632 22.1245ZM18.2632 22.1245L17.6623 22.9238L17.6686 22.9286L17.675 22.9332L18.2632 22.1245ZM17.3725 21.4452L16.7133 22.1973L16.7337 22.2151L16.7551 22.2319L17.3725 21.4452ZM17.2249 21.2068L18.1962 20.9692L18.1939 20.9598L18.1914 20.9504L17.2249 21.2068ZM16.0175 12.3857L15.0184 12.3427L15.0183 12.344L16.0175 12.3857ZM16.4198 9.92727L15.4441 9.70832L16.4198 9.92727ZM16.4827 9.64624L15.507 9.42677L15.5064 9.42956L16.4827 9.64624ZM16.9864 8.68603L16.1869 8.08531L16.1846 8.08846L16.9864 8.68603ZM19.0333 8.21594L18.5571 9.09526L18.5574 9.0954L19.0333 8.21594ZM20.7284 9.48986L21.4476 8.79504L21.4444 8.79172L20.7284 9.48986ZM24.1507 14.822L25.0459 14.3762L25.0455 14.3756L24.1507 14.822ZM24.1764 16.2838L25.0452 16.7789L25.046 16.7775L24.1764 16.2838ZM23.6802 18.5722L24.6802 18.5734L24.6802 18.5682L23.6802 18.5722ZM23.6781 19.7185L22.6781 19.7164L23.6781 19.7185ZM23.0462 22.2352C23.2348 22.2449 23.4402 22.2555 23.6503 22.2609L23.7015 20.2615C23.5213 20.2569 23.3413 20.2477 23.1487 20.2378L23.0462 22.2352ZM23.0974 22.2365H23.0974V20.2365H23.0974V22.2365ZM21.927 22.225C22.2578 22.1964 22.6056 22.2126 23.0462 22.2352L23.1487 20.2378C22.7335 20.2165 22.2462 20.1899 21.7544 20.2325L21.927 22.225ZM20.6815 22.8688C21.0625 22.482 21.4657 22.264 21.9249 22.2252L21.7565 20.2323C20.7034 20.3213 19.8789 20.8337 19.2567 21.4653L20.6815 22.8688ZM20.2491 23.2707C20.4046 23.1414 20.5522 23.0039 20.6913 22.8588L19.247 21.4753C19.1609 21.5652 19.0686 21.6512 18.9705 21.7328L20.2491 23.2707ZM18.1592 23.299C18.4023 23.4831 18.7482 23.6746 19.1846 23.6773C19.6315 23.68 19.9855 23.4844 20.2393 23.2787L18.9802 21.7248C18.9411 21.7565 19.0239 21.6763 19.1968 21.6773C19.3592 21.6783 19.4281 21.7512 19.3664 21.7045L18.1592 23.299ZM17.6625 22.924C17.8297 23.0497 17.994 23.1732 18.1567 23.2972L19.3688 21.7063C19.2001 21.5777 19.0306 21.4504 18.8642 21.3253L17.6625 22.924ZM17.6572 22.92L17.6573 22.9201L18.8694 21.3292L18.8693 21.3291L17.6572 22.92ZM17.675 22.9332L17.6751 22.9333L18.8514 21.3158L18.8514 21.3158L17.675 22.9332ZM16.7551 22.2319C17.0571 22.4689 17.3645 22.7 17.6623 22.9238L18.8641 21.3252C18.5635 21.0992 18.2728 20.8806 17.9899 20.6586L16.7551 22.2319ZM16.2535 21.4445C16.3274 21.7463 16.4942 22.0052 16.7133 22.1973L18.0316 20.6932C18.1025 20.7553 18.1667 20.8485 18.1962 20.9692L16.2535 21.4445ZM15.0183 12.344C14.887 15.4841 15.4785 18.5238 16.2583 21.4633L18.1914 20.9504C17.4312 18.0848 16.8976 15.2717 17.0166 12.4275L15.0183 12.344ZM15.4441 9.70832C15.265 10.5063 15.0584 11.4151 15.0184 12.3427L17.0165 12.4288C17.0475 11.7096 17.2093 10.9762 17.3956 10.1462L15.4441 9.70832ZM15.5064 9.42956C15.486 9.52181 15.4652 9.61435 15.4441 9.70832L17.3956 10.1462C17.4166 10.0526 17.4379 9.95782 17.4589 9.86292L15.5064 9.42956ZM16.1846 8.08846C15.9535 8.39847 15.6321 8.871 15.5071 9.42677L17.4583 9.86571C17.4851 9.74638 17.5829 9.55907 17.7882 9.28361L16.1846 8.08846ZM19.5096 7.33662C18.932 7.0238 18.2952 6.91609 17.674 7.06695C17.0597 7.21615 16.5555 7.59481 16.1869 8.08532L17.7859 9.28675C17.9274 9.09835 18.0585 9.03171 18.146 9.01046C18.2266 8.99088 18.3583 8.98758 18.5571 9.09526L19.5096 7.33662ZM21.4444 8.79172C20.8838 8.21686 20.2304 7.72678 19.5093 7.33649L18.5574 9.0954C19.1072 9.39301 19.5975 9.76242 20.0125 10.188L21.4444 8.79172ZM25.0455 14.3756C24.1108 12.502 23.0905 10.4955 21.4476 8.79505L20.0093 10.1847C21.4101 11.6347 22.3106 13.3737 23.2559 15.2684L25.0455 14.3756ZM25.046 16.7775C25.2782 16.3686 25.3936 15.9404 25.369 15.4879C25.3456 15.0574 25.199 14.6837 25.0459 14.3762L23.2556 15.2678C23.3527 15.4628 23.3697 15.5544 23.372 15.5964C23.3731 15.6164 23.3762 15.6678 23.3068 15.79L25.046 16.7775ZM24.6802 18.5682C24.6772 17.848 24.7705 17.261 25.0452 16.7789L23.3076 15.7886C22.7802 16.714 22.6767 17.7117 22.6802 18.5763L24.6802 18.5682ZM24.6781 19.7206C24.6789 19.343 24.6797 18.9584 24.6802 18.5734L22.6802 18.5711C22.6797 18.955 22.6789 19.3386 22.6781 19.7164L24.6781 19.7206ZM24.6759 21.2612C24.6759 20.7725 24.677 20.2536 24.6781 19.7206L22.6781 19.7164C22.677 20.249 22.6759 20.77 22.6759 21.2612H24.6759Z" fill="url(#paint5_linear_4812_11908)" mask="url(#path-7-inside-1_4812_11908)"/>
</g>
<defs>
<filter id="filter0_d_4812_11908" x="13" y="5.99966" width="38.004" height="38.0003" filterUnits="userSpaceOnUse" color-interpolation-filters="sRGB">
<feFlood flood-opacity="0" result="BackgroundImageFix"/>
<feColorMatrix in="SourceAlpha" type="matrix" values="0 0 0 0 0 0 0 0 0 0 0 0 0 0 0 0 0 0 127 0" result="hardAlpha"/>
<feOffset dy="1"/>
<feGaussianBlur stdDeviation="1.5"/>
<feComposite in2="hardAlpha" operator="out"/>
<feColorMatrix type="matrix" values="0 0 0 0 0.192157 0 0 0 0 0.239216 0 0 0 0 0.682353 0 0 0 0.25 0"/>
<feBlend mode="normal" in2="BackgroundImageFix" result="effect1_dropShadow_4812_11908"/>
<feBlend mode="normal" in="SourceGraphic" in2="effect1_dropShadow_4812_11908" result="shape"/>
</filter>
<linearGradient id="paint0_linear_4812_11908" x1="16.6139" y1="23.9997" x2="38.7682" y2="40" gradientUnits="userSpaceOnUse">
<stop stop-color="#CED3FF"/>
<stop offset="1" stop-color="#99A1EA"/>
</linearGradient>
<linearGradient id="paint1_linear_4812_11908" x1="42.4606" y1="22.7689" x2="47.3837" y2="39.3846" gradientUnits="userSpaceOnUse">
<stop stop-color="#BCC2F5"/>
<stop offset="1" stop-color="#99A1EA"/>
</linearGradient>
<linearGradient id="paint2_linear_4812_11908" x1="45.5374" y1="20.3074" x2="35.6911" y2="12.9226" gradientUnits="userSpaceOnUse">
<stop stop-color="#99A1EA"/>
<stop offset="1" stop-color="#CED3FF"/>
</linearGradient>
<linearGradient id="paint3_linear_4812_11908" x1="33.8449" y1="18.4612" x2="27.691" y2="12.3072" gradientUnits="userSpaceOnUse">
<stop stop-color="#99A1EA"/>
<stop offset="1" stop-color="#CED3FF"/>
</linearGradient>
<linearGradient id="paint4_linear_4812_11908" x1="28.3065" y1="8.61486" x2="33.845" y2="11.0764" gradientUnits="userSpaceOnUse">
<stop stop-color="#CED3FF"/>
<stop offset="1" stop-color="#A5ABDE"/>
</linearGradient>
<linearGradient id="paint5_linear_4812_11908" x1="23.9986" y1="20.9227" x2="17.2293" y2="6.76865" gradientUnits="userSpaceOnUse">
<stop stop-color="#A5ABDE"/>
<stop offset="1" stop-color="#CED3FF"/>
</linearGradient>
</defs>
</svg>
