<svg width="32" height="32" viewBox="0 0 32 32" fill="none" xmlns="http://www.w3.org/2000/svg">
<g opacity="0.9">
<rect width="32" height="32" rx="8" fill="#DFF4FF"/>
<path d="M25.2679 6.73209C24.7991 6.26334 24.1633 6 23.5003 6C22.8373 6 22.2015 6.26334 21.7327 6.73209L20.6308 7.83399L24.166 11.3692L25.2679 10.2673C25.7367 9.7985 26 9.16268 26 8.49971C26 7.83674 25.7367 7.20092 25.2679 6.73209ZM23.1555 12.3797L19.6203 8.84447L8.04882 20.4159C7.46106 21.0034 7.02899 21.7281 6.79167 22.5245L6.02977 25.0817C5.99298 25.2051 5.99024 25.3361 6.02183 25.4609C6.05341 25.5858 6.11816 25.6997 6.20921 25.7908C6.30026 25.8818 6.41423 25.9466 6.53906 25.9782C6.66389 26.0098 6.79494 26.007 6.91834 25.9702L9.47549 25.2083C10.2719 24.971 10.9966 24.5389 11.5841 23.9512L23.1555 12.3807V12.3797Z" fill="#009EDB"/>
</g>
</svg>
