<svg width="15" height="15" viewBox="0 0 15 15" fill="none" xmlns="http://www.w3.org/2000/svg">
<path d="M1.60451 11.2108C1.16263 11.6526 0.914318 12.2518 0.914185 12.8766L0.914185 14.0858H2.12344C2.74826 14.0857 3.34744 13.8374 3.78918 13.3955L11.6485 5.53623L9.46379 3.35156L1.60451 11.2108Z" fill="#50429B"/>
<path d="M14.5471 0.452916C14.4037 0.309334 14.2334 0.195429 14.0459 0.117715C13.8584 0.0400006 13.6574 0 13.4545 0C13.2515 0 13.0506 0.0400006 12.8631 0.117715C12.6756 0.195429 12.5053 0.309334 12.3619 0.452916L10.2968 2.5186L12.4814 4.70327L14.5471 2.63817C14.6907 2.49474 14.8046 2.32442 14.8823 2.13694C14.96 1.94945 15 1.74849 15 1.54554C15 1.3426 14.96 1.14164 14.8823 0.954154C14.8046 0.766673 14.6907 0.596348 14.5471 0.452916Z" fill="#50429B"/>
</svg>
