<svg width="24" height="24" viewBox="0 0 24 24" fill="none" xmlns="http://www.w3.org/2000/svg">
<path d="M3.17826 17.7155C3.3025 18.6717 4.07521 19.4215 5.03499 19.5143C7.26971 19.7304 9.60185 20 12 20C14.3981 20 16.7302 19.7304 18.9649 19.5143C19.9247 19.4215 20.6974 18.6717 20.8217 17.7155C21.0604 15.878 21.3333 13.9649 21.3333 12C21.3333 10.0351 21.0604 8.12202 20.8217 6.28448C20.6974 5.32826 19.9247 4.57848 18.9649 4.48569C16.7302 4.26962 14.3981 4 12 4C9.60185 4 7.26971 4.26962 5.03499 4.48569C4.07521 4.57848 3.3025 5.32826 3.17826 6.28448C2.9395 8.12202 2.66663 10.0351 2.66663 12C2.66663 13.9649 2.9395 15.878 3.17826 17.7155Z" stroke="#A3A4A6" stroke-width="1.5" stroke-linejoin="round"/>
<path d="M3.12885 6.61328L10.8006 12.3619C11.5114 12.8946 12.4884 12.8946 13.1992 12.3619L20.8709 6.61328" stroke="#A3A4A6" stroke-width="1.5" stroke-linejoin="round"/>
</svg>
