<svg width="28" height="28" viewBox="0 0 28 28" fill="none" xmlns="http://www.w3.org/2000/svg">
    <path fill-rule="evenodd" clip-rule="evenodd" d="M4.37965 3.62265L25.5066 24.7496L26.9208 23.3354L23.7785 20.1931C24.6156 19.353 25.2916 18.5588 25.7707 17.9574L25.8086 17.9101L25.8447 17.8653C26.1518 17.4851 26.5641 16.9745 26.5641 16.2621C26.5641 15.5497 26.1518 15.0391 25.8447 14.6589L25.8443 14.6583L25.8431 14.6569C25.8182 14.626 25.7939 14.596 25.7707 14.5668C24.8849 13.4547 23.3254 11.6834 21.3202 10.1821C19.3252 8.68849 16.7928 7.39048 13.9823 7.39048C13.0718 7.39048 12.1905 7.52672 11.3471 7.7617L5.79387 2.20844L4.37965 3.62265ZM13.0377 9.45226L14.6408 11.0554C17.0125 11.3523 18.8922 13.232 19.1891 15.6037L22.3643 18.7789C23.1319 18.0083 23.758 17.2741 24.2063 16.7114C24.3048 16.5877 24.3791 16.4943 24.4407 16.4122C24.4923 16.3436 24.5248 16.2962 24.546 16.2621C24.5248 16.228 24.4923 16.1806 24.4407 16.112C24.3791 16.0299 24.3048 15.9365 24.2063 15.8128C23.3768 14.7715 21.9382 13.1432 20.1216 11.7831C18.2948 10.4154 16.1817 9.39048 13.9823 9.39048C13.6655 9.39048 13.3504 9.41175 13.0377 9.45226ZM20.0953 23.1844L18.639 21.7282C17.1879 22.5732 15.6087 23.1337 13.9823 23.1337C11.783 23.1337 9.66987 22.1088 7.84307 20.7411C6.02644 19.381 4.58781 17.7527 3.75837 16.7114C3.65989 16.5877 3.58559 16.4943 3.5239 16.4122C3.47239 16.3436 3.43984 16.2962 3.41867 16.2621C3.43984 16.228 3.47239 16.1806 3.5239 16.112C3.58559 16.0299 3.65988 15.9365 3.75837 15.8128C4.58781 14.7715 6.02644 13.1432 7.84307 11.7831C8.00565 11.6614 8.1705 11.5424 8.33747 11.4266L6.90285 9.99198C6.81574 10.055 6.72959 10.1184 6.64442 10.1821C4.63924 11.6834 3.07972 13.4547 2.19398 14.5668C2.17036 14.5964 2.14573 14.6269 2.12038 14.6583L2.12004 14.6587L2.11992 14.6589C1.81284 15.0391 1.40051 15.5497 1.40051 16.2621C1.40051 16.9745 1.81284 17.4851 2.11992 17.8653C2.14543 17.8969 2.17022 17.9276 2.19398 17.9574C3.07972 19.0695 4.63924 20.8408 6.64442 22.3421C8.63944 23.8357 11.1718 25.1337 13.9823 25.1337C16.2454 25.1337 18.3282 24.2921 20.0953 23.1844ZM9.88904 12.978C9.16674 13.8771 8.73457 15.0192 8.73457 16.2622C8.73457 19.1605 11.0841 21.51 13.9823 21.51C15.2253 21.51 16.3674 21.0778 17.2665 20.3555L15.8386 18.9276C15.3124 19.2947 14.6725 19.51 13.9823 19.51C12.1886 19.51 10.7346 18.0559 10.7346 16.2622C10.7346 15.572 10.9499 14.9321 11.317 14.406L9.88904 12.978Z" fill="#50429B" />
</svg>