<svg width="28" height="28" viewBox="0 0 28 28" fill="none" xmlns="http://www.w3.org/2000/svg">
<path d="M14.0002 13.9006C16.3414 13.9006 18.2393 12.0026 18.2393 9.66146C18.2393 7.32027 16.3414 5.42236 14.0002 5.42236C11.659 5.42236 9.76111 7.32027 9.76111 9.66146C9.76111 12.0026 11.659 13.9006 14.0002 13.9006Z" stroke="#33B530" stroke-width="1.5" stroke-linecap="round" stroke-linejoin="round"/>
<path d="M20.922 20.447C20.5518 18.9547 19.7082 17.6191 18.5135 16.6426C17.2397 15.6015 15.6452 15.0327 14 15.0327C12.3549 15.0327 10.7603 15.6015 9.48654 16.6426C8.29188 17.619 7.44828 18.9547 7.078 20.4469C7.43584 20.5663 7.80951 20.6496 8.19456 20.6925C10.0834 20.9031 12.0228 21.0839 14.0001 21.0839C15.9774 21.0839 17.9168 20.9031 19.8056 20.6925C20.1906 20.6496 20.5642 20.5663 20.922 20.447Z" stroke="#33B530" stroke-width="1.5" stroke-linecap="round" stroke-linejoin="round"/>
<path d="M20.1207 0.891006C19.5715 0.831856 19.0785 1.22905 19.0193 1.77815C18.9602 2.32726 19.3573 2.82035 19.9064 2.8795L20.1207 0.891006ZM25.1281 8.10042C25.1849 8.64978 25.6762 9.04915 26.2256 8.99243C26.7749 8.9357 27.1743 8.44437 27.1176 7.89501L25.1281 8.10042ZM19.9064 2.8795C21.2527 3.02452 22.4456 3.17306 23.7664 3.31736L23.9836 1.32919C22.7761 1.19727 21.3925 1.02801 20.1207 0.891006L19.9064 2.8795ZM27.1176 7.89501C26.9834 6.59569 26.8273 5.28006 26.6946 4.04331L24.706 4.25661C24.8436 5.53935 24.9929 6.79103 25.1281 8.10042L27.1176 7.89501ZM23.7664 3.31736C24.261 3.37139 24.6533 3.76477 24.706 4.25661L26.6946 4.04331C26.5413 2.61435 25.4095 1.48495 23.9836 1.32919L23.7664 3.31736Z" fill="#33B530"/>
<path d="M20.1207 27.109C19.5715 27.1681 19.0785 26.771 19.0193 26.2218C18.9602 25.6727 19.3573 25.1796 19.9064 25.1205L20.1207 27.109ZM25.1281 19.8996C25.1849 19.3502 25.6762 18.9509 26.2256 19.0076C26.7749 19.0643 27.1743 19.5556 27.1176 20.105L25.1281 19.8996ZM19.9064 25.1205C21.2527 24.9755 22.4456 24.8269 23.7664 24.6826L23.9836 26.6708C22.7761 26.8027 21.3925 26.972 20.1207 27.109L19.9064 25.1205ZM27.1176 20.105C26.9834 21.4043 26.8273 22.7199 26.6946 23.9567L24.706 23.7434C24.8436 22.4607 24.9929 21.209 25.1281 19.8996L27.1176 20.105ZM23.7664 24.6826C24.261 24.6286 24.6533 24.2352 24.706 23.7434L26.6946 23.9567C26.5413 25.3856 25.4095 26.515 23.9836 26.6708L23.7664 24.6826Z" fill="#33B530"/>
<path d="M7.87935 0.891006C8.42846 0.831856 8.92155 1.22905 8.9807 1.77815C9.03985 2.32726 8.64266 2.82035 8.09355 2.8795L7.87935 0.891006ZM2.87187 8.10042C2.81514 8.64978 2.32381 9.04915 1.77445 8.99243C1.22508 8.9357 0.825719 8.44437 0.882442 7.89501L2.87187 8.10042ZM8.09355 2.8795C6.74731 3.02452 5.55444 3.17306 4.23355 3.31736L4.01636 1.32919C5.22392 1.19727 6.60754 1.02801 7.87935 0.891006L8.09355 2.8795ZM0.882442 7.89501C1.0166 6.59569 1.17274 5.28006 1.3054 4.04331L3.29399 4.25661C3.1564 5.53935 3.00706 6.79103 2.87187 8.10042L0.882442 7.89501ZM4.23355 3.31736C3.73898 3.37139 3.34675 3.76477 3.29399 4.25661L1.3054 4.04331C1.45867 2.61435 2.59053 1.48495 4.01636 1.32919L4.23355 3.31736Z" fill="#33B530"/>
<path d="M7.87935 27.109C8.42846 27.1681 8.92155 26.771 8.9807 26.2218C9.03985 25.6727 8.64266 25.1796 8.09355 25.1205L7.87935 27.109ZM2.87187 19.8996C2.81514 19.3502 2.32381 18.9509 1.77445 19.0076C1.22508 19.0643 0.825719 19.5556 0.882442 20.105L2.87187 19.8996ZM8.09355 25.1205C6.74731 24.9755 5.55444 24.8269 4.23355 24.6826L4.01636 26.6708C5.22392 26.8027 6.60754 26.972 7.87935 27.109L8.09355 25.1205ZM0.882442 20.105C1.0166 21.4043 1.17274 22.7199 1.3054 23.9567L3.29399 23.7434C3.1564 22.4607 3.00706 21.209 2.87187 19.8996L0.882442 20.105ZM4.23355 24.6826C3.73898 24.6286 3.34675 24.2352 3.29399 23.7434L1.3054 23.9567C1.45867 25.3856 2.59053 26.515 4.01636 26.6708L4.23355 24.6826Z" fill="#33B530"/>
</svg>
