<svg width="24" height="24" viewBox="0 0 24 24" fill="none" xmlns="http://www.w3.org/2000/svg">
<path d="M16.1233 4C15.2791 4.01411 14.4534 4.26742 13.7294 4.73434C13.0054 5.20126 12.4089 5.86525 12 6.65927C11.5911 5.86525 10.9946 5.20126 10.2706 4.73434C9.54665 4.26742 8.72086 4.01411 7.87666 4C6.53091 4.06285 5.263 4.69564 4.34992 5.76014C3.43685 6.82464 2.95284 8.2343 3.00363 9.68117C3.00363 13.3453 6.59168 17.3471 9.60097 20.0604C10.2729 20.6673 11.1224 21 12 21C12.8776 21 13.7271 20.6673 14.399 20.0604C17.4083 17.3471 20.9964 13.3453 20.9964 9.68117C21.0472 8.2343 20.5632 6.82464 19.6501 5.76014C18.737 4.69564 17.4691 4.06285 16.1233 4Z" fill="#F56666"/>
</svg>
