<svg width="22" height="29" viewBox="0 0 22 29" fill="none" xmlns="http://www.w3.org/2000/svg">
<path d="M10.7186 28C11.9948 28 13.2586 27.7486 14.4377 27.2602C15.6168 26.7718 16.6882 26.056 17.5906 25.1535C18.4931 24.2511 19.2089 23.1797 19.6973 22.0006C20.1857 20.8215 20.4371 19.5577 20.4371 18.2815V11.7981C20.4372 10.3412 20.11 8.91545 19.4937 7.62061" stroke="#59C36A" stroke-width="2" stroke-linecap="round" stroke-linejoin="round"/>
<path d="M1 12.8758V18.2815C0.999349 20.1946 1.56339 22.0654 2.62143 23.6594C3.14573 24.4493 3.77978 25.1538 4.50062 25.7539" stroke="#59C36A" stroke-width="2" stroke-linecap="round" stroke-linejoin="round"/>
<path d="M15.5778 2.30202C13.3457 1.01332 10.693 0.664084 8.20342 1.33114C5.71379 1.9982 3.59111 3.62692 2.30231 5.859" stroke="#59C36A" stroke-width="2" stroke-linecap="round" stroke-linejoin="round"/>
<path d="M9.698 7.82369C10.2168 7.71598 10.7531 7.7261 11.2675 7.85328C11.7819 7.98046 12.2611 8.22147 12.6699 8.55854C13.0787 8.89561 13.4067 9.32013 13.6296 9.80082C13.8525 10.2815 13.9646 10.8061 13.9578 11.3359V13.6068" stroke="#59C36A" stroke-width="2" stroke-linecap="round" stroke-linejoin="round"/>
<path d="M13.0551 20.8882C12.5751 21.4228 11.9434 21.7981 11.2443 21.9638C10.5453 22.1295 9.81231 22.0777 9.1435 21.8154C8.47468 21.5531 7.90194 21.0927 7.50193 20.496C7.10191 19.8992 6.89371 19.1946 6.90517 18.4762V14.5753" stroke="#59C36A" stroke-width="2" stroke-linecap="round" stroke-linejoin="round"/>
</svg>
