<svg width="24" height="20" viewBox="0 0 24 20" fill="none" xmlns="http://www.w3.org/2000/svg">
<path d="M23.9914 7.61453C23.9217 11.4526 21.8258 14.114 19.1055 16.3767C17.3601 17.828 15.3617 18.8519 13.2797 19.7184C12.5682 20.0564 11.7556 20.0915 11.019 19.8162C7.71842 18.4915 4.72425 16.7133 2.40551 13.8968C-0.226569 10.6936 -0.74881 6.58817 1.08715 3.3468C3.05077 -0.111784 7.83679 -1.06653 10.9424 1.4373C11.6619 2.01731 12.1911 2.20826 12.9594 1.53993C15.1806 -0.391048 17.6688 -0.340924 20.1848 0.780907C22.7009 1.90274 23.7337 4.17504 23.989 6.86744C24.0123 7.11329 23.9914 7.3663 23.9914 7.61453Z" fill="#F05D7C"/>
</svg>
