<svg width="18" height="20" viewBox="0 0 18 20" fill="none" xmlns="http://www.w3.org/2000/svg">
<path fill-rule="evenodd" clip-rule="evenodd" d="M17.5999 6.11728C17.4184 5.51883 17.1613 4.94496 16.8347 4.40901C16.0393 3.06302 14.8958 1.94661 13.5195 1.1725C12.1432 0.398395 10.583 -0.00599353 8.99626 0.000173386C7.81292 -0.00712345 6.63988 0.21596 5.54517 0.656486C4.45045 1.09701 3.45584 1.74622 2.619 2.56645C1.78217 3.38668 1.11978 4.36162 0.670229 5.43474C0.22068 6.50785 -0.00707638 7.65778 0.000167519 8.81784C0.000167519 12.5983 2.44125 15.6212 4.75505 17.5107L4.80354 17.5493C5.93513 18.4699 7.17054 19.2603 8.48561 19.9053C8.81648 20.0315 9.18361 20.0315 9.51447 19.9053C11.4419 18.8967 17.9999 15.1177 17.9999 8.81784C18.003 7.90325 17.8682 6.99324 17.5999 6.11728ZM10.3039 15.1355H7.68556V12.5671C7.67703 12.3934 7.70457 12.2198 7.76651 12.0568C7.82846 11.8938 7.92351 11.7448 8.04592 11.6189C8.16833 11.493 8.31554 11.3927 8.47864 11.3242C8.64173 11.2558 8.81731 11.2204 8.99474 11.2204C9.17217 11.2204 9.34775 11.2558 9.51085 11.3242C9.67394 11.3927 9.82115 11.493 9.94356 11.6189C10.066 11.7448 10.161 11.8938 10.223 12.0568C10.2849 12.2198 10.3125 12.3934 10.3039 12.5671V15.1355ZM14.2436 13.852C14.2436 14.0207 14.2097 14.1877 14.1438 14.3435C14.0779 14.4994 13.9813 14.6409 13.8596 14.7601C13.7379 14.8793 13.5934 14.9738 13.4344 15.0382C13.2754 15.1026 13.1049 15.1357 12.9329 15.1355H11.1797V12.5671C11.199 12.2748 11.1569 11.9817 11.056 11.706C10.9552 11.4303 10.7977 11.1777 10.5933 10.964C10.389 10.7503 10.1421 10.58 9.8679 10.4635C9.59372 10.3471 9.29809 10.287 8.99929 10.287C8.70048 10.287 8.40485 10.3471 8.13067 10.4635C7.85649 10.58 7.60959 10.7503 7.40523 10.964C7.20087 11.1777 7.04339 11.4303 6.94253 11.706C6.84167 11.9817 6.79957 12.2748 6.81883 12.5671V15.1355H5.06416C4.71693 15.1351 4.38401 14.9998 4.13833 14.7592C3.89266 14.5187 3.75426 14.1925 3.75346 13.852V9.95273C3.75322 9.84049 3.77557 9.72931 3.81926 9.62556C3.86294 9.52181 3.92709 9.42754 4.00803 9.34815L7.71283 5.41614C7.74465 5.38198 7.77647 5.35079 7.80981 5.31959C8.15049 5.0115 8.602 4.8486 9.06513 4.86671C9.52826 4.88481 9.96511 5.08244 10.2797 5.41614L10.6918 5.85287L13.9921 9.34963C14.1536 9.51037 14.244 9.72707 14.2436 9.95273V13.852Z" fill="#786EAD"/>
<path fill-rule="evenodd" clip-rule="evenodd" d="M17.5997 6.11757C15.4126 5.18238 12.9466 5.088 10.6917 5.85315L13.9919 9.34992C14.1535 9.51065 14.2438 9.72736 14.2434 9.95301V13.8598C14.2434 14.0284 14.2095 14.1954 14.1436 14.3513C14.0777 14.5071 13.9812 14.6486 13.8594 14.7678C13.7377 14.887 13.5932 14.9815 13.4342 15.0459C13.2752 15.1103 13.1048 15.1434 12.9327 15.1432H11.1796V12.5674C11.1988 12.2751 11.1567 11.982 11.0559 11.7063C10.955 11.4305 10.7975 11.178 10.5932 10.9643C10.3888 10.7506 10.1419 10.5803 9.86774 10.4638C9.59356 10.3474 9.29793 10.2873 8.99913 10.2873C8.70032 10.2873 8.40469 10.3474 8.13051 10.4638C7.85633 10.5803 7.60943 10.7506 7.40507 10.9643C7.20071 11.178 7.04323 11.4305 6.94237 11.7063C6.84151 11.982 6.79941 12.2751 6.81867 12.5674V15.1358H5.064C4.80192 15.136 4.54583 15.0589 4.3291 14.9144C4.35598 15.8107 4.51575 16.6984 4.80338 17.5496C5.93497 18.4702 7.17038 19.2606 8.48546 19.9056C8.81632 20.0318 9.18345 20.0318 9.51432 19.9056C11.4417 18.8969 17.9998 15.1179 17.9998 8.81812C18.0028 7.90354 17.868 6.99353 17.5997 6.11757ZM10.3038 15.1358H7.6854V12.5674C7.67687 12.3937 7.70441 12.22 7.76636 12.0571C7.8283 11.8941 7.92336 11.7451 8.04576 11.6192C8.16817 11.4933 8.31538 11.393 8.47848 11.3245C8.64157 11.256 8.81715 11.2207 8.99458 11.2207C9.17201 11.2207 9.34759 11.256 9.51069 11.3245C9.67378 11.393 9.82099 11.4933 9.9434 11.6192C10.0658 11.7451 10.1609 11.8941 10.2228 12.0571C10.2848 12.22 10.3123 12.3937 10.3038 12.5674V15.1358Z" fill="#50429B"/>
</svg>
