<svg width="20" height="20" viewBox="0 0 20 20" fill="none" xmlns="http://www.w3.org/2000/svg">
<path d="M10 16C11.1867 16 12.3467 15.6481 13.3334 14.9888C14.3201 14.3295 15.0892 13.3925 15.5433 12.2961C15.9974 11.1997 16.1162 9.99335 15.8847 8.82946C15.6532 7.66557 15.0818 6.59648 14.2426 5.75736C13.4035 4.91825 12.3344 4.3468 11.1705 4.11529C10.0067 3.88378 8.80026 4.0026 7.7039 4.45673C6.60754 4.91085 5.67047 5.67989 5.01118 6.66658C4.35189 7.65328 4 8.81331 4 10C4.00172 11.5908 4.63441 13.1159 5.75926 14.2407C6.8841 15.3656 8.40923 15.9983 10 16ZM10 6.5C10.1483 6.5 10.2933 6.54399 10.4167 6.6264C10.54 6.70881 10.6361 6.82595 10.6929 6.96299C10.7497 7.10003 10.7645 7.25083 10.7356 7.39632C10.7066 7.54181 10.6352 7.67544 10.5303 7.78033C10.4254 7.88522 10.2918 7.95665 10.1463 7.98559C10.0008 8.01453 9.85003 7.99968 9.71299 7.94291C9.57594 7.88615 9.45881 7.79002 9.3764 7.66668C9.29399 7.54334 9.25 7.39834 9.25 7.25C9.25 7.05109 9.32902 6.86032 9.46967 6.71967C9.61032 6.57902 9.80109 6.5 10 6.5ZM9.5 9H10C10.2652 9 10.5196 9.10536 10.7071 9.29289C10.8946 9.48043 11 9.73479 11 10V13C11 13.1326 10.9473 13.2598 10.8536 13.3536C10.7598 13.4473 10.6326 13.5 10.5 13.5C10.3674 13.5 10.2402 13.4473 10.1464 13.3536C10.0527 13.2598 10 13.1326 10 13V10H9.5C9.36739 10 9.24021 9.94732 9.14645 9.85356C9.05268 9.75979 9 9.63261 9 9.5C9 9.36739 9.05268 9.24022 9.14645 9.14645C9.24021 9.05268 9.36739 9 9.5 9Z" fill="#898A8D"/>
</svg>
