<svg width="24" height="24" viewBox="0 0 24 24" fill="none" xmlns="http://www.w3.org/2000/svg">
<path d="M12 3C10.22 3 8.47991 3.52784 6.99987 4.51677C5.51983 5.50571 4.36628 6.91131 3.68509 8.55585C3.0039 10.2004 2.82567 12.01 3.17294 13.7558C3.5202 15.5016 4.37737 17.1053 5.63604 18.364C6.89471 19.6226 8.49836 20.4798 10.2442 20.8271C11.99 21.1743 13.7996 20.9961 15.4442 20.3149C17.0887 19.6337 18.4943 18.4802 19.4832 17.0001C20.4722 15.5201 21 13.78 21 12C20.9974 9.61384 20.0484 7.32616 18.3611 5.63889C16.6738 3.95162 14.3862 3.00258 12 3V3ZM12.375 18.7312V17.7675C12.375 16.9341 12.0439 16.1347 11.4546 15.5454C10.8653 14.9561 10.0659 14.625 9.2325 14.625H9.225C8.91535 14.625 8.60873 14.564 8.32266 14.4455C8.03658 14.327 7.77667 14.1532 7.55775 13.9342L5.268 11.643C5.32917 10.4515 5.70556 9.29762 6.35872 8.29924C7.01188 7.30085 7.91838 6.49377 8.98561 5.96046C10.0528 5.42716 11.2425 5.18674 12.4331 5.26379C13.6236 5.34084 14.7724 5.73258 15.762 6.399C15.5634 6.54475 15.3236 6.62354 15.0773 6.624H14.0018C13.8484 6.624 13.6966 6.65424 13.5549 6.71299C13.4133 6.77174 13.2846 6.85785 13.1763 6.96638C13.068 7.07492 12.9821 7.20375 12.9236 7.3455C12.8652 7.48726 12.8352 7.63916 12.8355 7.7925V8.574C12.8355 8.88331 12.7126 9.17995 12.4939 9.39866C12.2752 9.61738 11.9786 9.74025 11.6693 9.74025C11.5158 9.73985 11.3639 9.76973 11.222 9.82816C11.0802 9.88659 10.9513 9.97244 10.8426 10.0808C10.734 10.1891 10.6479 10.3178 10.5891 10.4595C10.5303 10.6012 10.5 10.7531 10.5 10.9065V11.688C10.5 11.9973 10.6229 12.2939 10.8416 12.5127C11.0603 12.7314 11.3569 12.8542 11.6663 12.8542H14.7833C15.0926 12.8542 15.3892 12.9771 15.6079 13.1958C15.8266 13.4145 15.9495 13.7112 15.9495 14.0205V15.1605C15.9495 15.3137 15.9797 15.4655 16.0384 15.607C16.0971 15.7486 16.1831 15.8772 16.2915 15.9855L16.9163 16.6102C15.7325 17.8762 14.1056 18.636 12.375 18.7312Z" fill="#009EDB"/>
</svg>
