<svg width="24" height="28" viewBox="0 0 24 28" fill="none" xmlns="http://www.w3.org/2000/svg">
<path d="M12 0C15.1826 0 18.2348 1.26428 20.4853 3.51472C22.7357 5.76516 24 8.8174 24 12C24 16.968 20.2133 22.1733 12.8 27.7333C12.5692 27.9064 12.2885 28 12 28C11.7115 28 11.4308 27.9064 11.2 27.7333C3.78667 22.1733 0 16.968 0 12C0 8.8174 1.26428 5.76516 3.51472 3.51472C5.76515 1.26428 8.8174 0 12 0ZM12 8C10.9391 8 9.92172 8.42143 9.17157 9.17157C8.42143 9.92172 8 10.9391 8 12C8 13.0609 8.42143 14.0783 9.17157 14.8284C9.92172 15.5786 10.9391 16 12 16C13.0609 16 14.0783 15.5786 14.8284 14.8284C15.5786 14.0783 16 13.0609 16 12C16 10.9391 15.5786 9.92172 14.8284 9.17157C14.0783 8.42143 13.0609 8 12 8Z" fill="#ED6252"/>
</svg>
