<svg width="17" height="19" viewBox="0 0 17 19" fill="none" xmlns="http://www.w3.org/2000/svg">
<path fill-rule="evenodd" clip-rule="evenodd" d="M8.10334 0C3.58862 0 0 3.58149 0 8.08724C0 11.5532 2.19948 14.326 4.28319 16.059C4.05167 15.3658 4.05167 14.557 4.05167 13.8638C4.05167 12.3619 4.39896 10.9755 4.97777 9.70469C4.862 9.12703 4.63048 8.54937 4.63048 8.08724C4.63048 6.1232 6.13539 4.62128 8.10334 4.62128C8.68215 4.62128 9.1452 4.73681 9.60824 4.96788C10.8816 4.27469 12.3865 3.92809 13.8914 3.92809C14.3545 3.92809 14.7018 3.92809 15.1648 4.04362C13.7757 1.61745 11.1132 0 8.10334 0Z" fill="#786EAD"/>
<path fill-rule="evenodd" clip-rule="evenodd" d="M16.2067 8.08732C16.2067 13.8639 10.3028 17.3299 8.56641 18.2541C8.21913 18.3697 7.9876 18.3697 7.64032 18.2541C6.94575 17.9075 5.67236 17.2143 4.28322 16.059C4.0517 15.3658 4.0517 14.5571 4.0517 13.8639C4.0517 12.362 4.39898 10.9756 4.97779 9.70476C5.5566 10.8601 6.71422 11.6688 8.10337 11.6688C10.0713 11.6688 11.5762 10.1669 11.5762 8.20285C11.5762 6.81646 10.7795 5.53476 9.60323 4.96252C10.8766 4.1538 12.3866 3.92816 13.8915 3.92816C14.3545 3.92816 14.7018 3.92816 15.1648 4.04369C15.8594 5.19901 16.2067 6.5854 16.2067 8.08732Z" fill="#50429B"/>
</svg>
