<svg width="24" height="24" viewBox="0 0 24 24" fill="none" xmlns="http://www.w3.org/2000/svg">
<path d="M17.4651 10.8948L16.815 11.2689L17.4651 10.8948ZM16.2336 9.7217L15.8915 10.3891L16.2336 9.7217ZM16.2336 19.6116L15.8915 18.9442L16.2336 19.6116ZM17.9567 15.7923L17.2087 15.7378L17.9567 15.7923ZM17.4651 18.4386L18.1151 18.8127L17.4651 18.4386ZM5.53494 10.8948L4.88492 10.5206L5.53494 10.8948ZM6.76638 19.6116L6.42422 20.279L6.76638 19.6116ZM5.53494 18.4386L4.88492 18.8127L5.53494 18.4386ZM11.5 19.25C10.825 19.25 10.1835 19.2423 9.56043 19.2272L9.52411 20.7267C10.1598 20.7421 10.8135 20.75 11.5 20.75V19.25ZM13.4396 19.2272C12.8165 19.2423 12.175 19.25 11.5 19.25V20.75C12.1865 20.75 12.8402 20.7421 13.4759 20.7267L13.4396 19.2272ZM18.7048 15.8468C18.733 15.4598 18.75 15.066 18.75 14.6667H17.25C17.25 15.0235 17.2348 15.3804 17.2087 15.7378L18.7048 15.8468ZM18.75 14.6667C18.75 14.2673 18.733 13.8735 18.7048 13.4865L17.2087 13.5955C17.2348 13.9529 17.25 14.3098 17.25 14.6667H18.75ZM11.5 10.0833C12.175 10.0833 12.8165 10.0911 13.4396 10.1061L13.4759 8.60658C12.8402 8.59119 12.1865 8.58333 11.5 8.58333V10.0833ZM9.56043 10.1061C10.1835 10.0911 10.825 10.0833 11.5 10.0833V8.58333C10.8135 8.58333 10.1598 8.59119 9.52411 8.60658L9.56043 10.1061ZM4.29525 13.4865C4.26704 13.8735 4.25 14.2673 4.25 14.6667H5.75C5.75 14.3098 5.76523 13.9529 5.79128 13.5955L4.29525 13.4865ZM4.25 14.6667C4.25 15.066 4.26704 15.4598 4.29525 15.8468L5.79128 15.7378C5.76523 15.3804 5.75 15.0235 5.75 14.6667H4.25ZM18.7048 13.4865C18.61 12.1866 18.5623 11.2976 18.1151 10.5206L16.815 11.2689C17.0521 11.6808 17.1041 12.1597 17.2087 13.5955L18.7048 13.4865ZM13.4396 10.1061C14.9574 10.1429 15.4699 10.173 15.8915 10.3891L16.5758 9.05429C15.7767 8.64464 14.8455 8.63974 13.4759 8.60658L13.4396 10.1061ZM18.1151 10.5206C17.7715 9.92367 17.1887 9.36853 16.5758 9.05429L15.8915 10.3891C16.2469 10.5713 16.6158 10.9228 16.815 11.2689L18.1151 10.5206ZM13.4759 20.7267C14.8455 20.6936 15.7767 20.6887 16.5758 20.279L15.8915 18.9442C15.4699 19.1604 14.9574 19.1904 13.4396 19.2272L13.4759 20.7267ZM17.2087 15.7378C17.1041 17.1737 17.0521 17.6525 16.815 18.0644L18.1151 18.8127C18.5623 18.0357 18.61 17.1467 18.7048 15.8468L17.2087 15.7378ZM16.5758 20.279C17.1887 19.9648 17.7715 19.4097 18.1151 18.8127L16.815 18.0644C16.6158 18.4106 16.2469 18.762 15.8915 18.9442L16.5758 20.279ZM9.52411 8.60658C8.15451 8.63974 7.22329 8.64464 6.42422 9.05429L7.10854 10.3891C7.53015 10.173 8.04263 10.1429 9.56043 10.1061L9.52411 8.60658ZM5.79128 13.5955C5.89592 12.1597 5.94789 11.6808 6.18496 11.2689L4.88492 10.5206C4.43771 11.2976 4.38998 12.1866 4.29525 13.4865L5.79128 13.5955ZM6.42422 9.05429C5.81129 9.36853 5.22853 9.92367 4.88492 10.5206L6.18496 11.2689C6.3842 10.9228 6.75312 10.5713 7.10854 10.3891L6.42422 9.05429ZM9.56043 19.2272C8.04263 19.1904 7.53015 19.1604 7.10854 18.9442L6.42422 20.279C7.22329 20.6887 8.15451 20.6936 9.52411 20.7267L9.56043 19.2272ZM4.29525 15.8468C4.38998 17.1467 4.43771 18.0357 4.88492 18.8127L6.18496 18.0644C5.94789 17.6525 5.89592 17.1737 5.79128 15.7378L4.29525 15.8468ZM7.10854 18.9442C6.75313 18.762 6.3842 18.4106 6.18496 18.0644L4.88492 18.8127C5.22853 19.4097 5.81129 19.9648 6.42422 20.279L7.10854 18.9442Z" fill="#A3A4A6"/>
<path d="M15.14 9.33333V7.73333C15.14 6.74319 14.7565 5.7936 14.0739 5.09347C13.3912 4.39333 12.4654 4 11.5 4C10.5346 4 9.60875 4.39333 8.92612 5.09347C8.24348 5.7936 7.85999 6.74319 7.85999 7.73333V9.33333" stroke="#A3A4A6" stroke-width="1.5" stroke-linecap="round" stroke-linejoin="round"/>
<ellipse cx="11.5" cy="14.6667" rx="1.56" ry="1.6" fill="#A3A4A6"/>
</svg>
