<svg width="17" height="24" viewBox="0 0 17 24" fill="none" xmlns="http://www.w3.org/2000/svg">
<path fill-rule="evenodd" clip-rule="evenodd" d="M1.22785e-05 10.9054L1.21234e-05 9.13122C1.19199e-05 6.80415 1.18182e-05 5.64062 0.31843 4.70258C0.918022 2.93624 2.30503 1.54923 4.07138 0.949636C5.00941 0.631217 6.17294 0.631217 8.5 0.631217C10.8271 0.631217 11.9906 0.631216 12.9286 0.949635C14.695 1.54923 16.082 2.93624 16.6816 4.70258C17 5.64061 17 6.80415 17 9.13121L17 14.6787C17 17.0058 17 18.1693 16.6816 19.1073C16.082 20.8737 14.695 22.2607 12.9286 22.8603C11.9906 23.1787 10.8271 23.1787 8.50001 23.1787C6.17294 23.1787 5.00941 23.1787 4.07138 22.8603C2.30503 22.2607 0.918024 20.8737 0.318431 19.1073C1.29135e-05 18.1693 1.28118e-05 17.0058 1.26083e-05 14.6787L1.24533e-05 12.9054L7.38863 12.9054L4.13138 16.3419L5.58294 17.7177L10.4401 12.5933L11.0921 11.9054L10.4401 11.2174L5.58294 6.093L4.13138 7.46885L7.38863 10.9054L1.22785e-05 10.9054Z" fill="#50429B"/>
</svg>
