<svg width="18" height="20" viewBox="0 0 18 20" fill="none" xmlns="http://www.w3.org/2000/svg">
<path fill-rule="evenodd" clip-rule="evenodd" d="M17.5999 6.11729C17.4184 5.51884 17.1614 4.94497 16.8347 4.40901C16.0394 3.06303 14.8958 1.94661 13.5195 1.1725C12.1433 0.398395 10.583 -0.00599354 8.99627 0.000173386C7.81293 -0.00712346 6.63989 0.21596 5.54517 0.656487C4.45046 1.09701 3.45584 1.74622 2.61901 2.56645C1.78218 3.38669 1.11978 4.36163 0.67023 5.43475C0.22068 6.50786 -0.00707639 7.65779 0.000167519 8.81785C0.000167519 12.5983 2.44125 15.6213 4.75506 17.5108L4.80354 17.5494C5.93514 18.4699 7.17055 19.2604 8.48563 19.9053C8.81649 20.0316 9.18362 20.0316 9.51449 19.9053C11.4419 18.8967 17.9999 15.1177 17.9999 8.81785C18.003 7.90327 17.8682 6.99325 17.5999 6.11729ZM13.8875 10.844C13.6599 11.0654 13.352 11.1893 13.0314 11.1886H10.2085V13.9635C10.2085 14.2787 10.0808 14.5809 9.85343 14.8038C9.6261 15.0266 9.31777 15.1518 8.99627 15.1518C8.67477 15.1518 8.36644 15.0266 8.13911 14.8038C7.91178 14.5809 7.78406 14.2787 7.78406 13.9635V11.1886H4.96113C4.63963 11.1886 4.3313 11.0634 4.10397 10.8406C3.87664 10.6177 3.74892 10.3155 3.74892 10.0003C3.74892 9.6851 3.87664 9.38284 4.10397 9.15998C4.3313 8.93711 4.63963 8.81191 4.96113 8.81191H7.78406V6.04599C7.78307 5.88993 7.81344 5.73521 7.87344 5.59066C7.93344 5.4461 8.02189 5.31455 8.13375 5.20351C8.35966 4.97926 8.6672 4.85216 8.98869 4.85019C9.31019 4.84823 9.61932 4.97154 9.84807 5.19301C9.96134 5.30267 10.0515 5.43313 10.1133 5.57693C10.1751 5.72074 10.2075 5.87508 10.2085 6.03113V8.81191H13.0314C13.2718 8.81143 13.5069 8.88102 13.7068 9.01185C13.9068 9.14267 14.0625 9.32882 14.1543 9.54664C14.2461 9.76445 14.2697 10.0041 14.2222 10.2351C14.1747 10.4661 14.0582 10.6781 13.8875 10.844Z" fill="#786EAD"/>
<path fill-rule="evenodd" clip-rule="evenodd" d="M7.78414 8.81208H6.42041C6.82631 8.31442 7.28329 7.85897 7.78414 7.45288V8.81208Z" fill="#50429B"/>
<path fill-rule="evenodd" clip-rule="evenodd" d="M17.9907 8.81862C17.9907 15.1185 11.4372 18.8975 9.50525 19.9061C9.17708 20.03 8.81365 20.03 8.48548 19.9061C7.1704 19.2612 5.93499 18.4707 4.8034 17.5501C4.10589 15.4729 4.17562 13.2214 5.00038 11.1894H7.78846V13.9643C7.78846 14.2794 7.91617 14.5817 8.14351 14.8046C8.37084 15.0274 8.67917 15.1526 9.00067 15.1526C9.32217 15.1526 9.6305 15.0274 9.85783 14.8046C10.0852 14.5817 10.2129 14.2794 10.2129 13.9643V11.1894H13.0313C13.3528 11.1894 13.6611 11.0642 13.8884 10.8414C14.1158 10.6185 14.2435 10.3162 14.2435 10.001C14.2435 9.68587 14.1158 9.38361 13.8884 9.16075C13.6611 8.93789 13.3528 8.81268 13.0313 8.81268H10.2083V6.0319C11.3838 5.5617 12.6435 5.32708 13.9129 5.34188C15.1824 5.35667 16.436 5.62059 17.5998 6.11806C17.865 6.99448 17.9967 7.90448 17.9907 8.81862Z" fill="#50429B"/>
</svg>
