<svg width="135" height="189" viewBox="0 0 135 189" fill="none" xmlns="http://www.w3.org/2000/svg">
<g clip-path="url(#clip0_5624_13176)">
<g opacity="0.2">
<path d="M83.076 189C108.379 189 128.89 185.823 128.89 181.904C128.89 177.985 108.379 174.808 83.076 174.808C57.7733 174.808 37.2615 177.985 37.2615 181.904C37.2615 185.823 57.7733 189 83.076 189Z" fill="#371A45"/>
</g>
<path d="M91.5944 84.0663L92.0948 94.8752L93.8308 132.283L94.7529 152.195C94.7529 152.195 95.5181 152.251 96.81 152.291C102.425 152.462 117.967 152.284 123.37 145.464C125.829 142.354 127.288 133.293 127.67 123.336C128.132 111.209 127.005 97.7515 124.163 92.137C121.781 87.4316 115.084 85.1972 108.143 84.2664C105.637 83.9352 103.114 83.7465 100.587 83.7012C96.9907 83.6232 93.7712 83.815 91.5944 84.0663Z" fill="white"/>
<g opacity="0.2">
<path d="M93.8302 132.283L94.7523 152.195C94.7523 152.195 116.723 153.853 123.372 145.465C125.831 142.355 127.288 133.291 127.671 123.336L114.092 120.655C114.092 120.655 109.339 120.643 108.768 135.709C108.605 139.926 102.128 141.411 97.3899 137.947C95.6738 136.687 94.5607 134.67 93.8302 132.283Z" fill="#371A45"/>
</g>
<path d="M99.2803 153.514C96.685 153.514 94.9112 153.386 94.6619 153.369C94.3502 153.345 94.0606 153.199 93.8569 152.963C93.6531 152.726 93.5519 152.418 93.5754 152.107C93.599 151.797 93.7453 151.508 93.9824 151.304C94.2194 151.101 94.5277 151 94.8394 151.024C95.0535 151.04 116.263 152.537 122.445 144.735C124.744 141.833 126.404 131.906 126.576 120.032C126.751 107.916 125.39 97.1749 123.11 92.669C119.105 84.7536 100.24 84.2421 91.7334 85.2356C91.5795 85.254 91.4234 85.242 91.2742 85.2001C91.125 85.1582 90.9855 85.0874 90.8638 84.9917C90.742 84.8959 90.6404 84.7772 90.5647 84.6422C90.489 84.5072 90.4408 84.3587 90.4228 84.2051C90.4047 84.0515 90.4172 83.8958 90.4596 83.7471C90.5019 83.5983 90.5733 83.4593 90.6696 83.3381C90.7658 83.2169 90.8851 83.1158 91.0206 83.0407C91.1561 82.9655 91.3051 82.9178 91.4591 82.9002C99.1669 82.0013 120.257 81.8134 125.213 91.609C128.175 97.4594 129.076 110.145 128.93 120.066C128.786 130.049 127.492 142.156 124.292 146.194C119.221 152.597 106.274 153.514 99.2803 153.514Z" fill="#371A45"/>
<path d="M126.455 121.229L114.864 121.926C114.361 121.956 113.882 122.151 113.503 122.482C113.123 122.812 112.864 123.259 112.767 123.752C112.036 127.469 110.796 136.14 114.387 139.061C117.367 141.487 122.269 141.279 125.172 138.898C128.421 136.236 128.86 127.72 128.87 123.501C128.871 123.191 128.808 122.883 128.685 122.598C128.562 122.313 128.381 122.056 128.155 121.843C127.929 121.631 127.661 121.466 127.369 121.36C127.076 121.255 126.765 121.21 126.455 121.229Z" fill="white"/>
<g opacity="0.2">
<path d="M112.768 123.754C112.036 127.469 110.796 136.14 114.388 139.061C117.369 141.487 122.27 141.279 125.174 138.898C127.171 137.259 128.105 133.407 128.532 129.704C127.982 131.549 127.142 133.042 126.109 134.014C120.19 139.585 115.933 132.852 115.933 132.852C115.933 132.852 115.153 134.46 114.548 134.543C112.024 134.89 112.661 127.029 113.084 122.972C112.929 123.21 112.821 123.475 112.768 123.754Z" fill="#371A45"/>
</g>
<path d="M119.603 141.964C117.429 141.964 115.276 141.302 113.644 139.973C109.695 136.759 110.677 128.289 111.612 123.526C111.76 122.777 112.153 122.099 112.729 121.597C113.305 121.095 114.032 120.798 114.796 120.752L126.386 120.055C126.857 120.026 127.329 120.094 127.773 120.255C128.217 120.416 128.624 120.666 128.967 120.989C129.31 121.313 129.584 121.703 129.77 122.136C129.956 122.569 130.051 123.036 130.05 123.507C130.036 129.412 129.308 137.034 125.922 139.81C124.168 141.242 121.874 141.964 119.603 141.964ZM126.524 122.4L114.934 123.098C114.692 123.112 114.461 123.206 114.278 123.365C114.094 123.525 113.969 123.74 113.922 123.978C112.523 131.097 112.975 136.394 115.13 138.149C117.604 140.162 121.859 140.088 124.422 137.988C126.45 136.326 127.672 130.908 127.69 123.497C127.691 123.347 127.661 123.199 127.602 123.061C127.543 122.924 127.456 122.8 127.346 122.698C127.237 122.595 127.107 122.515 126.966 122.464C126.824 122.413 126.674 122.391 126.524 122.4Z" fill="#371A45"/>
<path d="M117.089 126.042C117.409 130.744 116.606 137.835 122.339 139.34C122.492 139.376 122.636 139.441 122.762 139.533C122.889 139.624 122.996 139.74 123.078 139.873C123.159 140.006 123.213 140.154 123.237 140.309C123.261 140.463 123.253 140.62 123.215 140.772C123.177 140.923 123.109 141.066 123.015 141.191C122.922 141.316 122.804 141.421 122.669 141.5C122.534 141.579 122.385 141.63 122.23 141.651C122.075 141.672 121.917 141.662 121.766 141.622C120.964 141.377 120.202 141.015 119.507 140.547C117.502 139.242 116.367 136.814 116.009 134.607C115.483 131.771 115.836 128.882 115.842 126.093C115.851 125.301 117.009 125.246 117.089 126.04V126.042Z" fill="#371A45"/>
<path d="M117.571 91.5242C112.884 91.7837 108.158 92.1871 103.544 93.0349C102.024 93.3271 100.5 93.6595 99.122 94.1614C97.6481 94.6511 96.8612 92.5317 98.3127 91.9512C101.537 91.0562 104.745 90.8542 108.022 90.6541C111.205 90.4891 114.373 90.4514 117.558 90.5109C118.199 90.532 118.219 91.4897 117.568 91.5242H117.571Z" fill="#371A45"/>
<path d="M99.891 81.9609C99.891 81.9609 106.333 85.4363 111.881 90.4505C115.951 94.1285 118.395 107.222 110.752 111.372C103.109 115.521 97.9102 95.9141 97.9102 95.9141" fill="white"/>
<path d="M110.288 89.0689C107.981 92.4815 103.795 95.4237 98.3979 97.5488C98.0775 96.5406 97.9115 95.9121 97.9115 95.9121L99.8916 81.959C99.8916 81.959 105.171 84.8104 110.288 89.0689Z" fill="white"/>
<path d="M106.208 93.2694C99.9826 98.0342 89.5854 101.153 77.8098 101.153C71.2696 101.153 65.1562 100.189 59.9445 98.5195C60.7634 93.3576 61.5914 87.715 62.3155 81.5449H101.449C103.176 85.5247 104.773 89.4412 106.208 93.2694Z" fill="#E8E8E8"/>
<path d="M108.623 113.119C107.888 113.116 107.161 112.962 106.487 112.667C100.615 110.143 97.1477 97.6318 96.7715 96.2132C96.699 95.9143 96.7468 95.599 96.9046 95.3348C97.0624 95.0707 97.3177 94.8787 97.6157 94.8001C97.9137 94.7215 98.2307 94.7625 98.4987 94.9143C98.7668 95.0661 98.9645 95.3167 99.0496 95.6122C99.9922 99.1598 103.333 108.752 107.421 110.508C108.356 110.91 109.235 110.856 110.189 110.338C113.979 108.28 114.892 104.427 115.1 102.312C115.517 98.0742 113.92 93.67 111.127 91.3537C111.114 91.3435 111.102 91.332 111.09 91.3211C105.707 86.4585 99.3924 83.0285 99.3296 82.9946C99.1909 82.9227 99.068 82.8239 98.9679 82.704C98.8679 82.5841 98.7927 82.4456 98.7469 82.2965C98.701 82.1474 98.6853 81.9907 98.7008 81.8355C98.7162 81.6802 98.7624 81.5296 98.8368 81.3924C98.9112 81.2552 99.0121 81.1341 99.1339 81.0363C99.2556 80.9384 99.3956 80.8656 99.5458 80.8222C99.696 80.7789 99.8533 80.7657 100.009 80.7836C100.164 80.8015 100.314 80.8501 100.45 80.9264C100.718 81.0709 107.069 84.52 112.654 89.5624C116.061 92.4022 117.941 97.4899 117.445 102.541C117.015 106.927 114.78 110.521 111.315 112.403C110.438 112.88 109.529 113.119 108.623 113.119Z" fill="#371A45"/>
<path d="M83.4932 161.316C83.563 170.458 84.2621 178.007 83.5073 180.158C82.2852 183.668 79.1023 183.975 79.1023 183.975H67.3356C67.3356 183.975 60.7512 184.349 58.7538 182.516C56.7564 180.683 56.6769 177.817 57.7625 176.119C59.0319 174.132 61.8951 173.712 61.8951 173.712C61.8951 173.712 60.3008 163.589 58.6987 149.772C58.1342 144.896 57.5664 139.561 57.0691 134.049L84.2397 145.862C83.595 151.076 83.4547 156.422 83.4932 161.316Z" fill="white"/>
<g opacity="0.2">
<path d="M83.5073 180.16C82.2852 183.671 79.1023 183.977 79.1023 183.977H67.3356C67.3356 183.977 60.7513 184.351 58.7538 182.518C56.9429 180.856 56.709 178.342 57.4933 176.621C57.7806 177.296 58.2106 177.903 58.7538 178.398C60.7513 180.231 67.3356 179.857 67.3356 179.857H79.1023C79.1023 179.857 82.2852 179.551 83.5073 176.04C83.6771 175.553 83.7738 174.791 83.8206 173.793C83.8962 176.869 83.8674 179.13 83.5073 180.16Z" fill="#371A45"/>
</g>
<path d="M83.8187 172.915C83.7341 169.55 83.5291 165.211 83.4912 160.44C83.4823 159.311 83.4842 158.161 83.497 156.991C83.5745 163.778 83.9725 169.62 83.8187 172.915Z" fill="#D8D8D8"/>
<g opacity="0.2">
<path d="M83.4932 161.316C77.6137 154.662 65.3376 151.215 58.6936 149.772C58.129 144.896 57.5613 139.561 57.064 134.049L84.2346 145.862C83.595 151.076 83.4547 156.422 83.4932 161.316Z" fill="#371A45"/>
</g>
<path d="M65.7925 185.191C63.5029 185.191 59.6561 184.941 57.9567 183.383C55.4972 181.126 55.4209 177.596 56.7679 175.487C57.7497 173.953 59.4369 173.186 60.5673 172.829C59.9265 168.585 57.5235 152.232 55.8939 134.151C55.8781 133.996 55.8933 133.84 55.9385 133.691C55.9837 133.542 56.0581 133.403 56.1573 133.283C56.2566 133.163 56.3787 133.064 56.5166 132.992C56.6546 132.919 56.8056 132.875 56.9609 132.861C57.1162 132.847 57.2727 132.864 57.4214 132.911C57.57 132.957 57.7079 133.033 57.827 133.134C57.9461 133.234 58.044 133.357 58.1151 133.496C58.1862 133.634 58.2291 133.785 58.2412 133.94C60.1207 154.794 63.03 173.341 63.0595 173.526C63.0835 173.68 63.0768 173.836 63.0398 173.987C63.0029 174.138 62.9363 174.28 62.844 174.405C62.7518 174.53 62.6356 174.636 62.5022 174.716C62.3688 174.796 62.2208 174.849 62.0668 174.872C62.0476 174.872 59.7125 175.251 58.7557 176.748C57.9483 178.013 58.0227 180.246 59.5523 181.649C60.6731 182.677 64.739 182.94 67.2683 182.8H67.3324H79.028C79.3535 182.75 81.5021 182.33 82.3935 179.774C82.8088 178.583 82.678 174.698 82.5268 170.199C82.3025 163.543 81.9949 154.43 83.0645 145.718C83.0833 145.565 83.1321 145.417 83.2083 145.283C83.2845 145.148 83.3864 145.03 83.5084 144.935C83.6303 144.84 83.7698 144.77 83.9189 144.728C84.068 144.687 84.2239 144.676 84.3775 144.694C84.5311 144.713 84.6795 144.762 84.8142 144.838C84.949 144.914 85.0674 145.016 85.1627 145.137C85.258 145.259 85.3284 145.398 85.3698 145.547C85.4112 145.696 85.4229 145.851 85.4041 146.004C84.3576 154.533 84.6607 163.542 84.8818 170.119C85.0612 175.432 85.1791 178.942 84.6191 180.547C83.1644 184.72 79.3746 185.131 79.2144 185.146C79.1767 185.15 79.1389 185.151 79.101 185.151H67.3677C67.0684 185.166 66.5064 185.191 65.7925 185.191Z" fill="#371A45"/>
<path d="M113.647 130.946C113.323 134.261 112.566 137.268 111.32 139.913C106.243 150.683 79.8399 158.49 63.253 146.839C57.8496 143.041 55.8695 137.962 55.7253 130.896C55.5043 120.011 59.6343 104.418 62.3129 81.5449H101.447C103.778 86.9063 105.869 92.1525 107.64 97.2172C112.127 110.053 114.561 121.695 113.647 130.946Z" fill="white"/>
<g opacity="0.2">
<path d="M113.647 130.946C113.323 134.261 112.566 137.268 111.32 139.914C106.243 150.683 79.8399 158.49 63.253 146.839C57.8496 143.041 55.8695 137.962 55.7253 130.896C70.2885 131.666 100.177 132.787 113.647 130.946Z" fill="#371A45"/>
</g>
<g opacity="0.2">
<path d="M100.348 96.4444L100.659 96.3019C100.851 96.2136 101.038 96.1235 101.225 96.0334C101.33 95.9822 101.435 95.9317 101.539 95.8799C101.737 95.7821 101.931 95.6824 102.125 95.5814C102.208 95.5379 102.293 95.4957 102.376 95.4535C102.638 95.3141 102.896 95.1728 103.149 95.0296C103.245 94.9753 103.341 94.919 103.433 94.864C103.596 94.7703 103.757 94.6752 103.917 94.5789C104.029 94.5111 104.139 94.4421 104.249 94.3737C104.388 94.2884 104.526 94.2013 104.661 94.1122C104.772 94.0406 104.883 93.9677 104.993 93.8948C105.126 93.8053 105.258 93.7145 105.389 93.6238C105.492 93.5522 105.596 93.4812 105.697 93.409C105.878 93.2811 106.056 93.1475 106.231 93.0145C107.961 91.7045 109.376 90.2705 110.411 88.74C107.404 86.2371 104.341 84.2213 102.327 82.9861C102.076 82.3973 101.827 81.8098 101.57 81.2178H62.436C61.7138 87.3904 60.8865 93.0311 60.0649 98.1923C65.2773 99.8622 71.3901 100.826 77.9309 100.826C86.0737 100.826 93.5559 99.3342 99.4565 96.8389C99.5353 96.8056 99.6129 96.7711 99.6917 96.7372C99.9134 96.6396 100.132 96.542 100.348 96.4444Z" fill="#371A45"/>
</g>
<path d="M63.4837 81.6816C62.3302 91.6007 60.502 102.57 58.8397 112.475C58.031 117.562 57.205 122.635 56.9576 127.761C56.6154 134.474 57.519 141.14 63.2953 145.393C65.9156 147.392 69.0024 148.872 72.1462 149.863C81.7892 152.75 92.5883 151.62 101.577 147.162C105.137 145.308 108.713 142.824 110.389 139.094C114.059 130.692 112.638 120.532 110.709 111.814C109.433 106.82 108.146 101.871 106.885 96.8476C106.849 96.7049 106.868 96.5541 106.938 96.4246C107.008 96.2951 107.123 96.1963 107.262 96.1474C107.401 96.0984 107.554 96.103 107.689 96.1601C107.825 96.2173 107.935 96.3229 107.997 96.4563C109.455 99.6225 110.705 102.88 111.741 106.207C112.81 109.984 113.618 113.856 114.256 117.73C115.342 125.142 115.644 133.031 112.538 140.059C112.184 140.902 111.65 141.76 111.128 142.509C108.382 146.217 104.36 148.583 100.222 150.392C91.1862 154.105 80.8485 154.955 71.449 152.108C68.029 151.028 64.7205 149.437 61.8624 147.258C57.1761 143.783 55.0179 138.669 54.6545 132.979C54.3803 129.457 54.6545 125.909 55.0307 122.416C55.6561 116.372 57.2627 107.938 58.2066 101.875C59.3274 95.0709 60.3366 88.257 61.1428 81.4112C61.3652 79.9018 63.6067 80.0987 63.4837 81.6836V81.6816Z" fill="#371A45"/>
<path d="M112.625 139.293C112.505 143.889 112.377 149.045 112.241 154.12C111.893 166.886 111.472 179.143 110.939 180.671C109.713 184.182 106.534 184.489 106.534 184.489H93.6232C93.6232 184.489 92.4441 184.698 90.3089 183.029C88.5486 181.655 87.7732 178.746 88.9779 176.417C89.4021 175.6 90.2301 174.809 90.2301 174.809C90.2301 174.809 88.2794 164.543 87.0157 154.767H87.0125C86.6761 152.158 86.3896 149.589 86.1993 147.254L98.3671 128.534L111.146 108.876C112.072 118.077 113.631 122.865 114.345 126.805C115.047 130.664 114.939 133.708 112.625 139.293Z" fill="white"/>
<g opacity="0.2">
<path d="M111.403 176.44C111.26 178.684 111.105 180.196 110.938 180.671C109.712 184.182 106.532 184.489 106.532 184.489H93.6232C93.6232 184.489 92.4441 184.699 90.3089 183.029C88.8171 181.865 88.0333 179.601 88.5601 177.523C88.8837 178.207 89.3598 178.808 89.9519 179.28C92.1608 181.01 93.3829 180.791 93.3829 180.791H106.745C106.745 180.791 110.035 180.471 111.305 176.84C111.348 176.71 111.381 176.576 111.403 176.44Z" fill="#371A45"/>
</g>
<g opacity="0.2">
<path d="M112.625 139.292C112.505 143.889 112.377 149.045 112.241 154.12C101.091 150.253 87.0189 154.767 87.0189 154.767H87.0157C86.6793 152.158 86.3929 149.589 86.2025 147.253L98.3703 128.533L114.347 126.803C115.047 130.664 114.939 133.707 112.625 139.292Z" fill="#371A45"/>
</g>
<path d="M68.0469 148.922C72.5 150.559 77.1677 151.515 81.92 151.459C83.4996 151.459 85.0939 151.395 86.7261 151.357C86.9889 151.351 87.2452 151.439 87.4476 151.607C87.6501 151.774 87.785 152.009 87.8276 152.267C88.7671 158.455 89.9539 165.615 90.9471 171.809C91.0996 172.735 91.249 173.663 91.3899 174.589C91.4886 174.984 91.3649 175.42 91.0477 175.656C89.2009 177.255 89.0651 180.208 90.8286 181.922C91.5674 182.538 92.4306 183.136 93.3681 183.307C93.4075 183.314 93.4474 183.317 93.4873 183.317C93.4777 183.317 93.5219 183.31 93.4168 183.327L93.6245 183.308H106.53L106.418 183.314C107.384 183.136 108.262 182.637 108.91 181.9C109.557 181.162 109.937 180.228 109.986 179.249C111.085 165.823 110.871 152.279 111.534 138.839C112.491 136.504 113.303 134.125 113.494 131.737C113.713 129.274 113.191 126.846 112.643 124.412C112.066 121.904 111.484 119.341 111.037 116.763C110.591 114.184 110.236 111.588 109.971 108.989C109.941 108.68 110.035 108.371 110.232 108.131C110.43 107.89 110.714 107.737 111.024 107.706C111.334 107.674 111.644 107.767 111.886 107.962C112.128 108.158 112.283 108.442 112.316 108.751C112.81 113.884 113.747 118.866 114.943 123.897C115.532 126.491 116.091 129.212 115.84 131.929C115.617 134.659 114.731 137.247 113.71 139.737C113.666 149.357 113.172 163.771 112.665 175.002C112.505 177.016 112.528 179.057 112.05 181.043C111.645 182.212 110.953 183.323 109.963 184.155C109.091 184.892 108.045 185.394 106.924 185.612C106.794 185.64 106.661 185.656 106.528 185.66H93.6232L93.8302 185.642C93.7397 185.657 93.6482 185.665 93.5565 185.667C92.23 185.67 90.9933 184.964 89.968 184.239C86.5293 181.873 86.3115 176.711 89.4175 173.956L89.0759 175.024C88.8683 174.094 88.6793 173.17 88.4992 172.242C87.5886 167.631 86.8273 162.903 86.2346 158.246C86.0058 156.368 85.7681 154.488 85.6232 152.597L86.7363 153.581C83.5137 153.577 80.1648 153.613 76.9492 153.031C73.697 152.481 70.5532 151.407 67.5881 150.002C66.9473 149.699 67.3042 148.665 68.0463 148.919L68.0469 148.922Z" fill="#371A45"/>
<path d="M90.9061 116.501C91.4918 117.248 92.3198 117.938 93.1733 118.339C93.4601 118.477 93.6804 118.722 93.786 119.022C93.8915 119.321 93.8738 119.651 93.7366 119.937C93.3848 120.709 92.2845 120.848 91.7417 120.204C90.8641 119.29 90.2099 118.186 89.8302 116.978C89.7837 116.829 89.7985 116.667 89.8715 116.529C89.9444 116.39 90.0695 116.286 90.2192 116.24C90.3459 116.202 90.4817 116.206 90.6057 116.253C90.7297 116.299 90.8352 116.384 90.9061 116.496V116.501Z" fill="#371A45"/>
<path d="M58.0624 134.016C60.44 134.016 62.3674 132.093 62.3674 129.721C62.3674 127.349 60.44 125.426 58.0624 125.426C55.6848 125.426 53.7574 127.349 53.7574 129.721C53.7574 132.093 55.6848 134.016 58.0624 134.016Z" fill="white"/>
<g opacity="0.2">
<path d="M62.3687 129.718C62.3687 130.858 61.915 131.95 61.1076 132.756C60.3001 133.561 59.205 134.014 58.063 134.014C56.9211 134.014 55.826 133.561 55.0185 132.756C54.211 131.95 53.7574 130.858 53.7574 129.718C53.756 129.108 53.8872 128.504 54.1419 127.949C54.4833 128.701 55.035 129.34 55.7308 129.787C56.4266 130.235 57.237 130.473 58.065 130.473C58.8929 130.473 59.7034 130.235 60.3991 129.787C61.0949 129.34 61.6466 128.701 61.988 127.949C62.2414 128.504 62.3712 129.108 62.3687 129.718Z" fill="#371A45"/>
</g>
<path d="M58.0618 135.191C56.9774 135.191 55.9174 134.87 55.0157 134.269C54.1141 133.668 53.4114 132.814 52.9964 131.814C52.5814 130.815 52.4727 129.715 52.6842 128.654C52.8956 127.593 53.4177 126.618 54.1843 125.853C54.951 125.088 55.9278 124.567 56.9913 124.355C58.0548 124.144 59.1572 124.252 60.1592 124.666C61.1612 125.079 62.0177 125.78 62.6205 126.68C63.2233 127.579 63.5454 128.636 63.5459 129.718C63.5448 131.169 62.9668 132.56 61.9386 133.586C60.9104 134.613 59.5161 135.19 58.0618 135.191ZM58.0618 126.601C57.4434 126.602 56.839 126.785 56.3249 127.127C55.8108 127.47 55.4102 127.957 55.1737 128.527C54.9371 129.097 54.8753 129.725 54.996 130.33C55.1167 130.935 55.4145 131.49 55.8518 131.927C56.2891 132.363 56.8462 132.66 57.4527 132.78C58.0591 132.9 58.6878 132.839 59.259 132.602C59.8303 132.366 60.3185 131.966 60.6621 131.454C61.0056 130.941 61.1889 130.338 61.1889 129.721C61.1879 128.894 60.8581 128.101 60.2718 127.516C59.6856 126.931 58.8908 126.602 58.0618 126.601Z" fill="#371A45"/>
<path d="M58.0618 135.191C56.9774 135.191 55.9174 134.87 55.0157 134.269C54.1141 133.668 53.4114 132.814 52.9964 131.814C52.5814 130.815 52.4727 129.715 52.6842 128.654C52.8956 127.593 53.4177 126.618 54.1843 125.853C54.951 125.088 55.9278 124.567 56.9913 124.355C58.0548 124.144 59.1572 124.252 60.1592 124.666C61.1612 125.079 62.0177 125.78 62.6205 126.68C63.2233 127.579 63.5454 128.636 63.5459 129.718C63.5448 131.169 62.9668 132.56 61.9386 133.586C60.9104 134.613 59.5161 135.19 58.0618 135.191ZM58.0618 126.601C57.4434 126.602 56.839 126.785 56.3249 127.127C55.8108 127.47 55.4102 127.957 55.1737 128.527C54.9371 129.097 54.8753 129.725 54.996 130.33C55.1167 130.935 55.4145 131.49 55.8518 131.927C56.2891 132.363 56.8462 132.66 57.4527 132.78C58.0591 132.9 58.6878 132.839 59.259 132.602C59.8303 132.366 60.3185 131.966 60.6621 131.454C61.0056 130.941 61.1889 130.338 61.1889 129.721C61.1879 128.894 60.8581 128.101 60.2718 127.516C59.6856 126.931 58.8908 126.602 58.0618 126.601Z" fill="#371A45"/>
<path d="M64.6416 141.482L86.9331 141.939C88.205 141.961 89.4341 141.48 90.3518 140.601C91.2695 139.722 91.8012 138.517 91.8308 137.248L92.0743 125.414C92.0935 124.311 91.7319 123.234 91.05 122.366C90.3681 121.497 89.4075 120.889 88.3294 120.644C88.0155 120.571 87.6948 120.532 87.3727 120.527L65.0844 120.07C63.8123 120.047 62.5826 120.527 61.6647 121.406C60.7467 122.285 60.2153 123.491 60.1867 124.76L59.9944 134.134L59.9425 136.595C59.9203 137.864 60.402 139.089 61.2824 140.005C62.1628 140.92 63.3704 141.451 64.6416 141.482Z" fill="white"/>
<path d="M64.6416 141.482L86.9331 141.939C88.205 141.961 89.4341 141.48 90.3518 140.601C91.2695 139.722 91.8012 138.517 91.8308 137.248L92.0743 125.414C92.0935 124.311 91.7319 123.234 91.05 122.366C90.3681 121.497 89.4075 120.889 88.3294 120.644C88.0155 120.571 87.6948 120.532 87.3727 120.527L65.0844 120.07C63.8123 120.047 62.5826 120.527 61.6647 121.406C60.7467 122.285 60.2153 123.491 60.1867 124.76L59.9944 134.134L59.9425 136.595C59.9203 137.864 60.402 139.089 61.2824 140.005C62.1628 140.92 63.3704 141.451 64.6416 141.482Z" fill="white"/>
<path d="M64.6416 141.482L86.9331 141.939C88.205 141.961 89.4341 141.48 90.3518 140.601C91.2695 139.722 91.8012 138.517 91.8308 137.248L92.0743 125.414C92.0935 124.311 91.7319 123.234 91.05 122.366C90.3681 121.497 89.4075 120.889 88.3294 120.644C88.0155 120.571 87.6948 120.532 87.3727 120.527L65.0844 120.07C63.8123 120.047 62.5826 120.527 61.6647 121.406C60.7467 122.285 60.2153 123.491 60.1867 124.76L59.9944 134.134L59.9425 136.595C59.9203 137.864 60.402 139.089 61.2824 140.005C62.1628 140.92 63.3704 141.451 64.6416 141.482Z" fill="white"/>
<g opacity="0.2">
<path d="M64.609 141.482L86.8997 141.938C88.1717 141.96 89.4009 141.48 90.3187 140.601C91.2365 139.722 91.7684 138.516 91.7981 137.247L92.041 125.413C92.0604 124.31 91.6988 123.234 91.017 122.365C90.3353 121.497 89.3747 120.889 88.2967 120.643C87.0151 121.456 86.1987 121.976 86.1987 121.976C84.9171 131.453 82.109 136.135 70.2808 136.085C65.1754 136.062 61.9701 135.22 59.9586 134.133L59.9073 136.595C59.8849 137.864 60.3669 139.09 61.2478 140.006C62.1288 140.921 63.3371 141.452 64.609 141.482Z" fill="#371A45"/>
</g>
<path d="M86.0936 143.097C86.0455 143.097 85.9975 143.097 85.9494 143.097L65.5766 142.68C63.7386 142.637 61.9922 141.87 60.7193 140.547C59.4464 139.223 58.7506 137.451 58.784 135.617L58.9864 125.69C59.0266 123.881 59.7746 122.159 61.0705 120.893C62.3664 119.627 64.1074 118.916 65.9214 118.914C65.9694 118.914 66.0175 118.914 66.0662 118.914L86.4384 119.332C88.2762 119.374 90.0225 120.141 91.2954 121.464C92.5683 122.788 93.2642 124.56 93.231 126.394L93.0259 136.318C92.9866 138.127 92.2393 139.849 90.9439 141.116C89.6484 142.383 87.9076 143.094 86.0936 143.097ZM85.9975 140.745H86.093C87.2908 140.743 88.4404 140.274 89.296 139.438C90.1516 138.602 90.6453 137.465 90.6716 136.27L90.876 126.346C90.8965 125.135 90.4364 123.966 89.5961 123.092C88.7559 122.219 87.6035 121.712 86.3903 121.682L66.0175 121.265C65.9861 121.265 65.9534 121.265 65.922 121.265C64.7242 121.267 63.5746 121.736 62.719 122.572C61.8634 123.408 61.3696 124.546 61.3434 125.74L61.139 135.664C61.1152 136.875 61.5742 138.047 62.4152 138.921C63.2562 139.795 64.4104 140.301 65.6247 140.327L85.9975 140.745Z" fill="#371A45"/>
<path d="M72.5275 141.562L72.5705 141.647L86.9343 141.941C87.8556 141.956 88.762 141.708 89.5458 141.224C90.3297 140.741 90.9579 140.044 91.356 139.215C91.6543 138.602 91.8148 137.931 91.8263 137.25L91.9366 131.992L91.9731 130.256L92.0372 127.211L92.075 125.415C92.0975 124.147 91.6158 122.92 90.7351 122.005C89.8544 121.089 88.6463 120.558 87.3746 120.528L82.5582 120.431C83.6511 120.662 84.6294 121.265 85.3254 122.137C86.0214 123.009 86.3918 124.095 86.373 125.21L86.3019 128.726L86.2378 131.607L86.1276 137.054C86.0956 138.322 85.5629 139.526 84.6454 140.404C83.7279 141.282 82.4999 141.764 81.2285 141.743L72.5275 141.562Z" fill="white"/>
<path d="M70.2526 141.515L70.2956 141.6L86.9343 141.941C87.8556 141.957 88.762 141.708 89.5458 141.225C90.3296 140.742 90.9579 140.044 91.356 139.215C91.6542 138.602 91.8148 137.931 91.8263 137.25L91.9365 131.992L91.9731 130.257L92.0372 127.211C91.0759 127.058 89.7898 127.164 89.0638 128.575C88.057 130.528 87.0471 129.849 86.3019 128.723L86.2378 131.604L86.1276 137.051C86.0956 138.319 85.5629 139.523 84.6454 140.401C83.7279 141.28 82.4999 141.761 81.2285 141.74L70.2526 141.515Z" fill="#D8D8D8"/>
<path d="M87.0362 143.117H86.9081L65.5555 142.678L65.5683 141.509C65.5811 140.654 66.1809 140.43 66.766 140.375V140.351L67.1222 140.358C67.2158 140.358 67.3042 140.358 67.3863 140.358L81.2471 140.56C82.2074 140.578 83.1357 140.216 83.8291 139.553C84.5225 138.89 84.9245 137.98 84.9472 137.022L85.1913 125.186C85.2077 124.344 84.9293 123.523 84.4039 122.864C83.8785 122.206 83.1392 121.75 82.3134 121.577L82.58 119.25L87.3945 119.348C88.9796 119.383 90.4864 120.043 91.5842 121.184C92.682 122.326 93.2811 123.855 93.2502 125.437L93.0067 137.271C92.9713 138.829 92.3272 140.313 91.2117 141.404C90.0962 142.496 88.5975 143.11 87.0349 143.115L87.0362 143.117ZM85.9334 140.744L86.9548 140.764C87.9139 140.78 88.8404 140.417 89.5323 139.754C90.2243 139.092 90.6255 138.183 90.6485 137.226L90.892 125.391C90.9107 124.432 90.5478 123.506 89.8827 122.814C89.2177 122.123 88.3048 121.723 87.3445 121.702L86.4569 121.684C87.1915 122.721 87.5733 123.966 87.5463 125.236L87.3028 137.072C87.2787 138.416 86.7956 139.711 85.9334 140.744Z" fill="#371A45"/>
<path d="M77.4586 131.045C77.4522 131.483 78.0161 135.026 78.0161 135.026L80.5153 135.062C82.2365 135.088 83.6553 133.33 83.6905 131.137C83.7258 128.945 82.3544 127.146 80.6332 127.121L78.134 127.083C78.134 127.083 77.4688 130.333 77.4586 131.045Z" fill="#22A7F0"/>
<path d="M77.4586 131.045C77.4522 131.483 78.0161 135.026 78.0161 135.026L80.5153 135.062C82.2365 135.088 83.6553 133.33 83.6905 131.137C83.7258 128.945 82.3544 127.146 80.6332 127.121L78.134 127.083C78.134 127.083 77.4688 130.333 77.4586 131.045Z" fill="#1C7AEA"/>
<path d="M80.5505 135.945H80.5006L78.7646 135.919C78.3419 135.914 77.9346 135.76 77.6156 135.483C77.2966 135.206 77.0865 134.825 77.0228 134.409C76.5666 131.461 76.5743 131.161 76.5743 131.034C76.5743 130.873 76.5839 130.385 77.1183 127.657C77.1976 127.251 77.4162 126.885 77.7365 126.621C78.0569 126.358 78.4591 126.214 78.8742 126.214H78.9004L80.646 126.241C81.7559 126.257 82.778 126.805 83.5233 127.785C84.2198 128.699 84.5928 129.894 84.5742 131.152C84.5351 133.806 82.7357 135.945 80.5505 135.945ZM78.3404 131.053C78.3404 131.126 78.375 131.588 78.7697 134.139L80.5268 134.182H80.5499C81.7501 134.182 82.7812 132.788 82.8056 131.124C82.8184 130.26 82.573 129.452 82.1141 128.85C81.7046 128.311 81.1734 128.011 80.6185 128.003L78.8735 127.976C78.4852 129.876 78.3481 130.805 78.3423 131.053H78.3404Z" fill="#371A45"/>
<path d="M81.1941 131.105C81.2267 128.912 79.8578 127.113 78.1366 127.088C76.4153 127.063 74.9936 128.82 74.9609 131.013C74.9283 133.206 76.2972 135.005 78.0185 135.03C79.7397 135.055 81.1615 133.298 81.1941 131.105Z" fill="#22A7F0"/>
<g opacity="0.7">
<path d="M81.1913 131.102C81.1895 131.264 81.1795 131.425 81.1612 131.586C80.8568 129.84 79.647 128.529 78.1789 128.506C76.5852 128.483 75.2516 129.986 75.0338 131.947C74.9786 131.637 74.9537 131.323 74.9594 131.009C74.9921 128.815 76.4128 127.059 78.1347 127.084C79.8565 127.109 81.2234 128.908 81.1913 131.102Z" fill="white"/>
</g>
<path d="M81.1914 131.102C81.1587 133.293 79.738 135.051 78.0161 135.027C76.2942 135.002 74.9267 133.202 74.9594 131.009C74.9634 130.672 75.0018 130.337 75.0741 130.009C75.5067 131.494 76.6204 132.556 77.9405 132.576C79.3887 132.599 80.6274 131.357 81.001 129.654C81.1353 130.125 81.1994 130.612 81.1914 131.102Z" fill="#1C7AEA"/>
<path d="M78.0546 135.907H78.0033C76.8934 135.892 75.8713 135.344 75.126 134.364C74.4295 133.449 74.0565 132.254 74.0751 130.996C74.0937 129.738 74.5025 128.555 75.2286 127.661C76.0027 126.702 77.0421 126.184 78.1507 126.203C79.2593 126.221 80.282 126.767 81.0273 127.747C81.7239 128.661 82.0968 129.856 82.0782 131.115C82.0597 132.373 81.6515 133.556 80.9248 134.45C80.166 135.391 79.1452 135.907 78.0546 135.907ZM74.9588 131.008L75.8425 131.022C75.8297 131.886 76.0751 132.694 76.5339 133.297C76.9434 133.835 77.4746 134.135 78.0296 134.144H78.0526C78.5993 134.144 79.1299 133.86 79.5496 133.341C80.0257 132.752 80.2949 131.952 80.3077 131.088C80.3205 130.223 80.0751 129.415 79.6162 128.812C79.2068 128.274 78.6755 127.974 78.1212 127.965H78.0975C77.5509 127.965 77.0203 128.25 76.6012 128.768C76.1244 129.356 75.8553 130.157 75.8425 131.022L74.9588 131.008Z" fill="#371A45"/>
<path d="M71.5727 142.421C71.3388 142.421 71.1144 142.328 70.9487 142.163C70.7831 141.999 70.6897 141.775 70.689 141.542L70.6704 135.552C70.6694 135.015 70.5346 134.485 70.278 134.012C70.0214 133.539 69.6512 133.137 69.2004 132.842C68.4901 132.379 67.9096 131.743 67.5133 130.994C67.117 130.246 66.9181 129.409 66.9351 128.563L67.0793 120.124C67.0833 119.893 67.1782 119.672 67.3435 119.51C67.5087 119.348 67.7312 119.257 67.963 119.257H67.9784C68.2124 119.261 68.4353 119.357 68.5981 119.525C68.7609 119.693 68.8503 119.918 68.8467 120.152L68.7018 128.591C68.6912 129.14 68.8205 129.683 69.0777 130.168C69.3348 130.654 69.7113 131.066 70.1719 131.367C70.8669 131.822 71.4378 132.441 71.8334 133.171C72.229 133.9 72.4369 134.716 72.4384 135.545L72.457 141.535C72.4574 141.65 72.4348 141.765 72.3907 141.872C72.3466 141.979 72.2818 142.077 72.2 142.159C72.1182 142.241 72.021 142.306 71.9139 142.351C71.8068 142.395 71.692 142.418 71.5759 142.419L71.5727 142.421Z" fill="#371A45"/>
<path d="M113.36 125.051C113.36 125.051 115.81 125.696 116.321 128.683C116.832 131.671 114.759 133.435 114.759 133.435C114.759 133.435 103.224 137.847 92.0372 134.299C92.0372 134.299 87.7322 130.388 92.0756 126.256C92.0743 126.255 103.983 127.717 113.36 125.051Z" fill="white"/>
<path d="M114.758 133.435C114.758 133.435 103.223 137.846 92.0371 134.296C92.0371 134.296 88.976 131.518 90.6197 128.171C90.6248 128.186 90.6299 128.202 90.6357 128.218C91.1483 129.742 92.4479 130.877 94.0134 131.262C102.455 133.34 110.744 131.254 113.778 130.315C114.308 130.155 114.798 129.883 115.214 129.518C115.63 129.153 115.963 128.703 116.189 128.198C116.195 128.188 116.2 128.176 116.204 128.165C116.248 128.329 116.287 128.5 116.32 128.682C116.829 131.671 114.758 133.435 114.758 133.435Z" fill="#D8D8D8"/>
<path d="M101.505 136.864C98.4075 136.864 95.0381 136.484 91.6777 135.418L91.4322 135.34L91.24 135.167C91.1484 135.083 88.9862 133.087 88.9536 130.262C88.9337 128.512 89.7091 126.878 91.2605 125.403L91.6636 125.019L92.2172 125.083C92.3345 125.098 104.008 126.483 113.035 123.914L113.346 123.826L113.659 123.909C113.787 123.943 116.85 124.789 117.481 128.479C118.097 132.087 115.627 134.233 115.521 134.324L115.367 134.452L115.178 134.525C114.834 134.663 108.96 136.864 101.505 136.864ZM92.6677 133.263C102.408 136.233 112.526 132.969 114.12 132.413C114.555 131.944 114.875 131.381 115.055 130.768C115.235 130.155 115.27 129.508 115.157 128.879C114.871 127.204 113.804 126.519 113.303 126.286C104.96 128.55 95.0278 127.743 92.5139 127.486C91.7091 128.371 91.3054 129.289 91.3118 130.219C91.322 131.653 92.2775 132.837 92.6684 133.263H92.6677Z" fill="#371A45"/>
<path d="M115.082 125.099C104.591 129.718 94.1999 119.609 94.1999 119.609C94.1999 119.609 91.3425 120.661 88.5287 119.274C88.5287 119.274 87.6745 122.483 84.316 120.896C81.761 119.682 79.2337 114.233 81.7143 108.807V108.804C82.3474 107.42 83.3048 106.041 84.6691 104.73C84.4217 104.807 77.0299 107.12 76.7614 102.91C76.4929 98.7012 87.1234 95.6862 95.1131 98.1373C99.0406 99.3393 101.471 101.661 101.471 101.661C101.471 101.661 106.563 102.975 111.806 105.362L111.883 90.4482C118.173 96.0915 122.127 103.446 122.89 110.062C123.641 116.573 121.306 122.366 115.082 125.099Z" fill="white"/>
<g opacity="0.2">
<path d="M115.082 125.099C104.591 129.718 94.1999 119.609 94.1999 119.609C94.1999 119.609 91.3425 120.661 88.5287 119.274C88.5287 119.274 87.6745 122.483 84.316 120.896C81.761 119.681 79.2337 114.233 81.7143 108.807C81.7021 109.033 81.3073 117.966 84.778 118.615C88.2929 119.27 88.2929 116.225 88.2929 116.225C88.2929 116.225 92.6914 119.132 94.6511 116.367C94.6511 116.367 118.759 133.573 122.89 110.065C123.641 116.572 121.306 122.366 115.082 125.099Z" fill="#371A45"/>
</g>
<path d="M111.561 105.897C108.797 104.992 105.981 104.339 103.238 103.398C102.882 103.284 102.031 103.038 101.688 102.939C101.334 102.841 100.919 102.764 100.639 102.495C99.1207 101.169 97.3072 100.162 95.4187 99.4766C90.5934 97.8278 83.8802 98.0337 79.4567 100.727C78.6089 101.328 77.7579 102.07 77.977 103.112C78.3852 104.911 82.1257 104.135 83.4912 103.839C84.8472 103.612 85.7341 105.284 84.8075 106.275L84.787 106.3L84.746 106.348L84.6639 106.443C81.9789 109.349 81.0267 113.81 82.7505 117.399C83.299 118.542 84.1128 119.593 85.0625 119.932C85.6828 120.188 86.3756 120.316 86.8741 119.821C87.1106 119.612 87.2753 119.241 87.4214 118.939C87.5949 118.641 87.868 118.413 88.1928 118.295C88.5176 118.177 88.8735 118.177 89.1983 118.295C90.6081 118.917 92.2493 118.964 93.7289 118.528C94.2255 118.373 94.8465 118.554 95.2028 118.935C95.7456 119.427 96.3242 119.894 96.9189 120.346C101.261 123.602 106.882 126.058 112.313 124.785C121.701 122.436 123.48 113.428 120.55 105.184C119.158 101.205 116.882 97.512 114.086 94.3429C113.144 93.2836 112.146 92.2758 111.095 91.324C110.979 91.221 110.885 91.0962 110.817 90.9568C110.75 90.8173 110.711 90.666 110.702 90.5114C110.694 90.3569 110.716 90.2021 110.767 90.0561C110.819 89.9101 110.899 89.7756 111.002 89.6605C111.106 89.5453 111.232 89.4517 111.372 89.3851C111.512 89.3184 111.663 89.28 111.818 89.2721C111.973 89.2641 112.128 89.2867 112.275 89.3387C112.421 89.3907 112.555 89.4709 112.67 89.5748C113.789 90.588 114.852 91.6608 115.854 92.7887C122.546 100.29 127.984 113.349 120.889 122.24C118.827 124.693 115.946 126.332 112.849 127.074C105.846 128.687 98.751 125.189 93.6123 120.67L93.5578 120.62L93.5309 120.595C93.5046 120.572 93.5642 120.627 93.5822 120.639C93.6911 120.723 93.8182 120.781 93.9535 120.808C94.0887 120.835 94.2284 120.83 94.3614 120.793C94.2922 120.818 94.1467 120.852 94.0762 120.872C92.239 121.336 90.2448 121.271 88.4774 120.538L88.4031 120.508L88.3653 120.493C88.7062 120.646 89.2445 120.524 89.4649 120.113C88.537 122.359 86.0865 123.229 83.5521 121.819C79.4509 119.202 78.6755 113.166 80.3814 108.946C80.9869 107.394 81.9046 105.998 82.9901 104.78L83.0388 104.723L83.0625 104.697C82.4493 105.405 83.167 106.322 83.8783 106.159C81.7944 106.59 79.7277 106.971 77.6259 106.067C76.1328 105.427 75.3042 103.603 75.656 102.039C76.6569 97.8233 83.39 96.413 87.067 96.147C92.3729 95.7283 98.0781 97.106 102.159 100.694L102.207 100.737C102.103 100.647 101.98 100.582 101.847 100.546C101.999 100.581 102.18 100.64 102.325 100.673C103.543 101.037 104.867 101.407 106.062 101.824C108.12 102.694 110.138 103.669 112.051 104.829C112.638 105.193 112.228 106.108 111.562 105.899L111.561 105.897Z" fill="#371A45"/>
<path d="M35.3006 68.2513C38.7554 75.5309 44.0403 81.7942 50.6411 86.4316C52.0338 87.4116 53.4779 88.3169 54.9672 89.1436C55.6978 89.5521 56.4501 89.9421 57.2146 90.3205C63.7079 93.4972 70.8349 95.1741 78.0667 95.2267C78.9857 95.2305 79.9014 95.2105 80.8139 95.1666C97.5245 94.3272 113.329 84.8774 121.347 69.0824C133.163 45.8201 123.604 17.6133 100.004 6.07747C95.5722 3.90825 90.8313 2.43371 85.9488 1.7058C85.3925 1.61758 84.8305 1.54533 84.2685 1.48524C82.7665 1.31475 81.2653 1.21395 79.7649 1.18284C72.8742 1.05788 66.0353 2.39162 59.699 5.09611C58.6998 5.52233 57.7148 5.98221 56.7442 6.47576C55.2864 7.2179 53.8677 8.0341 52.4937 8.92116C45.4113 13.4679 39.6735 19.8179 35.8722 27.3157C29.0738 40.6966 29.3494 55.7117 35.3006 68.2513Z" fill="white"/>
<path d="M78.2782 95.3456H78.0661C70.8163 95.2893 63.6718 93.6083 57.1608 90.4266C56.3232 90.0124 55.5869 89.6262 54.9077 89.2465C53.4149 88.4174 51.9671 87.51 50.5706 86.5281C43.9578 81.8738 38.6606 75.596 35.191 68.3017C28.9681 55.1861 29.1763 40.2279 35.7633 27.2619C39.5823 19.7503 45.3341 13.3866 52.4296 8.82267C53.8072 7.93365 55.2293 7.11532 56.6904 6.37088C57.6446 5.8818 58.6411 5.41829 59.6523 4.98675C66.0041 2.27583 72.86 0.939458 79.7675 1.06581C81.265 1.09522 82.7838 1.19751 84.282 1.36885C84.8844 1.43278 85.4355 1.50566 85.9674 1.59005C90.8618 2.31973 95.6142 3.79816 100.057 5.97322C111.546 11.5884 120.088 21.2843 124.112 33.2722C128.104 45.1635 127.16 57.9032 121.453 69.138C113.706 84.3959 98.1371 94.4147 80.8203 95.2861C79.9738 95.3225 79.1222 95.3456 78.2782 95.3456ZM78.8364 1.29405C72.2736 1.29949 65.7798 2.62976 59.7458 5.20476C58.7397 5.63439 57.7478 6.09981 56.7981 6.58058C55.3444 7.32195 53.9294 8.13642 52.5584 9.02086C45.499 13.5625 39.7767 19.8949 35.978 27.3693C29.4237 40.2689 29.2167 55.1516 35.4083 68.2007C38.8599 75.458 44.13 81.7041 50.709 86.335C52.0988 87.312 53.5395 88.2149 55.0249 89.04C55.701 89.4184 56.4347 89.802 57.2678 90.2144C63.7447 93.3837 70.8542 95.0564 78.068 95.1084C78.9786 95.1128 79.8975 95.0924 80.8088 95.0483C98.0397 94.1833 113.533 84.2137 121.244 69.028C126.922 57.8508 127.861 45.1814 123.89 33.345C119.884 21.4173 111.383 11.7731 99.9525 6.18548C95.5318 4.0219 90.8033 2.55103 85.9334 1.82468C85.4041 1.74093 84.8568 1.66933 84.2577 1.60476C82.7665 1.43406 81.2548 1.33241 79.7649 1.303C79.4547 1.29703 79.1452 1.29405 78.8364 1.29405Z" fill="#371A45"/>
<g opacity="0.2">
<path d="M121.347 69.0839C113.33 84.8782 97.5238 94.3293 80.8133 95.1681C79.9003 95.2137 78.9852 95.235 78.068 95.232C70.8362 95.176 63.7095 93.5 57.2139 90.3278C56.4507 89.9442 55.6991 89.5606 54.9666 89.1514C53.478 88.3227 52.0342 87.4164 50.6411 86.4363C45.573 82.8747 41.265 78.3439 37.9672 73.1069C34.6695 67.87 32.4478 62.0314 31.4314 55.9305C34.8888 62.7994 39.9946 68.7092 46.2944 73.1339C47.6864 74.1158 49.1303 75.0222 50.62 75.8491C51.3498 76.257 52.1015 76.6451 52.8673 77.0255C59.3596 80.2035 66.4866 81.8802 73.7182 81.931C74.6384 81.9348 75.5545 81.9135 76.4666 81.867C93.1772 81.0308 108.981 71.581 117 55.7828C121.678 46.5696 123.005 36.5809 121.434 27.1611C127.849 39.8996 128.323 55.3538 121.347 69.0839Z" fill="#371A45"/>
</g>
<path d="M78.2782 96.1392H78.0629C70.6935 96.0823 63.4312 94.3737 56.8128 91.1397C55.9605 90.7178 55.2108 90.3259 54.5206 89.9397C53.0033 89.0967 51.5316 88.1744 50.1118 87.1766C43.3886 82.4428 38.0031 76.0587 34.4759 68.6414C28.1465 55.3021 28.3587 40.0894 35.0577 26.9035C38.9397 19.2667 44.7863 12.7965 51.999 8.15545C53.3984 7.25215 54.8432 6.4208 56.3277 5.66467C57.2985 5.16983 58.3142 4.69674 59.3395 4.25816C65.7947 1.50365 72.7619 0.145724 79.7816 0.273927C81.3041 0.303975 82.8485 0.407545 84.3717 0.581439C84.9818 0.645371 85.5457 0.72145 86.0904 0.807758C91.063 1.54931 95.8912 3.05146 100.405 5.26126C112.086 10.971 120.773 20.83 124.864 33.0218C128.924 45.1183 127.964 58.0722 122.161 69.4969C114.286 85.008 98.4594 95.193 80.8588 96.0772C80.0014 96.1181 79.1343 96.1392 78.2782 96.1392ZM78.8357 2.08704C72.3811 2.09293 65.9944 3.40143 60.0598 5.93382C59.0685 6.35641 58.0931 6.8116 57.1608 7.28854C55.7311 8.01691 54.3396 8.81753 52.9916 9.68726C46.0501 14.1528 40.423 20.3788 36.6867 27.7276C30.2465 40.4053 30.0408 55.0354 36.1266 67.8615C39.5198 74.9951 44.7003 81.1348 51.1672 85.687C52.5338 86.6479 53.9505 87.5359 55.4113 88.3472C56.0778 88.7199 56.8 89.0977 57.6209 89.5043C63.9901 92.6194 70.9806 94.2638 78.0738 94.3159C78.9613 94.3159 79.8738 94.2999 80.7703 94.2564C97.7154 93.4055 112.953 83.6021 120.532 68.6728C126.113 57.6867 127.037 45.2309 123.133 33.6004C119.198 21.8746 110.841 12.3916 99.6026 6.89791C95.255 4.76987 90.6044 3.32335 85.8148 2.60936C85.2913 2.52625 84.7562 2.45656 84.1705 2.39327C82.6966 2.22513 81.2119 2.1254 79.7489 2.09599C79.4447 2.09002 79.1403 2.08704 78.8357 2.08704Z" fill="#371A45"/>
<path d="M78.2782 96.4033H78.0622C70.6528 96.3462 63.3509 94.6287 56.6962 91.3776C55.8381 90.9525 55.0864 90.5587 54.3892 90.1706C52.8655 89.3238 51.3877 88.3974 49.9618 87.3953C43.2 82.6357 37.7834 76.2161 34.2356 68.7572C27.8716 55.3437 28.0837 40.046 34.8206 26.7872C38.7231 19.1073 44.6019 12.6006 51.8548 7.93368C53.2621 7.02567 54.7148 6.18964 56.2072 5.42883C57.1838 4.93144 58.2027 4.45579 59.2357 4.0153C65.7257 1.24576 72.7304 -0.119585 79.788 0.00932463C81.3189 0.0400119 82.8716 0.144221 84.4018 0.319394C85.0145 0.383326 85.5829 0.460045 86.132 0.546353C91.1303 1.29175 95.9836 2.80122 100.521 5.02159C112.267 10.7633 121.001 20.6766 125.116 32.9355C129.198 45.0999 128.233 58.1247 122.397 69.6146C114.479 85.2101 98.5677 95.4507 80.8722 96.3381C80.0097 96.3829 79.1407 96.4033 78.2782 96.4033ZM78.8357 2.35179C72.4166 2.35745 66.065 3.65856 60.163 6.17684C59.178 6.59687 58.2085 7.05015 57.2793 7.51941C55.8581 8.24539 54.4749 9.04323 53.1352 9.90982C46.2327 14.3502 40.6374 20.5414 36.9225 27.8491C30.5182 40.4552 30.3151 54.9991 36.3656 67.7503C39.7394 74.8422 44.8901 80.9458 51.3197 85.4709C52.6788 86.4263 54.0876 87.3094 55.5401 88.1165C56.2034 88.4873 56.9217 88.8632 57.7388 89.2672C64.0721 92.3641 71.0228 93.9991 78.0757 94.0512C78.9626 94.0557 79.8649 94.0346 80.7575 93.9918C97.611 93.146 112.759 83.3976 120.296 68.5527C125.844 57.6299 126.762 45.2469 122.882 33.6835C118.969 22.0262 110.661 12.595 99.486 7.13518C95.1617 5.01892 90.5362 3.5806 85.7725 2.87092C85.2509 2.78844 84.7203 2.71876 84.1391 2.65611C82.6736 2.4886 81.1952 2.38951 79.7386 2.36074C79.4391 2.35477 79.1382 2.35179 78.8357 2.35179Z" fill="#371A45"/>
<path d="M41.8536 78.4048C68.6218 99.1788 107.483 87.5994 111.528 54.5435C114.281 32.0541 94.0301 12.124 71.9123 10.9886C55.815 10.1651 39.7049 16.284 31.4769 40.5142C31.4769 40.5142 29.516 51.7873 32.1773 59.5142C34.8386 67.241 38.7533 74.3093 38.7533 74.3093L41.8536 78.4048Z" fill="#371A45"/>
<path d="M111.527 54.5437C107.483 87.5965 68.6205 99.1778 41.8536 78.4063L41.2256 77.5752C71.6464 84.6908 103.405 68.2846 108.127 34.9326C111.037 40.9077 112.375 47.6039 111.527 54.5437Z" fill="#220F2D"/>
<path d="M71.5407 94.796C69.0535 94.7956 66.5695 94.6198 64.1072 94.2698L63.9278 94.2302C61.446 93.4702 59.0282 92.5161 56.6968 91.3769C55.8388 90.9517 55.0871 90.5579 54.3899 90.1698C52.866 89.3233 51.3879 88.3971 49.9618 87.3952C43.2 82.6356 37.7834 76.216 34.2356 68.7571C27.8716 55.3436 28.0837 40.0459 34.8206 26.7871C38.7231 19.1072 44.6019 12.6005 51.8548 7.93357L51.9567 7.86964L52.0695 7.8268C57.949 5.56233 64.6718 4.60847 72.054 4.98695C85.3374 5.6691 98.5703 12.3692 107.451 22.9109C115.447 32.4022 119.083 43.8914 117.692 55.2605C116.175 67.6383 110.391 77.9921 100.966 85.201C92.801 91.4453 82.3724 94.796 71.5407 94.796ZM64.5301 91.9548C77.2824 93.7392 90.0346 90.6007 99.5308 83.3362C108.444 76.5197 113.915 66.7139 115.353 54.976C116.664 44.261 113.217 33.4104 105.647 24.4242C97.1797 14.3728 84.5761 7.98408 71.9328 7.33517C64.9319 6.97587 58.5706 7.86388 53.0307 9.97364C46.1755 14.41 40.6184 20.5763 36.9232 27.8471C30.5188 40.4532 30.3157 54.9971 36.3663 67.7483C39.7396 74.8408 44.8901 80.9451 51.3197 85.4708C52.6788 86.4262 54.0876 87.3093 55.5401 88.1163C56.2034 88.4872 56.9217 88.8631 57.7388 89.2671C59.9292 90.3376 62.1998 91.2362 64.5301 91.9548Z" fill="#371A45"/>
<path d="M71.5855 89.4557C61.0652 89.4557 50.3957 85.8435 41.4601 78.9069L41.396 78.8551L38.1926 74.619C38.1529 74.5474 34.2196 67.4126 31.5711 59.7229C28.888 51.9302 30.7643 40.8719 30.8457 40.4052L30.87 40.3093C37.9722 19.3952 51.801 9.31893 71.9463 10.3502C83.654 10.9511 95.3175 16.8584 103.146 26.1516C110.186 34.5075 113.389 44.6183 112.165 54.6211C110.389 69.14 101.755 80.626 88.4781 86.1344C83.1023 88.3643 77.3657 89.4557 71.5855 89.4557ZM42.3137 77.9524C55.7862 88.3733 73.2792 91.0584 87.9846 84.9542C100.823 79.6274 109.173 68.5148 110.893 54.4664C112.073 44.8197 108.97 35.0554 102.165 26.9756C94.56 17.9491 83.2381 12.2118 71.879 11.632C52.3745 10.6244 39 20.3977 32.0997 40.6711C31.9684 41.4703 30.2933 52.0772 32.7828 59.3067C35.2936 66.5949 38.9783 73.3864 39.2929 73.9618L42.3137 77.9524Z" fill="#371A45"/>
<path d="M132.81 53.6586C132.818 62.9325 127.258 70.7284 120.391 71.0781C113.523 71.4278 107.951 64.1882 107.943 54.9123C107.943 54.8541 107.943 54.7927 107.943 54.7339C108.008 45.5386 113.541 37.8361 120.361 37.4934C125.666 37.2255 130.198 41.4847 131.99 47.7097C132.539 49.6452 132.815 51.6473 132.81 53.6586Z" fill="white"/>
<g opacity="0.2">
<path d="M132.81 53.6583C132.818 62.9323 127.258 70.7282 120.391 71.0779C113.523 71.4276 107.951 64.1879 107.943 54.912C107.943 54.8539 107.943 54.7925 107.943 54.7337C108.699 55.6473 109.875 56.5238 111.468 56.1293C114.257 55.4344 119.256 49.2189 119.256 49.2189C119.256 49.2189 124.775 48.5284 131.992 47.7095C132.54 49.645 132.815 51.6471 132.81 53.6583Z" fill="#371A45"/>
</g>
<path d="M119.911 72.2647C117.097 72.2647 114.438 71.1491 112.19 69.0182C108.747 65.7577 106.77 60.6137 106.765 54.9123C106.76 45.0361 112.831 36.6974 120.305 36.319C123.317 36.1662 126.174 37.285 128.566 39.552C132.009 42.8125 133.986 47.9571 133.99 53.6579C133.998 63.5335 127.924 71.8747 120.45 72.2513C120.27 72.2602 120.089 72.2647 119.911 72.2647ZM120.836 38.657C120.7 38.657 120.562 38.6602 120.424 38.6672C114.185 38.9817 109.115 46.2681 109.122 54.9104C109.126 59.8971 110.88 64.5328 113.813 67.3132C115.725 69.125 117.978 70.0207 120.332 69.9024C126.571 69.5879 131.64 62.3015 131.634 53.6592C131.629 48.6725 129.876 44.0362 126.942 41.2564C125.142 39.5507 123.037 38.657 120.836 38.657Z" fill="#371A45"/>
<path d="M133.796 55.8558C134.228 48.2944 130.389 41.9266 125.223 41.633C120.057 41.3395 115.519 47.2312 115.087 54.7927C114.656 62.3541 118.494 68.7219 123.66 69.0155C128.826 69.309 133.364 63.4173 133.796 55.8558Z" fill="white"/>
<g opacity="0.2">
<path d="M124.389 69.0118C129.575 68.7101 133.797 62.3367 133.821 54.7735C133.824 53.9724 133.778 53.1717 133.684 52.3761C132.304 57.5859 128.848 61.4231 124.817 61.6539C120.267 61.9135 116.468 57.483 115.578 51.3442C115.228 52.8264 115.05 54.3436 115.046 55.8661C115.022 63.4293 119.206 69.3123 124.389 69.0118Z" fill="#371A45"/>
</g>
<path d="M124.005 70.1976C121.935 70.1976 119.968 69.3665 118.289 67.7842C115.506 65.1566 113.853 60.6999 113.867 55.8628C113.893 47.7038 118.621 40.7921 124.407 40.4552C126.641 40.3273 128.777 41.1584 130.578 42.8552C133.361 45.4834 135.013 49.9395 134.999 54.7772C134.974 62.9356 130.245 69.8473 124.459 70.1848C124.307 70.1938 124.155 70.1976 124.005 70.1976ZM124.854 42.7938C124.751 42.7938 124.65 42.7938 124.546 42.8028C119.98 43.0687 116.248 48.9306 116.226 55.8698C116.213 60.0708 117.59 63.8862 119.909 66.0766C121.226 67.32 122.752 67.9306 124.322 67.8372C128.888 67.5713 132.621 61.7094 132.643 54.7702C132.656 50.5692 131.279 46.7544 128.96 44.5641C127.729 43.4025 126.316 42.7945 124.854 42.7945V42.7938Z" fill="#371A45"/>
<g opacity="0.5">
<path d="M83.0779 20.6381C83.0779 20.6381 61.9893 20.8785 49.7555 32.1874L49.717 32.2232C47.1538 34.5987 45.2733 37.6144 44.2701 40.9582C42.9449 45.3625 42.6886 48.5885 42.5732 51.4315C42.2278 60.0866 43.712 64.2 43.712 64.2C38.8905 59.4518 36.2785 54.1627 36.4932 46.9506C36.5162 46.2396 36.5669 45.507 36.6425 44.7571C36.6598 44.5844 36.6803 44.4131 36.7066 44.2411C36.7027 44.2411 36.7066 44.2354 36.7066 44.2309C37.0398 42.3173 37.4892 40.4257 38.0523 38.5665C40.0491 31.9771 44.2329 23.437 52.8718 19.7066C69.0261 12.7348 83.8386 19.7597 83.0779 20.6381Z" fill="white"/>
</g>
<g opacity="0.5">
<path d="M98.1392 51.0604C101.572 50.2446 103.593 46.3943 102.653 42.4604C101.714 38.5266 98.17 35.999 94.7375 36.8148C91.3051 37.6306 89.284 41.481 90.2234 45.4148C91.1627 49.3486 94.7068 51.8762 98.1392 51.0604Z" fill="white"/>
</g>
<g opacity="0.5">
<path d="M100.391 59.7726C101.771 59.3059 102.453 57.6451 101.916 56.0632C101.378 54.4812 99.8239 53.577 98.4443 54.0437C97.0647 54.5104 96.3822 56.1711 96.9199 57.7531C97.4575 59.3351 99.0117 60.2392 100.391 59.7726Z" fill="white"/>
</g>
<path d="M80.0193 111.521L79.9065 111.667L76.3763 116.225L72.8909 112.86H57.7535C57.0845 112.861 56.4312 112.658 55.8808 112.278C55.3305 111.899 54.9092 111.361 54.6731 110.736L45.48 86.3916L39.3371 80.4612L42.7334 76.158C43.003 75.6074 43.4224 75.1436 43.9436 74.8196C44.4649 74.4956 45.067 74.3245 45.6812 74.3257H66.3956C67.0818 74.3265 67.7507 74.5409 68.3089 74.939C68.8672 75.3372 69.287 75.8992 69.5099 76.5467L80.4794 108.513C80.6533 109.014 80.7022 109.55 80.6221 110.074C80.5419 110.598 80.335 111.095 80.0193 111.521Z" fill="#22A7F0"/>
<g opacity="0.7">
<path d="M80.0193 111.523L79.9078 111.666L79.8194 111.781L68.4468 78.6526C68.2149 77.978 67.7777 77.3925 67.1961 76.9777C66.6146 76.5629 65.9178 76.3396 65.203 76.3389H43.628C43.2146 76.3377 42.8044 76.4116 42.4175 76.5569L42.7328 76.1567C43.0028 75.6066 43.4223 75.1432 43.9435 74.8195C44.4647 74.4957 45.0666 74.3246 45.6805 74.3257H66.3949C67.0813 74.3264 67.7504 74.5409 68.3088 74.9393C68.8671 75.3377 69.2868 75.9001 69.5093 76.548L80.4781 108.514C80.6521 109.015 80.7012 109.551 80.6213 110.075C80.5414 110.599 80.3347 111.096 80.0193 111.523Z" fill="white"/>
</g>
<path d="M76.3763 117.401C76.0703 117.401 75.7764 117.282 75.5567 117.07L72.4167 114.036H57.7535C56.8461 114.033 55.9608 113.755 55.2144 113.24C54.468 112.725 53.8955 111.997 53.5722 111.151L44.4726 87.0532L38.5201 81.3064C38.3103 81.104 38.1833 80.8312 38.1636 80.5407C38.144 80.2503 38.2331 79.9629 38.4137 79.7343L41.7383 75.5199C42.1158 74.8024 42.6835 74.202 43.3794 73.7842C44.0753 73.3663 44.8728 73.1469 45.685 73.1499H66.3988C67.3306 73.1504 68.239 73.4412 68.9972 73.9816C69.7554 74.522 70.3256 75.285 70.6282 76.1643L81.5983 108.13C81.8325 108.812 81.8978 109.539 81.7885 110.251C81.6793 110.963 81.3987 111.638 80.9709 112.218L80.9568 112.237L77.3119 116.943C77.2106 117.074 77.0827 117.182 76.9366 117.261C76.7905 117.339 76.6294 117.385 76.4641 117.397C76.4327 117.4 76.4045 117.401 76.3763 117.401ZM40.9212 80.3544L46.2989 85.5463C46.4243 85.6669 46.5211 85.8139 46.5822 85.9766L55.776 110.322C55.9291 110.722 56.2 111.066 56.553 111.309C56.906 111.552 57.3245 111.683 57.7535 111.684H72.8909C73.1968 111.684 73.4907 111.803 73.7105 112.015L76.2494 114.467L79.0767 110.815C79.2782 110.543 79.4099 110.225 79.4602 109.89C79.5106 109.554 79.4781 109.212 79.3657 108.892L68.3955 76.9264C68.2527 76.5106 67.9832 76.1497 67.6248 75.8941C67.2663 75.6385 66.8368 75.5009 66.3962 75.5007H45.6825C45.288 75.4994 44.9012 75.6091 44.5663 75.8172C44.2315 76.0252 43.9623 76.3233 43.7895 76.6771C43.7531 76.7505 43.7091 76.8199 43.6581 76.8842L40.9212 80.3544Z" fill="#371A45"/>
<path d="M73.6176 117.721H54.0047C53.3355 117.721 52.6821 117.518 52.1316 117.138C51.5811 116.759 51.1595 116.221 50.9231 115.596L45.2198 100.48L38.8584 83.6316C38.6704 83.1348 38.6059 82.6 38.6704 82.0729C38.735 81.5458 38.9267 81.0422 39.2291 80.6052C39.5315 80.1682 39.9356 79.8109 40.4068 79.5639C40.8779 79.3169 41.4021 79.1876 41.9343 79.187H62.6461C63.3327 79.1869 64.0021 79.4011 64.5605 79.7996C65.1188 80.1982 65.5382 80.761 65.7599 81.4093L76.7345 113.375C76.9037 113.87 76.9522 114.397 76.876 114.915C76.7998 115.432 76.601 115.923 76.2962 116.348C75.9914 116.773 75.5894 117.119 75.1235 117.358C74.6576 117.597 74.1414 117.721 73.6176 117.721Z" fill="#22A7F0"/>
<path d="M59.196 117.722H54.0054C53.3361 117.722 52.6828 117.518 52.1322 117.139C51.5817 116.759 51.1602 116.221 50.9237 115.597L45.2204 100.48L58.0034 95.0303C58.0034 95.0303 61.1204 98.246 57.9682 102.535C57.9643 102.535 65.1915 113.181 59.196 117.722Z" fill="#1C7AEA"/>
<path d="M73.6188 118.898H54.0047C53.0965 118.895 52.2105 118.617 51.4636 118.101C50.7167 117.586 50.1439 116.857 49.8209 116.01L37.7511 84.0438C37.4963 83.3689 37.4094 82.6423 37.4977 81.9265C37.5861 81.2106 37.8472 80.5269 38.2585 79.9337C38.6699 79.3406 39.2193 78.8559 39.8596 78.521C40.4999 78.1862 41.212 78.0113 41.935 78.0112H62.6461C63.5782 78.0111 64.487 78.3017 65.2453 78.8423C66.0037 79.3829 66.5737 80.1465 66.8755 81.0263L77.8482 112.992C78.0787 113.664 78.1452 114.38 78.0422 115.083C77.9392 115.785 77.6697 116.453 77.2561 117.03C76.8425 117.608 76.2967 118.078 75.664 118.403C75.0314 118.728 74.3303 118.897 73.6188 118.897V118.898ZM39.9574 83.2166L52.0265 115.183C52.1793 115.583 52.4501 115.928 52.8032 116.172C53.1564 116.415 53.5753 116.547 54.0047 116.548H73.6188C73.9552 116.548 74.2866 116.468 74.5856 116.314C74.8846 116.16 75.1426 115.938 75.3381 115.665C75.5336 115.392 75.661 115.076 75.7097 114.744C75.7584 114.412 75.727 114.073 75.6182 113.756L64.6461 81.7896C64.5035 81.3734 64.234 81.0122 63.8754 80.7563C63.5168 80.5005 63.087 80.3628 62.6461 80.3626H41.935C41.5932 80.3629 41.2567 80.4458 40.954 80.6043C40.6514 80.7627 40.3918 80.9919 40.1974 81.2723C40.003 81.5527 39.8797 81.876 39.8379 82.2143C39.7961 82.5527 39.8371 82.8962 39.9574 83.2153V83.2166Z" fill="#371A45"/>
<path d="M56.9422 107.013C59.0781 113.248 53.5158 115.044 50.8083 115.308C50.8083 120.373 41.2948 122.709 36.6662 118.006C33.3666 114.653 33.093 110.846 33.9203 107.51C35.1141 102.702 38.6021 98.892 38.6021 98.892C38.1221 91.6971 41.7812 91.4062 41.7812 91.4062L43.4223 95.7536C47.123 96.4179 54.0727 91.1799 56.7833 94.9366C59.5619 98.784 53.949 101.747 53.949 101.747C55.4837 103.78 56.4321 105.524 56.9422 107.013Z" fill="white"/>
<g opacity="0.2">
<path d="M50.8083 115.309C50.8083 120.373 41.2948 122.71 36.6662 118.007C33.3666 114.653 33.093 110.846 33.9203 107.51C33.9203 107.51 33.4346 114.671 39.3326 115.676C44.3348 116.529 42.2163 111.403 42.158 111.252C42.4053 111.341 57.2306 116.699 56.939 107.014C59.0781 113.248 53.5158 115.044 50.8083 115.309Z" fill="#371A45"/>
</g>
<path d="M43.1865 121.733C40.6098 121.733 37.8754 120.914 35.8261 118.831C32.1792 115.123 31.3807 110.323 33.5191 104.945C34.7604 101.819 36.6418 99.3917 37.4018 98.4832C37.059 90.6938 41.4992 90.2501 41.6953 90.236C41.9501 90.2161 42.2044 90.2792 42.4201 90.4158C42.6359 90.5524 42.8014 90.7552 42.8917 90.9936L44.2656 94.6326C45.3967 94.5981 46.925 94.0962 48.4111 93.6097C51.6081 92.5599 55.5882 91.2545 57.7471 94.249C58.6269 95.4676 58.9301 96.8025 58.6237 98.1086C58.1963 99.9294 56.7122 101.292 55.6414 102.068C58.4328 106.106 59.2569 109.484 58.0919 112.129C56.9967 114.611 54.3194 115.901 51.8843 116.345C51.478 118.285 49.9317 119.946 47.5761 120.906C46.3009 121.423 44.7732 121.733 43.1865 121.733ZM39.4742 99.6839C39.0974 100.098 30.3317 109.89 37.5082 117.184C39.9433 119.659 43.9664 119.835 46.6802 118.728C47.5671 118.366 49.628 117.309 49.628 115.308C49.6276 115.016 49.7363 114.734 49.9328 114.518C50.1294 114.301 50.3998 114.166 50.6911 114.138C52.586 113.952 55.0948 113.066 55.9272 111.179C56.809 109.18 55.799 106.161 53.007 102.45C52.9047 102.314 52.8331 102.158 52.7973 101.992C52.7614 101.825 52.7621 101.653 52.7993 101.487C52.8366 101.322 52.9094 101.166 53.0129 101.031C53.1163 100.895 53.2479 100.784 53.3985 100.705C54.0932 100.334 55.9791 99.0426 56.3226 97.5658C56.4712 96.9265 56.3098 96.2872 55.8279 95.621C54.7551 94.1346 52.4834 94.7432 49.141 95.8403C46.984 96.5493 44.9475 97.2174 43.2121 96.906C43.011 96.8704 42.8226 96.7832 42.6653 96.6531C42.5081 96.523 42.3874 96.3544 42.315 96.1638L41.1167 92.9902C40.3349 93.6992 39.5441 95.3966 39.7709 98.8138C39.7826 98.9712 39.7624 99.1295 39.7114 99.279C39.6604 99.4285 39.5798 99.5662 39.4742 99.6839Z" fill="#371A45"/>
<path d="M44.3137 113.224C46.4207 113.863 48.6796 114.226 50.882 114.132C52.5776 114.155 52.452 116.634 50.7597 116.482C48.9365 116.252 47.1788 115.739 45.4877 115.052C44.9308 114.823 44.3983 114.585 43.8453 114.302C43.7113 114.234 43.6083 114.118 43.5573 113.977C43.5063 113.836 43.5112 113.681 43.571 113.543C43.6307 113.406 43.7409 113.296 43.8789 113.237C44.0169 113.177 44.1724 113.173 44.3137 113.224Z" fill="#371A45"/>
<path d="M75.3695 162.57C64.1713 162.57 59.5203 160.238 59.2889 160.117C59.0149 159.972 58.8093 159.725 58.7168 159.429C58.6244 159.134 58.6524 158.814 58.7949 158.539C58.9374 158.264 59.1828 158.056 59.478 157.961C59.7731 157.865 60.0941 157.89 60.3713 158.029C60.468 158.077 67.0389 161.266 83.3862 159.853C83.6955 159.829 84.0017 159.929 84.2381 160.129C84.4746 160.33 84.6222 160.615 84.6491 160.923C84.6759 161.232 84.5797 161.538 84.3814 161.776C84.1831 162.014 83.8987 162.165 83.5899 162.195C80.5281 162.46 77.795 162.57 75.3695 162.57Z" fill="#371A45"/>
<path d="M97.8526 161.834C91.7366 161.834 87.604 160.626 87.3208 160.541C87.0215 160.451 86.7702 160.246 86.6224 159.971C86.4745 159.697 86.4421 159.375 86.5322 159.076C86.6224 158.777 86.8277 158.527 87.1031 158.379C87.3785 158.232 87.7014 158.199 88.0007 158.289C88.1679 158.339 99.1207 161.495 111.665 157.222C111.813 157.168 111.969 157.144 112.126 157.152C112.283 157.159 112.436 157.198 112.578 157.265C112.719 157.333 112.846 157.428 112.95 157.545C113.054 157.662 113.134 157.798 113.185 157.946C113.235 158.094 113.256 158.251 113.245 158.407C113.234 158.563 113.192 158.716 113.122 158.855C113.051 158.995 112.953 159.119 112.834 159.221C112.715 159.322 112.576 159.399 112.427 159.446C107.733 161.035 102.809 161.842 97.8526 161.834Z" fill="#371A45"/>
<path d="M106.546 174.703C102.036 172.619 91.6443 173.52 90.2332 174.808L106.546 174.703Z" fill="white"/>
<path d="M106.299 175.238C102.721 173.79 94.7472 174.128 91.1682 175.587C91.1174 175.61 91.0704 175.64 91.0285 175.677C89.8603 176.694 88.3153 175.019 89.4374 173.942C91.802 172.152 99.6475 172.46 102.616 172.961C104.026 173.192 105.444 173.512 106.794 174.171C106.864 174.204 106.927 174.25 106.98 174.306C107.032 174.363 107.073 174.43 107.099 174.502C107.126 174.575 107.138 174.652 107.135 174.729C107.132 174.806 107.113 174.881 107.081 174.951C107.048 175.022 107.002 175.084 106.945 175.137C106.888 175.189 106.822 175.23 106.749 175.256C106.676 175.283 106.599 175.295 106.522 175.292C106.445 175.288 106.369 175.27 106.299 175.238Z" fill="#371A45"/>
<path d="M71.3869 173.751C67.747 173.207 65.3491 173.149 61.4908 173.787L71.3869 173.751Z" fill="white"/>
<path d="M71.2959 174.332C68.0277 173.986 64.8659 174.169 61.6798 174.946C60.063 175.249 59.6561 172.874 61.2863 172.627C64.6442 172.207 68.1873 172.411 71.4708 173.17C72.1853 173.327 72.0264 174.391 71.2959 174.332Z" fill="#371A45"/>
<path d="M7.55097 28.4355C8.80357 27.9176 10.1461 27.651 11.502 27.6509C12.8581 27.6507 14.2009 27.9171 15.4538 28.4347C16.7067 28.9524 17.8451 29.7112 18.804 30.6679C19.7629 31.6245 20.5236 32.7603 21.0424 34.0103C21.5613 35.2602 21.8283 36.5999 21.8281 37.9529C21.8281 43.6434 11.502 60.5298 11.502 60.5298C11.502 60.5298 1.17847 43.6428 1.17847 37.9529C1.1783 36.6002 1.44519 35.2607 1.96391 34.0109C2.48262 32.7611 3.243 31.6254 4.20163 30.6688C5.16026 29.7122 6.29837 28.9533 7.55097 28.4355Z" fill="#FF4040"/>
<path d="M16.5106 39.3727C16.5102 40.2329 16.2872 41.0784 15.8631 41.8273C15.4389 42.5763 14.8281 43.2032 14.0897 43.6475C13.3514 44.0917 12.5106 44.3381 11.6487 44.3629C10.7868 44.3876 9.93317 44.1899 9.17041 43.7888C8.40765 43.3877 7.76166 42.7969 7.29502 42.0736C6.82838 41.3502 6.55692 40.5189 6.50693 39.6602C6.45694 38.8014 6.63011 37.9443 7.00968 37.1719C7.38925 36.3996 7.96234 35.7381 8.67343 35.2516C8.05033 35.821 7.61432 36.5651 7.42265 37.3861C7.23097 38.2071 7.29257 39.0668 7.59936 39.8523C7.90616 40.6378 8.44381 41.3123 9.14177 41.7875C9.83973 42.2627 10.6654 42.5163 11.5104 42.5149C12.3553 42.5136 13.1802 42.2574 13.8766 41.78C14.5731 41.3026 15.1086 40.6263 15.4129 39.8399C15.7171 39.0534 15.776 38.1936 15.5817 37.3732C15.3874 36.5527 14.9491 35.8101 14.3241 35.2427C14.9981 35.7015 15.5495 36.3175 15.9305 37.0373C16.3116 37.757 16.5107 38.5587 16.5106 39.3727Z" fill="#D62B2B"/>
<path d="M21.6218 35.8926C17.3385 44.937 16.2799 50.1283 11.502 50.1283C6.72408 50.1283 5.67057 44.937 1.3848 35.8958C1.2469 36.5729 1.17777 37.2622 1.17846 37.9531C1.17846 43.643 11.502 60.53 11.502 60.53C11.502 60.53 21.8281 43.6437 21.8281 37.9531C21.8288 37.2611 21.7597 36.5708 21.6218 35.8926Z" fill="#D62B2B"/>
<g opacity="0.7">
<path d="M11.502 27.6509C10.1461 27.651 8.80357 27.9176 7.55097 28.4355C6.29837 28.9533 5.16026 29.7122 4.20163 30.6688C3.243 31.6254 2.48262 32.7611 1.96391 34.0109C1.44519 35.2607 1.1783 36.6002 1.17847 37.9529C1.18169 38.2916 1.21018 38.6297 1.2637 38.9643C1.58979 36.4851 2.8084 34.2089 4.69235 32.5599C6.57631 30.9109 8.99704 30.0016 11.5033 30.0016C14.0095 30.0016 16.4303 30.9109 18.3142 32.5599C20.1982 34.2089 21.4168 36.4851 21.7429 38.9643C21.7964 38.6297 21.8249 38.2916 21.8281 37.9529C21.8283 36.5999 21.5613 35.2602 21.0424 34.0103C20.5236 32.7603 19.7629 31.6245 18.804 30.6679C17.8451 29.7112 16.7067 28.9524 15.4538 28.4347C14.2009 27.9171 12.8581 27.6507 11.502 27.6509Z" fill="white"/>
</g>
<path d="M11.5046 61.7029C11.3026 61.7028 11.1039 61.651 10.9278 61.5524C10.7516 61.4538 10.6038 61.3116 10.4985 61.1396C9.42384 59.3828 0 43.8032 0 37.9528C0 31.6235 5.16049 26.4751 11.5046 26.4751C17.8486 26.4751 23.0085 31.6242 23.0085 37.9528C23.0085 43.8032 13.5847 59.3828 12.51 61.1396C12.4049 61.3116 12.2572 61.4538 12.0811 61.5524C11.905 61.651 11.7065 61.7028 11.5046 61.7029ZM11.5046 28.8265C6.4607 28.8265 2.35692 32.9182 2.35692 37.9528C2.35692 41.8936 8.25243 52.7128 11.5046 58.2365C14.758 52.7128 20.6516 41.8936 20.6516 37.9528C20.6516 32.9207 16.5484 28.8265 11.5046 28.8265Z" fill="#371A45"/>
<path d="M11.5046 43.3973C10.5008 43.3973 9.51953 43.1004 8.68491 42.544C7.85028 41.9876 7.19977 41.1968 6.81564 40.2716C6.43151 39.3464 6.331 38.3283 6.52683 37.3461C6.72266 36.3639 7.20603 35.4617 7.91582 34.7535C8.62561 34.0454 9.52993 33.5632 10.5144 33.3678C11.4989 33.1724 12.5194 33.2727 13.4468 33.6559C14.3742 34.0392 15.1668 34.6882 15.7245 35.5208C16.2822 36.3535 16.5798 37.3325 16.5798 38.3339C16.5783 39.6763 16.0431 40.9634 15.0916 41.9126C14.1402 42.8618 12.8501 43.3958 11.5046 43.3973ZM11.5046 35.0344C10.8503 35.0343 10.2106 35.2277 9.66656 35.5903C9.12248 35.9529 8.6984 36.4683 8.44796 37.0713C8.19751 37.6744 8.13195 38.338 8.25957 38.9782C8.38718 39.6185 8.70224 40.2066 9.1649 40.6681C9.62755 41.1297 10.217 41.444 10.8587 41.5713C11.5005 41.6987 12.1656 41.6333 12.7701 41.3834C13.3746 41.1335 13.8912 40.7104 14.2546 40.1676C14.618 39.6248 14.8119 38.9867 14.8118 38.3339C14.8106 37.4592 14.4618 36.6208 13.8418 36.0023C13.2218 35.3839 12.3813 35.036 11.5046 35.035V35.0344Z" fill="#371A45"/>
<path d="M114.418 126.254C114.263 126.254 114.11 126.214 113.976 126.136C113.841 126.059 113.729 125.948 113.651 125.815C113.573 125.681 113.532 125.529 113.532 125.374C113.531 125.219 113.572 125.067 113.649 124.933C115.551 121.626 116.065 118.315 115.175 115.087C113.283 108.22 105.685 103.89 105.606 103.846C105.499 103.792 105.404 103.718 105.327 103.626C105.25 103.535 105.192 103.429 105.157 103.315C105.121 103.201 105.11 103.081 105.123 102.962C105.136 102.843 105.173 102.728 105.232 102.624C105.29 102.52 105.37 102.429 105.465 102.357C105.56 102.284 105.669 102.231 105.785 102.202C105.901 102.173 106.022 102.167 106.14 102.186C106.258 102.205 106.372 102.247 106.473 102.311C106.812 102.503 114.791 107.054 116.88 114.624C117.899 118.32 117.328 122.084 115.183 125.813C115.105 125.947 114.994 126.058 114.859 126.135C114.725 126.213 114.573 126.253 114.418 126.254Z" fill="#371A45"/>
<path d="M55.5409 88.3686C56.3521 87.4502 56.0485 85.8605 54.8628 84.8179C53.677 83.7753 52.058 83.6746 51.2468 84.593C50.4355 85.5114 50.7391 87.1011 51.9249 88.1437C53.1106 89.1863 54.7296 89.287 55.5409 88.3686Z" fill="white"/>
<path d="M54.9217 87.8243C55.4989 87.1708 55.2829 86.0396 54.4391 85.2976C53.5953 84.5557 52.4432 84.484 51.866 85.1375C51.2887 85.791 51.5047 86.9222 52.3486 87.6642C53.1924 88.4061 54.3444 88.4778 54.9217 87.8243Z" fill="#371A45"/>
</g>
<defs>
<clipPath id="clip0_5624_13176">
<rect width="135" height="189" fill="white"/>
</clipPath>
</defs>
</svg>
