<svg width="32" height="32" viewBox="0 0 32 32" fill="none" xmlns="http://www.w3.org/2000/svg">
<rect width="32" height="32" rx="8" fill="#EEEBFF"/>
<path d="M9 13L9 7.00001" stroke="#50429B" stroke-width="2" stroke-linecap="round" stroke-linejoin="round"/>
<path fill-rule="evenodd" clip-rule="evenodd" d="M7.26965 14.8044C7.09348 15.5071 6.99994 16.2426 6.99994 17C6.99994 21.9705 11.0294 26 15.9999 26H20.4999C21.8978 26 22.5967 26 23.148 25.7716C23.8831 25.4671 24.4671 24.8831 24.7716 24.148C24.9999 23.5967 24.9999 22.8978 24.9999 21.5V17C24.9999 12.0294 20.9705 7.99998 15.9999 7.99998C15.2426 7.99998 14.5071 8.09352 13.8044 8.26968C14.2353 8.71883 14.5 9.3285 14.5 10C14.5 11.3807 13.3807 12.5 12 12.5H11.5V13C11.5 14.3807 10.3807 15.5 9 15.5C8.32848 15.5 7.7188 15.2352 7.26965 14.8044ZM13.0001 15C12.4478 15 12.0001 15.4477 12.0001 16C12.0001 16.5523 12.4478 17 13.0001 17H19.0001C19.5524 17 20.0001 16.5523 20.0001 16C20.0001 15.4477 19.5524 15 19.0001 15H13.0001ZM16.0001 19C15.4478 19 15.0001 19.4477 15.0001 20C15.0001 20.5523 15.4478 21 16.0001 21H19.0001C19.5524 21 20.0001 20.5523 20.0001 20C20.0001 19.4477 19.5524 19 19.0001 19H16.0001Z" fill="#50429B"/>
<path d="M6 10L12 10" stroke="#50429B" stroke-width="2" stroke-linecap="round" stroke-linejoin="round"/>
</svg>
