<svg width="20" height="23" viewBox="0 0 20 23" fill="none" xmlns="http://www.w3.org/2000/svg">
<path d="M5.35824 3.11198C6.51929 1.96165 8.09401 1.3154 9.73598 1.3154C11.3779 1.3154 12.9527 1.96165 14.1137 3.11198C15.2748 4.26232 15.927 5.82251 15.927 7.44932C15.927 9.1894 16.3122 10.4678 16.8333 11.3977C17.0929 11.861 17.6148 12.0698 18.1186 12.2379C19.8882 12.828 19.7571 15.0544 18.6734 15.8483C18.6734 15.8483 17.1455 17.1589 9.73598 17.1589C2.32648 17.1589 0.798564 15.8483 0.798564 15.8483C-0.285151 15.0544 -0.416285 12.828 1.3533 12.2379C1.85719 12.0698 2.37902 11.861 2.63868 11.3977C3.15976 10.4678 3.54493 9.1894 3.54493 7.44932C3.54493 5.82251 4.1972 4.26232 5.35824 3.11198Z" fill="#50429B"/>
<path d="M8.42214 20.1297C8.15923 19.644 7.55236 19.4634 7.06667 19.7263C6.58098 19.9892 6.40039 20.5961 6.66331 21.0818L8.42214 20.1297ZM13.1226 21.0818C13.3856 20.5961 13.205 19.9892 12.7193 19.7263C12.2336 19.4634 11.6267 19.644 11.3638 20.1297L13.1226 21.0818ZM9.89298 21C9.25418 21 8.70201 20.6467 8.42214 20.1297L6.66331 21.0818C7.28194 22.2246 8.49772 23 9.89298 23V21ZM11.3638 20.1297C11.0839 20.6467 10.5318 21 9.89298 21V23C11.2882 23 12.504 22.2246 13.1226 21.0818L11.3638 20.1297Z" fill="#5446A0"/>
</svg>
