<svg width="86" height="83" viewBox="0 0 86 83" fill="none" xmlns="http://www.w3.org/2000/svg">
<path d="M0.428345 68.5504C10.7219 68.1974 14.1129 75.1241 20.6398 74.9004C27.1667 74.6767 28.2814 67.5949 28.2814 67.5949C28.2814 67.5949 26.6928 60.6066 20.165 60.8303C13.6373 61.054 10.7219 68.1974 0.428345 68.5504Z" fill="#FF0019"/>
<g opacity="0.6">
<path d="M4.52517 68.9587C12.0105 67.3307 14.9569 61.8756 20.6489 61.6818C23.7769 61.5745 25.7704 63.1235 26.9988 64.7661C25.8366 62.8941 23.7429 60.8511 20.1659 60.9736C13.6381 61.1973 10.7219 68.3403 0.428345 68.6931C1.93089 68.6405 3.28423 68.7453 4.52517 68.9587Z" fill="white"/>
</g>
<path d="M9.21149 68.1877C15.8457 67.9594 18.0518 73.0366 22.2588 72.8925C26.4657 72.7484 27.1631 67.5721 27.1631 67.5721C27.1631 67.5721 26.1186 62.4557 21.9114 62.6001C17.7041 62.7445 15.8457 67.9602 9.21149 68.1877Z" fill="#FF5917"/>
<path d="M15.3454 68.0635C19.4507 67.9228 20.8171 71.0648 23.421 70.9743C26.0249 70.8838 26.4564 67.6811 26.4564 67.6811C26.4564 67.6811 25.81 64.5136 23.2061 64.6037C20.6022 64.6939 19.4507 67.9228 15.3454 68.0635Z" fill="#FFE600"/>
<path d="M20.3349 75.3373C17.4694 75.3373 15.1611 74.0132 12.7223 72.6146C9.5957 70.8216 6.05209 68.7906 0.442809 68.9818C0.386551 68.9839 0.330451 68.9747 0.277724 68.9548C0.224998 68.9349 0.176681 68.9048 0.135545 68.866C0.0944077 68.8273 0.0612595 68.7808 0.038 68.7291C0.0147405 68.6774 0.00182709 68.6216 0 68.5649C0 68.5598 0 68.5549 0 68.5498C0.000154461 68.438 0.0433573 68.3305 0.120512 68.2502C0.197667 68.1698 0.302754 68.1227 0.413647 68.1189C6.02322 67.9266 9.42157 65.6564 12.4196 63.6537C14.8454 62.0334 17.1365 60.5027 20.1512 60.4005C22.97 60.3026 25.3463 61.5072 27.021 63.8803C28.2693 65.6496 28.6826 67.4254 28.6996 67.5002C28.712 67.554 28.7139 67.6097 28.7053 67.6643C28.6934 67.7399 28.4006 69.5406 27.2743 71.3909C25.7636 73.8736 23.4748 75.2363 20.6552 75.3327C20.5476 75.3358 20.4408 75.3373 20.3349 75.3373ZM4.68403 68.4045C8.19621 69.0255 10.786 70.5108 13.1458 71.8641C15.6719 73.3129 17.855 74.5642 20.626 74.4689C23.1713 74.3816 25.156 73.2016 26.53 70.9617C27.4437 69.4704 27.7741 67.9739 27.8443 67.6104C27.7497 67.2534 27.3196 65.7826 26.3072 64.3572C24.7868 62.2169 22.724 61.1759 20.1804 61.2626C17.4077 61.3577 15.3154 62.7551 12.893 64.3731C10.63 65.885 8.14609 67.5442 4.68403 68.4045Z" fill="#371A45"/>
<path d="M31.4553 75.1355L28.9802 74.6618C28.4306 74.5564 27.9195 74.303 27.5012 73.9285C27.0829 73.554 26.7729 73.0724 26.6042 72.5347C25.5816 69.272 25.4641 65.7895 26.2645 62.4643C26.3964 61.9165 26.6731 61.4149 27.0652 61.0129C27.4574 60.6109 27.9503 60.3235 28.4915 60.1814L30.8913 59.5481L30.929 59.5384L31.4553 75.1355Z" fill="#0096FC"/>
<g opacity="0.3">
<path d="M30.9272 60.755L30.8896 60.7647L28.4898 61.3979C27.9486 61.5401 27.4557 61.8274 27.0635 62.2294C26.6714 62.6314 26.3946 63.133 26.2628 63.6808C25.9617 64.9332 25.7892 66.2134 25.748 67.5014C25.7421 67.2956 25.7384 67.0884 25.7384 66.8824C25.7385 65.3932 25.9145 63.9093 26.2628 62.462C26.3946 61.9142 26.6714 61.4126 27.0635 61.0106C27.4557 60.6086 27.9486 60.3213 28.4898 60.1791L30.8896 59.5458L30.9272 59.5361V60.755Z" fill="white"/>
</g>
<path d="M31.4553 75.1355L28.9802 74.6618C28.4306 74.5564 27.9195 74.303 27.5012 73.9285C27.0829 73.554 26.7729 73.0724 26.6042 72.5347C26.2465 71.392 25.9979 70.2175 25.8616 69.0272C26.564 69.3271 27.6022 69.5629 28.2316 68.7547C29.3556 67.3122 28.9295 62.0465 30.891 59.547L30.9287 59.5373L31.4553 75.1355Z" fill="#2577EF"/>
<path d="M24.5903 53.6524C25.8437 54.3738 31.7599 57.7164 31.7457 61.4319L37.8428 58.4977C37.818 58.3086 37.7832 58.1209 37.7387 57.9355C37.0699 55.166 33.9006 51.3295 24.8338 53.3368C24.7661 53.3514 24.6987 53.3653 24.6299 53.3822C24.6016 53.3891 24.576 53.4043 24.5563 53.426C24.5366 53.4477 24.5238 53.4748 24.5196 53.5038C24.5153 53.5329 24.5198 53.5625 24.5324 53.589C24.545 53.6155 24.5651 53.6376 24.5903 53.6524Z" fill="#FF0019"/>
<path d="M24.5903 53.6524C25.8437 54.3738 31.7599 57.7164 31.7458 61.4319L37.8429 58.4977C37.818 58.3086 37.7832 58.1209 37.7387 57.9355L37.8236 58.1949C37.3706 57.9952 36.6427 57.7886 35.955 57.877C33.4284 58.2023 32.0977 58.1841 30.8321 56.8934C29.2469 55.2759 26.2962 53.5936 24.8338 53.3354C24.7662 53.3499 24.6988 53.3639 24.63 53.3808C24.6012 53.3874 24.5752 53.4025 24.5551 53.4243C24.5351 53.4461 24.5221 53.4735 24.5179 53.5029C24.5136 53.5323 24.5182 53.5623 24.5311 53.589C24.5441 53.6157 24.5647 53.6378 24.5903 53.6524Z" fill="#CE2030"/>
<g opacity="0.5">
<path d="M25.0184 53.8998C24.707 53.7101 24.8386 53.7954 24.5901 53.6524C24.5645 53.6377 24.544 53.6155 24.5312 53.5889C24.5183 53.5622 24.5138 53.5322 24.5181 53.5029C24.5225 53.4736 24.5355 53.4462 24.5555 53.4245C24.5755 53.4028 24.6016 53.3876 24.6303 53.381C34.4946 51.1241 37.4825 55.7119 37.8429 58.4977L37.1824 58.8145C36.3491 56.253 32.5818 52.6442 25.0184 53.8998Z" fill="white"/>
</g>
<path d="M31.7458 61.9081H31.7441C31.682 61.9079 31.6206 61.8954 31.5633 61.8713C31.5061 61.8472 31.4541 61.8119 31.4104 61.7675C31.3667 61.7231 31.3321 61.6704 31.3086 61.6126C31.2851 61.5547 31.2732 61.4927 31.2735 61.4301C31.278 60.1671 30.3933 57.5352 24.4153 54.1002L24.3556 54.0659C24.2475 54.0036 24.1606 53.9098 24.1062 53.7968C24.0518 53.6839 24.0326 53.557 24.0509 53.4328C24.0693 53.3087 24.1244 53.193 24.2091 53.1009C24.2938 53.0088 24.404 52.9446 24.5255 52.9167C29.293 51.8258 32.9867 52.1699 35.5037 53.9392C37.7121 55.4922 38.203 57.6014 38.3109 58.4361C38.3271 58.5613 38.2932 58.6878 38.2168 58.7879C38.1404 58.888 38.0277 58.9534 37.9035 58.9697C37.7792 58.986 37.6536 58.9519 37.5543 58.8749C37.4551 58.7979 37.3902 58.6843 37.374 58.5591C37.2823 57.8499 36.8644 56.0558 34.9632 54.72C32.8471 53.2326 29.607 52.8739 25.5578 53.6698C31.0504 56.9801 32.2242 59.7062 32.2177 61.4339C32.2173 61.5597 32.1674 61.6803 32.0789 61.7692C31.9904 61.8581 31.8707 61.9081 31.7458 61.9081Z" fill="#371A45"/>
<path d="M38.4351 76.0505C38.2633 78.8545 35.5968 83.7925 25.6033 82.2167C25.5743 82.2121 25.5473 82.1987 25.5259 82.1784C25.5044 82.158 25.4896 82.1317 25.4833 82.1027C25.477 82.0738 25.4794 82.0436 25.4904 82.016C25.5013 81.9885 25.5203 81.965 25.5447 81.9485C26.7469 81.1432 32.4181 77.2365 32.154 73.5301" fill="#D25658"/>
<path d="M25.6034 82.217C25.5745 82.2119 25.5478 82.1982 25.5267 82.1777C25.5056 82.1572 25.491 82.1308 25.485 82.1019C25.4789 82.073 25.4815 82.0429 25.4925 82.0155C25.5035 81.9881 25.5224 81.9646 25.5467 81.9482C26.162 81.5355 27.9505 80.3093 29.5128 78.7127C30.9898 77.2048 32.2645 75.3647 32.1572 73.57C32.1572 73.5569 32.1555 73.5432 32.1549 73.5304L32.1931 73.5452L38.436 76.0496C38.3879 76.8369 38.1433 77.7921 37.594 78.7241C36.1891 81.1132 32.7928 83.3499 25.6034 82.217Z" fill="#FF0019"/>
<g opacity="0.5">
<path d="M37.8986 75.8347C37.7676 76.5662 37.5069 77.268 37.1288 77.9062C35.7927 80.1812 32.6467 82.3152 26.1435 81.5364C25.8938 81.7127 25.6874 81.8531 25.5456 81.9482C25.5212 81.9646 25.5024 81.9881 25.4913 82.0155C25.4803 82.0429 25.4777 82.073 25.4838 82.1019C25.4899 82.1308 25.5044 82.1572 25.5255 82.1777C25.5466 82.1982 25.5733 82.2119 25.6022 82.217C32.7916 83.3499 36.1883 81.1132 37.5914 78.7241C38.1407 77.7921 38.3842 76.8369 38.4335 76.0496L37.8986 75.8347Z" fill="white"/>
</g>
<path d="M29.5114 78.7127C30.9884 77.2048 32.2631 75.3647 32.1557 73.57C32.1679 73.5621 32.1798 73.5532 32.1917 73.5452L38.4346 76.0496C38.3865 76.8369 38.1419 77.7921 37.5926 78.7241C35.6272 79.4732 32.9808 79.6652 29.5114 78.7127Z" fill="#CE2030"/>
<path d="M29.2378 82.9997C28.0908 82.9997 26.8545 82.8951 25.5289 82.6858C25.4058 82.6664 25.2914 82.6099 25.2007 82.5239C25.11 82.4378 25.0472 82.3262 25.0205 82.2035C24.9938 82.0809 25.0044 81.953 25.051 81.8365C25.0977 81.7201 25.1781 81.6205 25.2817 81.5509C26.8423 80.5056 31.9151 76.8401 31.6804 73.5635C31.6714 73.4375 31.7124 73.3132 31.7944 73.2177C31.8764 73.1223 31.9927 73.0636 32.1177 73.0545C32.2426 73.0455 32.366 73.0868 32.4607 73.1695C32.5554 73.2521 32.6136 73.3693 32.6226 73.4953C32.8599 76.8235 28.8548 80.186 26.5006 81.8625C30.5399 82.3696 33.7237 81.7809 35.7427 80.1455C37.6617 78.5911 37.9258 76.5949 37.9609 76.0199C37.971 75.8956 38.029 75.7803 38.1225 75.6986C38.216 75.617 38.3376 75.5755 38.4611 75.5832C38.5846 75.5909 38.7002 75.6471 38.783 75.7398C38.8658 75.8324 38.9093 75.9541 38.904 76.0787C38.8511 76.9417 38.4949 79.1379 36.3347 80.8877C34.6022 82.294 32.2231 82.9997 29.2378 82.9997Z" fill="#371A45"/>
<g opacity="0.25">
<path d="M69.47 54.242C68.0283 58.7257 61.2217 62.1202 53.0428 62.1202C45.7911 62.1202 39.6187 59.4517 37.3075 55.7228C39.0363 54.9608 41.1184 54.2063 43.5592 53.5934C46.5009 52.8542 49.9607 52.3175 53.9474 52.215C55.0293 52.1865 56.1495 52.1916 57.3081 52.2304C58.9236 52.2875 60.4624 52.4151 61.923 52.6031C64.7076 52.959 67.2183 53.5314 69.47 54.242Z" fill="#371A45"/>
</g>
<g opacity="0.25">
<path d="M83.3978 65.2718C83.3978 65.2718 76.9408 77.2433 57.876 79.2249C41.6376 80.9117 33.2036 74.1776 33.2036 74.1776C31.7049 70.4924 31.2951 66.449 32.0235 62.5345C32.1124 62.0589 32.2178 61.5858 32.3398 61.1151C32.5619 60.2513 33.0804 59.4948 33.8032 58.9797L33.8253 58.964C34.1045 58.7668 34.436 58.5434 34.8217 58.3002C34.2109 59.2237 33.6591 60.2148 33.8166 61.5674C34.1665 64.5638 39.6283 66.9246 39.6283 66.9246C39.6283 66.9246 38.4108 69.9464 41.1549 72.4636C43.0329 74.1853 45.7146 75.1995 48.8477 75.6409C47.6537 74.3714 46.9632 72.7046 46.9069 70.9563C46.7732 66.998 49.8497 63.6794 53.7769 63.5444C57.7042 63.4095 60.9966 66.5094 61.1294 70.4689C61.1921 72.2443 60.5966 73.9795 59.459 75.3364C68.6039 73.8599 78.2803 69.6627 83.0346 64.7558C83.2795 65.0846 83.3978 65.2718 83.3978 65.2718Z" fill="#371A45"/>
</g>
<path d="M85.9989 65.4573C85.9989 65.4573 85.9374 65.5714 85.8111 65.7789L85.8089 65.7812C85.6812 65.9884 85.4864 66.2883 85.222 66.663C85.1982 66.6989 85.1724 66.7335 85.1464 66.7691C85.0767 66.8667 85.0011 66.9689 84.9218 67.075C84.9125 67.0893 84.9017 67.1036 84.8913 67.1167L84.7673 67.2808C84.7645 67.2858 84.7608 67.2902 84.7565 67.2939C84.6999 67.369 84.641 67.4452 84.5795 67.5222L84.5688 67.5365C84.5215 67.5936 84.4756 67.6543 84.4272 67.7151C84.2522 67.9341 84.0617 68.1638 83.8556 68.4043C83.8179 68.4494 83.7789 68.4933 83.7398 68.5387C83.5037 68.8101 83.2474 69.0946 82.97 69.3885C82.9298 69.4325 82.8884 69.4767 82.8471 69.5195C82.227 70.1681 81.5093 70.8607 80.6849 71.5742C80.6223 71.6275 80.5586 71.6823 80.4949 71.7371C80.4782 71.7491 80.4629 71.7634 80.4465 71.7776C80.3496 71.8587 80.2528 71.9406 80.1534 72.0228L80.0037 72.1455C79.9538 72.1871 79.9032 72.2274 79.8525 72.2679C79.7002 72.3929 79.543 72.5167 79.3836 72.6389C79.3304 72.6805 79.2774 72.7222 79.2242 72.7624C79.1155 72.8446 79.0068 72.928 78.8972 73.0101C78.8406 73.0529 78.7859 73.0935 78.7293 73.1351C78.5617 73.259 78.3896 73.3825 78.2169 73.5061L78.041 73.63C77.8649 73.7538 77.6843 73.8777 77.5014 74.0009C75.5952 75.2806 73.5749 76.3788 71.4669 77.2812C71.7122 75.8925 71.904 74.4971 72.0422 73.0952C77.6169 70.9327 82.5461 68.0487 85.6039 64.8934C85.6382 64.9385 85.6687 64.979 85.697 65.0195C85.7126 65.0398 85.7254 65.0589 85.7398 65.0766C85.8083 65.1708 85.8624 65.2478 85.9026 65.3089C85.9275 65.3446 85.9476 65.3731 85.9629 65.3945C85.9722 65.4099 85.9804 65.423 85.9864 65.4302C85.9914 65.4388 85.9955 65.4479 85.9989 65.4573Z" fill="#CE2030"/>
<path d="M86 65.4584C86 65.4584 82.0832 72.7153 71.4669 77.2846C72.5432 71.2008 72.5795 64.9763 71.5742 58.8801C71.3403 57.4624 71.0502 56.0531 70.7039 54.6524C70.7426 54.6655 70.7806 54.6809 70.8171 54.6929C71.4681 54.9238 72.0956 55.1655 72.6996 55.4177C79.9267 58.4195 83.8814 62.7077 85.3409 64.5549C85.6138 64.9014 85.8004 65.1633 85.9018 65.3132C85.9683 65.4065 86 65.4584 86 65.4584Z" fill="#FF0019"/>
<g opacity="0.5">
<path d="M85.902 65.3131C85.8006 65.1633 85.6141 64.9014 85.3411 64.5549C84.8018 63.8723 83.9207 62.8561 82.6605 61.695C81.3128 60.4527 79.5291 59.0453 77.2641 57.6998C75.798 56.8313 74.2728 56.0684 72.6999 55.4168C72.0959 55.1657 71.4684 54.9241 70.8174 54.692C70.7797 54.6789 70.7418 54.6635 70.7041 54.6515C70.8123 55.0898 70.9133 55.5293 71.0107 55.9696C71.4143 56.1218 71.8089 56.2779 72.1945 56.4379C73.8151 57.109 75.3849 57.8985 76.8915 58.7999C76.8819 59.7744 77.5354 60.8979 78.6568 61.6579C79.6806 62.3513 80.8343 62.5639 81.7061 62.3096C83.2086 63.6386 84.2344 64.8143 84.8358 65.5754C85.1087 65.9215 85.295 66.1835 85.3966 66.3333C85.4074 66.3485 85.4156 66.3619 85.4249 66.3736C85.8185 65.7966 86.0017 65.4575 86.0017 65.4575C86.0017 65.4575 85.9683 65.4065 85.902 65.3131Z" fill="white"/>
</g>
<path d="M84.233 65.3591L84.2311 65.3611C81.2016 69.9367 76.9425 73.0501 71.8177 75.3179C72.0304 74.1155 72.1963 72.9075 72.3154 71.6937C77.1407 69.8217 81.408 67.3256 84.053 64.5946C84.3565 64.6931 84.3432 65.1799 84.233 65.3591Z" fill="#CE2030"/>
<path d="M71.4672 77.7609C71.3981 77.7609 71.3299 77.7456 71.2674 77.7161C71.2048 77.6866 71.1494 77.6437 71.1051 77.5903C71.0608 77.5369 71.0286 77.4744 71.0109 77.4072C70.9931 77.3399 70.9902 77.2696 71.0023 77.201C72.329 69.705 72.0742 62.1573 70.2452 54.7674C70.2246 54.6841 70.2267 54.5967 70.2513 54.5145C70.2759 54.4323 70.3221 54.3583 70.385 54.3005C70.4479 54.2426 70.5252 54.2029 70.6086 54.1857C70.6921 54.1685 70.7786 54.1743 70.859 54.2026C78.8245 57.0027 83.363 61.4341 85.3593 63.8267C85.7429 64.2847 85.9625 64.8595 85.9827 65.4585C86.0029 66.0576 85.8225 66.6461 85.4706 67.1292C83.6402 69.6525 79.4117 74.3839 71.6526 77.7227C71.594 77.748 71.5309 77.761 71.4672 77.7609ZM71.3684 55.4006C72.9728 62.3165 73.2146 69.4826 72.0802 76.4925C79.1232 73.2715 82.998 68.9242 84.7076 66.5671C84.9342 66.2558 85.0504 65.8767 85.0374 65.4908C85.0244 65.105 84.883 64.7347 84.6359 64.4396C82.7715 62.2049 78.6124 58.1319 71.3684 55.4006Z" fill="#371A45"/>
<path d="M52.7364 81.3871C46.2964 81.3871 41.3477 80.1754 38.0852 79.0146C33.5654 77.4065 31.2562 75.5858 31.1602 75.5091C31.0965 75.4585 31.047 75.3921 31.0164 75.3165C28.9537 70.2422 28.7628 64.5911 30.4785 59.3872C30.5039 59.3096 30.5489 59.24 30.609 59.1852C30.6999 59.1021 32.8811 57.1279 37.2817 55.2145C41.3216 53.4578 48.0773 51.4311 57.3233 51.7559C62.1696 51.9257 66.7231 52.7492 70.8587 54.2032C70.9327 54.2293 70.9992 54.2735 71.0521 54.3319C71.105 54.3902 71.1426 54.461 71.1616 54.5376C73.0223 62.056 73.282 69.7349 71.9332 77.3617C71.9205 77.4411 71.8881 77.516 71.8391 77.5795C71.79 77.6429 71.7259 77.6929 71.6526 77.7247C67.6254 79.4586 63.1373 80.5921 58.3131 81.092C56.4605 81.2867 54.5991 81.3852 52.7364 81.3871ZM31.8417 74.8348C32.3171 75.1866 34.5583 76.7561 38.447 78.1336C42.4957 79.5682 49.2149 81.082 58.2163 80.146C62.8516 79.6643 67.1667 78.5891 71.0458 76.9499C72.308 69.6214 72.0594 62.2454 70.3063 55.0188C66.325 53.649 61.9476 52.8711 57.2905 52.7073C48.2446 52.3908 41.6478 54.3596 37.7027 56.0681C33.9159 57.7081 31.7854 59.4271 31.3349 59.8107C29.7473 64.723 29.9268 70.042 31.842 74.8342L31.8417 74.8348Z" fill="#371A45"/>
<path d="M31.4553 75.6121C31.4254 75.6122 31.3957 75.6093 31.3664 75.6035L28.891 75.1292C28.2575 75.0082 27.6683 74.7163 27.1862 74.2847C26.7041 73.8531 26.3471 73.2978 26.1532 72.6779C25.1044 69.3329 24.9836 65.7623 25.8041 62.353C25.9558 61.7212 26.2746 61.1427 26.7265 60.679C27.1784 60.2153 27.7466 59.8838 28.3706 59.7196L30.8081 59.077C30.9293 59.045 31.0581 59.0629 31.1662 59.1266C31.2743 59.1904 31.3529 59.2948 31.3846 59.417C31.4164 59.5392 31.3987 59.669 31.3354 59.778C31.2721 59.887 31.1685 59.9662 31.0473 59.9982L28.6096 60.6408C28.1506 60.7615 27.7328 61.0053 27.4004 61.3463C27.0681 61.6874 26.8337 62.1129 26.7223 62.5776C25.9421 65.818 26.0565 69.2119 27.0532 72.3914C27.1958 72.8474 27.4583 73.2558 27.8129 73.5733C28.1675 73.8908 28.6008 74.1054 29.0668 74.1944L31.5422 74.669C31.6578 74.691 31.761 74.7556 31.8318 74.8503C31.9025 74.945 31.9357 75.0629 31.9247 75.181C31.9138 75.299 31.8595 75.4086 31.7726 75.4885C31.6857 75.5683 31.5723 75.6126 31.4547 75.6127L31.4553 75.6121Z" fill="#371A45"/>
<path d="M32.0903 70.2657C28.6226 70.3836 25.1147 67.7339 25.1147 67.7339C25.1147 67.7339 25.1274 67.7228 25.1509 67.7054C25.519 67.3955 28.6464 64.8443 31.9026 64.7313C35.0275 64.6234 37.615 66.8145 38.0691 67.224C38.1158 67.2659 38.1399 67.2893 38.1399 67.2893C38.1399 67.2893 35.5346 70.1493 32.0903 70.2657Z" fill="#FF0019"/>
<g opacity="0.5">
<path d="M25.1152 67.8767C25.1152 67.8767 25.2642 67.9894 25.5309 68.1663C27.0207 67.1786 29.4349 65.8759 31.9128 65.7895C34.3635 65.7039 36.5277 66.8385 37.8406 67.73C38.0354 67.5456 38.1396 67.4309 38.1396 67.4309C38.1396 67.4309 38.1158 67.4081 38.0697 67.3661C37.6166 66.9569 35.0272 64.765 31.9029 64.8734C28.6469 64.9876 25.5184 67.5379 25.1509 67.8476C25.128 67.8652 25.1152 67.8767 25.1152 67.8767Z" fill="white"/>
</g>
<path d="M32.0903 70.2655C28.6226 70.3833 25.1147 67.7337 25.1147 67.7337C25.1147 67.7337 25.1274 67.7226 25.1509 67.7051L38.0691 67.2237C38.1158 67.2657 38.1399 67.2891 38.1399 67.2891C38.1399 67.2891 35.5346 70.149 32.0903 70.2655Z" fill="#CE2030"/>
<path d="M31.8621 70.746C28.3553 70.746 24.9768 68.2248 24.8313 68.1152C24.7747 68.0725 24.7283 68.0175 24.6956 67.9544C24.6629 67.8912 24.6447 67.8214 24.6423 67.7502C24.6399 67.679 24.6534 67.6082 24.6818 67.5429C24.7102 67.4777 24.7528 67.4197 24.8064 67.3732C24.9479 67.2508 28.2948 64.3783 31.8871 64.2541C35.4893 64.132 38.3451 66.8276 38.4649 66.9423C38.5546 67.0284 38.6071 67.1464 38.6114 67.2711C38.6156 67.3958 38.5712 67.5172 38.4876 67.6092C38.3743 67.7319 35.7073 70.6193 32.1056 70.7417C32.0247 70.7446 31.9431 70.746 31.8621 70.746ZM25.9142 67.7068C26.9881 68.4028 29.5694 69.8742 32.0739 69.79C34.5717 69.7044 36.6396 68.047 37.438 67.3113C36.5923 66.6321 34.4196 65.1188 31.9193 65.2058C29.419 65.2929 26.9386 66.9386 25.9142 67.7068Z" fill="#371A45"/>
<path d="M59.5403 72.1191C62.5599 69.0756 62.5599 64.141 59.5403 61.0975C56.5207 58.054 51.625 58.054 48.6054 61.0975C45.5858 64.141 45.5858 69.0756 48.6054 72.1191C51.625 75.1626 56.5207 75.1626 59.5403 72.1191Z" fill="#FF0019"/>
<g opacity="0.5">
<path d="M54.1594 72.3272C51.2959 72.3272 48.919 70.0303 48.8211 67.1241C48.7208 64.1563 51.0354 61.659 53.9802 61.558C55.3966 61.5094 56.7742 62.03 57.8099 63.0052C58.8455 63.9804 59.4544 65.3303 59.5025 66.758C59.5507 68.1857 59.0342 69.5741 58.0667 70.618C57.0992 71.6618 55.7599 72.2755 54.3434 72.3241C54.2821 72.3262 54.2207 72.3272 54.1594 72.3272ZM54.1656 62.4101C54.1135 62.4101 54.0614 62.4101 54.0091 62.4127C51.5323 62.4983 49.5858 64.5977 49.6699 67.0941C49.754 69.5905 51.8381 71.5562 54.3146 71.4677C55.4912 71.4257 56.6045 70.92 57.4151 70.0593C58.2257 69.1987 58.6689 68.0518 58.6494 66.8652C58.6299 65.6787 58.1492 64.5473 57.3108 63.7142C56.4723 62.881 55.343 62.4128 54.1656 62.4101Z" fill="white"/>
</g>
<g opacity="0.5">
<path d="M53.7127 59.6706C57.9805 59.5242 61.5581 62.8927 61.7033 67.1946C61.7118 67.4457 61.7073 67.6943 61.6923 67.9403C61.7826 67.4127 61.8189 66.8772 61.8007 66.3422C61.6555 62.0405 58.0782 58.6718 53.81 58.8182C49.7916 58.956 46.5949 62.1613 46.3562 66.1262C46.9658 62.5648 49.9862 59.799 53.7127 59.6706Z" fill="white"/>
</g>
<path d="M54.3352 74.3973C50.0685 74.5431 46.4898 71.1763 46.3449 66.8741C46.2992 65.569 46.5811 64.2733 47.1645 63.1072C47.0543 63.6842 47.0086 64.2719 47.0283 64.8591C47.1733 69.1613 50.7506 72.5298 55.019 72.3837C56.407 72.3365 57.7568 71.9132 58.9263 71.1582C60.0958 70.4032 61.0418 69.3445 61.6648 68.0935C60.9969 71.5824 58.0091 74.2709 54.3352 74.3973Z" fill="#CE2030"/>
<path d="M54.0694 74.8784C49.673 74.8784 46.0238 71.3518 45.8732 66.8898C45.7194 62.3328 49.2726 58.5 53.7942 58.3442C58.3157 58.1883 62.1181 61.7706 62.2726 66.3276C62.4272 70.8847 58.8732 74.7175 54.3519 74.8736C54.2574 74.8768 54.1632 74.8784 54.0694 74.8784ZM54.0762 59.2913C53.9929 59.2913 53.91 59.2927 53.8262 59.2959C52.8733 59.3286 51.9362 59.5501 51.0683 59.9478C50.2004 60.3455 49.4187 60.9117 48.7678 61.6139C48.117 62.3161 47.6098 63.1407 47.2751 64.0405C46.9405 64.9403 46.7849 65.8977 46.8174 66.8581C46.9507 70.8062 50.1798 73.9264 54.0696 73.9267C54.1529 73.9267 54.2362 73.9253 54.3196 73.9224C58.3205 73.7852 61.4646 70.393 61.3284 66.3602C61.1954 62.4121 57.966 59.2913 54.077 59.2913H54.0762Z" fill="#371A45"/>
<path d="M57.64 70.0186C59.561 68.0824 59.561 64.9431 57.64 63.0069C55.719 61.0707 52.6044 61.0707 50.6834 63.0069C48.7624 64.9431 48.7624 68.0824 50.6834 70.0186C52.6044 71.9548 55.719 71.9548 57.64 70.0186Z" fill="#0096FC"/>
<g opacity="0.3">
<path d="M54.3287 71.4686C53.683 71.4907 53.0394 71.3844 52.4345 71.1558C51.8297 70.9271 51.2754 70.5807 50.8034 70.1361C50.3314 69.6915 49.9509 69.1576 49.6836 68.5648C49.4163 67.972 49.2676 67.332 49.2457 66.6812C49.2249 66.1056 49.3049 65.5307 49.4821 64.983C49.4821 65.0381 49.4821 65.0929 49.4844 65.1494C49.5236 66.3151 49.9692 67.4296 50.743 68.297C51.5167 69.1643 52.5691 69.729 53.715 69.8917C54.861 70.0543 56.0271 69.8046 57.0085 69.1865C57.9898 68.5683 58.7235 67.6212 59.0807 66.5117C59.0835 69.1731 56.9881 71.377 54.3287 71.4686Z" fill="white"/>
</g>
<path d="M58.7608 68.4359C58.7608 68.3503 58.7608 68.2647 58.7582 68.1791C58.7199 67.0338 58.2891 65.9372 57.5391 65.076C56.7891 64.2147 55.7663 63.6418 54.6446 63.4549C53.5229 63.2679 52.3715 63.4783 51.3864 64.0504C50.4012 64.6225 49.6431 65.5209 49.241 66.5927C49.2634 65.3224 49.7688 64.1091 50.6528 63.2034C51.5369 62.2976 52.7322 61.7685 53.9921 61.7252C56.7061 61.6325 58.9828 63.7739 59.0751 66.5108C59.0983 67.1672 58.9915 67.8217 58.7608 68.4359Z" fill="#2577EF"/>
<path d="M54.1571 71.8992C52.7476 71.8982 51.3955 71.336 50.3951 70.3351C49.3948 69.3341 48.8272 67.9755 48.816 66.5548C48.8047 65.1341 49.3506 63.7665 50.3349 62.7495C51.3192 61.7326 52.6622 61.1487 54.0716 61.125C55.4809 61.1012 56.8425 61.6396 57.86 62.6228C58.8775 63.606 59.4685 64.9545 59.5043 66.3747C59.5402 67.795 59.018 69.172 58.0514 70.2061C57.0848 71.2401 55.7521 71.8475 54.3434 71.896C54.2811 71.8981 54.219 71.8992 54.1571 71.8992ZM54.1656 61.9829C54.1135 61.9829 54.0614 61.9829 54.009 61.9855C52.8238 62.0257 51.7022 62.5362 50.8886 63.4059C50.075 64.2756 49.6351 65.4339 49.6647 66.6289C49.6943 67.8239 50.1911 68.9587 51.0468 69.7863C51.9025 70.6139 53.0479 71.0673 54.2337 71.0479C55.4195 71.0284 56.5496 70.5377 57.3781 69.6824C58.2067 68.8272 58.6665 67.6767 58.6575 66.4814C58.6486 65.2861 58.1715 64.1427 57.3302 63.3002C56.4889 62.4577 55.3515 61.9843 54.1656 61.9829Z" fill="#371A45"/>
<path d="M65.8644 32.2586V48.4773C65.8644 51.2048 63.65 53.4358 60.9448 53.4358H44.6772C41.9722 53.4358 39.7576 51.2048 39.7576 48.4773V32.2586C39.7612 30.9447 40.2807 29.6855 41.2025 28.7564C42.1243 27.8273 43.3736 27.3037 44.6772 27.3001H60.9453C62.2488 27.3044 63.4976 27.8283 64.4192 28.7572C65.3409 29.6862 65.8606 30.9449 65.8649 32.2586H65.8644Z" fill="white"/>
<path d="M60.4326 53.9121H45.1885C41.9326 53.9121 39.2851 51.2428 39.2851 47.9616V32.774C39.2851 29.4923 41.9335 26.8235 45.1885 26.8235H60.4326C63.6885 26.8235 66.3363 29.4929 66.3363 32.774V47.9616C66.3363 51.2428 63.688 53.9121 60.4326 53.9121ZM45.1885 27.7758C42.4544 27.7758 40.2299 30.0179 40.2299 32.774V47.9616C40.2299 50.7177 42.4544 52.9598 45.1885 52.9598H60.4326C63.167 52.9598 65.3915 50.7177 65.3915 47.9616V32.774C65.3915 30.0179 63.167 27.7758 60.4326 27.7758H45.1885Z" fill="#371A45"/>
<path d="M46.8915 26.6517C40.9125 28.7209 38.8046 34.8064 37.9224 34.8247C37.0402 34.8429 36.4717 33.3202 35.7044 32.3134C34.3236 30.5022 32.4824 32.1445 28.8873 31.2478C27.1132 30.8052 28.9411 36.175 29.7248 38.2083C30.744 40.8554 32.9725 44.1057 37.1121 44.0187C43.1427 43.8917 43.3259 36.417 43.3259 36.417" fill="white"/>
<g opacity="0.25">
<path d="M43.9307 34.7599L43.3262 36.417C43.3262 36.417 43.1433 43.8917 37.1127 44.019C32.9731 44.1063 30.7449 40.8557 29.7231 38.2089C28.9392 36.1753 27.1121 30.8053 28.8856 31.2484C28.9253 31.2581 28.9646 31.2678 29.0034 31.277C29.2364 32.9213 30.0643 35.291 30.5286 36.4941C30.8967 37.4526 35.2415 35.1754 35.2704 36.354C35.3013 37.6758 32.7846 39.6799 33.7132 40.9769C34.5176 42.1036 36.2047 42.3376 37.9159 42.303C42.8429 42.206 41.0852 35.7518 43.9307 34.7599Z" fill="#371A45"/>
</g>
<path d="M36.9505 44.4964C32.1637 44.4964 29.998 40.2316 29.2845 38.3809C29.0991 37.8998 28.4618 36.2039 28.0447 34.5736C27.4179 32.1225 27.6866 31.4082 27.9907 31.0598C28.1322 30.8983 28.4499 30.6483 29.0009 30.7859C30.5051 31.1608 31.7115 31.0678 32.6815 30.9933C34.0057 30.8912 35.1492 30.803 36.079 32.0235C36.3165 32.3351 36.5303 32.6836 36.737 33.0206C37.1017 33.6147 37.5122 34.2842 37.8579 34.3441C38.0357 34.2014 38.4125 33.6427 38.7475 33.1456C40.0326 31.2405 42.4247 27.695 46.7381 26.2011C46.8566 26.1601 46.9864 26.1683 47.0989 26.2238C47.2115 26.2792 47.2975 26.3775 47.3382 26.4969C47.3789 26.6163 47.3708 26.7472 47.3158 26.8606C47.2607 26.974 47.1632 27.0608 47.0447 27.1018C43.0292 28.4915 40.8378 31.7398 39.5286 33.6809C38.8064 34.7519 38.4437 35.2895 37.9321 35.3004H37.9037C37.0238 35.3004 36.4689 34.3958 35.9321 33.5208C35.7378 33.2041 35.5357 32.8762 35.3284 32.6031C34.7339 31.824 34.111 31.8374 32.752 31.9419C31.7152 32.0221 30.4247 32.1214 28.7727 31.7096C28.7463 31.7026 28.7192 31.6986 28.692 31.6976C28.6475 31.7684 28.4281 32.2492 28.9513 34.3067C29.3548 35.8945 29.9816 37.5622 30.1639 38.0354C30.9714 40.1297 32.9505 43.6243 37.1005 43.543C39.3916 43.4947 41.0518 42.3048 42.0348 40.0067C42.7959 38.2268 42.8514 36.423 42.8519 36.405C42.858 36.2808 42.912 36.1639 43.0024 36.0793C43.0928 35.9947 43.2125 35.9491 43.3358 35.9522C43.4591 35.9554 43.5764 36.007 43.6625 36.0961C43.7485 36.1852 43.7966 36.3047 43.7964 36.429C43.7945 36.5089 43.7398 38.4115 42.9134 40.3577C41.7888 43.0082 39.7857 44.4385 37.1203 44.4955C37.0639 44.4961 37.0073 44.4964 36.9505 44.4964Z" fill="#371A45"/>
<path d="M38.5422 44.1879C38.4783 44.1874 38.4158 44.1695 38.3612 44.1361C38.3066 44.1027 38.262 44.055 38.232 43.9981C38.2021 43.9412 38.188 43.8772 38.1912 43.8129C38.1945 43.7486 38.2149 43.6864 38.2503 43.6329C40.8267 39.7804 38.0453 35.0027 38.0167 34.9548C37.9684 34.8737 37.9541 34.7765 37.9769 34.6847C37.9997 34.593 38.0577 34.5141 38.1382 34.4654C38.2187 34.4167 38.3151 34.4023 38.4061 34.4252C38.4972 34.4482 38.5755 34.5067 38.6237 34.5878C38.7494 34.7987 41.6671 39.7992 38.8372 44.0315C38.8046 44.08 38.7606 44.1196 38.7091 44.1469C38.6577 44.1741 38.6003 44.1882 38.5422 44.1879Z" fill="#371A45"/>
<path d="M29.2967 32.4007C26.4887 31.9493 26.4409 29.613 27.641 28.6413C28.3772 28.0454 30.788 27.6653 31.1187 28.9304C31.4267 30.1098 29.551 30.2171 29.5632 30.7539C29.5702 31.0738 29.818 31.3874 30.8449 31.4819" fill="white"/>
<path d="M29.5631 30.7536C29.5705 31.0738 29.8179 31.3874 30.8445 31.4824L29.2967 32.401C28.9619 32.3499 28.6344 32.2587 28.321 32.1294C27.9221 31.2938 28.2024 30.303 28.8828 29.7531C29.3148 29.4027 30.3247 29.1278 31.1514 29.216C31.1129 30.1315 29.5524 30.2642 29.5631 30.7536Z" fill="white"/>
<g opacity="0.25">
<path d="M29.5631 30.7536C29.5705 31.0738 29.8179 31.3874 30.8445 31.4824L29.2967 32.401C28.9619 32.3499 28.6344 32.2587 28.321 32.1294C27.9221 31.2938 28.2024 30.303 28.8828 29.7531C29.1659 29.5231 29.7508 29.6498 30.2565 29.3798C30.7789 29.1008 31.0996 28.2509 31.1514 29.216C31.1129 30.1315 29.5524 30.2642 29.5631 30.7536Z" fill="#371A45"/>
</g>
<path d="M29.2973 32.877C29.2723 32.877 29.2473 32.875 29.2225 32.871C27.7769 32.6384 26.7851 31.8876 26.5017 30.8109C26.2608 29.8949 26.5997 28.8739 27.3451 28.2712C27.9963 27.7435 29.4907 27.4079 30.5161 27.7484C31.077 27.9344 31.4437 28.3017 31.5765 28.8102C31.8618 29.9023 30.8989 30.3946 30.3817 30.6591C30.2947 30.7036 30.1792 30.7627 30.0951 30.8132C30.1948 30.8811 30.4329 30.9665 30.8879 31.0087C30.9497 31.0143 31.0097 31.0322 31.0647 31.0612C31.1196 31.0902 31.1683 31.1298 31.2081 31.1778C31.2478 31.2259 31.2778 31.2813 31.2963 31.341C31.3148 31.4006 31.3214 31.4634 31.3158 31.5257C31.3103 31.5879 31.2926 31.6485 31.2638 31.7038C31.235 31.7592 31.1957 31.8083 31.148 31.8484C31.1004 31.8884 31.0454 31.9186 30.9862 31.9373C30.927 31.9559 30.8647 31.9626 30.803 31.957C29.6832 31.8537 29.1076 31.4527 29.092 30.7656C29.0807 30.2568 29.545 30.0193 29.9544 29.8099C30.5971 29.4814 30.7361 29.3327 30.6622 29.0525C30.6311 28.9338 30.5515 28.7629 30.2197 28.653C29.5006 28.4141 28.3228 28.7004 27.9372 29.0137C27.4782 29.3847 27.2684 30.0099 27.4151 30.5678C27.6011 31.2744 28.2959 31.7589 29.3715 31.9319C29.489 31.9504 29.5954 32.013 29.6691 32.1071C29.7429 32.2012 29.7787 32.3199 29.7694 32.4395C29.76 32.5591 29.7062 32.6707 29.6188 32.752C29.5313 32.8334 29.4166 32.8784 29.2976 32.8782L29.2973 32.877Z" fill="#371A45"/>
<path d="M32.3794 31.4736C29.0385 31.7176 27.2593 30.1683 25.5187 31.2339C24.184 32.0509 24.6104 34.9437 25.5914 35.9333C27.062 37.4172 29.7624 38.3079 30.6752 38.4414C32.4725 38.704 34.885 38.8546 35.545 35.3309" fill="white"/>
<path d="M32.4137 31.9484C31.8814 31.9821 31.3443 32.0055 30.8126 31.9593C30.285 31.9209 29.7602 31.8506 29.241 31.7487C28.7285 31.6539 28.2282 31.5395 27.7503 31.461C27.2724 31.3826 26.8205 31.3509 26.4239 31.4356C26.3214 31.4485 26.2288 31.4881 26.1337 31.5212C26.0357 31.5455 25.9508 31.6086 25.8585 31.6508L25.7902 31.6853L25.7418 31.7196C25.7094 31.7428 25.6783 31.7679 25.6487 31.7946C25.5878 31.8547 25.5341 31.9217 25.4887 31.9944C25.2936 32.2974 25.2056 32.7426 25.2027 33.1889C25.2024 33.6471 25.2732 34.1026 25.4125 34.5387C25.4788 34.751 25.5658 34.9561 25.6722 35.1511C25.7218 35.2416 25.7774 35.3287 25.8386 35.4117C25.8994 35.4916 25.9675 35.5657 26.0419 35.6328C26.7073 36.2786 27.568 36.7809 28.4587 37.1864C28.9061 37.3894 29.3646 37.5668 29.8318 37.7177C30.0637 37.7891 30.2996 37.8604 30.5258 37.9089C30.6413 37.9346 30.7373 37.9517 30.8678 37.9697C30.9907 37.988 31.1133 38.0054 31.2339 38.0182C31.718 38.0753 32.1937 38.0976 32.6419 38.0399C33.0901 37.9823 33.5009 37.8376 33.8502 37.599C34.0254 37.4745 34.1857 37.3299 34.3279 37.1681C34.4086 37.0936 34.4658 36.9952 34.5326 36.9044L34.6342 36.7677C34.6662 36.7204 34.6908 36.6673 34.7192 36.6171C34.9683 36.2227 35.124 35.7555 35.3137 35.2884L35.3214 35.2698C35.3427 35.2172 35.3819 35.1739 35.432 35.1477C35.4821 35.1215 35.5399 35.1143 35.5949 35.1271C35.6498 35.14 35.6984 35.1723 35.732 35.218C35.7655 35.2638 35.7817 35.3201 35.7778 35.3769C35.7398 35.9091 35.6623 36.455 35.4343 36.9749C35.406 37.04 35.3845 37.1068 35.3528 37.1704L35.2495 37.3596C35.1784 37.4849 35.111 37.6124 35.015 37.7252L34.8794 37.8995L34.8109 37.9851L34.7308 38.0627L34.5668 38.2151C34.5139 38.2682 34.456 38.316 34.3938 38.3578C33.9162 38.7268 33.3304 38.918 32.771 38.997C32.207 39.0764 31.6555 39.0521 31.1271 38.997C30.9938 38.9845 30.8638 38.9685 30.7342 38.95C30.6116 38.9354 30.4556 38.9103 30.3219 38.8818C30.0484 38.8247 29.7942 38.7522 29.5374 38.6766C29.0311 38.5199 28.5339 38.3347 28.0481 38.1218C27.0807 37.6921 26.1339 37.1704 25.3137 36.3985C25.198 36.2947 25.0924 36.1801 24.9983 36.056C24.9069 35.9329 24.8241 35.8035 24.7506 35.6688C24.6113 35.4129 24.4975 35.1437 24.4108 34.8652C24.2376 34.3204 24.1507 33.7516 24.1532 33.1795C24.1543 32.8838 24.1877 32.589 24.2526 32.3006C24.3216 32.0055 24.4267 31.7045 24.609 31.4228C24.701 31.2781 24.8099 31.145 24.9332 31.0264C24.9979 30.9668 25.0663 30.9113 25.1379 30.8603L25.2475 30.7859L25.3491 30.7319C25.487 30.6643 25.6161 30.5804 25.7662 30.5367C25.9123 30.4851 26.0575 30.4303 26.2092 30.4072C26.8149 30.279 27.3984 30.3452 27.9224 30.4383C28.4502 30.5336 28.9434 30.6554 29.4332 30.7522C30.408 30.9576 31.3732 31.049 32.3466 30.9996H32.3613C32.4232 30.996 32.4852 31.0048 32.5438 31.0254C32.6023 31.0461 32.6563 31.0781 32.7026 31.1197C32.7488 31.1614 32.7865 31.2118 32.8135 31.2681C32.8404 31.3244 32.8561 31.3855 32.8596 31.4479C32.8631 31.5103 32.8544 31.5728 32.8339 31.6318C32.8135 31.6909 32.7817 31.7452 32.7404 31.7919C32.6991 31.8385 32.6491 31.8765 32.5932 31.9037C32.5373 31.9308 32.4767 31.9466 32.4148 31.9502L32.4137 31.9484Z" fill="#371A45"/>
<path d="M32.3794 31.4736C29.0385 31.7176 27.2593 30.1683 25.5187 31.2339C24.184 32.0509 24.6104 34.9437 25.5914 35.9333C27.062 37.4172 29.7624 38.3079 30.6752 38.4414C32.4725 38.704 34.885 38.8546 35.545 35.3309" fill="white"/>
<g opacity="0.25">
<path d="M35.4943 35.5792C34.769 38.8469 32.4298 38.6971 30.6755 38.4417C29.7619 38.3079 27.0623 37.4144 25.5914 35.9339C24.9377 35.2741 24.5291 33.7668 24.7259 32.5951C24.8468 33.4532 25.1817 34.2771 25.6257 34.7254C27.152 36.2638 29.9535 37.189 30.9012 37.3279C32.4671 37.5545 34.4847 37.7032 35.4943 35.5792Z" fill="#371A45"/>
</g>
<path d="M32.4136 31.9484C31.3488 32.0226 30.2681 31.9265 29.2469 31.7176C28.7373 31.6188 28.2367 31.5007 27.7574 31.4179C27.278 31.3352 26.8202 31.2986 26.4134 31.3863C26.3086 31.3994 26.2135 31.4399 26.1158 31.4719C26.0153 31.497 25.9281 31.5609 25.8327 31.6043L25.7627 31.6399L25.7115 31.6759C25.677 31.7003 25.644 31.7268 25.6127 31.7552C25.5488 31.8177 25.4923 31.8875 25.4445 31.9633C25.2412 32.2795 25.1529 32.7338 25.1486 33.1855C25.148 33.6495 25.2203 34.1107 25.363 34.5518C25.4308 34.767 25.5196 34.9748 25.6283 35.1722C25.6787 35.2647 25.7355 35.3536 25.7981 35.4382C25.8608 35.5199 25.9312 35.5953 26.0085 35.6631C26.688 36.3077 27.5569 36.7968 28.453 37.1915C28.9024 37.3905 29.3625 37.5642 29.831 37.7117C30.0631 37.7814 30.2993 37.8507 30.5258 37.8975C30.6413 37.922 30.7367 37.9383 30.8672 37.9546C30.9901 37.9728 31.1127 37.9911 31.233 38.0042C31.7163 38.0633 32.1914 38.0876 32.6393 38.0328C33.2925 37.9759 33.8984 37.6662 34.3298 37.1687C34.4108 37.0942 34.4686 36.9975 34.5357 36.9053L34.6373 36.7683C34.6696 36.7206 34.6939 36.6676 34.7223 36.6173C34.9717 36.2221 35.1266 35.7538 35.31 35.2858L35.3174 35.2673C35.3382 35.214 35.3774 35.17 35.4277 35.1433C35.478 35.1167 35.5362 35.1092 35.5915 35.1221C35.6469 35.1351 35.6958 35.1677 35.7293 35.214C35.7628 35.2603 35.7787 35.3172 35.7741 35.3743C35.7316 35.9056 35.6529 36.4504 35.425 36.9692C35.3967 37.0343 35.3754 37.101 35.3437 37.1647L35.2407 37.3533C35.1699 37.4786 35.1031 37.6061 35.0074 37.7192L34.8723 37.8935L34.8041 37.9791L34.7245 38.057L34.5612 38.21C34.5085 38.2631 34.4508 38.3108 34.389 38.3527C33.9134 38.7236 33.3276 38.9166 32.7681 38.9979C32.2036 39.0789 31.6515 39.057 31.1223 39.0039C30.8517 38.9802 30.5825 38.9411 30.3163 38.8869C30.043 38.8298 29.7891 38.7533 29.5328 38.676C29.0276 38.5158 28.5319 38.3268 28.0479 38.1101C27.0852 37.6698 26.1486 37.1347 25.3417 36.3617C25.2287 36.2581 25.1254 36.1442 25.0331 36.0215C24.9446 35.9009 24.8645 35.7743 24.7933 35.6425C24.6559 35.3892 24.5437 35.1228 24.4584 34.8472C24.2881 34.3074 24.2021 33.7442 24.2036 33.1778C24.2045 32.8859 24.2372 32.595 24.301 32.3103C24.3686 32.0198 24.4708 31.7238 24.6501 31.4485C24.7395 31.3073 24.8455 31.1775 24.9657 31.0618C25.0283 31.0037 25.0945 30.9496 25.1639 30.9L25.2707 30.8275L25.3706 30.7741C25.5062 30.7079 25.6331 30.6249 25.7806 30.5821C25.9241 30.5313 26.0668 30.4771 26.216 30.4545C26.8106 30.329 27.3893 30.3909 27.9119 30.4791C28.4346 30.5672 28.9326 30.6882 29.4236 30.7827C30.4015 30.9825 31.3709 31.0644 32.3432 30.9987H32.3471C32.4721 30.9901 32.5954 31.0319 32.6898 31.1149C32.7842 31.1979 32.842 31.3154 32.8505 31.4413C32.859 31.5673 32.8176 31.6915 32.7352 31.7867C32.6529 31.8818 32.5364 31.9401 32.4114 31.9487L32.4136 31.9484Z" fill="#371A45"/>
<path d="M35.7095 32.8034C35.7095 32.8034 36.047 28.7774 33.7859 28.1656C31.8372 27.6382 31.3111 28.328 31.2707 28.7589C31.2016 29.4954 32.7692 29.9574 32.7933 30.2028C32.8174 30.4482 31.6073 31.8377 32.7208 32.7041" fill="white"/>
<path d="M35.239 32.7635C35.2622 31.7461 35.1637 30.632 34.7684 29.7594C34.5725 29.3236 34.2899 28.9752 33.936 28.794C33.8899 28.774 33.8443 28.7535 33.799 28.7318L33.6546 28.6841C33.5348 28.6556 33.4088 28.6213 33.2865 28.5959C33.0509 28.546 32.8114 28.5166 32.5708 28.5083C32.3471 28.506 32.1297 28.5329 31.9915 28.6008C31.8468 28.6633 31.7953 28.7526 31.7854 28.8045C31.7854 28.8111 31.7814 28.7991 31.7834 28.8045C31.7877 28.8197 31.7945 28.8341 31.8035 28.8471C31.8527 28.9162 31.9113 28.9779 31.9776 29.0306C32.1427 29.1687 32.3618 29.2994 32.6005 29.4378L32.7882 29.5494C32.8669 29.5963 32.9426 29.6483 33.0147 29.7049C33.0345 29.7197 33.0668 29.75 33.0912 29.7731C33.1059 29.7876 33.1254 29.8096 33.1413 29.8284L33.1665 29.8601C33.1781 29.8767 33.1891 29.8938 33.1996 29.9112C33.2101 29.9286 33.2197 29.9466 33.2279 29.9646C33.241 29.9928 33.2518 30.0221 33.2602 30.0522C33.2694 30.0841 33.276 30.1168 33.28 30.1498C33.2824 30.1751 33.283 30.2005 33.282 30.226C33.2814 30.2513 33.2793 30.2765 33.2758 30.3016L33.2676 30.3424C33.2625 30.3661 33.254 30.3995 33.2486 30.4143C33.2161 30.5052 33.1764 30.5933 33.1297 30.6777C32.9921 30.9325 32.8783 31.1434 32.8013 31.3603C32.7242 31.5772 32.6801 31.765 32.6812 31.9379C32.6823 32.1108 32.7358 32.2932 32.8661 32.5146L32.8774 32.5337C32.9034 32.578 32.9151 32.6294 32.9109 32.6807C32.9066 32.732 32.8866 32.7807 32.8537 32.82C32.8207 32.8594 32.7764 32.8874 32.7269 32.9002C32.6775 32.913 32.6253 32.91 32.5776 32.8916C32.4168 32.8266 32.2719 32.7273 32.1529 32.6005C32.0243 32.4609 31.9282 32.2942 31.8715 32.1125C31.7568 31.7416 31.8066 31.3632 31.906 31.0567C32.0054 30.7502 32.1503 30.4671 32.2678 30.2317C32.2871 30.1946 32.3043 30.1565 32.3194 30.1175C32.3168 30.1246 32.3147 30.1318 32.3131 30.1392L32.3109 30.1549C32.3078 30.1712 32.3061 30.1877 32.3058 30.2043C32.3056 30.2212 32.3066 30.238 32.3086 30.2548C32.3104 30.2793 32.3146 30.3036 32.3214 30.3273C32.3278 30.3489 32.336 30.37 32.3457 30.3903C32.3502 30.4011 32.3554 30.4116 32.3613 30.4217C32.3673 30.4316 32.3739 30.4412 32.3811 30.4503L32.3896 30.4622C32.3942 30.4683 32.3993 30.4739 32.4049 30.4791C32.4032 30.4791 32.4117 30.4851 32.4032 30.4791C32.3853 30.466 32.3355 30.4343 32.2851 30.4052L32.1152 30.3107C31.874 30.178 31.6104 30.0382 31.344 29.8313C31.1918 29.7152 31.0588 29.5756 30.9499 29.4175C30.8815 29.3157 30.8292 29.2039 30.7947 29.0859C30.757 28.9527 30.7462 28.8131 30.763 28.6756C30.7937 28.437 30.892 28.2125 31.0462 28.0289C31.1841 27.8653 31.3562 27.7345 31.5501 27.6457C31.9114 27.4744 32.2579 27.4459 32.5798 27.4416C32.8889 27.4494 33.1967 27.4851 33.4994 27.5483C33.6467 27.5789 33.7868 27.6154 33.934 27.6519L34.1815 27.733L34.4207 27.8409C34.7287 28.0009 35.001 28.2227 35.2208 28.4926C35.4266 28.7451 35.5967 29.025 35.7262 29.3245C35.981 29.9026 36.0943 30.4973 36.1625 31.0818C36.1945 31.3746 36.2115 31.6665 36.2163 31.9581C36.2198 32.2534 36.2082 32.5487 36.1815 32.8428C36.1706 32.9657 36.1128 33.0795 36.0202 33.1602C35.9276 33.2409 35.8075 33.2822 35.6853 33.2754C35.5631 33.2686 35.4483 33.2142 35.3651 33.1237C35.282 33.0332 35.2369 32.9136 35.2395 32.7903L35.239 32.7635Z" fill="#371A45"/>
<path d="M30.1271 31.7852C30.0825 31.8041 30.0422 31.8319 30.0085 31.8668C29.9537 31.9231 29.9048 31.985 29.8627 32.0515C29.7624 32.2134 29.6795 32.3856 29.6152 32.5651C29.4744 32.9555 29.3725 33.359 29.3109 33.7697C29.2435 34.1889 29.208 34.6126 29.2047 35.0373C29.2024 35.4608 29.231 35.8871 29.3242 36.2878V36.2915C29.3381 36.3512 29.3286 36.4141 29.2976 36.467C29.2667 36.5198 29.2167 36.5586 29.1581 36.5753C29.0994 36.5919 29.0367 36.5851 28.9829 36.5562C28.9292 36.5274 28.8885 36.4788 28.8695 36.4205C28.7228 35.9727 28.6526 35.517 28.6147 35.061C28.5773 34.6046 28.5747 34.146 28.6067 33.6892C28.6351 33.2227 28.7095 32.7602 28.8287 32.3086C28.8926 32.0662 28.9817 31.8313 29.0946 31.6077C29.1592 31.4818 29.2368 31.363 29.3259 31.2533C29.4344 31.1201 29.5676 31.0094 29.718 30.9274L29.7693 30.8989C29.8246 30.8695 29.8852 30.8513 29.9475 30.8455C30.0099 30.8397 30.0727 30.8464 30.1325 30.8651C30.1923 30.8837 30.2478 30.9141 30.296 30.9544C30.3441 30.9947 30.3839 31.0442 30.4131 31.1C30.4422 31.1559 30.4602 31.2169 30.466 31.2797C30.4717 31.3426 30.4652 31.4059 30.4466 31.4662C30.4281 31.5264 30.398 31.5824 30.358 31.6309C30.3179 31.6795 30.2689 31.7196 30.2135 31.749C30.1858 31.7637 30.1569 31.7758 30.1271 31.7852Z" fill="#371A45"/>
<path d="M25.9842 32.068C26.2628 32.0395 26.5332 32.0252 26.8095 32.0215C27.0874 32.0175 27.3653 32.0291 27.6419 32.0563C27.9301 32.0822 28.2148 32.1387 28.4913 32.225C28.6409 32.2731 28.7853 32.3368 28.9219 32.415C29.0773 32.5034 29.2142 32.6214 29.3248 32.7626L29.3409 32.7837C29.3962 32.8593 29.4199 32.9536 29.407 33.0466C29.3941 33.1396 29.3455 33.2237 29.2718 33.2811C29.198 33.3384 29.1049 33.3643 29.0124 33.3533C28.9199 33.3423 28.8354 33.2951 28.7769 33.222C28.7664 33.2074 28.757 33.1921 28.7486 33.1761C28.6739 33.0394 28.4859 32.9056 28.2721 32.8091C28.0439 32.7096 27.8059 32.6347 27.562 32.5857C27.3078 32.5319 27.0508 32.4925 26.7922 32.4675C26.5323 32.4418 26.2653 32.4261 26.0077 32.4244H26.0029C25.9574 32.4244 25.9136 32.4068 25.8807 32.3751C25.8477 32.3435 25.8281 32.3003 25.8259 32.2545C25.8237 32.2087 25.839 32.1638 25.8687 32.1291C25.8985 32.0943 25.9403 32.0725 25.9856 32.068H25.9842Z" fill="#371A45"/>
<path d="M25.8299 33.7708C26.102 33.7489 26.3752 33.7448 26.6478 33.7585C26.9215 33.7718 27.1942 33.8026 27.4641 33.8507C27.7401 33.9024 28.0112 33.9776 28.2746 34.0756C28.5481 34.1826 28.8074 34.3232 29.0467 34.4942C29.0847 34.5214 29.1171 34.5559 29.1419 34.5957C29.1666 34.6356 29.1834 34.6799 29.1912 34.7263C29.199 34.7726 29.1976 34.82 29.1872 34.8659C29.1768 34.9117 29.1575 34.955 29.1305 34.9933C29.1035 35.0316 29.0693 35.0642 29.0298 35.0892C28.9903 35.1142 28.9463 35.1311 28.9003 35.1389C28.8543 35.1468 28.8072 35.1454 28.7618 35.1349C28.7163 35.1244 28.6734 35.105 28.6353 35.0778C28.6249 35.0701 28.6147 35.0621 28.6053 35.0538L28.5971 35.0464C28.4226 34.8903 28.2299 34.7561 28.0232 34.6469C27.8036 34.536 27.5752 34.4439 27.3403 34.3715C26.8547 34.2279 26.3532 34.1459 25.8474 34.1275H25.8395C25.7945 34.1258 25.7517 34.107 25.72 34.0747C25.6883 34.0425 25.67 33.9992 25.6688 33.9538C25.6675 33.9084 25.6835 33.8643 25.7134 33.8303C25.7434 33.7964 25.785 33.7752 25.8299 33.7711V33.7708Z" fill="#371A45"/>
<path d="M58.8106 26.6517C64.7894 28.7209 66.8972 34.8064 67.7795 34.8247C68.6617 34.8429 69.2302 33.3202 69.9975 32.3134C71.3783 30.5022 73.2194 32.1445 76.8146 31.2478C78.5886 30.8052 76.7611 36.175 75.9771 38.2083C74.9564 40.8554 72.7294 44.1057 68.5898 44.0187C62.5592 43.8917 62.376 36.417 62.376 36.417" fill="white"/>
<g opacity="0.25">
<path d="M61.7712 34.7599L62.3757 36.417C62.3757 36.417 62.5586 43.8917 68.5892 44.019C72.7288 44.1063 74.957 40.8557 75.9774 38.2089C76.7613 36.1753 78.5883 30.8053 76.8148 31.2484C76.7752 31.2581 76.7358 31.2678 76.6973 31.277C76.464 32.9213 75.6362 35.291 75.1719 36.4941C74.8038 37.4526 70.459 35.1754 70.4301 36.354C70.3992 37.6758 72.9159 39.6799 71.9873 40.9769C71.1829 42.1036 69.4958 42.3376 67.7845 42.303C62.859 42.206 64.6167 35.7518 61.7712 34.7599Z" fill="#371A45"/>
</g>
<path d="M68.7514 44.4964C68.6948 44.4964 68.6382 44.4964 68.5799 44.4946C65.9145 44.4376 63.9114 43.0079 62.7868 40.3568C61.9612 38.4106 61.906 36.508 61.904 36.4281C61.9025 36.3656 61.9132 36.3035 61.9355 36.2451C61.9578 36.1868 61.9913 36.1335 62.0341 36.0882C62.0769 36.043 62.1281 36.0066 62.1848 35.9813C62.2414 35.956 62.3025 35.9421 62.3645 35.9406C62.4265 35.939 62.4882 35.9498 62.5461 35.9723C62.604 35.9948 62.6568 36.0286 62.7018 36.0717C62.7467 36.1148 62.7827 36.1664 62.8079 36.2235C62.833 36.2807 62.8467 36.3422 62.8483 36.4047C62.8483 36.4221 62.9049 38.226 63.6654 40.0058C64.6484 42.3039 66.3086 43.4939 68.5997 43.5421C72.7514 43.6314 74.7293 40.1296 75.5362 38.0345C75.7186 37.5613 76.3454 35.8942 76.7492 34.3059C77.2721 32.2483 77.0527 31.7661 77.0082 31.6967C76.9809 31.6979 76.9538 31.7019 76.9272 31.7087C75.2755 32.1208 73.985 32.0226 72.9482 31.941C71.5892 31.8366 70.9663 31.8229 70.3718 32.6022C70.1634 32.8753 69.9624 33.2032 69.7681 33.5199C69.2302 34.3949 68.6764 35.2995 67.7964 35.2995H67.7696C67.2579 35.2887 66.8953 34.751 66.1727 33.68C64.8635 31.7395 62.6724 28.4906 58.6569 27.1009C58.5982 27.0806 58.5441 27.0488 58.4976 27.0075C58.4511 26.9661 58.4131 26.9159 58.3859 26.8597C58.3586 26.8035 58.3426 26.7425 58.3387 26.6801C58.3349 26.6177 58.3433 26.5552 58.3634 26.496C58.3835 26.4369 58.415 26.3823 58.4561 26.3355C58.4971 26.2886 58.5469 26.2503 58.6027 26.2229C58.6584 26.1954 58.7189 26.1793 58.7808 26.1754C58.8428 26.1715 58.9048 26.18 58.9635 26.2002C63.2769 27.693 65.669 31.2393 66.9541 33.1447C67.2891 33.6415 67.6662 34.2005 67.8437 34.3432C68.1894 34.2833 68.6 33.6138 68.9646 33.0197C69.1713 32.6827 69.3851 32.3348 69.6226 32.0226C70.553 30.8021 71.6962 30.89 73.0201 30.9924C73.9893 31.0672 75.1959 31.1599 76.7007 30.785C77.252 30.6471 77.5702 30.8991 77.7112 31.0589C78.0153 31.4074 78.284 32.1216 77.6569 34.5727C77.2398 36.203 76.6025 37.8989 76.4171 38.3801C75.7039 40.2315 73.5377 44.4961 68.7514 44.4964Z" fill="#371A45"/>
<path d="M67.1597 44.1879C67.1016 44.188 67.0444 44.1736 66.9932 44.1461C66.9419 44.1187 66.8982 44.0789 66.8658 44.0304C64.0359 39.7981 66.9536 34.7975 67.0793 34.5867C67.1275 34.5055 67.2058 34.447 67.2969 34.4241C67.3879 34.4011 67.4843 34.4156 67.5648 34.4642C67.6453 34.5129 67.7033 34.5918 67.7261 34.6836C67.7489 34.7754 67.7346 34.8725 67.6863 34.9536C67.658 35.0016 64.8774 39.7798 67.4527 43.6317C67.4885 43.6854 67.5092 43.7478 67.5125 43.8124C67.5158 43.8769 67.5017 43.9412 67.4716 43.9983C67.4415 44.0554 67.3966 44.1032 67.3417 44.1366C67.2867 44.17 67.2238 44.1877 67.1597 44.1879Z" fill="#371A45"/>
<path d="M76.4052 32.4007C79.2132 31.9493 79.2611 29.613 78.0609 28.6413C77.3248 28.0454 74.9139 27.6653 74.5833 28.9304C74.2752 30.1098 76.1509 30.2171 76.1387 30.7539C76.1317 31.0738 75.8839 31.3874 74.857 31.4819" fill="white"/>
<path d="M76.1387 30.7536C76.1314 31.0738 75.8839 31.3874 74.8573 31.4824L76.4052 32.401C76.7399 32.3499 77.0675 32.2587 77.3808 32.1294C77.7797 31.2938 77.4994 30.303 76.8191 29.7531C76.387 29.4027 75.3774 29.1278 74.5504 29.216C74.5889 30.1315 76.1495 30.2642 76.1387 30.7536Z" fill="white"/>
<g opacity="0.25">
<path d="M76.1387 30.7536C76.1314 31.0738 75.8839 31.3874 74.8573 31.4824L76.4052 32.401C76.7399 32.3499 77.0675 32.2587 77.3808 32.1294C77.7797 31.2938 77.4994 30.303 76.8191 29.7531C76.536 29.5231 75.951 29.6498 75.4454 29.3798C74.923 29.1008 74.6022 28.2509 74.5504 29.216C74.5889 30.1315 76.1495 30.2642 76.1387 30.7536Z" fill="#371A45"/>
</g>
<path d="M76.4046 32.877C76.2856 32.8773 76.1708 32.8322 76.0834 32.7509C75.9959 32.6696 75.9421 32.558 75.9328 32.4384C75.9234 32.3188 75.9592 32.2001 76.033 32.106C76.1068 32.0118 76.2131 31.9493 76.3307 31.9307C77.4065 31.7578 78.1011 31.2744 78.2871 30.5667C78.4337 30.0088 78.2242 29.3841 77.7653 29.0126C77.3782 28.6987 76.2013 28.4133 75.4824 28.6519C75.1509 28.762 75.071 28.9329 75.0402 29.0514C74.9668 29.3316 75.1059 29.4794 75.748 29.8087C76.1577 30.0182 76.622 30.2556 76.6104 30.7644C76.5948 31.4516 76.0192 31.8526 74.8995 31.9559C74.7747 31.9672 74.6506 31.9281 74.5544 31.8473C74.4582 31.7664 74.3978 31.6503 74.3866 31.5245C74.3753 31.3988 74.4141 31.2737 74.4943 31.1767C74.5746 31.0798 74.6898 31.0189 74.8145 31.0076C75.2709 30.9653 75.509 30.88 75.609 30.8121C75.524 30.7616 75.4091 30.7025 75.3222 30.658C74.8049 30.3935 73.842 29.9012 74.1274 28.8091C74.2602 28.3006 74.6268 27.9333 75.1877 27.7472C76.2123 27.4068 77.7075 27.7424 78.3587 28.27C79.1042 28.8736 79.4431 29.8946 79.2021 30.8098C78.919 31.8865 77.9281 32.6362 76.4813 32.8699C76.4559 32.8743 76.4303 32.8767 76.4046 32.877Z" fill="#371A45"/>
<path d="M73.3225 31.4736C76.6634 31.7176 78.4425 30.1683 80.1832 31.2339C81.5178 32.0509 81.0915 34.9437 80.1104 35.9333C78.6399 37.4172 75.9394 38.3079 75.0266 38.4414C73.2293 38.704 70.8168 38.8546 70.1569 35.3309" fill="white"/>
<path d="M73.3579 30.9987C74.3312 31.0481 75.2964 30.9568 76.2715 30.7513C76.761 30.6532 77.2542 30.5313 77.782 30.4374C78.3055 30.3444 78.8896 30.2782 79.4952 30.4063C79.6469 30.4294 79.7925 30.4842 79.9383 30.5359C80.0883 30.5795 80.2174 30.6634 80.3553 30.7311L80.457 30.785L80.5665 30.8595C80.6381 30.9105 80.7065 30.9659 80.7712 31.0256C80.8946 31.1441 81.0035 31.2772 81.0954 31.4219C81.2777 31.7036 81.3828 32.0047 81.4519 32.2997C81.5168 32.5882 81.5501 32.8829 81.5512 33.1787C81.5538 33.7507 81.4668 34.3196 81.2936 34.8643C81.207 35.1429 81.0932 35.4121 80.9538 35.6679C80.8803 35.8027 80.7975 35.9321 80.7061 36.0552C80.6121 36.1792 80.5064 36.2939 80.3907 36.3976C79.5696 37.1681 78.6237 37.6912 77.6563 38.121C77.1706 38.3339 76.6734 38.5191 76.167 38.6757C75.9102 38.7513 75.6574 38.8253 75.3825 38.8809C75.2489 38.9094 75.0929 38.9345 74.9705 38.9491C74.8409 38.9668 74.7106 38.9836 74.5773 38.9962C74.049 39.0513 73.4974 39.0755 72.9335 38.9962C72.374 38.9171 71.7882 38.7259 71.3106 38.357C71.2485 38.3152 71.1905 38.2674 71.1376 38.2143L70.9737 38.0619L70.8935 37.9843L70.825 37.8987L70.6894 37.7243C70.5934 37.6102 70.526 37.484 70.455 37.3587L70.3516 37.1695C70.3199 37.1059 70.2976 37.0391 70.2701 36.9741C70.0422 36.4544 69.9646 35.9085 69.9267 35.376C69.9225 35.3192 69.9386 35.2628 69.9721 35.2169C70.0056 35.171 70.0542 35.1386 70.1093 35.1257C70.1643 35.1127 70.2221 35.1199 70.2723 35.1461C70.3225 35.1723 70.3618 35.2157 70.3831 35.2684L70.3907 35.2875C70.579 35.7547 70.7347 36.2218 70.9853 36.6162C71.0136 36.6664 71.0391 36.7195 71.0702 36.7669L71.1718 36.9036C71.2387 36.9943 71.2961 37.0928 71.3765 37.1673C71.5188 37.3289 71.6791 37.4735 71.8542 37.5982C72.2036 37.8367 72.6135 37.9843 73.0626 38.0391C73.5116 38.0939 73.9864 38.0744 74.4705 38.0174C74.5912 38.0045 74.7137 37.9871 74.8366 37.9689C74.9671 37.9509 75.0631 37.9338 75.1786 37.9081C75.4051 37.8596 75.6407 37.7882 75.8726 37.7169C76.3399 37.566 76.7983 37.3886 77.2457 37.1855C78.1365 36.78 78.9972 36.2778 79.6625 35.632C79.737 35.5648 79.805 35.4908 79.8658 35.4108C79.927 35.3278 79.9826 35.2408 80.0323 35.1503C80.1386 34.9553 80.2256 34.7501 80.2919 34.5379C80.4312 34.1017 80.502 33.6463 80.5017 33.1881C80.4986 32.7418 80.4108 32.2966 80.2157 31.9935C80.1521 31.8849 80.0657 31.7915 79.9626 31.7199L79.9142 31.6856L79.846 31.6511C79.754 31.6089 79.6687 31.5458 79.5708 31.5215C79.4756 31.489 79.3831 31.4493 79.2806 31.4359C78.8842 31.3503 78.4312 31.384 77.9541 31.4613C77.4771 31.5387 76.9759 31.6542 76.4635 31.749C75.9443 31.8509 75.4196 31.9212 74.8921 31.9596C74.3601 32.0049 73.823 31.9824 73.2908 31.9487C73.1657 31.9416 73.0486 31.8847 72.9651 31.7906C72.8817 31.6964 72.8388 31.5727 72.8458 31.4466C72.8529 31.3206 72.9093 31.2025 73.0028 31.1184C73.0962 31.0343 73.2189 30.9911 73.344 30.9982L73.3579 30.9987Z" fill="#371A45"/>
<path d="M73.3225 31.4736C76.6634 31.7176 78.4425 30.1683 80.1832 31.2339C81.5178 32.0509 81.0915 34.9437 80.1104 35.9333C78.6399 37.4172 75.9394 38.3079 75.0266 38.4414C73.2293 38.704 70.8168 38.8546 70.1569 35.3309" fill="white"/>
<g opacity="0.25">
<path d="M70.2075 35.5792C70.9329 38.8469 73.2721 38.6971 75.0263 38.4417C75.94 38.3079 78.6399 37.4144 80.1104 35.9339C80.7641 35.2741 81.1727 33.7668 80.9759 32.5951C80.855 33.4532 80.5201 34.2771 80.0762 34.7254C78.5498 36.2638 75.7486 37.189 74.8007 37.3279C73.2347 37.5545 71.2186 37.7032 70.2075 35.5792Z" fill="#371A45"/>
</g>
<path d="M73.3578 30.9987C74.3301 31.0644 75.2995 30.9819 76.2774 30.7827C76.7684 30.6883 77.263 30.5701 77.789 30.4791C78.3151 30.3881 78.8893 30.329 79.485 30.4545C79.6342 30.4771 79.7769 30.5313 79.9204 30.5821C80.0679 30.6249 80.1948 30.708 80.3304 30.7742L80.4303 30.8275L80.5371 30.9C80.6064 30.9497 80.6726 31.0037 80.7352 31.0618C80.8555 31.1776 80.9615 31.3074 81.0512 31.4485C81.229 31.7239 81.3324 32.0192 81.4 32.3103C81.4638 32.595 81.4964 32.8859 81.4974 33.1778C81.4993 33.7442 81.4138 34.3074 81.244 34.8472C81.1587 35.1228 81.0465 35.3893 80.9091 35.6425C80.8369 35.7753 80.7556 35.9027 80.6659 36.0241C80.5736 36.1468 80.4703 36.2606 80.3573 36.3642C79.5504 37.1373 78.6129 37.6724 77.6511 38.1127C77.1671 38.3294 76.6714 38.5184 76.1662 38.6786C75.9099 38.7559 75.6565 38.8318 75.3827 38.8895C75.1165 38.9437 74.8475 38.9827 74.577 39.0065C74.0478 39.0595 73.4954 39.0815 72.9309 39.0005C72.3717 38.9191 71.7856 38.7262 71.31 38.3553C71.2482 38.3134 71.1905 38.2656 71.1378 38.2126L70.9748 38.0596L70.8946 37.9826L70.8264 37.897L70.6914 37.7226C70.5959 37.6084 70.5288 37.482 70.4581 37.3568L70.355 37.1681C70.3233 37.1045 70.3009 37.0377 70.2737 36.9726C70.0472 36.4538 69.9674 35.9091 69.9246 35.3777C69.9199 35.3206 69.9357 35.2636 69.9692 35.2173C70.0027 35.1709 70.0516 35.1383 70.107 35.1252C70.1624 35.1122 70.2206 35.1197 70.271 35.1464C70.3213 35.173 70.3605 35.2171 70.3813 35.2704L70.3887 35.2893C70.5722 35.7573 70.7284 36.2256 70.9765 36.6208C71.0048 36.671 71.0305 36.7241 71.0614 36.7717L71.163 36.9087C71.2301 36.9995 71.2879 37.0976 71.3692 37.1721C71.8004 37.6698 72.4063 37.9795 73.0594 38.0362C73.5073 38.0933 73.9824 38.0676 74.4657 38.0077C74.586 37.9946 74.7086 37.9763 74.8315 37.958C74.962 37.9412 75.058 37.9249 75.173 37.901C75.3995 37.8542 75.6356 37.7848 75.8677 37.7152C76.3363 37.5676 76.7963 37.3939 77.2457 37.1949C78.1418 36.8003 79.0121 36.3103 79.6902 35.6665C79.7675 35.5987 79.838 35.5234 79.9006 35.4416C79.9632 35.357 80.02 35.2682 80.0705 35.1757C80.1791 34.9783 80.2679 34.7704 80.3357 34.5553C80.4784 34.1141 80.5508 33.653 80.5501 33.1889C80.5458 32.7361 80.4575 32.2829 80.2542 31.9667C80.2064 31.891 80.15 31.8212 80.086 31.7587C80.0548 31.7302 80.0218 31.7037 79.9872 31.6793L79.936 31.6434L79.866 31.6077C79.7715 31.5643 79.6843 31.5004 79.5829 31.4753C79.4852 31.4422 79.3901 31.4017 79.2854 31.3897C78.8785 31.3021 78.4204 31.3392 77.9413 31.4214C77.4623 31.5036 76.9629 31.6211 76.4518 31.721C75.4306 31.9299 74.3499 32.0261 73.2851 31.9519C73.1601 31.9432 73.0436 31.8848 72.9614 31.7895C72.8791 31.6943 72.8377 31.57 72.8464 31.4441C72.855 31.3181 72.9129 31.2007 73.0074 31.1178C73.1019 31.0349 73.2252 30.9932 73.3502 31.0019L73.3578 30.9987Z" fill="#371A45"/>
<path d="M69.9923 32.8034C69.9923 32.8034 69.6548 28.7774 71.9159 28.1656C73.8646 27.6382 74.3907 28.328 74.4312 28.7589C74.5003 29.4954 72.9326 29.9574 72.9085 30.2028C72.8845 30.4482 74.0948 31.8377 72.981 32.7041" fill="white"/>
<path d="M69.5218 32.8436C69.4951 32.5495 69.4835 32.2543 69.487 31.959C69.4921 31.6673 69.5088 31.3754 69.5408 31.0826C69.6079 30.4982 69.7228 29.9035 69.9771 29.3253C70.1066 29.0258 70.2767 28.7459 70.4825 28.4935C70.702 28.2239 70.9737 28.0023 71.2811 27.8423L71.5204 27.7344L71.7678 27.6533C71.9151 27.6168 72.0552 27.5803 72.2024 27.5498C72.5052 27.4865 72.8129 27.4508 73.122 27.443C73.4448 27.4484 73.7905 27.4756 74.1518 27.6471C74.3457 27.7359 74.5178 27.8667 74.6557 28.0303C74.8099 28.2139 74.9082 28.4384 74.9389 28.677C74.9557 28.8145 74.9449 28.9541 74.9071 29.0873C74.8727 29.2053 74.8204 29.3171 74.752 29.4189C74.6431 29.577 74.5101 29.7166 74.3579 29.8327C74.0917 30.0396 73.8279 30.1794 73.5866 30.3121L73.4168 30.4066C73.3661 30.4351 73.3163 30.4674 73.2984 30.4805C73.2902 30.4859 73.2984 30.4805 73.2967 30.4805C73.3023 30.4753 73.3074 30.4697 73.312 30.4637L73.3205 30.4517C73.3277 30.4426 73.3343 30.433 73.3403 30.4231C73.3462 30.413 73.3514 30.4025 73.3559 30.3917C73.3656 30.3714 73.3738 30.3503 73.3802 30.3287C73.387 30.305 73.3912 30.2807 73.393 30.2562C73.395 30.2394 73.396 30.2226 73.3958 30.2057C73.3955 30.1891 73.3938 30.1726 73.3907 30.1563L73.3885 30.1406C73.3869 30.1332 73.3848 30.126 73.3822 30.1189C73.3973 30.1579 73.4145 30.196 73.4338 30.2331C73.5513 30.4685 73.6968 30.7487 73.7959 31.0581C73.895 31.3674 73.9448 31.743 73.8301 32.1139C73.7734 32.2956 73.6774 32.4622 73.549 32.6019C73.4299 32.7287 73.285 32.828 73.1243 32.893C73.0767 32.9115 73.0246 32.9147 72.9751 32.902C72.9257 32.8893 72.8813 32.8615 72.8483 32.8222C72.8153 32.783 72.7952 32.7344 72.7908 32.6832C72.7865 32.6319 72.798 32.5806 72.8239 32.5363L72.8358 32.516C72.966 32.2946 73.0235 32.1122 73.0207 31.9393C73.0178 31.7664 72.9771 31.5757 72.9006 31.3617C72.8242 31.1477 72.7098 30.9337 72.5722 30.6791C72.5256 30.5946 72.4859 30.5066 72.4533 30.4157C72.4479 30.4003 72.4394 30.3675 72.4343 30.3438L72.4261 30.303C72.4226 30.2779 72.4205 30.2527 72.4199 30.2274C72.419 30.2019 72.4197 30.1765 72.4219 30.1512C72.426 30.1182 72.4326 30.0856 72.4417 30.0536C72.4501 30.0235 72.4609 29.9942 72.474 29.966C72.483 29.948 72.4926 29.93 72.5023 29.9126C72.5119 29.8952 72.5238 29.8781 72.5354 29.8615L72.5609 29.8298C72.5765 29.811 72.596 29.789 72.6107 29.7745C72.6351 29.7514 72.6673 29.7211 72.6872 29.7063C72.7589 29.6498 72.8341 29.5978 72.9122 29.5508L73.0999 29.4392C73.3375 29.3008 73.5566 29.1701 73.7228 29.032C73.7891 28.9793 73.8478 28.9176 73.897 28.8485C73.9061 28.8356 73.9129 28.8212 73.9171 28.8059C73.919 28.7997 73.9148 28.8117 73.9151 28.8059C73.9052 28.754 73.8536 28.6633 73.709 28.6022C73.5708 28.5343 73.3533 28.5074 73.1297 28.5097C72.889 28.518 72.6496 28.5474 72.4139 28.5973C72.2925 28.6227 72.1662 28.6564 72.0459 28.6855L71.9015 28.7332C71.8562 28.7549 71.8106 28.7754 71.7644 28.7954C71.4105 28.9766 71.128 29.325 70.9321 29.7608C70.5357 30.6334 70.4383 31.7475 70.4618 32.7649V32.7908C70.465 32.9144 70.4204 33.0344 70.3373 33.1254C70.2543 33.2164 70.1393 33.2712 70.0169 33.2783C69.8944 33.2853 69.7741 33.244 69.6813 33.1632C69.5885 33.0823 69.5306 32.9682 69.5198 32.845L69.5218 32.8436Z" fill="#371A45"/>
<path d="M75.9839 30.9268C76.1344 31.0087 76.2676 31.1194 76.376 31.2527C76.4651 31.3624 76.5426 31.4812 76.6073 31.6071C76.7201 31.8307 76.8092 32.0656 76.8732 32.308C76.9926 32.7596 77.0669 33.2221 77.0951 33.6886C77.1272 34.1454 77.1245 34.604 77.0872 35.0604C77.0484 35.517 76.9782 35.9736 76.8324 36.4199C76.8129 36.4775 76.7723 36.5254 76.7189 36.5538C76.6654 36.5821 76.6033 36.5888 76.5451 36.5725C76.487 36.5561 76.4372 36.518 76.4061 36.4658C76.3749 36.4137 76.3648 36.3515 76.3777 36.292V36.2872C76.4708 35.8877 76.4997 35.4596 76.4972 35.0367C76.4939 34.6121 76.4584 34.1883 76.391 33.7691C76.3294 33.3584 76.2275 32.9549 76.0866 32.5646C76.0224 32.385 75.9394 32.2128 75.8392 32.0509C75.7971 31.9844 75.7482 31.9225 75.6934 31.8663C75.6597 31.8314 75.6195 31.8037 75.575 31.7846C75.4538 31.7484 75.3519 31.6652 75.2916 31.5532C75.2313 31.4412 75.2176 31.3097 75.2535 31.1875C75.2895 31.0654 75.3721 30.9626 75.4832 30.9018C75.5943 30.8411 75.7248 30.8273 75.846 30.8635C75.8753 30.8721 75.9038 30.8835 75.9309 30.8977L75.9839 30.9268Z" fill="#371A45"/>
<path d="M79.6956 32.4244C79.438 32.4261 79.171 32.4418 78.9111 32.4675C78.6525 32.4925 78.3955 32.5319 78.1413 32.5857C77.8974 32.6347 77.6594 32.7096 77.4312 32.8091C77.2174 32.9056 77.0294 33.0394 76.955 33.1761C76.9067 33.2539 76.8307 33.3102 76.7425 33.3333C76.6543 33.3564 76.5607 33.3445 76.4809 33.3002C76.4012 33.2559 76.3413 33.1824 76.3136 33.095C76.2859 33.0075 76.2925 32.9126 76.3321 32.8299C76.3403 32.8143 76.3498 32.7994 76.3604 32.7854L76.378 32.7626C76.4886 32.6214 76.6254 32.5034 76.7808 32.415C76.9175 32.3368 77.0618 32.2731 77.2115 32.225C77.4879 32.1387 77.7726 32.0822 78.0609 32.0563C78.3375 32.0291 78.6154 32.0175 78.8932 32.0215C79.1696 32.0252 79.44 32.0389 79.7186 32.068C79.7637 32.0725 79.8055 32.0942 79.8352 32.1288C79.865 32.1634 79.8804 32.2082 79.8783 32.2539C79.8762 32.2997 79.8569 32.3428 79.8241 32.3746C79.7914 32.4063 79.7478 32.4241 79.7024 32.4244H79.6956Z" fill="#371A45"/>
<path d="M79.8545 34.1275C79.3487 34.146 78.8472 34.228 78.3616 34.3715C78.1267 34.4439 77.8983 34.536 77.6787 34.6469C77.472 34.7561 77.2793 34.8903 77.1048 35.0464L77.0968 35.0535C77.0264 35.1166 76.9341 35.1488 76.8401 35.1433C76.7461 35.1377 76.6581 35.0947 76.5956 35.0237C76.533 34.9527 76.501 34.8597 76.5065 34.7649C76.5121 34.6702 76.5547 34.5815 76.6251 34.5185C76.6348 34.5099 76.645 34.5016 76.6552 34.4942C76.8944 34.3232 77.1538 34.1826 77.4272 34.0756C77.6906 33.9776 77.9618 33.9024 78.2378 33.8507C78.5077 33.8026 78.7803 33.7718 79.0541 33.7585C79.3268 33.7448 79.6001 33.7489 79.8723 33.7708C79.9172 33.7749 79.9588 33.7962 79.9887 33.8301C80.0186 33.8641 80.0346 33.9083 80.0333 33.9537C80.0321 33.9991 80.0137 34.0423 79.9819 34.0745C79.9502 34.1068 79.9074 34.1256 79.8624 34.1272L79.8545 34.1275Z" fill="#371A45"/>
<path d="M62.4808 35.4117C65.0699 44.5101 63.81 52.705 63.81 52.705H41.8112C41.8112 52.705 40.5507 44.4604 43.1634 35.3298C43.1634 35.3298 43.4162 24.6247 52.7443 24.6247C62.0725 24.6247 62.4808 35.4117 62.4808 35.4117Z" fill="white"/>
<path d="M62.7078 35.346C63.2982 36.6995 63.6557 38.1355 63.9196 39.5812C64.0507 40.3046 64.1682 41.0309 64.2656 41.76C64.3587 42.4894 64.4394 43.2208 64.4969 43.9542C64.6165 45.4205 64.6613 46.8921 64.6311 48.3631C64.6184 49.0988 64.5801 49.8339 64.5249 50.5684C64.4697 51.303 64.3989 52.0295 64.2769 52.7789L64.2166 53.1821H52.6048V52.2299H53.0196V53.1821H41.4043L41.3446 52.7783C41.2226 52.0253 41.1549 51.2984 41.0971 50.5573C41.0394 49.8162 41.0051 49.0805 40.9929 48.3414C40.9637 46.8634 41.0102 45.3849 41.1322 43.9117C41.1906 43.1751 41.2715 42.4403 41.3675 41.7078C41.4635 40.9752 41.5844 40.2458 41.7172 39.519C41.9856 38.067 42.3528 36.6268 42.9369 35.2647C42.9604 35.2123 43.0019 35.1702 43.0537 35.146C43.1055 35.1218 43.1642 35.1171 43.2191 35.1329C43.2739 35.1487 43.3214 35.1838 43.3528 35.2319C43.3841 35.28 43.3973 35.3378 43.3899 35.3948V35.3965C43.1775 36.8456 42.895 38.2588 42.6603 39.6859C42.4313 41.1128 42.2659 42.5482 42.164 43.9921C42.1155 44.7133 42.0753 45.435 42.0538 46.1575C42.0323 46.8801 42.0269 47.6029 42.034 48.3263C42.0411 49.0497 42.0623 49.7711 42.1008 50.492C42.1393 51.2128 42.1965 51.9396 42.2775 52.6342L41.8106 52.2307H53.0181V53.183H52.6048V52.2307H63.8115L63.3446 52.6339C63.4258 51.9428 63.4805 51.2157 63.5218 50.502C63.5632 49.7882 63.5784 49.0657 63.5898 48.3469C63.6011 47.628 63.5898 46.9083 63.5714 46.1892C63.553 45.4701 63.5105 44.7518 63.4629 44.0344C63.361 42.5993 63.1976 41.1707 62.9728 39.7484C62.739 38.3279 62.4536 36.9233 62.2551 35.4779V35.4762C62.2472 35.4187 62.2602 35.3603 62.2917 35.3118C62.3232 35.2632 62.371 35.2278 62.4264 35.212C62.4817 35.1962 62.5409 35.2011 62.593 35.2259C62.645 35.2506 62.6864 35.2935 62.7095 35.3466L62.7078 35.346Z" fill="#371A45"/>
<g opacity="0.35">
<path d="M52.7463 46.6107C52.8426 46.7594 52.9358 46.9054 53.0261 47.0484C52.9338 46.9052 52.8403 46.7585 52.7463 46.6107Z" fill="#371A45"/>
</g>
<path d="M47.3225 46.6926C45.8989 47.2733 43.6959 47.1517 42.1939 46.9688C41.9802 46.9425 41.7738 46.8733 41.587 46.7653C41.4002 46.6573 41.2367 46.5127 41.1061 46.3401C40.9756 46.1675 40.8807 45.9702 40.827 45.76C40.7732 45.5498 40.7618 45.3309 40.7933 45.1162C40.8518 44.7175 41.0551 44.3549 41.3637 44.0987C41.6723 43.8425 42.0643 43.7108 42.4638 43.7293C43.8686 43.7955 45.9745 43.8266 47.3103 43.5295" fill="white"/>
<g opacity="0.35">
<path d="M47.3228 46.6923C45.8989 47.2739 43.6957 47.1515 42.194 46.9694C41.9351 46.9371 41.6879 46.8421 41.4733 46.6925C41.2588 46.5429 41.0834 46.3433 40.9621 46.1105C40.8408 45.8778 40.7773 45.6189 40.7768 45.356C40.7763 45.0931 40.839 44.834 40.9595 44.6008C41.0805 44.8344 41.2562 45.0348 41.4712 45.1846C41.6863 45.3344 41.9344 45.4292 42.194 45.4606C43.6945 45.6441 45.8927 45.7654 47.3165 45.1875L47.3228 46.6923Z" fill="#371A45"/>
</g>
<path d="M44.4906 47.5958C43.7038 47.5912 42.9178 47.5397 42.137 47.4414C41.6007 47.3763 41.1104 47.1041 40.7692 46.6821C40.428 46.26 40.2625 45.721 40.3075 45.1785C40.3525 44.636 40.6046 44.1322 41.0107 43.7732C41.4167 43.4142 41.9451 43.2279 42.4847 43.2536C44.5461 43.3512 46.222 43.2821 47.2069 43.0635C47.4317 43.013 47.9881 43.0065 48.3029 44.0281C48.6101 45.0232 48.5671 46.6983 47.4997 47.1338C46.6523 47.4796 45.5665 47.5958 44.4906 47.5958ZM42.3862 44.2036C42.0954 44.2039 41.8157 44.316 41.6042 44.517C41.3927 44.7181 41.2652 44.9929 41.2479 45.2854C41.2306 45.578 41.3247 45.8661 41.5111 46.0911C41.6974 46.3161 41.9619 46.4609 42.2505 46.4959C44.3828 46.7562 46.1209 46.6692 47.1452 46.2514C47.3754 46.1572 47.4635 45.772 47.4906 45.6107C47.5977 44.9767 47.4295 44.2555 47.282 44.0207C45.9187 44.2963 43.9088 44.2744 42.4405 44.2047C42.4221 44.2036 42.404 44.2036 42.3862 44.2036Z" fill="#371A45"/>
<path d="M63.3398 46.9685C62.6351 47.0541 61.7749 47.1272 60.9139 47.1189C60.8545 47.1189 60.7962 47.1189 60.7367 47.1163C60.6773 47.1138 60.6119 47.1135 60.5499 47.1109C60.5077 47.1109 60.4663 47.1081 60.4258 47.1064L60.2795 47.0981C60.2175 47.0944 60.1555 47.0901 60.0943 47.0855H60.0898C60.0286 47.081 59.9666 47.0755 59.9055 47.0693C59.865 47.0656 59.8245 47.061 59.7851 47.0564C59.7509 47.0539 59.7166 47.0493 59.6835 47.0456C59.6305 47.0393 59.5773 47.0319 59.5263 47.0247C59.4754 47.0176 59.4281 47.0102 59.3805 47.0022C59.371 47.0016 59.3615 47.0001 59.3522 46.9976C59.2956 46.9894 59.239 46.9794 59.1849 46.9691C59.1308 46.9588 59.0745 46.9483 59.0204 46.9366L59.0071 46.9337C58.9765 46.9266 58.9459 46.9203 58.9162 46.9129C58.8865 46.9055 58.8497 46.8975 58.8165 46.8886C58.7152 46.8632 58.6153 46.8341 58.5184 46.803C58.466 46.7867 58.414 46.7688 58.3627 46.7505C58.3115 46.7322 58.2613 46.7126 58.2126 46.6934L58.2192 45.1744L58.2262 43.5293C58.6063 43.6103 58.9911 43.6668 59.3783 43.6985C60.5934 43.8101 62.0272 43.7793 63.0722 43.7305C63.0974 43.7305 63.1226 43.7285 63.1487 43.7285C63.5595 43.7292 63.9545 43.8879 64.2533 44.172C64.552 44.4562 64.732 44.8445 64.7566 45.2578C64.7811 45.6712 64.6484 46.0783 64.3854 46.3964C64.1224 46.7145 63.749 46.9195 63.3412 46.9697L63.3398 46.9685Z" fill="white"/>
<g opacity="0.25">
<path d="M63.3397 46.9685C62.635 47.0541 61.7749 47.1272 60.9139 47.1189C60.8547 47.1189 60.7961 47.1189 60.737 47.1163C60.6778 47.1138 60.6121 47.1135 60.5501 47.1109C60.5076 47.1109 60.4652 47.1081 60.4258 47.1064L60.2794 47.0981C60.2174 47.0944 60.1554 47.0901 60.0943 47.0855H60.0897C60.0286 47.081 59.9666 47.0755 59.9054 47.0693C59.8652 47.0655 59.8247 47.061 59.7851 47.0564C59.7508 47.0538 59.7169 47.0493 59.6834 47.0456C59.6305 47.0393 59.5776 47.0319 59.5263 47.0247C59.4751 47.0176 59.4283 47.0102 59.3808 47.0022C59.3712 47.0014 59.3618 46.9999 59.3525 46.9976C59.2958 46.9894 59.2392 46.9794 59.1854 46.9691C59.1316 46.9588 59.0747 46.9483 59.0209 46.9366L59.0073 46.9337C58.9768 46.9266 58.9462 46.9203 58.9165 46.9129C58.8867 46.9055 58.8502 46.8975 58.8168 46.8886C58.7152 46.8632 58.6155 46.8341 58.5184 46.803C58.4663 46.7867 58.4142 46.7688 58.3629 46.7505C58.3117 46.7322 58.2613 46.7125 58.2129 46.6934L58.2191 45.1741V45.0645C58.265 45.0837 58.3134 45.1028 58.3607 45.1199C58.408 45.137 58.464 45.1561 58.5161 45.1724C58.6132 45.2032 58.7129 45.2323 58.8145 45.258C58.8479 45.2669 58.8811 45.2751 58.9142 45.2823C58.9473 45.2894 58.9745 45.296 59.0051 45.3031L59.0187 45.306C59.0725 45.3178 59.1273 45.3286 59.1832 45.3385C59.2378 45.3493 59.2936 45.3593 59.3502 45.367C59.3595 45.3693 59.369 45.3708 59.3785 45.3713C59.4261 45.3796 59.4745 45.3867 59.524 45.3941C59.5736 45.4016 59.6282 45.4087 59.6812 45.415C59.7146 45.4187 59.7486 45.423 59.7828 45.4258C59.8225 45.4304 59.8629 45.435 59.9031 45.4384C59.9643 45.4449 60.0263 45.4504 60.0875 45.4549H60.092C60.1531 45.4592 60.2152 45.4638 60.2772 45.4675L60.4235 45.4758C60.464 45.4775 60.5054 45.4792 60.5478 45.48C60.6098 45.4829 60.6727 45.4846 60.7347 45.4855C60.7967 45.4863 60.8525 45.4883 60.9116 45.4883C61.7726 45.4966 62.6328 45.4241 63.3375 45.3379C63.5855 45.3081 63.8232 45.2203 64.0316 45.0816C64.24 44.9429 64.4135 44.757 64.5382 44.5389C64.6717 44.7717 64.7459 45.0343 64.7542 45.3031C64.7625 45.5719 64.7046 45.8385 64.5857 46.0793C64.4667 46.32 64.2905 46.5273 64.0727 46.6826C63.8549 46.8379 63.6023 46.9365 63.3375 46.9694L63.3397 46.9685Z" fill="#371A45"/>
</g>
<path d="M61.0419 47.5958C59.966 47.5958 58.8802 47.4796 58.0328 47.1338C56.9654 46.6983 56.9224 45.022 57.2293 44.0281C57.5444 43.0068 58.1008 43.0133 58.3256 43.0635C59.3094 43.2833 60.987 43.3512 63.0478 43.2536C63.5873 43.228 64.1156 43.4144 64.5216 43.7734C64.9276 44.1325 65.1796 44.6362 65.2246 45.1787C65.2696 45.7212 65.1041 46.2601 64.7629 46.6821C64.4217 47.1041 63.9314 47.3763 63.3952 47.4414C62.6145 47.5397 61.8287 47.5912 61.0419 47.5958ZM58.3873 46.2514C59.4116 46.6692 61.1498 46.7562 63.282 46.496C63.5742 46.4589 63.8409 46.3095 64.0264 46.0789C64.2118 45.8483 64.3017 45.5543 64.2772 45.2585C64.2526 44.9627 64.1156 44.6879 63.8947 44.4915C63.6739 44.2951 63.3863 44.1924 63.092 44.2047C61.6234 44.2741 59.6135 44.2963 58.2505 44.0207C58.103 44.2555 57.9349 44.9764 58.0419 45.6107C58.0702 45.772 58.1571 46.1572 58.3873 46.2514Z" fill="#371A45"/>
<path d="M58.7613 42.4825V47.5535C58.7599 48.0071 58.5805 48.4416 58.2621 48.7622C57.9438 49.0827 57.5126 49.2633 57.0626 49.2643H47.7984C47.3489 49.2627 46.9182 49.0819 46.6004 48.7614C46.2826 48.4409 46.1035 48.0067 46.1022 47.5535V42.4825C46.1036 42.0295 46.2827 41.5955 46.6005 41.2751C46.9183 40.9548 47.349 40.7742 47.7984 40.7729H57.0637C57.5136 40.7735 57.945 40.9537 58.2634 41.2741C58.5817 41.5946 58.7612 42.0291 58.7625 42.4825H58.7613Z" fill="white"/>
<g opacity="0.25">
<path d="M58.7613 42.4825V47.5538C58.7599 48.0073 58.5803 48.4417 58.262 48.7622C57.9437 49.0826 57.5125 49.2631 57.0626 49.264H47.7982C47.3488 49.2627 46.9182 49.0821 46.6004 48.7619C46.2827 48.4416 46.1036 48.0076 46.1022 47.5547V45.657C47.0949 47.602 50.4675 48.368 53.2421 48.0826C53.8621 48.0193 54.3052 47.4263 54.1574 46.8159C54.112 46.6276 54.0892 46.4346 54.0895 46.2408C54.0895 45.1347 54.8166 44.2381 55.7138 44.2381C56.581 44.2381 57.2911 45.0768 57.3369 46.1333C58.4485 44.6685 58.5088 42.7088 58.4154 41.4498C58.64 41.7464 58.7616 42.1093 58.7613 42.4825Z" fill="#371A45"/>
</g>
<path d="M56.7752 49.7397H48.0881C47.4363 49.739 46.8114 49.4777 46.3506 49.0132C45.8897 48.5486 45.6304 47.9188 45.6297 47.2619V42.7742C45.6304 42.1172 45.8897 41.4874 46.3506 41.0229C46.8114 40.5584 47.4363 40.2971 48.0881 40.2963H56.7752C57.427 40.2971 58.0518 40.5584 58.5126 41.0229C58.9735 41.4875 59.2327 42.1173 59.2333 42.7742V47.2625C59.2325 47.9193 58.9732 48.5489 58.5124 49.0133C58.0516 49.4778 57.4269 49.739 56.7752 49.7397ZM48.0881 41.248C47.6868 41.2485 47.3021 41.4094 47.0183 41.6954C46.7346 41.9814 46.5749 42.3691 46.5745 42.7736V47.2619C46.5749 47.6664 46.7346 48.0541 47.0183 48.3401C47.3021 48.6261 47.6868 48.787 48.0881 48.7875H56.7752C57.1765 48.7869 57.5611 48.626 57.8448 48.34C58.1285 48.054 58.2881 47.6663 58.2885 47.2619V42.7742C58.2881 42.3698 58.1285 41.982 57.8448 41.696C57.5611 41.41 57.1765 41.2491 56.7752 41.2486L48.0881 41.248Z" fill="#371A45"/>
<path d="M55.714 46.4931C56.5221 46.4931 57.1772 45.8328 57.1772 45.0183C57.1772 44.2038 56.5221 43.5435 55.714 43.5435C54.9059 43.5435 54.2509 44.2038 54.2509 45.0183C54.2509 45.8328 54.9059 46.4931 55.714 46.4931Z" fill="#22A7F0"/>
<path d="M57.1772 45.0186C57.1775 45.0974 57.1712 45.1761 57.1583 45.2538C57.1025 44.9083 56.9266 44.594 56.6621 44.3672C56.3976 44.1405 56.0616 44.0159 55.7143 44.0159C55.367 44.0159 55.0311 44.1405 54.7665 44.3672C54.502 44.594 54.3261 44.9083 54.2704 45.2538C54.2575 45.1761 54.2511 45.0974 54.2514 45.0186C54.2568 44.631 54.4133 44.2611 54.6871 43.9889C54.961 43.7167 55.3301 43.5641 55.7147 43.5641C56.0994 43.5641 56.4685 43.7167 56.7424 43.9889C57.0162 44.2611 57.1727 44.631 57.1781 45.0186H57.1772Z" fill="white"/>
<path d="M57.1767 45.018C57.1767 45.4091 57.0226 45.7841 56.7482 46.0607C56.4739 46.3372 56.1018 46.4925 55.7138 46.4925C55.3258 46.4925 54.9537 46.3372 54.6793 46.0607C54.405 45.7841 54.2509 45.4091 54.2509 45.018C54.2504 44.8353 54.2845 44.6542 54.3514 44.4844C54.4581 44.7612 54.6453 44.999 54.8884 45.1667C55.1315 45.3344 55.4193 45.4241 55.7139 45.4241C56.0085 45.4241 56.2963 45.3344 56.5394 45.1667C56.7826 44.999 56.9697 44.7612 57.0765 44.4844C57.1431 44.6543 57.1771 44.8354 57.1767 45.018Z" fill="#2577EF"/>
<path d="M55.7141 46.8501C55.3546 46.8501 55.0032 46.7427 54.7044 46.5414C54.4055 46.3401 54.1726 46.054 54.035 45.7193C53.8975 45.3846 53.8615 45.0163 53.9316 44.661C54.0017 44.3056 54.1748 43.9792 54.429 43.7231C54.6831 43.4669 55.007 43.2924 55.3595 43.2217C55.712 43.1511 56.0775 43.1873 56.4095 43.326C56.7416 43.4646 57.0255 43.6994 57.2252 44.0006C57.4248 44.3019 57.5314 44.656 57.5314 45.0183C57.5309 45.504 57.3393 45.9696 56.9986 46.313C56.6578 46.6564 56.1959 46.8496 55.7141 46.8501ZM55.7141 43.9008C55.4947 43.9008 55.2802 43.9663 55.0978 44.0891C54.9154 44.2119 54.7732 44.3865 54.6892 44.5907C54.6053 44.795 54.5833 45.0197 54.6261 45.2366C54.6688 45.4535 54.7745 45.6527 54.9296 45.809C55.0847 45.9653 55.2823 46.0718 55.4975 46.1149C55.7126 46.1581 55.9356 46.1359 56.1383 46.0513C56.341 45.9666 56.5142 45.8233 56.636 45.6394C56.7578 45.4556 56.8228 45.2394 56.8228 45.0183C56.8224 44.7221 56.7055 44.438 56.4976 44.2285C56.2898 44.0191 56.008 43.9012 55.7141 43.9008Z" fill="#371A45"/>
<path d="M51.5677 49.7397C51.5056 49.7397 51.4442 49.7274 51.3869 49.7035C51.3296 49.6795 51.2775 49.6444 51.2336 49.6002C51.1898 49.556 51.155 49.5035 51.1313 49.4457C51.1076 49.3879 51.0954 49.326 51.0954 49.2635V46.8164C51.0947 46.5273 51.0277 46.2422 50.8996 45.9834C50.7715 45.7247 50.5858 45.4993 50.357 45.3248C50.0116 45.0614 49.7313 44.721 49.538 44.3303C49.3446 43.9397 49.2434 43.5093 49.2424 43.0727V40.772C49.2424 40.6458 49.2921 40.5247 49.3807 40.4355C49.4693 40.3462 49.5894 40.296 49.7146 40.296C49.8399 40.296 49.96 40.3462 50.0486 40.4355C50.1371 40.5247 50.1869 40.6458 50.1869 40.772V43.0727C50.1876 43.3618 50.2546 43.6469 50.3827 43.9057C50.5108 44.1644 50.6965 44.3898 50.9253 44.5643C51.2707 44.8277 51.551 45.1681 51.7443 45.5588C51.9377 45.9494 52.0389 46.3798 52.0399 46.8164V49.2635C52.04 49.326 52.0278 49.3879 52.0041 49.4457C51.9804 49.5035 51.9456 49.556 51.9017 49.6002C51.8579 49.6444 51.8058 49.6795 51.7485 49.7035C51.6912 49.7274 51.6297 49.7397 51.5677 49.7397Z" fill="#371A45"/>
<g opacity="0.25">
<path d="M64.1404 28.4975C61.1905 32.2358 56.7959 34.4551 52.0226 34.1035C47.8681 33.7976 44.2242 31.6026 41.7084 28.3123C42.5609 27.6555 43.6042 27.2998 44.6772 27.3001H60.9454C62.1183 27.3004 63.2522 27.7254 64.1404 28.4975Z" fill="#371A45"/>
</g>
<path d="M67.8488 22.039C67.8076 22.0359 67.7674 22.0247 67.7306 22.0059C67.6937 21.9871 67.6608 21.9612 67.6339 21.9297C67.6069 21.8981 67.5864 21.8615 67.5735 21.822C67.5606 21.7824 67.5555 21.7407 67.5586 21.6991L68.2367 12.5916C68.2431 12.508 68.282 12.4303 68.3451 12.3756C68.4081 12.3208 68.4901 12.2934 68.5731 12.2994C69.0053 12.3321 69.427 12.4503 69.814 12.6473C70.2009 12.8442 70.5456 13.1161 70.8283 13.4473C71.111 13.7786 71.3261 14.1627 71.4615 14.5778C71.5969 14.9929 71.6498 15.4308 71.6172 15.8665L71.3859 18.9724C71.3201 19.8518 70.9105 20.6687 70.2472 21.2438C69.5839 21.8188 68.7213 22.1048 67.8488 22.039Z" fill="white"/>
<path d="M68.1011 22.1343C68.0161 22.1343 67.9289 22.1309 67.8423 22.1243C67.7368 22.1162 67.6388 22.0662 67.5698 21.9853C67.5008 21.9044 67.4664 21.7992 67.4742 21.6929L68.1537 12.585C68.1618 12.4786 68.2114 12.3797 68.2917 12.3102C68.3721 12.2406 68.4765 12.206 68.5821 12.2141C69.0254 12.2476 69.4578 12.3688 69.8547 12.5708C70.2515 12.7727 70.605 13.0515 70.8949 13.3912C71.1849 13.7308 71.4056 14.1247 71.5445 14.5504C71.6834 14.976 71.7377 15.4251 71.7044 15.8719L71.4714 18.977C71.4075 19.8342 71.025 20.6355 70.4004 21.2208C69.7758 21.8061 68.9551 22.1322 68.1022 22.134L68.1011 22.1343ZM68.5501 12.385C68.4922 12.385 68.4365 12.4071 68.3941 12.4468C68.3517 12.4865 68.3257 12.5409 68.3214 12.599L67.6418 21.7068C67.6396 21.7372 67.6432 21.7676 67.6526 21.7965C67.6621 21.8254 67.677 21.8522 67.6967 21.8752C67.7164 21.8983 67.7403 21.9172 67.7673 21.9309C67.7942 21.9446 67.8235 21.9528 67.8536 21.9551C68.704 22.0193 69.5449 21.7404 70.1913 21.1798C70.8377 20.6191 71.2368 19.8227 71.3007 18.9656L71.532 15.8599C71.596 15.0029 71.3196 14.1554 70.7637 13.5038C70.2078 12.8521 69.4179 12.4497 68.5677 12.385C68.5617 12.385 68.5558 12.385 68.5501 12.385Z" fill="#371A45"/>
<g opacity="0.25">
<path d="M71.4952 17.5145L71.387 18.9699C71.3213 19.8497 70.9115 20.6673 70.2478 21.2427C69.5842 21.8181 68.721 22.1043 67.848 22.0384C67.7647 22.032 67.6874 21.9924 67.633 21.9286C67.5786 21.8647 67.5515 21.7817 67.5578 21.6977L67.7373 19.2764C67.7578 19.3339 67.7943 19.3842 67.8425 19.4213C67.8906 19.4584 67.9484 19.4807 68.0088 19.4855L68.2231 19.5012C68.9056 19.5534 69.5874 19.3901 70.1737 19.0341C70.76 18.6781 71.2219 18.147 71.4952 17.5145Z" fill="#371A45"/>
</g>
<path d="M68.1016 22.5247C68.0059 22.5247 67.9099 22.5213 67.8134 22.5139C67.6053 22.4981 67.4119 22.3997 67.2757 22.2402C67.1396 22.0807 67.0719 21.8733 67.0875 21.6635L67.767 12.5559C67.7826 12.3461 67.8803 12.1512 68.0385 12.014C68.1967 11.8768 68.4025 11.8085 68.6107 11.8242C69.6084 11.8998 70.5355 12.3717 71.188 13.1362C71.8406 13.9007 72.1651 14.8951 72.0903 15.9007L71.8573 19.0055C71.7861 19.9611 71.3596 20.8543 70.6632 21.5066C69.9668 22.1589 69.0518 22.5222 68.1011 22.5238L68.1016 22.5247ZM68.0416 21.5719C68.7642 21.5858 69.4647 21.3204 69.9992 20.83C70.5338 20.3397 70.8618 19.6618 70.9159 18.9353L71.1472 15.8297C71.2012 15.1032 70.9773 14.3835 70.5214 13.8182C70.0655 13.253 69.4122 12.885 68.6956 12.7899L68.0416 21.5719Z" fill="#371A45"/>
<path d="M38.748 10.0427C38.8312 10.0491 38.9085 10.0884 38.9629 10.1521C39.0173 10.2159 39.0444 10.2987 39.0382 10.3826L38.3601 19.4907C38.3538 19.5743 38.3148 19.652 38.2518 19.7067C38.1888 19.7615 38.1068 19.7889 38.0238 19.7829C37.5915 19.7502 37.1699 19.632 36.783 19.435C36.3961 19.238 36.0514 18.9661 35.7688 18.6349C35.4861 18.3036 35.271 17.9195 35.1356 17.5044C35.0002 17.0894 34.9473 16.6515 34.9799 16.2158L35.2112 13.1101C35.2769 12.2307 35.6863 11.4136 36.3496 10.8384C37.0128 10.2632 37.8755 9.97697 38.748 10.0427Z" fill="white"/>
<path d="M38.047 19.8694C38.0368 19.8694 38.0266 19.8694 38.0164 19.8694C37.5731 19.8359 37.1407 19.7148 36.7438 19.5128C36.347 19.3109 35.9935 19.0322 35.7035 18.6925C35.4136 18.3529 35.1929 17.959 35.054 17.5333C34.9151 17.1077 34.8608 16.6586 34.8941 16.2118L35.1254 13.1061C35.1927 12.2037 35.6128 11.3652 36.2933 10.775C36.9739 10.1848 37.8592 9.89117 38.7545 9.9588C38.86 9.96711 38.958 10.0172 39.027 10.0981C39.0959 10.179 39.1303 10.2842 39.1226 10.3906L38.4431 19.4981C38.4356 19.5991 38.3907 19.6935 38.3172 19.7626C38.2438 19.8316 38.1472 19.8703 38.0467 19.8708L38.047 19.8694ZM38.496 10.1189C37.6858 10.1203 36.9059 10.4298 36.3123 10.9857C35.7187 11.5416 35.3552 12.3029 35.2945 13.1173L35.0634 16.2232C34.9996 17.0803 35.2762 17.9279 35.8324 18.5795C36.3886 19.231 37.1788 19.6332 38.0292 19.6976C38.0899 19.7019 38.1499 19.682 38.1962 19.6422C38.2191 19.6224 38.2378 19.5982 38.2514 19.5711C38.265 19.544 38.2732 19.5144 38.2755 19.4841L38.9536 10.3763C38.958 10.3151 38.9382 10.2546 38.8985 10.2081C38.8589 10.1615 38.8025 10.1328 38.7418 10.128C38.6597 10.1217 38.5776 10.1189 38.496 10.1189Z" fill="#371A45"/>
<g opacity="0.25">
<path d="M38.549 16.9637L38.3604 19.4907C38.3539 19.5743 38.3149 19.6519 38.2518 19.7066C38.1887 19.7614 38.1068 19.7888 38.0238 19.7829C37.5915 19.7503 37.1698 19.6322 36.7828 19.4352C36.3959 19.2383 36.0512 18.9664 35.7686 18.6351C35.4859 18.3038 35.2709 17.9196 35.1356 17.5045C35.0004 17.0894 34.9477 16.6515 34.9805 16.2158L35.0779 14.9071C35.2957 15.5076 35.6807 16.0322 36.1867 16.4179C36.6927 16.8037 37.2983 17.0343 37.9309 17.0822L38.2605 17.1073C38.3169 17.1113 38.3733 17.1002 38.424 17.0749C38.4748 17.0497 38.5179 17.0113 38.549 16.9637Z" fill="#371A45"/>
</g>
<path d="M38.0475 20.2612C38.0274 20.2612 38.0073 20.2612 37.9872 20.2589C37.493 20.2215 37.011 20.0864 36.5686 19.8611C36.1262 19.6359 35.7322 19.325 35.4091 18.9463C35.0859 18.5675 34.84 18.1283 34.6853 17.6537C34.5306 17.1792 34.4703 16.6785 34.5076 16.1804L34.7395 13.0753C34.8952 10.9844 36.7103 9.41118 38.7839 9.56814C38.992 9.58404 39.1852 9.6825 39.3213 9.84189C39.4573 10.0013 39.525 10.2086 39.5096 10.4182L38.8301 19.5261C38.8156 19.7255 38.7269 19.912 38.5818 20.0483C38.4367 20.1846 38.2459 20.2606 38.0475 20.2612ZM38.4966 10.5107C37.7839 10.512 37.098 10.7843 36.576 11.2733C36.054 11.7623 35.7343 12.4318 35.6809 13.1481L35.4496 16.2537C35.3961 16.9798 35.6203 17.699 36.0762 18.2637C36.532 18.8284 37.185 19.196 37.9012 19.2909L38.5549 10.509L38.4966 10.5107Z" fill="#371A45"/>
<path d="M53.3004 31.6048C61.8284 31.6048 68.7418 24.6367 68.7418 16.0411C68.7418 7.44553 61.8284 0.477417 53.3004 0.477417C44.7724 0.477417 37.859 7.44553 37.859 16.0411C37.859 24.6367 44.7724 31.6048 53.3004 31.6048Z" fill="white"/>
<path d="M53.333 31.6936C52.5666 31.6935 51.8012 31.6368 51.0431 31.5241C46.9397 30.9166 43.3171 28.7346 40.842 25.3804C38.367 22.0262 37.3358 17.9018 37.9389 13.7659C38.5419 9.63006 40.7064 5.97877 44.0343 3.48408C47.3621 0.989391 51.4547 -0.0493505 55.5575 0.557914C59.6603 1.16518 63.2837 3.34768 65.7585 6.70161C68.2333 10.0555 69.2647 14.1806 68.6617 18.3161C68.0586 22.4517 65.8941 26.1032 62.5663 28.5977C59.8596 30.6272 56.6461 31.6936 53.333 31.6936ZM53.2905 0.561338C45.8018 0.561338 39.2271 6.10576 38.1068 13.7907C37.5105 17.8812 38.5315 21.9608 40.9782 25.2785C43.425 28.5962 47.0088 30.7539 51.0677 31.3549C51.8102 31.4651 52.5598 31.5205 53.3103 31.5207C60.7987 31.5207 67.3735 25.9763 68.4938 18.2916C69.7248 9.84723 63.9106 1.96849 55.5329 0.727137C54.7904 0.616951 54.041 0.561537 53.2905 0.561338Z" fill="#371A45"/>
<g opacity="0.25">
<path d="M68.7429 16.1518C68.7381 16.8726 68.6833 17.5922 68.5787 18.3052C67.3378 26.8092 59.4932 32.6901 51.0558 31.4413C42.6184 30.1926 36.784 22.2836 38.023 13.7793C38.0586 13.5347 38.1 13.291 38.1467 13.0516C38.0838 20.6995 43.6235 27.4162 51.3434 28.56C59.5374 29.7719 67.1716 24.2597 68.7429 16.1518Z" fill="#371A45"/>
</g>
<path d="M53.3106 32.0823C52.5329 32.0824 51.7562 32.0252 50.9867 31.9111C46.7812 31.2884 43.0677 29.052 40.5312 25.6141C37.9946 22.1763 36.9374 17.9485 37.5555 13.7097C38.8313 4.95886 46.9324 -1.11293 55.6138 0.171231C64.2953 1.45539 70.3208 9.62235 69.045 18.3726C67.8842 26.3364 61.0702 32.0823 53.3106 32.0823ZM53.2905 0.951999C45.991 0.951999 39.5824 6.35659 38.4901 13.8475C37.9089 17.8347 38.9029 21.8116 41.2891 25.0454C43.6753 28.2792 47.1679 30.3818 51.124 30.9685C51.8478 31.0758 52.5784 31.1298 53.31 31.13C60.6096 31.13 67.0181 25.7257 68.1104 18.2348C69.3092 10.0036 63.643 2.32319 55.4765 1.11295C54.7527 1.00577 54.0221 0.951981 53.2905 0.951999Z" fill="#371A45"/>
<path d="M68.4711 18.6916C68.077 21.7111 66.7387 24.3856 64.7729 26.4845C63.299 28.0583 57.776 30.4226 51.4377 29.6401C45.562 28.915 40.6339 25.0531 39.6138 23.1488C38.2548 20.609 37.6466 17.6766 38.0408 14.6571C39.0838 6.66678 46.3276 4.25685 54.7305 5.37093C63.1333 6.485 69.5141 10.7013 68.4711 18.6916Z" fill="#371A45"/>
<path d="M53.9072 30.0042C53.0736 30.0048 52.2408 29.9543 51.4134 29.853C45.4737 29.1201 40.4539 25.1655 39.4284 23.2513C37.9966 20.5779 37.4445 17.5967 37.8318 14.6297C38.3344 10.7772 40.2531 8.01115 43.5346 6.40766C46.4162 4.99937 50.2982 4.5676 54.7596 5.15917C59.2211 5.75074 62.8604 7.17958 65.2829 9.29102C68.0411 11.6955 69.1846 14.8677 68.6818 18.7202C68.2945 21.688 66.9961 24.423 64.9273 26.632C63.4825 28.1747 58.9955 30.0042 53.9072 30.0042ZM51.0193 5.32925C48.188 5.32925 45.7053 5.82237 43.7197 6.79291C40.5751 8.32933 38.7367 10.985 38.2529 14.6856C37.8771 17.5627 38.4131 20.4544 39.8021 23.0469C40.7911 24.8935 45.6682 28.7121 51.4649 29.4272C57.8845 30.2205 63.2817 27.7664 64.6184 26.3395C66.6257 24.1953 67.8851 21.5413 68.2616 18.6631L68.472 18.6916L68.2616 18.6631C68.7446 14.9624 67.6492 11.9178 65.0057 9.61378C62.6464 7.55713 59.0844 6.1631 54.7053 5.58266C53.4834 5.41732 52.2521 5.33267 51.0193 5.32925Z" fill="#371A45"/>
<g opacity="0.5">
<path d="M65.5495 17.5568C66.0099 16.1081 65.5388 14.6611 64.4973 14.3249C63.4558 13.9886 62.2383 14.8905 61.7779 16.3392C61.3175 17.7879 61.7886 19.2348 62.8301 19.5711C63.8717 19.9073 65.0892 19.0055 65.5495 17.5568Z" fill="white"/>
</g>
<g opacity="0.5">
<path d="M61.5298 22.5149C61.8303 21.8858 61.6396 21.1651 61.104 20.9051C60.5684 20.6452 59.8905 20.9444 59.59 21.5735C59.2895 22.2026 59.4801 22.9233 60.0158 23.1832C60.5514 23.4432 61.2293 23.1439 61.5298 22.5149Z" fill="white"/>
</g>
<g opacity="0.35">
<path d="M66.485 10.844C68.1116 12.8795 68.8896 15.4809 68.4711 18.6916C68.077 21.7117 66.7381 24.3862 64.7732 26.4853C63.299 28.0588 57.7755 30.4234 51.438 29.6409C49.2013 29.3655 47.1011 28.6344 45.3018 27.729C53.1116 28.522 59.8432 25.6147 61.671 23.663C64.1662 20.9988 65.8647 17.6041 66.3644 13.7724C66.4947 12.8022 66.535 11.8218 66.485 10.844Z" fill="#111A28"/>
</g>
<path d="M67.7661 11.8026L67.7285 11.7615L67.7001 11.7104C65.6019 7.73349 60.9003 4.98768 54.8007 4.17866C48.6693 3.36735 43.4176 4.86012 40.3969 8.27855L40.3559 8.31907C40.2731 8.39065 40.1663 8.42743 40.0574 8.42178C39.9485 8.41612 39.846 8.36848 39.771 8.28871C39.696 8.20895 39.6543 8.10317 39.6545 7.99327C39.6548 7.88338 39.697 7.7778 39.7723 7.69839C42.9841 4.07221 48.5011 2.48014 54.9116 3.32997C61.2868 4.17523 66.2214 7.08342 68.4504 11.3083L68.0773 11.5112L67.7661 11.8026ZM40.0637 7.97862L40.0778 7.99518L40.0637 7.97862Z" fill="#371A45"/>
<g opacity="0.5">
<path d="M40.8387 19.8642C40.8387 19.8642 39.4111 11.6559 44.0371 9.07474C48.6631 6.49358 54.7246 7.30888 54.5315 7.68214C54.5315 7.68214 47.6042 8.43009 44.2795 13.4315C41.7155 17.2865 40.8387 19.8642 40.8387 19.8642Z" fill="white"/>
</g>
<path d="M52.5931 58.1435C52.5931 58.1435 43.2956 59.2054 39.1631 55.6266C33.517 50.7368 38.3581 44.6094 42.5524 46.2417C46.2047 47.6628 47.7053 48.7815 54.1914 49.8519C59.6274 50.7496 64.2947 56.3734 60.3949 59.6377C57.6416 61.9421 52.5931 58.1435 52.5931 58.1435Z" fill="white"/>
<g opacity="0.25">
<path d="M60.3947 59.6375C57.6413 61.9424 52.5929 58.1438 52.5929 58.1438C52.5929 58.1438 43.2956 59.2054 39.1625 55.6269C37.5354 54.2169 36.7792 52.7042 36.6285 51.305C36.9287 51.6522 37.2539 51.9765 37.6016 52.2752C41.7353 55.8549 51.032 54.7925 51.032 54.7925C51.032 54.7925 56.0804 58.5919 58.8335 56.2872C59.9094 55.3858 60.3341 54.3051 60.2681 53.1924C62.0779 55.2531 62.5739 57.8137 60.3947 59.6375Z" fill="#371A45"/>
</g>
<path d="M58.194 60.8571C55.7531 60.8571 53.126 59.1081 52.4626 58.6358C51.0866 58.7711 42.8194 59.4209 38.8553 55.9876C35.5946 53.1624 35.6957 50.0297 36.878 48.0381C38.1396 45.9129 40.5977 44.9704 42.7225 45.7974C43.5334 46.113 44.2339 46.4115 44.9114 46.7003C47.2477 47.6959 49.2653 48.5552 54.2678 49.3827C57.9117 49.9849 61.372 52.705 62.1458 55.5752C62.6019 57.2675 62.0875 58.8404 60.6968 60.0044C59.9578 60.6223 59.0883 60.8571 58.194 60.8571ZM52.7254 57.6493L52.8754 57.762C52.923 57.7977 57.6586 61.3092 60.0932 59.2713C61.1974 58.3465 61.5937 57.1545 61.2342 55.8244C60.5498 53.2846 57.4227 50.8681 54.1152 50.3216C49.0014 49.4769 46.9355 48.5966 44.5436 47.5772C43.8729 47.2918 43.1792 46.9959 42.3822 46.6857C40.6874 46.026 38.7135 46.7999 37.6886 48.5269C36.7039 50.1858 36.6552 52.8269 39.4708 55.2653C43.4018 58.6698 52.4488 57.681 52.5399 57.6704L52.7254 57.6493Z" fill="#371A45"/>
<path d="M43.9086 58.1099C43.8296 58.1099 43.753 58.0833 43.6908 58.0343C43.6286 57.9853 43.5844 57.9168 43.5652 57.8396C43.5461 57.7625 43.5531 57.6811 43.5852 57.6084C43.6172 57.5357 43.6724 57.4758 43.7421 57.4384C47.5878 55.3721 46.5009 48.1328 46.4884 48.0598C46.4738 47.9663 46.4966 47.8708 46.5518 47.7943C46.607 47.7177 46.6901 47.6664 46.7829 47.6517C46.8756 47.6369 46.9703 47.6599 47.0463 47.7156C47.1222 47.7712 47.1731 47.855 47.1877 47.9485C47.2376 48.2664 48.3601 55.7653 44.0733 58.0679C44.0227 58.0953 43.9661 58.1097 43.9086 58.1099Z" fill="#371A45"/>
<path d="M53.724 58.1435C53.724 58.1435 63.0212 59.2054 67.154 55.6266C72.7998 50.7368 67.9587 44.6094 63.7644 46.2417C60.1121 47.6628 58.6116 48.7815 52.1254 49.8519C46.6894 50.7496 42.0221 56.3734 45.9221 59.6377C48.6753 61.9421 53.724 58.1435 53.724 58.1435Z" fill="white"/>
<g opacity="0.25">
<path d="M67.1537 55.6269C63.0215 59.2054 53.7242 58.1439 53.7242 58.1439C53.7242 58.1439 48.675 61.9424 45.923 59.6375C44.5855 58.5177 44.2557 57.1194 44.6206 55.7308C44.8188 56.4091 45.0153 57.4524 45.7166 58.0009C47.8545 59.6737 50.2183 58.9335 51.7016 57.6082C52.8264 56.6026 52.643 55.7787 53.3652 55.3695C54.175 54.9106 55.3245 56.6077 57.8539 56.7393C62.6124 56.989 65.8582 55.5693 67.3893 53.9915C68.5155 52.8271 69.2874 51.3622 69.6138 49.7697C69.9858 51.5416 69.3992 53.6818 67.1537 55.6269Z" fill="#371A45"/>
</g>
<path d="M48.1229 60.8571C47.2285 60.8571 46.3593 60.6225 45.6203 60.0039C44.2296 58.8398 43.7149 57.2669 44.171 55.5747C44.9448 52.7041 48.4054 49.984 52.049 49.3822C57.0515 48.5546 59.0705 47.6962 61.4054 46.6997C62.083 46.4109 62.7837 46.1124 63.5943 45.7968C65.7194 44.9692 68.1775 45.9109 69.4391 48.0375C70.6212 50.0291 70.7225 53.163 67.4618 55.987C63.498 59.4203 55.2307 58.7705 53.8542 58.6352C53.19 59.1081 50.5637 60.8571 48.1229 60.8571ZM65.1843 46.452C64.757 46.4515 64.3333 46.5307 63.9346 46.6857C63.1379 46.9959 62.4442 47.2916 61.7735 47.5772C59.3814 48.5965 57.3157 49.4769 52.2019 50.3216C48.8944 50.8681 45.7673 53.2852 45.0827 55.8244C44.7242 57.1545 45.1189 58.3464 46.2237 59.2713C48.6585 61.3089 53.3941 57.7977 53.4417 57.762L53.5912 57.6496L53.7769 57.6704C53.8681 57.681 62.9187 58.6666 66.846 55.2653C69.6617 52.8269 69.613 50.1858 68.6297 48.5269C67.8491 47.2142 66.5212 46.452 65.1843 46.452Z" fill="#371A45"/>
<path d="M62.4083 58.1099C62.3503 58.1099 62.2932 58.0955 62.2421 58.0679C57.9561 55.7653 59.0787 48.2664 59.1277 47.9485C59.1342 47.9016 59.1499 47.8564 59.1739 47.8157C59.1979 47.775 59.2298 47.7395 59.2675 47.7113C59.3053 47.6831 59.3483 47.6627 59.3939 47.6515C59.4395 47.6402 59.487 47.6382 59.5334 47.6456C59.5798 47.653 59.6243 47.6696 59.6643 47.6945C59.7043 47.7194 59.7389 47.7521 59.7662 47.7907C59.7935 47.8292 59.8129 47.8729 59.8233 47.9191C59.8337 47.9653 59.8349 48.0131 59.8267 48.0598C59.8154 48.1325 58.7327 55.3746 62.573 57.4384C62.6427 57.4758 62.6979 57.5357 62.73 57.6084C62.762 57.6812 62.769 57.7626 62.7498 57.8398C62.7307 57.917 62.6864 57.9855 62.6242 58.0344C62.5619 58.0834 62.4852 58.1099 62.4063 58.1099H62.4083Z" fill="#371A45"/>
</svg>
