<svg width="77" height="94" viewBox="0 0 77 94" fill="none" xmlns="http://www.w3.org/2000/svg">
<g filter="url(#filter0_d_2965_9243)">
<path d="M43.7915 36.3239L44.5548 39.0553L44.9431 40.4484L51.645 64.4426C51.645 64.4426 53.2565 63.8932 55.3584 62.9832C55.7695 62.8051 56.1996 62.6134 56.6398 62.4093C59.9216 60.8899 63.776 58.6842 64.7146 56.3825C66.1172 52.9413 61.9448 40.0862 58.0494 35.7915C56.2645 33.8229 51.0469 34.5549 47.4428 35.3614C47.04 35.4523 46.6571 35.5431 46.3021 35.631C44.8034 36.0007 43.7915 36.3239 43.7915 36.3239Z" fill="white"/>
<g opacity="0.35">
<path d="M44.5547 39.0553L44.943 40.4484L50.2643 59.5001L51.6448 64.4426L51.7421 64.4087C51.76 64.402 51.7819 64.3945 51.8046 64.3866L51.8634 64.3654C51.8792 64.3605 51.8937 64.3545 51.9104 64.3496C51.9161 64.3469 51.9237 64.3454 51.9295 64.3427C51.9598 64.3321 51.9901 64.3209 52.0244 64.3081C52.0321 64.306 52.0397 64.3034 52.0471 64.3003L52.1347 64.2685C52.1768 64.2539 52.2199 64.2382 52.2654 64.2206C52.2975 64.2082 52.3324 64.1964 52.3669 64.1831L52.476 64.1428C52.5227 64.1255 52.5715 64.1067 52.6219 64.0886C52.7234 64.0498 52.8313 64.0098 52.9444 63.9674C53.045 63.9302 53.1499 63.8893 53.2597 63.8463C53.3858 63.7969 53.5182 63.7457 53.6537 63.6912C54.1594 63.4901 54.7366 63.2536 55.3568 62.985C55.4781 62.9329 55.5993 62.8787 55.7239 62.8245C55.81 62.7869 55.8985 62.7473 55.9867 62.7076C56.1989 62.6122 56.4187 62.5131 56.6382 62.4111C59.9212 60.8914 63.7744 58.686 64.7117 56.3844C65.8676 53.5512 63.2436 44.334 60.104 38.7694C62.1274 43.8609 63.4037 49.6196 62.5324 51.7553C62.1017 52.811 58.293 50.8722 57.7853 49.1926C56.4754 44.8618 53.942 39.5695 48.8881 37.6062C48.7589 37.5514 46.5448 38.6156 44.5547 39.0553Z" fill="#371A45"/>
</g>
<path d="M51.2945 65.1052L43.1619 35.9847L43.6348 35.8333C43.753 35.7957 46.5661 34.9029 49.7779 34.3796C54.2235 33.6546 57.1348 34.0125 58.432 35.4429C62.4965 39.9251 66.6662 52.9585 65.192 56.5752C63.4171 60.9295 52.284 64.7676 51.8108 64.9287L51.2945 65.1052ZM44.4229 36.6676L51.992 63.7703C54.2029 62.9626 62.8381 59.6185 64.2371 56.1863C64.8325 54.726 64.2992 50.947 62.8787 46.5633C61.4237 42.0687 59.4257 38.0725 57.6677 36.1346C55.6346 33.8929 47.8311 35.644 44.4229 36.6679V36.6676Z" fill="#371A45"/>
<path d="M62.3399 46.4043L57.8107 48.2801C57.614 48.3612 57.4499 48.5053 57.3441 48.6897C57.2383 48.8741 57.1969 49.0884 57.2262 49.2989C57.4481 50.8846 58.1517 54.521 59.9888 55.1939C61.5133 55.7523 63.4403 54.9943 64.2703 53.6427C65.1988 52.1309 64.197 48.6672 63.618 46.98C63.5754 46.8558 63.5077 46.7417 63.4193 46.6447C63.3308 46.5477 63.2234 46.4698 63.1036 46.4159C62.9839 46.3619 62.8543 46.333 62.723 46.3311C62.5916 46.3291 62.4613 46.354 62.3399 46.4043Z" fill="white"/>
<g opacity="0.35">
<path d="M57.2266 49.2992C57.4479 50.8849 58.1521 54.5209 59.9891 55.1936C61.5139 55.7523 63.4403 54.9943 64.271 53.6424C64.8415 52.712 64.6823 51.0439 64.3404 49.5051C64.3764 50.3183 64.247 51.0306 63.9693 51.5618C62.3772 54.6036 59.7472 52.5006 59.7472 52.5006C59.7472 52.5006 59.6584 53.2508 59.4289 53.3671C58.4688 53.8535 57.6364 50.6242 57.2445 48.9434C57.2156 49.0597 57.2096 49.1805 57.2266 49.2992Z" fill="#371A45"/>
</g>
<path d="M61.068 55.8934C60.6396 55.8958 60.2142 55.8227 59.8112 55.6775C57.7825 54.9343 57.0007 51.4073 56.7155 49.3704C56.6705 49.0468 56.7342 48.7175 56.8967 48.4341C57.0592 48.1507 57.3113 47.9292 57.6134 47.8043L62.1429 45.9285C62.3293 45.8511 62.5295 45.8127 62.7313 45.8157C62.9331 45.8187 63.1321 45.863 63.3161 45.9458C63.5001 46.0287 63.6651 46.1483 63.8009 46.2974C63.9368 46.4464 64.0407 46.6218 64.1061 46.8125C64.9182 49.178 65.6824 52.3301 64.7105 53.9119C63.9551 55.1412 62.4861 55.8934 61.068 55.8934ZM62.7089 46.8458C62.6501 46.8458 62.5919 46.8574 62.5376 46.88L58.0084 48.7556C57.9172 48.793 57.8411 48.8596 57.792 48.945C57.7429 49.0303 57.7236 49.1296 57.7371 49.2271C58.1615 52.2586 59.0709 54.3083 60.1664 54.7087C61.4248 55.1696 63.103 54.5573 63.8314 53.3719C64.4074 52.4331 64.1464 50.1051 63.1306 47.1456C63.1008 47.0575 63.0442 46.9808 62.9686 46.9265C62.893 46.8722 62.8023 46.8429 62.7092 46.8428L62.7089 46.8458Z" fill="#371A45"/>
<path d="M62.4418 55.5385C62.3511 55.52 62.2619 55.495 62.1748 55.4637C62.0968 55.4358 62.0205 55.4065 61.9477 55.3728C61.8028 55.3092 61.6624 55.2356 61.5275 55.1527C61.2636 54.9924 61.0185 54.803 60.797 54.5879C60.3662 54.1718 60.0106 53.6845 59.746 53.1475C59.6168 52.8863 59.5033 52.6177 59.4059 52.3431C59.3007 52.0706 59.2273 51.8019 59.1473 51.5276C59.0673 51.2532 59.0039 50.9764 58.9509 50.695C58.9254 50.5542 58.9014 50.4128 58.8848 50.2692C58.8656 50.1211 58.8575 49.9718 58.8608 49.8225C58.8602 49.7864 58.874 49.7515 58.8992 49.7255C58.9243 49.6995 58.9588 49.6846 58.995 49.684C59.0311 49.6834 59.0661 49.6971 59.0921 49.7223C59.1181 49.7474 59.133 49.7818 59.1336 49.818V49.8325C59.145 49.9626 59.1653 50.0917 59.1943 50.2189C59.2225 50.3513 59.2579 50.483 59.2946 50.6145C59.3707 50.8767 59.4601 51.1366 59.559 51.3931C59.6578 51.6496 59.7593 51.9098 59.8806 52.1502C59.9936 52.3934 60.1209 52.6296 60.2619 52.8577C60.5354 53.3033 60.8842 53.6982 61.2926 54.0249C61.4888 54.1825 61.7024 54.3172 61.9292 54.4264C62.0383 54.4802 62.151 54.5262 62.2666 54.5639C62.3233 54.5839 62.3794 54.5991 62.4348 54.6133C62.4808 54.625 62.5275 54.6337 62.5746 54.6393C62.6377 54.6413 62.6998 54.6563 62.7568 54.6835C62.8139 54.7106 62.8647 54.7492 62.9061 54.7969C62.9475 54.8445 62.9785 54.9003 62.9973 54.9605C63.0161 55.0208 63.0221 55.0843 63.0152 55.147C63.0082 55.2097 62.9883 55.2703 62.9567 55.325C62.9251 55.3797 62.8826 55.4272 62.8317 55.4646C62.7808 55.5021 62.7228 55.5286 62.6611 55.5425C62.5995 55.5564 62.5357 55.5574 62.4736 55.5455L62.4418 55.5385Z" fill="#371A45"/>
<path d="M50.8013 37.499C51.3485 37.2318 51.8966 36.9823 52.4513 36.7388C53.0061 36.4953 53.565 36.2621 54.1325 36.0422C54.7 35.8224 55.272 35.614 55.8604 35.4335C56.4488 35.253 57.0466 35.0886 57.6853 34.9908C57.8206 34.9701 57.9586 35.0039 58.0688 35.0849C58.1791 35.1658 58.2527 35.2872 58.2734 35.4223C58.2941 35.5575 58.2602 35.6953 58.1792 35.8055C58.0982 35.9156 57.9767 35.9892 57.8415 36.0098C57.8299 36.0098 57.8184 36.0129 57.8069 36.0138H57.8017C57.2458 36.0592 56.6707 36.1734 56.1002 36.306C55.5297 36.4387 54.9577 36.604 54.3899 36.7788C53.8221 36.9535 53.2565 37.1452 52.6941 37.346C52.1318 37.5468 51.5704 37.7582 51.0205 37.982H51.0178C50.9541 38.0069 50.8833 38.0063 50.82 37.9804C50.7568 37.9545 50.706 37.9053 50.6781 37.8429C50.6502 37.7805 50.6475 37.7098 50.6705 37.6455C50.6934 37.5812 50.7403 37.5282 50.8013 37.4974V37.499Z" fill="#371A45"/>
<path d="M24.8359 39.1089C25.4058 40.3912 26.2233 41.6622 26.4828 42.3385L25.1438 44.6962L23.6263 47.3679C22.8618 47.4559 22.1267 47.5214 21.421 47.5642C8.78002 48.3446 5.06503 42.2446 4.64943 39.3266C3.82701 33.5507 7.12305 29.8865 8.64512 28.3953C8.89355 28.1548 9.15451 27.9275 9.42692 27.7145C14.4542 23.7577 27.6123 20.0545 31.4167 25.3277C33.5602 28.2956 32.0809 33.3808 25.4209 35.3881C23.7882 35.8787 24.1195 37.5017 24.8359 39.1089Z" fill="white"/>
<g opacity="0.35">
<path d="M25.714 40.84C26.0475 41.4496 26.3448 41.9784 26.4828 42.3385L23.6263 47.3658C9.20679 49.0342 5.08802 42.4057 4.64968 39.3251C4.51937 38.4285 4.48725 37.5204 4.55389 36.6168C4.57056 36.7918 4.88067 39.0859 4.92341 39.2625C5.72674 42.5799 13.3777 46.7241 15.5806 45.6144C16.1226 45.3419 16.5352 45.0148 16.7859 44.9297C17.2427 44.7743 17.4749 45.4264 18.184 45.3818C18.833 45.3413 18.8988 44.248 19.3993 44.3876C19.8012 44.4996 20.2951 45.4778 20.8847 45.4445L25.714 40.84Z" fill="#371A45"/>
</g>
<path d="M19.2304 48.1496C14.8873 48.1496 11.3293 47.284 8.61804 45.5617C5.69819 43.7077 4.38953 41.1622 4.13853 39.3987C3.53225 35.1428 4.9267 31.3169 8.28398 28.0276C11.4448 24.9304 19.8612 21.7347 25.9756 22.2562C28.7038 22.4888 30.6742 23.4207 31.8338 25.0261C32.8784 26.4737 33.1282 28.3353 32.5185 30.133C31.6419 32.7191 29.1082 34.8139 25.5678 35.8808C21.7683 37.0256 17.3388 38.9296 16.8098 40.0087C16.7853 40.0592 16.7795 40.0941 16.7828 40.1053C16.8319 40.2328 16.8282 40.3745 16.7726 40.4993C16.7171 40.6241 16.6141 40.7218 16.4865 40.7708C16.3589 40.8198 16.217 40.8161 16.0921 40.7606C15.9671 40.7051 15.8694 40.6023 15.8204 40.4747C15.7428 40.2727 15.6906 39.9496 15.8837 39.5556C16.9268 37.4284 24.9297 34.9965 25.2702 34.8938C28.4874 33.9247 30.7737 32.0685 31.5418 29.802C32.0432 28.3235 31.845 26.802 30.9962 25.6278C30.0225 24.2777 28.3034 23.4885 25.8873 23.2823C20.1362 22.7913 11.948 25.8792 9.00545 28.7638C5.89554 31.8111 4.60143 35.3408 5.1586 39.2546C5.63029 42.5656 10.0843 48.4158 23.5665 46.8561C23.7023 46.8404 23.8389 46.8792 23.946 46.9641C24.0532 47.0489 24.1222 47.1729 24.1379 47.3086C24.1536 47.4443 24.1148 47.5806 24.0298 47.6877C23.9449 47.7948 23.8209 47.8637 23.685 47.8794C22.2066 48.0547 20.7192 48.1449 19.2304 48.1496Z" fill="#371A45"/>
<path d="M71.9344 23.8135C71.7583 24.7444 71.3833 25.7541 70.7964 26.8117C66.5076 34.5389 51.46 40.6722 51.46 40.6722C51.46 40.6722 52.3143 43.35 54.1637 48.1129C54.2065 48.2241 54.2507 48.3355 54.2947 48.4497C54.8661 49.9122 55.5279 51.5627 56.2833 53.3843C57.1684 55.517 58.1831 57.8862 59.335 60.4632C62.1008 66.6592 64.4811 74.8295 64.4811 74.8295C64.4811 74.8295 71.0896 77.0727 70.9944 81.1508C70.9895 81.3753 70.9647 81.5989 70.9201 81.8189C70.1435 85.7396 55.0052 84.9192 53.7351 83.0606C52.2145 80.8377 51.6019 78.9137 50.1022 75.5327C48.9912 73.0299 47.8163 70.4448 45.2302 68.3485C42.3058 66.201 37.4974 66.1767 34.3899 66.4632C29.9216 66.876 29.1837 69.6344 28.622 71.6335C27.6838 74.9609 28.2458 81.8138 25.0668 83.7705C23.3292 84.8396 9.00761 86.494 8.17428 81.5827C8.00513 80.5833 8.18277 79.7489 8.55442 79.056C9.77608 76.7747 13.0973 76.0242 13.0973 76.0242C13.0973 76.0242 12.7653 70.6474 13.093 67.6898C13.9012 60.3805 23 57.0294 23 57.0294C23 57.0294 22.9678 56.3217 22.6244 54.0312C22.2 51.2017 21.7538 49.0188 21.4209 47.5633C21.102 46.1744 20.8853 45.4433 20.8853 45.4433L20.0447 42.9827L19.5696 41.5923L24.8358 39.1089L44.7594 29.7088C45.4072 29.3069 46.1263 28.8305 46.9011 28.3069C52.7978 24.3092 61.9535 17.4512 67.9954 18.3052C71.0747 18.7401 72.4874 20.8952 71.9344 23.8135Z" fill="white"/>
<g opacity="0.35">
<path d="M71.9344 23.8135C71.7582 24.7444 71.3832 25.7541 70.7964 26.8117C66.5075 34.5389 51.4599 40.6722 51.4599 40.6722C51.4599 40.6722 52.3142 43.35 54.1637 48.1129L53.2003 48.5533C52.089 45.1217 48.3855 46.9891 48.14 45.6017C48.0166 44.9015 50.2046 44.2174 49.5141 42.8973C48.8235 41.5771 45.4672 42.4012 45.5242 41.3355C45.5693 40.5178 47.3873 40.6444 48.6392 40.3133C49.8912 39.9823 47.966 38.1982 47.8326 37.6156C47.6222 36.7043 49.6405 37.4893 52.0611 37.3054C61.9932 36.5532 69.3274 27.5143 71.9344 23.8135Z" fill="#371A45"/>
</g>
<g opacity="0.35">
<path d="M70.9947 81.1499C70.9898 81.3744 70.965 81.598 70.9204 81.818C70.1438 85.7387 55.0055 84.9183 53.7354 83.0597C52.2148 80.8368 51.6022 78.9128 50.1026 75.5318C48.9915 73.029 47.8166 70.4439 45.2305 68.3476C42.3061 66.2001 37.4977 66.1758 34.3902 66.4623C29.9219 66.8751 29.184 69.6335 28.6223 71.6326C27.6838 74.9609 28.2458 81.8138 25.0668 83.7705C23.3292 84.8396 9.00761 86.494 8.17428 81.5827C8.00513 80.5833 8.18277 79.749 8.55442 79.056C8.71357 79.9912 9.43959 81.0188 11.5373 81.6842C16.2521 83.179 24.1922 83.4574 25.2608 80.0358C26.3294 76.6142 25.6303 73.4736 25.67 70.5535C25.7003 68.2328 25.4193 65.2182 26.9217 64.3012C27.7099 63.8197 28.6769 64.9069 29.9046 64.7534C31.1323 64.5998 31.1475 61.8075 32.0133 61.7679C33.0812 61.7179 32.9172 63.5971 35.1514 64.3466C37.1682 65.0235 42.3403 64.9142 44.1746 63.1013C45.9259 61.3702 45.3487 64.4481 45.8116 65.3391C46.7025 67.0571 50.2411 64.2006 50.7458 65.5056C50.9774 66.1062 50.1092 68.3194 50.5291 70.9109C51.0523 74.1514 53.0703 79.6935 57.0827 81.7596C59.9328 83.2254 67.9818 83.5443 70.9947 81.1499Z" fill="#371A45"/>
</g>
<path d="M16.8192 85.4425C14.3334 85.4425 11.8273 85.1563 10.0734 84.3623C8.67135 83.7263 7.86045 82.8204 7.66553 81.6669C7.06743 78.1402 10.3938 76.2492 12.5585 75.6296C12.487 74.2898 12.3018 70.1462 12.58 67.6313C13.3294 60.859 20.6869 57.4222 22.4539 56.6912C22.413 56.2796 22.3199 55.4798 22.1138 54.1069C21.2996 48.6829 20.3995 45.6217 20.3905 45.5914C20.3515 45.4605 20.3662 45.3195 20.4313 45.1994C20.4964 45.0793 20.6067 44.9899 20.7377 44.951C20.8687 44.9121 21.0099 44.9268 21.1301 44.9919C21.2503 45.0569 21.3397 45.167 21.3787 45.2979C21.4163 45.4239 22.3075 48.45 23.1336 53.954C23.4773 56.2445 23.5134 56.9758 23.5146 57.0058L23.5316 57.3817L23.1781 57.5134C23.0902 57.5458 14.3686 60.8448 13.605 67.7458C13.2864 70.6247 13.6083 75.9391 13.6116 75.9924L13.6386 76.4297L13.2109 76.5263C13.0002 76.5745 8.04657 77.7495 8.68196 81.4958C8.81685 82.2911 9.42829 82.9404 10.499 83.4249C14.6841 85.3199 23.6974 84.0082 24.7963 83.332C26.7888 82.1063 27.1772 78.5318 27.5197 75.3779C27.6773 73.9242 27.8265 72.5535 28.1242 71.4954L28.1387 71.4442C28.7041 69.4333 29.5589 66.3945 34.3416 65.9526C37.1593 65.6922 42.3603 65.6037 45.5347 67.9357L45.5541 67.9505C48.2794 70.1586 49.4977 72.9036 50.5723 75.3255C50.9616 76.2023 51.2959 76.993 51.5909 77.6905C52.4445 79.7078 53.0611 81.1654 54.1594 82.772C54.7884 83.6917 61.8737 84.7102 66.985 83.6666C69.0303 83.2484 70.248 82.557 70.4138 81.7199C71.2074 77.7141 64.3813 75.3407 64.314 75.317L64.0603 75.2307L63.9851 74.9736C63.9614 74.8921 61.5824 66.7664 58.862 60.6739C53.4391 48.5297 50.9916 40.9042 50.9676 40.8288L50.823 40.3745L51.2641 40.1946C51.4129 40.1341 66.1929 34.0401 70.3438 26.5609C71.5866 24.3198 71.8719 22.2874 71.1471 20.8331C70.599 19.7338 69.4841 19.036 67.9232 18.8155C62.6852 18.0763 54.8093 23.4958 49.0581 27.4531C47.58 28.4704 46.1838 29.4313 45.0312 30.1467C44.9151 30.2187 44.775 30.2417 44.6418 30.2106C44.5087 30.1795 44.3934 30.0968 44.3213 29.9807C44.2492 29.8646 44.2261 29.7247 44.2573 29.5917C44.2884 29.4587 44.3712 29.3435 44.4874 29.2714C45.6187 28.5691 47.0053 27.6151 48.4731 26.6048C54.364 22.5512 62.4327 16.999 68.0675 17.7955C69.9797 18.0657 71.3638 18.9573 72.0689 20.374C72.9496 22.1408 72.6567 24.5155 71.2444 27.0603C67.2833 34.1976 54.6772 39.8612 52.0962 40.9611C52.6964 42.7537 55.1461 49.8237 59.8027 60.2527C62.2799 65.8012 64.471 73.0027 64.8985 74.4321C66.2529 74.9409 72.3033 77.4788 71.4235 81.9183C71.1644 83.2257 69.7399 84.153 67.1899 84.6742C62.6937 85.5939 54.4634 85.0443 53.3061 83.3513C52.1487 81.6584 51.5175 80.1623 50.6384 78.0902C50.345 77.3964 50.0124 76.6099 49.6271 75.7416C48.6007 73.4288 47.4376 70.8079 44.9115 68.757C42.0104 66.634 37.1032 66.73 34.434 66.9766C30.3571 67.3533 29.6747 69.7755 29.1291 71.7213L29.1145 71.7728C28.8417 72.7486 28.6956 74.079 28.5425 75.4875C28.1745 78.8764 27.7574 82.7175 25.3347 84.2078C24.438 84.7608 20.653 85.4425 16.8192 85.4425Z" fill="#371A45"/>
<g opacity="0.35">
<path d="M46.901 27.8526C46.0637 34.9393 41.556 40.6119 35.5429 43.1341C35.2109 43.2728 34.8742 43.4025 34.5329 43.5232C32.7911 44.1331 30.9665 44.4744 29.1218 44.5354C28.1174 44.5703 27.1119 44.523 26.1153 44.3939C25.7885 44.3497 25.4641 44.3004 25.1452 44.2425C25.1361 44.2425 25.1285 44.2389 25.1194 44.2377C24.4504 44.1145 23.7885 43.9554 23.1366 43.761C22.0714 43.4433 21.0366 43.0314 20.0446 42.5302C18.1334 41.5636 16.397 40.2854 14.9066 38.7482C11.8711 35.621 9.94609 31.5854 9.42676 27.2602C14.454 23.3035 27.6122 19.6002 31.4166 24.8734C33.5601 27.8414 32.0808 32.9265 25.4208 34.9338C23.7896 35.4244 24.1209 37.0474 24.8372 38.6546L44.7593 29.2545C45.4071 28.8526 46.1262 28.3774 46.901 27.8526Z" fill="#371A45"/>
</g>
<path d="M12.9451 35.7246C15.4274 38.2194 18.5104 40.0342 21.8978 40.9942C22.61 41.196 23.3325 41.3597 24.0622 41.4845C24.4202 41.5469 24.7843 41.5984 25.1517 41.6438C26.242 41.7722 27.3408 41.8136 28.4377 41.7677C30.4581 41.6851 32.4551 41.3049 34.3641 40.6392C34.738 40.5072 35.1073 40.3659 35.4721 40.2152C42.1412 37.4424 47.1576 31.2509 48.0597 23.5718C49.3911 12.2616 41.2918 2.01588 29.9725 0.685156C27.8501 0.433909 25.7015 0.514217 23.6039 0.923196C23.3644 0.967715 23.1255 1.0195 22.8878 1.07614C22.2513 1.22433 21.6258 1.4014 21.0114 1.60733C18.1904 2.55588 15.6067 4.0996 13.4356 6.13373C13.0921 6.45455 12.7602 6.78718 12.4401 7.13162C9.45754 10.3382 7.5747 14.4105 7.06452 18.758C6.29818 25.2642 8.65328 31.4166 12.9451 35.7246Z" fill="white"/>
<path d="M27.5771 41.8409C26.7644 41.8408 25.9525 41.7932 25.1453 41.6985C24.7412 41.6489 24.3838 41.5968 24.054 41.5392C23.3225 41.4137 22.5982 41.2495 21.8841 41.0474C18.4889 40.0816 15.3983 38.2622 12.9075 35.763C8.41681 31.2563 6.26785 25.0563 7.01024 18.7516C7.52168 14.3926 9.40953 10.3096 12.4001 7.09461C12.7153 6.75542 13.0512 6.41865 13.3983 6.09369C15.5752 4.05417 18.1657 2.50624 20.9941 1.55488C21.6071 1.34985 22.24 1.17117 22.8754 1.02399C23.1285 0.963417 23.3638 0.913446 23.5938 0.870442C25.6972 0.460211 27.8517 0.379799 29.9798 0.632099C41.3124 1.96464 49.4478 12.2582 48.1152 23.579C47.2434 30.9989 42.4074 37.3926 35.4942 40.2661C35.1305 40.4175 34.7561 40.5598 34.3832 40.6901C32.4694 41.358 30.4672 41.7393 28.4417 41.8215C28.1535 41.8344 27.8653 41.8409 27.5771 41.8409ZM12.9836 35.6861C15.4613 38.1719 18.5355 39.9817 21.9126 40.9426C22.623 41.1438 23.3436 41.3072 24.0713 41.432C24.4008 41.4893 24.7564 41.5414 25.1584 41.5907C26.2458 41.7186 27.3416 41.7599 28.4356 41.7143C30.4508 41.6322 32.4427 41.2529 34.3468 40.5889C34.7179 40.4581 35.0895 40.3163 35.4521 40.1649C42.3288 37.3063 47.1394 30.9456 48.0067 23.5654C49.3323 12.3042 41.2397 2.06306 29.9668 0.739308C27.8496 0.48881 25.7063 0.569221 23.6138 0.977651C23.385 1.02005 23.1516 1.06851 22.8997 1.12908C22.2673 1.27565 21.6377 1.45312 21.0281 1.65725C18.2145 2.60365 15.6378 4.14388 13.4729 6.17334C13.1276 6.49648 12.7939 6.83144 12.4801 7.16881C9.50521 10.3668 7.62722 14.4282 7.11846 18.7643C6.38001 25.0357 8.51745 31.2033 12.9836 35.6861Z" fill="#371A45"/>
<g opacity="0.35">
<path d="M48.0596 23.5724C47.158 31.2509 42.1416 37.4429 35.4713 40.2158C35.1076 40.3668 34.7385 40.5082 34.364 40.6398C31.4089 41.6671 28.2589 42.0109 25.1515 41.6453C24.7844 41.5989 24.4207 41.5481 24.062 41.4866C23.3324 41.3608 22.61 41.1967 21.8976 40.995C18.51 40.0353 15.4266 38.2206 12.9444 35.7255C11.6054 34.3818 10.4571 32.8611 9.53162 31.2057C12.501 34.0498 16.2549 35.9402 20.3095 36.6334C20.6672 36.6958 21.0309 36.7467 21.399 36.7924C23.4088 37.0282 25.4424 36.969 27.4351 36.6167C28.5138 36.425 29.5755 36.1473 30.6099 35.7863C30.9846 35.6543 31.3541 35.513 31.7185 35.3623C38.3876 32.5907 43.4039 26.398 44.3064 18.7189C44.8198 14.4133 43.9548 10.0558 41.8355 6.27179C46.3453 10.5913 48.8459 16.8967 48.0596 23.5724Z" fill="#371A45"/>
</g>
<path d="M27.5774 42.2061C26.7504 42.206 25.9242 42.1576 25.1028 42.0614C24.6906 42.0105 24.3274 41.9575 23.99 41.8987C23.2462 41.7711 22.5096 41.6042 21.7835 41.3987C18.3278 40.416 15.1823 38.5642 12.6474 36.0204C8.07847 31.4347 5.89161 25.1248 6.64704 18.7089C7.16768 14.2731 9.08885 10.1182 12.1321 6.84659C12.4534 6.50104 12.795 6.15851 13.1482 5.8278C15.3634 3.75199 17.9997 2.17675 20.8783 1.20904C21.5024 1.00007 22.1466 0.81836 22.7935 0.668753C23.0503 0.608183 23.2913 0.55579 23.5274 0.511876C25.6664 0.0949647 27.8574 0.0132263 30.0216 0.269596C41.5546 1.62515 49.8336 12.101 48.4777 23.622C47.5904 31.1721 42.6692 37.6794 35.6339 40.6041C35.2629 40.7573 34.8831 40.9024 34.5041 41.0359C32.5557 41.7155 30.5173 42.1034 28.4553 42.1867C28.1637 42.1997 27.871 42.2061 27.5774 42.2061ZM13.2428 35.4283C15.676 37.8702 18.6953 39.6478 22.0123 40.5913C22.7107 40.7887 23.419 40.9492 24.1343 41.072C24.459 41.1283 24.8088 41.1795 25.2047 41.2279C26.2721 41.3533 27.3478 41.3938 28.4216 41.3491C30.4007 41.2686 32.3571 40.8961 34.2271 40.2437C34.5908 40.1156 34.9564 39.9756 35.3132 39.8285C42.0672 37.0207 46.7922 30.7732 47.6441 23.5236C48.9445 12.4623 40.9959 2.40439 29.9234 1.10304C27.8444 0.856239 25.7396 0.934402 23.6847 1.33472C23.4586 1.37682 23.23 1.42557 22.9854 1.48402C22.3615 1.62848 21.7425 1.80293 21.1447 2.00311C18.381 2.93307 15.8498 4.44611 13.7229 6.43956C13.3837 6.75725 13.056 7.08614 12.7477 7.41716C9.82583 10.5585 7.9813 14.5479 7.48159 18.807C6.75617 24.967 8.85602 31.0252 13.2428 35.4283Z" fill="#371A45"/>
<path d="M27.5774 42.3279C26.7457 42.3277 25.9147 42.2791 25.0886 42.1822C24.6736 42.131 24.3083 42.0777 23.9691 42.0187C23.2211 41.8904 22.4804 41.7226 21.7501 41.516C18.2746 40.5273 15.1108 38.6648 12.561 36.1065C7.96573 31.494 5.76615 25.1478 6.52612 18.6947C7.05009 14.2328 8.98247 10.0536 12.0433 6.76242C12.3664 6.41505 12.7102 6.0704 13.0652 5.73787C15.2928 3.65021 17.9441 2.06589 20.8389 1.09246C21.4667 0.882282 22.1148 0.698754 22.7654 0.54733C23.0233 0.48676 23.2664 0.433761 23.5047 0.389545C25.6558 -0.0292208 27.859 -0.110959 30.0353 0.147265C41.6349 1.51009 49.9619 12.0471 48.5981 23.6348C47.7056 31.2284 42.756 37.7733 35.6804 40.7155C35.3069 40.8697 34.9252 41.0157 34.5442 41.1498C32.5844 41.8344 30.534 42.2255 28.4595 42.3103C28.1667 42.3222 27.8727 42.3281 27.5774 42.3279ZM13.3298 35.3427C15.7484 37.7696 18.7494 39.5363 22.0463 40.4742C22.7399 40.6705 23.4435 40.8299 24.154 40.9517C24.4772 41.0081 24.8246 41.0587 25.2187 41.1071C28.2431 41.4656 31.3096 41.1314 34.1856 40.1298C34.5466 40.0026 34.9104 39.8633 35.265 39.7167C41.9781 36.926 46.675 30.716 47.5216 23.5103C48.816 12.5169 40.915 2.51858 29.9092 1.2248C27.8428 0.979782 25.7508 1.05774 23.7084 1.45588C23.4829 1.49798 23.2574 1.54673 23.0136 1.60428C22.3931 1.74783 21.7783 1.92136 21.1836 2.11912C18.4365 3.04349 15.9206 4.54721 13.8063 6.52831C13.4692 6.84418 13.1431 7.17096 12.8363 7.50016C9.93213 10.6224 8.09895 14.5877 7.60257 18.821C6.8814 24.9443 8.96883 30.9653 13.3292 35.3427H13.3298Z" fill="#371A45"/>
<path d="M17.1266 38.9608C31.1139 43.6417 45.1878 33.2224 41.8963 19.0015C39.657 9.32635 28.4462 4.04677 19.282 6.79028C12.6129 8.78728 6.97447 13.6517 7.2473 24.8401C7.2473 24.8401 8.13368 29.7745 10.3696 32.5746C12.6056 35.3748 15.2532 37.7231 15.2532 37.7231L17.1266 38.9608Z" fill="#371A45"/>
<path d="M41.8952 19.0015C45.1867 33.2221 31.1125 43.6429 17.1265 38.9611L16.7473 38.7097C30.1804 37.2258 40.6448 25.8483 37.5846 11.4081C39.6593 13.4487 41.2035 16.016 41.8952 19.0015Z" fill="#220F2D"/>
<path d="M27.5774 42.3279C26.7457 42.3278 25.9147 42.2791 25.0886 42.1822C24.6736 42.1311 24.3083 42.0778 23.9691 42.0187C23.2211 41.8904 22.4804 41.7226 21.7501 41.516C18.2745 40.5273 15.1108 38.6648 12.561 36.1065C7.96602 31.4941 5.76613 25.1478 6.52611 18.6947C6.96211 14.9689 8.38367 11.4264 10.6446 8.43144L10.6785 8.38631L10.721 8.34936C12.7781 6.55922 15.3745 5.1864 18.4383 4.26907C23.8948 2.63368 30.2378 3.44865 35.403 6.44625C40.1501 9.20219 43.395 13.4421 44.5399 18.3916C45.7828 23.7693 44.9537 28.922 42.1387 33.2918C39.1953 37.8615 34.2416 41.1444 28.5456 42.2988L28.4607 42.3094C28.1673 42.322 27.8729 42.3281 27.5774 42.3279ZM13.3298 35.3427C15.7483 37.7696 18.7494 39.5363 22.0463 40.4742C22.7399 40.6705 23.4435 40.83 24.154 40.9518C24.4772 41.0081 24.8246 41.0587 25.2187 41.1071C26.2648 41.2295 27.3189 41.27 28.3713 41.2283C33.7651 40.1238 38.4486 37.0186 41.2269 32.7058C43.8797 28.587 44.6603 23.7205 43.4835 18.6341C42.4085 13.9815 39.3441 9.98506 34.8603 7.38236C29.9495 4.53255 23.927 3.75634 18.7512 5.30602C15.8571 6.17248 13.4101 7.45868 11.4758 9.1292C9.3506 11.9611 8.01439 15.3049 7.60316 18.8204C6.88199 24.9437 8.96942 30.9647 13.3298 35.3421V35.3427Z" fill="#371A45"/>
<path d="M23.9943 40.6322C21.6002 40.6285 19.2226 40.2373 16.9538 39.4738L16.8862 39.4514L14.894 38.1268C14.7846 38.0296 12.1857 35.717 9.94644 32.9123C7.65137 30.038 6.75195 25.1427 6.71466 24.9355L6.70618 24.8532C6.46791 15.0623 10.6467 8.81059 19.1274 6.2712C23.9985 4.81297 29.6582 5.53891 34.2674 8.21337C38.5053 10.6722 41.4021 14.46 42.4249 18.8788C43.9015 25.2587 42.0496 31.3669 37.3443 35.6364C33.7387 38.9066 28.9694 40.6322 23.9943 40.6322ZM17.3655 38.4696C24.2574 40.7513 31.6271 39.3615 36.6149 34.8354C41.0214 30.8378 42.7541 25.11 41.3685 19.1229C40.4139 14.999 37.6986 11.4572 33.7227 9.15009C29.3674 6.6228 24.0273 5.93443 19.4381 7.30876C11.4961 9.68674 7.5777 15.566 7.7899 24.7835C7.87903 25.2478 8.7745 29.7066 10.7949 32.2372C12.8536 34.8157 15.3005 37.035 15.587 37.2921L17.3655 38.4696Z" fill="#371A45"/>
<path d="M50.5181 21.7292C50.0125 23.0315 49.141 24.0457 47.9678 24.5333C45.2271 25.673 41.8807 23.497 40.493 19.6741C40.3787 19.3588 40.2808 19.0424 40.2004 18.7268C39.2965 15.2056 40.4284 11.731 42.9426 10.6855C45.6824 9.5462 49.0312 11.7225 50.419 15.545C51.2129 17.7331 51.1938 19.9869 50.5181 21.7292Z" fill="white"/>
<g opacity="0.35">
<path d="M50.5181 21.7293C50.0125 23.0315 49.141 24.0458 47.9678 24.5333C45.2271 25.673 41.8807 23.497 40.493 19.6741C40.3787 19.3588 40.2808 19.0424 40.2004 18.7268C40.8519 19.2925 42.2069 20.0593 43.4574 18.1565L46.61 18.0642C46.61 18.0642 49.0373 19.4548 50.5181 21.7293Z" fill="#371A45"/>
</g>
<path d="M46.442 25.381C45.7536 25.381 45.0476 25.2269 44.3482 24.9195C42.4366 24.0797 40.8455 22.2353 39.983 19.8595C38.5001 15.774 39.7341 11.4351 42.734 10.1873C43.9323 9.68915 45.2565 9.72852 46.5624 10.3024C48.474 11.1422 50.0652 12.9866 50.9276 15.3624C52.4106 19.4479 51.1765 23.7868 48.1766 25.0346C47.6271 25.2638 47.0375 25.3816 46.442 25.381ZM44.4698 10.9239C44.0175 10.9228 43.5695 11.0117 43.1521 11.1855C40.6787 12.2152 39.7147 15.9403 41.0034 19.4888C41.754 21.5572 43.1678 23.2162 44.7857 23.9267C45.8139 24.3783 46.8431 24.4152 47.7613 24.0333C50.2346 23.0036 51.1986 19.2786 49.91 15.7301C49.1594 13.6616 47.7455 12.0026 46.128 11.2921C45.5681 11.0468 45.0094 10.9239 44.4698 10.9239Z" fill="#371A45"/>
<path d="M48.8022 23.2561C51.134 22.6337 52.3472 19.5977 51.512 16.4752C50.6768 13.3526 48.1096 11.3258 45.7779 11.9483C43.4461 12.5707 42.2329 15.6066 43.0681 18.7292C43.9032 21.8518 46.4705 23.8785 48.8022 23.2561Z" fill="white"/>
<path d="M47.9604 23.4213C47.7954 23.4211 47.6305 23.4098 47.4669 23.3874C44.97 23.0473 42.8553 20.1772 42.7528 16.9897C42.6955 15.205 43.273 13.6317 44.337 12.6731C45.1206 11.9675 46.081 11.6689 47.1138 11.81C49.6107 12.1501 51.7254 15.0202 51.8279 18.2074C51.8852 19.9924 51.3077 21.5657 50.2437 22.5242C49.5865 23.116 48.8047 23.4213 47.9604 23.4213ZM46.6221 11.8891C45.8054 11.8891 45.0497 12.1846 44.414 12.757C43.3745 13.6931 42.8107 15.2346 42.868 16.986C42.9686 20.1208 45.0394 22.9422 47.4839 23.2753C48.4843 23.411 49.4116 23.1239 50.1694 22.44C51.2089 21.5039 51.7727 19.9627 51.7154 18.2114C51.6148 15.0766 49.5441 12.2552 47.0995 11.9221C46.9413 11.9002 46.7818 11.8892 46.6221 11.8891Z" fill="#371A45"/>
<g opacity="0.35">
<path d="M44.2553 21.3349C43.6342 20.4161 43.2628 19.3237 43.1385 18.2156C44.7316 20.1917 47.12 20.3679 48.6469 18.5424C49.6342 17.3634 50.0335 15.6183 49.8401 13.9057C49.9413 14.0296 50.0386 14.1632 50.1332 14.3025C51.7141 16.6429 51.6792 20.1142 50.0565 22.0554C48.4338 23.9967 45.8359 23.6739 44.2553 21.3349Z" fill="#371A45"/>
</g>
<path d="M48.1986 23.8634C47.6866 23.8634 47.1603 23.7487 46.6356 23.5194C45.092 22.845 43.7385 21.2371 43.0146 19.2189C41.7817 15.7795 42.6632 12.2997 45.0217 11.2967C45.9108 10.9187 46.9012 10.9463 47.8855 11.3763C49.429 12.0505 50.7826 13.6583 51.5062 15.6768C52.7393 19.1163 51.8578 22.596 49.4994 23.5991C49.0882 23.7743 48.6456 23.8642 48.1986 23.8634ZM46.3218 12.1162C46.0207 12.1151 45.7224 12.1752 45.4452 12.2928C43.6448 13.0584 43.0119 16.0015 44.0344 18.8534C44.6594 20.5969 45.7926 21.97 47.0691 22.5273C47.7733 22.8347 48.4666 22.8604 49.0744 22.6024C50.875 21.8368 51.508 18.8937 50.4852 16.0417C49.8604 14.2982 48.727 12.9251 47.4504 12.3679C47.0673 12.2004 46.6868 12.1162 46.3218 12.1162Z" fill="#371A45"/>
<g opacity="0.5">
<path d="M25.3872 9.30273C25.3872 9.30273 16.9796 12.4154 13.7435 18.7571L13.7335 18.7771C13.0553 20.1139 12.7458 21.607 12.8368 23.103C12.9545 25.0806 13.3255 26.4265 13.6981 27.5985C14.8321 31.1624 16.0323 32.6204 16.0323 32.6204C13.4037 31.3817 11.58 29.607 10.606 26.6479C10.5105 26.3559 10.4242 26.0512 10.3435 25.736C10.3247 25.6633 10.3077 25.5909 10.292 25.5176C10.2902 25.5176 10.2905 25.5158 10.292 25.5131C10.1442 24.6889 10.0461 23.8566 9.99824 23.0206C9.82909 20.059 10.2486 15.9945 13.1588 13.2437C18.5992 8.10253 25.5627 8.83725 25.3872 9.30273Z" fill="white"/>
</g>
<g opacity="0.5">
<path d="M36.3209 18.6327C37.6044 17.8123 37.8692 15.9361 36.9123 14.4419C35.9555 12.9477 34.1393 12.4015 32.8558 13.2219C31.5723 14.0422 31.3075 15.9185 32.2644 17.4127C33.2212 18.9068 35.0374 19.4531 36.3209 18.6327Z" fill="white"/>
</g>
<g opacity="0.5">
<path d="M38.5432 21.8904C39.0426 21.5081 39.086 20.7269 38.6401 20.1455C38.1942 19.5642 37.4279 19.4028 36.9284 19.7851C36.429 20.1674 36.3856 20.9486 36.8315 21.53C37.2774 22.1113 38.0438 22.2727 38.5432 21.8904Z" fill="white"/>
</g>
<path d="M22.9686 55.8002C24.4774 55.8002 25.7005 54.5782 25.7005 53.0709C25.7005 51.5636 24.4774 50.3416 22.9686 50.3416C21.4598 50.3416 20.2367 51.5636 20.2367 53.0709C20.2367 54.5782 21.4598 55.8002 22.9686 55.8002Z" fill="white"/>
<g opacity="0.35">
<path d="M20.2941 53.6245C20.4412 54.3334 20.8641 54.9549 21.4698 55.3522C22.0756 55.7495 22.8145 55.8902 23.524 55.7433C24.2336 55.5963 24.8556 55.1738 25.2534 54.5686C25.6511 53.9635 25.7919 53.2253 25.6448 52.5164C25.5639 52.1205 25.3949 51.7479 25.1504 51.4261C25.0286 51.9285 24.7665 52.386 24.3946 52.7454C24.0227 53.1048 23.5563 53.3512 23.0496 53.4561C22.543 53.561 22.0169 53.52 21.5327 53.3379C21.0485 53.1558 20.626 52.84 20.3144 52.4274C20.218 52.8199 20.2111 53.229 20.2941 53.6245Z" fill="#371A45"/>
</g>
<path d="M22.9681 56.3159C22.2216 56.3147 21.4982 56.057 20.9193 55.5861C20.3404 55.1152 19.9413 54.4597 19.7888 53.7296C19.6531 53.0739 19.7239 52.3923 19.9914 51.7784C20.2589 51.1646 20.7101 50.6485 21.283 50.301C21.8559 49.9535 22.5224 49.7917 23.191 49.8378C23.8596 49.8838 24.4975 50.1355 25.0172 50.5583C25.5369 50.9811 25.9128 51.5542 26.0935 52.1989C26.2741 52.8437 26.2506 53.5285 26.0261 54.1594C25.8015 54.7902 25.3871 55.3362 24.8396 55.7223C24.292 56.1085 23.6383 56.3158 22.9681 56.3159ZM20.7985 53.5203C20.9027 54.0219 21.1778 54.4719 21.5768 54.7936C21.9758 55.1154 22.4742 55.2889 22.987 55.2847C23.4997 55.2806 23.9952 55.0989 24.3889 54.7707C24.7826 54.4425 25.0503 53.9881 25.1463 53.4849C25.2422 52.9816 25.1606 52.4607 24.9153 52.0109C24.6699 51.561 24.2761 51.2101 23.8008 51.0178C23.3255 50.8256 22.7982 50.8039 22.3087 50.9565C21.8192 51.109 21.3978 51.4265 21.1162 51.8546C20.7936 52.3459 20.6794 52.945 20.7985 53.5203Z" fill="#371A45"/>
<path d="M26.3778 59.8929L40.1786 58.8202C41.8119 58.6936 43.0457 57.2541 42.9189 55.6203L42.3478 48.2831C42.2366 46.8528 41.1174 45.731 39.7432 45.5596C39.5448 45.5343 39.3443 45.5296 39.1448 45.5457L25.3462 46.6181C23.7092 46.745 22.477 48.1844 22.6058 49.818L23.0575 55.6294L23.1757 57.1554C23.3015 58.7893 24.7445 60.0195 26.3778 59.8929Z" fill="white"/>
<path d="M53.6971 46.3513C53.6971 46.3513 55.5287 46.3143 56.0813 48.4258C56.4336 49.7719 55.6748 51.3053 55.6748 51.3053C55.6748 51.3053 50.6287 54.1427 41.9771 54.186C41.9771 54.186 39.2337 51.7744 41.761 49.3189C41.761 49.3189 49.6466 48.6562 53.6971 46.3513Z" fill="white"/>
<path d="M26.3778 59.8929L40.1786 58.8202C41.8119 58.6936 43.0457 57.2541 42.9189 55.6203L42.3478 48.2831C42.2366 46.8528 41.1174 45.731 39.7432 45.5596C39.5448 45.5343 39.3443 45.5296 39.1448 45.5457L25.3462 46.6181C23.7092 46.745 22.477 48.1844 22.6058 49.818L23.0575 55.6294L23.1757 57.1554C23.3015 58.7893 24.7445 60.0195 26.3778 59.8929Z" fill="white"/>
<path d="M53.6971 46.3513C53.6971 46.3513 55.5287 46.3143 56.0813 48.4258C56.4336 49.7719 55.6748 51.3053 55.6748 51.3053C55.6748 51.3053 50.6287 54.1427 41.9771 54.186C41.9771 54.186 39.2337 51.7744 41.761 49.3189C41.761 49.3189 49.6466 48.6562 53.6971 46.3513Z" fill="white"/>
<g opacity="0.35">
<path d="M43.9882 57.4646C44.1149 59.0982 42.8811 60.5374 41.2472 60.6652L27.447 61.7376C25.8131 61.8638 24.3714 60.634 24.2434 58.9992L24.1264 57.4734L23.6744 51.662C23.5453 50.0267 24.7788 48.589 26.4142 48.4627L40.2129 47.39C40.4123 47.3738 40.6128 47.3783 40.8113 47.4034C42.1851 47.5757 43.3046 48.6968 43.4153 50.1272L43.491 51.0963C45.3814 50.8904 50.8895 50.1678 54.2935 48.4479C54.8649 49.9104 55.0228 50.338 55.7788 52.1596C54.1261 53.5767 51.3603 55.593 43.8748 56.0152L43.9882 57.4646Z" fill="#371A45"/>
</g>
<path d="M26.3778 59.8929L40.1786 58.8202C41.8119 58.6936 43.0457 57.2541 42.9189 55.6203L42.3478 48.2831C42.2366 46.8528 41.1174 45.731 39.7432 45.5596C39.5448 45.5343 39.3443 45.5296 39.1448 45.5457L25.3462 46.6181C23.7092 46.745 22.477 48.1844 22.6058 49.818L23.0575 55.6294L23.1757 57.1554C23.3015 58.7893 24.7445 60.0195 26.3778 59.8929Z" fill="white"/>
<g opacity="0.35">
<path d="M26.3779 59.8929L40.1787 58.8202C41.812 58.6936 43.0458 57.2541 42.9191 55.6203L42.348 48.2831C42.2367 46.8528 41.1175 45.731 39.7434 45.5596C39.0004 46.1405 38.5284 46.5118 38.5284 46.5118C38.3162 52.4534 38.9143 56.7993 29.7206 56.9047C26.551 56.9407 24.3663 56.1778 23.0576 55.6294L23.1758 57.1554C23.3016 58.7893 24.7446 60.0195 26.3779 59.8929Z" fill="#371A45"/>
</g>
<path d="M26.1443 60.4174C25.2648 60.4157 24.4181 60.0833 23.7727 59.4863C23.1273 58.8893 22.7305 58.0714 22.6612 57.1954L22.0898 49.8573C22.019 48.9342 22.3175 48.0207 22.9199 47.3171C23.5223 46.6136 24.3793 46.1773 25.3031 46.1041L39.1042 45.0314C40.0282 44.962 40.942 45.2609 41.646 45.8628C42.35 46.4646 42.7869 47.3204 42.861 48.2432L43.4324 55.5812C43.5032 56.5043 43.2047 57.4178 42.6024 58.1213C42 58.8248 41.1429 59.261 40.2191 59.3341L26.4196 60.4068C26.3262 60.4141 26.235 60.4174 26.1443 60.4174ZM39.377 46.0511C39.3132 46.0511 39.2488 46.0536 39.1839 46.0587L25.3844 47.1314C24.7329 47.1827 24.1284 47.4901 23.7034 47.9862C23.2785 48.4822 23.0679 49.1264 23.1178 49.7774L23.6892 57.1154C23.7421 57.7658 24.0503 58.3688 24.5465 58.793C25.0428 59.2172 25.6867 59.4281 26.338 59.3799L40.1379 58.3072C40.7894 58.2559 41.3939 57.9485 41.8188 57.4524C42.2437 56.9563 42.4542 56.3121 42.4042 55.6612L41.8325 48.3231C41.7836 47.7055 41.5039 47.1289 41.049 46.7079C40.594 46.2869 39.9971 46.0525 39.377 46.0511Z" fill="#371A45"/>
<path d="M25.8197 59.8817C26.0048 59.9052 26.1919 59.909 26.3778 59.8929L40.1786 58.8202C40.749 58.7744 41.2944 58.5658 41.7496 58.2193C42.2048 57.8727 42.5507 57.4027 42.7462 56.8653C42.8926 56.4677 42.9508 56.043 42.9168 55.6206L42.6643 52.3607L42.5806 51.2853L42.3469 48.2832C42.2202 46.6478 40.7773 45.4191 39.1439 45.5457L36.1619 45.778C37.5564 45.9294 38.6974 47.059 38.8108 48.5036L39.1206 52.4667L39.3831 55.8426C39.5098 57.4747 38.2764 58.9162 36.6427 59.0428L25.8197 59.8817Z" fill="white"/>
<g opacity="0.35">
<path d="M25.8197 59.8817C26.0048 59.9052 26.1919 59.9089 26.3778 59.8929L40.1786 58.8202C41.8119 58.6936 43.0457 57.2542 42.9168 55.6206L42.5806 51.2853C42.2933 52.0782 41.7431 53.067 40.7527 53.2432C40.2098 53.341 39.6402 52.9894 39.1206 52.467L39.3831 55.8429C39.5098 57.4749 38.2764 58.9165 36.6427 59.0431L25.8197 59.8817Z" fill="#371A45"/>
</g>
<path d="M26.1502 60.4174C26.0185 60.4175 25.8869 60.4096 25.7561 60.3938L25.7779 59.369L36.6022 58.5289C37.2529 58.476 37.8563 58.1681 38.2807 57.6723C38.705 57.1766 38.9159 56.5333 38.8672 55.8829L38.2958 48.5448C38.2504 47.9729 38.0069 47.4347 37.607 47.0229C37.2072 46.6111 36.6761 46.3516 36.1053 46.2889L36.1214 45.2637L39.1022 45.0311C40.0262 44.9617 40.9402 45.2607 41.6442 45.8627C42.3482 46.4647 42.785 47.3206 42.859 48.2435L43.4307 55.5806C43.5006 56.5036 43.2018 57.4166 42.5996 58.12C41.9974 58.8234 41.1409 59.26 40.2174 59.3341L26.4169 60.4062C26.3293 60.4138 26.2399 60.4174 26.1502 60.4174ZM38.1724 46.1368C38.842 46.7358 39.2546 47.5697 39.3244 48.4648L39.8958 55.8029C39.9323 56.2601 39.8776 56.7201 39.7349 57.156C39.5921 57.592 39.3642 57.9953 39.0643 58.3426C39.0494 58.3599 39.034 58.3771 39.0191 58.3941L40.1383 58.3072C40.7891 58.2543 41.3925 57.9464 41.8168 57.4507C42.2412 56.9549 42.452 56.3116 42.4034 55.6612L41.8326 48.3231C41.7797 47.6727 41.4715 47.0696 40.9752 46.6453C40.4789 46.221 39.8348 46.01 39.1834 46.0584L38.1724 46.1368Z" fill="#371A45"/>
<path d="M33.6602 52.656C33.6826 52.9285 34.2477 55.0848 34.2477 55.0848L35.7937 54.9555C36.8586 54.8668 37.6298 53.6929 37.5161 52.334C37.4025 50.9752 36.447 49.9458 35.382 50.0345L33.836 50.1638C33.836 50.1638 33.6232 52.2135 33.6602 52.656Z" fill="#22A7F0"/>
<g opacity="0.35">
<path d="M33.6602 52.656C33.6826 52.9285 34.2477 55.0848 34.2477 55.0848L35.7937 54.9555C36.8586 54.8668 37.6298 53.6929 37.5161 52.334C37.4025 50.9752 36.447 49.9458 35.382 50.0345L33.836 50.1638C33.836 50.1638 33.6232 52.2135 33.6602 52.656Z" fill="#371A45"/>
</g>
<path d="M33.9557 55.4967L33.8736 55.1815C33.739 54.6666 33.2976 52.9707 33.2749 52.6875C33.2358 52.2232 33.4292 50.3368 33.4513 50.1233L33.4843 49.805L35.3505 49.649C35.9871 49.596 36.6039 49.8546 37.0899 50.3783C37.5513 50.8755 37.8398 51.5594 37.902 52.3014C38.0333 53.8701 37.102 55.2333 35.8264 55.3399L33.9557 55.4967ZM34.0467 52.6233C34.0618 52.7747 34.2973 53.7311 34.5411 54.6727L35.7633 54.5706C36.614 54.4997 37.2281 53.5106 37.1326 52.3665C37.0847 51.7947 36.8686 51.2762 36.5239 50.904C36.2035 50.5588 35.8088 50.3867 35.4159 50.4195L34.1897 50.5218C34.1118 51.305 34.0239 52.365 34.0454 52.6233H34.0467Z" fill="#371A45"/>
<path d="M34.25 55.0831C35.315 54.9942 36.086 53.8204 35.9723 52.4615C35.8586 51.1026 34.9031 50.0731 33.8381 50.1621C32.7732 50.251 32.0021 51.4248 32.1159 52.7837C32.2296 54.1426 33.1851 55.1721 34.25 55.0831Z" fill="#22A7F0"/>
<g opacity="0.35">
<path d="M35.97 52.4637C36.084 53.8216 35.3128 54.9961 34.2482 55.0851C33.1835 55.1742 32.2265 54.1445 32.1134 52.7835C32.0981 52.6038 32.0988 52.4231 32.1156 52.2435C32.4675 53.1542 33.2287 53.7602 34.0557 53.6899C34.9754 53.613 35.6772 52.7275 35.7757 51.6096C35.8805 51.8837 35.9459 52.1713 35.97 52.4637Z" fill="#371A45"/>
</g>
<path d="M35.9701 52.4637C35.978 52.555 35.9813 52.6467 35.9798 52.7384C35.6791 51.6914 34.8564 50.9673 33.957 51.0424C32.9648 51.126 32.2261 52.1508 32.2258 53.3907C32.1686 53.193 32.131 52.9901 32.1136 52.785C31.9996 51.4267 32.7708 50.2523 33.8354 50.1632C34.9001 50.0742 35.8556 51.1042 35.9701 52.4637Z" fill="white"/>
<path d="M34.1209 55.4764C32.9102 55.4764 31.854 54.321 31.7282 52.8174C31.6676 52.0745 31.8368 51.3531 32.2093 50.7862C32.6013 50.1896 33.1676 49.8319 33.8035 49.7789C35.0807 49.672 36.2241 50.8622 36.3554 52.4309C36.416 53.1738 36.2466 53.8952 35.874 54.4622C35.482 55.0588 34.9158 55.4164 34.2798 55.4697C34.2267 55.474 34.1737 55.4764 34.1209 55.4764ZM32.4988 52.7529C32.5946 53.8973 33.3661 54.768 34.2155 54.6999C34.6096 54.6669 34.9688 54.4319 35.2274 54.0382C35.5057 53.6142 35.6324 53.0669 35.5848 52.4955C35.4887 51.351 34.716 50.4776 33.8681 50.5487C33.474 50.5817 33.1145 50.8165 32.8559 51.2102C32.5776 51.6341 32.4509 52.1814 32.4988 52.7529Z" fill="#371A45"/>
<path d="M30.6633 59.8929C30.5676 59.8927 30.4754 59.8571 30.4044 59.7929C30.3335 59.7288 30.2889 59.6406 30.2792 59.5455L29.8245 55.08C29.8119 54.9547 29.7683 54.8346 29.6978 54.7302C29.6273 54.6259 29.532 54.5407 29.4204 54.4822L28.0481 53.7623C27.8183 53.6425 27.6229 53.4663 27.48 53.2504C27.3371 53.0344 27.2514 52.7857 27.2311 52.5276L26.7422 46.5151C26.7369 46.4639 26.7419 46.4122 26.7569 46.363C26.7719 46.3138 26.7965 46.268 26.8294 46.2285C26.8624 46.1889 26.9028 46.1563 26.9485 46.1326C26.9942 46.1089 27.0442 46.0945 27.0955 46.0903C27.1469 46.0862 27.1985 46.0923 27.2474 46.1083C27.2964 46.1243 27.3416 46.1499 27.3805 46.1837C27.4194 46.2174 27.4511 46.2585 27.4739 46.3047C27.4967 46.3508 27.51 46.4011 27.513 46.4524L28.0023 52.4649C28.0124 52.5931 28.0549 52.7167 28.1259 52.8241C28.1969 52.9314 28.2941 53.0189 28.4082 53.0785L29.7799 53.7983C30.0048 53.9158 30.197 54.0873 30.3391 54.2974C30.4813 54.5075 30.5689 54.7496 30.5942 55.0019L31.0489 59.4674C31.0541 59.5179 31.0493 59.569 31.0348 59.6176C31.0202 59.6663 30.9962 59.7116 30.9641 59.751C30.932 59.7904 30.8925 59.8231 30.8477 59.8472C30.8029 59.8712 30.7539 59.8863 30.7033 59.8914C30.69 59.8926 30.6766 59.8931 30.6633 59.8929Z" fill="#371A45"/>
<path d="M53.6971 46.3513C53.6971 46.3513 55.5287 46.3143 56.0813 48.4258C56.4336 49.7719 55.6748 51.3053 55.6748 51.3053C55.6748 51.3053 50.6287 54.1427 41.9771 54.186C41.9771 54.186 39.2337 51.7744 41.761 49.3189C41.761 49.3189 49.6466 48.6562 53.6971 46.3513Z" fill="white"/>
<g opacity="0.35">
<path d="M55.6752 51.305C55.6752 51.305 50.6294 54.1418 41.9772 54.1854C41.9772 54.1854 40.1887 52.6127 40.8292 50.7144C40.8328 50.7244 40.8362 50.7344 40.8398 50.7447C41.2002 51.7596 42.1949 52.4161 43.2722 52.3747C51.1154 52.0718 55.6497 49.523 55.6497 49.523C55.8284 49.1366 55.9627 48.7312 56.0502 48.3147C56.0611 48.3504 56.0717 48.3876 56.0805 48.4249C56.4331 49.7717 55.6752 51.305 55.6752 51.305Z" fill="#371A45"/>
</g>
<path d="M42.6838 54.6905C42.3485 54.691 42.0179 54.6114 41.7196 54.4583C41.4214 54.3052 41.1641 54.0831 40.9692 53.8105C39.9622 52.4004 39.9082 50.9134 40.8204 49.6233C40.9932 49.379 41.2162 49.1744 41.4744 49.0229C41.7326 48.8715 42.0202 48.7767 42.3179 48.745C43.9667 48.5669 49.609 47.8534 52.9951 46.1405C53.552 45.8588 54.1904 45.8292 54.746 46.0587C55.3851 46.3225 56.222 46.9246 56.58 48.2931C56.8177 49.2017 56.6252 50.1572 56.4218 50.7989C56.3324 51.0762 56.1864 51.3319 55.993 51.5499C55.7996 51.7679 55.5631 51.9434 55.2984 52.0654C53.7114 52.8017 49.3101 54.5312 42.7347 54.6875C42.7177 54.6905 42.7008 54.6905 42.6838 54.6905ZM53.9688 46.9376C53.7921 46.9386 53.6181 46.981 53.4607 47.0615C50.0152 48.8028 44.5978 49.5354 42.4285 49.7695C42.2765 49.7855 42.1296 49.8336 41.9976 49.9106C41.8656 49.9877 41.7515 50.0918 41.6628 50.2162C41.0053 51.1478 41.0541 52.1545 41.8083 53.2114C41.9106 53.354 42.0463 53.4694 42.2035 53.5475C42.3607 53.6256 42.5346 53.6641 42.7102 53.6596C49.0916 53.5082 53.3355 51.8425 54.864 51.133C54.9993 51.0715 55.1205 50.9825 55.2196 50.8718C55.3188 50.7611 55.3938 50.631 55.4399 50.4897C55.6024 49.9773 55.7591 49.2259 55.5836 48.5554C55.3823 47.7856 54.9682 47.2665 54.3532 47.0109C54.2311 46.9617 54.1005 46.937 53.9688 46.9382V46.9376Z" fill="#371A45"/>
<path d="M16.3014 40.2906C15.7157 38.7679 22.4855 36.2715 25.419 35.3875C32.0796 33.3808 33.5586 28.2969 31.4154 25.3274C27.3918 19.7523 12.9147 24.2111 8.64498 28.3953C7.12291 29.8871 3.82626 33.551 4.64868 39.3261" fill="white"/>
<g opacity="0.35">
<path d="M25.4194 35.3881C22.6805 36.2115 16.5998 38.4423 16.2791 39.9741C10.8477 37.3636 20.6076 34.4438 23.4286 33.68C28.9897 32.1724 31.9057 29.5264 32.2321 27.2039C32.8136 30.1097 30.8201 33.7606 25.4194 35.3881Z" fill="#371A45"/>
</g>
<g opacity="0.35">
<path d="M16.9804 40.2812L16.2662 40.0904C16.2661 40.0514 16.2704 40.0125 16.279 39.9744C16.5062 40.0912 16.7404 40.1937 16.9804 40.2812Z" fill="#371A45"/>
</g>
<path d="M16.3017 40.8058C16.1975 40.8058 16.0956 40.7743 16.0097 40.7153C15.9237 40.6563 15.8577 40.5726 15.8204 40.4754C15.7427 40.2734 15.6906 39.9502 15.8837 39.5562C16.9268 37.429 24.9297 34.9971 25.2702 34.8944C28.4874 33.9253 30.7737 32.0691 31.5418 29.8026C32.0432 28.3241 31.845 26.8026 30.9962 25.6284C30.0225 24.2777 28.3034 23.4885 25.8873 23.2823C20.1362 22.7913 11.948 25.8792 9.00545 28.7638C5.89553 31.8111 4.60143 35.3408 5.1586 39.2546C5.17785 39.3898 5.14255 39.5271 5.06046 39.6363C5.01981 39.6904 4.9689 39.736 4.91063 39.7704C4.85237 39.8048 4.78788 39.8274 4.72086 39.8369C4.58551 39.8562 4.44806 39.8209 4.33873 39.7389C4.22941 39.6569 4.15718 39.5348 4.13792 39.3996C3.53164 35.1437 4.92609 31.3178 8.28337 28.0285C11.4448 24.9304 19.8612 21.7347 25.9756 22.2562C28.7038 22.4888 30.6742 23.4207 31.8338 25.0261C32.8784 26.4737 33.1282 28.3353 32.5185 30.133C31.6419 32.7191 29.1082 34.8139 25.5678 35.8808C21.7683 37.0256 17.3388 38.9296 16.8098 40.0087C16.7852 40.0592 16.7795 40.0941 16.7828 40.1053C16.8129 40.1833 16.8235 40.2674 16.8137 40.3504C16.804 40.4335 16.7741 40.5129 16.7267 40.5818C16.6794 40.6507 16.6159 40.707 16.5419 40.7459C16.4678 40.7849 16.3854 40.8052 16.3017 40.8052V40.8058Z" fill="#371A45"/>
<path d="M63.0808 34.8499C62.9976 34.8499 62.916 34.8269 62.845 34.7836C57.2542 31.3871 55.1755 23.033 55.09 22.6781C55.0617 22.561 55.081 22.4374 55.1438 22.3345C55.2066 22.2317 55.3078 22.158 55.425 22.1296C55.5422 22.1013 55.6659 22.1206 55.7689 22.1833C55.8718 22.2461 55.9456 22.3472 55.974 22.4643C55.9943 22.5472 58.052 30.8084 63.3176 34.0074C63.4024 34.0589 63.4681 34.1367 63.5045 34.229C63.5409 34.3213 63.5461 34.4229 63.5193 34.5184C63.4925 34.6139 63.4351 34.698 63.3559 34.7579C63.2767 34.8177 63.1801 34.8501 63.0808 34.8499Z" fill="#371A45"/>
<path d="M17.7502 38.9956H17.7468C14.8064 38.975 12.1627 37.4717 10.4969 34.8711C8.89937 32.3768 8.55682 29.3959 9.60023 27.0915C9.65055 26.9827 9.74188 26.8982 9.85433 26.8563C9.96677 26.8145 10.0912 26.8187 10.2005 26.8682C10.3098 26.9176 10.3951 27.0082 10.4379 27.1202C10.4806 27.2322 10.4773 27.3565 10.4287 27.4661C9.50959 29.4937 9.8294 32.1433 11.263 34.3814C12.7596 36.7179 15.1253 38.0686 17.7532 38.0871C17.8738 38.0875 17.9893 38.1357 18.0743 38.2212C18.1593 38.3067 18.2068 38.4224 18.2064 38.5429C18.206 38.6634 18.1577 38.7787 18.0721 38.8637C17.9866 38.9486 17.8708 38.996 17.7502 38.9956Z" fill="#371A45"/>
<path d="M28.8702 71.2325C28.7688 71.2324 28.6703 71.1983 28.5904 71.1358C28.5105 71.0733 28.4539 70.9859 28.4295 70.8875C27.4709 67.0262 17.691 65.2821 14.0042 64.9356C13.8841 64.9244 13.7734 64.8659 13.6965 64.7732C13.6196 64.6804 13.5826 64.5609 13.5939 64.4409C13.6052 64.321 13.6637 64.2104 13.7565 64.1335C13.8494 64.0566 13.969 64.0198 14.0891 64.031C14.6569 64.0843 28.0032 65.3938 29.3128 70.6695C29.3293 70.7365 29.3304 70.8064 29.3158 70.8738C29.3013 70.9413 29.2716 71.0045 29.2289 71.0588C29.1863 71.1131 29.1318 71.1569 29.0696 71.187C29.0075 71.2171 28.9393 71.2327 28.8702 71.2325Z" fill="#371A45"/>
<path d="M49.017 72.3227C48.7226 72.3227 48.4492 72.3106 48.2012 72.2858C48.0812 72.2737 47.971 72.2146 47.8946 72.1213C47.8183 72.028 47.7822 71.9082 47.7943 71.7884C47.8063 71.6685 47.8656 71.5583 47.9589 71.482C48.0523 71.4058 48.1722 71.3697 48.2922 71.3818C51.8195 71.7334 60.5839 69.409 61.3157 66.4414C61.3451 66.3251 61.4194 66.2251 61.5224 66.1633C61.6254 66.1015 61.7486 66.0829 61.8652 66.1116C61.9819 66.1402 62.0824 66.2139 62.1449 66.3163C62.2074 66.4188 62.2267 66.5418 62.1987 66.6585C61.6452 68.9042 58.1339 70.3636 56.0905 71.0335C53.662 71.8306 50.9065 72.3227 49.017 72.3227Z" fill="#371A45"/>
<path d="M12.9675 75.5241C13.0709 75.496 13.1418 75.4802 13.2252 75.4636C13.3086 75.4469 13.3849 75.4333 13.465 75.42C13.6232 75.3951 13.7815 75.3745 13.9385 75.3624C14.2509 75.3346 14.5646 75.3229 14.8782 75.3273C15.4982 75.3402 16.1163 75.3996 16.7274 75.5051C17.3337 75.6126 17.933 75.7473 18.512 75.9487C18.6584 75.992 18.8009 76.0496 18.943 76.1065C19.0852 76.1635 19.2271 76.2192 19.3674 76.2807C19.6474 76.4072 19.9205 76.5481 20.1859 76.7028C19.8755 76.6956 19.5739 76.6677 19.275 76.6374C18.9718 76.6183 18.6781 76.5817 18.3825 76.5553L17.5004 76.4754C17.3537 76.4645 17.2088 76.4451 17.0623 76.4357L16.6249 76.4088C16.0423 76.3785 15.4624 76.3643 14.8882 76.3824C14.6018 76.3894 14.3159 76.4057 14.0343 76.4282C13.8927 76.4381 13.7539 76.4554 13.6153 76.469L13.4116 76.4954C13.3474 76.5033 13.2713 76.5157 13.2297 76.5223L13.1894 76.529C13.0603 76.5478 12.9289 76.517 12.8216 76.4428C12.7144 76.3686 12.6393 76.2565 12.6115 76.1291C12.5838 76.0018 12.6054 75.8687 12.672 75.7566C12.7386 75.6445 12.8453 75.5619 12.9706 75.5254L12.9675 75.5241Z" fill="#371A45"/>
<path d="M57.2518 77.9594C57.464 77.2792 57.9027 76.6775 58.4186 76.1699C58.9364 75.655 59.5666 75.2613 60.2314 74.9482C60.5712 74.8125 60.9126 74.6665 61.2687 74.579C61.4458 74.5321 61.6216 74.4715 61.8023 74.4433L62.3437 74.3503C62.5241 74.3198 62.7064 74.3013 62.8893 74.2949C63.0712 74.2822 63.2531 74.2721 63.435 74.2646C63.7988 74.2646 64.1595 74.2916 64.5199 74.3155C64.6487 74.3289 64.7677 74.3902 64.8533 74.4873C64.9389 74.5843 64.9848 74.71 64.9818 74.8393C64.9789 74.9686 64.9273 75.0921 64.8374 75.1851C64.7475 75.2782 64.6258 75.3341 64.4966 75.3416H64.442C64.1113 75.347 63.7815 75.3349 63.4529 75.3337C63.2895 75.3443 63.1264 75.3531 62.9627 75.3594C62.7993 75.3615 62.6363 75.3742 62.4746 75.3976L61.9896 75.4558C61.9088 75.4643 61.8286 75.4786 61.7498 75.4985L61.5113 75.5469C61.1872 75.5954 60.885 75.7108 60.5685 75.7928C59.9512 76.0106 59.3612 76.2989 58.8103 76.652C58.2356 77.0175 57.7116 77.4571 57.2518 77.9594Z" fill="#371A45"/>
</g>
<defs>
<filter id="filter0_d_2965_9243" x="0" y="0" width="76.5675" height="93.4425" filterUnits="userSpaceOnUse" color-interpolation-filters="sRGB">
<feFlood flood-opacity="0" result="BackgroundImageFix"/>
<feColorMatrix in="SourceAlpha" type="matrix" values="0 0 0 0 0 0 0 0 0 0 0 0 0 0 0 0 0 0 127 0" result="hardAlpha"/>
<feOffset dy="4"/>
<feGaussianBlur stdDeviation="2"/>
<feComposite in2="hardAlpha" operator="out"/>
<feColorMatrix type="matrix" values="0 0 0 0 0 0 0 0 0 0 0 0 0 0 0 0 0 0 0.25 0"/>
<feBlend mode="normal" in2="BackgroundImageFix" result="effect1_dropShadow_2965_9243"/>
<feBlend mode="normal" in="SourceGraphic" in2="effect1_dropShadow_2965_9243" result="shape"/>
</filter>
</defs>
</svg>
