<svg width="86" height="69" viewBox="0 0 86 69" fill="none" xmlns="http://www.w3.org/2000/svg">
<path d="M54.957 27.2454C54.957 27.2454 62.4347 26.6711 64.6339 28.1965C68.5975 30.9458 69.7086 45.8233 66.6306 51.0971C64.3713 54.9679 50.5245 52.9705 50.5245 52.9705" fill="white"/>
<g opacity="0.35">
<path d="M66.6317 51.0974C64.3724 54.9679 50.5251 52.9707 50.5251 52.9707L51.7376 45.926C54.7496 46.2828 65.0954 47.2465 67.021 43.9476C67.6216 42.9195 68.0627 41.5253 68.3525 39.9278C68.5689 44.2743 68.0369 48.6884 66.6317 51.0974Z" fill="#371A45"/>
</g>
<path d="M57.9116 53.9188H57.7285C53.9975 53.9032 50.4976 53.4042 50.4628 53.3993C50.3514 53.3806 50.2517 53.3189 50.1851 53.2275C50.1185 53.1361 50.0902 53.0222 50.1063 52.9102C50.1224 52.7981 50.1816 52.6969 50.2713 52.628C50.3609 52.5591 50.4739 52.5281 50.586 52.5416C54.3576 53.0851 64.5243 53.8472 66.2575 50.8788C69.2789 45.7026 68.0556 31.0971 64.3878 28.553C62.688 27.3742 57.0277 27.5213 54.9902 27.6777C54.8758 27.6865 54.7627 27.6494 54.6756 27.5746C54.5885 27.4998 54.5346 27.3934 54.5259 27.2789C54.5171 27.1643 54.5541 27.0509 54.6287 26.9636C54.7034 26.8764 54.8095 26.8224 54.9239 26.8136C55.2355 26.7898 62.5809 26.2459 64.8801 27.8406C66.8281 29.1917 68.2576 33.2382 68.7046 38.665C69.0446 42.7918 68.7758 48.2822 67.0049 51.3162C65.9957 53.0434 62.9367 53.9188 57.9116 53.9188Z" fill="#371A45"/>
<path d="M67.9939 40.4478L64.1538 40.7456C63.9871 40.7582 63.8294 40.826 63.7054 40.9382C63.5813 41.0504 63.498 41.2007 63.4685 41.3655C63.2472 42.6073 62.8846 45.5022 64.0917 46.4554C65.0937 47.2465 66.7176 47.1497 67.6675 46.3418C68.7302 45.4367 68.8276 42.5979 68.8072 41.1926C68.8059 41.0892 68.7834 40.9871 68.7412 40.8927C68.6989 40.7983 68.6378 40.7135 68.5615 40.6437C68.4853 40.5739 68.3956 40.5205 68.298 40.4868C68.2003 40.4531 68.0968 40.4399 67.9939 40.4478Z" fill="white"/>
<g opacity="0.35">
<path d="M63.4687 41.3649C63.2469 42.6062 62.8846 45.5014 64.092 46.454C65.094 47.2453 66.7176 47.1485 67.6681 46.3404C68.3196 45.7832 68.6097 44.4954 68.7301 43.2593C68.5585 43.8769 68.2879 44.3788 67.9508 44.7086C66.0193 46.5973 64.5691 44.3788 64.5691 44.3788C64.5691 44.3788 64.3195 44.9181 64.1197 44.9499C63.2843 45.0796 63.4512 42.4577 63.569 41.1032C63.5192 41.1832 63.4851 41.2721 63.4687 41.3649Z" fill="#371A45"/>
</g>
<path d="M65.7782 47.4332C65.068 47.4332 64.3657 47.222 63.8234 46.7946C62.4789 45.7333 62.7568 42.8892 63.0421 41.288C63.0884 41.0289 63.2192 40.7925 63.414 40.6159C63.6089 40.4393 63.8567 40.3325 64.1186 40.3121L67.9584 40.0144C68.1202 40.0018 68.2829 40.0225 68.4364 40.0753C68.5899 40.1281 68.7309 40.2119 68.8508 40.3215C68.9708 40.431 69.067 40.564 69.1336 40.7123C69.2002 40.8606 69.2358 41.021 69.2381 41.1835C69.2664 43.1594 69.0656 45.7151 67.946 46.6691C67.3525 47.1763 66.5607 47.4332 65.7782 47.4332ZM68.0273 40.8787L64.1872 41.1764C64.1161 41.1817 64.0487 41.2105 63.9957 41.2583C63.9427 41.306 63.907 41.3701 63.8943 41.4404C63.473 43.8043 63.6469 45.5513 64.3594 46.1139C65.177 46.7591 66.5638 46.71 67.3876 46.0092C68.0414 45.452 68.4109 43.6533 68.3752 41.1966C68.3746 41.1524 68.3649 41.1088 68.3468 41.0684C68.3287 41.0281 68.3026 40.9919 68.27 40.9621C68.2374 40.9323 68.199 40.9095 68.1573 40.8952C68.1155 40.8808 68.0713 40.8752 68.0273 40.8787Z" fill="#371A45"/>
<path d="M65.8286 47.3336C65.7643 47.297 65.7028 47.2557 65.6447 47.2098C65.5929 47.1695 65.5425 47.1284 65.496 47.0852C65.4028 47.0012 65.3156 46.9108 65.2348 46.8147C65.0762 46.6288 64.9391 46.4254 64.8263 46.2084C64.6062 45.7892 64.4602 45.335 64.3948 44.8659C64.3622 44.638 64.3433 44.4085 64.3382 44.1784C64.3263 43.9482 64.3382 43.7285 64.3461 43.5031C64.354 43.2777 64.3744 43.0549 64.4047 42.831C64.435 42.607 64.4699 42.3902 64.5532 42.154C64.5617 42.125 64.5813 42.1006 64.6078 42.0861C64.6342 42.0716 64.6653 42.0683 64.6943 42.0768C64.7232 42.0853 64.7476 42.105 64.762 42.1315C64.7765 42.158 64.7798 42.1892 64.7713 42.2182L64.7676 42.2329C64.7232 42.4183 64.707 42.6453 64.6991 42.856C64.6912 43.0666 64.6965 43.2868 64.7084 43.5028C64.7325 43.9377 64.779 44.3626 64.8784 44.7676C64.9748 45.1661 65.1396 45.5447 65.3654 45.8866C65.473 46.0508 65.5989 46.2022 65.7408 46.3379C65.8087 46.4038 65.8812 46.4649 65.9578 46.5207C65.9949 46.549 66.0326 46.5735 66.0711 46.597C66.1016 46.6162 66.1333 46.6333 66.166 46.6484C66.2168 46.6612 66.2644 46.6842 66.3061 46.716C66.3477 46.7479 66.3824 46.7879 66.4081 46.8336C66.4338 46.8793 66.4499 46.9298 66.4555 46.9819C66.4612 47.0341 66.4561 47.0869 66.4407 47.137C66.4253 47.1872 66.3999 47.2336 66.366 47.2736C66.3321 47.3136 66.2904 47.3463 66.2435 47.3696C66.1966 47.3929 66.1454 47.4064 66.0932 47.4093C66.0409 47.4122 65.9885 47.4044 65.9394 47.3864C65.9129 47.3783 65.8875 47.3674 65.8634 47.3538L65.8286 47.3336Z" fill="#371A45"/>
<path d="M59.4623 29.939C59.3636 29.939 59.2679 29.9052 59.191 29.8431C59.1142 29.7811 59.0608 29.6946 59.0398 29.598C59.0188 29.5014 59.0313 29.4005 59.0754 29.312C59.1195 29.2236 59.1924 29.1529 59.2821 29.1116C62.7879 27.5028 64.9362 27.9834 65.026 28.0046C65.1376 28.031 65.2343 28.1007 65.2946 28.1984C65.355 28.2962 65.3741 28.4139 65.3478 28.5258C65.3215 28.6376 65.2519 28.7345 65.1544 28.7949C65.0569 28.8554 64.9393 28.8746 64.8277 28.8482C64.8008 28.8423 62.8446 28.4296 59.6408 29.8985C59.5848 29.9246 59.524 29.9384 59.4623 29.939Z" fill="#371A45"/>
<path d="M39.6637 29.9828C39.6637 29.9828 36.2296 40.3124 26.8051 43.6467V49.9833H39.6637V29.9828Z" fill="white"/>
<path d="M39.664 29.9822V49.983H26.8057V43.6465C36.2293 40.3124 39.664 29.9822 39.664 29.9822Z" fill="white"/>
<g opacity="0.35">
<path d="M39.664 34.0224V49.983H28.3159C36.599 45.8616 39.664 34.0224 39.664 34.0224Z" fill="#371A45"/>
</g>
<path d="M40.0961 50.4167H26.3728V43.3405L26.6612 43.2383C35.7698 40.0158 39.2198 29.947 39.2535 29.8457L40.0961 27.3194V50.4167ZM27.2377 49.5501H39.2314V32.1363C38.6231 33.4117 37.9194 34.6391 37.1262 35.8081C35.2684 38.5441 32.0552 42.1506 27.2391 43.9505L27.2377 49.5501Z" fill="#371A45"/>
<path d="M63.7625 49.983H35.7406C35.7406 49.983 37.2834 42.2122 38.6846 33.8243C38.9019 32.5246 39.1158 31.2095 39.3201 29.9073C41.0238 19.0292 57.2628 26.1228 57.2628 26.1228C57.2628 26.1228 57.8974 26.9925 58.7699 28.7083C60.5765 32.2546 63.4055 39.4209 63.7625 49.983Z" fill="white"/>
<path d="M64.2096 50.4167H35.214L35.3168 49.899C35.3375 49.7954 37.3906 39.4291 38.8929 29.8391C39.2847 27.3385 40.451 25.5386 42.3582 24.4895C47.7196 21.5412 57.0424 25.5522 57.4365 25.7245L57.5438 25.7714L57.613 25.8662C57.6753 25.9513 59.1564 28.0063 60.7173 32.0196C62.1514 35.707 63.9186 41.8142 64.1945 49.9688L64.2096 50.4167ZM36.2664 49.5501H63.3132C62.7339 35.3826 57.6229 27.4194 56.9801 26.4722C55.9149 26.0297 47.4649 22.6687 42.773 25.2497C41.1131 26.1631 40.0949 27.7523 39.7468 29.9734C38.4337 38.3567 36.7007 47.3302 36.2664 49.5501Z" fill="#371A45"/>
<g opacity="0.35">
<path d="M49.012 51.1595C48.9678 51.3946 48.927 51.625 48.8888 51.8527C48.9256 51.625 48.9667 51.3946 49.012 51.1595Z" fill="#371A45"/>
</g>
<g opacity="0.35">
<path d="M38.3277 40.8304C38.0651 43.1971 37.9127 45.2485 37.8812 46.9615C37.8381 45.3657 37.9925 43.3087 38.3277 40.8304Z" fill="#371A45"/>
</g>
<path d="M38.4619 45.7306C39.247 44.944 39.247 43.6687 38.4619 42.8822C37.6768 42.0956 36.404 42.0956 35.6189 42.8822C34.8339 43.6687 34.8339 44.944 35.6189 45.7306C36.404 46.5172 37.6768 46.5172 38.4619 45.7306Z" fill="white"/>
<g opacity="0.35">
<path d="M35.0313 44.3586C35.0297 44.6287 35.0823 44.8963 35.186 45.1455C35.2897 45.3948 35.4424 45.6206 35.6349 45.8096C35.8274 45.9986 36.0559 46.1469 36.3067 46.2457C36.5575 46.3445 36.8256 46.3918 37.0951 46.3848C37.3645 46.3777 37.6298 46.3165 37.8751 46.2047C38.1205 46.093 38.3409 45.9329 38.5233 45.7341C38.7058 45.5353 38.8464 45.3018 38.937 45.0475C39.0276 44.7932 39.0663 44.5232 39.0507 44.2536C39.0437 43.9558 38.97 43.6635 38.8351 43.3981C38.6809 43.7467 38.4312 44.0443 38.115 44.2564C37.7987 44.4685 37.4289 44.5863 37.0485 44.5963C36.6681 44.6062 36.2927 44.5078 35.9658 44.3125C35.639 44.1172 35.3742 43.833 35.2021 43.4929C35.0812 43.765 35.0228 44.0609 35.0313 44.3586Z" fill="#371A45"/>
</g>
<path d="M37.0395 46.6756C36.4234 46.6747 35.832 46.4331 35.3908 46.0022C34.9496 45.5713 34.6935 44.9851 34.6768 44.368C34.6647 43.8996 34.7915 43.4382 35.0411 43.042C35.2907 42.6458 35.652 42.3327 36.0792 42.1423C36.5065 41.9518 36.9805 41.8925 37.4413 41.972C37.9022 42.0514 38.3291 42.266 38.6683 42.5885C39.0074 42.9111 39.2435 43.3272 39.3466 43.7842C39.4498 44.2411 39.4153 44.7185 39.2477 45.1559C39.0801 45.5933 38.7867 45.971 38.4048 46.2414C38.0229 46.5117 37.5696 46.6626 37.1021 46.6748C37.0812 46.6754 37.0605 46.6756 37.0395 46.6756ZM37.0415 42.647H36.9973C36.7798 42.6527 36.5656 42.7013 36.3668 42.79C36.168 42.8787 35.9887 43.0057 35.8389 43.1639C35.6892 43.322 35.572 43.5082 35.4941 43.7117C35.4162 43.9153 35.379 44.1322 35.3848 44.3501C35.4086 45.2647 36.174 45.9853 37.0846 45.9657C37.5183 45.9521 37.9294 45.7684 38.2293 45.4542C38.5293 45.1401 38.6943 44.7205 38.6888 44.2858C38.6832 43.851 38.5076 43.4358 38.1998 43.1294C37.8919 42.823 37.4763 42.6499 37.0424 42.6473L37.0415 42.647Z" fill="#371A45"/>
<g opacity="0.35">
<path d="M38.0146 46.2692C38.3281 44.2103 38.4331 42.125 38.328 40.045C38.2801 41.179 38.1708 42.3095 38.0005 43.4316C37.7917 44.8128 37.7274 46.2547 37.8554 47.6705C37.8911 47.1996 37.9452 46.731 38.0146 46.2692Z" fill="#371A45"/>
</g>
<path d="M39.9498 50.1698L50.448 50.7091C51.0472 50.7381 51.6334 50.5285 52.0788 50.1259C52.5241 49.7233 52.7924 49.1605 52.8249 48.5604L53.1116 42.963C53.1368 42.4412 52.982 41.9266 52.6733 41.5057C52.3646 41.0847 51.9208 40.783 51.4163 40.651C51.2694 40.6124 51.1188 40.5891 50.967 40.5818L40.4703 40.0425C39.8711 40.0129 39.2846 40.2223 38.8392 40.625C38.3937 41.0276 38.1257 41.5907 38.0937 42.1909L37.8653 46.6243L37.8053 47.788C37.741 49.035 38.7073 50.1053 39.9498 50.1698Z" fill="white"/>
<g opacity="0.35">
<path d="M39.9499 50.1698L50.448 50.7091C51.0472 50.7382 51.6334 50.5285 52.0788 50.1259C52.5241 49.7233 52.7924 49.1605 52.8249 48.5604L53.1116 42.963C53.1368 42.4412 52.982 41.9266 52.6733 41.5057C52.3646 41.0847 51.9208 40.783 51.4164 40.651C50.7999 41.0169 50.4084 41.2514 50.4084 41.2514C49.6667 45.718 48.2749 47.8933 42.7027 47.6972C40.2969 47.612 38.7985 47.1667 37.8665 46.6231L37.8064 47.7869C37.741 49.035 38.7073 50.1053 39.9499 50.1698Z" fill="#371A45"/>
</g>
<path d="M50.5656 51.147C50.5191 51.147 50.4719 51.1459 50.4239 51.1436L39.9263 50.6026C39.2129 50.5642 38.5436 50.2443 38.065 49.7128C37.5864 49.1813 37.3374 48.4815 37.3724 47.7664L37.6597 42.1682C37.6976 41.4532 38.0168 40.7825 38.5474 40.3028C39.078 39.8232 39.7767 39.5738 40.4904 39.6093L50.9883 40.1486C51.702 40.1862 52.3718 40.5059 52.8506 41.0376C53.3293 41.5693 53.5781 42.2696 53.5422 42.9848L53.2547 48.5831C53.2175 49.2738 52.918 49.9241 52.4176 50.4006C51.9172 50.8771 51.2537 51.1436 50.5633 51.1456L50.5656 51.147ZM50.4698 50.2782C50.9547 50.3025 51.4295 50.1332 51.7899 49.8073C52.1503 49.4815 52.3671 49.0257 52.3926 48.5399L52.6799 42.9419C52.7042 42.4561 52.5353 41.9804 52.21 41.6192C51.8848 41.258 51.4298 41.0408 50.9449 41.0152L40.4476 40.4759C39.9631 40.4528 39.4891 40.6226 39.129 40.9481C38.7688 41.2737 38.5517 41.7286 38.5249 42.2139L38.2376 47.8124C38.2143 48.2979 38.3837 48.7729 38.7087 49.1337C39.0336 49.4946 39.4879 49.712 39.9722 49.7386L50.4698 50.2796V50.2782Z" fill="#371A45"/>
<path d="M39.5306 50.1067C39.6678 50.1424 39.8083 50.1635 39.9499 50.1698L50.448 50.7091C50.8822 50.7305 51.3133 50.6264 51.69 50.4092C52.0667 50.192 52.3732 49.8708 52.5728 49.484C52.7219 49.198 52.8073 48.8829 52.8229 48.5606L52.9516 46.0739L52.9938 45.2533L53.1113 42.963C53.1756 41.7166 52.2093 40.6462 50.9668 40.5818L48.6984 40.4654C49.2102 40.5909 49.6624 40.8908 49.9777 41.3137C50.293 41.7366 50.4517 42.2563 50.4265 42.7836L50.2721 45.8074L50.1398 48.3827C50.0755 49.6276 49.0066 50.5967 47.7629 50.5314L39.5306 50.1067Z" fill="white"/>
<g opacity="0.35">
<path d="M39.5306 50.1068C39.6678 50.1424 39.8083 50.1635 39.9499 50.1698L50.448 50.7091C51.0471 50.7387 51.6335 50.5293 52.0787 50.1266C52.5239 49.7239 52.7916 49.1608 52.8232 48.5606L52.9932 45.2533C52.6991 45.8241 52.1881 46.517 51.4251 46.5533C51.0067 46.574 50.6121 46.2527 50.2718 45.8074L50.1395 48.3827C50.0752 49.6276 49.0063 50.5967 47.7627 50.5314L39.5306 50.1068Z" fill="#371A45"/>
</g>
<path d="M50.5687 51.147C50.5217 51.147 50.4744 51.147 50.4271 51.1433L39.9289 50.6023C39.7587 50.5944 39.5897 50.5692 39.4246 50.5271L39.5538 49.6756L47.7876 50.1013C48.272 50.1246 48.7459 49.9549 49.1059 49.6293C49.4659 49.3038 49.6827 48.8488 49.7092 48.3637L49.9965 42.7651C50.0178 42.3383 49.8899 41.9173 49.6347 41.5748C49.3796 41.2324 49.0132 40.9898 48.5987 40.8889L48.723 40.0351L50.9894 40.1515C51.7032 40.1902 52.3725 40.5106 52.8511 41.0425C53.3297 41.5744 53.5786 42.2746 53.5434 42.9899L53.2561 48.5879C53.2191 49.2782 52.9201 49.9281 52.4202 50.4046C51.9203 50.881 51.2575 51.1479 50.5676 51.1504L50.5687 51.147ZM49.7188 50.2387L50.4713 50.2773C50.9557 50.3005 51.4296 50.1309 51.7895 49.8053C52.1495 49.4798 52.3664 49.0248 52.3929 48.5396L52.6801 42.9417C52.7033 42.4561 52.5339 41.981 52.2089 41.62C51.884 41.259 51.4297 41.0414 50.9452 41.0146L50.2696 40.98C50.6835 41.4959 50.8935 42.1464 50.8597 42.8074L50.5724 48.4054C50.5383 49.1054 50.2319 49.7641 49.7188 50.2404V50.2387Z" fill="#371A45"/>
<path d="M46.1419 45.4165C46.1323 45.6237 46.3467 47.3083 46.3467 47.3083L47.5241 47.3623C48.3349 47.3994 49.0304 46.5885 49.0777 45.551C49.125 44.5136 48.506 43.6422 47.6952 43.6053L46.5179 43.5514C46.5179 43.5514 46.1572 45.0793 46.1419 45.4165Z" fill="#22A7F0"/>
<g opacity="0.35">
<path d="M46.1419 45.4165C46.1323 45.6237 46.3467 47.3083 46.3467 47.3083L47.5241 47.3623C48.3349 47.3994 49.0304 46.5885 49.0777 45.551C49.125 44.5136 48.506 43.6422 47.6952 43.6053L46.5179 43.5514C46.5179 43.5514 46.1572 45.0793 46.1419 45.4165Z" fill="#371A45"/>
</g>
<path d="M47.5768 47.6884C47.5544 47.6884 47.532 47.6884 47.5094 47.6884L46.6915 47.6509C46.5142 47.6433 46.3453 47.5728 46.2151 47.452C46.0848 47.3313 46.0015 47.1681 45.9801 46.9916C45.8102 45.5979 45.8153 45.4565 45.8178 45.402C45.8269 45.2033 45.9289 44.6745 46.1212 43.8281C46.1604 43.656 46.2586 43.5032 46.3988 43.3963C46.5389 43.2894 46.7121 43.2353 46.8881 43.2434L47.7097 43.2809C48.2035 43.3036 48.6519 43.5647 48.9721 44.0149C49.2749 44.4406 49.4273 44.9919 49.4013 45.5661C49.3477 46.7528 48.5358 47.6884 47.5768 47.6884ZM46.4657 45.4307C46.4657 45.4591 46.4708 45.6637 46.6241 46.9107C46.627 46.9347 46.6383 46.957 46.6561 46.9735C46.674 46.9899 46.697 46.9994 46.7212 47.0004L47.5388 47.0375C48.1737 47.0659 48.7145 46.3929 48.7536 45.536C48.7732 45.1065 48.6635 44.7001 48.4443 44.3913C48.242 44.1074 47.9709 43.9431 47.6794 43.9297L46.8578 43.8923C46.8338 43.8911 46.8101 43.8985 46.7909 43.9131C46.7718 43.9276 46.7583 43.9485 46.753 43.972C46.498 45.098 46.4685 45.3725 46.4657 45.4307Z" fill="#371A45"/>
<path d="M47.8973 45.4939C47.9445 44.4564 47.3255 43.5853 46.5148 43.5483C45.7041 43.5113 45.0086 44.3223 44.9614 45.3598C44.9142 46.3973 45.5331 47.2683 46.3439 47.3053C47.1546 47.3424 47.8501 46.5313 47.8973 45.4939Z" fill="#22A7F0"/>
<path d="M47.9006 45.4968C47.8917 45.7044 47.855 45.9098 47.7916 46.1077C47.812 45.098 47.2023 44.2627 46.4076 44.2252C45.7654 44.1968 45.1957 44.6995 44.9628 45.4264C44.9617 45.4051 44.9617 45.3836 44.9628 45.3623C45.0104 44.3248 45.7053 43.5145 46.5161 43.5514C47.3269 43.5883 47.9471 44.4591 47.9006 45.4968Z" fill="white"/>
<g opacity="0.35">
<path d="M47.9006 45.4968C47.8531 46.5343 47.1578 47.3458 46.347 47.3089C45.5362 47.272 44.917 46.4006 44.9645 45.3623C44.9732 45.1676 45.0063 44.9748 45.0628 44.7884C45.2651 45.4457 45.7547 45.9181 46.347 45.945C46.9986 45.9734 47.5785 45.4545 47.8023 44.7083C47.8809 44.9634 47.9142 45.2303 47.9006 45.4968Z" fill="#371A45"/>
</g>
<path d="M46.4014 47.6348C46.3784 47.6348 46.3552 47.6348 46.332 47.633C45.3441 47.5879 44.5852 46.5627 44.6404 45.3481C44.6971 44.1335 45.5404 43.1801 46.5328 43.2269C47.0266 43.2496 47.4748 43.5108 47.7952 43.961C48.0981 44.3867 48.2505 44.9382 48.2241 45.5122C48.1978 46.0861 47.9975 46.6209 47.6558 47.0165C47.3142 47.4122 46.87 47.6348 46.4014 47.6348ZM45.2883 45.3776C45.2495 46.2343 45.7308 46.9549 46.3617 46.9839C46.6501 46.997 46.9368 46.8584 47.1637 46.5939C47.4102 46.3066 47.5567 45.9127 47.5762 45.4824C47.5958 45.0521 47.4859 44.6462 47.2666 44.3376C47.0646 44.0538 46.7935 43.8891 46.5017 43.8761C45.8662 43.8477 45.326 44.521 45.2869 45.3776H45.2883Z" fill="#371A45"/>
<path d="M43.2157 50.6222H43.2063C43.1204 50.6198 43.0389 50.5832 42.9799 50.5206C42.9208 50.458 42.889 50.3745 42.8913 50.2884L42.9939 46.576L41.2507 45.3484L41.5017 40.0998C41.5069 40.014 41.5454 39.9337 41.6089 39.8759C41.6724 39.8182 41.756 39.7876 41.8417 39.7907C41.8843 39.7928 41.926 39.8032 41.9645 39.8215C42.0031 39.8397 42.0376 39.8654 42.0662 39.897C42.0949 39.9287 42.117 39.9656 42.1314 40.0058C42.1457 40.046 42.152 40.0887 42.1499 40.1313L41.9162 45.0225L43.6525 46.2453L43.5392 50.3066C43.5367 50.391 43.5016 50.4711 43.4412 50.53C43.3808 50.5889 43.3 50.622 43.2157 50.6222Z" fill="#371A45"/>
<path d="M62.2259 42.869C62.2259 42.869 63.1973 43.6436 63.2401 44.8389C63.2897 46.2206 62.4268 46.7809 62.4268 46.7809C62.4268 46.7809 58.651 48.7179 52.5935 47.4309C52.5935 47.4309 50.8104 45.173 52.7963 43.8988C52.7963 43.8988 59.1901 44.7784 62.2259 42.869Z" fill="white"/>
<g opacity="0.35">
<path d="M63.2398 44.8397C63.2891 46.2198 62.4271 46.7801 62.4271 46.7801C62.4271 46.7801 58.6518 48.7176 52.5929 47.4304C52.5929 47.4304 52.0065 46.6859 51.8818 45.8125C51.9102 45.8556 51.9291 45.878 51.9291 45.878C56.3571 46.8193 59.5655 46.037 60.9709 45.5482C61.9474 45.2076 62.6001 44.3203 62.5772 43.3285C62.5772 43.3149 62.5772 43.3002 62.5772 43.2874C62.5773 43.2645 62.5755 43.2416 62.5718 43.219C62.8543 43.5585 63.2149 44.1236 63.2398 44.8397Z" fill="#371A45"/>
</g>
<path d="M56.697 48.3103C55.4618 48.3103 54.0572 48.1863 52.5042 47.8561L52.3515 47.8238L52.2546 47.7012C52.2133 47.6487 51.2418 46.4003 51.4571 45.1108C51.5648 44.4673 51.937 43.9374 52.5637 43.5352L52.6977 43.45L52.8555 43.4716C52.9178 43.4801 59.13 44.3072 61.9967 42.5043L62.2562 42.341L62.4959 42.5324C62.5417 42.569 63.6237 43.4469 63.673 44.8255C63.7296 46.4344 62.7061 47.1184 62.6624 47.1468L62.6245 47.169C62.5046 47.2277 60.3425 48.3103 56.697 48.3103ZM52.847 47.0426C58.3243 48.1604 61.8797 46.5632 62.206 46.4083C62.3041 46.3333 62.8446 45.8738 62.808 44.8556C62.7845 44.1971 62.4058 43.6782 62.161 43.4097C59.2008 45.0177 53.9309 44.4756 52.9045 44.3507C52.5645 44.6013 52.3694 44.8982 52.3096 45.2539C52.19 45.9686 52.6498 46.7492 52.847 47.0412V47.0426Z" fill="#371A45"/>
<g opacity="0.35">
<path d="M58.7699 28.7074C56.1981 32.2163 52.3407 34.5155 48.1323 35.1794C47.823 35.2271 47.5127 35.2668 47.2014 35.2986C46.3384 35.3829 45.4701 35.3981 44.6047 35.344C43.8755 35.2989 43.1502 35.204 42.4338 35.0602C41.5821 34.8907 40.7452 34.6534 39.9311 34.3505C39.6578 34.2475 39.3875 34.1394 39.1237 34.0244C38.9756 33.9605 38.8285 33.8944 38.6838 33.8257C38.9011 32.526 39.115 31.2109 39.3192 29.9087C41.023 19.0306 57.2619 26.1242 57.2619 26.1242C57.2619 26.1242 57.8973 26.9916 58.7699 28.7074Z" fill="#371A45"/>
</g>
<path d="M31.1345 25.2846C32.5757 27.6729 34.6062 29.6495 37.0305 31.0242C37.5401 31.3132 38.0649 31.5746 38.6025 31.8073C38.8662 31.9225 39.1362 32.0304 39.4105 32.134C40.9118 32.6922 42.4867 33.0275 44.0849 33.1292C44.95 33.1837 45.8181 33.1685 46.6807 33.0838C46.9929 33.052 47.3032 33.0121 47.6117 32.9642C53.2575 32.075 58.271 28.2394 60.4003 22.4904C63.5384 14.0199 59.228 4.60508 50.7752 1.46093C49.1908 0.869842 47.5241 0.529598 45.8351 0.452434C45.6427 0.441932 45.4492 0.437106 45.256 0.436255C44.7391 0.430578 44.2253 0.449501 43.7146 0.493024C41.3686 0.696557 39.0938 1.40322 37.0443 2.56509C36.7212 2.74845 36.4039 2.94288 36.0925 3.14839C33.2001 5.06214 30.9913 7.84918 29.7862 11.1054C27.9799 15.9759 28.6397 21.16 31.1345 25.2846Z" fill="white"/>
<path d="M45.0951 33.2038C44.7552 33.2038 44.4172 33.1931 44.0812 33.1717C43.3501 33.1258 42.6229 33.0305 41.9046 32.8865C41.0507 32.7159 40.2117 32.4777 39.3955 32.174C39.0949 32.0605 38.8289 31.9532 38.5849 31.8465C38.0461 31.6128 37.5201 31.3507 37.0089 31.0614C34.5795 29.6812 32.5439 27.7 31.0965 25.307C28.4876 20.9926 27.995 15.8101 29.7446 11.0884C30.9529 7.8235 33.1675 5.02902 36.0675 3.11007C36.3727 2.90798 36.6939 2.71269 37.022 2.52507C39.0769 1.36006 41.3578 0.651549 43.7101 0.447614C44.22 0.404186 44.7399 0.384601 45.2555 0.390845C45.4626 0.390845 45.6521 0.396806 45.8368 0.406741C47.5301 0.484659 49.201 0.826241 50.7894 1.41921C59.2524 4.56705 63.5815 14.0262 60.4403 22.5046C58.3827 28.0617 53.4694 32.0863 47.6176 33.0068C47.31 33.0545 46.9958 33.0948 46.6841 33.1263C46.1558 33.178 45.624 33.2038 45.0951 33.2038ZM31.1707 25.2621C32.6105 27.6423 34.6353 29.6128 37.0517 30.9856C37.5602 31.2737 38.0836 31.5344 38.6198 31.7667C38.8631 31.8729 39.1269 31.9796 39.4258 32.0926C40.2377 32.3948 41.0723 32.6321 41.9216 32.8022C43.4858 33.1163 45.0877 33.1968 46.6754 33.0409C46.987 33.0094 47.2986 32.9694 47.6043 32.9217C53.4249 32.0049 58.313 28.0018 60.3587 22.4745C63.4832 14.0409 59.177 4.63233 50.7594 1.50096C49.1791 0.911498 47.5168 0.572119 45.8323 0.495016C45.6495 0.485082 45.4609 0.479972 45.2549 0.479121C44.7416 0.474012 44.2243 0.492745 43.7175 0.53589C41.3777 0.738664 39.1089 1.44351 37.065 2.60256C36.7384 2.78763 36.4188 2.98348 36.1157 3.18416C33.2313 5.09314 31.0285 7.87274 29.8265 11.1202C28.0859 15.8152 28.576 20.9701 31.1707 25.2621Z" fill="#371A45"/>
<g opacity="0.35">
<path d="M60.3992 22.4879C58.2705 28.2388 53.2561 32.0747 47.6102 32.9617C47.3018 33.01 46.9917 33.0498 46.6799 33.0812C44.2161 33.3201 41.7303 32.9956 39.4099 32.132C39.1362 32.0276 38.8662 31.9203 38.6019 31.8056C38.0646 31.5721 37.54 31.3104 37.0302 31.0216C34.6061 29.6477 32.5757 27.6718 31.1344 25.284C30.3564 23.9975 29.758 22.6102 29.3559 21.1609C31.1063 23.9089 33.6379 26.0689 36.6245 27.3626C36.8877 27.4776 37.1579 27.5848 37.4324 27.689C38.9337 28.2476 40.5086 28.5829 42.1069 28.6842C42.972 28.7383 43.84 28.7231 44.7027 28.6385C45.0155 28.6067 45.326 28.5667 45.6342 28.5184C51.2801 27.63 56.2933 23.7947 58.4232 18.0445C59.6232 14.821 59.773 11.2993 58.8512 7.98511C61.5088 12.1593 62.2519 17.4882 60.3992 22.4879Z" fill="#371A45"/>
</g>
<path d="M45.0948 33.4959C44.7492 33.4959 44.4052 33.4851 44.0628 33.4635C42.4321 33.3597 40.8253 33.0175 39.2935 32.4479C38.9869 32.3321 38.7175 32.2231 38.4682 32.1144C37.9202 31.8767 37.3852 31.6101 36.8653 31.3157C34.3923 29.9109 32.3201 27.8944 30.8466 25.4586C28.1916 21.0672 27.6901 15.7925 29.4707 10.9865C30.7008 7.66374 32.955 4.8198 35.9066 2.86681C36.2183 2.66103 36.5443 2.46092 36.8783 2.27074C38.9696 1.08525 41.2908 0.364165 43.6846 0.156385C44.2036 0.112105 44.7328 0.091952 45.2583 0.0996158C45.4682 0.0996158 45.6631 0.10586 45.8532 0.116079C47.5758 0.195164 49.2756 0.542294 50.8917 1.14501C59.5045 4.34791 63.9121 13.9753 60.7136 22.6051C58.6198 28.2607 53.6187 32.3582 47.6629 33.2949C47.3493 33.3438 47.0303 33.3846 46.7136 33.4167C46.1748 33.4698 45.6334 33.4959 45.0948 33.4959ZM31.4203 25.1106C32.8341 27.4478 34.8224 29.3828 37.1954 30.7307C37.6948 31.0133 38.2088 31.2691 38.7354 31.4971C38.9753 31.6018 39.2343 31.7065 39.5286 31.8178C40.3256 32.1141 41.1449 32.3465 41.9786 32.5129C43.5147 32.8214 45.0879 32.9004 46.647 32.7474C46.951 32.7167 47.2584 32.6773 47.5595 32.6304C53.2754 31.7301 58.0753 27.7986 60.085 22.37C63.1537 14.0877 58.9235 4.84748 50.658 1.77231C49.1061 1.19358 47.4737 0.860334 45.8195 0.784532C45.6388 0.774598 45.4546 0.769488 45.2529 0.768637C44.7478 0.764095 44.239 0.781978 43.7412 0.825406C41.4433 1.02459 39.2151 1.71684 37.2078 2.85518C36.8871 3.03712 36.5735 3.22928 36.2755 3.42627C33.4431 5.30124 31.28 8.03099 30.0996 11.2201C28.3904 15.8328 28.8718 20.8955 31.4203 25.1106Z" fill="#371A45"/>
<path d="M45.0948 33.5935C44.7469 33.5935 44.4008 33.5826 44.0565 33.5606C43.3079 33.5136 42.5633 33.4159 41.8278 33.2683C40.954 33.0939 40.0953 32.8501 39.26 32.5393C38.9512 32.4227 38.6804 32.3123 38.4297 32.2036C37.8786 31.9646 37.3405 31.6966 36.8177 31.4006C34.3302 29.9876 32.2458 27.9592 30.7636 25.5091C28.0932 21.0922 27.5887 15.7866 29.38 10.9527C30.6167 7.61022 32.884 4.74937 35.8531 2.78508C36.1647 2.57816 36.4945 2.37663 36.8304 2.18617C38.9339 0.993416 41.2689 0.268055 43.6769 0.059326C44.199 0.0147625 44.7328 -0.00425509 45.2597 2.57103e-06C45.4708 2.57103e-06 45.6674 0.00624715 45.8577 0.0164655C47.5901 0.09611 49.2996 0.445249 50.9248 1.05136C59.5886 4.27441 64.0209 13.958 60.8048 22.638C58.6994 28.3277 53.6686 32.4479 47.6791 33.3914C47.3635 33.4406 47.0425 33.4814 46.7241 33.5138C46.1813 33.5669 45.6365 33.5935 45.0948 33.5935ZM31.5027 25.06C32.9078 27.3831 34.8839 29.3064 37.2424 30.6461C37.7384 30.9274 38.2491 31.1819 38.7722 31.4088C39.0107 31.513 39.2685 31.6171 39.5614 31.7276C40.3533 32.0222 41.1674 32.2533 41.9958 32.4187C43.5226 32.725 45.0863 32.8034 46.636 32.6515C46.938 32.6211 47.2436 32.5819 47.5425 32.5354C53.2258 31.6404 57.9962 27.7316 59.994 22.3385C63.044 14.1054 58.841 4.9213 50.6254 1.86486C49.0825 1.28933 47.4596 0.958084 45.815 0.883042C45.6351 0.873108 45.4529 0.868282 45.2535 0.867431C44.7483 0.862038 44.2446 0.880488 43.7503 0.92278C41.4664 1.12093 39.2517 1.80891 37.2565 2.94006C36.9375 3.12115 36.6259 3.3119 36.3299 3.50775C33.5139 5.37057 31.3636 8.08381 30.1908 11.2539C28.491 15.8385 28.9703 20.8702 31.5036 25.0598L31.5027 25.06Z" fill="#371A45"/>
<path d="M33.7425 28.5618C43.6197 34.7885 56.3868 29.3898 56.5157 17.8101C56.6033 9.93198 48.9723 3.76347 41.4159 4.16369C35.9146 4.45634 30.6718 7.15002 28.7893 15.8269C28.7893 15.8269 28.548 19.7967 29.7432 22.3743C30.9384 24.9519 32.5351 27.2564 32.5351 27.2564L33.7425 28.5618Z" fill="#371A45"/>
<path d="M56.5152 17.8104C56.3866 29.3895 43.6192 34.7882 33.7425 28.5624L33.498 28.2973C44.1016 29.6682 54.2734 22.8546 54.621 11.1491C55.835 13.1108 56.5418 15.3792 56.5152 17.8104Z" fill="#220F2D"/>
<path d="M42.5797 33.2896C42.3531 33.2896 42.1251 33.2852 41.8958 33.2765L41.8281 33.2686C40.9538 33.0941 40.0948 32.8503 39.2592 32.5394C38.9504 32.4227 38.6795 32.3123 38.4288 32.2036C37.8777 31.9646 37.3396 31.6966 36.8168 31.4006C34.3293 29.9876 32.2449 27.9592 30.7628 25.5091C28.0924 21.0922 27.5878 15.7866 29.3791 10.9527C30.4113 8.16107 32.1672 5.69535 34.466 3.8092L34.5009 3.78082L34.5405 3.76009C36.4573 2.76465 38.7104 2.19214 41.2377 2.05703C45.7422 1.81888 50.4639 3.63378 53.8748 6.91077C57.0098 9.92349 58.7113 13.8025 58.6662 17.8325C58.6169 22.2125 57.0149 26.0305 54.0329 28.8741C51.071 31.7009 46.9289 33.2896 42.5797 33.2896ZM41.9632 32.4119C46.3133 32.5703 50.4945 31.0534 53.4368 28.2488C56.2457 25.5701 57.7551 21.9659 57.8016 17.8251C57.8438 14.037 56.2369 10.3836 53.2765 7.53835C50.0344 4.42287 45.5512 2.69653 41.2833 2.92361C38.8974 3.04992 36.7766 3.58326 34.9785 4.50888C32.816 6.29412 31.164 8.62148 30.1908 11.2542C28.491 15.8388 28.9703 20.8705 31.5036 25.0601C32.9086 27.3831 34.8848 29.3064 37.2432 30.6461C37.7393 30.9274 38.2499 31.182 38.773 31.4088C39.0118 31.513 39.2694 31.6171 39.5623 31.7276C40.3438 32.0183 41.1468 32.2471 41.9641 32.4119H41.9632Z" fill="#371A45"/>
<path d="M42.6208 31.6134C39.5119 31.6134 36.3403 30.7114 33.5122 28.9286L33.464 28.8982L32.1798 27.5045C32.1135 27.4091 30.548 25.1395 29.3511 22.558C28.1238 19.9114 28.3476 15.9682 28.3578 15.8025L28.3669 15.7369C30.0146 8.14207 34.3969 4.10354 41.3921 3.73312C45.4107 3.51967 49.6265 5.13758 52.6705 8.06316C55.4689 10.7529 56.9882 14.2161 56.9483 17.8149C56.8916 23.0113 54.3241 27.3748 49.9075 29.7866C47.6703 31.0083 45.1665 31.6134 42.6208 31.6134ZM34.0207 28.2252C38.8906 31.2728 44.8144 31.5808 49.4933 29.0259C53.6283 26.7685 56.029 22.6792 56.0831 17.8053C56.1214 14.4477 54.6961 11.2118 52.0716 8.68847C49.1973 5.92582 45.2229 4.39618 41.4377 4.59657C34.8904 4.94315 30.7798 8.7407 29.2193 15.8848C29.2007 16.2612 29.0562 19.864 30.1353 22.1918C31.2353 24.5639 32.7008 26.7333 32.8733 26.9848L34.0207 28.2252Z" fill="#371A45"/>
<path d="M59.8456 23.2431C62.1851 23.1092 63.9325 20.3856 63.7486 17.1599C63.5646 13.9341 61.519 11.4276 59.1795 11.5616C56.84 11.6955 55.0925 14.4191 55.2765 17.6448C55.4604 20.8706 57.5061 23.3771 59.8456 23.2431Z" fill="white"/>
<g opacity="0.35">
<path d="M60.1496 23.2114C57.9852 23.552 55.9548 21.5705 55.4066 18.6982C55.8404 18.8208 56.2954 18.8481 56.7407 18.7783C59.0609 18.4121 61.7757 15.6611 61.4244 12.4537C61.4006 12.2382 60.2499 11.8817 60.2099 11.6748C61.9755 12.1687 63.4305 14.1638 63.7138 16.7406C64.0651 19.9489 62.4695 22.8452 60.1496 23.2114Z" fill="#371A45"/>
</g>
<path d="M59.6587 23.6834C58.8337 23.6834 58.0252 23.3947 57.2926 22.8336C55.9797 21.8276 55.1015 20.1072 54.8817 18.113C54.5055 14.6838 56.2667 11.5678 58.8082 11.167C59.8233 11.0069 60.8349 11.2856 61.7327 11.9731C63.0461 12.9791 63.9246 14.6994 64.1433 16.6937C64.5195 20.1229 62.7582 23.2389 60.2168 23.6394C60.0322 23.6687 59.8456 23.6834 59.6587 23.6834ZM59.3606 11.989C59.2206 11.9891 59.0808 12.0001 58.9425 12.0219C56.8509 12.3518 55.4149 15.0412 55.7412 18.0173C55.9316 19.7513 56.7078 21.294 57.8178 22.1438C58.5229 22.6831 59.3062 22.9048 60.0825 22.7825C62.1741 22.4527 63.6101 19.7632 63.2837 16.7871C63.0934 15.0531 62.3171 13.5104 61.2075 12.6606C60.6287 12.2184 59.9975 11.9902 59.3606 11.9902V11.989Z" fill="#371A45"/>
<path d="M61.0319 22.3765C62.9407 22.3328 64.4407 20.2191 64.3821 17.6554C64.3236 15.0918 62.7288 13.049 60.82 13.0927C58.9112 13.1364 57.4113 15.2501 57.4698 17.8138C57.5283 20.3774 59.1231 22.4202 61.0319 22.3765Z" fill="white"/>
<path d="M60.9763 22.4291C60.6344 22.4278 60.2959 22.3618 59.9785 22.2347C58.1223 21.5049 57.0322 18.8964 57.5504 16.4198C57.8402 15.033 58.5782 13.928 59.5757 13.3881C60.3097 12.9907 61.1038 12.9399 61.8718 13.2422C63.7277 13.972 64.8181 16.5805 64.2997 19.0573C64.0098 20.4442 63.2718 21.5492 62.2744 22.0888C61.877 22.3094 61.4306 22.4265 60.9763 22.4291ZM60.8743 13.1386C60.4348 13.1412 60.0029 13.2544 59.6184 13.4678C58.6447 13.9949 57.9232 15.0775 57.639 16.4383C57.1291 18.8737 58.1946 21.4362 60.0114 22.1504C60.7539 22.4422 61.5213 22.3936 62.2316 22.0084C63.2053 21.4813 63.9268 20.3985 64.211 19.0377C64.7209 16.6023 63.6554 14.0401 61.8389 13.3256C61.532 13.2032 61.2047 13.1397 60.8743 13.1386Z" fill="#371A45"/>
<g opacity="0.35">
<path d="M57.8934 20.0508C57.5874 19.2276 57.5064 18.3148 57.6178 17.4394C58.473 19.2608 60.2759 19.8438 61.791 18.7224C62.7704 17.998 63.4036 16.7275 63.5758 15.3707C63.6305 15.4843 63.6803 15.6066 63.7268 15.7315C64.5047 17.8319 63.8294 20.5018 62.2182 21.6948C60.6071 22.8878 58.6711 22.1498 57.8934 20.0508Z" fill="#371A45"/>
</g>
<path d="M61.0714 22.8168C60.4615 22.8168 59.8603 22.6017 59.3116 22.1833C58.2504 21.3735 57.5095 19.8802 57.3311 18.1873C57.0259 15.3029 58.3558 12.7835 60.3581 12.4514C61.1137 12.3262 61.8706 12.5329 62.5477 13.0492C63.609 13.8584 64.3495 15.3523 64.5285 17.0451C64.8334 19.9296 63.5036 22.449 61.5012 22.7811C61.3592 22.8048 61.2154 22.8168 61.0714 22.8168ZM60.7825 13.2839C60.6876 13.284 60.5928 13.2919 60.4992 13.3075C59 13.5561 57.9427 15.7485 58.1912 18.0971C58.3456 19.5572 58.9603 20.8274 59.8357 21.495C60.3173 21.864 60.8454 22.013 61.3601 21.9273C62.8593 21.6786 63.9166 19.4862 63.6682 17.1377C63.5138 15.6776 62.8993 14.4074 62.025 13.7398C61.6293 13.4378 61.2052 13.2839 60.7825 13.2839Z" fill="#371A45"/>
<g opacity="0.7">
<path d="M45.449 6.83242C45.449 6.83242 38.0815 7.69616 34.2403 12.1769L34.2281 12.1911C33.4216 13.1361 32.8808 14.2792 32.6615 15.503C32.3694 17.1209 32.4045 18.2782 32.4748 19.2957C32.6898 22.3896 33.3683 23.8012 33.3683 23.8012C31.4985 22.2883 30.3786 20.5007 30.1741 17.9242C30.1552 17.6703 30.1443 17.4081 30.1412 17.1377C30.1412 17.0752 30.1412 17.0136 30.1412 16.9515C30.1412 16.9515 30.1412 16.9498 30.1412 16.9478C30.1836 16.2544 30.2675 15.5641 30.3925 14.8808C30.8356 12.4602 31.9679 9.26411 34.8451 7.61725C40.2284 4.53612 45.681 6.49124 45.449 6.83242Z" fill="white"/>
</g>
<g opacity="0.7">
<path d="M52.2994 16.4772C53.4394 16.0848 53.9936 14.6878 53.5372 13.3569C53.0809 12.026 51.7868 11.2651 50.6468 11.6575C49.5068 12.0499 48.9526 13.4469 49.409 14.7778C49.8653 16.1087 51.1594 16.8696 52.2994 16.4772Z" fill="white"/>
</g>
<g opacity="0.7">
<path d="M53.3981 19.4103C53.8535 19.2091 54.0329 18.6149 53.7989 18.0832C53.5648 17.5515 53.0059 17.2836 52.5506 17.4848C52.0952 17.6861 51.9158 18.2802 52.1498 18.8119C52.3839 19.3436 52.9428 19.6115 53.3981 19.4103Z" fill="white"/>
</g>
<path d="M84.4611 48.2598C78.9241 60.2874 62.6443 69 43.4223 69C24.2002 69 7.92018 60.2885 2.38312 48.2598H84.4611Z" fill="#371A45"/>
<path d="M56.3078 61.6584L55.7979 61.7373C55.748 61.745 55.702 61.7684 55.6663 61.8041C55.6307 61.8399 55.6073 61.886 55.5996 61.936L55.5208 62.4469L55.4418 61.936C55.4341 61.886 55.4107 61.8398 55.3751 61.8041C55.3394 61.7684 55.2933 61.745 55.2435 61.7373L54.7335 61.6584L55.2435 61.5792C55.2933 61.5715 55.3394 61.5481 55.3751 61.5124C55.4108 61.4766 55.4341 61.4304 55.4418 61.3805L55.5208 60.8696L55.5996 61.3805C55.6072 61.4304 55.6306 61.4766 55.6663 61.5123C55.7019 61.5481 55.748 61.5715 55.7979 61.5792L56.3078 61.6584Z" fill="#FFE266"/>
<path d="M43.1344 59.3876L42.6245 59.4665C42.5746 59.4742 42.5286 59.4977 42.4929 59.5334C42.4572 59.5691 42.4339 59.6153 42.4262 59.6652L42.3474 60.1761L42.2684 59.6652C42.2607 59.6153 42.2373 59.5691 42.2017 59.5333C42.166 59.4976 42.1199 59.4742 42.0701 59.4665L41.5601 59.3876L42.0701 59.3084C42.1199 59.3008 42.166 59.2774 42.2017 59.2416C42.2374 59.2059 42.2607 59.1597 42.2684 59.1097L42.3474 58.5988L42.4262 59.1097C42.4338 59.1597 42.4572 59.2059 42.4929 59.2416C42.5285 59.2773 42.5746 59.3007 42.6245 59.3084L43.1344 59.3876Z" fill="#FFE266"/>
<path d="M48.0321 64.4491L47.5182 64.5286C47.4684 64.5366 47.4225 64.5601 47.3869 64.5958C47.3513 64.6315 47.3278 64.6775 47.3198 64.7273L47.2405 65.2422L47.1612 64.7273C47.1532 64.6772 47.1296 64.631 47.0937 64.5953C47.0578 64.5596 47.0115 64.5362 46.9615 64.5286L46.4476 64.4491L46.9615 64.3694C47.0115 64.3617 47.0578 64.3384 47.0937 64.3027C47.1296 64.267 47.1532 64.2207 47.1612 64.1707L47.2405 63.6555L47.3198 64.1707C47.3278 64.2205 47.3513 64.2665 47.3869 64.3021C47.4225 64.3378 47.4684 64.3613 47.5182 64.3694L48.0321 64.4491Z" fill="#FFE266"/>
<path d="M71.3158 58.6374L70.6229 58.7444C70.5552 58.7549 70.4926 58.7867 70.4442 58.8353C70.3958 58.8838 70.3641 58.9465 70.3537 59.0143L70.2467 59.7086L70.1396 59.0143C70.1292 58.9465 70.0975 58.8838 70.0491 58.8353C70.0007 58.7867 69.9381 58.7549 69.8704 58.7444L69.1775 58.6374L69.8704 58.5301C69.9381 58.5197 70.0007 58.4879 70.0491 58.4394C70.0975 58.3909 70.1292 58.3282 70.1396 58.2605L70.2467 57.5659L70.3537 58.2605C70.3641 58.3282 70.3959 58.3909 70.4443 58.4394C70.4927 58.4879 70.5552 58.5197 70.6229 58.5301L71.3158 58.6374Z" fill="#FFE266"/>
<path d="M8.97656 50.4059L8.3754 50.4987C8.31671 50.5079 8.26245 50.5355 8.22048 50.5776C8.17851 50.6197 8.15101 50.6741 8.14196 50.7329L8.04904 51.3352L7.95612 50.7329C7.94707 50.6741 7.91957 50.6197 7.8776 50.5776C7.83563 50.5355 7.78137 50.5079 7.72268 50.4987L7.12152 50.4059L7.72268 50.3128C7.78135 50.3038 7.8356 50.2762 7.87757 50.2341C7.91955 50.1921 7.94706 50.1377 7.95612 50.0789L8.04904 49.4763L8.14196 50.0789C8.15102 50.1377 8.17853 50.1921 8.2205 50.2341C8.26248 50.2762 8.31673 50.3038 8.3754 50.3128L8.97656 50.4059Z" fill="#FFE266"/>
<path d="M34.9259 57.4245L34.2743 57.5253C34.2107 57.5351 34.1518 57.5649 34.1063 57.6105C34.0608 57.6561 34.0311 57.715 34.0213 57.7788L33.9207 58.4316L33.8202 57.7788C33.8104 57.7151 33.7806 57.6561 33.7351 57.6106C33.6896 57.565 33.6308 57.5351 33.5672 57.5253L32.9156 57.4245L33.5672 57.3238C33.6308 57.314 33.6896 57.2841 33.7351 57.2385C33.7806 57.1929 33.8104 57.134 33.8202 57.0703L33.9207 56.4174L34.0213 57.0703C34.0311 57.134 34.0608 57.193 34.1063 57.2386C34.1518 57.2841 34.2107 57.314 34.2743 57.3238L34.9259 57.4245Z" fill="#FFE266"/>
<path d="M63.6384 61.8281L63.0186 61.924C62.9581 61.9335 62.9022 61.9619 62.8589 62.0053C62.8156 62.0487 62.7872 62.1047 62.7778 62.1653L62.682 62.7864L62.5862 62.1653C62.5769 62.1047 62.5486 62.0486 62.5053 62.0052C62.462 61.9618 62.406 61.9334 62.3454 61.924L61.7256 61.8281L62.3454 61.7322C62.406 61.7229 62.4621 61.6945 62.5054 61.6511C62.5487 61.6077 62.577 61.5516 62.5862 61.4909L62.682 60.8698L62.7778 61.4909C62.787 61.5516 62.8154 61.6076 62.8587 61.651C62.902 61.6944 62.958 61.7229 63.0186 61.7322L63.6384 61.8281Z" fill="#FFE266"/>
<path d="M25.8493 57.2724L25.3393 57.3513C25.2895 57.3591 25.2434 57.3825 25.2078 57.4182C25.1721 57.454 25.1488 57.5001 25.141 57.55L25.062 58.0609L24.9832 57.55C24.9755 57.5001 24.9521 57.454 24.9164 57.4182C24.8808 57.3825 24.8347 57.3591 24.7849 57.3513L24.275 57.2724L24.7849 57.1935C24.8347 57.1858 24.8808 57.1624 24.9165 57.1266C24.9521 57.0909 24.9755 57.0447 24.9832 56.9948L25.062 56.4839L25.141 56.9948C25.1487 57.0447 25.1721 57.0909 25.2077 57.1266C25.2434 57.1624 25.2895 57.1858 25.3393 57.1935L25.8493 57.2724Z" fill="#FFE266"/>
<path d="M27.1861 63.603L26.8462 63.2127C26.813 63.1746 26.7687 63.148 26.7194 63.1369C26.6702 63.1257 26.6187 63.1306 26.5725 63.1508L26.0988 63.3575L26.4884 63.0169C26.5263 62.9836 26.5527 62.9391 26.5638 62.8898C26.5749 62.8406 26.5701 62.789 26.5501 62.7427L26.3439 62.2681L26.6838 62.6584C26.717 62.6964 26.7614 62.7229 26.8106 62.734C26.8598 62.745 26.9113 62.7401 26.9575 62.7199L27.4315 62.5133L27.0419 62.8539C27.0038 62.8871 26.9773 62.9316 26.9662 62.9809C26.9551 63.0302 26.96 63.0818 26.9802 63.1281L27.1861 63.603Z" fill="#FFE266"/>
<path d="M36.8667 64.2306L36.2757 64.322C36.218 64.3308 36.1646 64.3578 36.1232 64.3992C36.0819 64.4405 36.0549 64.494 36.046 64.5519L35.9548 65.1443L35.8635 64.5519C35.8546 64.4941 35.8275 64.4406 35.7862 64.3993C35.7449 64.3579 35.6915 64.3309 35.6338 64.322L35.0425 64.2306L35.6338 64.1389C35.6915 64.13 35.7449 64.1029 35.7862 64.0616C35.8275 64.0202 35.8546 63.9668 35.8635 63.909L35.9548 63.3166L36.046 63.909C36.0549 63.9668 36.0819 64.0203 36.1232 64.0617C36.1646 64.103 36.218 64.1301 36.2757 64.1389L36.8667 64.2306Z" fill="#FFE266"/>
<path d="M18.2175 59.2238L17.7076 59.3027C17.6577 59.3105 17.6117 59.3339 17.576 59.3697C17.5404 59.4054 17.517 59.4515 17.5093 59.5014L17.4305 60.0124L17.3517 59.5014C17.344 59.4515 17.3207 59.4053 17.285 59.3696C17.2493 59.3339 17.2033 59.3105 17.1534 59.3027L16.6435 59.2238L17.1534 59.1446C17.2033 59.137 17.2494 59.1135 17.285 59.0778C17.3207 59.0421 17.3441 58.9959 17.3517 58.9459L17.4305 58.435L17.5093 58.9459C17.517 58.9959 17.5403 59.042 17.576 59.0778C17.6116 59.1135 17.6577 59.1369 17.7076 59.1446L18.2175 59.2238Z" fill="#FFE266"/>
<path d="M78.9034 50.9784L78.2988 51.0718C78.2399 51.081 78.1854 51.1088 78.1432 51.1511C78.101 51.1934 78.0734 51.248 78.0643 51.3071L77.9708 51.9126L77.8776 51.3071C77.8684 51.248 77.8407 51.1933 77.7985 51.151C77.7563 51.1087 77.7017 51.081 77.6427 51.0718L77.0385 50.9784L77.6427 50.8848C77.7017 50.8757 77.7563 50.848 77.7985 50.8057C77.8407 50.7635 77.8684 50.7088 77.8776 50.6497L77.9708 50.044L78.0643 50.6497C78.0734 50.7088 78.101 50.7634 78.1432 50.8057C78.1854 50.8479 78.2399 50.8756 78.2988 50.8848L78.9034 50.9784Z" fill="#FFE266"/>
<path d="M66.6601 58.6729H47.2156L48.2004 56.2173L49.6645 52.5702L62.2038 52.7025L65.0858 56.5639L66.6601 58.6729Z" fill="white"/>
<path d="M67.5236 59.106H46.5742L49.3726 52.134L62.4211 52.2719L67.5236 59.106ZM47.8556 58.2395H65.7966L61.9856 53.1339L49.9557 53.0068L47.8556 58.2395Z" fill="#371A45"/>
<path d="M63.9971 57.2738C63.3971 57.2755 62.7976 57.2639 62.1976 57.2593L60.3992 57.223C59.7997 57.2142 59.1992 57.1881 58.602 57.1736C58.0048 57.1591 57.4045 57.1557 56.8053 57.1554C55.6069 57.1379 54.408 57.1413 53.2091 57.1313L51.4104 57.1157C50.8107 57.1038 50.2112 57.1001 49.6112 57.0842C50.2104 57.0518 50.8101 57.0348 51.4093 57.0113L53.2082 56.9675C54.4074 56.9437 55.6069 56.942 56.8061 56.9429C57.4058 56.9497 58.0059 56.9622 58.6065 56.9806C59.2079 57.0044 59.8057 57.0257 60.4046 57.0604L62.2007 57.1563C62.7993 57.1946 63.3982 57.2278 63.9971 57.2738Z" fill="#371A45"/>
<path d="M63.1947 55.9491C62.6434 55.9548 62.0921 55.9468 61.5408 55.946L59.8867 55.9207C58.7838 55.9023 57.6835 55.8557 56.5817 55.8239L53.2785 55.7104C52.7277 55.6922 52.1787 55.6761 51.628 55.6885C51.0769 55.6868 50.5262 55.6922 49.9741 55.684C51.0733 55.615 52.177 55.5339 53.281 55.5469C54.3859 55.5469 55.4868 55.5753 56.5888 55.6099C57.6908 55.6446 58.7926 55.6993 59.8932 55.7567L61.544 55.8418C62.0941 55.8782 62.6446 55.9068 63.1947 55.9491Z" fill="#371A45"/>
<path d="M62.3667 54.8064C61.8596 54.8035 61.3542 54.7873 60.8485 54.778L59.3331 54.7274L56.3018 54.6352L53.2705 54.5282C52.7654 54.5092 52.2608 54.4936 51.7554 54.4879C51.2486 54.4697 50.7424 54.4595 50.2381 54.434C51.2503 54.3956 52.2594 54.361 53.2734 54.3644C54.2873 54.3678 55.2972 54.3928 56.3083 54.4212C57.3194 54.4586 58.33 54.4964 59.3396 54.5631L60.8539 54.673C61.359 54.7187 61.8635 54.7558 62.3667 54.8064Z" fill="#371A45"/>
<path d="M61.625 53.709C60.7085 53.803 59.7864 53.7658 58.8688 53.7527C57.9509 53.7346 57.0336 53.7033 56.1163 53.6755L53.3649 53.5753C52.9065 53.5566 52.4478 53.5396 51.9898 53.5305C51.5342 53.5146 51.0654 53.5171 50.6186 53.487L51.9892 53.426C52.4493 53.4141 52.9088 53.4127 53.3683 53.4115C54.287 53.4115 55.2052 53.4351 56.1234 53.4629C57.041 53.4958 57.9588 53.5327 58.8756 53.5898C59.3337 53.6182 59.7915 53.6466 60.2496 53.6673C60.7077 53.688 61.1661 53.7207 61.625 53.709Z" fill="#371A45"/>
<path d="M76.382 55.6216H56.9379L59.3875 49.5192L61.2621 49.5385L71.926 49.6523L76.382 55.6216Z" fill="white"/>
<path d="M45.526 49.2598L38.5342 55.5824C38.5342 55.5824 44.7668 55.2611 47.6564 55.2702C50.0146 55.277 57.9028 55.8821 57.9028 55.8821L59.7371 49.5201L45.526 49.2598Z" fill="white"/>
<g opacity="0.35">
<path d="M65.0858 56.5639H58.0883L58.0138 56.8239C58.0138 56.8239 50.965 56.2823 48.202 56.2173L49.6655 52.5702L62.2052 52.7025L65.0858 56.5639Z" fill="#371A45"/>
</g>
<path d="M76.382 55.6216H56.9379L59.3875 49.5192L61.2621 49.5385L71.926 49.6523L76.382 55.6216Z" fill="white"/>
<path d="M77.2458 56.0547H56.2976L59.096 49.0829L72.1447 49.2209L77.2458 56.0547ZM57.5778 55.1884H75.5188L71.7082 50.0829L59.6779 49.9566L57.5778 55.1884Z" fill="#371A45"/>
<path d="M73.7187 54.2228C73.1187 54.2245 72.5192 54.2128 71.9192 54.2083L70.1205 54.1714C69.5211 54.1626 68.9205 54.1365 68.3233 54.122C67.7261 54.1075 67.1261 54.1041 66.5266 54.1036C65.3285 54.0862 64.1296 54.0897 62.9304 54.0797L61.1318 54.0641C60.5323 54.0522 59.9326 54.0485 59.3328 54.0326C59.932 54.0002 60.5315 53.9832 61.1309 53.9597L62.9296 53.9159C64.1288 53.8921 65.3285 53.8901 66.5275 53.891C67.1275 53.8982 67.7276 53.9107 68.3278 53.9287C68.9293 53.9528 69.527 53.9741 70.1259 54.0085L71.9223 54.1044C72.5215 54.1442 73.1192 54.1768 73.7187 54.2228Z" fill="#371A45"/>
<path d="M72.9173 52.8981C72.3657 52.9038 71.8147 52.8958 71.2631 52.895L69.6092 52.8694C68.5063 52.851 67.4057 52.8047 66.3042 52.7726L63.001 52.6591C62.45 52.6409 61.9009 52.6247 61.3502 52.6372C60.7995 52.6352 60.2484 52.6409 59.6963 52.6327C60.7955 52.5634 61.8992 52.4825 63.0035 52.4953C64.1084 52.4953 65.2093 52.5237 66.3113 52.5586C67.4133 52.5935 68.5151 52.648 69.6154 52.7053L71.2662 52.7905C71.8161 52.8271 72.3668 52.8558 72.9173 52.8981Z" fill="#371A45"/>
<path d="M72.0889 51.8972C71.5821 51.8944 71.0767 51.8779 70.5707 51.8689L69.0556 51.8181L66.0243 51.7261L62.9931 51.6191C62.4879 51.6001 61.9834 51.5844 61.4783 51.5785C60.9714 51.5603 60.4652 51.5501 59.9606 51.5248C60.9731 51.4865 61.982 51.4516 62.9962 51.4553C64.0104 51.459 65.0198 51.4837 66.0309 51.5121C67.042 51.5495 68.0528 51.5873 69.0622 51.654L70.5767 51.7638C71.0812 51.8095 71.5858 51.8467 72.0889 51.8972Z" fill="#371A45"/>
<path d="M71.3472 50.9418C70.4311 51.0355 69.5086 50.9986 68.591 50.9855C67.6731 50.9671 66.7561 50.9359 65.8385 50.9083L63.0871 50.8081C62.6287 50.7894 62.1704 50.7724 61.712 50.7633C61.2564 50.7471 60.7876 50.7499 60.3408 50.7196L61.7117 50.6588C62.1715 50.6469 62.631 50.6455 63.0905 50.6443C64.0095 50.6443 64.9277 50.6676 65.8456 50.6957C66.7635 50.7287 67.6811 50.7653 68.5978 50.8226C69.0562 50.851 69.5137 50.8794 69.9721 50.9001C70.4305 50.9208 70.8886 50.9535 71.3472 50.9418Z" fill="#371A45"/>
<path d="M0.375631 47.8763L3.03863 47.8278L5.70164 47.7914L11.0296 47.7196L21.6879 47.6291C25.2399 47.593 28.7919 47.5905 32.3439 47.5723L42.9998 47.5547L53.6567 47.5723C57.2087 47.5913 60.7607 47.593 64.3126 47.6291L74.9686 47.7185L80.2969 47.7906L82.9599 47.8272L85.6229 47.8757C85.7243 47.8757 85.8216 47.9161 85.8933 47.988C85.9651 48.0598 86.0054 48.1573 86.0054 48.2589C86.0054 48.3606 85.9651 48.458 85.8933 48.5299C85.8216 48.6018 85.7243 48.6421 85.6229 48.6421L82.9599 48.6904L80.2969 48.727L74.9686 48.7991L64.3126 48.8885C60.7607 48.9248 57.2087 48.9265 53.6567 48.9453L43.0004 48.9626L32.3444 48.945C28.7924 48.9263 25.2404 48.9237 21.6884 48.8882L11.0322 48.7988L5.70419 48.727L3.04118 48.6907L0.37818 48.6424C0.276747 48.6424 0.179469 48.602 0.107745 48.5302C0.0360215 48.4583 -0.00427246 48.3608 -0.00427246 48.2592C-0.00427246 48.1576 0.0360215 48.0601 0.107745 47.9883C0.179469 47.9164 0.276747 47.876 0.37818 47.876L0.375631 47.8763Z" fill="#371A45"/>
<path d="M36.3987 54.6562L42.5154 48.9586C42.5276 48.9474 42.5373 48.9337 42.5439 48.9185C42.5505 48.9033 42.5539 48.8869 42.5539 48.8703V47.8468C42.5539 47.8304 42.5505 47.8141 42.544 47.7991C42.5374 47.784 42.5279 47.7705 42.516 47.7592C42.5041 47.748 42.49 47.7393 42.4746 47.7337C42.4592 47.7281 42.4428 47.7257 42.4264 47.7267L22.8602 48.9228L13.7796 54.6565L36.3987 54.6562Z" fill="#3E8DFF"/>
<g opacity="0.3">
<path d="M42.5539 48.3954V48.8712C42.554 48.8879 42.5505 48.9044 42.5439 48.9197C42.5372 48.935 42.5274 48.9487 42.5151 48.96L36.3984 54.6573H13.7799L15.4352 53.6122H35.9854L42.5539 48.3954Z" fill="#6B184E"/>
</g>
<path d="M36.5687 55.0894H12.2821L22.7236 48.4971L42.4001 47.2941C42.4754 47.2895 42.5508 47.3004 42.6217 47.3261C42.6926 47.3518 42.7575 47.3917 42.8124 47.4435C42.8673 47.4953 42.9111 47.5578 42.941 47.6271C42.9709 47.6965 42.9863 47.7712 42.9862 47.8468V48.8703C42.9861 48.9462 42.9705 49.0213 42.9403 49.0909C42.9102 49.1605 42.8661 49.2232 42.8109 49.2751L36.5687 55.0894ZM15.2768 54.2228H36.2287L42.1213 48.7341V48.1792L22.997 49.3486L15.2768 54.2228Z" fill="#371A45"/>
<path d="M36.3987 52.2478L42.5539 47.7188H22.8602L13.7796 52.2478H36.3987Z" fill="#3E8DFF"/>
<path d="M34.8111 51.6758L38.8149 48.7295H26.0039L20.0969 51.6758H34.8111Z" fill="white"/>
<path d="M36.4917 52.5316H12.5748L22.7936 47.4349H42.1871C42.2721 47.4349 42.355 47.4618 42.4239 47.5118C42.4927 47.5618 42.5441 47.6323 42.5706 47.7132C42.5971 47.7942 42.5973 47.8815 42.5713 47.9626C42.5454 48.0437 42.4945 48.1146 42.4259 48.165L36.4917 52.5316ZM14.9845 51.9639H36.3058L41.6885 48.0026H22.9271L14.9845 51.9639Z" fill="#371A45"/>
<path d="M35.8157 54.9239H10.0854C10.0054 54.924 9.9261 54.9079 9.85237 54.8766C9.77863 54.8454 9.71193 54.7996 9.65623 54.7419C9.58154 54.665 9.52855 54.5696 9.50268 54.4655L5.17445 36.8688C5.13074 36.6915 5.12788 36.5065 5.16608 36.3279C5.20429 36.1492 5.28256 35.9817 5.39497 35.8378C5.50738 35.694 5.65098 35.5777 5.81489 35.4977C5.97881 35.4177 6.15875 35.3761 6.34107 35.3761H30.3628C30.7463 35.3763 31.1199 35.4991 31.429 35.7266C31.7381 35.9541 31.9667 36.2745 32.0816 36.6412C32.0935 36.6769 32.1042 36.7138 32.113 36.7507L36.3985 54.1788C36.4201 54.2673 36.4213 54.3596 36.4022 54.4487C36.383 54.5379 36.3439 54.6214 36.2877 54.6932C36.2316 54.7649 36.16 54.823 36.0782 54.8629C35.9964 54.9029 35.9067 54.9237 35.8157 54.9239Z" fill="#3E8DFF"/>
<path d="M23.5352 42.2048C23.6524 42.2048 23.7474 42.1096 23.7474 41.9922C23.7474 41.8748 23.6524 41.7796 23.5352 41.7796C23.4181 41.7796 23.3231 41.8748 23.3231 41.9922C23.3231 42.1096 23.4181 42.2048 23.5352 42.2048Z" fill="white"/>
<path d="M23.7611 41.6269C23.8403 41.6269 23.9044 41.5626 23.9044 41.4833C23.9044 41.404 23.8403 41.3397 23.7611 41.3397C23.6819 41.3397 23.6177 41.404 23.6177 41.4833C23.6177 41.5626 23.6819 41.6269 23.7611 41.6269Z" fill="white"/>
<path d="M23.5262 41.2389C23.5827 41.2389 23.6285 41.193 23.6285 41.1364C23.6285 41.0798 23.5827 41.034 23.5262 41.034C23.4697 41.034 23.424 41.0798 23.424 41.1364C23.424 41.193 23.4697 41.2389 23.5262 41.2389Z" fill="white"/>
<path d="M25.8144 40.8554L25.8297 40.7456C25.8308 40.7375 25.8297 40.7293 25.8267 40.7217C25.8237 40.7141 25.8189 40.7074 25.8126 40.7022C25.8063 40.697 25.7988 40.6936 25.7908 40.6921C25.7828 40.6907 25.7745 40.6913 25.7668 40.6939L24.8906 40.9928L24.0237 42.3331C24.0192 42.3399 24.0166 42.3477 24.016 42.3558C24.0154 42.3639 24.0169 42.3721 24.0203 42.3794C24.0238 42.3868 24.029 42.3932 24.0356 42.3979C24.0422 42.4027 24.0499 42.4057 24.0579 42.4066L24.2687 42.433C24.2779 42.4341 24.2872 42.4325 24.2955 42.4284C24.3038 42.4244 24.3107 42.418 24.3155 42.41L25.039 41.2071C25.0443 41.1981 25.0523 41.1911 25.062 41.1872L25.7858 40.8932C25.7934 40.8899 25.8001 40.8848 25.8051 40.8781C25.8102 40.8715 25.8134 40.8637 25.8144 40.8554Z" fill="white"/>
<path d="M25.1265 42.7966L25.1175 42.8727C25.1134 42.9063 25.0962 42.9368 25.0696 42.9577C25.0431 42.9786 25.0094 42.9882 24.9758 42.9842C24.9593 42.9823 24.9427 42.9867 24.9294 42.9967C24.9159 43.0064 24.9067 43.0209 24.9039 43.0373L24.5166 45.1573C24.5148 45.1673 24.5106 45.1766 24.5044 45.1846C24.4982 45.1926 24.4901 45.1989 24.4809 45.2031C24.4717 45.2072 24.4617 45.2091 24.4516 45.2085C24.4415 45.2079 24.4318 45.2049 24.4231 45.1996C24.3491 45.1577 24.2672 45.1316 24.1826 45.1232C24.098 45.1148 24.0126 45.1242 23.9319 45.1508C23.9236 45.1534 23.915 45.1542 23.9064 45.1533C23.8978 45.1523 23.8895 45.1496 23.882 45.1453C23.8746 45.1409 23.8681 45.1351 23.8629 45.1282C23.8578 45.1212 23.8542 45.1133 23.8523 45.1048C23.7574 44.7075 23.4089 44.3887 22.9602 44.3336C22.5114 44.2786 22.0972 44.5039 21.9091 44.867C21.9052 44.8747 21.8998 44.8815 21.8931 44.887C21.8865 44.8925 21.8787 44.8966 21.8704 44.899C21.8621 44.9013 21.8534 44.902 21.8449 44.9008C21.8363 44.8996 21.8281 44.8967 21.8207 44.8922C21.7473 44.8459 21.6649 44.8159 21.5789 44.8042C21.493 44.7925 21.4055 44.7994 21.3224 44.8244C21.3127 44.8274 21.3024 44.8281 21.2924 44.8263C21.2823 44.8244 21.2729 44.8202 21.2649 44.8139C21.2569 44.8076 21.2505 44.7995 21.2463 44.7902C21.2421 44.7809 21.2402 44.7707 21.2408 44.7605L21.3799 42.6059C21.3811 42.5893 21.3758 42.5729 21.3653 42.5601C21.3548 42.5473 21.3397 42.539 21.3233 42.5369C21.2898 42.5328 21.2592 42.5155 21.2384 42.4889C21.2175 42.4624 21.208 42.4286 21.2119 42.395L21.2213 42.3189C21.2234 42.3017 21.2322 42.2861 21.2458 42.2755C21.2594 42.2649 21.2767 42.26 21.2938 42.2621L21.5771 42.2965L21.608 42.3007C21.6286 42.3034 21.6475 42.3135 21.6612 42.3292C21.6749 42.3449 21.6824 42.3651 21.6822 42.3859C21.6822 42.4835 21.6394 42.63 21.6522 42.7109C21.6649 42.7918 21.8374 42.8559 21.8544 42.5383C21.8618 42.3964 21.9151 42.364 21.9256 42.4046C21.9797 42.6186 22.0559 42.4577 22.0375 42.3936C22.0375 42.3936 22.0375 42.3916 22.0375 42.3907C22.0375 42.3899 22.0154 42.3646 22.0562 42.3558L25.0721 42.7248C25.0887 42.7275 25.1036 42.7364 25.1137 42.7498C25.1238 42.7632 25.1284 42.7799 25.1265 42.7966Z" fill="white"/>
<path d="M24.543 45.9141C24.5301 46.0093 24.4906 46.099 24.4289 46.1726C24.3672 46.2462 24.2859 46.3008 24.1945 46.3299C24.1729 46.3369 24.1538 46.3498 24.1393 46.3673C24.1248 46.3847 24.1156 46.4059 24.1126 46.4284L24.0871 46.6379C24.0853 46.6535 24.0804 46.6686 24.0727 46.6823C24.065 46.6959 24.0547 46.708 24.0423 46.7176C24.03 46.7273 24.0158 46.7345 24.0007 46.7387C23.9856 46.7429 23.9698 46.744 23.9543 46.7421L21.4159 46.4298C21.4004 46.4279 21.3854 46.423 21.3717 46.4153C21.3581 46.4075 21.3461 46.3972 21.3365 46.3848C21.3269 46.3725 21.3198 46.3583 21.3156 46.3432C21.3114 46.3281 21.3103 46.3123 21.3122 46.2967L21.3377 46.0875C21.3401 46.0654 21.3362 46.043 21.3265 46.0229C21.3169 46.0029 21.3018 45.9859 21.283 45.974L21.2697 45.9652C21.1947 45.9173 21.1339 45.8502 21.0937 45.7707C21.0535 45.6913 21.0353 45.6024 21.0411 45.5135C21.0469 45.4246 21.0764 45.3389 21.1266 45.2654C21.1768 45.1918 21.2458 45.1331 21.3264 45.0955C21.4231 45.0484 21.5313 45.0305 21.638 45.0438C21.7015 45.0517 21.7631 45.0702 21.8205 45.0986C21.8473 45.1127 21.8784 45.1161 21.9076 45.1082C21.9369 45.1002 21.962 45.0815 21.978 45.0557C22.1627 44.7472 22.5304 44.5599 22.9265 44.6084C23.3225 44.6569 23.6347 44.9274 23.7395 45.2715C23.7489 45.3001 23.7686 45.3242 23.7948 45.339C23.8211 45.3538 23.8519 45.3581 23.8812 45.3512C23.9629 45.3331 24.0477 45.3335 24.1293 45.3524C24.2109 45.3712 24.2873 45.4081 24.3529 45.4602C24.4205 45.5134 24.4735 45.583 24.5068 45.6624C24.5401 45.7418 24.5525 45.8285 24.543 45.9141Z" fill="white"/>
<path d="M21.2854 46.5116C21.2242 47.0137 21.6063 47.4894 22.1806 47.687C22.1469 47.7815 22.0811 47.907 21.957 47.9708C22.171 47.9658 22.3784 47.8959 22.552 47.7704C23.3132 47.8584 23.9872 47.4488 24.06 46.8508L21.2854 46.5116ZM22.2183 47.1335C22.1977 47.134 22.1774 47.1283 22.1602 47.1169C22.143 47.1056 22.1297 47.0893 22.122 47.0702C22.1143 47.051 22.1127 47.03 22.1173 47.0099C22.1219 46.9898 22.1325 46.9716 22.1477 46.9577C22.1629 46.9439 22.182 46.935 22.2024 46.9323C22.2228 46.9296 22.2436 46.9332 22.2619 46.9427C22.2801 46.9521 22.2951 46.967 22.3047 46.9852C22.3144 47.0034 22.3182 47.0242 22.3157 47.0446C22.3145 47.0693 22.3035 47.0925 22.2853 47.1092C22.267 47.1258 22.2429 47.1346 22.2183 47.1335ZM22.7741 47.3526C22.7527 47.3833 22.7234 47.4076 22.6893 47.4228C22.6553 47.4381 22.6177 47.4437 22.5806 47.4392C22.5435 47.4346 22.5084 47.42 22.479 47.397C22.4496 47.3739 22.427 47.3433 22.4137 47.3083C22.4115 47.3021 22.4104 47.2955 22.4107 47.2888C22.411 47.2822 22.4126 47.2757 22.4154 47.2696C22.4182 47.2636 22.4222 47.2582 22.4271 47.2537C22.4319 47.2492 22.4377 47.2457 22.4439 47.2435C22.4501 47.2412 22.4567 47.2402 22.4634 47.2405C22.47 47.2408 22.4765 47.2423 22.4825 47.2452C22.4885 47.248 22.4939 47.2519 22.4984 47.2568C22.5029 47.2617 22.5064 47.2675 22.5086 47.2737C22.5156 47.291 22.5271 47.3062 22.542 47.3176C22.5568 47.329 22.5744 47.3361 22.5929 47.3384C22.6114 47.3407 22.6303 47.3379 22.6474 47.3304C22.6645 47.3229 22.6793 47.311 22.6902 47.2958C22.6939 47.2903 22.6987 47.2854 22.7043 47.2817C22.7099 47.278 22.7161 47.2754 22.7227 47.274C22.7293 47.2727 22.7361 47.2727 22.7426 47.274C22.7492 47.2753 22.7555 47.2779 22.761 47.2817C22.7666 47.2854 22.7714 47.2902 22.7752 47.2958C22.7789 47.3013 22.7815 47.3076 22.7828 47.3142C22.7841 47.3208 22.7841 47.3276 22.7828 47.3342C22.7815 47.3408 22.7789 47.347 22.7752 47.3526H22.7741ZM23.0055 47.23C22.9849 47.2306 22.9646 47.2248 22.9473 47.2135C22.93 47.2022 22.9166 47.1858 22.9088 47.1666C22.9011 47.1474 22.8994 47.1263 22.904 47.1061C22.9086 47.086 22.9193 47.0677 22.9346 47.0538C22.9498 47.0398 22.969 47.0309 22.9895 47.0282C23.01 47.0255 23.0308 47.0292 23.0491 47.0387C23.0675 47.0482 23.0825 47.0632 23.0921 47.0815C23.1017 47.0998 23.1055 47.1206 23.103 47.1411C23.1017 47.1658 23.0908 47.189 23.0725 47.2057C23.0543 47.2223 23.0302 47.2311 23.0055 47.23Z" fill="white"/>
<path d="M19.0677 45.9669C19.0941 45.8311 19.1087 45.6933 19.1113 45.555C19.1145 45.4097 19.1161 45.2692 19.1161 45.1335C19.1161 45.0139 19.1177 44.8928 19.1209 44.7702C19.1241 44.6466 19.1354 44.5233 19.1546 44.4012L19.1691 44.3234L19.2467 44.3089C19.4594 44.29 19.6713 44.2788 19.8824 44.2752C20.0933 44.2718 20.3042 44.2831 20.5136 44.3089L20.591 44.3234L20.9876 47.289L20.9391 47.3276C20.5498 47.5831 20.1244 47.7783 19.677 47.9067C19.2273 48.0323 18.7604 48.0855 18.294 48.0642C18.0901 48.0549 17.8872 48.0306 17.6869 47.9915C17.4911 47.9534 17.2993 47.8975 17.1138 47.8244C16.9297 47.7515 16.7546 47.658 16.5916 47.5456C16.4242 47.4295 16.2719 47.2929 16.1384 47.1389C15.8695 46.8354 15.664 46.4811 15.5338 46.0969C15.4022 45.713 15.3329 45.3106 15.3284 44.9047C15.3236 44.4969 15.3815 44.0908 15.5001 43.7007C15.616 43.3119 15.7939 42.9445 16.027 42.6127C16.261 42.2789 16.5449 41.9831 16.8687 41.7359C17.1725 41.5062 17.5074 41.321 17.8634 41.1858C18.2249 41.0501 18.6018 40.9598 18.9855 40.917C19.3884 40.8719 19.7942 40.8593 20.1992 40.8792H20.2558L20.2841 40.936C20.398 41.1588 20.4786 41.3971 20.5235 41.6434C20.5698 41.8915 20.5997 42.1424 20.6131 42.3944V42.506H20.5017C20.3178 42.506 20.1138 42.5116 19.8898 42.523C19.6658 42.5343 19.4402 42.557 19.213 42.5908C18.9896 42.6238 18.7689 42.6732 18.5526 42.7384C18.3563 42.7957 18.169 42.8805 17.9965 42.9905C17.904 43.0502 17.8185 43.1201 17.7415 43.1988C17.6822 43.2578 17.6272 43.321 17.5769 43.3879C17.5273 43.4543 17.4821 43.5239 17.4415 43.5962C17.3689 43.7263 17.3098 43.8634 17.265 44.0055C17.2183 44.1518 17.1891 44.3031 17.1781 44.4563C17.1667 44.608 17.1748 44.7607 17.2021 44.9104C17.2286 45.0578 17.2801 45.1995 17.3546 45.3294C17.4174 45.4462 17.5001 45.5511 17.5988 45.6396C17.6931 45.7231 17.799 45.7924 17.9132 45.8454C18.0295 45.8994 18.1521 45.9385 18.2781 45.9618C18.4073 45.986 18.5385 45.9981 18.6699 45.9981C18.7342 45.9981 18.8005 45.9955 18.8682 45.9907C18.9351 45.9871 19.0018 45.9791 19.0677 45.9669Z" fill="white"/>
<g opacity="0.3">
<path d="M35.8157 54.9239H10.0854C10.0053 54.924 9.92606 54.9079 9.85232 54.8766C9.77859 54.8454 9.71188 54.7996 9.65619 54.7419C12.8107 54.8946 23.7752 54.9812 29.0108 49.3205C32.3631 45.6964 32.4172 40.0184 32.0821 36.6398C32.094 36.6755 32.1047 36.7124 32.1135 36.7493L36.399 54.1774C36.4209 54.266 36.4223 54.3586 36.4032 54.4479C36.3841 54.5372 36.345 54.621 36.2888 54.693C36.2326 54.7649 36.1608 54.8231 36.0788 54.8631C35.9968 54.9031 35.9068 54.9239 35.8157 54.9239Z" fill="#6B184E"/>
</g>
<g opacity="0.35">
<path d="M6.49037 37.3973L10.8005 54.9239H10.0854C9.95111 54.9238 9.8207 54.8786 9.71505 54.7955C9.60941 54.7124 9.53463 54.5962 9.50268 54.4655L5.17445 36.8688C5.13074 36.6915 5.12788 36.5065 5.16608 36.3279C5.20429 36.1492 5.28256 35.9817 5.39497 35.8378C5.50738 35.694 5.65098 35.5777 5.81489 35.4977C5.97881 35.4177 6.15875 35.3761 6.34107 35.3761H30.3628C30.7553 35.3762 31.1371 35.5047 31.4501 35.742C31.7631 35.9794 31.9902 36.3126 32.0969 36.6911C32.0208 36.6813 31.9443 36.6762 31.8677 36.6761H7.05414C6.96602 36.6761 6.87905 36.6961 6.79983 36.7347C6.7206 36.7734 6.65119 36.8296 6.59686 36.8991C6.54253 36.9686 6.50471 37.0496 6.48626 37.1359C6.46781 37.2222 6.46922 37.3116 6.49037 37.3973Z" fill="white"/>
</g>
<path d="M35.8154 55.357H10.0854C9.85424 55.3574 9.62963 55.2799 9.44767 55.137C9.2657 54.9941 9.13692 54.7941 9.08199 54.5691L4.75461 36.9707C4.69531 36.7296 4.69153 36.4781 4.74356 36.2354C4.79558 35.9926 4.90205 35.7648 5.0549 35.5693C5.20775 35.3739 5.40298 35.2158 5.62581 35.1071C5.84864 34.9983 6.09323 34.9418 6.34108 34.9418H30.3628C30.8626 34.941 31.3483 35.1085 31.7418 35.4173C32.1353 35.7261 32.4139 36.1584 32.5329 36.6449L36.8186 54.0729C36.856 54.2254 36.8584 54.3844 36.8255 54.5379C36.7926 54.6914 36.7253 54.8355 36.6286 54.9591C36.532 55.0827 36.4086 55.1827 36.2677 55.2515C36.1268 55.3203 35.9722 55.3561 35.8154 55.3562V55.357ZM6.34108 35.8095C6.22438 35.8095 6.1092 35.836 6.00426 35.8872C5.89933 35.9384 5.80739 36.0128 5.7354 36.1048C5.66342 36.1968 5.61328 36.3041 5.58879 36.4184C5.56429 36.5327 5.56608 36.6511 5.59402 36.7647L9.9214 54.363C9.93036 54.3997 9.95137 54.4324 9.98107 54.4557C10.0108 54.479 10.0474 54.4916 10.0852 54.4916H35.8154C35.8409 54.4913 35.866 54.4853 35.8888 54.4739C35.9117 54.4626 35.9317 54.4463 35.9474 54.4262C35.9631 54.4061 35.9741 54.3827 35.9795 54.3577C35.985 54.3328 35.9848 54.307 35.9789 54.2821L31.6932 36.8541C31.6202 36.5556 31.4493 36.2904 31.2078 36.101C30.9663 35.9116 30.6683 35.8091 30.3617 35.8098L6.34108 35.8095Z" fill="#371A45"/>
<g opacity="0.35">
<path d="M61.2621 49.5385L59.5085 55.6216H56.9379L59.3875 49.5192L61.2621 49.5385Z" fill="#371A45"/>
</g>
<path d="M45.526 49.2598L38.5342 55.5824C38.5342 55.5824 44.7668 55.2611 47.6564 55.2702C50.0146 55.277 57.9028 55.8821 57.9028 55.8821L59.7371 49.5201L45.526 49.2598Z" fill="white"/>
<path d="M58.2214 56.34L57.8707 56.3133C57.792 56.3071 49.9718 55.7093 47.6564 55.7025C44.8132 55.6965 38.6192 56.0119 38.5563 56.0147L37.3409 56.0774L45.3628 48.8232L60.3102 49.0963L58.2214 56.34ZM47.5482 54.8356H47.659C49.7491 54.8416 56.0128 55.3037 57.586 55.422L59.1662 49.9416L45.6889 49.6955L39.7232 55.0902C41.655 54.9997 45.43 54.8359 47.5482 54.8359V54.8356Z" fill="#371A45"/>
<path d="M49.2823 49.3469C49.2851 50.3097 49.0973 51.256 48.7378 52.0908L48.5879 52.4365C48.4179 52.8339 47.9876 52.8339 47.8168 52.4365L47.6624 52.0783C47.3065 51.2523 47.1187 50.3145 47.1187 49.3605V39.5162C47.1187 39.1779 47.5964 38.9028 48.1865 38.9028C48.7766 38.9028 49.2534 39.1779 49.2534 39.5162C49.2535 39.5325 49.2523 39.5487 49.2497 39.5648L49.2823 49.3469Z" fill="#371A45"/>
<path d="M56.7636 54.0738C56.1704 54.0641 55.5783 54.0408 54.9856 54.0247L53.2102 53.9537C52.0274 53.8969 50.843 53.858 49.6591 53.8234C48.4752 53.7752 47.291 53.7383 46.1073 53.7019C45.5153 53.6792 44.9254 53.6758 44.3316 53.6647C43.7387 53.6471 43.146 53.6364 42.5536 53.6125C43.7395 53.5736 44.9223 53.5373 46.1102 53.5381C47.298 53.539 48.4811 53.5793 49.6661 53.6111L51.4427 53.6863C52.0348 53.711 52.6269 53.7431 53.2181 53.7908L54.9919 53.9213C55.5831 53.9724 56.1735 54.0156 56.7636 54.0738Z" fill="#371A45"/>
<path d="M57.3914 53.0252C56.644 53.0167 55.898 52.9947 55.1533 52.9591C54.7805 52.9441 54.4082 52.9216 54.036 52.9023C53.6637 52.883 53.2915 52.8546 52.9195 52.8396L50.686 52.73C49.9412 52.6974 49.197 52.6545 48.4502 52.6338C49.1953 52.5716 49.9437 52.5592 50.6905 52.564C51.4373 52.5688 52.1841 52.5924 52.9303 52.627C53.677 52.6676 54.4201 52.7297 55.1641 52.7936C55.908 52.8575 56.65 52.9347 57.3914 53.0252Z" fill="#371A45"/>
<path d="M59.2921 29.9828C59.2921 29.9828 61.2729 34.3488 61.6066 39.3042C61.9466 44.3512 61.4542 51.5257 49.7242 50.5527C45.6124 50.2121 45.8125 48.461 45.6598 46.3958C45.4705 43.8369 45.762 40.8986 48.7477 40.789C54.1403 40.5903 55.7508 39.4126 56.5175 36.0993" fill="white"/>
<g opacity="0.35">
<path d="M61.6511 42.1202C61.423 46.6316 59.383 51.3531 49.7242 50.5527C45.6119 50.2121 45.8119 48.461 45.6595 46.3955C45.5555 44.995 45.5966 43.4807 46.1436 42.3791C46.149 42.6834 46.1643 42.9879 46.187 43.2874C46.3394 45.3518 46.1394 47.1034 50.2509 47.4434C57.6628 48.0582 60.5884 45.4196 61.6511 42.1202Z" fill="#371A45"/>
</g>
<path d="M55.2199 38.3445C55.3092 38.1578 55.4143 37.9857 55.5171 37.8052C55.6199 37.6247 55.731 37.4479 55.8347 37.2602C56.0457 36.8867 56.2387 36.4887 56.4667 36.0865C56.4736 36.0744 56.485 36.0654 56.4984 36.0616C56.5118 36.0578 56.5262 36.0595 56.5384 36.0664C56.5464 36.0706 56.5531 36.0768 56.5581 36.0843C56.563 36.0919 56.566 36.1005 56.5667 36.1095C56.5902 36.5748 56.5445 37.0409 56.431 37.4927C56.3767 37.724 56.2985 37.9491 56.1979 38.1643C56.0936 38.3791 55.9656 38.5878 55.7936 38.7604C55.734 38.8204 55.6552 38.8574 55.571 38.8649C55.4868 38.8723 55.4027 38.8496 55.3335 38.8009C55.2644 38.7521 55.2147 38.6805 55.1933 38.5986C55.1718 38.5167 55.1799 38.4298 55.2163 38.3533L55.2199 38.3445Z" fill="#371A45"/>
<path d="M51.7552 51.0738C51.0968 51.0738 50.4074 51.0441 49.6871 50.9847C45.492 50.6364 45.3716 48.7139 45.2552 46.8539C45.2464 46.7137 45.2376 46.5701 45.2269 46.4281C45.0504 44.0387 45.3923 42.3975 46.2722 41.4137C46.8649 40.7501 47.6916 40.3945 48.729 40.3561C52.16 40.2301 53.97 39.7005 54.9737 38.5285C55.0492 38.4436 55.1548 38.3918 55.268 38.3843C55.3811 38.3767 55.4927 38.414 55.5787 38.488C55.6647 38.562 55.7183 38.667 55.7278 38.7802C55.7374 38.8934 55.7022 39.0058 55.6299 39.0933C54.4502 40.4694 52.46 41.0862 48.7607 41.2221C47.9559 41.2505 47.3524 41.5034 46.9164 41.9916C46.2017 42.7918 45.9311 44.2221 46.0895 46.3629C46.1003 46.5096 46.1093 46.6549 46.1178 46.7983C46.2311 48.6262 46.3079 49.8337 49.7579 50.1192C54.0641 50.476 57.1832 49.7332 59.0303 47.9104C61.2918 45.6788 61.3635 42.1534 61.1731 39.3317C60.8485 34.5106 58.9158 30.2033 58.8963 30.1604C58.8488 30.0558 58.8447 29.9366 58.885 29.829C58.9252 29.7214 59.0065 29.6342 59.1109 29.5867C59.2153 29.5391 59.3343 29.535 59.4417 29.5753C59.5491 29.6156 59.6361 29.6971 59.6836 29.8017C59.7657 29.983 61.7009 34.2966 62.0349 39.2736C62.2375 42.2798 62.1483 46.0486 59.636 48.5269C57.9249 50.2211 55.278 51.0738 51.7552 51.0738Z" fill="#371A45"/>
<path d="M59.9986 47.8913H59.9796C59.865 47.8864 59.7572 47.8361 59.6796 47.7515C59.6021 47.6668 59.5613 47.5548 59.5663 47.44C59.8739 40.3155 55.4868 39.1592 55.3001 39.1135C55.1885 39.0869 55.092 39.017 55.0319 38.9192C54.9717 38.8213 54.9529 38.7035 54.9794 38.5918C55.0059 38.48 55.0757 38.3833 55.1733 38.3231C55.271 38.2628 55.3885 38.2439 55.5001 38.2704C55.5567 38.2835 56.8704 38.6057 58.1348 39.9238C59.2793 41.116 60.6065 43.3967 60.4295 47.4772C60.4246 47.5885 60.3771 47.6937 60.2968 47.7708C60.2166 47.8479 60.1098 47.8911 59.9986 47.8913Z" fill="#371A45"/>
</svg>
