<svg width="68" height="87" viewBox="0 0 68 87" fill="none" xmlns="http://www.w3.org/2000/svg">
<path d="M42.6054 36.2784H26.5856C22.7923 36.2784 19.7172 39.3843 19.7172 43.2157V58.018C19.7172 61.8493 22.7923 64.9553 26.5856 64.9553H42.6054C46.3987 64.9553 49.4738 61.8493 49.4738 58.018V43.2157C49.4738 39.3843 46.3987 36.2784 42.6054 36.2784Z" fill="white"/>
<path d="M42.6054 36.2784C46.3988 36.2784 49.4738 39.3827 49.4738 43.2157V58.018C49.4738 61.8495 46.4003 64.9553 42.6054 64.9553H26.5856C22.7925 64.9553 19.7172 61.8509 19.7172 58.018V43.2157C19.7172 39.3842 22.7925 36.2784 26.5856 36.2784H42.6054ZM42.6054 35.242H26.5856C22.2327 35.242 18.6914 38.8189 18.6914 43.2157V58.018C18.6914 62.4148 22.2327 65.9917 26.5856 65.9917H42.6054C46.9583 65.9917 50.4999 62.4148 50.4999 58.018V43.2157C50.4999 38.8189 46.9583 35.242 42.6054 35.242Z" fill="#371A45"/>
<path d="M51.7022 83.5201C51.696 83.5977 51.6845 83.6729 51.6726 83.7467C51.2675 86.0836 48.4342 86.9167 43.3283 86.2752C41.02 85.9851 37.8288 85.6406 36.9863 83.8696C35.3177 80.3605 36.9966 73.2889 36.8261 68.702C36.8261 68.6656 36.8234 68.6268 36.8208 68.5891C35.4391 68.7376 34.0458 68.7376 32.6641 68.5891C32.6615 68.6268 32.6603 68.6656 32.6591 68.702C32.4883 73.2889 34.1663 80.3605 32.4986 83.8696C31.6561 85.6406 28.4649 85.9851 26.1566 86.2752C21.0507 86.9167 18.2174 86.0836 17.8123 83.7467C17.7996 83.6729 17.788 83.5974 17.78 83.5201C17.4845 80.674 21.6086 79.3525 21.6086 79.3525C21.6086 79.3525 20.8403 73.2955 20.1171 67.8605C18.3457 54.5295 21.3764 43.3151 22.9769 38.5986C23.5003 37.0557 23.8709 36.2085 23.8709 36.2085H45.614C45.614 36.2085 45.8847 36.8276 46.2898 37.9697C47.8098 42.2521 51.2252 53.8952 49.3681 67.8611C48.6458 73.2967 47.8763 79.3531 47.8763 79.3531C47.8763 79.3531 51.9986 80.674 51.7022 83.5201Z" fill="white"/>
<path d="M46.3013 86.9991C45.3921 86.9991 44.3798 86.9294 43.2645 86.7901L43.0401 86.762C40.5539 86.4513 37.4597 86.0642 36.5228 84.0947C35.3768 81.685 35.7122 77.8407 36.0364 74.1226C36.1924 72.3317 36.3405 70.6323 36.3222 69.1572C35.9326 69.187 35.3714 69.2193 34.7411 69.2193C34.1107 69.2193 33.5498 69.1873 33.1603 69.1572C33.142 70.6326 33.29 72.3323 33.4464 74.1223C33.7714 77.8404 34.1057 81.685 32.9596 84.0947C32.0231 86.0648 28.9286 86.4513 26.442 86.762L26.2183 86.7901C20.7616 87.4752 17.7637 86.4815 17.3063 83.8368C17.2906 83.7523 17.2767 83.6613 17.269 83.572C16.9909 80.8907 19.9374 79.4528 21.0462 79.0084C20.8609 77.5538 20.214 72.4943 19.6073 67.9304C18.382 58.7162 19.4755 50.5324 20.61 45.2893C21.8394 39.6018 23.3374 36.1426 23.4007 35.9981C23.4578 35.8759 23.5599 35.781 23.6852 35.7337C23.8105 35.6864 23.9492 35.6904 24.0717 35.745C24.1941 35.7995 24.2906 35.9001 24.3406 36.0255C24.3906 36.1509 24.3901 36.291 24.3393 36.416C24.2802 36.5545 18.3208 50.4604 20.6245 67.791C21.3388 73.1654 22.1086 79.2254 22.1163 79.286L22.1707 79.7149L21.7626 79.8471C21.7259 79.8591 18.0421 81.0769 18.2898 83.4676C18.296 83.5323 18.3049 83.5932 18.3158 83.6523C18.663 85.6582 21.2788 86.3659 26.0915 85.7618L26.3161 85.7337C28.4365 85.4684 31.3401 85.1069 32.0346 83.6461C33.0589 81.4924 32.7362 77.792 32.4241 74.2137C32.2495 72.2114 32.0845 70.3201 32.1454 68.6835V68.6682C32.1454 68.6318 32.1481 68.5936 32.1507 68.5566L32.1865 68.0128L32.7226 68.0763C34.0642 68.2192 35.417 68.2192 36.7587 68.0763L37.2944 68.0128L37.3305 68.5566C37.3335 68.5999 37.3349 68.6444 37.3364 68.6862C37.3973 70.3204 37.2324 72.2117 37.0577 74.214C36.7456 77.7926 36.4229 81.493 37.4472 83.6464C38.1411 85.1057 41.0453 85.469 43.1657 85.734L43.3906 85.7621C48.2031 86.3665 50.8188 85.6585 51.1649 83.6586C51.1776 83.5902 51.1861 83.5294 51.1915 83.4717C51.4397 81.0772 47.7559 79.86 47.7187 79.8474L47.3117 79.7161L47.3655 79.2878C47.3732 79.2281 48.1431 73.1686 48.8574 67.7928C51.1625 50.4473 45.2031 36.5563 45.1425 36.4178C45.0917 36.2928 45.0912 36.1526 45.1412 36.0273C45.1912 35.9019 45.2877 35.8013 45.4102 35.7467C45.5326 35.6922 45.6713 35.6882 45.7966 35.7355C45.922 35.7828 46.0241 35.8777 46.0812 35.9999C46.1444 36.1444 47.6427 39.6036 48.8718 45.2911C50.0052 50.5341 51.099 58.718 49.8743 67.9313C49.2679 72.4955 48.6209 77.5547 48.4356 79.0096C49.5445 79.4528 52.4906 80.8922 52.2125 83.5765C52.2045 83.6601 52.1915 83.7514 52.1747 83.8452C51.8121 85.9409 49.8391 86.9991 46.3013 86.9991Z" fill="#371A45"/>
<g opacity="0.35">
<path d="M32.4971 83.8699C31.6551 85.6412 28.464 85.9848 26.1547 86.2752C21.0488 86.9164 18.2159 86.0836 17.8119 83.7467C21.9913 85.3466 29.3591 84.4332 30.619 82.4034C32.2503 79.7749 32.5148 77.1479 29.9774 73.8728C27.44 70.5977 27.2449 66.3254 27.2449 66.3254C28.4566 67.1853 30.9512 68.1196 32.6584 68.7032C32.4876 73.2889 34.1651 80.3609 32.4971 83.8699Z" fill="#371A45"/>
</g>
<g opacity="0.35">
<path d="M51.6684 83.755C51.2603 86.0833 48.4274 86.9164 43.3286 86.2752C41.019 85.9848 37.8267 85.6412 36.9844 83.8699C35.3043 80.3349 37.0199 73.1809 36.8204 68.5978C38.2336 68.1718 40.8494 67.3005 42.2271 66.3242C42.2271 66.3242 42.9216 69.3987 39.9666 73.5985C37.5826 76.9885 37.4091 79.6857 39.0404 82.3127C40.1971 84.1768 47.0741 84.9424 51.6684 83.755Z" fill="#371A45"/>
</g>
<path d="M43.6404 75.8213C41.8634 75.8213 39.5521 75.4823 36.579 74.5029C36.5329 74.4877 36.4902 74.4635 36.4533 74.4316C36.4165 74.3997 36.3862 74.3608 36.3643 74.3171C36.3423 74.2734 36.3291 74.2258 36.3253 74.1769C36.3216 74.128 36.3274 74.0789 36.3425 74.0323C36.3575 73.9857 36.3815 73.9426 36.4131 73.9054C36.4446 73.8682 36.4832 73.8376 36.5264 73.8154C36.5697 73.7932 36.6168 73.7798 36.6652 73.7761C36.7136 73.7723 36.7622 73.7782 36.8084 73.7934C45.7156 76.7279 48.3228 73.6704 48.3482 73.6394C48.41 73.5643 48.4984 73.5167 48.5944 73.5068C48.6905 73.4968 48.7867 73.5252 48.8623 73.5859C48.9378 73.6467 48.9869 73.7349 48.9988 73.8317C49.0108 73.9285 48.9848 74.0262 48.9263 74.1038C48.8489 74.2032 47.5213 75.8213 43.6404 75.8213Z" fill="#371A45"/>
<path d="M25.4508 76.0393C23.5939 76.0393 21.8131 75.7037 20.6726 74.688C20.6046 74.6213 20.5646 74.5307 20.5608 74.435C20.5571 74.3393 20.5899 74.2458 20.6526 74.1739C20.7152 74.102 20.8028 74.0571 20.8972 74.0486C20.9917 74.0401 21.0858 74.0687 21.16 74.1283C24.1424 76.7849 32.6652 74.0805 32.7509 74.0528C32.7975 74.0366 32.8468 74.03 32.8959 74.0333C32.945 74.0366 32.9929 74.0498 33.0369 74.0721C33.0809 74.0944 33.1201 74.1253 33.152 74.1631C33.184 74.2009 33.2082 74.2447 33.2232 74.2921C33.2381 74.3395 33.2436 74.3894 33.2392 74.4389C33.2348 74.4884 33.2207 74.5365 33.1976 74.5804C33.1745 74.6243 33.143 74.6632 33.1049 74.6946C33.0667 74.726 33.0228 74.7495 32.9756 74.7635C32.7374 74.8408 28.9587 76.0393 25.4508 76.0393Z" fill="#371A45"/>
<path d="M32.5802 69.1014C32.3086 69.0417 32.0725 68.9754 31.8248 68.9029C31.5772 68.8303 31.3393 68.7503 31.1002 68.6659C30.622 68.4975 30.1536 68.3061 29.6949 68.0916C29.4641 67.9889 29.2404 67.8695 29.0152 67.7569C28.7945 67.6331 28.5696 67.5181 28.355 67.3841C27.9179 67.131 27.5045 66.8373 27.0993 66.5367C27.0465 66.4971 27.0108 66.4385 26.9995 66.3731C26.9883 66.3077 27.0023 66.2404 27.0387 66.1851C27.0752 66.1298 27.1313 66.0908 27.1954 66.0761C27.2595 66.0613 27.3268 66.072 27.3833 66.106L27.3928 66.1119C27.8047 66.3645 28.2202 66.6086 28.6576 66.8131C28.8716 66.9227 29.0959 67.0128 29.3146 67.1116C29.5389 67.1997 29.7597 67.2937 29.9872 67.3719C30.4385 67.5367 30.8977 67.679 31.3614 67.7978C31.5931 67.8575 31.8256 67.9116 32.0589 67.9599C32.2885 68.0062 32.5317 68.0495 32.7451 68.0793H32.754C32.8891 68.0965 33.012 68.1673 33.0955 68.276C33.179 68.3847 33.2164 68.5225 33.1993 68.659C33.1823 68.7955 33.1122 68.9196 33.0046 69.004C32.897 69.0883 32.7606 69.126 32.6254 69.1088C32.61 69.1073 32.5947 69.1046 32.5802 69.1014Z" fill="#371A45"/>
<path d="M36.728 68.0787C36.9404 68.0516 37.1846 68.0068 37.4142 67.9593C37.6438 67.9119 37.8796 67.8569 38.1113 67.7972C38.575 67.6779 39.0343 67.5361 39.4855 67.3713C39.7131 67.2931 39.9342 67.1991 40.1585 67.111C40.3772 67.0119 40.6018 66.9218 40.8154 66.8125C41.2525 66.6081 41.668 66.3648 42.08 66.1114L42.0886 66.106C42.145 66.0719 42.2123 66.0611 42.2764 66.0757C42.3406 66.0903 42.3967 66.1292 42.4333 66.1844C42.4699 66.2396 42.484 66.3068 42.4729 66.3723C42.4618 66.4378 42.4262 66.4964 42.3735 66.5361C41.9686 66.8367 41.5549 67.1304 41.1178 67.3835C40.9032 67.5182 40.6783 67.6325 40.4575 67.7564C40.2318 67.8689 40.008 67.9883 39.7778 68.091C39.3196 68.3051 38.8511 68.4965 38.3726 68.6653C38.1334 68.7496 37.892 68.8286 37.6482 68.9023C37.4003 68.9748 37.1645 69.0414 36.8926 69.1008C36.8266 69.1152 36.7584 69.1164 36.692 69.1042C36.6256 69.092 36.5622 69.0667 36.5055 69.0298C36.4487 68.9929 36.3997 68.945 36.3613 68.889C36.3228 68.833 36.2957 68.7698 36.2814 68.7032C36.2671 68.6365 36.266 68.5677 36.278 68.5006C36.2901 68.4335 36.3151 68.3695 36.3517 68.3122C36.3882 68.2549 36.4356 68.2054 36.4911 68.1666C36.5466 68.1277 36.6091 68.1003 36.6751 68.0859C36.6895 68.0829 36.7046 68.0802 36.7185 68.0784L36.728 68.0787Z" fill="#371A45"/>
<path d="M21.5196 78.8418C21.8615 78.8087 22.173 78.7952 22.4975 78.7893C22.822 78.7833 23.1391 78.7857 23.4586 78.7982C24.0969 78.8221 24.7332 78.8845 25.3641 78.9851C25.9918 79.092 26.61 79.2487 27.2133 79.4537C27.807 79.6691 28.3726 79.9563 28.8978 80.3092C28.3392 80.0363 27.75 79.8329 27.1429 79.7032C26.5394 79.5875 25.9277 79.5198 25.3136 79.5009C24.7019 79.4889 24.0901 79.5137 23.4813 79.5752C23.1775 79.6054 22.8753 79.6445 22.5746 79.6925C22.2791 79.7391 21.9691 79.797 21.6948 79.8626L21.6875 79.8644C21.6212 79.8817 21.5522 79.8855 21.4846 79.8755C21.4169 79.8655 21.3518 79.842 21.2932 79.8063C21.2347 79.7707 21.1837 79.7236 21.1434 79.6678C21.103 79.612 21.0741 79.5486 21.0583 79.4814C21.0424 79.4142 21.04 79.3445 21.0512 79.2763C21.0624 79.2081 21.0869 79.1429 21.1234 79.0844C21.1598 79.026 21.2074 78.9754 21.2634 78.9358C21.3194 78.8961 21.3827 78.8681 21.4496 78.8534C21.4726 78.8479 21.496 78.8441 21.5196 78.8418Z" fill="#371A45"/>
<path d="M47.7888 79.8626C47.5145 79.7969 47.2057 79.739 46.9087 79.6925C46.6117 79.6459 46.3058 79.6053 46.002 79.5752C45.3932 79.5137 44.7814 79.4888 44.1697 79.5008C43.5555 79.5198 42.9437 79.5874 42.3401 79.7032C41.733 79.8329 41.1438 80.0363 40.5852 80.3092C41.1104 79.9563 41.676 79.669 42.2697 79.4537C42.873 79.2486 43.4912 79.0919 44.1189 78.985C44.7497 78.8845 45.3859 78.8221 46.0241 78.7982C46.3439 78.7857 46.6643 78.7821 46.9855 78.7892C47.3067 78.7964 47.6215 78.8086 47.9631 78.8418C48.0308 78.8477 48.0967 78.8671 48.1569 78.8989C48.2171 78.9307 48.2705 78.9742 48.314 79.027C48.3575 79.0797 48.3902 79.1406 48.4102 79.2062C48.4302 79.2718 48.4372 79.3407 48.4307 79.409C48.4243 79.4774 48.4045 79.5437 48.3725 79.6043C48.3405 79.6648 48.2969 79.7183 48.2443 79.7618C48.1917 79.8052 48.1311 79.8377 48.066 79.8574C48.0009 79.877 47.9326 79.8835 47.865 79.8763C47.8425 79.8741 47.8202 79.8704 47.7982 79.8653L47.7888 79.8626Z" fill="#371A45"/>
<g opacity="0.35">
<path d="M27.2449 66.3254C27.2449 66.3254 27.1814 65.2057 27.6548 65.3421C28.9794 65.7239 29.7696 67.071 34.5439 67.1191C39.3182 67.1671 40.8881 64.9977 41.8394 65.4069C42.2407 65.5794 42.2271 66.3254 42.2271 66.3254C42.2271 66.3254 39.1509 68.6861 34.6092 68.5912C29.9537 68.4927 27.2449 66.3254 27.2449 66.3254Z" fill="#371A45"/>
</g>
<path d="M27.7851 59.1335C25.9591 59.8797 23.1329 59.7239 21.2063 59.4887C20.9321 59.455 20.6673 59.3662 20.4275 59.2274C20.1878 59.0887 19.978 58.9028 19.8106 58.6809C19.6431 58.4589 19.5214 58.2053 19.4526 57.935C19.3837 57.6648 19.3692 57.3833 19.4098 57.1073C19.4845 56.5949 19.7449 56.1288 20.1406 55.7994C20.5363 55.4699 21.039 55.3007 21.5512 55.3244C23.354 55.4098 26.0563 55.4498 27.7683 55.0662" fill="white"/>
<g opacity="0.35">
<path d="M27.7858 59.1332C25.9597 59.8794 23.1324 59.7248 21.2061 59.4884C20.9318 59.4547 20.667 59.3658 20.4273 59.2271C20.1875 59.0883 19.9777 58.9025 19.8103 58.6805C19.6428 58.4585 19.5211 58.2048 19.4523 57.9345C19.3834 57.6642 19.3689 57.3827 19.4096 57.1067C19.4442 56.8653 19.5211 56.6321 19.6369 56.4181C19.7935 56.712 20.0179 56.9636 20.291 57.1516C20.5641 57.3396 20.878 57.4585 21.2061 57.4983C23.1297 57.7332 25.9518 57.8896 27.7778 57.1458L27.7858 59.1332Z" fill="#371A45"/>
</g>
<path d="M24.1555 60.1307C23.1007 60.1307 22.0516 60.0412 21.1532 59.9331C20.4983 59.8656 19.8958 59.5412 19.4754 59.0296C19.0549 58.518 18.8501 57.8601 18.905 57.1975C18.9599 56.535 19.2701 55.9206 19.7688 55.4867C20.2676 55.0528 20.9151 54.8339 21.5719 54.8772C23.4524 54.9668 26.0371 54.9966 27.6723 54.6289C27.9164 54.574 28.5237 54.5749 28.8878 55.7575C29.2637 56.9783 29.2262 59.0275 27.9516 59.5484L27.7852 59.1332L27.9516 59.5484C26.8862 59.9842 25.5164 60.1307 24.1555 60.1307ZM21.4526 55.7697C21.0344 55.764 20.6302 55.9213 20.3239 56.2088C20.0176 56.4964 19.8328 56.8921 19.808 57.3137C19.7831 57.7354 19.9201 58.1504 20.1904 58.4727C20.4608 58.7949 20.8437 58.9995 21.2596 59.0439C23.2136 59.2827 25.9029 59.42 27.6188 58.7186C28.0591 58.5395 28.1673 57.8183 28.1933 57.5168C28.2766 56.5521 27.9752 55.696 27.8002 55.5169C26.0684 55.89 23.4409 55.8617 21.5303 55.7712C21.5043 55.7703 21.4783 55.7697 21.4526 55.7697Z" fill="#371A45"/>
<g opacity="0.35">
<path d="M49.6039 61.0916C47.7557 61.314 45.1662 61.4692 43.2172 60.9525V61.9077C43.2155 62.5442 42.9644 63.1541 42.5188 63.6042C42.0732 64.0543 41.4693 64.3079 40.8391 64.3096H27.8576C27.2274 64.3081 26.6234 64.0545 26.1778 63.6044C25.7321 63.1543 25.4811 62.5442 25.4795 61.9077V54.7874C25.4812 54.1509 25.7323 53.541 26.1779 53.091C26.6236 52.6409 27.2275 52.3874 27.8576 52.3857H40.8391C41.1514 52.3853 41.4607 52.4471 41.7494 52.5676C42.038 52.688 42.3003 52.8648 42.5212 53.0879C42.7421 53.3109 42.9173 53.5757 43.0367 53.8672C43.1562 54.1586 43.2175 54.471 43.2172 54.7865V56.3924C45.0616 56.661 47.5355 56.6184 49.2573 56.5375C49.2791 56.5375 49.3001 56.5375 49.3211 56.5375C49.4624 58.035 49.562 59.5615 49.6039 61.0916Z" fill="#371A45"/>
</g>
<path d="M41.7528 59.1335C43.5792 59.8797 46.405 59.7239 48.3319 59.4887C48.6062 59.455 48.871 59.3662 49.1107 59.2274C49.3504 59.0887 49.5602 58.9028 49.7277 58.6809C49.8951 58.4589 50.0169 58.2053 50.0857 57.935C50.1545 57.6648 50.169 57.3833 50.1284 57.1073C50.0537 56.5949 49.7933 56.1288 49.3976 55.7994C49.002 55.4699 48.4993 55.3007 47.987 55.3244C46.1843 55.4098 43.482 55.4498 41.7699 55.0662" fill="white"/>
<g opacity="0.35">
<path d="M48.3325 59.4899C46.4048 59.7263 43.5786 59.8815 41.7526 59.1346L41.7608 57.1515C43.5869 57.8953 46.4075 57.7386 48.3325 57.5037C48.6611 57.4634 48.9752 57.344 49.2486 57.1555C49.5219 56.9671 49.7464 56.7151 49.9033 56.4207C50.0632 56.7204 50.1483 57.0549 50.1512 57.3953C50.1541 57.7357 50.0747 58.0717 49.9199 58.374C49.7652 58.6764 49.5397 58.9361 49.2631 59.1306C48.9865 59.325 48.667 59.4483 48.3325 59.4899Z" fill="#371A45"/>
</g>
<path d="M45.3828 60.1307C44.0219 60.1307 42.6522 59.9842 41.5865 59.5487C40.3121 59.0275 40.2746 56.9783 40.6502 55.7578C41.0143 54.5746 41.6222 54.5746 41.866 54.6292C43.5015 54.9957 46.0862 54.9665 47.9664 54.8775C48.6233 54.8342 49.2707 55.053 49.7695 55.487C50.2683 55.9209 50.5785 56.5352 50.6333 57.1978C50.6882 57.8604 50.4834 58.5182 50.0629 59.0298C49.6425 59.5414 49.04 59.8659 48.3851 59.9334C47.4867 60.0427 46.4373 60.1307 45.3828 60.1307ZM41.7381 55.5172C41.5631 55.6963 41.2617 56.5521 41.345 57.5171C41.371 57.8186 41.4792 58.5389 41.9192 58.7188C43.6357 59.4206 46.325 59.2833 48.2787 59.0442C48.7084 59.0079 49.1061 58.8007 49.3845 58.4682C49.6629 58.1357 49.7991 57.7051 49.7632 57.2712C49.7273 56.8372 49.5221 56.4355 49.1929 56.1543C48.8637 55.8731 48.4374 55.7355 48.0077 55.7718C46.0971 55.862 43.4699 55.8903 41.7381 55.5172Z" fill="#371A45"/>
<path d="M42.4585 53.7218V60.2406C42.4569 60.8232 42.2271 61.3814 41.8194 61.7935C41.4116 62.2055 40.8591 62.4379 40.2823 62.4399H28.3966C27.8198 62.4382 27.267 62.2058 26.8592 61.7937C26.4514 61.3816 26.2217 60.8232 26.2203 60.2406V53.7218C26.222 53.1393 26.4518 52.5812 26.8596 52.1693C27.2673 51.7574 27.8199 51.5253 28.3966 51.5237H40.2823C40.8593 51.5241 41.4126 51.7559 41.8206 52.168C42.2286 52.5801 42.4581 53.1389 42.4585 53.7218Z" fill="white"/>
<g opacity="0.35">
<path d="M42.4585 53.7218V60.2406C42.4569 60.8232 42.2271 61.3814 41.8194 61.7935C41.4116 62.2055 40.8591 62.4379 40.2823 62.4399H28.3966C27.8198 62.4381 27.267 62.2058 26.8592 61.7937C26.4514 61.3816 26.2217 60.8232 26.2203 60.2406V58.0463C28.271 59.1926 32.3337 60.9143 36.4108 59.4937C38.4027 58.7994 40.6862 56.4193 40.6862 56.4193C40.6862 56.4193 40.7749 58.9162 41.1411 58.8768C42.1609 58.7672 42.1533 53.7149 42.3462 53.0263C42.4205 53.2505 42.4584 53.4853 42.4585 53.7218Z" fill="#371A45"/>
</g>
<path d="M40.2808 62.9575H28.3964C27.6834 62.9566 26.9998 62.6701 26.4957 62.1609C25.9915 61.6517 25.7079 60.9613 25.707 60.2412V53.7218C25.7078 53.0016 25.9914 52.3112 26.4956 51.8019C26.9998 51.2927 27.6833 51.0063 28.3964 51.0055H40.2808C40.9938 51.0063 41.6774 51.2927 42.1816 51.8019C42.6858 52.3112 42.9694 53.0016 42.9701 53.7218V60.2412C42.9693 60.9613 42.6857 61.6517 42.1815 62.1609C41.6773 62.6701 40.9938 62.9566 40.2808 62.9575ZM28.3964 52.0418C27.9553 52.0422 27.5325 52.2194 27.2206 52.5343C26.9087 52.8493 26.7333 53.2763 26.7328 53.7218V60.2412C26.7334 60.6866 26.9088 61.1136 27.2207 61.4286C27.5325 61.7435 27.9554 61.9206 28.3964 61.9211H40.2808C40.7218 61.9205 41.1445 61.7434 41.4563 61.4284C41.7681 61.1135 41.9435 60.6865 41.9441 60.2412V53.7218C41.9436 53.2764 41.7682 52.8494 41.4564 52.5344C41.1446 52.2195 40.7218 52.0423 40.2808 52.0418H28.3964Z" fill="#371A45"/>
<path d="M38.5495 58.8771C39.5861 58.8771 40.4264 58.0283 40.4264 56.9813C40.4264 55.9343 39.5861 55.0856 38.5495 55.0856C37.5129 55.0856 36.6726 55.9343 36.6726 56.9813C36.6726 58.0283 37.5129 58.8771 38.5495 58.8771Z" fill="#22A7F0"/>
<path d="M40.4285 56.9825C40.4287 57.1089 40.4163 57.235 40.3915 57.3589C40.3058 56.9298 40.0757 56.5439 39.7403 56.2666C39.4049 55.9894 38.9848 55.8379 38.5514 55.8379C38.118 55.8379 37.698 55.9894 37.3625 56.2666C37.0271 56.5439 36.797 56.9298 36.7113 57.3589C36.6593 57.0993 36.6618 56.8315 36.7185 56.5729C36.7753 56.3143 36.885 56.0706 37.0408 55.8574C37.1965 55.6443 37.3947 55.4664 37.6226 55.3354C37.8505 55.2044 38.1031 55.123 38.364 55.0966C38.625 55.0701 38.8885 55.0992 39.1376 55.182C39.3868 55.2647 39.616 55.3993 39.8105 55.577C40.005 55.7546 40.1605 55.9715 40.2669 56.2136C40.3734 56.4557 40.4284 56.7176 40.4285 56.9825Z" fill="white"/>
<g opacity="0.35">
<path d="M40.4264 56.9825C40.4263 57.253 40.3689 57.5204 40.258 57.7666C40.1471 58.0128 39.9853 58.2323 39.7835 58.4101C39.5817 58.588 39.3446 58.7201 39.088 58.7977C38.8314 58.8753 38.5614 58.8966 38.296 58.8601C38.0306 58.8235 37.7761 58.73 37.5494 58.5859C37.3228 58.4418 37.1293 58.2503 36.982 58.0244C36.8347 57.7985 36.737 57.5433 36.6954 57.2761C36.6538 57.0089 36.6693 56.7357 36.7409 56.4751C36.851 56.8741 37.0875 57.2257 37.4141 57.4762C37.7407 57.7267 38.1396 57.8623 38.5497 57.8623C38.9598 57.8623 39.3586 57.7267 39.6852 57.4762C40.0119 57.2257 40.2483 56.8741 40.3585 56.4751C40.4036 56.6404 40.4264 56.811 40.4264 56.9825Z" fill="#371A45"/>
</g>
<path d="M38.5498 59.2657C38.1025 59.2655 37.6653 59.1313 37.2935 58.88C36.9217 58.6288 36.632 58.2719 36.461 57.8544C36.2901 57.4369 36.2455 56.9776 36.333 56.5345C36.4205 56.0914 36.6361 55.6845 36.9526 55.3652C37.269 55.0459 37.6722 54.8285 38.1109 54.7406C38.5497 54.6527 39.0044 54.6982 39.4176 54.8713C39.8308 55.0444 40.1839 55.3374 40.4322 55.7132C40.6805 56.089 40.8129 56.5307 40.8127 56.9825C40.8117 57.5881 40.5729 58.1686 40.1486 58.5967C39.7244 59.0247 39.1494 59.2653 38.5498 59.2657ZM38.5498 55.4748C38.2547 55.4748 37.9662 55.5631 37.7208 55.7287C37.4753 55.8942 37.284 56.1296 37.1711 56.405C37.0581 56.6803 37.0285 56.9834 37.086 57.2758C37.1436 57.5681 37.2857 57.8367 37.4943 58.0475C37.703 58.2583 37.9689 58.4019 38.2583 58.46C38.5478 58.5182 38.8478 58.4884 39.1205 58.3743C39.3931 58.2603 39.6262 58.0671 39.7902 57.8192C39.9541 57.5714 40.0417 57.28 40.0417 56.9819C40.0413 56.5823 39.8841 56.1991 39.6044 55.9165C39.3247 55.6338 38.9455 55.4748 38.5498 55.4742V55.4748Z" fill="#371A45"/>
<path d="M33.2309 62.9575C33.0948 62.9575 32.9643 62.9029 32.8681 62.8057C32.7719 62.7085 32.7178 62.5767 32.7178 62.4393V59.1018C32.717 58.7748 32.6414 58.4525 32.4969 58.1599C32.3524 57.8673 32.1429 57.6124 31.8847 57.415L31.5827 57.1858C31.198 56.8915 30.8858 56.5114 30.6705 56.0752C30.4552 55.639 30.3426 55.1584 30.3415 54.671V51.5237C30.3398 51.4546 30.3519 51.3859 30.3769 51.3216C30.4019 51.2573 30.4395 51.1987 30.4872 51.1492C30.535 51.0998 30.5921 51.0605 30.6552 51.0337C30.7182 51.0069 30.7859 50.993 30.8543 50.993C30.9228 50.993 30.9905 51.0069 31.0535 51.0337C31.1166 51.0605 31.1737 51.0998 31.2214 51.1492C31.2692 51.1987 31.3068 51.2573 31.3318 51.3216C31.3568 51.3859 31.3689 51.4546 31.3672 51.5237V54.6719C31.3681 54.9989 31.4437 55.3212 31.5882 55.6138C31.7327 55.9064 31.9422 56.1613 32.2003 56.3587L32.5024 56.5882C32.8871 56.8824 33.1994 57.2624 33.4147 57.6986C33.63 58.1348 33.7426 58.6153 33.7436 59.1027V62.4393C33.7436 62.5073 33.7304 62.5747 33.7047 62.6376C33.6789 62.7004 33.6411 62.7576 33.5935 62.8057C33.5459 62.8538 33.4894 62.892 33.4271 62.918C33.3649 62.9441 33.2982 62.9575 33.2309 62.9575Z" fill="#371A45"/>
<path d="M25.5814 40.7289C25.5814 40.7289 26.7721 44.9234 30.8501 50.3303C33.6742 54.0749 36.7991 55.7351 35.8507 59.9343C35.2712 62.5014 32.7571 63.4986 29.2823 62.3285C24.3857 60.6803 22.9541 55.2321 22.9541 53.9976" fill="white"/>
<g opacity="0.35">
<path d="M35.8505 59.9349C35.2719 62.4996 32.7575 63.4989 29.2818 62.3288C24.3857 60.6806 22.9545 55.2321 22.9545 53.9964C23.0313 53.6083 23.5571 53.5537 23.7131 53.9179C24.5781 55.9393 26.2777 58.3813 29.2818 59.3929C32.7265 60.5522 35.2272 59.5821 35.8337 57.067C36.0677 57.9025 36.1002 58.8314 35.8505 59.9349Z" fill="#371A45"/>
</g>
<path d="M25.7457 40.6812C26.2481 41.4038 26.634 42.1566 27.0076 42.9184L27.5729 44.0577L27.8552 44.6291L28.1468 45.1962C28.3389 45.5759 28.5547 45.9424 28.7648 46.3132C28.9891 46.6749 29.2025 47.0436 29.4377 47.3985C29.673 47.7534 29.8982 48.1149 30.144 48.4626L30.5067 48.9886L30.8829 49.505C31.3765 50.1942 31.9042 50.8579 32.464 51.4935C33.0213 52.1359 33.608 52.7624 34.1834 53.4221C34.7587 54.0818 35.3265 54.779 35.7745 55.5942C36.0026 56.0058 36.1841 56.4421 36.3156 56.8948C36.4461 57.3528 36.5184 57.8257 36.5307 58.3022C36.5413 58.771 36.5039 59.2398 36.4193 59.7009L36.3514 60.0406L36.2538 60.3898L36.2036 60.5641L36.1347 60.7346C36.0872 60.8474 36.044 60.962 35.9911 61.0728C35.7659 61.518 35.464 61.9192 35.0995 62.2575C34.7246 62.5795 34.2984 62.8351 33.8391 63.0136C32.9247 63.3419 31.9666 63.3834 31.0611 63.2754C30.8368 63.2384 30.6107 63.2067 30.3882 63.1637C30.1689 63.1109 29.9469 63.0646 29.73 63.0055C29.5152 62.9399 29.3 62.8775 29.0857 62.8082C28.8733 62.7279 28.6566 62.6572 28.4498 62.5614C27.612 62.2024 26.8336 61.7158 26.1417 61.1187C25.4559 60.5251 24.8517 59.8417 24.3449 59.0866C24.092 58.7129 23.86 58.3253 23.6501 57.9255C23.4432 57.5258 23.2345 57.1249 23.059 56.7079C22.8827 56.2894 22.7564 55.8511 22.6828 55.4023C22.6472 55.1736 22.6335 54.942 22.6417 54.7107C22.6565 54.4755 22.6834 54.2364 22.7809 53.9967C22.7901 53.974 22.8036 53.9535 22.8206 53.9361C22.8377 53.9187 22.858 53.905 22.8803 53.8955C22.9027 53.8861 22.9267 53.8812 22.9509 53.8812C22.9751 53.8811 22.9991 53.8859 23.0215 53.8952C23.0613 53.9115 23.094 53.9415 23.114 53.98L23.1228 53.9967C23.3185 54.369 23.4934 54.7522 23.6465 55.1444C23.791 55.5301 23.9385 55.9136 24.0774 56.3014C24.2163 56.6891 24.3673 57.0754 24.5582 57.4416C24.7489 57.8067 24.9603 58.1604 25.1913 58.501C25.6467 59.1803 26.1899 59.7952 26.8063 60.3295C27.4197 60.8593 28.1099 61.2909 28.8529 61.6092C29.0355 61.6945 29.2279 61.756 29.4159 61.828L30.0013 62.0071C30.1975 62.0602 30.3958 62.1011 30.5924 62.1492C30.7904 62.1874 30.989 62.2142 31.187 62.2482C31.979 62.3438 32.7769 62.2963 33.4815 62.0441C33.8226 61.9103 34.1397 61.7208 34.4201 61.4832C34.6859 61.2334 34.9069 60.9389 35.0732 60.6128C35.3817 59.9543 35.5218 59.1069 35.5061 58.3332C35.4884 57.55 35.2641 56.796 34.8776 56.0972C34.491 55.3984 33.9688 54.7468 33.4135 54.108C32.8582 53.4692 32.2659 52.8379 31.6941 52.1792C31.1222 51.5204 30.5607 50.83 30.0583 50.1219C29.024 48.7157 28.0886 47.2382 27.2212 45.7171C26.778 44.9622 26.3698 44.1825 26.0391 43.3667C25.7084 42.5509 25.4294 41.7068 25.4185 40.7776C25.4182 40.7395 25.4299 40.7024 25.4519 40.6715C25.4739 40.6406 25.5051 40.6176 25.541 40.6058C25.5768 40.594 25.6154 40.5941 25.6512 40.606C25.687 40.6179 25.7181 40.641 25.7401 40.6719L25.7457 40.6812Z" fill="#371A45"/>
<path d="M44.1396 40.7289C44.1396 40.7289 42.9489 44.9231 38.8708 50.3303C36.0471 54.0749 32.9218 55.7351 33.8705 59.9343C34.4497 62.5014 36.9641 63.4986 40.4386 62.3285C45.3353 60.6803 46.7668 55.2321 46.7668 53.997" fill="white"/>
<g opacity="0.35">
<path d="M46.7665 53.9976C46.7665 55.2333 45.3356 60.6817 40.4392 62.33C36.9635 63.5001 34.4494 62.5008 33.8708 59.9361C33.6438 58.9308 33.6497 58.0723 33.8309 57.295C33.843 57.3568 33.8563 57.4186 33.8708 57.4816C34.4494 60.0486 36.9635 61.0456 40.4392 59.8755C43.672 58.7869 45.3938 56.0426 46.1905 53.9483C46.299 53.6636 46.7074 53.6985 46.7665 53.9976Z" fill="#371A45"/>
</g>
<path d="M44.3039 40.7764C44.2923 41.7056 44.0178 42.5524 43.6832 43.3655C43.3487 44.1786 42.9444 44.961 42.5011 45.7159C41.6331 47.2382 40.6984 48.7145 39.664 50.1207C39.1616 50.8288 38.6001 51.5237 38.0283 52.178C37.4564 52.8323 36.8656 53.4681 36.3089 54.1068C35.7521 54.7456 35.2272 55.3948 34.843 56.096C34.4589 56.7972 34.2325 57.5488 34.2144 58.332C34.1988 59.1057 34.3389 59.9531 34.6474 60.6116C34.8138 60.9377 35.0349 61.2322 35.3008 61.482C35.5811 61.7196 35.898 61.9091 36.2391 62.0429C36.9437 62.2951 37.7416 62.3414 38.5336 62.2471C38.7316 62.213 38.9302 62.1874 39.1282 62.148C39.3253 62.0999 39.5234 62.0584 39.7193 62.0059L40.3047 61.8268C40.4927 61.7548 40.6851 61.6933 40.8662 61.608C41.6083 61.2901 42.2977 60.8592 42.9104 60.3301C43.5269 59.7958 44.0701 59.1808 44.5258 58.5016C44.7566 58.1609 44.9678 57.8072 45.1585 57.4422C45.3494 57.0759 45.4993 56.6891 45.6393 56.302C45.7794 55.9148 45.9257 55.5306 46.0702 55.145C46.2234 54.7528 46.3982 54.3696 46.5939 53.9973L46.6028 53.9809C46.6191 53.9495 46.644 53.9236 46.6744 53.906C46.7049 53.8885 46.7396 53.8801 46.7746 53.8818C46.8096 53.8835 46.8434 53.8953 46.8721 53.9158C46.9007 53.9362 46.9229 53.9645 46.9361 53.9973C47.0334 54.2361 47.0603 54.4749 47.075 54.7113C47.0836 54.9426 47.0698 55.1742 47.034 55.4029C46.9604 55.8516 46.8341 56.2899 46.6578 56.7085C46.4825 57.1264 46.2736 57.5264 46.0667 57.9261C45.8565 58.3258 45.6245 58.7135 45.3716 59.0872C44.8648 59.8423 44.2605 60.5257 43.5748 61.1193C42.8829 61.7164 42.1045 62.2029 41.2667 62.562C41.0598 62.6578 40.8435 62.7285 40.6307 62.8088C40.4164 62.8781 40.2013 62.9405 39.9867 63.0061C39.7695 63.0658 39.5476 63.1115 39.3283 63.1643C39.1058 63.2073 38.8797 63.239 38.6554 63.276C37.7508 63.384 36.7935 63.3431 35.8774 63.0142C35.4181 62.8357 34.9919 62.5801 34.617 62.2581C34.2524 61.9198 33.9505 61.5186 33.7253 61.0734C33.6724 60.9626 33.6293 60.848 33.5817 60.7352L33.5129 60.5647L33.4626 60.3904L33.3651 60.0412L33.2974 59.7015C33.2126 59.2404 33.1751 58.7716 33.1857 58.3028C33.1982 57.8263 33.2706 57.3534 33.4011 56.8954C33.5324 56.4427 33.7138 56.0064 33.942 55.5948C34.39 54.7796 34.961 54.083 35.5331 53.4227C36.1053 52.7624 36.6951 52.1365 37.2525 51.4941C37.8122 50.8585 38.3399 50.1948 38.8336 49.5055L39.2098 48.9892L39.5724 48.4632C39.8183 48.1155 40.0453 47.7561 40.279 47.3991C40.5128 47.0421 40.7273 46.6755 40.9517 46.3138C41.1621 45.9436 41.3775 45.5765 41.5696 45.1968L41.8616 44.6297L42.1435 44.0583L42.7104 42.9187C43.0836 42.1569 43.471 41.4041 43.972 40.6815L43.9785 40.6719C44.0003 40.6408 44.0313 40.6175 44.0672 40.6054C44.103 40.5933 44.1417 40.5931 44.1776 40.6048C44.2136 40.6165 44.2449 40.6395 44.267 40.6704C44.2891 40.7013 44.3009 40.7385 44.3006 40.7767L44.3039 40.7764Z" fill="#371A45"/>
<path d="M53.3964 25.8278C53.2906 25.8318 53.1875 25.7931 53.1099 25.7203C53.0323 25.6476 52.9865 25.5466 52.9826 25.4398L52.5689 13.8331C52.565 13.7263 52.6032 13.6222 52.6753 13.5438C52.7473 13.4655 52.8473 13.4192 52.9531 13.4153C53.5029 13.3951 54.0513 13.4845 54.567 13.6785C55.0826 13.8724 55.5553 14.1671 55.9581 14.5457C56.361 14.9243 56.686 15.3793 56.9146 15.8848C57.1432 16.3903 57.271 16.9364 57.2906 17.4918L57.4315 21.4495C57.4712 22.5706 57.0684 23.6616 56.3116 24.4827C55.5549 25.3038 54.5063 25.7876 53.3964 25.8278Z" fill="white"/>
<path d="M53.3823 25.9212C53.2552 25.921 53.1331 25.8712 53.0416 25.7822C52.9501 25.6932 52.8961 25.5719 52.8911 25.4437L52.4774 13.837C52.4728 13.7056 52.52 13.5778 52.6087 13.4815C52.6973 13.3852 52.8201 13.3283 52.9502 13.3233C55.3088 13.243 57.2966 15.1059 57.3814 17.4882L57.5221 21.4462C57.5423 22.0136 57.4517 22.5794 57.2554 23.1114C57.0591 23.6434 56.761 24.1311 56.3781 24.5467C55.9952 24.9623 55.535 25.2976 55.0237 25.5336C54.5125 25.7695 53.9602 25.9015 53.3985 25.9218H53.3808L53.3823 25.9212ZM53.1068 13.5057C53.0572 13.5057 53.0078 13.5057 52.9591 13.5084C52.8778 13.5115 52.8011 13.547 52.7457 13.6072C52.6903 13.6673 52.6607 13.7472 52.6635 13.8293L53.0773 25.4362C53.0804 25.5183 53.1156 25.5959 53.1752 25.6518C53.2348 25.7078 53.3139 25.7376 53.3953 25.7347C53.9328 25.7153 54.4613 25.5891 54.9505 25.3634C55.4398 25.1376 55.8802 24.8168 56.2467 24.4191C56.6131 24.0214 56.8984 23.5547 57.0863 23.0456C57.2741 22.5366 57.3608 21.9951 57.3415 21.4522L57.2008 17.4942C57.1195 15.2647 55.2985 13.5057 53.1068 13.5057Z" fill="#371A45"/>
<g opacity="0.35">
<path d="M57.3654 19.5929L57.4319 21.4489C57.4714 22.5701 57.0685 23.6613 56.3118 24.4826C55.5551 25.3038 54.5064 25.788 53.3964 25.8287C53.2906 25.8325 53.1877 25.7938 53.1101 25.7211C53.0326 25.6483 52.9867 25.5475 52.9827 25.4407L52.8718 22.3551C52.9057 22.4249 52.9588 22.4833 53.0246 22.5234C53.0905 22.5634 53.1664 22.5835 53.2433 22.5811L53.5158 22.5704C54.3841 22.5391 55.2212 22.2357 55.911 21.7021C56.6008 21.1686 57.1091 20.4314 57.3654 19.5929Z" fill="#371A45"/>
</g>
<path d="M53.3819 26.3463C53.1458 26.3459 52.919 26.2531 52.7491 26.0875C52.5792 25.9219 52.4793 25.6963 52.4705 25.458L52.0576 13.8502C52.0532 13.7292 52.0725 13.6085 52.1143 13.495C52.1561 13.3815 52.2196 13.2774 52.3012 13.1887C52.3828 13.1 52.4809 13.0284 52.5899 12.978C52.6989 12.9276 52.8167 12.8994 52.9365 12.895C55.5251 12.8033 57.7105 14.8531 57.8033 17.4697L57.9443 21.4277C57.9665 22.0509 57.8669 22.6723 57.6513 23.2566C57.4356 23.8409 57.1082 24.3765 56.6876 24.833C56.267 25.2895 55.7615 25.6578 55.2 25.9169C54.6385 26.1761 54.0319 26.321 53.415 26.3433L53.3819 26.3463ZM53.0872 13.9308L53.4918 25.3034C54.4449 25.2392 55.3357 24.8028 55.9757 24.0866C56.6156 23.3704 56.9543 22.4306 56.92 21.4665L56.7793 17.5085C56.7437 16.5483 56.3413 15.6394 55.6566 14.9724C54.9719 14.3053 54.0581 13.932 53.1068 13.9308H53.0872Z" fill="#371A45"/>
<path d="M15.0248 14.7916C15.1306 14.7877 15.2336 14.8263 15.3112 14.8991C15.3888 14.9719 15.4346 15.0728 15.4385 15.1797L15.8523 26.7863C15.8562 26.8932 15.8179 26.9972 15.7459 27.0756C15.6738 27.154 15.5739 27.2002 15.4681 27.2042C14.9183 27.2244 14.37 27.135 13.8545 26.9411C13.3389 26.7472 12.8662 26.4526 12.4634 26.0741C12.0606 25.6957 11.7356 25.2408 11.5069 24.7354C11.2782 24.2301 11.1503 23.6841 11.1306 23.1288L10.9896 19.1708C10.9498 18.0496 11.3526 16.9584 12.1093 16.1372C12.866 15.3159 13.9148 14.8319 15.0248 14.7916Z" fill="white"/>
<path d="M15.312 27.3C14.2043 27.299 13.1401 26.8643 12.3431 26.0873C11.5461 25.3103 11.0785 24.2514 11.0384 23.1333L10.8977 19.1753C10.8129 16.793 12.6629 14.7853 15.0212 14.6997C15.1514 14.695 15.2781 14.7426 15.3735 14.8322C15.4689 14.9217 15.5252 15.0458 15.5301 15.1773L15.9439 26.7839C15.9463 26.849 15.9359 26.9139 15.9134 26.975C15.8909 27.0361 15.8568 27.0921 15.8129 27.1398C15.769 27.1876 15.7162 27.2261 15.6575 27.2532C15.5989 27.2803 15.5355 27.2955 15.471 27.2979C15.4169 27.2991 15.3643 27.3 15.312 27.3ZM15.0393 14.8844H15.028C12.7711 14.9665 11.0008 16.8879 11.0824 19.1675L11.2231 23.1253C11.2621 24.2216 11.7307 25.2574 12.5258 26.0049C13.3208 26.7523 14.3773 27.1502 15.4628 27.111C15.503 27.1096 15.5426 27.1002 15.5793 27.0833C15.616 27.0664 15.649 27.0423 15.6764 27.0125C15.7039 26.9827 15.7252 26.9477 15.7393 26.9096C15.7533 26.8714 15.7598 26.8308 15.7583 26.7902L15.3445 15.1835C15.3416 15.1035 15.3083 15.0278 15.2514 14.972C15.1945 14.9163 15.1185 14.8849 15.0393 14.8844Z" fill="#371A45"/>
<g opacity="0.35">
<path d="M15.7373 23.5667L15.8514 26.7866C15.8551 26.8934 15.8168 26.9974 15.7448 27.0757C15.6728 27.1541 15.573 27.2004 15.4672 27.2045C14.9175 27.2248 14.3692 27.1355 13.8537 26.9416C13.3382 26.7478 12.8655 26.4532 12.4628 26.0747C12.0601 25.6963 11.7352 25.2414 11.5066 24.736C11.2781 24.2306 11.1504 23.6847 11.1309 23.1294L11.0718 21.4618C11.4303 22.1897 11.9889 22.798 12.6807 23.2137C13.3725 23.6295 14.1683 23.8352 14.9728 23.8061L15.3921 23.7909C15.4642 23.7881 15.5343 23.7658 15.595 23.7263C15.6557 23.6869 15.7048 23.6318 15.7373 23.5667Z" fill="#371A45"/>
</g>
<path d="M15.3114 27.7251C14.0946 27.724 12.9255 27.2464 12.0502 26.3926C11.1749 25.5389 10.6614 24.3756 10.6178 23.1473L10.4768 19.1893C10.384 16.573 12.4158 14.3678 15.0061 14.2737C15.1259 14.2692 15.2455 14.2886 15.3579 14.3308C15.4703 14.373 15.5733 14.4371 15.6612 14.5196C15.749 14.602 15.8199 14.7012 15.8697 14.8113C15.9196 14.9214 15.9475 15.0404 15.9518 15.1614L16.3655 26.7681C16.37 26.8891 16.3508 27.0098 16.309 27.1234C16.2673 27.2369 16.2038 27.341 16.1221 27.4297C16.0405 27.5184 15.9424 27.59 15.8333 27.6404C15.7243 27.6907 15.6065 27.7189 15.4866 27.7233C15.4266 27.7242 15.369 27.7251 15.3114 27.7251ZM14.9293 15.3155C13.9767 15.3808 13.0865 15.8176 12.4468 16.5335C11.8071 17.2495 11.468 18.1885 11.5011 19.1523L11.6439 23.11C11.6779 24.0701 12.0792 24.9795 12.7634 25.6469C13.4476 26.3143 14.3614 26.6877 15.3126 26.6887H15.3339L14.9293 15.3155Z" fill="#371A45"/>
<g opacity="0.35">
<path d="M46.2886 37.9685C42.982 40.5817 38.932 42.0534 34.735 42.1668C30.5379 42.2801 26.4158 41.0291 22.9757 38.598C23.4991 37.0551 23.8697 36.2079 23.8697 36.2079H45.6127C45.6127 36.2079 45.8834 36.827 46.2886 37.9685Z" fill="#371A45"/>
</g>
<path d="M34.213 40.1009C45.0349 40.1009 53.8078 31.24 53.8078 20.3096C53.8078 9.37912 45.0349 0.518234 34.213 0.518234C23.3911 0.518234 14.6182 9.37912 14.6182 20.3096C14.6182 31.24 23.3911 40.1009 34.213 40.1009Z" fill="white"/>
<path d="M34.2304 40.1943C33.994 40.1943 33.7593 40.1901 33.5211 40.1818C22.6722 39.7973 14.1559 30.5703 14.5366 19.6123C14.9172 8.65428 24.0515 0.0534751 34.9021 0.437338C45.7528 0.821201 54.2674 10.0488 53.8867 21.0071C53.7023 26.3153 51.4823 31.2329 47.636 34.8546C43.9637 38.3132 39.2263 40.1943 34.2304 40.1943ZM34.2041 0.61136C23.763 0.61136 15.0913 8.99904 14.7222 19.6188C14.3451 30.4739 22.7819 39.6149 33.5288 39.9958C38.7372 40.1809 43.701 38.3061 47.5112 34.7185C51.3215 31.1309 53.5205 26.2588 53.7038 21.0006C54.0821 10.1456 45.6441 1.00448 34.8971 0.623598C34.6657 0.61524 34.4337 0.61136 34.2041 0.61136Z" fill="#371A45"/>
<g opacity="0.35">
<path d="M53.7032 18.2592C53.7975 19.1713 53.8286 20.0889 53.7963 21.0054C53.415 31.9287 44.3393 40.4731 33.5256 40.0908C22.7118 39.7084 14.2508 30.539 14.6288 19.6156C14.6397 19.3016 14.6583 18.9887 14.6834 18.6783C15.669 28.3534 23.591 36.0563 33.4865 36.4088C43.9909 36.779 52.8518 28.7304 53.7032 18.2592Z" fill="#371A45"/>
</g>
<path d="M34.2307 40.6194C33.9899 40.6194 33.7496 40.6152 33.5079 40.6065C22.427 40.214 13.7286 30.7891 14.1175 19.5974C14.5064 8.40563 23.8408 -0.378742 34.9181 0.0125834C45.9955 0.403909 54.6974 9.83034 54.3085 21.0221C54.1202 26.4436 51.8529 31.4664 47.925 35.1656C44.1721 38.698 39.3334 40.6194 34.2307 40.6194ZM34.2041 1.03642C23.9888 1.03642 15.5042 9.24171 15.1424 19.6326C14.7739 30.2545 23.0287 39.1983 33.5427 39.5711C38.6362 39.7502 43.495 37.918 47.2231 34.4071C50.9512 30.8962 53.1042 26.1302 53.2815 20.9854C53.6503 10.3646 45.3956 1.42088 34.8803 1.04806C34.6557 1.0403 34.4293 1.03642 34.2041 1.03642Z" fill="#371A45"/>
<path d="M53.7156 21.5095C53.6391 25.3816 52.3234 28.9516 50.1361 31.8828C48.4965 34.0806 41.8613 37.8508 33.7593 37.761C26.2478 37.6774 19.495 33.4955 17.9434 31.2332C15.8738 28.2161 14.7006 24.5959 14.7765 20.7239C14.9793 10.4772 23.7796 6.40512 34.5324 6.62213C45.2853 6.83913 53.9183 11.2628 53.7156 21.5095Z" fill="#371A45"/>
<g opacity="0.5">
<path d="M49.8821 20.4948C50.2613 18.5987 49.4661 16.8367 48.1059 16.5591C46.7457 16.2816 45.3356 17.5938 44.9564 19.4898C44.5772 21.3859 45.3724 23.148 46.7326 23.4255C48.0928 23.703 49.5029 22.3909 49.8821 20.4948Z" fill="white"/>
</g>
<g opacity="0.5">
<path d="M45.4911 27.3238C45.7825 26.4861 45.4417 25.6022 44.73 25.3496C44.0183 25.097 43.2051 25.5714 42.9136 26.409C42.6222 27.2467 42.963 28.1306 43.6747 28.3832C44.3864 28.6358 45.1996 28.1614 45.4911 27.3238Z" fill="white"/>
</g>
<g opacity="0.35">
<path d="M50.1181 11.8738C52.4527 14.2158 53.7962 17.3936 53.7153 21.5089C53.6387 25.3819 52.3224 28.9516 50.1367 31.8828C48.4965 34.0806 41.8595 37.8506 33.7587 37.7631C30.8983 37.7333 28.1489 37.1064 25.7537 36.2163C35.713 36.1115 43.7984 31.4831 45.832 28.7572C48.6079 25.0368 50.2773 20.5054 50.374 15.5922C50.4032 14.3474 50.3175 13.1026 50.1181 11.8738Z" fill="#111A28"/>
</g>
<path d="M52.2169 13.0078C52.0919 13.0079 51.9712 12.9614 51.878 12.8774L51.831 12.8353L51.7928 12.7804C48.5875 8.04355 42.2679 5.23652 34.4541 5.07921C26.5974 4.91952 20.1761 7.55671 16.8375 12.3132L16.8 12.3607C16.7115 12.4602 16.5884 12.5213 16.4563 12.5312C16.3243 12.5411 16.1935 12.499 16.0915 12.4138C15.9894 12.3286 15.9239 12.2069 15.9087 12.074C15.8934 11.9412 15.9297 11.8075 16.0097 11.701C19.5505 6.66899 26.2806 3.87748 34.4748 4.04344C42.6187 4.2088 49.2353 7.17524 52.6339 12.1855C52.6892 12.2629 52.7223 12.3543 52.7295 12.4495C52.7367 12.5447 52.7178 12.6401 52.6748 12.7251C52.6317 12.8101 52.5663 12.8815 52.4857 12.9314C52.4051 12.9813 52.3124 13.0077 52.2178 13.0078H52.2169ZM16.3928 11.9944L16.4167 12.0159L16.3928 11.9944Z" fill="#371A45"/>
<g opacity="0.5">
<path d="M19.0289 26.9078C19.0289 26.9078 16.0869 16.736 21.5601 12.8168C27.0334 8.89756 34.7931 9.07008 34.6019 9.56917C34.6019 9.56917 25.9695 11.4965 22.4724 18.2885C19.7757 23.5255 19.0289 26.9078 19.0289 26.9078Z" fill="white"/>
</g>
<path d="M55.7253 16.1256C55.5506 16.2775 55.2837 16.1178 55.3363 15.8907C55.6168 14.6755 56.3411 12.3404 57.8803 11.627C59.9401 10.6718 61.5032 11.9329 61.0678 13.3251C60.4393 15.3364 58.3126 13.8737 55.7253 16.1256Z" fill="#37DBFF"/>
<g opacity="0.3">
<path d="M61.1293 12.683C60.5864 12.0861 59.5119 11.841 58.2514 12.4251C56.9745 13.0165 56.2572 14.7274 55.8913 15.9862C55.837 16.0304 55.7811 16.0757 55.7258 16.125C55.5506 16.2772 55.2825 16.1175 55.336 15.8907C55.6168 14.6752 56.3408 12.3386 57.8803 11.627C59.6144 10.8231 60.9975 11.5897 61.1293 12.683Z" fill="white"/>
</g>
<g opacity="0.35">
<path d="M61.0681 13.3254C60.4395 15.337 58.3129 13.8734 55.7258 16.125C55.5506 16.2772 55.2825 16.1175 55.336 15.8907C55.3606 15.7859 55.3875 15.6731 55.4203 15.5522C57.5111 13.3164 59.6591 14.2161 59.9339 12.2189C59.979 11.9226 59.9322 11.6194 59.7997 11.3512C60.7906 11.5723 61.3521 12.421 61.0681 13.3254Z" fill="#371A45"/>
</g>
<path d="M55.5683 16.6324C55.4658 16.6327 55.3646 16.6095 55.2722 16.5647C55.1798 16.5199 55.0986 16.4545 55.0348 16.3735C54.971 16.2925 54.9261 16.198 54.9035 16.097C54.881 15.996 54.8813 15.8912 54.9045 15.7904C55.2204 14.4209 56.0033 12.0061 57.6952 11.2213C59.1504 10.5467 60.3231 10.8888 60.9354 11.4348C61.5173 11.9535 61.7251 12.7111 61.4907 13.4612C61.0905 14.7406 60.1558 14.9077 59.1664 15.0847C58.2431 15.2498 57.1969 15.437 56.0145 16.4659C55.8904 16.5736 55.732 16.6327 55.5683 16.6324ZM59.2716 11.7398C58.9231 11.7398 58.5177 11.824 58.0661 12.0332C56.9023 12.5729 56.2406 14.28 55.9214 15.3996C57.1036 14.5427 58.1917 14.3481 59.0127 14.2012C60.0051 14.0236 60.417 13.9224 60.6461 13.1899C60.7737 12.7816 60.6656 12.3861 60.3505 12.1043C60.1159 11.8974 59.7468 11.7404 59.2707 11.7404L59.2716 11.7398Z" fill="#371A45"/>
<path d="M61.1242 18.4016C60.9011 18.4613 60.7315 18.198 60.8778 18.0177C61.66 17.0521 63.3307 15.2797 65.0229 15.3247C67.2887 15.3844 68.1407 17.2133 67.1421 18.2691C65.6993 19.7938 64.43 17.5336 61.1242 18.4016Z" fill="#37DBFF"/>
<g opacity="0.3">
<path d="M67.4775 17.7201C67.2515 16.9417 66.3938 16.2438 65.0075 16.2062C63.6034 16.1683 62.2124 17.3843 61.3341 18.3505C61.2661 18.3661 61.1957 18.3831 61.1248 18.4016C60.9011 18.4613 60.7315 18.198 60.8775 18.0177C61.6603 17.0518 63.3304 15.279 65.0229 15.3247C66.9305 15.3761 67.8366 16.6799 67.4775 17.7201Z" fill="white"/>
</g>
<g opacity="0.35">
<path d="M67.1421 18.2694C65.6996 19.7947 64.43 17.5333 61.1248 18.4016C60.9011 18.4613 60.7315 18.198 60.8775 18.0177C60.9454 17.9344 61.0187 17.8452 61.1009 17.7512C63.9539 16.6766 65.4886 18.441 66.6075 16.7709C66.7773 16.5251 66.8676 16.2322 66.8661 15.9324C67.659 16.5724 67.7908 17.5834 67.1421 18.2694Z" fill="#371A45"/>
</g>
<path d="M65.994 19.2604C65.5596 19.2604 65.1195 19.1317 64.668 18.9998C63.7669 18.7365 62.747 18.4383 61.236 18.835C61.0968 18.8719 60.9497 18.8635 60.8156 18.8108C60.6816 18.7581 60.5675 18.6639 60.4896 18.5417C60.4118 18.4196 60.3742 18.2756 60.3823 18.1306C60.3904 17.9855 60.4437 17.8467 60.5347 17.7342C61.4165 16.6458 63.1755 14.8289 65.0347 14.877C66.6356 14.92 67.5381 15.7498 67.8493 16.5124C68.1449 17.2375 68.0004 18.0097 67.4625 18.5783C66.9743 19.0941 66.4878 19.2604 65.994 19.2604ZM62.6504 17.7497C63.5798 17.7497 64.3189 17.9658 64.9141 18.1395C65.8823 18.4225 66.296 18.515 66.8215 17.9604C67.1144 17.6512 67.1903 17.2479 67.0284 16.8542C66.8236 16.3521 66.1858 15.8044 65.0102 15.7731C63.7302 15.7378 62.3906 16.9763 61.6154 17.8386C61.9574 17.7799 62.3035 17.7502 62.6504 17.7497Z" fill="#371A45"/>
<path d="M56.8453 21.7844C56.6293 21.7026 56.6384 21.3895 56.8625 21.3271C58.0526 20.9922 60.4289 20.5143 61.7869 21.5361C63.6053 22.9029 63.2598 24.8932 61.8416 25.1759C59.7929 25.5828 60.043 22.9966 56.8453 21.7844Z" fill="#37DBFF"/>
<g opacity="0.3">
<path d="M62.4287 24.921C62.6876 24.153 62.3841 23.0835 61.2717 22.2468C60.1451 21.3994 58.3146 21.585 57.0456 21.8647C56.9812 21.8376 56.9138 21.8107 56.8455 21.7847C56.6292 21.7026 56.6387 21.3895 56.8618 21.3268C58.0525 20.9922 60.4288 20.514 61.7862 21.5358C63.3173 22.6856 63.315 24.2792 62.4287 24.921Z" fill="white"/>
</g>
<g opacity="0.35">
<path d="M61.8415 25.175C59.7925 25.5834 60.0432 22.996 56.847 21.7847C56.6307 21.7026 56.6401 21.3895 56.8632 21.3268C56.9664 21.297 57.0772 21.2671 57.1978 21.2391C60.1433 22.0187 60.3928 24.3539 62.2593 23.639C62.5382 23.5367 62.7787 23.3496 62.9479 23.1035C63.231 24.0885 62.7626 24.9911 61.8415 25.175Z" fill="#371A45"/>
</g>
<path d="M61.4266 25.6663C60.4596 25.6663 59.9439 25.0165 59.4019 24.3339C58.8153 23.5948 58.1507 22.7575 56.6896 22.2035C56.5547 22.1529 56.4392 22.0604 56.3595 21.9394C56.2799 21.8183 56.2402 21.675 56.2462 21.5298C56.2522 21.3846 56.3035 21.245 56.3928 21.1311C56.4821 21.0171 56.6048 20.9347 56.7434 20.8955C58.0848 20.5182 60.5581 20.0532 62.0517 21.1755C63.3363 22.1411 63.6014 23.3446 63.4212 24.1491C63.2497 24.9138 62.6915 25.4625 61.9272 25.6135C61.7625 25.6475 61.5948 25.6652 61.4266 25.6663ZM57.5694 21.611C58.8809 22.2468 59.5722 23.1178 60.0941 23.7751C60.7241 24.5691 61.0102 24.8855 61.7561 24.7368C62.1719 24.6541 62.4636 24.3685 62.5567 23.9533C62.6749 23.4234 62.466 22.605 61.5224 21.8958C60.4951 21.1224 58.6947 21.3549 57.5694 21.611Z" fill="#371A45"/>
<path d="M12.2749 16.1256C12.4499 16.2775 12.7164 16.1178 12.6641 15.8907C12.3837 14.6755 11.6593 12.3404 10.1199 11.627C8.06006 10.6718 6.49701 11.9329 6.93232 13.3251C7.56121 15.3364 9.68755 13.8737 12.2749 16.1256Z" fill="#37DBFF"/>
<g opacity="0.3">
<path d="M6.87085 12.683C7.41374 12.0861 8.48829 11.841 9.74872 12.4251C11.0257 13.0165 11.743 14.7274 12.1088 15.9862C12.1635 16.0304 12.2191 16.0757 12.2746 16.125C12.4496 16.2772 12.7179 16.1175 12.6641 15.8907C12.3834 14.6752 11.6593 12.3386 10.1199 11.627C8.38574 10.8231 7.00413 11.5897 6.87085 12.683Z" fill="white"/>
</g>
<g opacity="0.35">
<path d="M6.93203 13.3254C7.56063 15.337 9.68756 13.8734 12.2746 16.125C12.4496 16.2772 12.7179 16.1175 12.6641 15.8907C12.6396 15.7859 12.6127 15.6731 12.5799 15.5522C10.489 13.3164 8.34112 14.2161 8.06628 12.2189C8.02112 11.9226 8.068 11.6194 8.20045 11.3512C7.20924 11.5723 6.64951 12.421 6.93203 13.3254Z" fill="#371A45"/>
</g>
<path d="M12.4318 16.6324C12.268 16.6324 12.1096 16.5729 11.9856 16.4647C10.8034 15.4358 9.75698 15.2486 8.83374 15.0835C7.84431 14.9065 6.90954 14.7394 6.50969 13.46C6.27534 12.7099 6.4828 11.9523 7.0647 11.4335C7.67704 10.8879 8.8494 10.5452 10.3049 11.2201C11.9965 12.0046 12.7797 14.4194 13.0959 15.7892C13.119 15.8901 13.1193 15.995 13.0967 16.096C13.0741 16.197 13.0292 16.2916 12.9654 16.3727C12.9015 16.4537 12.8204 16.5192 12.728 16.5642C12.6356 16.6092 12.5344 16.6325 12.4318 16.6324ZM8.72942 11.7404C8.25302 11.7404 7.8842 11.8974 7.65132 12.1049C7.3354 12.3866 7.22753 12.7821 7.35579 13.1905C7.58512 13.923 7.9968 14.0242 8.98919 14.2018C9.81047 14.3486 10.8989 14.5433 12.0804 15.3999C11.7613 14.2806 11.0993 12.5732 9.93577 12.0338C9.48361 11.8246 9.07785 11.7404 8.72942 11.7404Z" fill="#371A45"/>
<path d="M6.87582 18.4016C7.09895 18.4613 7.26858 18.198 7.12259 18.0177C6.34003 17.0521 4.66969 15.2797 2.97719 15.3247C0.711359 15.385 -0.140655 17.2133 0.857055 18.2679C2.30072 19.7938 3.57032 17.5336 6.87582 18.4016Z" fill="#37DBFF"/>
<g opacity="0.3">
<path d="M0.522498 17.7201C0.748579 16.9417 1.60621 16.2438 2.99254 16.2062C4.3969 16.1683 5.78766 17.3843 6.66598 18.3505C6.73395 18.3661 6.80429 18.3831 6.87522 18.4016C7.09893 18.4613 7.26857 18.198 7.12257 18.0177C6.33971 17.0518 4.66967 15.279 2.97717 15.3247C1.06982 15.3761 0.163429 16.6799 0.522498 17.7201Z" fill="white"/>
</g>
<g opacity="0.35">
<path d="M0.857073 18.2694C2.29985 19.7947 3.56915 17.5333 6.87436 18.4016C7.09808 18.4613 7.26772 18.198 7.12172 18.0177C7.05375 17.9344 6.98046 17.8452 6.8983 17.7512C4.04614 16.6763 2.51204 18.441 1.39257 16.7709C1.22273 16.5251 1.13249 16.2322 1.13428 15.9324C0.341078 16.5724 0.209271 17.5834 0.857073 18.2694Z" fill="#371A45"/>
</g>
<path d="M2.00608 19.2604C1.51224 19.2604 1.0258 19.0944 0.537586 18.5783C1.64031e-05 18.0097 -0.145089 17.2372 0.150737 16.5121C0.46193 15.7498 1.36448 14.92 2.96537 14.877C4.82721 14.8259 6.58384 16.6459 7.4654 17.7342C7.55634 17.8467 7.60968 17.9855 7.61777 18.1306C7.62586 18.2756 7.5883 18.4196 7.51046 18.5418C7.43262 18.6639 7.3185 18.7581 7.18443 18.8108C7.05037 18.8635 6.90324 18.8719 6.76411 18.835C5.25395 18.4386 4.2329 18.7368 3.33242 18.9998C2.88055 19.1317 2.4405 19.2604 2.00608 19.2604ZM3.04043 15.7716H2.98842C1.8128 15.8029 1.17504 16.3506 0.970242 16.8527C0.809769 17.2464 0.885425 17.6497 1.17711 17.9589C1.70257 18.5144 2.1166 18.4219 3.08447 18.138C3.88535 17.904 4.94631 17.5936 6.38229 17.8362C5.61893 16.987 4.30501 15.7716 3.04073 15.7716H3.04043Z" fill="#371A45"/>
<path d="M11.1548 21.7844C11.3708 21.7026 11.3602 21.3895 11.138 21.3271C9.94757 20.9922 7.57121 20.5143 6.21325 21.5361C4.39515 22.9029 4.74033 24.8932 6.15858 25.1759C8.20719 25.5828 7.95717 22.9966 11.1548 21.7844Z" fill="#37DBFF"/>
<g opacity="0.3">
<path d="M5.57138 24.921C5.31279 24.153 5.6163 23.0835 6.72838 22.2468C7.85494 21.3994 9.68546 21.585 10.9545 21.8647C11.0192 21.8376 11.0863 21.8107 11.1548 21.7847C11.3712 21.7026 11.3617 21.3895 11.1383 21.3268C9.94759 20.9922 7.57123 20.514 6.21386 21.5358C4.68302 22.6856 4.68509 24.2792 5.57138 24.921Z" fill="white"/>
</g>
<g opacity="0.35">
<path d="M6.15851 25.175C8.20742 25.5834 7.95681 22.996 11.1544 21.7847C11.3708 21.7026 11.3613 21.3895 11.1379 21.3268C11.0351 21.297 10.9239 21.2671 10.8034 21.2391C7.85781 22.0187 7.60868 24.3539 5.74181 23.639C5.4631 23.5366 5.22263 23.3495 5.05352 23.1035C4.76893 24.0885 5.23734 24.9911 6.15851 25.175Z" fill="#371A45"/>
</g>
<path d="M6.57354 25.6663C6.40537 25.6653 6.2377 25.6477 6.07291 25.6138C5.30897 25.4616 4.75041 24.9144 4.57901 24.1482C4.39873 23.3438 4.66412 22.1402 5.94879 21.1746C7.4424 20.052 9.91569 20.5179 11.2568 20.8946C11.3954 20.9338 11.5181 21.0163 11.6074 21.1302C11.6967 21.2441 11.748 21.3837 11.754 21.5289C11.7599 21.6741 11.7203 21.8175 11.6406 21.9385C11.561 22.0595 11.4454 22.152 11.3106 22.2026C9.84949 22.7563 9.18485 23.5936 8.59822 24.3327C8.05651 25.0165 7.54022 25.6663 6.57354 25.6663ZM8.47291 21.3665C7.73409 21.3665 7.00472 21.4982 6.47808 21.8943C5.53446 22.6035 5.32552 23.422 5.44373 23.9518C5.53682 24.367 5.82792 24.6527 6.24432 24.7353C6.99112 24.8846 7.27602 24.5676 7.90668 23.7736C8.42829 23.1169 9.11835 22.2453 10.4311 21.6095C9.88289 21.4856 9.17421 21.3665 8.47291 21.3665Z" fill="#371A45"/>
<path d="M46.3729 56.2623H46.346C46.2976 56.2588 46.2503 56.2458 46.2069 56.2238C46.1635 56.2019 46.1248 56.1716 46.0931 56.1345C46.0613 56.0975 46.0371 56.0545 46.0218 56.008C46.0065 55.9614 46.0005 55.9123 46.004 55.8635C46.372 50.6619 40.1921 48.7966 40.1295 48.7784C40.0391 48.7479 39.964 48.6833 39.9197 48.5981C39.8754 48.5129 39.8654 48.4137 39.8918 48.3212C39.9182 48.2288 39.9789 48.1502 40.0613 48.1019C40.1437 48.0536 40.2414 48.0393 40.334 48.062C40.4023 48.0817 47.1519 50.1097 46.7408 55.9172C46.7338 56.011 46.692 56.0986 46.6238 56.1626C46.5556 56.2265 46.466 56.2621 46.3729 56.2623Z" fill="#371A45"/>
<path d="M23.4175 56.2623C23.3242 56.2622 23.2343 56.2264 23.1661 56.1621C23.0978 56.0978 23.0562 56.0098 23.0496 55.9157C22.6376 50.1082 29.3881 48.0802 29.4564 48.0605C29.5489 48.0381 29.6464 48.0526 29.7286 48.1009C29.8107 48.1493 29.8713 48.2278 29.8976 48.3201C29.9239 48.4124 29.914 48.5114 29.8698 48.5965C29.8257 48.6816 29.7508 48.7462 29.6606 48.7769C29.5983 48.7951 23.4181 50.6604 23.7864 55.862C23.7934 55.9606 23.7613 56.0581 23.6971 56.1329C23.633 56.2076 23.5421 56.2537 23.4444 56.2608C23.4356 56.262 23.4264 56.2623 23.4175 56.2623Z" fill="#371A45"/>
</svg>
