<svg width="24" height="24" viewBox="0 0 24 24" fill="none" xmlns="http://www.w3.org/2000/svg">
<path d="M6.3341 17.9886C6.41095 18.9446 7.1449 19.7271 8.09987 19.8152C10.7689 20.0616 13.2311 20.0616 15.9001 19.8152C16.8551 19.7271 17.5891 18.9446 17.6659 17.9886C17.8206 16.0643 18 14.0596 18 12C18 9.94038 17.8206 7.93571 17.6659 6.01138C17.5891 5.05544 16.8551 4.27292 15.9001 4.18477C13.2311 3.93841 10.7689 3.93841 8.09987 4.18477C7.1449 4.27292 6.41095 5.05544 6.3341 6.01138C6.1794 7.93571 6 9.94038 6 12C6 14.0596 6.1794 16.0643 6.3341 17.9886Z" stroke="#A3A4A6" stroke-width="1.5"/>
<path d="M11.1396 16.1987H12.8603" stroke="#A3A4A6" stroke-width="1.5" stroke-linecap="round" stroke-linejoin="round"/>
</svg>
