<svg width="24" height="24" viewBox="0 0 24 24" fill="none" xmlns="http://www.w3.org/2000/svg">
<path fill-rule="evenodd" clip-rule="evenodd" d="M12.0165 22.25C11.8885 22.161 11.7423 22.1022 11.5961 22.0434C11.4839 21.9982 11.3718 21.9531 11.2679 21.8944C11.0861 21.7917 10.9035 21.6902 10.7208 21.5886L10.7203 21.5883C10.1754 21.2853 9.63016 20.9822 9.1062 20.6487C7.48724 19.6186 5.98572 18.4527 4.75531 16.9998C4.02759 16.1407 3.41348 15.2113 3.24884 14.0989C3.10864 13.1678 3.02689 12.2296 3.00409 11.2892C2.98669 10.2825 3.02481 9.27564 3.11822 8.27279C3.17517 7.64316 3.27695 7.01732 3.37875 6.39129C3.42804 6.08803 3.47739 5.78473 3.52161 5.48092C3.53989 5.35419 3.58508 5.23237 3.65445 5.12296C3.72382 5.01355 3.81589 4.91886 3.92499 4.84472C4.07953 4.72631 4.25104 4.6297 4.43426 4.55781C5.62967 4.13766 6.8262 3.72051 8.0227 3.30337C9.17123 2.90296 10.3197 2.50256 11.4671 2.09952C11.827 1.96683 12.2257 1.96683 12.5856 2.09952C14.6919 2.83696 16.7993 3.56985 18.9078 4.29819L18.9994 4.32984C19.2327 4.4103 19.4668 4.49103 19.6915 4.58981C20.0948 4.76709 20.4664 5.00941 20.5438 5.45522C20.8376 7.12545 20.9901 8.81559 20.9998 10.5092C21.0036 11.4953 20.9515 12.4834 20.8736 13.4668C20.8368 13.9617 20.735 14.4502 20.5706 14.9207C20.1865 15.9991 19.4643 16.8834 18.6564 17.7032C17.3481 19.0317 15.8499 20.1384 14.2287 21.0914C13.8008 21.3414 13.3564 21.565 12.9123 21.7885L12.912 21.7887L12.9113 21.789C12.6112 21.94 12.3112 22.091 12.0165 22.25ZM10 9C10 7.89543 10.8954 7 12 7C13.1046 7 14 7.89543 14 9C14 10.1046 13.1046 11 12 11C10.8954 11 10 10.1046 10 9ZM13.2 11.5H12.9763C12.679 11.6594 12.3482 11.75 12 11.75C11.6518 11.75 11.3223 11.6594 11.0237 11.5H10.8C9.80624 11.5 9 12.4406 9 13.6V14.25C9 14.6641 9.28793 15 9.64285 15H14.3571C14.7121 15 15 14.6641 15 14.25V13.6C15 12.4406 14.1938 11.5 13.2 11.5Z" fill="#A5ABDE"/>
</svg>