<svg width="49" height="42" viewBox="0 0 49 42" fill="none" xmlns="http://www.w3.org/2000/svg">
<rect width="36" height="35.8719" rx="10" fill="#FFE6E7"/>
<g filter="url(#filter0_d_4812_11955)">
<path d="M10.9591 32.311C11.2587 31.8017 11.5641 31.2944 11.8531 30.7823C11.9093 30.6758 11.9303 30.5544 11.913 30.4355C11.7825 29.6625 11.6008 28.8963 11.509 28.1195C11.3998 27.2042 11.9594 26.5583 12.893 26.457C13.2186 26.4226 13.2795 26.244 13.2795 25.9717C13.2747 24.6608 13.266 23.35 13.2795 22.0391C13.2911 21.1171 13.956 20.3709 14.8906 20.1875C15.7459 20.0193 16.6824 20.4904 17.0168 21.312C17.1357 21.635 17.1908 21.9775 17.1791 22.321C17.1521 23.7541 17.2139 25.1787 17.5502 26.5812C17.5773 26.694 17.6131 26.8058 17.6469 26.9281L20.2833 25.7873C19.8001 23.9376 20.2911 22.3401 21.5397 20.8993L22.3129 21.7448C21.473 22.7681 21.0256 23.9509 21.387 25.3631C22.221 25.0908 23.03 24.8118 23.8543 24.5605C26.3226 23.8057 28.8267 23.2162 31.4129 23.048C32.6538 22.9678 33.8957 22.9716 35.0805 23.4493C35.2941 23.5363 35.3646 23.4551 35.3395 23.2372C35.1897 21.9073 35.5067 21.3588 36.7785 20.7827C39.6225 19.4929 42.468 18.2059 45.3151 16.9218C46.0206 16.6017 46.6991 16.6352 47.2644 17.1607C47.8443 17.6995 48.1526 18.3788 47.9245 19.1929C47.7699 19.7289 47.3939 20.0766 46.8885 20.3136C44.223 21.5875 41.5608 22.8694 38.9018 24.1592C38.696 24.2548 38.4892 24.3551 38.2891 24.465C38.0123 24.624 37.7007 24.7143 37.3809 24.7281C37.061 24.7419 36.7426 24.6788 36.4529 24.5443C36.3871 24.5156 36.3205 24.4898 36.2538 24.465C36.247 24.465 36.2354 24.4736 36.2026 24.4898C36.2992 24.8596 36.4171 25.2312 36.4973 25.6115C37.0772 28.3631 36.4548 30.8969 34.9462 33.2177C32.6335 36.7691 29.2567 38.8032 25.1378 39.6631C22.1476 40.2898 19.2115 40.0663 16.4108 38.7898C13.8236 37.6137 11.9478 35.7563 11.0123 33.0486C10.9979 33.015 10.9801 32.983 10.9591 32.953V32.311ZM18.0354 28.0115C18.0374 28.063 18.0442 28.1142 18.0557 28.1644C18.9158 30.232 20.4032 31.5839 22.6405 32.0693C22.7701 32.0923 22.9036 32.0804 23.0271 32.0349C24.6294 31.454 26.2231 30.8473 27.8322 30.2874C28.6711 30.0007 29.2248 29.4208 29.6607 28.7033C29.8726 28.3715 30.05 28.0193 30.1903 27.6523C30.3517 27.1799 30.4789 26.6969 30.5711 26.2067C30.7489 25.3105 31.4873 24.6943 32.3793 24.7315C33.2713 24.7688 33.9623 25.4567 34.0368 26.3644C34.0416 26.4255 34.0551 26.4867 34.0648 26.5469L34.1692 26.5898C34.4591 26.1761 34.7886 25.7796 35.039 25.3411C35.2322 24.999 35.1356 24.7554 34.7722 24.5767C34.5275 24.4535 34.2676 24.3623 33.9991 24.3054C32.8886 24.0694 31.7666 24.1363 30.6523 24.2586C27.7182 24.5796 24.8942 25.3545 22.1234 26.3357C22.0319 26.3732 21.9426 26.4156 21.8557 26.4628L22.3921 27.2348L21.5059 27.9666C21.2314 27.5845 20.9782 27.2252 20.7095 26.8469L18.0354 28.0115ZM20.6235 32.7276C19.9364 32.1877 19.2202 31.732 18.6375 31.1454C17.0883 29.5823 16.4359 27.594 16.1779 25.4758C16.0484 24.4038 16.0638 23.3146 16.031 22.2321C16.0213 21.9302 15.9749 21.6588 15.7208 21.4678C15.6091 21.3748 15.4724 21.3162 15.3274 21.2992C15.1824 21.2822 15.0356 21.3076 14.9051 21.3722C14.5755 21.5251 14.4286 21.7945 14.4286 22.148C14.4286 23.435 14.4286 24.722 14.4286 26.0089C14.4286 26.9252 13.9386 27.4727 13.0099 27.5854C12.7557 27.616 12.6349 27.7383 12.6494 27.98C12.7277 29.3329 13.0447 30.6161 13.8265 31.753C14.4064 32.5986 15.2018 33.1737 16.2426 33.298C16.8013 33.3504 17.3646 33.3289 17.9175 33.2339C18.8404 33.0983 19.7537 32.8948 20.6235 32.7276ZM31.1307 28.6469C31.3984 28.4873 31.6709 28.2838 31.9744 28.151C32.7359 27.8195 32.8152 27.1469 32.8712 26.4656C32.8758 26.325 32.8274 26.1878 32.7355 26.0803C32.6437 25.9729 32.5147 25.903 32.3737 25.8841C32.2327 25.8652 32.0896 25.8987 31.9721 25.978C31.8546 26.0574 31.7711 26.177 31.7376 26.3137C31.5259 27.0857 31.3327 27.8634 31.1307 28.6469ZM36.4625 22.6277C37.0424 22.3974 37.2772 22.3926 37.4522 22.6649C37.5399 22.8032 37.5768 22.9672 37.5565 23.1293C37.5285 23.285 37.3922 23.4207 37.3033 23.564C37.8368 23.5133 38.1731 23.177 38.1577 22.7041C38.1495 22.4876 38.0594 22.282 37.9054 22.128C37.7513 21.9739 37.5444 21.8825 37.3256 21.8719C36.8694 21.8528 36.5253 22.1547 36.4625 22.6296V22.6277ZM13.7115 33.5196L13.7289 33.4317L12.4639 31.8686C12.3709 32.0056 12.2851 32.1472 12.2068 32.2928C12.0686 32.5795 12.0473 32.8881 12.3682 33.0381C12.7953 33.2378 13.2621 33.3648 13.7115 33.5225V33.5196Z" fill="url(#paint0_linear_4812_11955)"/>
<path d="M22.6743 14.0479L23.5054 14.8323C22.7429 15.7218 22.0558 16.6323 21.9398 17.8476H20.7936C20.8854 16.3037 21.6972 15.1438 22.6743 14.0479Z" fill="url(#paint1_linear_4812_11955)"/>
<path d="M20.2157 11C20.5206 11 20.8132 11.1187 21.0303 11.3304C21.2473 11.5421 21.3713 11.8298 21.3754 12.1312C21.3785 12.3586 21.3131 12.5818 21.1875 12.7723C21.0619 12.9629 20.8819 13.1122 20.6703 13.2013C20.4587 13.2904 20.225 13.3153 19.999 13.2728C19.7731 13.2303 19.565 13.1224 19.4012 12.9627C19.2375 12.8029 19.1255 12.5987 19.0795 12.3759C19.0335 12.1531 19.0555 11.9218 19.1428 11.7114C19.2301 11.501 19.3787 11.321 19.5698 11.1943C19.7608 11.0677 19.9856 11 20.2157 11Z" fill="url(#paint2_linear_4812_11955)"/>
<path d="M17.3241 16.1594C17.3221 16.3868 17.2518 16.6085 17.122 16.7962C16.9923 16.984 16.809 17.1294 16.5955 17.2139C16.3819 17.2985 16.1478 17.3183 15.9228 17.271C15.6978 17.2236 15.4922 17.1112 15.332 16.948C15.1719 16.7847 15.0644 16.5781 15.0233 16.3544C14.9822 16.1307 15.0093 15.8999 15.1012 15.6914C15.1932 15.483 15.3457 15.3063 15.5395 15.1837C15.7332 15.0612 15.9595 14.9984 16.1895 15.0033C16.4938 15.0113 16.783 15.1367 16.995 15.3528C17.2071 15.5689 17.3252 15.8584 17.3241 16.1594Z" fill="url(#paint3_linear_4812_11955)"/>
<path d="M12.1417 17.8791H13.2551V18.9807H12.1417V17.8791Z" fill="url(#paint4_linear_4812_11955)"/>
<path d="M18.5109 18.4524H19.6184V19.5626H18.5109V18.4524Z" fill="url(#paint5_linear_4812_11955)"/>
<path d="M17.9241 24.7095C17.9153 24.6615 17.9092 24.613 17.9058 24.5643C17.9058 24.2566 17.9058 23.949 17.9058 23.6136H19.0365V24.7095H17.9241Z" fill="url(#paint6_linear_4812_11955)"/>
<path d="M18.0354 28.0125L20.7028 26.8459C20.9714 27.2281 21.2247 27.5787 21.4991 27.9657L22.3854 27.2338L21.849 26.4618C21.9358 26.4146 22.0252 26.3722 22.1167 26.3347C24.8875 25.3535 27.7114 24.5786 30.6455 24.2576C31.7598 24.1353 32.8819 24.0665 33.9923 24.3044C34.2608 24.3613 34.5207 24.4526 34.7655 24.5758C35.125 24.7564 35.2274 25 35.0322 25.3401C34.7819 25.7787 34.4523 26.1752 34.1624 26.5889L34.058 26.5459C34.0484 26.4857 34.0348 26.4245 34.03 26.3634C33.9556 25.4557 33.2568 24.7688 32.3726 24.7306C31.4883 24.6923 30.7422 25.3096 30.5643 26.2058C30.4748 26.6964 30.3501 27.1801 30.1913 27.6532C30.051 28.0203 29.8736 28.3724 29.6617 28.7042C29.2258 29.4217 28.6721 29.9969 27.8332 30.2883C26.2241 30.8482 24.6304 31.4549 23.028 32.0358C22.9046 32.0813 22.7711 32.0932 22.6415 32.0702C20.4041 31.5849 18.9168 30.2329 18.0567 28.1653C18.0448 28.1151 18.0377 28.064 18.0354 28.0125ZM22.512 29.8737V28.7606H21.4054V29.8737H22.512Z" fill="white"/>
<path d="M20.6236 32.7275C19.7538 32.8947 18.8366 33.0982 17.9127 33.2339C17.3592 33.3293 16.7953 33.3512 16.2359 33.2989C15.1999 33.1746 14.4074 32.5995 13.8247 31.7539C13.0428 30.6169 12.7258 29.3338 12.6475 27.9809C12.633 27.7392 12.7538 27.6169 13.008 27.5863C13.9368 27.4736 14.4248 26.9261 14.4267 26.0098C14.4267 24.7229 14.4267 23.4359 14.4267 22.1489C14.4267 21.7954 14.5736 21.526 14.9032 21.3731C15.0337 21.3085 15.1806 21.2831 15.3255 21.3001C15.4705 21.3171 15.6072 21.3757 15.7189 21.4687C15.9731 21.6597 16.0194 21.9282 16.0291 22.233C16.062 23.3155 16.0465 24.4047 16.176 25.4767C16.4311 27.5949 17.0835 29.5851 18.6366 31.1463C19.2242 31.7329 19.9403 32.1877 20.6236 32.7275ZM17.6373 32.2698C16.9608 31.7826 16.3674 31.2666 16.1489 30.4708H14.9892C15.196 31.7319 15.9953 32.524 16.9994 33.2138L17.6373 32.2698Z" fill="white"/>
<path d="M31.1306 28.6469C31.3326 27.8634 31.5259 27.0857 31.7375 26.3137C31.771 26.177 31.8546 26.0574 31.9721 25.978C32.0896 25.8987 32.2327 25.8652 32.3737 25.8841C32.5147 25.903 32.6436 25.9729 32.7355 26.0803C32.8274 26.1877 32.8757 26.325 32.8712 26.4656C32.8151 27.1469 32.7359 27.8195 31.9743 28.151C31.6709 28.2838 31.3983 28.4845 31.1306 28.6469Z" fill="white"/>
<path d="M36.4624 22.6296C36.5252 22.1519 36.8693 21.8528 37.3254 21.871C37.5443 21.8816 37.7512 21.9729 37.9053 22.127C38.0593 22.2811 38.1493 22.4867 38.1575 22.7031C38.1701 23.1809 37.8367 23.5153 37.3032 23.563C37.3921 23.4197 37.5284 23.284 37.5564 23.1283C37.5767 22.9663 37.5398 22.8023 37.452 22.664C37.2771 22.3945 37.0413 22.3993 36.4624 22.6296Z" fill="white"/>
<path d="M13.7114 33.5225C13.262 33.3648 12.7971 33.2358 12.368 33.0381C12.0472 32.8881 12.0684 32.5776 12.2067 32.2928C12.285 32.1472 12.3708 32.0056 12.4637 31.8686L13.7288 33.4346L13.7114 33.5225Z" fill="white"/>
<path d="M22.5121 29.8736H21.4055V28.7605H22.5121V29.8736Z" fill="url(#paint7_linear_4812_11955)"/>
<path d="M17.641 32.2699L17.0041 33.2138C16 32.524 15.2007 31.732 14.9939 30.4708H16.1536C16.3711 31.2667 16.9616 31.7826 17.641 32.2699Z" fill="url(#paint8_linear_4812_11955)"/>
</g>
<defs>
<filter id="filter0_d_4812_11955" x="9.95911" y="11" width="39.0409" height="31" filterUnits="userSpaceOnUse" color-interpolation-filters="sRGB">
<feFlood flood-opacity="0" result="BackgroundImageFix"/>
<feColorMatrix in="SourceAlpha" type="matrix" values="0 0 0 0 0 0 0 0 0 0 0 0 0 0 0 0 0 0 127 0" result="hardAlpha"/>
<feOffset dy="1"/>
<feGaussianBlur stdDeviation="0.5"/>
<feComposite in2="hardAlpha" operator="out"/>
<feColorMatrix type="matrix" values="0 0 0 0 0.192157 0 0 0 0 0.239216 0 0 0 0 0.682353 0 0 0 0.25 0"/>
<feBlend mode="normal" in2="BackgroundImageFix" result="effect1_dropShadow_4812_11955"/>
<feBlend mode="normal" in="SourceGraphic" in2="effect1_dropShadow_4812_11955" result="shape"/>
</filter>
<linearGradient id="paint0_linear_4812_11955" x1="13.2742" y1="12.8125" x2="34.6357" y2="28.3735" gradientUnits="userSpaceOnUse">
<stop stop-color="#FF000F"/>
<stop offset="1" stop-color="#EB000E"/>
</linearGradient>
<linearGradient id="paint1_linear_4812_11955" x1="22.1495" y1="14.0479" x2="22.1495" y2="17.8476" gradientUnits="userSpaceOnUse">
<stop stop-color="#FC0D1B"/>
<stop offset="1" stop-color="#920009"/>
</linearGradient>
<linearGradient id="paint2_linear_4812_11955" x1="20.2158" y1="11" x2="20.2158" y2="13.293" gradientUnits="userSpaceOnUse">
<stop stop-color="#FC0D1B"/>
<stop offset="1" stop-color="#920009"/>
</linearGradient>
<linearGradient id="paint3_linear_4812_11955" x1="16.1644" y1="15.0031" x2="16.1644" y2="17.2961" gradientUnits="userSpaceOnUse">
<stop stop-color="#FC0D1B"/>
<stop offset="1" stop-color="#920009"/>
</linearGradient>
<linearGradient id="paint4_linear_4812_11955" x1="12.6984" y1="17.8791" x2="12.6984" y2="18.9807" gradientUnits="userSpaceOnUse">
<stop stop-color="#FC0D1B"/>
<stop offset="1" stop-color="#920009"/>
</linearGradient>
<linearGradient id="paint5_linear_4812_11955" x1="19.0646" y1="18.4524" x2="19.0646" y2="19.5626" gradientUnits="userSpaceOnUse">
<stop stop-color="#FC0D1B"/>
<stop offset="1" stop-color="#920009"/>
</linearGradient>
<linearGradient id="paint6_linear_4812_11955" x1="18.4711" y1="23.6136" x2="18.4711" y2="24.7095" gradientUnits="userSpaceOnUse">
<stop stop-color="#FC0D1B"/>
<stop offset="1" stop-color="#920009"/>
</linearGradient>
<linearGradient id="paint7_linear_4812_11955" x1="21.9588" y1="28.7605" x2="21.9588" y2="29.8736" gradientUnits="userSpaceOnUse">
<stop stop-color="#FC0D1B"/>
<stop offset="1" stop-color="#920009"/>
</linearGradient>
<linearGradient id="paint8_linear_4812_11955" x1="16.3174" y1="30.4708" x2="16.3174" y2="33.2138" gradientUnits="userSpaceOnUse">
<stop stop-color="#FC0D1B"/>
<stop offset="1" stop-color="#920009"/>
</linearGradient>
</defs>
</svg>
