<svg width="20" height="20" viewBox="0 0 20 20" fill="none" xmlns="http://www.w3.org/2000/svg">
<path d="M13.2743 2.08144C13.108 1.89713 12.9059 1.74859 12.6804 1.64485C12.4549 1.5411 12.2106 1.48433 11.9624 1.47798C11.7143 1.47164 11.4674 1.51585 11.2369 1.60792C11.0063 1.7 10.7969 1.83802 10.6214 2.01358L2.00071 10.6336C1.82645 10.8078 1.68917 11.0155 1.59708 11.244C1.505 11.4726 1.46001 11.7174 1.46481 11.9638C1.46961 12.2102 1.52411 12.4531 1.62503 12.6779C1.72595 12.9027 1.87122 13.1048 2.05214 13.2721L3.03428 14.18C3.54428 14.6514 4.24285 14.5464 4.67 14.3729C4.87961 14.2877 5.10914 14.264 5.33173 14.3046C5.55432 14.3451 5.76074 14.4483 5.92682 14.6019C6.09291 14.7556 6.21178 14.9534 6.26952 15.1721C6.32726 15.3909 6.32148 15.6216 6.25285 15.8371C6.11357 16.2764 6.06285 16.9814 6.57285 17.4529L7.30143 18.1271C7.64658 18.4464 8.10138 18.6206 8.5715 18.6135C9.04162 18.6065 9.491 18.4188 9.82643 18.0893L18.0607 10.0021C18.3974 9.67134 18.5934 9.22326 18.6076 8.75143C18.6219 8.27961 18.4533 7.82052 18.1371 7.47001L17.3693 6.61858C16.9157 6.11644 16.2321 6.14429 15.7979 6.26572C15.5844 6.32523 15.3586 6.32406 15.1457 6.26235C14.9329 6.20064 14.7415 6.08082 14.5929 5.91635C14.4444 5.75187 14.3447 5.54926 14.3049 5.33125C14.2652 5.11324 14.287 4.88846 14.3679 4.68215C14.5336 4.26143 14.6314 3.58429 14.1779 3.08215L13.2743 2.08215V2.08144Z" fill="#EC6A69"/>
</svg>
