<svg width="106" height="113" viewBox="0 0 106 113" fill="none" xmlns="http://www.w3.org/2000/svg">
<path d="M11.0316 103.923C11.0316 104.118 10.6345 104.288 10.0408 104.381C9.8946 104.404 9.75953 104.474 9.65488 104.579C9.55023 104.684 9.48136 104.819 9.45811 104.966C9.36485 105.562 9.19569 105.961 9.00214 105.961C8.80858 105.961 8.6391 105.562 8.54583 104.966C8.52258 104.819 8.45371 104.684 8.34906 104.579C8.24442 104.474 8.10934 104.404 7.96316 104.381C7.36912 104.288 6.97064 104.118 6.97064 103.923C6.97064 103.728 7.36878 103.558 7.96249 103.465C8.1088 103.441 8.24402 103.372 8.3488 103.267C8.45358 103.162 8.52254 103.026 8.54583 102.879C8.6401 102.282 8.80725 101.883 9.00214 101.883C9.19703 101.883 9.36485 102.282 9.45811 102.878C9.4814 103.025 9.55036 103.161 9.65514 103.266C9.75992 103.371 9.89514 103.44 10.0415 103.464C10.6348 103.558 11.0316 103.729 11.0316 103.923Z" fill="white"/>
<path d="M103.967 75.9148C103.926 76.1014 103.509 76.1793 102.921 76.1427C102.776 76.1339 102.632 76.1713 102.509 76.2497C102.387 76.3281 102.292 76.4434 102.239 76.5791C102.024 77.1298 101.778 77.4762 101.593 77.4349C101.407 77.3937 101.329 76.9758 101.366 76.3851C101.374 76.2395 101.337 76.0949 101.259 75.9719C101.181 75.8489 101.066 75.754 100.931 75.7007C100.382 75.4848 100.036 75.2375 100.077 75.0509C100.118 74.8642 100.535 74.7854 101.123 74.8226C101.269 74.8317 101.413 74.7943 101.536 74.716C101.658 74.6376 101.753 74.5221 101.806 74.3863C102.021 73.8345 102.267 73.4881 102.453 73.5294C102.639 73.5707 102.716 73.9889 102.68 74.58C102.671 74.7256 102.708 74.8703 102.786 74.9933C102.864 75.1163 102.979 75.2113 103.114 75.2647C103.663 75.4802 104.008 75.7275 103.967 75.9148Z" fill="white"/>
<path d="M98.8399 6.33953C98.8399 6.56441 98.3809 6.76076 97.695 6.86851C97.526 6.89535 97.3698 6.97526 97.2488 7.09677C97.1279 7.21827 97.0483 7.37513 97.0217 7.54483C96.9141 8.23324 96.7185 8.69441 96.4945 8.69441C96.2705 8.69441 96.0753 8.23324 95.9677 7.54483C95.941 7.37513 95.8615 7.21827 95.7405 7.09677C95.6196 6.97526 95.4634 6.89535 95.2944 6.86851C94.6078 6.76076 94.1474 6.56441 94.1474 6.33953C94.1474 6.11465 94.6074 5.91695 95.2934 5.80988C95.4626 5.78317 95.619 5.70328 95.7402 5.5817C95.8613 5.46012 95.941 5.30311 95.9677 5.13322C96.0753 4.44381 96.2705 3.98297 96.4945 3.98297C96.7185 3.98297 96.9141 4.44381 97.0217 5.13322C97.0483 5.3031 97.1278 5.46013 97.2489 5.58172C97.37 5.70332 97.5264 5.7832 97.6956 5.80988C98.3813 5.91695 98.8399 6.11331 98.8399 6.33953Z" fill="white"/>
<path d="M100.362 26.061C100.726 26.061 101.02 25.7653 101.02 25.4004C101.02 25.0356 100.726 24.7399 100.362 24.7399C99.9991 24.7399 99.7045 25.0356 99.7045 25.4004C99.7045 25.7653 99.9991 26.061 100.362 26.061Z" fill="white"/>
<path d="M93.117 103.453C93.4491 103.384 93.6625 103.058 93.5937 102.724C93.5249 102.391 93.1999 102.177 92.8678 102.246C92.5357 102.315 92.3223 102.641 92.3911 102.975C92.4599 103.308 92.7849 103.522 93.117 103.453Z" fill="white"/>
<path d="M103.379 92.7175C103.797 92.6094 104.049 92.1815 103.941 91.7618C103.834 91.3421 103.407 91.0896 102.989 91.1978C102.571 91.3059 102.32 91.7338 102.428 92.1535C102.535 92.5732 102.962 92.8257 103.379 92.7175Z" fill="white"/>
<path d="M2.20609 22.2142C2.52621 21.8118 2.46087 21.2251 2.06015 20.9037C1.65943 20.5823 1.07507 20.6479 0.754952 21.0502C0.434832 21.4526 0.500171 22.0393 0.900891 22.3607C1.30161 22.6821 1.88597 22.6165 2.20609 22.2142Z" fill="white"/>
<path d="M80.4961 10.023C80.8594 10.023 81.154 9.72723 81.154 9.36242C81.154 8.99761 80.8594 8.70187 80.4961 8.70187C80.1327 8.70187 79.8382 8.99761 79.8382 9.36242C79.8382 9.72723 80.1327 10.023 80.4961 10.023Z" fill="white"/>
<path d="M9.46813 6.02873C9.98038 6.00304 10.3749 5.56527 10.3493 5.05095C10.3237 4.53663 9.88771 4.14052 9.37546 4.16621C8.86321 4.19191 8.4687 4.62968 8.49429 5.144C8.51988 5.65832 8.95588 6.05443 9.46813 6.02873Z" fill="white"/>
<path d="M4.3257 96.8098C4.7339 96.8098 5.06482 96.4776 5.06482 96.0677C5.06482 95.6578 4.7339 95.3256 4.3257 95.3256C3.91749 95.3256 3.58658 95.6578 3.58658 96.0677C3.58658 96.4776 3.91749 96.8098 4.3257 96.8098Z" fill="white"/>
<path d="M105.173 41.6845C105.305 41.5518 105.305 41.3367 105.173 41.2041C105.041 41.0714 104.827 41.0714 104.695 41.2041C104.563 41.3367 104.563 41.5518 104.695 41.6845C104.827 41.8171 105.041 41.8171 105.173 41.6845Z" fill="white"/>
<path d="M85.7622 107.015C85.7007 107.065 85.6258 107.096 85.5468 107.104C85.4678 107.111 85.3884 107.095 85.3186 107.057C85.2487 107.02 85.1916 106.962 85.1544 106.892C85.1172 106.821 85.1016 106.741 85.1096 106.662C85.1176 106.583 85.1488 106.508 85.1993 106.446C85.2497 106.385 85.3172 106.34 85.3932 106.317C85.4692 106.294 85.5502 106.294 85.6261 106.318C85.7019 106.341 85.7692 106.386 85.8194 106.448C85.8527 106.489 85.8777 106.536 85.8929 106.587C85.908 106.638 85.9131 106.691 85.9078 106.743C85.9025 106.796 85.8869 106.847 85.8619 106.894C85.8369 106.94 85.8031 106.981 85.7622 107.015Z" fill="white"/>
<path d="M25.2641 8.25754C25.3076 7.99626 25.1319 7.74909 24.8716 7.70546C24.6114 7.66183 24.3652 7.83827 24.3218 8.09955C24.2783 8.36082 24.4541 8.608 24.7143 8.65163C24.9745 8.69526 25.2207 8.51882 25.2641 8.25754Z" fill="white"/>
<path d="M8.62687 35.7045C8.63164 35.7992 8.60833 35.8932 8.55988 35.9746C8.51143 36.0561 8.44002 36.1213 8.35469 36.1619C8.26935 36.2026 8.17391 36.217 8.08044 36.2032C7.98697 36.1895 7.89966 36.1482 7.82956 36.0846C7.75945 36.021 7.7097 35.938 7.68659 35.846C7.66348 35.754 7.66804 35.6573 7.69971 35.5679C7.73138 35.4785 7.78873 35.4006 7.86451 35.344C7.94028 35.2873 8.03108 35.2545 8.12543 35.2497C8.25198 35.2433 8.37588 35.2876 8.4699 35.3729C8.56393 35.4581 8.62039 35.5774 8.62687 35.7045Z" fill="white"/>
<path d="M8.95761 73.8854C8.95748 73.9608 8.93505 74.0346 8.89316 74.0973C8.85127 74.16 8.7918 74.2088 8.72228 74.2375C8.65276 74.2663 8.57631 74.2737 8.50259 74.2588C8.42888 74.2439 8.36122 74.2074 8.30817 74.1539C8.25512 74.1004 8.21906 74.0323 8.20457 73.9583C8.19007 73.8842 8.19778 73.8075 8.22672 73.7378C8.25566 73.6681 8.30453 73.6086 8.36716 73.5668C8.42978 73.525 8.50334 73.5029 8.57853 73.5031C8.67927 73.5033 8.7758 73.5437 8.84688 73.6154C8.91796 73.6871 8.95779 73.7842 8.95761 73.8854Z" fill="white"/>
<path d="M2.78605 67.8672C3.09408 67.5719 3.10533 67.0817 2.81117 66.7725C2.51702 66.4632 2.02884 66.4519 1.7208 66.7472C1.41277 67.0426 1.40152 67.5327 1.69568 67.842C1.98984 68.1513 2.47801 68.1626 2.78605 67.8672Z" fill="white"/>
<path d="M74.5431 76.9996C74.2015 80.9018 70.9364 84.0183 66.8992 84.0183H38.6531C34.7509 84.0183 31.5721 81.1079 31.0553 77.3916C30.9767 76.837 30.9594 76.2753 31.0035 75.7168L31.8205 65.1775L33.0307 49.5576C33.048 49.3341 33.0755 49.1122 33.1112 48.8944C33.4084 47.0944 34.3324 45.4588 35.7186 44.279C37.1047 43.0993 38.8631 42.4519 40.6803 42.4524H64.872C66.6538 42.4525 68.38 43.0752 69.7546 44.2135C71.1291 45.3519 72.0663 46.935 72.4053 48.6913C72.4601 48.9777 72.499 49.2669 72.5216 49.5576L73.7204 65.0309L74.5488 75.7168C74.5829 76.1438 74.581 76.5729 74.5431 76.9996Z" fill="white"/>
<path d="M66.9 84.6305H38.6523C37.5104 84.6303 36.3809 84.393 35.3347 83.9337C34.2885 83.4744 33.3482 82.8029 32.5726 81.9614C31.7971 81.12 31.2032 80.1266 30.8282 79.0437C30.4531 77.9609 30.3051 76.8119 30.3932 75.6688L32.42 49.5084C32.7543 45.2054 36.3821 41.8349 40.6807 41.8349H64.8732C69.1718 41.8349 72.8002 45.2054 73.1335 49.5084L75.1607 75.6688C75.2489 76.812 75.1007 77.9612 74.7256 79.0441C74.3504 80.1271 73.7564 81.1205 72.9807 81.9621C72.205 82.8036 71.2644 83.475 70.218 83.9342C69.1716 84.3934 68.042 84.6305 66.9 84.6305ZM40.6807 43.0637C37.0179 43.0637 33.926 45.9354 33.6422 49.602L31.6151 75.7628C31.5396 76.7371 31.6655 77.7164 31.985 78.6395C32.3045 79.5625 32.8106 80.4093 33.4716 81.1266C34.1325 81.8438 34.9341 82.4162 35.8258 82.8076C36.7176 83.199 37.6803 83.4011 38.6536 83.4011H66.9013C67.8746 83.4011 68.8373 83.199 69.7291 82.8076C70.6209 82.4162 71.4225 81.8438 72.0834 81.1266C72.7444 80.4093 73.2506 79.5626 73.5701 78.6395C73.8896 77.7165 74.0156 76.7371 73.9402 75.7628L71.913 49.602C71.6289 45.9354 68.5367 43.0637 64.8745 43.0637H40.6807Z" fill="#371A45"/>
<path d="M91.3647 61.4684C91.224 63.2963 90.5735 65.0708 88.9999 66.4084C82.6818 71.781 72.3615 65.5162 68.3962 59.9274C68.2654 59.7445 66.8942 57.2057 65.5146 54.147C63.2992 49.2298 61.0638 42.9636 63.9397 42.9636C68.6041 42.9636 77.635 57.0832 85.8171 54.0936C89.1851 52.8638 89.2901 52.7373 89.2901 52.7268C89.3245 52.792 91.6907 57.2678 91.3647 61.4684Z" fill="white"/>
<g opacity="0.35">
<path d="M91.3648 61.4665C91.2241 63.2944 90.5735 65.0689 89 66.4065C82.6819 71.7791 72.3616 65.5143 68.3962 59.9255C68.2655 59.7426 66.8942 57.2038 65.5146 54.145C65.8011 54.1125 66.0891 54.0961 66.3774 54.096C71.8531 54.096 74.1634 66.101 84.3353 65.419C87.9176 65.1783 90.0748 63.5149 91.3648 61.4665Z" fill="#371A45"/>
</g>
<path d="M83.2516 69.0732C82.7345 69.0719 82.218 69.0382 81.7051 68.9725C76.1957 68.28 70.5876 64.0764 67.8955 60.2816C67.8119 60.1642 60.4558 46.8431 62.263 43.3235C62.492 42.8778 62.9687 42.3461 63.9378 42.3461C65.9723 42.3461 68.4982 44.5201 71.4233 47.0374C75.6595 50.6835 80.9319 55.2211 85.6067 53.5154C87.1591 52.9481 87.9952 52.6239 88.4435 52.4413L87.8752 51.3672L89.9217 52.3436L89.9104 52.5876C90.5686 53.8879 94.6085 62.4432 89.3962 66.8754C87.6769 68.3371 85.6157 69.0732 83.2516 69.0732ZM63.9378 43.5776C63.5701 43.5776 63.4431 43.7199 63.3598 43.874C63.0977 44.361 62.7735 46.1661 65.4167 52.3957C66.9662 56.0468 68.749 59.3462 68.8991 59.5785C71.3685 63.0588 76.7549 67.1127 81.8572 67.7541C84.5239 68.0897 86.7924 67.4785 88.6026 65.9389C92.6987 62.4556 89.9087 55.5031 89.0037 53.5412C88.4124 53.7862 87.4112 54.1665 86.0265 54.6723C80.6779 56.6265 75.1049 51.8288 70.626 47.9742C67.9995 45.7123 65.5187 43.5776 63.9378 43.5776Z" fill="#371A45"/>
<path d="M79.9991 68.6309C79.9223 68.6309 79.8462 68.6163 79.7748 68.5879C76.8177 67.4172 75.9127 63.5392 75.6363 61.3316C75.2054 57.8899 75.6844 53.49 77.2101 52.383C77.2754 52.3357 77.3492 52.3017 77.4275 52.2831C77.5058 52.2644 77.587 52.2615 77.6665 52.2743C77.7459 52.2872 77.8221 52.3156 77.8906 52.358C77.9591 52.4004 78.0186 52.456 78.0657 52.5215C78.1129 52.587 78.1467 52.6611 78.1653 52.7398C78.1838 52.8184 78.1868 52.8999 78.174 52.9797C78.1612 53.0595 78.1329 53.1359 78.0906 53.2047C78.0484 53.2735 77.9931 53.3332 77.9278 53.3806C77.179 53.924 76.368 57.3109 76.8521 61.1782C77.2649 64.4746 78.4938 66.7583 80.2241 67.4434C80.3568 67.496 80.467 67.5934 80.5359 67.7188C80.6047 67.8443 80.6278 67.9899 80.6011 68.1306C80.5744 68.2713 80.4997 68.3983 80.3898 68.4896C80.2799 68.5809 80.1418 68.6309 79.9991 68.6309Z" fill="#371A45"/>
<path d="M86.9192 58.4892C83.1477 60.3259 81.6835 58.3133 77.8626 57.7112C75.5727 57.3507 71.8386 57.5471 72.4226 54.8008C72.552 54.1896 72.9869 53.858 73.5629 53.6633C74.9857 53.1807 77.2642 53.5338 77.9 52.5607C78.7816 51.2635 77.2812 49.1529 75.702 47.7761C74.0496 46.3349 72.6396 45.0749 73.4289 43.7457C73.6859 43.3134 74.0002 43.0654 74.3478 42.9529C74.4794 42.9102 74.6162 42.8859 74.7543 42.8807C75.1404 42.8606 75.5496 42.9704 75.9514 43.1519H75.9531C77.0897 43.6594 78.1725 44.7295 78.5272 45.1007L78.5302 45.1037C78.5445 45.1182 78.5572 45.1312 78.5689 45.144C78.6204 45.1987 78.6478 45.2292 78.6478 45.2292C78.5813 44.9216 78.5447 44.6082 78.5385 44.2935C78.5271 43.7155 78.6335 43.0237 79.1359 42.7092C80.8615 41.6281 82.3735 43.6954 83.229 45.3242C83.3426 45.5404 83.4403 45.7465 83.5248 45.9428C84.0116 47.0612 84.0717 47.8281 84.0717 47.8281C84.0717 47.8281 84.172 47.8557 84.3432 47.9117C85.1789 48.1856 87.7242 49.1516 88.7508 51.05C88.8519 51.2365 88.9369 51.4313 89.0049 51.6323C89.9185 54.3464 89.3612 57.3 86.9192 58.4892Z" fill="white"/>
<g opacity="0.35">
<path d="M80.4443 50.4627C80.4443 50.4627 77.9445 44.7514 74.631 43.1121C74.534 43.0661 74.44 43.0141 74.3495 42.9564C74.4811 42.9136 74.6179 42.8893 74.756 42.8842C75.079 42.9419 75.5182 43.0456 75.9531 43.1554H75.9548C77.0914 43.6629 78.1742 44.7329 78.5289 45.1041L78.5319 45.1072C79.4034 46.578 80.5316 48.8197 80.4443 50.4627Z" fill="#371A45"/>
</g>
<g opacity="0.35">
<path d="M84.3428 47.9117L83.1253 49.4123L81.3536 50.5844C81.3536 50.5844 80.451 50.959 80.451 50.2642C80.451 48.1309 79.3478 46.2771 78.5702 45.144C78.6217 45.1987 78.6491 45.2292 78.6491 45.2292C78.5826 44.9216 78.546 44.6082 78.5398 44.2934C80.3534 45.5232 80.3333 48.3054 81.4482 47.5686C82.5754 46.8249 82.6516 46.0163 83.5271 45.9428C84.0139 47.0612 84.074 47.8281 84.074 47.8281C84.074 47.8281 84.172 47.8566 84.3428 47.9117Z" fill="#371A45"/>
</g>
<g opacity="0.35">
<path d="M86.9192 58.4876C83.1477 60.3243 81.6835 58.3118 77.8626 57.7096C75.5727 57.3491 71.8386 57.5455 72.4226 54.7992C72.552 54.188 72.9869 53.8564 73.5629 53.6617C73.5542 54.4807 72.8275 55.4175 75.0702 55.9914C78.7501 56.9313 80.7198 56.9282 81.9129 56.3942C83.9905 55.4645 80.9551 53.066 81.1106 51.0189C81.254 49.1188 87.1018 51.3938 87.1018 51.3938L88.7498 51.0477C88.8509 51.2342 88.9359 51.4291 89.0039 51.6301C89.9185 54.3448 89.3612 57.2984 86.9192 58.4876Z" fill="#371A45"/>
</g>
<path d="M83.5181 59.8369C83.4987 59.837 83.4793 59.8361 83.4599 59.8342C82.5323 59.7463 81.6882 59.4539 80.7929 59.1441C79.888 58.8306 78.9523 58.5064 77.7679 58.3198C77.3882 58.26 76.9633 58.2157 76.5137 58.1687C74.8593 57.9965 72.9842 57.7995 72.1562 56.6583C71.7691 56.1237 71.6571 55.4561 71.8235 54.6733C72.1705 53.0418 73.9466 52.8763 75.3741 52.7437C76.2098 52.6658 77.1572 52.5779 77.3885 52.2245C77.9902 51.3394 76.7597 49.5148 75.3009 48.2431C73.5986 46.7588 71.8386 45.2246 72.9026 43.4319C73.4181 42.5636 74.1161 42.3243 74.6105 42.2743C75.7849 42.1588 77.0586 42.9791 77.9535 43.7233C78.028 43.1359 78.2543 42.5364 78.8106 42.1887C79.422 41.8061 80.0615 41.7013 80.712 41.8779C81.7945 42.1716 82.8241 43.2352 83.7715 45.0393C84.2967 46.0399 84.5226 46.8783 84.6173 47.3553C85.7064 47.7205 88.7458 48.9432 89.5848 51.4371C90.0863 52.9273 90.1665 54.4746 89.8108 55.7944C89.4113 57.2786 88.5037 58.4023 87.1863 59.0438C87.04 59.115 86.8715 59.1249 86.7179 59.0714C86.5643 59.0179 86.4382 58.9053 86.3673 58.7585C86.2963 58.6116 86.2864 58.4424 86.3397 58.2882C86.393 58.134 86.5051 58.0074 86.6514 57.9361C87.6403 57.4545 88.3229 56.6026 88.6278 55.4725C88.9209 54.3854 88.8484 53.0918 88.4238 51.8301C87.6279 49.4641 83.9483 48.433 83.9109 48.423C83.7891 48.3897 83.6804 48.3195 83.5999 48.2219C83.5193 48.1244 83.4706 48.0042 83.4606 47.8779C83.4606 47.8712 83.3683 46.9099 82.6867 45.6123C81.9269 44.1646 81.1115 43.2601 80.3918 43.0647C80.0749 42.9788 79.7784 43.0312 79.4588 43.2326C79.0733 43.4735 79.1028 44.4828 79.2438 45.089C79.2748 45.2219 79.2609 45.3613 79.2043 45.4854C79.1478 45.6095 79.0518 45.7112 78.9314 45.7745C78.811 45.8379 78.673 45.8592 78.5392 45.8353C78.4054 45.8113 78.2833 45.7434 78.1922 45.6421C77.3975 44.7597 75.7602 43.3967 74.7285 43.4987C74.528 43.5185 74.2288 43.5994 73.954 44.0616C73.4526 44.9088 74.4304 45.8553 76.1032 47.3133C77.8709 48.8549 79.5347 51.2451 78.4058 52.9082C77.8565 53.7473 76.6511 53.8601 75.4857 53.9685C74.0924 54.098 73.1684 54.235 73.0206 54.9301C72.9287 55.3624 72.9698 55.691 73.1457 55.9344C73.6528 56.6348 75.3085 56.807 76.639 56.946C77.105 56.9947 77.5453 57.0403 77.9565 57.1054C79.2482 57.3088 80.2805 57.6663 81.1911 57.9818C82.0502 58.2792 82.7917 58.5363 83.5736 58.6101C83.7304 58.6249 83.8756 58.6997 83.9789 58.8191C84.0822 58.9385 84.1358 59.0932 84.1285 59.2512C84.1212 59.4092 84.0536 59.5583 83.9396 59.6676C83.8257 59.7768 83.6743 59.8378 83.5168 59.8379L83.5181 59.8369Z" fill="#371A45"/>
<path d="M80.1383 50.4321C80.1383 50.3472 80.1306 50.2277 80.1203 50.1227C80.1099 50.0176 80.0969 49.9048 80.0775 49.7954C80.042 49.5759 79.9956 49.3584 79.9384 49.1436C79.8223 48.7119 79.6744 48.2894 79.4962 47.8796C79.3159 47.4699 79.111 47.0716 78.8824 46.687C78.7721 46.4927 78.643 46.3081 78.525 46.1188L78.1376 45.5707L78.1205 45.5462C78.0263 45.4126 77.9887 45.247 78.016 45.0856C78.0434 44.9242 78.1335 44.7804 78.2665 44.6857C78.3994 44.5911 78.5645 44.5533 78.7252 44.5808C78.8859 44.6083 79.0291 44.6987 79.1234 44.8322C79.1361 44.8507 79.1485 44.8702 79.1592 44.8893C79.2779 45.1034 79.3992 45.3152 79.5142 45.5304C79.6209 45.7512 79.7372 45.9667 79.8345 46.1899C80.0372 46.6353 80.2125 47.0927 80.3593 47.5597C80.5046 48.0279 80.6151 48.5063 80.6899 48.9909C80.7269 49.2344 80.7517 49.4796 80.7641 49.7256C80.7796 49.9806 80.7746 50.2364 80.7491 50.4905C80.7402 50.5681 80.7023 50.6394 80.6429 50.6899C80.5836 50.7404 80.5073 50.7663 80.4296 50.7623C80.3519 50.7583 80.2787 50.7248 80.2247 50.6685C80.1708 50.6122 80.1403 50.5374 80.1393 50.4593L80.1383 50.4321Z" fill="#371A45"/>
<path d="M86.7453 49.4083C86.7453 49.4083 85.8824 49.897 85.2466 50.7173C84.6018 51.5474 84.2658 52.9588 82.7785 52.6919C81.7489 52.506 81.0957 50.9953 81.7533 49.3882C82.0461 48.6716 82.599 47.9365 83.4949 47.2894C83.4949 47.2894 84.7251 46.5943 85.7434 47.2286C86.4023 47.6395 86.6476 48.202 86.7326 48.6558C86.7797 48.9041 86.784 49.1586 86.7453 49.4083Z" fill="white"/>
<g opacity="0.35">
<path d="M86.7453 49.4075C86.7453 49.4075 85.8824 49.8962 85.2466 50.7166C84.6018 51.5466 84.2658 52.958 82.7785 52.6912C81.7489 52.5052 81.0957 50.9945 81.7533 49.3874C82.009 49.9077 81.9772 51.0394 82.7454 51.1301C83.8366 51.2583 84.5215 48.1764 86.7326 48.655C86.7797 48.9033 86.784 49.1578 86.7453 49.4075Z" fill="#371A45"/>
</g>
<path d="M83.1346 53.3404C82.9786 53.3398 82.823 53.3253 82.6696 53.2971C81.8389 53.1478 81.1827 52.4355 80.9577 51.4387C80.6689 50.1595 81.0894 48.2662 83.1363 46.7893C83.1546 46.776 83.1737 46.7638 83.1934 46.7527C83.2566 46.7172 84.7546 45.8891 86.066 46.7058C87.688 47.716 87.3597 49.458 87.345 49.5299C87.3275 49.6166 87.2915 49.6984 87.2396 49.7699C87.1877 49.8414 87.121 49.9008 87.0442 49.9441C87.0254 49.9548 86.2713 50.3928 85.7271 51.0946C85.5903 51.2816 85.4649 51.4766 85.3513 51.6787C84.9522 52.355 84.3682 53.3401 83.1346 53.3404ZM83.8182 47.8114C82.2862 48.9328 81.9522 50.277 82.1528 51.1651C82.2655 51.6639 82.5539 52.0247 82.8856 52.0845C83.5458 52.2026 83.7982 51.8948 84.2996 51.0483C84.4414 50.809 84.5878 50.5613 84.762 50.3371C85.2373 49.7242 85.82 49.2805 86.1603 49.0502C86.157 48.7223 86.052 48.144 85.4198 47.7499C84.7877 47.3559 83.967 47.7379 83.8182 47.8114Z" fill="#371A45"/>
<path d="M88.9775 51.4478C88.9579 51.6406 88.9228 51.8314 88.8726 52.0184C88.8726 52.0184 88.3902 51.863 87.7527 52.683C87.1082 53.5134 87.0664 54.1535 85.8161 54.0944C85.0138 54.0568 84.1677 53.0982 84.363 51.8714C84.4793 51.1394 84.9647 50.3134 86.0501 49.5306C86.0501 49.5306 87.3021 48.801 88.2999 49.4699C89.0039 49.9401 89.0407 50.8524 88.9775 51.4478Z" fill="white"/>
<g opacity="0.35">
<path d="M88.9777 51.4458C88.958 51.6385 88.9229 51.8294 88.8727 52.0164C88.8727 52.0164 88.3903 51.861 87.7528 52.681C87.1083 53.5114 87.0665 54.1515 85.8163 54.0924C85.014 54.0548 84.1679 53.0962 84.3631 51.8694C85.1012 52.1332 84.7078 53.0942 85.8571 53.022C86.8529 52.9582 87.1728 49.775 88.9777 51.4458Z" fill="#371A45"/>
</g>
<path d="M85.9652 54.7103C85.908 54.7103 85.8492 54.7103 85.788 54.7063C84.9225 54.6656 84.1186 53.9625 83.8334 52.9945C83.6409 52.3433 83.4373 50.6537 85.6934 49.0258C85.7095 49.0137 85.7263 49.0025 85.7436 48.9922C85.8081 48.9546 87.3405 48.0813 88.6402 48.9523C90.0967 49.929 89.4883 52.0936 89.4619 52.1852C89.4193 52.332 89.3238 52.4576 89.194 52.5376C89.0643 52.6175 88.9095 52.6462 88.7599 52.6179C88.691 52.6296 88.4941 52.7233 88.2364 53.0559C88.1083 53.2207 88.0047 53.3808 87.9044 53.5359C87.5334 54.1152 87.1469 54.7103 85.9652 54.7103ZM86.3777 50.0488C85.2605 50.8658 84.7614 51.811 85.0071 52.6464C85.1555 53.1499 85.5493 53.4634 85.8428 53.4771C86.4603 53.5067 86.5418 53.3838 86.8751 52.8683C86.9838 52.7004 87.1075 52.5091 87.2676 52.3024C87.6641 51.7912 88.0455 51.5562 88.3554 51.4559C88.4139 51.0064 88.4222 50.2895 87.9572 49.979C87.3552 49.5736 86.5241 49.973 86.3777 50.0488Z" fill="#371A45"/>
<path d="M14.3937 61.4684C14.5345 63.2963 15.1847 65.0708 16.7582 66.4084C23.0763 71.781 33.3966 65.5162 37.3623 59.9274C37.493 59.7445 38.8639 57.2057 40.2436 54.147C42.4589 49.2298 44.6943 42.9636 41.8187 42.9636C37.154 42.9636 28.1234 57.0832 19.9413 54.0936C16.573 52.8638 16.4683 52.7373 16.4683 52.7268C16.4339 52.792 14.0678 57.2678 14.3937 61.4684Z" fill="white"/>
<g opacity="0.35">
<path d="M14.393 61.4665C14.5337 63.2944 15.1839 65.0689 16.7574 66.4065C23.0755 71.7791 33.3958 65.5143 37.3615 59.9255C37.4922 59.7426 38.8632 57.2038 40.2428 54.145C39.9563 54.1125 39.6683 54.0961 39.38 54.096C33.9043 54.096 31.5943 66.101 21.4221 65.419C17.8402 65.1783 15.6837 63.5149 14.393 61.4665Z" fill="#371A45"/>
</g>
<path d="M22.5059 69.0747C20.1418 69.0747 18.0809 68.3386 16.363 66.8776C11.1514 62.4471 15.19 53.8911 15.8488 52.5902L15.8371 52.3468L17.8844 51.3701L17.3141 52.4442C17.7627 52.6268 18.5984 52.951 20.1512 53.5182C24.8263 55.2257 30.0984 50.6881 34.3342 47.0403C37.2593 44.523 39.7855 42.349 41.8197 42.349C42.7891 42.349 43.2658 42.8807 43.4948 43.3267C45.3027 46.8486 37.9456 60.167 37.862 60.2845C35.17 64.079 29.5622 68.2829 24.0527 68.9753C23.5397 69.0407 23.0231 69.0738 22.5059 69.0747ZM16.7561 53.5411C15.8509 55.5029 13.0605 62.4554 17.1573 65.9388C18.9675 67.4784 21.238 68.0892 23.9026 67.7539C29.0069 67.1125 34.3914 63.0586 36.8665 59.5702C37.0112 59.3477 38.7933 56.049 40.3431 52.3972C42.9864 46.1676 42.6625 44.3625 42.4004 43.8755C42.3171 43.7214 42.1898 43.5791 41.822 43.5791C40.2412 43.5791 37.7607 45.7138 35.1362 47.9744C31.3704 51.2154 26.8297 55.1236 22.2994 55.1236C21.4247 55.1262 20.5564 54.9736 19.7347 54.6729C18.3474 54.1664 17.3461 53.7868 16.7544 53.5411H16.7561Z" fill="#371A45"/>
<path d="M25.7592 68.631C25.6165 68.631 25.4783 68.581 25.3684 68.4897C25.2585 68.3984 25.1838 68.2714 25.1572 68.1307C25.1305 67.99 25.1536 67.8444 25.2224 67.7189C25.2912 67.5935 25.4015 67.4961 25.5342 67.4435C27.2645 66.7584 28.4933 64.4747 28.9062 61.178C29.3902 57.311 28.5796 53.9241 27.8304 53.3807C27.6987 53.285 27.6102 53.1408 27.5843 52.9797C27.5585 52.8185 27.5975 52.6537 27.6927 52.5214C27.7879 52.3891 27.9316 52.3002 28.0921 52.2743C28.2526 52.2484 28.4167 52.2875 28.5485 52.3831C30.0739 53.4907 30.5542 57.8897 30.122 61.3314C29.8459 63.5389 28.9406 67.4173 25.9835 68.588C25.9121 68.6164 25.8359 68.631 25.7592 68.631Z" fill="#371A45"/>
<path d="M18.8386 58.4892C22.6105 60.3259 24.0733 58.3133 27.896 57.7112C30.1859 57.3507 33.9202 57.5471 33.3359 54.8008C33.2065 54.1896 32.7716 53.858 32.196 53.6633C30.7732 53.1807 28.4947 53.5338 27.8585 52.5607C26.9763 51.2631 28.4766 49.1523 30.0562 47.7761C31.7086 46.3349 33.1183 45.0749 32.3293 43.7457C32.0723 43.3134 31.758 43.0654 31.4104 42.9529C31.2789 42.9102 31.1423 42.8859 31.0042 42.8807C30.6181 42.8606 30.2086 42.9704 29.8068 43.1519C28.6702 43.6594 27.5871 44.7295 27.2327 45.1007L27.23 45.1037C27.2157 45.1182 27.2026 45.1312 27.1913 45.144C27.1395 45.1987 27.1124 45.2292 27.1124 45.2292C27.1787 44.9216 27.2152 44.6082 27.2214 44.2935C27.2327 43.7155 27.1267 43.0237 26.624 42.7092C24.8984 41.6281 23.3867 43.6954 22.5309 45.3242C22.4176 45.5404 22.32 45.7465 22.235 45.9428C21.7483 47.0612 21.6881 47.8281 21.6881 47.8281C21.6881 47.8281 21.5879 47.8557 21.4167 47.9117C20.581 48.1856 18.0357 49.1516 17.0091 51.05C16.9081 51.2366 16.8231 51.4314 16.755 51.6323C15.8397 54.3464 16.3963 57.3 18.8386 58.4892Z" fill="white"/>
<g opacity="0.35">
<path d="M25.3148 50.4627C25.3148 50.4627 27.8143 44.7514 31.1278 43.1121C31.2248 43.0662 31.3189 43.0142 31.4093 42.9564C31.2779 42.9136 31.1412 42.8893 31.0032 42.8842C30.6799 42.9419 30.2406 43.0456 29.8057 43.1554C28.6691 43.6629 27.586 44.7329 27.2317 45.1041L27.229 45.1072C26.3558 46.578 25.2272 48.8197 25.3148 50.4627Z" fill="#371A45"/>
</g>
<g opacity="0.35">
<path d="M21.4145 47.9117L22.632 49.4123L24.4037 50.5844C24.4037 50.5844 25.3063 50.959 25.3063 50.2642C25.3063 48.1309 26.4095 46.2771 27.187 45.144C27.1352 45.1987 27.1081 45.2292 27.1081 45.2292C27.1744 44.9215 27.2109 44.6082 27.2171 44.2934C25.4039 45.5232 25.424 48.3054 24.3088 47.5686C23.1819 46.8249 23.1053 46.0163 22.2298 45.9428C21.7431 47.0612 21.6829 47.8281 21.6829 47.8281C21.6829 47.8281 21.5853 47.8566 21.4145 47.9117Z" fill="#371A45"/>
</g>
<g opacity="0.35">
<path d="M18.8389 58.4876C22.6107 60.3243 24.0736 58.3118 27.8962 57.7096C30.1861 57.3491 33.9205 57.5455 33.3361 54.7992C33.2068 54.188 32.7718 53.8564 32.1962 53.6617C32.2045 54.4807 32.9316 55.4175 30.6885 55.9914C27.009 56.9313 25.039 56.9282 23.8459 56.3942C21.7686 55.4645 24.8036 53.066 24.6482 51.0189C24.5045 49.1188 18.657 51.3938 18.657 51.3938L17.0086 51.0477C16.9077 51.2343 16.8227 51.4291 16.7546 51.6301C15.8399 54.3448 16.3965 57.2984 18.8389 58.4876Z" fill="#371A45"/>
</g>
<path d="M22.2406 59.8372C22.0831 59.8371 21.9316 59.7761 21.8177 59.6669C21.7038 59.5576 21.6362 59.4085 21.6289 59.2505C21.6216 59.0926 21.6751 58.9378 21.7785 58.8184C21.8818 58.699 22.0269 58.6242 22.1838 58.6094C22.9654 58.5356 23.7072 58.2785 24.5659 57.9811C25.4769 57.6656 26.5092 57.3098 27.8006 57.1047C28.2121 57.0396 28.6523 56.994 29.1183 56.9453C30.4485 56.8067 32.1042 56.6342 32.6114 55.9337C32.7875 55.6903 32.8287 55.3631 32.7367 54.9294C32.589 54.2343 31.6646 54.0974 30.2717 53.9678C29.106 53.8594 27.9008 53.7473 27.3459 52.8991C26.2227 51.2441 27.8865 48.8539 29.6542 47.3127C31.3257 45.8546 32.3062 44.9081 31.803 44.0609C31.5283 43.5981 31.2294 43.5179 31.0285 43.4981C30.0015 43.3953 28.3598 44.7587 27.5649 45.6418C27.4737 45.7432 27.3515 45.8113 27.2175 45.8353C27.0836 45.8592 26.9455 45.8378 26.825 45.7742C26.7045 45.7106 26.6086 45.6086 26.5522 45.4843C26.4959 45.3599 26.4824 45.2203 26.5139 45.0873C26.6546 44.4832 26.6837 43.4729 26.2986 43.2319C25.9787 43.0305 25.6825 42.9788 25.3652 43.0641C24.6455 43.2594 23.8305 44.164 23.0703 45.6116C22.3887 46.9092 22.2974 47.8705 22.2964 47.8799C22.2855 48.0058 22.2364 48.1254 22.1558 48.2225C22.0752 48.3197 21.9669 48.3897 21.8455 48.4233C21.809 48.433 18.1295 49.4638 17.3325 51.8301C16.908 53.0918 16.8358 54.3853 17.1286 55.4725C17.4328 56.6026 18.1164 57.4548 19.1049 57.9361C19.2512 58.0073 19.3634 58.134 19.4166 58.2882C19.4699 58.4424 19.46 58.6116 19.3891 58.7585C19.3182 58.9053 19.192 59.0179 19.0384 59.0714C18.8848 59.1249 18.7164 59.115 18.5701 59.0438C17.253 58.4023 16.3454 57.2786 15.9455 55.7944C15.5902 54.4746 15.6704 52.9273 16.1715 51.437C17.0109 48.9432 20.0493 47.7205 21.1394 47.3553C21.2341 46.878 21.4597 46.0396 21.9852 45.0393C22.9326 43.2352 23.9619 42.1716 25.0443 41.8779C25.6952 41.7013 26.3347 41.8061 26.9458 42.1887C27.5014 42.5364 27.7287 43.1359 27.8032 43.7233C28.6988 42.9791 29.9735 42.1592 31.1462 42.2743C31.6409 42.3233 32.3389 42.5636 32.8544 43.4319C33.9181 45.2246 32.1581 46.7588 30.4558 48.2431C28.9993 49.5138 27.7695 51.3384 28.3642 52.2147C28.6012 52.5769 29.5486 52.6648 30.3846 52.7427C31.8117 52.877 33.5882 53.0408 33.9352 54.6723C34.1023 55.455 33.9897 56.1226 33.6025 56.6573C32.7742 57.8012 30.8995 57.9969 29.245 58.1677C28.7954 58.2147 28.3705 58.259 27.9908 58.3188C26.8064 58.5057 25.8707 58.8296 24.9658 59.1431C24.0712 59.4529 23.2274 59.7453 22.2984 59.8332C22.2792 59.8355 22.2599 59.8369 22.2406 59.8372Z" fill="#371A45"/>
<path d="M25.0097 50.4924C24.9844 50.2382 24.9794 49.9824 24.9947 49.7274C25.0071 49.4814 25.0319 49.2362 25.0689 48.9927C25.1437 48.5081 25.2543 48.0297 25.3998 47.5615C25.5464 47.0946 25.7215 46.6371 25.924 46.1918C26.0216 45.9672 26.1376 45.7531 26.2443 45.5322C26.3592 45.3171 26.4806 45.1053 26.5996 44.8911C26.6379 44.8187 26.6902 44.7546 26.7535 44.7026C26.8168 44.6507 26.8898 44.612 26.9682 44.5887C27.0466 44.5655 27.1288 44.5581 27.21 44.5672C27.2912 44.5762 27.3699 44.6014 27.4413 44.6413C27.5127 44.6813 27.5754 44.7351 27.6259 44.7997C27.6763 44.8642 27.7134 44.9383 27.735 45.0174C27.7566 45.0966 27.7622 45.1793 27.7516 45.2606C27.7409 45.342 27.7142 45.4204 27.673 45.4913C27.662 45.5107 27.6503 45.5295 27.6376 45.5477L27.6199 45.5725L27.2324 46.1206C27.1148 46.3099 26.9857 46.4945 26.8754 46.6889C26.6469 47.073 26.4419 47.4708 26.2616 47.8801C26.0836 48.29 25.9358 48.7125 25.8194 49.1441C25.7621 49.3589 25.7158 49.5764 25.6806 49.7959C25.6609 49.9053 25.6492 50.0144 25.6375 50.1232C25.6258 50.2319 25.6201 50.3477 25.6198 50.4326V50.4598C25.6189 50.5379 25.5883 50.6127 25.5344 50.669C25.4805 50.7253 25.4072 50.7589 25.3295 50.7628C25.2518 50.7668 25.1755 50.7409 25.1162 50.6904C25.0568 50.6399 25.0189 50.5686 25.01 50.491L25.0097 50.4924Z" fill="#371A45"/>
<path d="M19.0126 49.4083C19.0126 49.4083 19.8754 49.897 20.5115 50.7173C21.156 51.5474 21.492 52.9588 22.9793 52.6919C24.0089 52.506 24.6621 50.9953 24.0045 49.3882C23.7117 48.6716 23.1588 47.9365 22.2629 47.2894C22.2629 47.2894 21.0327 46.5943 20.0148 47.2286C19.3555 47.6395 19.1102 48.202 19.0256 48.6558C18.9785 48.9041 18.9741 49.1586 19.0126 49.4083Z" fill="white"/>
<g opacity="0.35">
<path d="M19.0126 49.4075C19.0126 49.4075 19.8754 49.8962 20.5115 50.7166C21.156 51.5466 21.492 52.958 22.9793 52.6912C24.0089 52.5052 24.6621 50.9945 24.0045 49.3874C23.7491 49.9077 23.7806 51.0394 23.0124 51.1301C21.9212 51.2583 21.2366 48.1764 19.0256 48.655C18.9785 48.9033 18.9741 49.1578 19.0126 49.4075Z" fill="#371A45"/>
</g>
<path d="M22.623 53.3406C21.3888 53.3406 20.8051 52.3551 20.4046 51.6788C20.2911 51.4768 20.1656 51.2818 20.0289 51.0948C19.4803 50.3876 18.7188 49.9482 18.7115 49.9439C18.6348 49.9005 18.5682 49.8411 18.5163 49.7697C18.4644 49.6983 18.4284 49.6166 18.4106 49.53C18.3962 49.4565 18.0676 47.7175 19.6896 46.7059C21.0017 45.8889 22.4977 46.7173 22.5622 46.7529C22.582 46.7639 22.6011 46.7761 22.6193 46.7895C24.6662 48.2663 25.0871 50.1597 24.7979 51.4388C24.5729 52.4357 23.9171 53.1479 23.0863 53.2973C22.9335 53.3254 22.7784 53.3399 22.623 53.3406ZM19.5973 49.0514C19.9373 49.282 20.52 49.7257 20.9957 50.3386C21.1695 50.5628 21.3163 50.8105 21.458 51.0498C21.9594 51.8963 22.2112 52.2044 22.8717 52.0859C23.2043 52.0262 23.4918 51.6654 23.6045 51.1666C23.8051 50.2785 23.4708 48.9342 21.9397 47.8132C21.7913 47.739 20.9669 47.3591 20.3375 47.7514C19.708 48.1438 19.6003 48.7238 19.5973 49.0514Z" fill="#371A45"/>
<path d="M16.7806 51.4478C16.8 51.6406 16.835 51.8314 16.8852 52.0184C16.8852 52.0184 17.3676 51.863 18.0051 52.683C18.6496 53.5134 18.6914 54.1535 19.942 54.0944C20.7443 54.0568 21.59 53.0982 21.3948 51.8714C21.2785 51.1394 20.7931 50.3134 19.708 49.5306C19.708 49.5306 18.456 48.801 17.4582 49.4699C16.7545 49.9401 16.7174 50.8524 16.7806 51.4478Z" fill="white"/>
<g opacity="0.35">
<path d="M16.7802 51.4458C16.7997 51.6386 16.8347 51.8294 16.8848 52.0164C16.8848 52.0164 17.3672 51.861 18.0047 52.681C18.6492 53.5114 18.691 54.1515 19.9416 54.0924C20.7439 54.0548 21.5897 53.0962 21.3945 51.8694C20.6567 52.1332 21.0501 53.0942 19.9005 53.022C18.9036 52.9582 18.5847 49.775 16.7802 51.4458Z" fill="#371A45"/>
</g>
<path d="M19.7922 54.7133C18.6101 54.7133 18.225 54.1182 17.8533 53.5416C17.753 53.3865 17.6494 53.2264 17.5213 53.0616C17.3702 52.8666 17.0731 52.6045 17.0721 52.6045C16.9941 52.6296 16.9119 52.6389 16.8304 52.6316C16.7489 52.6244 16.6696 52.6007 16.5973 52.5622C16.525 52.5236 16.4611 52.4709 16.4094 52.4072C16.3578 52.3434 16.3194 52.2699 16.2965 52.191C16.2697 52.0993 15.6613 49.9348 17.1182 48.958C18.4182 48.087 19.95 48.9604 20.0145 48.998C20.0319 49.0083 20.0488 49.0195 20.065 49.0315C22.3208 50.6594 22.1172 52.3491 21.925 53.0002C21.6395 53.9665 20.8358 54.6697 19.97 54.712C19.9082 54.712 19.8494 54.7133 19.7922 54.7133ZM17.3993 51.4576C17.7092 51.5583 18.0906 51.7932 18.4871 52.3041C18.6476 52.5108 18.7709 52.7015 18.8799 52.87C19.2142 53.3852 19.2931 53.5077 19.9119 53.4788C20.207 53.4651 20.6005 53.1506 20.7476 52.6481C20.9943 51.8124 20.4952 50.8672 19.377 50.0502C19.2376 49.9777 18.4025 49.5733 17.7955 49.9801C17.3318 50.2926 17.3408 51.0095 17.3987 51.4589L17.3993 51.4576Z" fill="#371A45"/>
<path d="M30.6814 77.4679C31.6843 71.2628 33.8819 59.4535 37.3673 50.0273C38.7502 46.2852 42.4916 43.7678 46.7084 43.7678H58.9562C63.173 43.7678 66.9144 46.2852 68.2973 50.0273C71.7817 59.4535 73.9803 71.2628 74.9832 77.4679C75.4352 80.2681 73.7329 82.9855 70.9018 83.9606C67.3142 85.1964 61.4962 86.4853 52.8333 86.4853C44.1704 86.4853 38.3524 85.1964 34.7648 83.9606C31.9317 82.9855 30.2291 80.2692 30.6814 77.4679Z" fill="white"/>
<path d="M69.9386 54.2506C70.8589 56.1725 71.5 58.1937 72.0627 60.2304C72.6253 62.2671 73.0906 64.3303 73.5162 66.3986C73.7315 67.4324 73.9437 68.4665 74.145 69.5026C74.3462 70.5387 74.5501 71.5745 74.7427 72.612C74.9352 73.6495 75.1191 74.689 75.2943 75.7298L75.5537 77.2916C75.6362 77.8498 75.6764 78.4472 75.6092 79.0235C75.5421 79.602 75.4001 80.1692 75.1866 80.7108C74.9622 81.2454 74.6723 81.75 74.3238 82.2128C73.9692 82.668 73.5604 83.0779 73.1067 83.4335C72.6524 83.7873 72.1502 84.0713 71.6308 84.3096C71.0869 84.5334 70.5945 84.6888 70.0833 84.8466C69.5722 85.0044 69.0621 85.151 68.5479 85.2873C67.52 85.5619 66.4827 85.7938 65.439 85.9922C63.3557 86.3949 61.2506 86.6527 59.1436 86.8296C57.0366 87.0065 54.9228 87.0776 52.8121 87.0776C50.7014 87.0776 48.5883 87.0004 46.4806 86.8266C44.3729 86.6527 42.2685 86.3902 40.1852 85.9851C39.1432 85.7867 38.1059 85.5555 37.0763 85.2802C36.5621 85.1433 36.05 84.9976 35.5412 84.8382C35.0324 84.6788 34.5353 84.5207 33.9928 84.2948C33.4709 84.0567 32.9774 83.7601 32.5219 83.4107C32.0717 83.0507 31.6655 82.6384 31.3117 82.1826C30.9666 81.7166 30.6807 81.2092 30.4606 80.6722C30.2481 80.1302 30.1096 79.5618 30.0488 78.9826C29.9789 78.4076 30.0317 77.8048 30.1136 77.2547L30.373 75.6929C30.5486 74.6524 30.7348 73.6119 30.9253 72.5754C31.3097 70.4998 31.7253 68.43 32.1719 66.366C32.3947 65.334 32.6276 64.304 32.8705 63.2761C32.9892 62.7615 33.1046 62.246 33.2282 61.7321C33.3519 61.2182 33.4602 60.7013 33.5913 60.1881C33.8417 59.1611 34.1375 58.1454 34.4705 57.1412C34.5571 56.8908 34.647 56.6417 34.7422 56.3944C34.8375 56.147 34.9308 55.8989 35.0354 55.6559C35.2432 55.163 35.4762 54.6813 35.7338 54.2127C35.7554 54.1711 35.7909 54.1384 35.834 54.1203C35.8772 54.1021 35.9253 54.0997 35.97 54.1134C36.0147 54.1271 36.0533 54.1561 36.079 54.1953C36.1047 54.2345 36.116 54.2815 36.1108 54.3281V54.3315C36.0644 54.8608 35.991 55.3873 35.8909 55.909C35.8444 56.1688 35.7993 56.4286 35.7441 56.6854C35.694 56.9435 35.6382 57.1999 35.579 57.4553C35.3443 58.4773 35.0901 59.4937 34.8165 60.5047C34.54 61.5153 34.2716 62.5289 34.0265 63.5486C33.7815 64.5683 33.5528 65.5917 33.3305 66.6171C32.8848 68.6672 32.4716 70.7246 32.091 72.7892C31.9015 73.8217 31.7185 74.8551 31.5417 75.8896L31.2857 77.4466C31.2603 77.5809 31.2542 77.6893 31.2389 77.8088C31.2217 77.9252 31.2123 78.0426 31.2108 78.1602C31.2108 78.2777 31.2044 78.3952 31.2048 78.5127L31.2302 78.8644C31.2802 79.333 31.3926 79.7926 31.5645 80.2311C31.7448 80.6685 31.9778 81.082 32.2585 81.4623C32.5505 81.8366 32.8848 82.1756 33.2546 82.4726C33.6336 82.7614 34.0431 83.0074 34.4758 83.206C34.902 83.3835 35.4048 83.5493 35.8959 83.701C36.387 83.8528 36.8847 83.9964 37.3838 84.1297C38.3814 84.3982 39.3923 84.6227 40.4102 84.8164C42.444 85.2125 44.5083 85.4662 46.5789 85.6404C48.6495 85.8146 50.7318 85.8878 52.8141 85.8878C54.8964 85.8878 56.9784 85.8146 59.05 85.6438C61.1216 85.4729 63.1852 85.2185 65.2194 84.8234C66.2374 84.6315 67.2464 84.4032 68.2464 84.1387C68.7455 84.0065 69.2426 83.8658 69.7343 83.7118C70.2261 83.5577 70.7322 83.3949 71.1584 83.2191C71.5906 83.0177 72.0082 82.7847 72.3833 82.4921C72.7566 82.1991 73.0933 81.8619 73.3861 81.4878C73.6695 81.1095 73.9061 80.698 74.0905 80.2624C74.2613 79.8236 74.3752 79.3646 74.4295 78.8966C74.4833 78.4247 74.4515 77.9645 74.3827 77.4826L74.1246 75.9295C73.9504 74.8944 73.7652 73.8613 73.5763 72.8288C73.3875 71.7964 73.1889 70.766 72.9796 69.7379C72.7704 68.7098 72.5517 67.6834 72.3187 66.6607C71.8507 64.6153 71.3493 62.5796 70.8696 60.5396C70.3839 58.4995 69.8921 56.4655 69.5605 54.3691C69.5544 54.3221 69.565 54.2745 69.5904 54.2346C69.6158 54.1946 69.6544 54.165 69.6995 54.1509C69.7445 54.1367 69.7931 54.1389 69.8366 54.1572C69.8802 54.1754 69.9159 54.2085 69.9376 54.2506H69.9386Z" fill="#371A45"/>
<path d="M76.31 31.8716C76.2456 31.8745 76.1813 31.8647 76.1208 31.8427C76.0602 31.8207 76.0046 31.7869 75.9571 31.7432C75.9096 31.6996 75.8711 31.6469 75.8439 31.5883C75.8167 31.5297 75.8013 31.4663 75.7985 31.4016L75.152 17.2653C75.149 17.2009 75.1587 17.1365 75.1806 17.0758C75.2024 17.0151 75.2359 16.9594 75.2792 16.9117C75.3225 16.864 75.3748 16.8254 75.433 16.798C75.4911 16.7706 75.5541 16.755 75.6183 16.7521C76.9784 16.6897 78.3075 17.1723 79.3132 18.0938C80.3188 19.0152 80.9188 20.3 80.981 21.6656L81.2017 26.4868C81.2638 27.8521 80.7835 29.1863 79.8662 30.196C78.9489 31.2058 77.6697 31.8085 76.31 31.8716Z" fill="white"/>
<path d="M76.2862 31.9863C76.131 31.9856 75.9821 31.9251 75.8701 31.8173C75.7581 31.7095 75.6916 31.5626 75.6845 31.407L75.0376 17.269C75.0339 17.1893 75.0459 17.1097 75.0729 17.0347C75.0998 16.9597 75.1413 16.8908 75.1948 16.8319C75.2483 16.7729 75.3129 16.7252 75.3848 16.6913C75.4567 16.6575 75.5346 16.6382 75.6139 16.6346C76.3026 16.6027 76.9907 16.7073 77.6391 16.9425C78.2874 17.1777 78.8833 17.5388 79.3926 18.0053C79.9019 18.4717 80.3148 19.0343 80.6075 19.661C80.9002 20.2877 81.0671 20.9661 81.0987 21.6575L81.319 26.4787C81.4527 29.382 79.2076 31.852 76.3159 31.9856L76.2862 31.9863ZM75.859 16.8605C75.7804 16.8605 75.7022 16.8625 75.6233 16.8659C75.5742 16.8681 75.526 16.88 75.4815 16.901C75.4371 16.9219 75.3971 16.9514 75.364 16.9879C75.3309 17.0243 75.3052 17.0669 75.2885 17.1133C75.2718 17.1597 75.2643 17.2089 75.2666 17.2582L75.9134 31.3976C75.918 31.497 75.9618 31.5906 76.0351 31.6577C76.1083 31.7248 76.2052 31.7599 76.3042 31.7554C79.0685 31.6278 81.2143 29.2662 81.0873 26.4908L80.8667 21.6696C80.8074 20.3756 80.2542 19.1541 79.3217 18.2589C78.3892 17.3636 77.1491 16.8633 75.859 16.8618V16.8605Z" fill="#371A45"/>
<g opacity="0.35">
<path d="M81.1002 24.2217L81.2042 26.4826C81.2663 27.8484 80.7856 29.183 79.868 30.193C78.9503 31.2031 77.6707 31.8059 76.3105 31.869C76.1806 31.8748 76.0538 31.8285 75.9579 31.7404C75.862 31.6523 75.8048 31.5295 75.799 31.3991L75.6259 27.6399C75.6683 27.7245 75.7341 27.795 75.8153 27.843C75.8966 27.8911 75.9899 27.9146 76.0842 27.9108L76.4185 27.8943C77.4819 27.8456 78.5039 27.4658 79.3428 26.8078C80.1816 26.1497 80.7958 25.2459 81.1002 24.2217Z" fill="#371A45"/>
</g>
<path d="M76.286 32.5159C75.9951 32.5156 75.7155 32.4027 75.5052 32.2009C75.295 31.999 75.1702 31.7236 75.1568 31.4318L74.5099 17.2938C74.5031 17.1447 74.5256 16.9958 74.5761 16.8554C74.6266 16.7151 74.7042 16.5861 74.8044 16.4758C74.9045 16.3656 75.0254 16.2762 75.1599 16.2129C75.2945 16.1495 75.4402 16.1134 75.5887 16.1066C77.119 16.0361 78.6145 16.5788 79.7463 17.6154C80.8781 18.652 81.5534 20.0975 81.6237 21.634L81.8443 26.4552C81.9904 29.6495 79.5206 32.3679 76.3392 32.5146C76.3215 32.5156 76.3037 32.5159 76.286 32.5159ZM75.7993 17.3905L76.4344 31.2167C78.8343 31.0247 80.6739 28.947 80.5626 26.5143L80.342 21.6931C80.2885 20.5244 79.7848 19.4223 78.9372 18.6195C78.0896 17.8167 76.9644 17.376 75.7993 17.3905Z" fill="#371A45"/>
<path d="M29.1401 18.8956C29.2043 18.8927 29.2684 18.9024 29.3289 18.9243C29.3893 18.9463 29.4448 18.9799 29.4923 19.0234C29.5398 19.0669 29.5782 19.1193 29.6055 19.1778C29.6328 19.2362 29.6483 19.2994 29.6512 19.3639L30.2981 33.5019C30.301 33.5664 30.2912 33.631 30.2693 33.6917C30.2473 33.7525 30.2136 33.8083 30.1702 33.856C30.1267 33.9036 30.0743 33.9422 30.0159 33.9695C29.9576 33.9968 29.8944 34.0123 29.8301 34.0151C28.4702 34.0773 27.1414 33.5947 26.1358 32.6734C25.1302 31.7522 24.5302 30.4676 24.4677 29.1022L24.2471 24.2814C24.1846 22.9157 24.6651 21.5811 25.5827 20.5711C26.5003 19.561 27.7799 18.9584 29.1401 18.8956Z" fill="white"/>
<path d="M29.5907 34.1348C28.241 34.1337 26.9436 33.6105 25.968 32.674C24.9924 31.7375 24.4137 30.4596 24.352 29.1058L24.1314 24.2849C23.9977 21.3816 26.2431 18.9113 29.1344 18.778C29.2138 18.7742 29.2932 18.7862 29.368 18.8132C29.4429 18.8403 29.5116 18.8819 29.5704 18.9356C29.6292 18.9893 29.6769 19.0542 29.7107 19.1264C29.7446 19.1987 29.7639 19.2769 29.7676 19.3567L30.4144 33.4947C30.4217 33.6556 30.365 33.8128 30.2569 33.9317C30.1488 34.0507 29.998 34.1217 29.8378 34.1291C29.7551 34.1329 29.6727 34.1348 29.5907 34.1348ZM29.1632 19.009H29.1454C26.3812 19.1365 24.2357 21.4984 24.3627 24.2739L24.583 29.0947C24.6132 29.7558 24.7728 30.4044 25.0527 31.0035C25.3326 31.6026 25.7273 32.1406 26.2142 32.5865C26.7011 33.0325 27.2708 33.3778 27.8906 33.6028C28.5104 33.8277 29.1683 33.9278 29.8267 33.8975C29.9258 33.8929 30.019 33.8489 30.0858 33.7754C30.1526 33.7018 30.1876 33.6046 30.1831 33.5051L29.5362 19.3674C29.532 19.2709 29.4909 19.1798 29.4214 19.113C29.3519 19.0462 29.2594 19.0089 29.1632 19.009Z" fill="#371A45"/>
<g opacity="0.35">
<path d="M30.1196 29.5771L30.2985 33.4992C30.3042 33.6296 30.2581 33.7569 30.1703 33.8532C30.0826 33.9495 29.9603 34.0069 29.8304 34.0127C29.1571 34.0438 28.4842 33.9415 27.8503 33.7114C27.2163 33.4814 26.6337 33.1283 26.1357 32.6721C25.6377 32.216 25.2341 31.6659 24.9479 31.0531C24.6617 30.4403 24.4985 29.777 24.4677 29.1009L24.3748 27.0692C24.8231 27.952 25.5152 28.6864 26.3683 29.1845C27.2214 29.6827 28.1994 29.9235 29.1853 29.8782L29.7001 29.853C29.7881 29.8487 29.8734 29.8208 29.9472 29.7723C30.0209 29.7238 30.0804 29.6565 30.1196 29.5771Z" fill="#371A45"/>
</g>
<path d="M29.5907 34.6646C28.1057 34.6629 26.6784 34.087 25.6051 33.0566C24.5318 32.0261 23.895 30.6202 23.8268 29.1308L23.6065 24.3099C23.4604 21.1153 25.9299 18.3969 29.1113 18.2502C29.2599 18.243 29.4084 18.2652 29.5484 18.3158C29.6883 18.3664 29.8169 18.4443 29.9268 18.5449C30.0367 18.6456 30.1257 18.767 30.1887 18.9024C30.2516 19.0377 30.2873 19.1841 30.2937 19.3333L30.9409 33.471C30.9545 33.772 30.8485 34.0662 30.6462 34.2888C30.444 34.5114 30.1619 34.6443 29.8621 34.6582C29.7712 34.6625 29.6809 34.6646 29.5907 34.6646ZM29.0177 19.5502C26.6178 19.7421 24.7782 21.8198 24.8895 24.2525L25.1102 29.0734C25.1641 30.2414 25.6677 31.3427 26.5147 32.1451C27.3618 32.9475 28.4861 33.3882 29.6505 33.3743L29.0177 19.5502Z" fill="#371A45"/>
<g opacity="0.35">
<path d="M70.8706 44.0767C70.4837 44.5243 70.0815 44.9564 69.6638 45.3733C69.0756 45.9602 68.4578 46.5164 67.8128 47.0398C63.2365 50.7515 57.462 52.6467 51.5858 52.3657C45.7095 52.0846 40.1406 49.6469 35.9364 45.5153C35.4835 45.0696 35.049 44.6067 34.6326 44.1267C36.1187 42.7409 38.0722 41.9716 40.1003 41.9736H65.4578C67.4603 41.9713 69.3912 42.7216 70.8706 44.0767Z" fill="#371A45"/>
</g>
<path d="M52.7285 49.4985C65.9947 49.4985 76.7491 38.7006 76.7491 25.3808C76.7491 12.0609 65.9947 1.26306 52.7285 1.26306C39.4623 1.26306 28.7079 12.0609 28.7079 25.3808C28.7079 38.7006 39.4623 49.4985 52.7285 49.4985Z" fill="white"/>
<path d="M52.7364 49.6154C52.5321 49.6154 52.3282 49.6127 52.1226 49.6074C45.6775 49.4452 39.6816 46.7725 35.2385 42.0822C30.7954 37.3919 28.438 31.2446 28.5998 24.7737C28.7616 18.3028 31.4236 12.2823 36.095 7.82163C40.7664 3.36091 46.8879 0.992939 53.3351 1.15606C59.7823 1.31919 65.7745 3.99092 70.2169 8.68121C74.6593 13.3715 77.0174 19.5188 76.8556 25.9897C76.5276 39.1416 65.7661 49.6154 52.7364 49.6154ZM52.7123 1.3796C46.5553 1.3796 40.7323 3.71334 36.2527 7.98945C31.6271 12.4075 28.9906 18.3703 28.8315 24.7794C28.5008 38.0098 38.9522 49.0438 52.1293 49.3758C52.3319 49.3811 52.5358 49.3835 52.7374 49.3835C65.6437 49.3835 76.301 39.0121 76.6266 25.984L76.7419 25.9867L76.6266 25.984C76.7867 19.5732 74.4517 13.4866 70.0511 8.84098C65.6504 4.19532 59.7111 1.54843 53.3277 1.38732C53.1223 1.3824 52.9171 1.37983 52.7123 1.3796Z" fill="#371A45"/>
<g opacity="0.35">
<path d="M76.5942 22.6461C76.7208 23.7559 76.7699 24.8732 76.7413 25.9898C76.407 39.3048 65.3867 49.8283 52.125 49.4953C38.8633 49.1624 28.3829 38.0945 28.7142 24.7795C28.7235 24.3965 28.7419 24.0135 28.7696 23.6383C30.0951 35.4157 39.8993 44.7043 52.0334 45.0104C64.9137 45.3323 75.6776 35.416 76.5942 22.6461Z" fill="#371A45"/>
</g>
<path d="M52.7366 50.1449C52.5277 50.1449 52.3191 50.1423 52.1092 50.1369C45.5236 49.9711 39.3967 47.2399 34.8567 42.4473C30.3166 37.6546 27.9077 31.3734 28.0732 24.7612C28.2387 18.149 30.9581 11.9969 35.7318 7.43888C40.5055 2.88083 46.7645 0.462179 53.3467 0.627652C59.9289 0.793124 66.0592 3.5246 70.5992 8.31727C75.1392 13.1099 77.5482 19.3912 77.3827 26.0034C77.0471 39.4426 66.0505 50.1449 52.7366 50.1449ZM52.7126 1.90914C46.6916 1.90914 40.9966 4.19152 36.617 8.37332C32.0921 12.6941 29.5137 18.5256 29.3572 24.7934C29.0336 37.7321 39.2549 48.5234 52.1416 48.8477C65.0225 49.1736 75.7761 38.9099 76.0987 25.9712L76.7408 25.9873L76.0987 25.9712C76.4223 13.0324 66.2013 2.24109 53.3143 1.91686C53.1137 1.91172 52.9131 1.90914 52.7126 1.90914Z" fill="#371A45"/>
<path d="M76.6494 26.6036C76.6026 31.3228 75.0331 35.6888 72.3878 39.2879C70.4045 41.9858 62.3153 46.6617 52.3841 46.6516C43.1757 46.6426 34.8475 41.6294 32.9183 38.8922C30.3442 35.2411 28.8626 30.8445 28.9094 26.125C29.0338 13.6366 39.7716 8.56673 52.9551 8.69864C66.1386 8.83055 76.7734 14.1153 76.6494 26.6036Z" fill="#371A45"/>
<path d="M52.4164 47.2984H52.3829C42.8355 47.289 34.4214 42.1439 32.3922 39.2667C29.6467 35.3695 28.2199 30.8236 28.2667 26.1202C28.3279 19.9876 30.8241 15.2836 35.688 12.1386C39.9279 9.39671 45.8966 7.98264 52.9623 8.05547C60.0279 8.12831 65.9662 9.65784 70.1519 12.486C74.951 15.7276 77.3532 20.4807 77.2924 26.6136C77.2456 31.3166 75.7286 35.8331 72.9051 39.6739C70.9475 42.3338 62.9319 47.2984 52.4164 47.2984ZM52.5033 9.34301C45.2993 9.34301 29.7008 11.0884 29.5514 26.1333C29.507 30.5638 30.8525 34.8473 33.4419 38.5212C35.2805 41.1295 43.4058 45.9994 52.3843 46.0085H52.4157C62.3515 46.0085 70.1051 41.3094 71.8715 38.9066C74.5321 35.285 75.9626 31.0297 76.0067 26.5992C76.0632 20.9268 73.8515 16.5389 69.4335 13.5547C65.4581 10.8695 59.7578 9.41383 52.9482 9.34569C52.8041 9.34368 52.655 9.34301 52.5033 9.34301Z" fill="#371A45"/>
<g opacity="0.5">
<path d="M71.9312 25.4116C72.3727 23.0964 71.3762 20.9593 69.7054 20.638C68.0346 20.3168 66.3223 21.9332 65.8807 24.2483C65.4392 26.5634 66.4357 28.7006 68.1065 29.0218C69.7773 29.3431 71.4896 27.7267 71.9312 25.4116Z" fill="white"/>
</g>
<g opacity="0.5">
<path d="M66.6328 33.7828C66.9797 32.7584 66.5512 31.6856 65.6757 31.3867C64.8001 31.0878 63.8091 31.6759 63.4622 32.7003C63.1152 33.7247 63.5437 34.7975 64.4193 35.0964C65.2948 35.3954 66.2859 34.8072 66.6328 33.7828Z" fill="white"/>
</g>
<g opacity="0.35">
<path d="M72.1228 14.9064C75.0131 17.7315 76.6983 21.5857 76.6492 26.6029C76.6023 31.3231 75.0322 35.6888 72.3886 39.2879C70.4046 41.9859 62.3147 46.6614 52.3839 46.6523C48.8771 46.65 45.4994 45.9206 42.5523 44.8664C54.76 44.616 64.6156 38.8768 67.0737 35.5301C70.4316 30.9626 72.4224 25.4205 72.4815 19.4322C72.5022 17.9157 72.3821 16.4006 72.1228 14.9064Z" fill="#111A28"/>
</g>
<path d="M74.7118 16.2808C74.5572 16.281 74.4075 16.2259 74.2896 16.1254L74.2726 16.1103L74.2177 16.0609L74.1756 16.0002C70.1919 10.2717 62.4149 6.93106 52.8397 6.83473C52.7027 6.83339 52.5658 6.83272 52.4292 6.83272C42.9885 6.83272 35.3191 10.1113 31.3441 15.8616L31.306 15.9092C31.1991 16.0394 31.0458 16.1224 30.8787 16.1404C30.7117 16.1584 30.5442 16.1099 30.4124 16.0054C30.2805 15.9009 30.1947 15.7486 30.1733 15.5813C30.1519 15.414 30.1967 15.2449 30.2981 15.1104C34.5797 8.93083 42.7973 5.44751 52.8514 5.54451C62.821 5.64521 70.9601 9.16947 75.1942 15.2131C75.2756 15.3061 75.3285 15.4207 75.3466 15.5432C75.3646 15.6657 75.3471 15.7908 75.296 15.9035C75.245 16.0162 75.1626 16.1117 75.0588 16.1785C74.955 16.2453 74.8341 16.2806 74.7108 16.2801L74.7118 16.2808Z" fill="#371A45"/>
<g opacity="0.5">
<path d="M34.1963 33.6081C34.1963 33.6081 30.4666 21.2497 37.1284 16.4064C43.7902 11.563 53.3025 11.6785 53.0752 12.289C53.0752 12.289 42.5172 14.7436 38.3128 23.0632C35.0709 29.4777 34.1963 33.6081 34.1963 33.6081Z" fill="white"/>
</g>
<path d="M62.8485 60.145C67.1027 59.951 69.3425 60.5142 71.6013 61.692C72.9829 62.413 74.1329 63.342 74.1827 65.9792C74.2185 67.8944 73.0461 68.8439 73.0461 68.8439C73.0461 68.8439 68.0511 66.2138 61.9556 66.4313C60.6355 66.4786 60.486 60.2527 62.8485 60.145Z" fill="white"/>
<g opacity="0.35">
<path d="M74.1834 65.9794C74.2192 67.8926 73.0468 68.8438 73.0468 68.8438C73.0468 68.8438 68.0518 66.2144 61.956 66.4306C61.1804 66.4581 60.81 64.3287 61.1116 62.5401C61.2596 63.3416 61.5525 63.9122 61.956 63.8978C66.2182 63.7457 69.9422 64.9853 71.7969 65.7438C72.7108 66.1181 73.7585 65.624 74.0296 64.6698L74.0386 64.6362C74.1296 65.0783 74.178 65.5281 74.1834 65.9794Z" fill="#371A45"/>
</g>
<path d="M73.1183 69.5774L72.7619 69.3898C72.7135 69.3643 67.8301 66.8389 61.9777 67.047C61.9643 67.047 61.9509 67.047 61.9375 67.047C61.0467 67.047 60.473 65.9766 60.3998 64.1702C60.3122 61.9929 61.0319 59.6122 62.8197 59.5306C67.3875 59.3218 69.6748 59.9941 71.8831 61.1464C73.5927 62.0382 74.7423 63.1995 74.7941 65.9679C74.8356 68.159 73.4884 69.2764 73.4309 69.3244L73.1183 69.5774ZM62.6854 65.8041C67.5914 65.8041 71.63 67.4931 72.912 68.0942C73.1878 67.7415 73.589 67.0447 73.5693 65.9918C73.5241 63.5838 72.5233 62.8676 71.3181 62.2389C69.2903 61.181 67.1729 60.564 62.8756 60.7621C62.3253 60.7872 62.0151 61.5166 61.879 61.9496C61.401 63.4704 61.6731 65.4544 62.0071 65.8165C62.2348 65.808 62.4609 65.8039 62.6854 65.8041Z" fill="#371A45"/>
<path d="M42.82 60.145C38.5658 59.951 36.3261 60.5142 34.0673 61.692C32.6856 62.413 31.5357 63.342 31.4858 65.9792C31.4501 67.8944 32.6224 68.8439 32.6224 68.8439C32.6224 68.8439 37.6174 66.2138 43.7133 66.4313C45.0331 66.4786 45.1828 60.2527 42.82 60.145Z" fill="white"/>
<path d="M32.5494 69.5777L32.2365 69.3243C32.179 69.2779 30.8325 68.1606 30.8733 65.9678C30.9254 63.1994 32.0747 62.0381 33.7846 61.1463C35.993 59.994 38.2805 59.3221 42.8476 59.5305C44.6354 59.6121 45.3548 61.9928 45.2672 64.1701C45.1934 66.0037 44.5963 67.0795 43.6904 67.0462C37.8403 66.8371 32.9542 69.3622 32.9054 69.3891L32.5494 69.5777ZM41.2898 60.7251C37.9723 60.7251 36.126 61.3131 34.3496 62.2398C33.1461 62.8685 32.1432 63.5848 32.0985 65.9927C32.0787 67.0442 32.4789 67.741 32.756 68.0951C34.0969 67.4661 38.4517 65.6473 43.6606 65.8158C43.9949 65.4536 44.2667 63.4696 43.7887 61.9485C43.6526 61.5158 43.3424 60.7865 42.7921 60.7613C42.2593 60.7368 41.7595 60.7251 41.2898 60.7251Z" fill="#371A45"/>
<path d="M66.5091 90.1443C66.4869 90.1939 66.4698 90.2456 66.458 90.2987L66.5091 90.1443Z" fill="#D66B09"/>
<g opacity="0.35">
<path d="M31.4372 65.9794C31.4014 67.8926 32.5738 68.8438 32.5738 68.8438C32.5738 68.8438 37.5688 66.2144 43.6649 66.4306C44.4401 66.4581 44.8105 64.3287 44.509 62.5401C44.3613 63.3416 44.0684 63.9122 43.6649 63.8978C39.4024 63.7457 35.6783 64.9853 33.8237 65.7438C32.9101 66.1181 31.8624 65.624 31.5913 64.6698C31.5879 64.6587 31.5849 64.6476 31.5819 64.6362C31.4912 65.0783 31.4427 65.5281 31.4372 65.9794Z" fill="#371A45"/>
</g>
<path d="M59.5868 70.3372H46.0614C45.3662 70.3372 44.6886 70.1183 44.124 69.7111C43.5593 69.304 43.1361 68.7293 42.914 68.068L42.2528 66.1044H63.3938L62.7332 68.07C62.5108 68.7308 62.0876 69.305 61.5232 69.7117C60.9588 70.1184 60.2816 70.3372 59.5868 70.3372Z" fill="white"/>
<g opacity="0.35">
<path d="M59.5868 70.3372H46.0614C45.3662 70.3372 44.6886 70.1183 44.124 69.7111C43.5593 69.304 43.1361 68.7293 42.914 68.068L42.2528 66.1044H63.3938L62.7332 68.07C62.5108 68.7308 62.0876 69.305 61.5232 69.7117C60.9588 70.1184 60.2816 70.3372 59.5868 70.3372Z" fill="#371A45"/>
</g>
<path d="M59.5866 70.9519H46.0605C45.2369 70.9524 44.434 70.6931 43.7651 70.2108C43.0961 69.7285 42.5949 69.0474 42.3321 68.2637L41.6722 66.2989C41.6412 66.2063 41.6324 66.1077 41.6468 66.0111C41.6612 65.9146 41.6983 65.8228 41.755 65.7435C41.8117 65.6641 41.8864 65.5995 41.9729 65.5549C42.0595 65.5103 42.1553 65.487 42.2526 65.4869H63.3936C63.4909 65.4869 63.5868 65.5102 63.6733 65.5548C63.7599 65.5993 63.8346 65.664 63.8914 65.7433C63.9481 65.8227 63.9852 65.9144 63.9996 66.011C64.014 66.1076 64.0053 66.2063 63.9742 66.2989L63.3137 68.2644C63.0509 69.0477 62.5498 69.7285 61.8811 70.2106C61.2124 70.6928 60.4099 70.9521 59.5866 70.9519ZM43.106 66.7177L43.4935 67.8707C43.6745 68.4102 44.0196 68.879 44.4802 69.2111C44.9407 69.5431 45.4935 69.7216 46.0605 69.7214H59.5866C60.1536 69.7217 60.7063 69.5432 61.1669 69.2112C61.6275 68.8792 61.9726 68.4105 62.1537 67.871L62.5411 66.7177H43.106Z" fill="#371A45"/>
<path d="M60.6652 68.1772H44.9796C44.6204 68.1772 44.2652 68.1017 43.937 67.9553C43.6087 67.809 43.3146 67.5952 43.0737 67.3278C42.8328 67.0603 42.6505 66.7451 42.5384 66.4024C42.4264 66.0598 42.3871 65.6974 42.4232 65.3386L43.3395 56.2185C43.4035 55.5824 43.7004 54.9928 44.1727 54.564C44.645 54.1353 45.2591 53.8979 45.8959 53.8979H59.7476C60.3843 53.8979 60.9983 54.1353 61.4706 54.5641C61.9429 54.9929 62.2397 55.5824 62.3036 56.2185L63.2209 65.3386C63.257 65.6974 63.2177 66.0597 63.1057 66.4023C62.9937 66.7449 62.8114 67.06 62.5706 67.3275C62.3298 67.595 62.0358 67.8088 61.7076 67.9551C61.3794 68.1015 61.0243 68.1771 60.6652 68.1772Z" fill="white"/>
<path d="M60.6654 68.793H44.9798C44.5349 68.7931 44.095 68.6996 43.6884 68.5184C43.2818 68.3372 42.9176 68.0724 42.6192 67.7411C42.3209 67.4098 42.095 67.0194 41.9563 66.5951C41.8175 66.1707 41.7689 65.7218 41.8137 65.2775L42.731 56.1573C42.808 55.3687 43.175 54.6372 43.7604 54.1058C44.3458 53.5743 45.1075 53.281 45.8967 53.2832H59.7485C60.5377 53.2811 61.2993 53.5744 61.8847 54.1058C62.4701 54.6373 62.8371 55.3687 62.9142 56.1573L63.8319 65.2775C63.8766 65.7218 63.828 66.1706 63.6893 66.595C63.5505 67.0193 63.3247 67.4097 63.0264 67.741C62.7281 68.0723 62.3639 68.3371 61.9574 68.5183C61.5508 68.6995 61.1109 68.7931 60.6661 68.793H60.6654ZM45.8967 54.5137C45.4115 54.5124 44.9431 54.6927 44.5832 55.0195C44.2232 55.3462 43.9975 55.796 43.9501 56.2809L43.0332 65.4003C43.0056 65.6735 43.0355 65.9495 43.1208 66.2104C43.2061 66.4714 43.3449 66.7114 43.5284 66.9151C43.7118 67.1188 43.9358 67.2816 44.1858 67.393C44.4358 67.5044 44.7062 67.5619 44.9798 67.5619H60.6654C60.9389 67.5619 61.2094 67.5043 61.4594 67.3929C61.7093 67.2815 61.9333 67.1187 62.1167 66.915C62.3001 66.7113 62.439 66.4713 62.5243 66.2104C62.6096 65.9495 62.6395 65.6735 62.612 65.4003L61.6951 56.2802C61.6476 55.7953 61.4219 55.3456 61.0619 55.0189C60.702 54.6921 60.2337 54.5118 59.7485 54.513L45.8967 54.5137Z" fill="#371A45"/>
<path d="M51.363 68.793C51.2005 68.793 51.0447 68.7282 50.9298 68.6128C50.8148 68.4974 50.7503 68.3409 50.7503 68.1778V62.9753C50.7498 62.7975 50.7085 62.6222 50.6294 62.4631C50.5504 62.3039 50.4358 62.1653 50.2947 62.058L48.5664 60.752C48.2738 60.5296 48.0364 60.2424 47.8727 59.9128C47.7089 59.5831 47.6232 59.2199 47.6223 58.8515V53.8984C47.6223 53.7353 47.6869 53.5788 47.8018 53.4634C47.9167 53.348 48.0726 53.2832 48.2351 53.2832C48.3976 53.2832 48.5534 53.348 48.6684 53.4634C48.7833 53.5788 48.8478 53.7353 48.8478 53.8984V58.8532C48.8483 59.0311 48.8897 59.2064 48.9688 59.3655C49.0479 59.5246 49.1625 59.6633 49.3038 59.7705L51.0318 61.0765C51.3243 61.2989 51.5617 61.5861 51.7255 61.9157C51.8892 62.2454 51.9749 62.6086 51.9758 62.977V68.1794C51.9754 68.3423 51.9106 68.4984 51.7957 68.6134C51.6809 68.7284 51.5253 68.793 51.363 68.793Z" fill="#371A45"/>
<g opacity="0.35">
<path d="M62.4361 57.526L63.5058 65.2992C63.5034 66.0615 63.2007 66.7919 62.6638 67.3309C62.1269 67.8699 61.3995 68.1738 60.6403 68.1763H45.0014C43.4275 68.1763 42.1378 66.8814 42.1378 65.2992V62.1106C43.2517 67.5722 55.0823 66.5958 55.5724 61.0365C55.7482 59.0444 60.7974 59.5771 61.0063 61.1778C61.2911 63.3571 62.7296 64.7672 62.1449 55.7091C62.5113 56.1915 62.4361 56.8752 62.4361 57.526Z" fill="#371A45"/>
</g>
<path d="M60.8334 60.4133C60.8258 61.066 60.5622 61.6894 60.0999 62.1483C59.6375 62.6072 59.0136 62.8645 58.3634 62.8645C57.7133 62.8645 57.0894 62.6072 56.627 62.1483C56.1646 61.6894 55.9011 61.066 55.8935 60.4133C55.8935 60.0377 55.8995 59.0788 55.8995 59.0788C55.8995 59.0788 57.3731 57.9332 58.3633 57.9332C59.3535 57.9332 60.8334 59.2446 60.8334 59.2446V60.4133Z" fill="#22A7F0"/>
<g opacity="0.35">
<path d="M60.8333 60.4095C60.8257 61.0622 60.5622 61.6856 60.0998 62.1445C59.6374 62.6034 59.0135 62.8607 58.3634 62.8607C57.7132 62.8607 57.0893 62.6034 56.6269 62.1445C56.1646 61.6856 55.901 61.0622 55.8934 60.4095C55.8934 60.0339 55.8995 59.075 55.8995 59.075C55.8995 59.075 57.373 57.9294 58.3632 57.9294C59.3534 57.9294 60.8333 59.2408 60.8333 59.2408V60.4095Z" fill="#371A45"/>
</g>
<path d="M58.3634 63.3533C57.5868 63.3524 56.8422 63.0422 56.293 62.4908C55.7438 61.9394 55.4349 61.1918 55.434 60.412C55.434 60.0355 55.44 59.0745 55.44 59.0745V58.8503L55.6169 58.7127C55.7807 58.5855 57.2472 57.4708 58.3621 57.4708C59.493 57.4708 60.9696 58.7516 61.1367 58.8976L61.2921 59.0356V60.4117C61.2914 61.1914 60.9826 61.939 60.4335 62.4905C59.8845 63.0419 59.14 63.3522 58.3634 63.3533ZM56.3577 59.3108C56.356 59.6182 56.353 60.1536 56.353 60.412C56.353 60.9474 56.5648 61.4608 56.9418 61.8394C57.3188 62.2179 57.8302 62.4306 58.3634 62.4306C58.8966 62.4306 59.408 62.2179 59.785 61.8394C60.162 61.4608 60.3738 60.9474 60.3738 60.412V59.4581C59.8183 59.0007 58.903 58.3948 58.3634 58.3948C57.8239 58.3948 56.9159 58.9114 56.3577 59.3108Z" fill="#371A45"/>
<path d="M60.1106 60.9963C61.0751 60.0279 61.0751 58.4578 60.1106 57.4894C59.1461 56.521 57.5823 56.521 56.6178 57.4894C55.6533 58.4578 55.6533 60.0279 56.6178 60.9963C57.5823 61.9647 59.1461 61.9647 60.1106 60.9963Z" fill="#22A7F0"/>
<g opacity="0.5">
<path d="M60.8336 59.2432C60.8338 59.3883 60.8208 59.5331 60.7949 59.6758C60.6937 59.1022 60.3947 58.5826 59.9501 58.2082C59.5055 57.8339 58.9438 57.6287 58.3635 57.6287C57.7833 57.6287 57.2216 57.8339 56.777 58.2082C56.3324 58.5826 56.0333 59.1022 55.9322 59.6758C55.9061 59.5331 55.8931 59.3883 55.8935 59.2432C55.8935 58.5854 56.1537 57.9546 56.6169 57.4895C57.0802 57.0244 57.7084 56.7631 58.3635 56.7631C59.0187 56.7631 59.6469 57.0244 60.1102 57.4895C60.5734 57.9546 60.8336 58.5854 60.8336 59.2432Z" fill="white"/>
</g>
<g opacity="0.35">
<path d="M60.8323 59.2424C60.8323 59.9 60.5721 60.5306 60.109 60.9956C59.6459 61.4606 59.0178 61.7218 58.3629 61.7218C57.7079 61.7218 57.0798 61.4606 56.6167 60.9956C56.1536 60.5306 55.8935 59.9 55.8935 59.2424C55.8927 58.9351 55.9502 58.6305 56.0629 58.3449C56.2431 58.8103 56.5591 59.2102 56.9696 59.4921C57.38 59.7741 57.8657 59.9249 58.363 59.9249C58.8604 59.9249 59.3461 59.7741 59.7565 59.4921C60.1669 59.2102 60.483 58.8103 60.6631 58.3449C60.7756 58.6306 60.833 58.9352 60.8323 59.2424Z" fill="#371A45"/>
</g>
<path d="M58.3634 62.1844C57.784 62.1844 57.2177 62.0119 56.7359 61.6887C56.2542 61.3655 55.8787 60.9061 55.657 60.3687C55.4353 59.8312 55.3773 59.2398 55.4903 58.6693C55.6033 58.0987 55.8823 57.5747 56.292 57.1633C56.7017 56.752 57.2237 56.4719 57.7919 56.3584C58.3602 56.2449 58.9492 56.3031 59.4844 56.5257C60.0197 56.7484 60.4772 57.1253 60.7991 57.609C61.121 58.0927 61.2928 58.6614 61.2928 59.2431C61.2919 60.0229 60.983 60.7705 60.4338 61.3219C59.8847 61.8733 59.1401 62.1835 58.3634 62.1844ZM58.3634 57.2249C57.9658 57.2249 57.5771 57.3433 57.2464 57.5651C56.9158 57.7869 56.6581 58.1022 56.506 58.471C56.3538 58.8399 56.314 59.2458 56.3916 59.6374C56.4692 60.0289 56.6607 60.3886 56.9419 60.6709C57.2231 60.9532 57.5814 61.1454 57.9714 61.2233C58.3614 61.3011 58.7657 61.2611 59.133 61.1083C59.5004 60.9554 59.8143 60.6966 60.0352 60.3647C60.2561 60.0327 60.3739 59.6424 60.3738 59.2431C60.3732 58.708 60.1612 58.1949 59.7843 57.8166C59.4074 57.4382 58.8964 57.2254 58.3634 57.2249Z" fill="#371A45"/>
<path d="M69.6669 107.479L55.5911 102.288L43.3527 110.988C40.8977 112.734 37.5153 110.894 37.6276 107.878L38.1959 92.8322L26.1707 83.8312C23.7595 82.0281 24.4575 78.2303 27.3498 77.406L35.5286 75.0783C35.5289 75.0774 35.5296 75.0767 35.5305 75.0763C35.5314 75.0759 35.5324 75.0759 35.5333 75.0763L41.7785 73.2973L46.5866 59.0365C47.5481 56.1768 51.361 55.6673 53.0358 58.1752L61.3858 70.6833L76.3831 70.8676C79.3881 70.9045 81.0482 74.3865 79.1912 76.7602L69.9233 88.599L73.5854 100.399L74.3854 102.974C75.2766 105.857 72.4933 108.518 69.6669 107.479Z" fill="#50429B"/>
<path d="M54.1319 96C53.854 96 53.6267 95.8896 53.4499 95.6688C53.2732 95.4627 53.1848 95.205 53.1848 94.8959V93.3943C52.4144 93.3354 51.7262 93.1956 51.1201 92.9748C50.5265 92.7392 50.0151 92.4816 49.5857 92.2019C49.2953 92.0105 49.1122 91.7529 49.0364 91.429C48.9733 91.1052 48.9922 90.796 49.0933 90.5016C49.1943 90.2072 49.3648 90.0011 49.6047 89.8833C49.8446 89.7655 50.1288 89.817 50.4571 90.0379C50.8107 90.2734 51.2716 90.5016 51.8399 90.7224C52.4208 90.9285 53.1153 91.0315 53.9235 91.0315C54.8706 91.0315 55.5525 90.8402 55.9693 90.4574C56.386 90.0599 56.5943 89.5668 56.5943 88.9779C56.5943 88.4921 56.4491 88.0946 56.1587 87.7855C55.8682 87.4763 55.3505 87.2261 54.6054 87.0347L52.5976 86.5268C50.3119 85.9527 49.169 84.5542 49.169 82.3312C49.169 81.0946 49.5289 80.0568 50.2487 79.2177C50.9812 78.3638 51.9598 77.8486 53.1848 77.6719V76.1041C53.1848 75.795 53.2732 75.5373 53.4499 75.3312C53.6267 75.1104 53.854 75 54.1319 75C54.3971 75 54.618 75.1104 54.7948 75.3312C54.9843 75.5373 55.079 75.795 55.079 76.1041V77.6498C55.5841 77.7087 56.1145 77.8486 56.6701 78.0694C57.2384 78.2902 57.7309 78.592 58.1476 78.9748C58.3875 79.1956 58.5264 79.4532 58.5643 79.7476C58.6022 80.0273 58.558 80.2923 58.4317 80.5426C58.3181 80.7781 58.135 80.9401 57.8824 81.0284C57.6425 81.102 57.3583 81.0284 57.03 80.8076C56.6638 80.5573 56.2534 80.3586 55.7988 80.2114C55.3442 80.0494 54.8012 79.9685 54.1698 79.9685C53.3616 79.9685 52.7238 80.1819 52.2566 80.6088C51.802 81.021 51.5747 81.5657 51.5747 82.2429C51.5747 82.7434 51.7136 83.1483 51.9914 83.4574C52.2692 83.7518 52.7428 83.9874 53.4121 84.164L55.4768 84.694C56.6891 85.0032 57.5793 85.4963 58.1476 86.1735C58.7159 86.836 59 87.7119 59 88.8013C59 90.0379 58.6338 91.0536 57.9014 91.8486C57.1816 92.6288 56.2408 93.122 55.079 93.3281V94.8959C55.079 95.205 54.9906 95.4627 54.8138 95.6688C54.637 95.8896 54.4097 96 54.1319 96Z" fill="white"/>
<g opacity="0.7">
<path d="M27.684 79.148L35.8628 76.8199C35.863 76.8195 35.8632 76.8191 35.8636 76.8188C35.8639 76.8185 35.8643 76.8182 35.8647 76.8181C35.8652 76.8179 35.8657 76.8178 35.8661 76.8179C35.8666 76.8179 35.867 76.8181 35.8675 76.8183L42.1127 75.0394L46.9208 60.7788C47.8823 57.9188 51.6952 57.4096 53.37 59.9172L61.72 72.4254L76.7173 72.6096C78.2394 72.6284 79.4151 73.5313 79.9647 74.7259C80.07 72.7858 78.5904 70.8995 76.383 70.8727L61.3857 70.6884L53.0347 58.1793C51.3599 55.6713 47.547 56.1808 46.5855 59.0405L41.7774 73.3014L35.5322 75.0803C35.5313 75.08 35.5303 75.08 35.5294 75.0804C35.5285 75.0807 35.5279 75.0814 35.5275 75.0823L27.3487 77.41C25.0691 78.0598 24.1542 80.5563 25.0488 82.4678C25.1286 81.0098 26.0603 79.6105 27.684 79.148Z" fill="white"/>
<path d="M73.9195 102.142L74.551 104.174C74.5608 103.769 74.5044 103.366 74.3838 102.979L73.5839 100.404L70.4028 90.1541L70.256 90.3417L73.9195 102.142Z" fill="white"/>
<path d="M38.5304 94.5752L38.1413 94.2842L37.6282 107.884C37.6038 108.465 37.7192 109.044 37.9645 109.571L38.5304 94.5752Z" fill="white"/>
</g>
<g opacity="0.35">
<path d="M76.3836 70.8652L76.155 70.8616C77.5035 72.675 77.8244 74.0211 75.0103 77.2788C72.9414 79.6728 69.7379 83.3987 67.5556 85.9389C66.851 86.7578 66.3709 87.7683 66.1678 88.8596C65.9647 89.9508 66.0465 91.0807 66.4043 92.1256C67.8247 96.2727 69.1926 102.936 68.3349 104.234C67.0645 106.157 54.3093 98.3323 54.3093 98.3323C54.3093 98.3323 43.1579 108.581 41.5727 106.947C40.5267 105.87 40.6347 99.345 41.2923 94.977C41.4675 93.8109 41.3201 92.6155 40.8684 91.5376C40.4166 90.4598 39.6801 89.5465 38.7493 88.91C36.0111 87.0366 32.1453 84.3188 29.7993 82.3503C28.2024 81.0085 27.4432 79.1143 28.0356 77.6193L27.3529 77.828C24.4596 78.7045 23.761 82.7494 26.1739 84.6679L38.1987 94.2509L37.6304 110.267C37.6267 110.367 37.6267 110.466 37.6304 110.564C37.6274 110.466 37.6274 110.367 37.6304 110.267L37.6485 109.756C38.3866 112.079 41.1134 113.225 43.1847 111.659L55.4198 102.395L69.4969 107.923C71.7654 108.809 74.0028 107.159 74.3384 104.888L74.3849 105.046L73.5866 102.305L69.9237 89.7433L79.192 77.1401C81.049 74.6131 79.3879 70.9038 76.3836 70.8652Z" fill="#371A45"/>
</g>
</svg>
