<svg width="50" height="54" viewBox="0 0 50 54" fill="none" xmlns="http://www.w3.org/2000/svg">
<path d="M5.48551 49.4045C5.48551 49.4964 5.29863 49.5767 5.01924 49.6208C4.95044 49.6318 4.88688 49.6645 4.83763 49.7142C4.78839 49.7639 4.75598 49.828 4.74504 49.8973C4.70115 50.1788 4.62155 50.3673 4.53046 50.3673C4.43938 50.3673 4.35962 50.1788 4.31573 49.8973C4.30479 49.828 4.27238 49.7639 4.22313 49.7142C4.17389 49.6645 4.11032 49.6318 4.04153 49.6208C3.76198 49.5767 3.57446 49.4964 3.57446 49.4045C3.57446 49.3125 3.76182 49.2318 4.04121 49.1879C4.11007 49.1769 4.1737 49.1442 4.22301 49.0945C4.27231 49.0448 4.30477 48.9807 4.31573 48.9113C4.36009 48.6294 4.43875 48.4405 4.53046 48.4405C4.62217 48.4405 4.70115 48.6291 4.74504 48.9108C4.75599 48.9802 4.78845 49.0444 4.83776 49.094C4.88707 49.1437 4.9507 49.1764 5.01955 49.1874C5.29878 49.2318 5.48551 49.3127 5.48551 49.4045Z" fill="white"/>
<path d="M49.2196 36.1722C49.2003 36.2604 49.0042 36.2972 48.7274 36.2799C48.6592 36.2757 48.5914 36.2934 48.5338 36.3304C48.4761 36.3675 48.4316 36.4219 48.4066 36.486C48.3054 36.7463 48.1897 36.9099 48.1024 36.8904C48.015 36.8709 47.9784 36.6735 47.9955 36.3944C47.9997 36.3256 47.9822 36.2573 47.9455 36.1992C47.9087 36.1411 47.8547 36.0962 47.791 36.0711C47.5326 35.9691 47.3699 35.8522 47.3893 35.7641C47.4086 35.6759 47.6049 35.6386 47.8816 35.6562C47.9499 35.6605 48.0178 35.6429 48.0755 35.6058C48.1332 35.5688 48.1778 35.5143 48.2029 35.4501C48.304 35.1894 48.4198 35.0258 48.5073 35.0453C48.5948 35.0648 48.6312 35.2623 48.6139 35.5416C48.6097 35.6104 48.6272 35.6788 48.664 35.7369C48.7007 35.795 48.7548 35.8399 48.8185 35.8651C49.0769 35.9669 49.239 36.0837 49.2196 36.1722Z" fill="white"/>
<path d="M46.807 3.30201C46.807 3.40825 46.591 3.50102 46.2682 3.55192C46.1887 3.5646 46.1152 3.60235 46.0583 3.65976C46.0014 3.71716 45.9639 3.79127 45.9514 3.87144C45.9007 4.19667 45.8087 4.41455 45.7033 4.41455C45.5979 4.41455 45.506 4.19667 45.4554 3.87144C45.4428 3.79127 45.4054 3.71716 45.3485 3.65976C45.2916 3.60235 45.2181 3.5646 45.1386 3.55192C44.8154 3.50102 44.5988 3.40825 44.5988 3.30201C44.5988 3.19577 44.8153 3.10237 45.1381 3.05178C45.2177 3.03916 45.2913 3.00142 45.3483 2.94398C45.4053 2.88654 45.4428 2.81236 45.4554 2.7321C45.506 2.40639 45.5979 2.18867 45.7033 2.18867C45.8087 2.18867 45.9007 2.40639 45.9514 2.7321C45.9639 2.81236 46.0013 2.88655 46.0583 2.94399C46.1153 3.00144 46.1889 3.03918 46.2685 3.05178C46.5912 3.10237 46.807 3.19513 46.807 3.30201Z" fill="white"/>
<path d="M47.5235 12.6193C47.6945 12.6193 47.8331 12.4795 47.8331 12.3072C47.8331 12.1348 47.6945 11.9951 47.5235 11.9951C47.3525 11.9951 47.2139 12.1348 47.2139 12.3072C47.2139 12.4795 47.3525 12.6193 47.5235 12.6193Z" fill="white"/>
<path d="M44.1139 49.1825C44.2702 49.1499 44.3706 48.9957 44.3382 48.8382C44.3058 48.6807 44.1529 48.5794 43.9966 48.6121C43.8403 48.6447 43.7399 48.7989 43.7723 48.9564C43.8047 49.114 43.9576 49.2152 44.1139 49.1825Z" fill="white"/>
<path d="M48.9433 44.1105C49.14 44.0594 49.2584 43.8573 49.2077 43.659C49.157 43.4607 48.9564 43.3414 48.7597 43.3925C48.563 43.4436 48.4447 43.6458 48.4954 43.8441C48.5461 44.0423 48.7466 44.1616 48.9433 44.1105Z" fill="white"/>
<path d="M1.3323 10.8019C1.48295 10.6118 1.4522 10.3346 1.26362 10.1827C1.07505 10.0309 0.800059 10.0619 0.649414 10.252C0.49877 10.442 0.529517 10.7192 0.718091 10.8711C0.906666 11.0229 1.18166 10.9919 1.3323 10.8019Z" fill="white"/>
<path d="M38.1746 5.04223C38.3456 5.04223 38.4842 4.90251 38.4842 4.73016C38.4842 4.55781 38.3456 4.41809 38.1746 4.41809C38.0037 4.41809 37.8651 4.55781 37.8651 4.73016C37.8651 4.90251 38.0037 5.04223 38.1746 5.04223Z" fill="white"/>
<path d="M4.74974 3.15518C4.9908 3.14304 5.17645 2.93622 5.16441 2.69323C5.15236 2.45025 4.94719 2.26311 4.70613 2.27525C4.46507 2.28739 4.27942 2.4942 4.29146 2.73719C4.3035 2.98018 4.50868 3.16731 4.74974 3.15518Z" fill="white"/>
<path d="M2.32976 46.0439C2.52185 46.0439 2.67758 45.8869 2.67758 45.6933C2.67758 45.4996 2.52185 45.3427 2.32976 45.3427C2.13766 45.3427 1.98193 45.4996 1.98193 45.6933C1.98193 45.8869 2.13766 46.0439 2.32976 46.0439Z" fill="white"/>
<path d="M49.7875 20.0004C49.8497 19.9377 49.8497 19.8361 49.7875 19.7735C49.7253 19.7108 49.6245 19.7108 49.5623 19.7735C49.5002 19.8361 49.5002 19.9377 49.5623 20.0004C49.6245 20.0631 49.7253 20.0631 49.7875 20.0004Z" fill="white"/>
<path d="M40.6528 50.8652C40.6239 50.889 40.5886 50.9036 40.5514 50.9072C40.5143 50.9107 40.4769 50.9031 40.444 50.8853C40.4112 50.8675 40.3843 50.8402 40.3668 50.807C40.3493 50.7737 40.3419 50.736 40.3457 50.6986C40.3494 50.6611 40.3641 50.6257 40.3879 50.5966C40.4117 50.5676 40.4434 50.5463 40.4792 50.5355C40.5149 50.5247 40.5531 50.5248 40.5887 50.5358C40.6244 50.5468 40.6561 50.5682 40.6797 50.5974C40.6954 50.6167 40.7072 50.639 40.7143 50.663C40.7214 50.6869 40.7238 50.712 40.7213 50.7369C40.7188 50.7618 40.7115 50.7859 40.6997 50.8079C40.688 50.8299 40.672 50.8494 40.6528 50.8652Z" fill="white"/>
<path d="M12.1831 4.20816C12.2036 4.08473 12.1209 3.96795 11.9984 3.94734C11.876 3.92672 11.7601 4.01008 11.7397 4.13352C11.7192 4.25696 11.8019 4.37373 11.9244 4.39435C12.0468 4.41496 12.1627 4.3316 12.1831 4.20816Z" fill="white"/>
<path d="M4.35386 17.1752C4.3561 17.22 4.34513 17.2644 4.32233 17.3029C4.29953 17.3413 4.26593 17.3721 4.22577 17.3914C4.18561 17.4106 4.1407 17.4174 4.09671 17.4109C4.05273 17.4044 4.01164 17.3849 3.97865 17.3548C3.94566 17.3248 3.92225 17.2855 3.91137 17.2421C3.9005 17.1986 3.90265 17.1529 3.91755 17.1107C3.93245 17.0685 3.95944 17.0317 3.9951 17.0049C4.03076 16.9781 4.07349 16.9626 4.11789 16.9604C4.17744 16.9573 4.23574 16.9783 4.27999 17.0186C4.32424 17.0588 4.35081 17.1152 4.35386 17.1752Z" fill="white"/>
<path d="M4.50947 35.2134C4.5094 35.2491 4.49885 35.2839 4.47914 35.3136C4.45942 35.3432 4.43144 35.3662 4.39872 35.3798C4.366 35.3934 4.33003 35.3969 4.29534 35.3899C4.26065 35.3828 4.22881 35.3656 4.20384 35.3403C4.17888 35.3151 4.16191 35.2829 4.15509 35.2479C4.14827 35.2129 4.1519 35.1766 4.16551 35.1437C4.17913 35.1108 4.20213 35.0827 4.2316 35.063C4.26107 35.0432 4.29569 35.0327 4.33107 35.0328C4.37848 35.0329 4.4239 35.052 4.45736 35.0859C4.49081 35.1198 4.50955 35.1656 4.50947 35.2134Z" fill="white"/>
<path d="M1.60525 32.3702C1.75021 32.2307 1.75551 31.9991 1.61708 31.853C1.47865 31.7069 1.24892 31.7016 1.10396 31.8411C0.959003 31.9806 0.95371 32.2122 1.09214 32.3583C1.23057 32.5044 1.4603 32.5098 1.60525 32.3702Z" fill="white"/>
<path d="M35.3733 36.6847C35.2125 38.5283 33.676 40.0006 31.7761 40.0006H18.4839C16.6475 40.0006 15.1516 38.6256 14.9084 36.8699C14.8715 36.6079 14.8633 36.3425 14.8841 36.0787L15.2685 31.0995L15.838 23.72C15.8462 23.6144 15.8591 23.5096 15.8759 23.4067C16.0158 22.5563 16.4506 21.7836 17.1029 21.2262C17.7552 20.6688 18.5827 20.363 19.4378 20.3632H30.8222C31.6607 20.3633 32.473 20.6574 33.1198 21.1952C33.7667 21.7331 34.2077 22.481 34.3673 23.3107C34.3931 23.446 34.4113 23.5827 34.422 23.72L34.9861 31.0302L35.376 36.0787C35.392 36.2804 35.3911 36.4831 35.3733 36.6847Z" fill="white"/>
<path d="M31.7765 40.2899H18.4835C17.9461 40.2898 17.4146 40.1777 16.9223 39.9607C16.4299 39.7437 15.9874 39.4265 15.6225 39.0289C15.2575 38.6314 14.978 38.1621 14.8015 37.6505C14.625 37.1389 14.5554 36.596 14.5968 36.056L15.5506 23.6967C15.708 21.6639 17.4151 20.0715 19.438 20.0715H30.8227C32.8456 20.0715 34.5531 21.6639 34.7099 23.6967L35.6639 36.056C35.7054 36.5961 35.6357 37.139 35.4591 37.6507C35.2826 38.1623 35.003 38.6316 34.638 39.0292C34.273 39.4268 33.8304 39.744 33.3379 39.9609C32.8455 40.1779 32.3139 40.2899 31.7765 40.2899ZM19.438 20.652C17.7143 20.652 16.2593 22.0087 16.1258 23.741L15.1718 36.1004C15.1363 36.5607 15.1956 37.0234 15.3459 37.4595C15.4963 37.8956 15.7344 38.2956 16.0455 38.6345C16.3565 38.9733 16.7337 39.2437 17.1534 39.4287C17.573 39.6136 18.0261 39.709 18.4841 39.7091H31.7771C32.2351 39.709 32.6882 39.6136 33.1079 39.4287C33.5275 39.2437 33.9047 38.9734 34.2158 38.6345C34.5268 38.2956 34.765 37.8956 34.9154 37.4595C35.0657 37.0234 35.125 36.5607 35.0895 36.1004L34.1356 23.741C34.0019 22.0087 32.5467 20.652 30.8233 20.652H19.438Z" fill="#371A45"/>
<path d="M43.2893 29.3471C43.2231 30.2107 42.917 31.0491 42.1765 31.681C39.2033 34.2193 34.3466 31.2595 32.4806 28.6191C32.4191 28.5327 31.7738 27.3333 31.1245 25.8882C30.082 23.5651 29.0301 20.6047 30.3834 20.6047C32.5784 20.6047 36.8283 27.2754 40.6787 25.863C42.2636 25.282 42.313 25.2222 42.313 25.2173C42.3292 25.248 43.4427 27.3626 43.2893 29.3471Z" fill="white"/>
<g opacity="0.35">
<path d="M43.2894 29.3462C43.2231 30.2098 42.917 31.0482 42.1765 31.6801C39.2033 34.2184 34.3467 31.2586 32.4806 28.6182C32.4191 28.5318 31.7738 27.3324 31.1246 25.8873C31.2594 25.8719 31.3949 25.8642 31.5306 25.8641C34.1074 25.8641 35.1946 31.5358 39.9814 31.2136C41.6671 31.0999 42.6823 30.314 43.2894 29.3462Z" fill="#371A45"/>
</g>
<path d="M39.4713 32.9399C39.228 32.9393 38.985 32.9234 38.7436 32.8924C36.1509 32.5652 33.5118 30.5793 32.245 28.7865C32.2056 28.731 28.7439 22.4376 29.5944 20.7748C29.7021 20.5642 29.9265 20.313 30.3825 20.313C31.3399 20.313 32.5286 21.3401 33.9051 22.5294C35.8986 24.2519 38.3797 26.3957 40.5796 25.5898C41.3102 25.3218 41.7036 25.1686 41.9146 25.0824L41.6472 24.5749L42.6102 25.0362L42.6049 25.1515C42.9146 25.7658 44.8158 29.8077 42.3629 31.9016C41.5539 32.5922 40.5839 32.9399 39.4713 32.9399ZM30.3825 20.8948C30.2095 20.8948 30.1497 20.962 30.1105 21.0348C29.9872 21.2649 29.8346 22.1177 31.0785 25.0608C31.8076 26.7858 32.6466 28.3445 32.7172 28.4543C33.8793 30.0985 36.4141 32.0137 38.8152 32.3168C40.0701 32.4753 41.1376 32.1866 41.9895 31.4592C43.917 29.8135 42.6041 26.5289 42.1782 25.602C41.9 25.7178 41.4288 25.8974 40.7772 26.1364C38.2602 27.0596 35.6376 24.793 33.5299 22.9719C32.2939 21.9033 31.1265 20.8948 30.3825 20.8948Z" fill="#371A45"/>
<path d="M37.9408 32.731C37.9046 32.731 37.8688 32.7241 37.8352 32.7107C36.4436 32.1576 36.0178 30.3255 35.8877 29.2825C35.6849 27.6565 35.9103 25.5778 36.6283 25.0548C36.659 25.0325 36.6938 25.0165 36.7306 25.0076C36.7675 24.9988 36.8057 24.9974 36.843 25.0035C36.8804 25.0096 36.9163 25.023 36.9485 25.043C36.9807 25.0631 37.0088 25.0893 37.0309 25.1203C37.0531 25.1512 37.069 25.1863 37.0778 25.2234C37.0865 25.2605 37.0879 25.2991 37.0819 25.3367C37.0759 25.3744 37.0625 25.4106 37.0426 25.443C37.0228 25.4755 36.9967 25.5038 36.966 25.5261C36.6137 25.7829 36.232 27.383 36.4598 29.2101C36.6541 30.7674 37.2324 31.8463 38.0466 32.17C38.1091 32.1948 38.161 32.2408 38.1933 32.3001C38.2257 32.3594 38.2366 32.4282 38.224 32.4947C38.2115 32.5611 38.1763 32.6211 38.1246 32.6643C38.0729 32.7074 38.0079 32.731 37.9408 32.731Z" fill="#371A45"/>
<path d="M41.1973 27.9397C39.4225 28.8074 38.7335 27.8566 36.9354 27.5721C35.8578 27.4018 34.1006 27.4946 34.3754 26.1971C34.4363 25.9084 34.6409 25.7517 34.912 25.6597C35.5815 25.4317 36.6538 25.5985 36.953 25.1388C37.3678 24.5259 36.6618 23.5288 35.9187 22.8784C35.141 22.1975 34.4775 21.6022 34.8489 20.9742C34.9699 20.77 35.1178 20.6528 35.2814 20.5997C35.3433 20.5795 35.4076 20.568 35.4727 20.5656C35.6544 20.5561 35.8469 20.6079 36.036 20.6937H36.0368C36.5717 20.9335 37.0812 21.439 37.2481 21.6144L37.2495 21.6158C37.2563 21.6226 37.2623 21.6288 37.2678 21.6348C37.292 21.6607 37.3049 21.6751 37.3049 21.6751C37.2736 21.5298 37.2564 21.3817 37.2535 21.233C37.2481 20.96 37.2981 20.6331 37.5346 20.4846C38.3466 19.9738 39.0582 20.9504 39.4607 21.72C39.5142 21.8221 39.5602 21.9195 39.6 22.0122C39.829 22.5406 39.8573 22.9029 39.8573 22.9029C39.8573 22.9029 39.9045 22.916 39.9851 22.9424C40.3783 23.0718 41.5761 23.5282 42.0592 24.4251C42.1068 24.5132 42.1468 24.6052 42.1788 24.7002C42.6087 25.9824 42.3465 27.3779 41.1973 27.9397Z" fill="white"/>
<g opacity="0.35">
<path d="M38.1503 24.1476C38.1503 24.1476 36.9739 21.4494 35.4146 20.6749C35.369 20.6532 35.3248 20.6286 35.2822 20.6013C35.3441 20.5811 35.4084 20.5696 35.4735 20.5672C35.6254 20.5945 35.8321 20.6435 36.0368 20.6953H36.0376C36.5725 20.9351 37.082 21.4406 37.2489 21.616L37.2503 21.6174C37.6604 22.3123 38.1914 23.3714 38.1503 24.1476Z" fill="#371A45"/>
</g>
<g opacity="0.35">
<path d="M39.9848 22.9424L39.4119 23.6514L38.5781 24.2051C38.5781 24.2051 38.1534 24.3821 38.1534 24.0538C38.1534 23.0459 37.6343 22.1701 37.2683 21.6348C37.2926 21.6607 37.3055 21.6751 37.3055 21.6751C37.2742 21.5297 37.257 21.3817 37.254 21.233C38.1075 21.814 38.098 23.1284 38.6227 22.7803C39.1531 22.4289 39.189 22.0469 39.601 22.0122C39.83 22.5406 39.8584 22.9029 39.8584 22.9029C39.8584 22.9029 39.9045 22.9164 39.9848 22.9424Z" fill="#371A45"/>
</g>
<g opacity="0.35">
<path d="M41.1973 27.9389C39.4225 28.8066 38.7335 27.8558 36.9354 27.5713C35.8578 27.401 34.1006 27.4938 34.3754 26.1964C34.4363 25.9076 34.6409 25.7509 34.912 25.659C34.9079 26.0459 34.5659 26.4885 35.6213 26.7596C37.353 27.2036 38.2799 27.2022 38.8414 26.9499C39.8191 26.5107 38.3907 25.3775 38.4638 24.4104C38.5313 23.5127 41.2832 24.5875 41.2832 24.5875L42.0588 24.424C42.1063 24.5121 42.1463 24.6042 42.1783 24.6991C42.6087 25.9817 42.3465 27.3771 41.1973 27.9389Z" fill="#371A45"/>
</g>
<path d="M39.5968 28.5764C39.5876 28.5764 39.5785 28.576 39.5694 28.5751C39.1329 28.5335 38.7356 28.3954 38.3144 28.2491C37.8885 28.101 37.4482 27.9478 36.8908 27.8596C36.7121 27.8314 36.5122 27.8105 36.3006 27.7882C35.522 27.7069 34.6397 27.6138 34.25 27.0747C34.0678 26.8221 34.0151 26.5067 34.0935 26.1369C34.2568 25.3661 35.0926 25.2879 35.7643 25.2252C36.1576 25.1885 36.6034 25.1469 36.7123 24.9799C36.9954 24.5618 36.4164 23.6998 35.7298 23.099C34.9288 22.3977 34.1005 21.6729 34.6013 20.826C34.8438 20.4158 35.1723 20.3027 35.405 20.2791C35.9576 20.2245 36.557 20.6121 36.9781 20.9636C37.0132 20.6861 37.1197 20.4029 37.3815 20.2386C37.6692 20.0579 37.9701 20.0084 38.2763 20.0918C38.7857 20.2305 39.2702 20.7331 39.716 21.5854C39.9632 22.0581 40.0695 22.4542 40.114 22.6795C40.6266 22.8521 42.0569 23.4297 42.4517 24.6079C42.6877 25.312 42.7254 26.043 42.5581 26.6665C42.3701 27.3677 41.943 27.8986 41.323 28.2016C41.2541 28.2353 41.1749 28.24 41.1026 28.2147C41.0303 28.1894 40.9709 28.1363 40.9376 28.0669C40.9042 27.9975 40.8995 27.9176 40.9246 27.8447C40.9497 27.7718 41.0024 27.712 41.0713 27.6784C41.5366 27.4508 41.8579 27.0484 42.0013 26.5144C42.1393 26.0008 42.1052 25.3897 41.9054 24.7936C41.5308 23.6758 39.7992 23.1887 39.7816 23.1839C39.7243 23.1682 39.6732 23.1351 39.6353 23.089C39.5973 23.0429 39.5744 22.9861 39.5697 22.9264C39.5697 22.9233 39.5263 22.4691 39.2055 21.8561C38.848 21.1721 38.4643 20.7448 38.1256 20.6525C37.9764 20.6119 37.8369 20.6366 37.6865 20.7318C37.5051 20.8456 37.519 21.3225 37.5854 21.6089C37.5999 21.6716 37.5934 21.7375 37.5668 21.7961C37.5402 21.8548 37.495 21.9028 37.4383 21.9327C37.3817 21.9626 37.3167 21.9727 37.2538 21.9614C37.1908 21.9501 37.1334 21.918 37.0904 21.8702C36.7165 21.4533 35.946 20.8093 35.4605 20.8575C35.3661 20.8669 35.2253 20.9051 35.096 21.1235C34.86 21.5237 35.3202 21.9709 36.1074 22.6597C36.9393 23.388 37.7222 24.5172 37.191 25.3029C36.9325 25.6994 36.3652 25.7527 35.8168 25.8039C35.1611 25.8651 34.7263 25.9298 34.6568 26.2582C34.6135 26.4624 34.6329 26.6177 34.7156 26.7326C34.9543 27.0636 35.7335 27.1449 36.3596 27.2106C36.5789 27.2336 36.786 27.2551 36.9795 27.2859C37.5874 27.382 38.0732 27.5509 38.5017 27.6999C38.906 27.8404 39.2549 27.9619 39.6229 27.9968C39.6967 28.0037 39.765 28.0391 39.8136 28.0955C39.8623 28.1519 39.8875 28.225 39.884 28.2997C39.8806 28.3743 39.8488 28.4447 39.7952 28.4964C39.7415 28.548 39.6703 28.5768 39.5962 28.5768L39.5968 28.5764Z" fill="#371A45"/>
<path d="M38.0063 24.1332C38.0063 24.093 38.0027 24.0366 37.9978 23.987C37.9929 23.9373 37.9868 23.884 37.9777 23.8324C37.961 23.7287 37.9392 23.6259 37.9122 23.5244C37.8576 23.3204 37.788 23.1208 37.7041 22.9272C37.6193 22.7337 37.5229 22.5455 37.4153 22.3638C37.3634 22.272 37.3027 22.1848 37.2471 22.0954L37.0648 21.8364L37.0568 21.8248C37.0124 21.7617 36.9947 21.6835 37.0076 21.6072C37.0205 21.531 37.0629 21.4631 37.1254 21.4183C37.188 21.3736 37.2657 21.3558 37.3413 21.3687C37.4169 21.3817 37.4843 21.4245 37.5287 21.4875C37.5347 21.4963 37.5405 21.5055 37.5455 21.5145C37.6014 21.6157 37.6585 21.7157 37.7126 21.8174C37.7628 21.9217 37.8175 22.0235 37.8633 22.129C37.9587 22.3394 38.0412 22.5555 38.1103 22.7761C38.1787 22.9973 38.2307 23.2233 38.2659 23.4523C38.2833 23.5673 38.295 23.6831 38.3008 23.7994C38.3081 23.9198 38.3057 24.0407 38.2937 24.1608C38.2896 24.1974 38.2717 24.2311 38.2438 24.255C38.2159 24.2788 38.18 24.291 38.1434 24.2892C38.1068 24.2873 38.0724 24.2714 38.047 24.2448C38.0216 24.2182 38.0072 24.1829 38.0068 24.146L38.0063 24.1332Z" fill="#371A45"/>
<path d="M41.1155 23.6495C41.1155 23.6495 40.7094 23.8804 40.4102 24.2679C40.1068 24.6601 39.9487 25.3269 39.2488 25.2008C38.7642 25.1129 38.4569 24.3992 38.7663 23.64C38.9041 23.3014 39.1643 22.9541 39.5859 22.6484C39.5859 22.6484 40.1648 22.32 40.644 22.6197C40.9541 22.8138 41.0695 23.0796 41.1095 23.294C41.1317 23.4112 41.1337 23.5315 41.1155 23.6495Z" fill="white"/>
<g opacity="0.35">
<path d="M41.1155 23.6491C41.1155 23.6491 40.7094 23.88 40.4102 24.2675C40.1068 24.6597 39.9487 25.3265 39.2488 25.2004C38.7642 25.1126 38.4569 24.3988 38.7663 23.6396C38.8866 23.8854 38.8717 24.4201 39.2332 24.4629C39.7467 24.5235 40.069 23.0675 41.1095 23.2936C41.1317 23.4109 41.1337 23.5311 41.1155 23.6491Z" fill="#371A45"/>
</g>
<path d="M39.4163 25.5072C39.3429 25.5069 39.2697 25.5 39.1975 25.4867C38.8066 25.4161 38.4978 25.0797 38.3919 24.6087C38.256 24.0044 38.4539 23.1099 39.4171 22.4122C39.4257 22.4059 39.4347 22.4001 39.444 22.3949C39.4737 22.3781 40.1787 21.9869 40.7958 22.3727C41.5591 22.85 41.4046 23.673 41.3977 23.7069C41.3894 23.7479 41.3725 23.7865 41.3481 23.8203C41.3236 23.8541 41.2923 23.8821 41.2561 23.9026C41.2473 23.9076 40.8924 24.1146 40.6363 24.4462C40.5719 24.5345 40.5129 24.6266 40.4595 24.7221C40.2716 25.0416 39.9968 25.507 39.4163 25.5072ZM39.738 22.895C39.0171 23.4248 38.8599 24.0599 38.9543 24.4795C39.0073 24.7151 39.1431 24.8856 39.2991 24.9138C39.6098 24.9696 39.7286 24.8242 39.9646 24.4243C40.0313 24.3112 40.1002 24.1942 40.1821 24.0883C40.4058 23.7987 40.68 23.5891 40.8402 23.4803C40.8386 23.3254 40.7892 23.0522 40.4917 22.866C40.1942 22.6798 39.808 22.8603 39.738 22.895Z" fill="#371A45"/>
<path d="M42.1659 24.613C42.1566 24.7041 42.1401 24.7942 42.1165 24.8826C42.1165 24.8826 41.8895 24.8092 41.5895 25.1966C41.2862 25.5889 41.2665 25.8913 40.6782 25.8634C40.3006 25.8456 39.9025 25.3927 39.9943 24.8132C40.0491 24.4673 40.2775 24.0771 40.7883 23.7073C40.7883 23.7073 41.3774 23.3625 41.847 23.6786C42.1783 23.9007 42.1956 24.3317 42.1659 24.613Z" fill="white"/>
<g opacity="0.35">
<path d="M42.166 24.6121C42.1568 24.7031 42.1403 24.7933 42.1166 24.8816C42.1166 24.8816 41.8896 24.8082 41.5896 25.1956C41.2863 25.5879 41.2667 25.8903 40.6783 25.8624C40.3007 25.8447 39.9026 25.3918 39.9945 24.8122C40.3418 24.9368 40.1566 25.3908 40.6975 25.3567C41.1661 25.3266 41.3167 23.8227 42.166 24.6121Z" fill="#371A45"/>
</g>
<path d="M40.7484 26.1543C40.7215 26.1543 40.6938 26.1543 40.665 26.1524C40.2577 26.1332 39.8794 25.801 39.7452 25.3437C39.6546 25.0361 39.5588 24.2378 40.6205 23.4688C40.6281 23.4631 40.6359 23.4578 40.6441 23.4529C40.6744 23.4351 41.3956 23.0225 42.0072 23.434C42.6926 23.8955 42.4063 24.9181 42.3939 24.9614C42.3738 25.0307 42.3289 25.0901 42.2678 25.1279C42.2068 25.1656 42.1339 25.1792 42.0635 25.1658C42.0311 25.1714 41.9385 25.2156 41.8172 25.3727C41.7569 25.4506 41.7082 25.5262 41.661 25.5995C41.4863 25.8732 41.3045 26.1543 40.7484 26.1543ZM40.9425 23.9521C40.4168 24.3381 40.1819 24.7846 40.2975 25.1793C40.3674 25.4171 40.5527 25.5652 40.6908 25.5717C40.9814 25.5857 41.0197 25.5277 41.1766 25.2841C41.2277 25.2048 41.2859 25.1144 41.3613 25.0167C41.5478 24.7752 41.7273 24.6642 41.8732 24.6168C41.9007 24.4045 41.9046 24.0658 41.6858 23.9191C41.4025 23.7276 41.0114 23.9163 40.9425 23.9521Z" fill="#371A45"/>
<path d="M7.06766 29.3471C7.13389 30.2107 7.43987 31.0491 8.18035 31.681C11.1536 34.2193 16.0102 31.2595 17.8764 28.6191C17.9379 28.5327 18.5831 27.3333 19.2323 25.8882C20.2748 23.5651 21.3268 20.6047 19.9736 20.6047C17.7784 20.6047 13.5287 27.2754 9.67829 25.863C8.09319 25.282 8.04396 25.2222 8.04396 25.2173C8.02775 25.248 6.91428 27.3626 7.06766 29.3471Z" fill="white"/>
<g opacity="0.35">
<path d="M7.06732 29.3462C7.13355 30.2098 7.43953 31.0482 8.18 31.6801C11.1532 34.2184 16.0098 31.2586 17.8761 28.6182C17.9376 28.5318 18.5827 27.3324 19.232 25.8873C19.0971 25.8719 18.9616 25.8642 18.8259 25.8641C16.2491 25.8641 15.1621 31.5358 10.3752 31.2136C8.68954 31.0999 7.67471 30.314 7.06732 29.3462Z" fill="#371A45"/>
</g>
<path d="M10.8852 32.9407C9.77267 32.9407 8.80283 32.5929 7.9944 31.9027C5.54187 29.8095 7.44238 25.7673 7.75245 25.1527L7.74694 25.0378L8.71033 24.5763L8.44195 25.0837C8.65307 25.17 9.04635 25.3232 9.77708 25.5912C11.9771 26.3978 14.4581 24.2541 16.4514 22.5307C17.8279 21.3414 19.0168 20.3144 19.974 20.3144C20.4302 20.3144 20.6546 20.5655 20.7623 20.7763C21.6131 22.4402 18.1509 28.7323 18.1116 28.7878C16.8447 30.5805 14.2058 32.5666 11.6131 32.8937C11.3717 32.9246 11.1286 32.9403 10.8852 32.9407ZM8.1794 25.602C7.75339 26.5288 6.44029 29.8135 8.36817 31.4591C9.22003 32.1865 10.2885 32.4751 11.5425 32.3167C13.9445 32.0137 16.4783 30.0984 17.6431 28.4504C17.7112 28.3453 18.5499 26.7868 19.2792 25.0615C20.523 22.1184 20.3706 21.2656 20.2473 21.0355C20.2081 20.9628 20.1482 20.8955 19.9751 20.8955C19.2312 20.8955 18.0639 21.904 16.8288 22.972C15.0567 24.5032 12.9199 26.3496 10.788 26.3496C10.3764 26.3508 9.96779 26.2787 9.58106 26.1367C8.92821 25.8974 8.45706 25.718 8.17861 25.602H8.1794Z" fill="#371A45"/>
<path d="M12.4161 32.7311C12.349 32.7311 12.284 32.7075 12.2322 32.6643C12.1805 32.6212 12.1454 32.5612 12.1328 32.4947C12.1203 32.4282 12.1311 32.3594 12.1635 32.3002C12.1959 32.2409 12.2478 32.1949 12.3102 32.17C13.1245 31.8464 13.7028 30.7675 13.8971 29.21C14.1249 27.3831 13.7434 25.7829 13.3908 25.5262C13.3288 25.481 13.2872 25.4129 13.275 25.3367C13.2629 25.2606 13.2812 25.1827 13.326 25.1202C13.3708 25.0577 13.4384 25.0157 13.514 25.0035C13.5895 24.9912 13.6667 25.0097 13.7287 25.0549C14.4466 25.5782 14.6726 27.6564 14.4692 29.2824C14.3393 30.3254 13.9133 32.1577 12.5217 32.7108C12.4881 32.7242 12.4523 32.7311 12.4161 32.7311Z" fill="#371A45"/>
<path d="M9.15938 27.9397C10.9344 28.8074 11.6228 27.8566 13.4217 27.5721C14.4993 27.4018 16.2566 27.4946 15.9816 26.1971C15.9207 25.9084 15.7161 25.7517 15.4452 25.6597C14.7757 25.4317 13.7034 25.5985 13.404 25.1388C12.9889 24.5258 13.6949 23.5285 14.4382 22.8784C15.2158 22.1975 15.8792 21.6022 15.508 20.9742C15.387 20.77 15.2391 20.6528 15.0755 20.5997C15.0136 20.5795 14.9493 20.568 14.8844 20.5656C14.7027 20.5561 14.51 20.6079 14.3209 20.6937C13.786 20.9335 13.2763 21.439 13.1095 21.6144L13.1083 21.6158C13.1015 21.6226 13.0954 21.6288 13.09 21.6348C13.0656 21.6607 13.0529 21.6751 13.0529 21.6751C13.0841 21.5298 13.1013 21.3817 13.1042 21.233C13.1095 20.96 13.0597 20.6331 12.8231 20.4846C12.011 19.9738 11.2996 20.9504 10.8969 21.72C10.8436 21.8221 10.7977 21.9195 10.7577 22.0122C10.5286 22.5406 10.5003 22.9029 10.5003 22.9029C10.5003 22.9029 10.4531 22.916 10.3726 22.9424C9.9793 23.0718 8.78151 23.5282 8.2984 24.4251C8.25091 24.5132 8.21092 24.6053 8.17884 24.7002C7.74812 25.9824 8.01005 27.3779 9.15938 27.9397Z" fill="white"/>
<g opacity="0.35">
<path d="M12.207 24.1476C12.207 24.1476 13.3833 21.4494 14.9426 20.6749C14.9882 20.6532 15.0325 20.6286 15.075 20.6013C15.0132 20.5811 14.9489 20.5697 14.8839 20.5672C14.7318 20.5945 14.5251 20.6435 14.3204 20.6953C13.7855 20.9351 13.2758 21.4406 13.1091 21.616L13.1078 21.6174C12.6969 22.3123 12.1658 23.3714 12.207 24.1476Z" fill="#371A45"/>
</g>
<g opacity="0.35">
<path d="M10.3715 22.9424L10.9445 23.6514L11.7782 24.2051C11.7782 24.2051 12.203 24.3821 12.203 24.0538C12.203 23.0459 12.7221 22.1701 13.088 21.6348C13.0636 21.6607 13.0509 21.6751 13.0509 21.6751C13.0821 21.5297 13.0993 21.3817 13.1022 21.233C12.2489 21.814 12.2583 23.1284 11.7335 22.7803C11.2032 22.4289 11.1672 22.0469 10.7552 22.0122C10.5262 22.5406 10.4978 22.9029 10.4978 22.9029C10.4978 22.9029 10.4519 22.9164 10.3715 22.9424Z" fill="#371A45"/>
</g>
<g opacity="0.35">
<path d="M9.15949 27.9389C10.9345 28.8066 11.6229 27.8558 13.4218 27.5713C14.4994 27.401 16.2567 27.4938 15.9817 26.1964C15.9209 25.9076 15.7162 25.7509 15.4453 25.659C15.4492 26.0459 15.7914 26.4885 14.7358 26.7596C13.0042 27.2036 12.0772 27.2022 11.5157 26.9499C10.5382 26.5107 11.9664 25.3775 11.8933 24.4104C11.8257 23.5127 9.07391 24.5875 9.07391 24.5875L8.2982 24.424C8.25071 24.5121 8.21071 24.6042 8.17864 24.6991C7.74823 25.9817 8.01015 27.3771 9.15949 27.9389Z" fill="#371A45"/>
</g>
<path d="M10.7603 28.5765C10.6862 28.5765 10.6149 28.5476 10.5613 28.496C10.5077 28.4444 10.4759 28.374 10.4724 28.2993C10.469 28.2247 10.4942 28.1516 10.5428 28.0952C10.5914 28.0388 10.6598 28.0034 10.7336 27.9965C11.1014 27.9616 11.4504 27.8401 11.8546 27.6996C12.2833 27.5505 12.769 27.3825 13.3768 27.2856C13.5704 27.2548 13.7776 27.2332 13.9969 27.2103C14.6228 27.1448 15.402 27.0633 15.6407 26.7323C15.7236 26.6174 15.7429 26.4627 15.6997 26.2579C15.6301 25.9295 15.1951 25.8648 14.5396 25.8036C13.9911 25.7523 13.4239 25.6994 13.1628 25.2987C12.6342 24.5167 13.4172 23.3876 14.2491 22.6594C15.0356 21.9706 15.497 21.5234 15.2603 21.1231C15.131 20.9045 14.9903 20.8666 14.8958 20.8572C14.4125 20.8087 13.6399 21.4528 13.2658 21.87C13.2229 21.9179 13.1654 21.9501 13.1024 21.9614C13.0393 21.9727 12.9744 21.9626 12.9177 21.9326C12.861 21.9025 12.8158 21.8543 12.7893 21.7956C12.7628 21.7368 12.7564 21.6709 12.7713 21.6081C12.8375 21.3226 12.8512 20.8453 12.6699 20.7315C12.5194 20.6363 12.38 20.6119 12.2307 20.6522C11.892 20.7445 11.5085 21.1718 11.1508 21.8557C10.83 22.4688 10.787 22.9229 10.7866 22.9274C10.7814 22.9869 10.7583 23.0434 10.7204 23.0893C10.6824 23.1352 10.6315 23.1683 10.5744 23.1841C10.5572 23.1887 8.82566 23.6757 8.45062 24.7936C8.25083 25.3897 8.21685 26.0008 8.35466 26.5144C8.49781 27.0484 8.81952 27.451 9.2847 27.6784C9.35354 27.712 9.4063 27.7718 9.43138 27.8447C9.45646 27.9176 9.45179 27.9975 9.41841 28.0669C9.38504 28.1363 9.32568 28.1894 9.2534 28.2147C9.18112 28.24 9.10184 28.2353 9.033 28.2016C8.41318 27.8986 7.98607 27.3677 7.79792 26.6665C7.6307 26.043 7.66845 25.312 7.90427 24.6079C8.29928 23.4297 9.72911 22.8521 10.2421 22.6795C10.2866 22.454 10.3928 22.0579 10.6401 21.5854C11.0859 20.7331 11.5703 20.2305 12.0797 20.0918C12.386 20.0084 12.6869 20.0579 12.9745 20.2386C13.236 20.4029 13.3429 20.6861 13.378 20.9636C13.7995 20.6121 14.3993 20.2247 14.9512 20.2791C15.184 20.3022 15.5124 20.4158 15.755 20.826C16.2556 21.6729 15.4273 22.3977 14.6263 23.099C13.9409 23.6993 13.3621 24.5613 13.642 24.9753C13.7535 25.1464 14.1993 25.188 14.5928 25.2248C15.2644 25.2882 16.1003 25.3656 16.2636 26.1364C16.3423 26.5062 16.2893 26.8216 16.1071 27.0742C15.7173 27.6146 14.8351 27.7071 14.0565 27.7878C13.8449 27.81 13.645 27.8309 13.4663 27.8591C12.9089 27.9475 12.4686 28.1005 12.0427 28.2486C11.6218 28.3949 11.2247 28.5331 10.7875 28.5746C10.7785 28.5757 10.7694 28.5763 10.7603 28.5765Z" fill="#371A45"/>
<path d="M12.0634 24.1616C12.0515 24.0415 12.0492 23.9207 12.0564 23.8002C12.0622 23.684 12.0739 23.5682 12.0913 23.4531C12.1265 23.2242 12.1785 22.9981 12.247 22.777C12.316 22.5564 12.3984 22.3402 12.4937 22.1298C12.5396 22.0238 12.5942 21.9226 12.6444 21.8182C12.6985 21.7166 12.7556 21.6165 12.8116 21.5154C12.8297 21.4811 12.8543 21.4508 12.8841 21.4263C12.9139 21.4018 12.9482 21.3835 12.9851 21.3725C13.022 21.3615 13.0606 21.358 13.0989 21.3623C13.1371 21.3666 13.1741 21.3785 13.2077 21.3974C13.2413 21.4162 13.2708 21.4416 13.2946 21.4722C13.3183 21.5027 13.3358 21.5376 13.3459 21.575C13.3561 21.6124 13.3587 21.6515 13.3537 21.6899C13.3487 21.7284 13.3362 21.7654 13.3168 21.7989C13.3116 21.8081 13.3061 21.817 13.3001 21.8255L13.2918 21.8373L13.1094 22.0962C13.0541 22.1857 12.9933 22.2729 12.9414 22.3647C12.8339 22.5462 12.7374 22.7341 12.6526 22.9275C12.5688 23.1211 12.4993 23.3207 12.4445 23.5246C12.4175 23.6261 12.3957 23.7289 12.3792 23.8326C12.3699 23.8843 12.3644 23.9358 12.3589 23.9872C12.3534 24.0386 12.3507 24.0933 12.3505 24.1334V24.1462C12.3501 24.1831 12.3357 24.2185 12.3104 24.2451C12.285 24.2717 12.2505 24.2875 12.2139 24.2894C12.1774 24.2913 12.1415 24.279 12.1136 24.2552C12.0856 24.2313 12.0678 24.1976 12.0636 24.161L12.0634 24.1616Z" fill="#371A45"/>
<path d="M9.2412 23.6495C9.2412 23.6495 9.64723 23.8804 9.9466 24.2679C10.2499 24.6601 10.408 25.3269 11.1079 25.2008C11.5924 25.1129 11.8998 24.3992 11.5904 23.64C11.4526 23.3014 11.1924 22.9541 10.7708 22.6484C10.7708 22.6484 10.1919 22.32 9.71283 22.6197C9.40261 22.8138 9.28714 23.0796 9.24734 23.294C9.22516 23.4112 9.22309 23.5315 9.2412 23.6495Z" fill="white"/>
<g opacity="0.35">
<path d="M9.2412 23.6491C9.2412 23.6491 9.64723 23.88 9.9466 24.2675C10.2499 24.6597 10.408 25.3265 11.1079 25.2004C11.5924 25.1126 11.8998 24.3988 11.5904 23.6396C11.4702 23.8854 11.485 24.4201 11.1235 24.4629C10.61 24.5235 10.2878 23.0675 9.24734 23.2936C9.22516 23.4109 9.22309 23.5311 9.2412 23.6491Z" fill="#371A45"/>
</g>
<path d="M10.9403 25.5072C10.3595 25.5072 10.0848 25.0417 9.89635 24.7221C9.84292 24.6267 9.78387 24.5346 9.71953 24.4462C9.46138 24.1121 9.10302 23.9045 9.09956 23.9025C9.06346 23.882 9.03215 23.8539 9.00773 23.8202C8.9833 23.7865 8.96634 23.7479 8.95797 23.707C8.95121 23.6722 8.79657 22.8507 9.55986 22.3727C10.1773 21.9868 10.8813 22.3781 10.9117 22.3949C10.921 22.4001 10.93 22.4059 10.9386 22.4122C11.9018 23.1099 12.0999 24.0044 11.9638 24.6088C11.8579 25.0797 11.5493 25.4162 11.1583 25.4868C11.0864 25.5001 11.0134 25.5069 10.9403 25.5072ZM9.51644 23.4808C9.67643 23.5898 9.95063 23.7994 10.1745 24.089C10.2563 24.1949 10.3253 24.3119 10.392 24.425C10.628 24.8249 10.7465 24.9705 11.0573 24.9145C11.2139 24.8863 11.3491 24.7158 11.4022 24.4802C11.4966 24.0606 11.3392 23.4255 10.6187 22.8959C10.5489 22.8608 10.161 22.6813 9.86473 22.8667C9.56851 23.0521 9.51785 23.3261 9.51644 23.4808Z" fill="#371A45"/>
<path d="M8.19089 24.613C8.20004 24.7041 8.21651 24.7942 8.24013 24.8826C8.24013 24.8826 8.46713 24.8092 8.76713 25.1966C9.07043 25.5889 9.0901 25.8913 9.67861 25.8634C10.0562 25.8456 10.4542 25.3927 10.3623 24.8132C10.3076 24.4673 10.0791 24.0771 9.56849 23.7073C9.56849 23.7073 8.97935 23.3625 8.50977 23.6786C8.17862 23.9007 8.16116 24.3317 8.19089 24.613Z" fill="white"/>
<g opacity="0.35">
<path d="M8.19073 24.6121C8.19989 24.7031 8.21635 24.7933 8.23997 24.8816C8.23997 24.8816 8.46698 24.8082 8.76698 25.1956C9.07028 25.5879 9.08994 25.8903 9.67845 25.8624C10.056 25.8447 10.454 25.3918 10.3621 24.8122C10.0149 24.9368 10.2001 25.3908 9.6591 25.3567C9.18999 25.3266 9.03992 23.8227 8.19073 24.6121Z" fill="#371A45"/>
</g>
<path d="M9.60811 26.1558C9.05185 26.1558 8.87062 25.8746 8.69569 25.6022C8.64849 25.529 8.59973 25.4533 8.53948 25.3755C8.46837 25.2833 8.32852 25.1595 8.32805 25.1595C8.29137 25.1714 8.2527 25.1757 8.21433 25.1723C8.17595 25.1689 8.13865 25.1577 8.10463 25.1395C8.0706 25.1213 8.04054 25.0964 8.01623 25.0663C7.99192 25.0361 7.97384 25.0014 7.96308 24.9641C7.95049 24.9208 7.66418 23.8982 8.34975 23.4368C8.96155 23.0253 9.68236 23.4379 9.71272 23.4556C9.72092 23.4605 9.72885 23.4658 9.73648 23.4715C10.798 24.2406 10.7022 25.0388 10.6118 25.3464C10.4774 25.803 10.0992 26.1352 9.6918 26.1552C9.6627 26.1552 9.63501 26.1558 9.60811 26.1558ZM8.48206 24.6176C8.62789 24.6652 8.80738 24.7762 8.99396 25.0176C9.06947 25.1152 9.12752 25.2053 9.1788 25.2849C9.33611 25.5283 9.37324 25.5862 9.66443 25.5726C9.80334 25.5661 9.9885 25.4175 10.0577 25.1801C10.1738 24.7852 9.93894 24.3387 9.41273 23.9527C9.34713 23.9185 8.95416 23.7274 8.66847 23.9196C8.45028 24.0672 8.45453 24.4059 8.48174 24.6183L8.48206 24.6176Z" fill="#371A45"/>
<path d="M14.7325 36.906C15.2044 33.9744 16.2386 28.3952 17.8787 23.9419C18.5295 22.174 20.2902 20.9847 22.2746 20.9847H28.0382C30.0226 20.9847 31.7833 22.174 32.4341 23.9419C34.0737 28.3952 35.1084 33.9744 35.5803 36.906C35.793 38.2289 34.992 39.5127 33.6597 39.9734C31.9714 40.5572 29.2335 41.1662 25.1569 41.1662C21.0802 41.1662 18.3423 40.5572 16.654 39.9734C15.3208 39.5127 14.5196 38.2294 14.7325 36.906Z" fill="white"/>
<path d="M33.2064 25.9372C33.6395 26.8452 33.9412 27.8001 34.206 28.7623C34.4708 29.7245 34.6897 30.6992 34.89 31.6764C34.9913 32.1648 35.0912 32.6533 35.1859 33.1428C35.2806 33.6324 35.3766 34.1217 35.4672 34.6119C35.5578 35.102 35.6443 35.5931 35.7268 36.0848L35.8488 36.8227C35.8877 37.0864 35.9066 37.3686 35.875 37.6409C35.8434 37.9142 35.7766 38.1822 35.6761 38.438C35.5705 38.6906 35.4341 38.929 35.2701 39.1477C35.1032 39.3627 34.9108 39.5564 34.6973 39.7244C34.4835 39.8915 34.2472 40.0257 34.0028 40.1383C33.7468 40.244 33.5151 40.3174 33.2746 40.392C33.034 40.4665 32.794 40.5358 32.552 40.6002C32.0683 40.7299 31.5801 40.8395 31.089 40.9332C30.1086 41.1235 29.118 41.2453 28.1264 41.3288C27.1349 41.4124 26.1402 41.446 25.1469 41.446C24.1536 41.446 23.1593 41.4095 22.1674 41.3274C21.1755 41.2452 20.1852 41.1212 19.2048 40.9298C18.7145 40.8361 18.2264 40.7269 17.7418 40.5968C17.4999 40.5321 17.2589 40.4633 17.0194 40.388C16.78 40.3127 16.5461 40.238 16.2908 40.1313C16.0452 40.0188 15.813 39.8787 15.5986 39.7136C15.3867 39.5435 15.1956 39.3487 15.0291 39.1334C14.8667 38.9132 14.7321 38.6735 14.6286 38.4198C14.5286 38.1638 14.4634 37.8952 14.4348 37.6216C14.4019 37.3499 14.4267 37.0651 14.4653 36.8052L14.5874 36.0674C14.67 35.5758 14.7576 35.0842 14.8472 34.5946C15.0282 33.614 15.2237 32.6361 15.4339 31.661C15.5387 31.1734 15.6483 30.6868 15.7627 30.2012C15.8185 29.9581 15.8728 29.7145 15.931 29.4717C15.9892 29.229 16.0402 28.9848 16.1018 28.7423C16.2197 28.2571 16.3589 27.7772 16.5156 27.3028C16.5563 27.1845 16.5986 27.0668 16.6435 26.95C16.6883 26.8331 16.7322 26.7159 16.7814 26.6011C16.8792 26.3682 16.9889 26.1406 17.1101 25.9193C17.1203 25.8996 17.1369 25.8842 17.1572 25.8756C17.1775 25.867 17.2002 25.8659 17.2212 25.8724C17.2423 25.8788 17.2604 25.8925 17.2725 25.911C17.2846 25.9295 17.2899 25.9518 17.2875 25.9738V25.9754C17.2656 26.2254 17.2311 26.4742 17.184 26.7207C17.1621 26.8434 17.1409 26.9661 17.1149 27.0875C17.0913 27.2094 17.0651 27.3305 17.0372 27.4512C16.9268 27.934 16.8072 28.4142 16.6784 28.8918C16.5483 29.3693 16.422 29.8482 16.3066 30.3299C16.1913 30.8117 16.0837 31.2952 15.9791 31.7796C15.7694 32.7482 15.5749 33.7202 15.3958 34.6956C15.3067 35.1834 15.2205 35.6716 15.1373 36.1603L15.0168 36.8959C15.0049 36.9594 15.002 37.0106 14.9948 37.067C14.9867 37.122 14.9823 37.1775 14.9816 37.2331C14.9816 37.2886 14.9786 37.3441 14.9788 37.3996L14.9907 37.5657C15.0142 37.7871 15.0672 38.0043 15.148 38.2114C15.2329 38.4181 15.3426 38.6134 15.4746 38.7931C15.6121 38.9699 15.7694 39.1301 15.9434 39.2704C16.1217 39.4068 16.3145 39.523 16.5181 39.6169C16.7187 39.7008 16.9553 39.7791 17.1864 39.8508C17.4174 39.9224 17.6517 39.9903 17.8866 40.0533C18.356 40.1801 18.8317 40.2862 19.3107 40.3777C20.2678 40.5648 21.2392 40.6847 22.2136 40.767C23.188 40.8493 24.168 40.8839 25.1479 40.8839C26.1278 40.8839 27.1075 40.8493 28.0824 40.7686C29.0573 40.6879 30.0284 40.5677 30.9856 40.381C31.4647 40.2903 31.9395 40.1825 32.4101 40.0575C32.645 39.9951 32.8789 39.9286 33.1103 39.8558C33.3417 39.7831 33.5799 39.7061 33.7805 39.6231C33.9839 39.5279 34.1804 39.4179 34.3569 39.2796C34.5326 39.1412 34.691 38.9819 34.8288 38.8051C34.9622 38.6264 35.0735 38.432 35.1603 38.2262C35.2407 38.0189 35.2943 37.802 35.3198 37.581C35.3451 37.358 35.3302 37.1406 35.2978 36.9129L35.1763 36.1792C35.0944 35.6902 35.0072 35.2021 34.9183 34.7143C34.8294 34.2265 34.736 33.7397 34.6375 33.254C34.539 32.7683 34.4362 32.2834 34.3265 31.8002C34.1063 30.8339 33.8703 29.8721 33.6446 28.9083C33.416 27.9445 33.1846 26.9836 33.0285 25.9931C33.0256 25.971 33.0306 25.9484 33.0426 25.9296C33.0546 25.9107 33.0727 25.8967 33.0939 25.89C33.1151 25.8834 33.138 25.8844 33.1585 25.893C33.1789 25.9017 33.1958 25.9173 33.206 25.9372H33.2064Z" fill="#371A45"/>
<path d="M36.2047 15.3644C36.1745 15.3658 36.1442 15.3612 36.1157 15.3508C36.0872 15.3404 36.061 15.3244 36.0387 15.3038C36.0163 15.2831 35.9982 15.2583 35.9854 15.2306C35.9726 15.2029 35.9653 15.1729 35.964 15.1424L35.6598 8.46381C35.6584 8.43336 35.663 8.40294 35.6732 8.37427C35.6835 8.3456 35.6993 8.31926 35.7197 8.29674C35.7401 8.27423 35.7646 8.25598 35.792 8.24304C35.8194 8.23011 35.849 8.22274 35.8792 8.22135C36.5193 8.19187 37.1447 8.41987 37.618 8.8552C38.0913 9.29053 38.3736 9.89754 38.4029 10.5427L38.5067 12.8204C38.536 13.4654 38.3099 14.0958 37.8782 14.5728C37.4466 15.0499 36.8446 15.3346 36.2047 15.3644Z" fill="white"/>
<path d="M36.1935 15.4186C36.1205 15.4183 36.0504 15.3897 35.9977 15.3387C35.945 15.2878 35.9137 15.2184 35.9104 15.1449L35.606 8.46552C35.6042 8.42789 35.6099 8.39028 35.6226 8.35485C35.6353 8.31941 35.6548 8.28685 35.6799 8.25901C35.7051 8.23118 35.7355 8.20862 35.7694 8.19263C35.8032 8.17664 35.8398 8.16753 35.8772 8.16582C36.2012 8.15075 36.5251 8.20019 36.8302 8.3113C37.1353 8.42241 37.4157 8.59302 37.6554 8.81339C37.8951 9.03375 38.0893 9.29956 38.2271 9.59562C38.3648 9.89168 38.4434 10.2122 38.4582 10.5389L38.5619 12.8166C38.6248 14.1882 37.5683 15.3552 36.2075 15.4183L36.1935 15.4186ZM35.9925 8.27254C35.9555 8.27254 35.9187 8.27349 35.8816 8.27508C35.8585 8.27614 35.8358 8.28177 35.8149 8.29166C35.7939 8.30155 35.7751 8.3155 35.7596 8.33271C35.744 8.34993 35.7319 8.37007 35.724 8.39199C35.7162 8.4139 35.7127 8.43717 35.7137 8.46045L36.0181 15.1405C36.0203 15.1875 36.0409 15.2317 36.0754 15.2634C36.1098 15.2951 36.1554 15.3116 36.202 15.3095C37.5029 15.2492 38.5127 14.1335 38.4529 12.8223L38.349 10.5446C38.3212 9.93321 38.0608 9.35615 37.622 8.9332C37.1832 8.51024 36.5996 8.27388 35.9925 8.27318V8.27254Z" fill="#371A45"/>
<g opacity="0.35">
<path d="M38.4589 11.7503L38.5079 12.8184C38.5371 13.4637 38.3109 14.0942 37.879 14.5714C37.4472 15.0486 36.845 15.3334 36.2049 15.3632C36.1438 15.3659 36.0841 15.344 36.039 15.3024C35.9939 15.2608 35.967 15.2028 35.9642 15.1412L35.8828 13.3652C35.9027 13.4051 35.9337 13.4385 35.9719 13.4611C36.0102 13.4838 36.0541 13.495 36.0984 13.4932L36.2557 13.4854C36.7562 13.4623 37.2371 13.2829 37.6319 12.9721C38.0266 12.6612 38.3157 12.2342 38.4589 11.7503Z" fill="#371A45"/>
</g>
<path d="M36.1934 15.6688C36.0565 15.6687 35.9249 15.6153 35.826 15.52C35.7271 15.4246 35.6683 15.2945 35.662 15.1566L35.3576 8.47727C35.3544 8.40684 35.365 8.33646 35.3888 8.27015C35.4125 8.20385 35.449 8.14291 35.4962 8.09083C35.5433 8.03874 35.6002 7.99653 35.6635 7.9666C35.7268 7.93667 35.7954 7.91961 35.8653 7.9164C36.5854 7.88308 37.2892 8.13949 37.8218 8.62921C38.3544 9.11893 38.6722 9.80186 38.7053 10.5278L38.8091 12.8055C38.8778 14.3146 37.7156 15.5989 36.2184 15.6682C36.2101 15.6687 36.2018 15.6688 36.1934 15.6688ZM35.9644 8.52294L36.2633 15.055C37.3926 14.9643 38.2583 13.9827 38.2059 12.8334L38.1021 10.5557C38.0769 10.0035 37.8399 9.48286 37.441 9.10358C37.0422 8.7243 36.5127 8.5161 35.9644 8.52294Z" fill="#371A45"/>
<path d="M14.0071 9.23403C14.0373 9.23262 14.0675 9.23723 14.0959 9.24759C14.1244 9.25794 14.1505 9.27385 14.1729 9.29439C14.1952 9.31493 14.2133 9.33971 14.2261 9.36731C14.239 9.39491 14.2463 9.42479 14.2476 9.45524L14.5521 16.1346C14.5534 16.1651 14.5488 16.1956 14.5385 16.2243C14.5281 16.253 14.5123 16.2794 14.4918 16.3019C14.4714 16.3244 14.4467 16.3427 14.4193 16.3556C14.3918 16.3685 14.3621 16.3758 14.3318 16.3771C13.6919 16.4065 13.0665 16.1785 12.5933 15.7432C12.1201 15.308 11.8377 14.7011 11.8083 14.056L11.7045 11.7785C11.6751 11.1333 11.9012 10.5027 12.333 10.0256C12.7649 9.54839 13.367 9.26367 14.0071 9.23403Z" fill="white"/>
<path d="M14.2192 16.4336C13.584 16.4331 12.9734 16.186 12.5143 15.7435C12.0552 15.301 11.7829 14.6973 11.7539 14.0577L11.6501 11.7802C11.5871 10.4085 12.6438 9.24142 14.0044 9.17847C14.0418 9.17668 14.0792 9.18233 14.1144 9.1951C14.1496 9.20788 14.182 9.22752 14.2096 9.25291C14.2373 9.2783 14.2597 9.30894 14.2756 9.34307C14.2916 9.37721 14.3007 9.41417 14.3024 9.45185L14.6068 16.1312C14.6102 16.2072 14.5835 16.2815 14.5327 16.3377C14.4818 16.3939 14.4108 16.4274 14.3354 16.4309C14.2965 16.4327 14.2578 16.4336 14.2192 16.4336ZM14.018 9.28757H14.0096C12.7088 9.34783 11.6992 10.4637 11.7589 11.7749L11.8626 14.0525C11.8768 14.3648 11.9519 14.6712 12.0836 14.9543C12.2153 15.2373 12.4011 15.4915 12.6302 15.7022C12.8593 15.9129 13.1274 16.076 13.4191 16.1823C13.7108 16.2885 14.0204 16.3359 14.3302 16.3215C14.3769 16.3193 14.4207 16.2986 14.4522 16.2638C14.4836 16.2291 14.5001 16.1831 14.4979 16.1361L14.1935 9.45692C14.1915 9.41133 14.1722 9.36828 14.1395 9.33672C14.1068 9.30517 14.0632 9.28756 14.018 9.28757Z" fill="#371A45"/>
<g opacity="0.35">
<path d="M14.4681 14.2804L14.5523 16.1333C14.5549 16.1949 14.5333 16.2551 14.492 16.3006C14.4507 16.3461 14.3931 16.3732 14.332 16.3759C14.0151 16.3907 13.6985 16.3423 13.4002 16.2336C13.1018 16.125 12.8277 15.9581 12.5933 15.7426C12.359 15.5271 12.169 15.2672 12.0343 14.9777C11.8997 14.6882 11.8229 14.3748 11.8084 14.0554L11.7646 13.0956C11.9756 13.5126 12.3013 13.8596 12.7028 14.0949C13.1042 14.3303 13.5645 14.4441 14.0284 14.4227L14.2707 14.4108C14.3121 14.4087 14.3522 14.3955 14.3869 14.3726C14.4217 14.3497 14.4497 14.3179 14.4681 14.2804Z" fill="#371A45"/>
</g>
<path d="M14.2192 16.6839C13.5204 16.6831 12.8487 16.4111 12.3436 15.9242C11.8385 15.4374 11.5388 14.7732 11.5068 14.0695L11.4031 11.792C11.3344 10.2827 12.4964 8.99841 13.9936 8.92912C14.0635 8.92569 14.1334 8.93622 14.1993 8.96011C14.2651 8.98401 14.3257 9.02079 14.3774 9.06835C14.4291 9.1159 14.471 9.17329 14.5006 9.23721C14.5302 9.30114 14.547 9.37033 14.55 9.44083L14.8546 16.12C14.861 16.2623 14.8111 16.4012 14.7159 16.5064C14.6207 16.6116 14.488 16.6743 14.3469 16.6809C14.3041 16.683 14.2617 16.6839 14.2192 16.6839ZM13.9496 9.54326C12.8202 9.63397 11.9545 10.6155 12.0069 11.7649L12.1107 14.0424C12.1361 14.5942 12.3731 15.1145 12.7717 15.4936C13.1703 15.8727 13.6994 16.0809 14.2473 16.0744L13.9496 9.54326Z" fill="#371A45"/>
<g opacity="0.35">
<path d="M33.645 21.1306C33.463 21.3421 33.2737 21.5462 33.0771 21.7432C32.8003 22.0204 32.5096 22.2832 32.2061 22.5305C30.0525 24.284 27.3351 25.1794 24.5698 25.0467C21.8045 24.9139 19.1839 23.7622 17.2054 21.8103C16.9923 21.5997 16.7878 21.381 16.5919 21.1543C17.2912 20.4995 18.2105 20.1361 19.1649 20.137H31.0978C32.0402 20.1359 32.9488 20.4904 33.645 21.1306Z" fill="#371A45"/>
</g>
<path d="M25.1076 23.6921C31.3505 23.6921 36.4114 18.5907 36.4114 12.2979C36.4114 6.00504 31.3505 0.903687 25.1076 0.903687C18.8647 0.903687 13.8038 6.00504 13.8038 12.2979C13.8038 18.5907 18.8647 23.6921 25.1076 23.6921Z" fill="white"/>
<path d="M25.1113 23.7473C25.0152 23.7473 24.9192 23.7461 24.8224 23.7435C21.7894 23.6669 18.9678 22.4042 16.877 20.1883C14.7861 17.9724 13.6767 15.0682 13.7529 12.0111C13.829 8.95396 15.0817 6.10965 17.28 4.00223C19.4783 1.8948 22.3591 0.776077 25.393 0.853143C28.427 0.930209 31.2468 2.19244 33.3374 4.40833C35.4279 6.62422 36.5376 9.52847 36.4615 12.5856C36.3072 18.7991 31.2429 23.7473 25.1113 23.7473ZM25.1 0.958752C22.2025 0.958752 19.4623 2.0613 17.3543 4.08151C15.1775 6.1688 13.9368 8.98584 13.8619 12.0138C13.7063 18.2644 18.6246 23.4773 24.8256 23.6341C24.9209 23.6366 25.0169 23.6377 25.1117 23.6377C31.1853 23.6377 36.2005 18.7379 36.3537 12.5829L36.408 12.5842L36.3537 12.5829C36.4291 9.55416 35.3302 6.67861 33.2594 4.48381C31.1885 2.28901 28.3935 1.03851 25.3896 0.962399C25.2929 0.960074 25.1963 0.958858 25.1 0.958752Z" fill="#371A45"/>
<g opacity="0.35">
<path d="M36.3385 11.0059C36.3981 11.5302 36.4212 12.0581 36.4077 12.5856C36.2504 18.8762 31.0644 23.8479 24.8236 23.6906C18.5828 23.5333 13.6508 18.3044 13.8067 12.0138C13.8111 11.8329 13.8198 11.6519 13.8328 11.4747C14.4566 17.0388 19.0703 21.4271 24.7805 21.5717C30.8418 21.7238 35.9071 17.039 36.3385 11.0059Z" fill="#371A45"/>
</g>
<path d="M25.1114 23.9975C25.013 23.9975 24.9149 23.9962 24.8161 23.9937C21.717 23.9153 18.8337 22.625 16.6973 20.3608C14.5608 18.0965 13.4272 15.129 13.505 12.0051C13.5829 8.88128 14.8627 5.97481 17.1091 3.8214C19.3556 1.66799 22.3009 0.525317 25.3985 0.603493C28.496 0.681669 31.3808 1.97213 33.5173 4.23638C35.6538 6.50063 36.7874 9.46815 36.7095 12.592C36.5516 18.9413 31.3767 23.9975 25.1114 23.9975ZM25.1 1.20892C22.2667 1.20892 19.5866 2.28721 17.5257 4.26286C15.3963 6.30416 14.1829 9.05919 14.1093 12.0204C13.957 18.1332 18.767 23.2314 24.8313 23.3846C30.893 23.5386 35.9535 18.6896 36.1053 12.5768L36.4075 12.5844L36.1053 12.5768C36.2575 6.464 31.4477 1.36575 25.3832 1.21257C25.2888 1.21014 25.1944 1.20892 25.1 1.20892Z" fill="#371A45"/>
<path d="M36.3644 12.8756C36.3424 15.1051 35.6038 17.1678 34.359 18.8682C33.4257 20.1428 29.619 22.3519 24.9455 22.3471C20.6121 22.3428 16.6929 19.9744 15.7851 18.6812C14.5738 16.9563 13.8766 14.8791 13.8986 12.6495C13.9571 6.74947 19.0102 4.35424 25.2142 4.41656C31.4182 4.47888 36.4228 6.9756 36.3644 12.8756Z" fill="#371A45"/>
<path d="M24.9606 22.6526H24.9449C20.452 22.6482 16.4924 20.2174 15.5375 18.8582C14.2455 17.017 13.5741 14.8693 13.5961 12.6472C13.6249 9.74994 14.7996 7.52755 17.0885 6.04173C19.0837 4.74635 21.8925 4.07829 25.2175 4.1127C28.5425 4.14711 31.337 4.86972 33.3068 6.20585C35.5652 7.73734 36.6956 9.98288 36.667 12.8803C36.645 15.1022 35.9311 17.236 34.6024 19.0505C33.6812 20.3072 29.9091 22.6526 24.9606 22.6526ZM25.0015 4.72098C21.6114 4.72098 14.271 5.54556 14.2007 12.6534C14.1797 14.7466 14.8129 16.7702 16.0315 18.506C16.8967 19.7382 20.7204 22.039 24.9455 22.0432H24.9603C29.636 22.0432 33.2848 19.8232 34.116 18.688C35.3681 16.977 36.0412 14.9666 36.062 12.8735C36.0886 10.1936 35.0478 8.12061 32.9687 6.71075C31.0979 5.44217 28.4154 4.75444 25.2109 4.72225C25.1431 4.7213 25.073 4.72098 25.0015 4.72098Z" fill="#371A45"/>
<g opacity="0.5">
<path d="M34.1441 12.3124C34.3519 11.2187 33.883 10.209 33.0967 10.0572C32.3105 9.90546 31.5046 10.6691 31.2969 11.7629C31.0891 12.8566 31.558 13.8663 32.3443 14.0181C33.1305 14.1698 33.9363 13.4062 34.1441 12.3124Z" fill="white"/>
</g>
<g opacity="0.5">
<path d="M31.6508 16.2674C31.814 15.7834 31.6124 15.2766 31.2004 15.1353C30.7883 14.9941 30.322 15.272 30.1587 15.7559C29.9954 16.2399 30.1971 16.7467 30.6091 16.888C31.0212 17.0292 31.4875 16.7513 31.6508 16.2674Z" fill="white"/>
</g>
<g opacity="0.35">
<path d="M34.2343 7.34937C35.5945 8.68407 36.3875 10.505 36.3644 12.8753C36.3423 15.1053 35.6034 17.1678 34.3594 18.8682C33.4257 20.1428 29.6187 22.3517 24.9454 22.3474C23.2952 22.3463 21.7057 22.0018 20.3188 21.5037C26.0636 21.3854 30.7015 18.674 31.8582 17.0928C33.4385 14.935 34.3753 12.3166 34.4031 9.48755C34.4129 8.77109 34.3563 8.05526 34.2343 7.34937Z" fill="#111A28"/>
</g>
<path d="M35.4527 7.99867C35.3799 7.99877 35.3095 7.97274 35.254 7.92525L35.246 7.91812L35.2202 7.89481L35.2003 7.86611C33.3256 5.15975 29.6659 3.58149 25.1599 3.53597C25.0954 3.53534 25.031 3.53502 24.9667 3.53502C20.524 3.53502 16.9149 5.08396 15.0443 7.80061L15.0264 7.82313C14.9761 7.88465 14.9039 7.92386 14.8253 7.93236C14.7467 7.94085 14.6679 7.91795 14.6059 7.86857C14.5438 7.81919 14.5034 7.74727 14.4934 7.66822C14.4833 7.58917 14.5044 7.50929 14.5521 7.44573C16.567 4.52626 20.4341 2.8806 25.1654 2.92642C29.857 2.974 33.6871 4.639 35.6797 7.49425C35.718 7.53819 35.7429 7.59235 35.7514 7.65021C35.7599 7.70807 35.7516 7.76718 35.7276 7.82042C35.7036 7.87366 35.6648 7.91878 35.6159 7.95034C35.5671 7.98191 35.5102 7.99858 35.4522 7.99835L35.4527 7.99867Z" fill="#371A45"/>
<g opacity="0.5">
<path d="M16.3865 16.1848C16.3865 16.1848 14.6314 10.3462 17.7663 8.058C20.9013 5.76981 25.3777 5.82436 25.2707 6.1128C25.2707 6.1128 20.3023 7.27244 18.3237 11.203C16.7981 14.2334 16.3865 16.1848 16.3865 16.1848Z" fill="white"/>
</g>
<path d="M29.8699 28.7219C31.8719 28.6303 32.9259 28.8964 33.9889 29.4528C34.639 29.7934 35.1802 30.2323 35.2036 31.4782C35.2205 32.383 34.6688 32.8316 34.6688 32.8316C34.6688 32.8316 32.3182 31.5891 29.4497 31.6918C28.8285 31.7142 28.7582 28.7728 29.8699 28.7219Z" fill="white"/>
<g opacity="0.35">
<path d="M35.204 31.4784C35.2208 32.3822 34.6691 32.8316 34.6691 32.8316C34.6691 32.8316 32.3185 31.5894 29.4499 31.6915C29.0849 31.7045 28.9106 30.6985 29.0525 29.8535C29.1222 30.2321 29.26 30.5017 29.4499 30.4949C31.4556 30.4231 33.2081 31.0087 34.0809 31.367C34.511 31.5439 35.004 31.3104 35.1316 30.8596L35.1359 30.8438C35.1786 31.0526 35.2014 31.2651 35.204 31.4784Z" fill="#371A45"/>
</g>
<path d="M34.7027 33.1782L34.535 33.0895C34.5122 33.0775 32.2142 31.8844 29.4601 31.9827C29.4538 31.9827 29.4475 31.9827 29.4412 31.9827C29.022 31.9827 28.752 31.477 28.7176 30.6236C28.6764 29.5949 29.015 28.4702 29.8564 28.4316C32.0059 28.333 33.0822 28.6506 34.1215 29.195C34.926 29.6163 35.467 30.165 35.4914 31.4729C35.5109 32.5081 34.8769 33.0359 34.8498 33.0586L34.7027 33.1782ZM29.7931 31.3955C32.1019 31.3955 34.0024 32.1935 34.6057 32.4775C34.7355 32.3108 34.9242 31.9816 34.915 31.4842C34.8937 30.3466 34.4227 30.0082 33.8556 29.7112C32.9013 29.2113 31.9049 28.9199 29.8826 29.0134C29.6237 29.0253 29.4777 29.3699 29.4137 29.5745C29.1887 30.293 29.3168 31.2303 29.4739 31.4014C29.5811 31.3974 29.6875 31.3954 29.7931 31.3955Z" fill="#371A45"/>
<path d="M20.4448 28.7219C18.4428 28.6303 17.3888 28.8964 16.3258 29.4528C15.6756 29.7934 15.1345 30.2323 15.111 31.4782C15.0942 32.383 15.6459 32.8316 15.6459 32.8316C15.6459 32.8316 17.9965 31.5891 20.8651 31.6918C21.4862 31.7142 21.5567 28.7728 20.4448 28.7219Z" fill="white"/>
<path d="M15.6115 33.1783L15.4643 33.0586C15.4372 33.0367 14.8036 32.5088 14.8228 31.4729C14.8473 30.165 15.3881 29.6163 16.1928 29.195C17.232 28.6506 18.3085 28.3331 20.4577 28.4316C21.2991 28.4701 21.6376 29.5949 21.5964 30.6235C21.5616 31.4898 21.2807 31.998 20.8543 31.9823C18.1013 31.8836 15.802 33.0765 15.7791 33.0892L15.6115 33.1783ZM19.7247 28.996C18.1635 28.996 17.2946 29.2738 16.4587 29.7116C15.8923 30.0086 15.4204 30.347 15.3993 31.4846C15.39 31.9814 15.5783 32.3106 15.7087 32.4779C16.3397 32.1807 18.3891 31.3214 20.8403 31.401C20.9976 31.2299 21.1255 30.2926 20.9006 29.574C20.8366 29.3696 20.6906 29.025 20.4316 29.0131C20.1809 29.0015 19.9457 28.996 19.7247 28.996Z" fill="#371A45"/>
<path d="M31.5925 42.8948C31.5821 42.9182 31.5741 42.9427 31.5685 42.9677L31.5925 42.8948Z" fill="#D66B09"/>
<g opacity="0.35">
<path d="M15.0881 31.4784C15.0713 32.3822 15.623 32.8316 15.623 32.8316C15.623 32.8316 17.9735 31.5894 20.8423 31.6915C21.2071 31.7045 21.3814 30.6985 21.2395 29.8535C21.17 30.2321 21.0322 30.5017 20.8423 30.4949C18.8364 30.4231 17.0839 31.0087 16.2112 31.367C15.7812 31.5439 15.2882 31.3104 15.1606 30.8596C15.159 30.8544 15.1576 30.8492 15.1562 30.8438C15.1135 31.0526 15.0907 31.2651 15.0881 31.4784Z" fill="#371A45"/>
</g>
<path d="M28.335 33.5372H21.9701C21.643 33.5372 21.3241 33.4337 21.0584 33.2414C20.7926 33.049 20.5935 32.7775 20.489 32.4651L20.1778 31.5374H30.1265L29.8156 32.466C29.711 32.7782 29.5118 33.0495 29.2462 33.2416C28.9806 33.4338 28.6619 33.5371 28.335 33.5372Z" fill="white"/>
<g opacity="0.35">
<path d="M28.335 33.5372H21.9701C21.643 33.5372 21.3241 33.4337 21.0584 33.2414C20.7926 33.049 20.5935 32.7775 20.489 32.4651L20.1778 31.5374H30.1265L29.8156 32.466C29.711 32.7782 29.5118 33.0495 29.2462 33.2416C28.9806 33.4338 28.6619 33.5371 28.335 33.5372Z" fill="#371A45"/>
</g>
<path d="M28.3349 33.8275H21.9697C21.5821 33.8278 21.2043 33.7053 20.8894 33.4774C20.5746 33.2496 20.3388 32.9278 20.2151 32.5575L19.9046 31.6293C19.89 31.5855 19.8859 31.539 19.8926 31.4933C19.8994 31.4477 19.9169 31.4043 19.9436 31.3669C19.9702 31.3294 20.0054 31.2988 20.0461 31.2778C20.0868 31.2567 20.1319 31.2457 20.1777 31.2457H30.1264C30.1722 31.2457 30.2173 31.2567 30.258 31.2777C30.2988 31.2988 30.334 31.3293 30.3607 31.3668C30.3874 31.4043 30.4048 31.4476 30.4116 31.4933C30.4184 31.5389 30.4143 31.5855 30.3997 31.6293L30.0888 32.5579C29.9651 32.9279 29.7293 33.2495 29.4147 33.4773C29.1 33.7051 28.7223 33.8276 28.3349 33.8275ZM20.5793 31.8272L20.7616 32.3719C20.8468 32.6267 21.0092 32.8482 21.226 33.0051C21.4427 33.162 21.7028 33.2463 21.9697 33.2462H28.3349C28.6017 33.2463 28.8618 33.162 29.0786 33.0052C29.2953 32.8483 29.4577 32.6269 29.5429 32.372L29.7252 31.8272H20.5793Z" fill="#371A45"/>
<path d="M28.8425 32.5167H21.461C21.292 32.5167 21.1248 32.481 20.9703 32.4119C20.8159 32.3427 20.6775 32.2417 20.5641 32.1154C20.4508 31.989 20.365 31.8401 20.3122 31.6782C20.2595 31.5163 20.241 31.3451 20.258 31.1756L20.6892 26.8669C20.7193 26.5664 20.859 26.2878 21.0813 26.0853C21.3036 25.8827 21.5925 25.7705 21.8922 25.7705H28.4107C28.7103 25.7705 28.9992 25.8827 29.2215 26.0853C29.4437 26.2878 29.5834 26.5664 29.6135 26.8669L30.0451 31.1756C30.0621 31.3451 30.0437 31.5163 29.991 31.6781C29.9382 31.84 29.8525 31.9889 29.7391 32.1152C29.6258 32.2416 29.4875 32.3426 29.333 32.4118C29.1786 32.4809 29.0115 32.5166 28.8425 32.5167Z" fill="white"/>
<path d="M28.8426 32.8076H21.4611C21.2517 32.8077 21.0447 32.7635 20.8534 32.6779C20.662 32.5923 20.4906 32.4672 20.3502 32.3106C20.2098 32.1541 20.1036 31.9697 20.0383 31.7692C19.973 31.5687 19.9501 31.3567 19.9712 31.1467L20.4028 26.838C20.4391 26.4654 20.6118 26.1198 20.8873 25.8688C21.1627 25.6177 21.5212 25.4791 21.8926 25.4801H28.4111C28.7824 25.4791 29.1409 25.6177 29.4163 25.8688C29.6918 26.1199 29.8645 26.4654 29.9008 26.838L30.3326 31.1467C30.3537 31.3566 30.3308 31.5687 30.2656 31.7692C30.2003 31.9696 30.094 32.1541 29.9536 32.3106C29.8132 32.4671 29.6418 32.5922 29.4505 32.6778C29.2592 32.7634 29.0522 32.8076 28.8429 32.8076H28.8426ZM21.8926 26.0615C21.6642 26.0608 21.4438 26.146 21.2745 26.3004C21.1051 26.4548 20.9989 26.6673 20.9765 26.8964L20.545 31.2048C20.5321 31.3338 20.5461 31.4642 20.5863 31.5875C20.6264 31.7108 20.6917 31.8242 20.7781 31.9204C20.8644 32.0167 20.9698 32.0936 21.0874 32.1462C21.2051 32.1988 21.3324 32.226 21.4611 32.226H28.8426C28.9713 32.226 29.0986 32.1988 29.2162 32.1462C29.3338 32.0935 29.4392 32.0166 29.5255 31.9204C29.6118 31.8241 29.6772 31.7107 29.7173 31.5875C29.7575 31.4642 29.7715 31.3338 29.7586 31.2048L29.3271 26.896C29.3048 26.667 29.1985 26.4545 29.0292 26.3001C28.8598 26.1458 28.6394 26.0606 28.4111 26.0612L21.8926 26.0615Z" fill="#371A45"/>
<path d="M24.465 32.8076C24.3885 32.8076 24.3152 32.777 24.2611 32.7225C24.207 32.668 24.1766 32.594 24.1766 32.5169V30.0591C24.1764 29.9751 24.157 29.8923 24.1198 29.8171C24.0826 29.7419 24.0287 29.6764 23.9622 29.6257L23.1489 29.0087C23.0112 28.9036 22.8995 28.768 22.8225 28.6122C22.7454 28.4565 22.7051 28.2849 22.7047 28.1109V25.7708C22.7047 25.6937 22.735 25.6198 22.7891 25.5653C22.8432 25.5108 22.9165 25.4801 22.993 25.4801C23.0695 25.4801 23.1428 25.5108 23.1969 25.5653C23.251 25.6198 23.2814 25.6937 23.2814 25.7708V28.1116C23.2816 28.1957 23.3011 28.2785 23.3383 28.3537C23.3755 28.4289 23.4295 28.4943 23.4959 28.545L24.3091 29.162C24.4468 29.2671 24.5585 29.4028 24.6356 29.5585C24.7126 29.7142 24.7529 29.8858 24.7534 30.0599V32.5177C24.7531 32.5947 24.7227 32.6684 24.6686 32.7227C24.6146 32.7771 24.5413 32.8076 24.465 32.8076Z" fill="#371A45"/>
<g opacity="0.35">
<path d="M29.6758 27.4846L30.1792 31.157C30.1781 31.5171 30.0356 31.8622 29.783 32.1168C29.5303 32.3715 29.188 32.5151 28.8307 32.5163H21.4713C20.7306 32.5163 20.1237 31.9045 20.1237 31.157V29.6505C20.6479 32.2308 26.2152 31.7695 26.4459 29.1431C26.5286 28.202 28.9047 28.4536 29.003 29.2099C29.137 30.2395 29.814 30.9056 29.5388 26.6263C29.7112 26.8541 29.6758 27.1771 29.6758 27.4846Z" fill="#371A45"/>
</g>
<path d="M28.9216 28.8487C28.9181 29.157 28.794 29.4516 28.5764 29.6684C28.3589 29.8852 28.0652 30.0067 27.7593 30.0067C27.4534 30.0067 27.1597 29.8852 26.9422 29.6684C26.7246 29.4516 26.6005 29.157 26.597 28.8487C26.597 28.6712 26.5998 28.2182 26.5998 28.2182C26.5998 28.2182 27.2933 27.677 27.7592 27.677C28.2252 27.677 28.9216 28.2965 28.9216 28.2965V28.8487Z" fill="#22A7F0"/>
<g opacity="0.35">
<path d="M28.9216 28.8469C28.918 29.1553 28.794 29.4498 28.5764 29.6666C28.3588 29.8834 28.0652 30.005 27.7592 30.005C27.4533 30.005 27.1597 29.8834 26.9421 29.6666C26.7245 29.4498 26.6005 29.1553 26.5969 28.8469C26.5969 28.6695 26.5998 28.2164 26.5998 28.2164C26.5998 28.2164 27.2932 27.6752 27.7592 27.6752C28.2251 27.6752 28.9216 28.2948 28.9216 28.2948V28.8469Z" fill="#371A45"/>
</g>
<path d="M27.7593 30.2377C27.3938 30.2372 27.0434 30.0907 26.785 29.8302C26.5265 29.5697 26.3812 29.2165 26.3807 28.8481C26.3807 28.6702 26.3836 28.2162 26.3836 28.2162V28.1103L26.4668 28.0452C26.5439 27.9851 27.234 27.4585 27.7587 27.4585C28.2908 27.4585 28.9857 28.0636 29.0644 28.1326L29.1375 28.1978V28.8479C29.1371 29.2163 28.9918 29.5695 28.7334 29.83C28.4751 30.0906 28.1247 30.2372 27.7593 30.2377ZM26.8154 28.3278C26.8146 28.4731 26.8132 28.726 26.8132 28.8481C26.8132 29.101 26.9129 29.3436 27.0903 29.5224C27.2677 29.7013 27.5084 29.8017 27.7593 29.8017C28.0102 29.8017 28.2508 29.7013 28.4283 29.5224C28.6057 29.3436 28.7054 29.101 28.7054 28.8481V28.3974C28.4439 28.1813 28.0132 27.8951 27.7593 27.8951C27.5054 27.8951 27.0781 28.1391 26.8154 28.3278Z" fill="#371A45"/>
<path d="M28.5814 29.1241C29.0353 28.6666 29.0353 27.9249 28.5814 27.4673C28.1276 27.0098 27.3917 27.0098 26.9378 27.4673C26.4839 27.9249 26.4839 28.6666 26.9378 29.1241C27.3917 29.5816 28.1276 29.5816 28.5814 29.1241Z" fill="#22A7F0"/>
<g opacity="0.5">
<path d="M28.9217 28.2959C28.9218 28.3644 28.9157 28.4328 28.9035 28.5003C28.8559 28.2292 28.7151 27.9838 28.5059 27.8069C28.2967 27.6301 28.0324 27.5331 27.7593 27.5331C27.4863 27.5331 27.2219 27.6301 27.0127 27.8069C26.8035 27.9838 26.6628 28.2292 26.6152 28.5003C26.6029 28.4328 26.5968 28.3644 26.5969 28.2959C26.5969 27.9851 26.7194 27.6871 26.9374 27.4674C27.1554 27.2476 27.451 27.1242 27.7593 27.1242C28.0676 27.1242 28.3633 27.2476 28.5813 27.4674C28.7992 27.6871 28.9217 27.9851 28.9217 28.2959Z" fill="white"/>
</g>
<g opacity="0.35">
<path d="M28.9211 28.2955C28.9211 28.6062 28.7987 28.9041 28.5807 29.1238C28.3628 29.3435 28.0672 29.4669 27.759 29.4669C27.4508 29.4669 27.1552 29.3435 26.9373 29.1238C26.7194 28.9041 26.5969 28.6062 26.5969 28.2955C26.5966 28.1503 26.6236 28.0064 26.6767 27.8715C26.7615 28.0914 26.9102 28.2803 27.1033 28.4135C27.2965 28.5467 27.5251 28.618 27.7591 28.618C27.9931 28.618 28.2217 28.5467 28.4148 28.4135C28.608 28.2803 28.7567 28.0914 28.8415 27.8715C28.8944 28.0065 28.9214 28.1504 28.9211 28.2955Z" fill="#371A45"/>
</g>
<path d="M27.7593 29.6854C27.4866 29.6854 27.2201 29.6039 26.9934 29.4512C26.7667 29.2985 26.59 29.0815 26.4857 28.8276C26.3813 28.5737 26.354 28.2943 26.4072 28.0247C26.4604 27.7552 26.5917 27.5076 26.7845 27.3133C26.9773 27.1189 27.2229 26.9866 27.4903 26.933C27.7578 26.8793 28.0349 26.9069 28.2868 27.012C28.5387 27.1172 28.754 27.2953 28.9055 27.5238C29.057 27.7523 29.1378 28.021 29.1378 28.2958C29.1374 28.6642 28.992 29.0174 28.7336 29.2779C28.4752 29.5384 28.1248 29.685 27.7593 29.6854ZM27.7593 27.3423C27.5722 27.3423 27.3892 27.3983 27.2336 27.5031C27.0781 27.6079 26.9568 27.7568 26.8852 27.9311C26.8136 28.1053 26.7949 28.2971 26.8314 28.4821C26.8679 28.6671 26.958 28.837 27.0904 28.9704C27.2227 29.1037 27.3913 29.1946 27.5748 29.2313C27.7583 29.2681 27.9486 29.2492 28.1214 29.177C28.2943 29.1048 28.4421 28.9825 28.546 28.8257C28.6499 28.6688 28.7054 28.4844 28.7054 28.2958C28.7051 28.043 28.6053 27.8006 28.4279 27.6219C28.2506 27.4431 28.0101 27.3426 27.7593 27.3423Z" fill="#371A45"/>
<path d="M33.0785 51.0843L26.4547 48.6318L20.6954 52.7423C19.5401 53.5669 17.9484 52.6979 18.0012 51.2728L18.2687 44.1647L12.6098 39.9123C11.475 39.0604 11.8035 37.2662 13.1646 36.8767L17.0134 35.777C17.0136 35.7766 17.014 35.7763 17.0144 35.7761C17.0148 35.7759 17.0152 35.7759 17.0157 35.7761L19.9546 34.9356L22.2172 28.1982C22.6697 26.8472 24.464 26.6065 25.2521 27.7913L29.1815 33.7007L36.2391 33.7877C37.6532 33.8052 38.4344 35.4502 37.5606 36.5716L33.1992 42.1648L34.9226 47.7395L35.299 48.9561C35.7184 50.3179 34.4086 51.5751 33.0785 51.0843Z" fill="#50429B"/>
<path d="M25.5659 46C25.427 46 25.3134 45.9474 25.225 45.8423C25.1366 45.7441 25.0924 45.6215 25.0924 45.4742V44.7592C24.7072 44.7312 24.3631 44.6646 24.06 44.5594C23.7633 44.4472 23.5076 44.3246 23.2929 44.1914C23.1477 44.1002 23.0561 43.9776 23.0182 43.8233C22.9866 43.6691 22.9961 43.5219 23.0466 43.3817C23.0971 43.2415 23.1824 43.1434 23.3023 43.0873C23.4223 43.0312 23.5644 43.0557 23.7285 43.1609C23.9053 43.273 24.1358 43.3817 24.4199 43.4869C24.7104 43.585 25.0577 43.6341 25.4618 43.6341C25.9353 43.6341 26.2763 43.5429 26.4846 43.3607C26.693 43.1714 26.7972 42.9366 26.7972 42.6562C26.7972 42.4248 26.7246 42.2355 26.5793 42.0883C26.4341 41.9411 26.1752 41.8219 25.8027 41.7308L24.7988 41.489C23.6559 41.2156 23.0845 40.5496 23.0845 39.4911C23.0845 38.9022 23.2645 38.408 23.6244 38.0084C23.9906 37.6018 24.4799 37.3565 25.0924 37.2723V36.5258C25.0924 36.3785 25.1366 36.2559 25.225 36.1577C25.3134 36.0526 25.427 36 25.5659 36C25.6985 36 25.809 36.0526 25.8974 36.1577C25.9921 36.2559 26.0395 36.3785 26.0395 36.5258V37.2618C26.292 37.2899 26.5572 37.3565 26.8351 37.4616C27.1192 37.5668 27.3654 37.7105 27.5738 37.8927C27.6938 37.9979 27.7632 38.1206 27.7822 38.2608C27.8011 38.394 27.779 38.5202 27.7159 38.6393C27.659 38.7515 27.5675 38.8286 27.4412 38.8707C27.3212 38.9057 27.1792 38.8707 27.015 38.7655C26.8319 38.6463 26.6267 38.5517 26.3994 38.4816C26.1721 38.4045 25.9006 38.3659 25.5849 38.3659C25.1808 38.3659 24.8619 38.4676 24.6283 38.6709C24.401 38.8672 24.2873 39.1265 24.2873 39.449C24.2873 39.6873 24.3568 39.8801 24.4957 40.0273C24.6346 40.1675 24.8714 40.2797 25.206 40.3638L26.2384 40.6162C26.8445 40.7634 27.2897 40.9982 27.5738 41.3207C27.8579 41.6362 28 42.0533 28 42.572C28 43.1609 27.8169 43.6446 27.4507 44.0231C27.0908 44.3947 26.6204 44.6295 26.0395 44.7277V45.4742C26.0395 45.6215 25.9953 45.7441 25.9069 45.8423C25.8185 45.9474 25.7048 46 25.5659 46Z" fill="white"/>
<g opacity="0.7">
<path d="M13.3219 37.6997L17.1707 36.5999C17.1708 36.5997 17.1709 36.5995 17.1711 36.5993C17.1712 36.5992 17.1714 36.599 17.1716 36.599C17.1719 36.5989 17.1721 36.5989 17.1723 36.5989C17.1725 36.5989 17.1727 36.599 17.1729 36.5991L20.1119 35.7586L22.3745 29.0214C22.8269 27.6702 24.6213 27.4296 25.4094 28.6143L29.3388 34.5237L36.3964 34.6107C37.1126 34.6196 37.6659 35.0462 37.9245 35.6105C37.9741 34.694 37.2778 33.8028 36.2391 33.7901L29.1815 33.7031L25.2516 27.7932C24.4635 26.6084 22.6692 26.8491 22.2167 28.2001L19.9541 34.9375L17.0151 35.778C17.0147 35.7778 17.0143 35.7778 17.0138 35.778C17.0134 35.7782 17.0131 35.7785 17.0129 35.7789L13.1641 36.8786C12.0914 37.1856 11.6608 38.3651 12.0818 39.2682C12.1194 38.5793 12.5578 37.9182 13.3219 37.6997Z" fill="white"/>
<path d="M35.0798 48.5628L35.3769 49.5228C35.3816 49.3317 35.355 49.1411 35.2983 48.9586L34.9218 47.7421L33.4248 42.8994L33.3558 42.9881L35.0798 48.5628Z" fill="white"/>
<path d="M18.4261 44.9882L18.243 44.8507L18.0015 51.2757C17.99 51.5503 18.0443 51.8237 18.1598 52.0727L18.4261 44.9882Z" fill="white"/>
</g>
<g opacity="0.35">
<path d="M36.2394 33.7866L36.1318 33.7849C36.7664 34.6416 36.9174 35.2775 35.5931 36.8166C34.6195 37.9477 33.112 39.7079 32.085 40.908C31.7534 41.2949 31.5275 41.7723 31.4319 42.2879C31.3364 42.8034 31.3749 43.3372 31.5432 43.8309C32.2117 45.7901 32.8554 48.938 32.4517 49.5515C31.8539 50.46 25.8515 46.7632 25.8515 46.7632C25.8515 46.7632 20.6038 51.6049 19.8578 50.8333C19.3656 50.3243 19.4164 47.2416 19.7258 45.178C19.8083 44.6271 19.7389 44.0623 19.5263 43.5531C19.3137 43.0439 18.9671 42.6124 18.5291 42.3117C17.2406 41.4266 15.4214 40.1426 14.3173 39.2126C13.5659 38.5787 13.2086 37.6838 13.4874 36.9775L13.1661 37.0761C11.8046 37.4902 11.4758 39.4012 12.6113 40.3075L18.27 44.835L18.0026 52.4014C18.0009 52.4488 18.0009 52.4956 18.0026 52.5419C18.0012 52.4956 18.0012 52.4487 18.0026 52.4014L18.0111 52.1603C18.3584 53.2576 19.6416 53.7992 20.6164 53.0593L26.3741 48.6824L32.9986 51.294C34.0661 51.7128 35.119 50.9334 35.2769 49.8602L35.2988 49.9352L34.9231 48.6402L33.1994 42.7054L37.561 36.7511C38.4349 35.5573 37.6532 33.8048 36.2394 33.7866Z" fill="#371A45"/>
</g>
<path d="M19.7099 53.3998C19.4349 53.3993 19.1629 53.343 18.91 53.2343C18.6571 53.1256 18.4286 52.9667 18.2379 52.7671C18.0472 52.5674 17.8984 52.3311 17.8002 52.0723C17.702 51.8134 17.6566 51.5373 17.6665 51.2604L17.9264 44.3295L12.4095 40.1844C12.1039 39.9548 11.8681 39.6435 11.7288 39.2858C11.5894 38.9281 11.5522 38.5382 11.6212 38.1603C11.6903 37.7824 11.8628 37.4315 12.1194 37.1473C12.376 36.863 12.7063 36.6568 13.0731 36.552L19.6926 34.6593L21.8987 28.0896C22.021 27.7257 22.2418 27.4034 22.5362 27.1593C22.8307 26.9152 23.187 26.7591 23.5649 26.7085C23.9428 26.6578 24.3272 26.7148 24.6747 26.8729C25.0222 27.031 25.3188 27.284 25.5311 27.6031L29.3623 33.3644L36.2426 33.4491C36.6238 33.4537 36.9961 33.5658 37.3174 33.7727C37.6387 33.9795 37.8962 34.2728 38.0607 34.6195C38.2253 34.9661 38.2903 35.3522 38.2485 35.7342C38.2067 36.1161 38.0597 36.4787 37.8241 36.7808L33.5722 42.2341L35.6186 48.8561C35.732 49.223 35.7413 49.6145 35.6454 49.9865C35.5496 50.3584 35.3524 50.6959 35.0761 50.9607C34.7999 51.2256 34.4557 51.4073 34.0824 51.4852C33.7091 51.5632 33.3216 51.5343 32.9637 51.4018L26.5044 49.0115L20.8883 53.0194C20.5441 53.2663 20.1323 53.3993 19.7099 53.3998ZM23.8447 27.3664C23.7807 27.3664 23.7167 27.3707 23.6533 27.3792C23.1239 27.4501 22.7058 27.7968 22.5346 28.3066L20.2155 35.2132L13.2562 37.2029C12.7424 37.3499 12.3781 37.7535 12.2809 38.283C12.1836 38.8125 12.382 39.3202 12.8101 39.6419L18.6099 43.9995L18.3368 51.2859C18.3165 51.8238 18.5849 52.2977 19.0543 52.5545C19.5238 52.8112 20.0646 52.7782 20.5004 52.4671L26.4039 48.2535L33.1942 50.767C33.6956 50.9527 34.2257 50.8419 34.6127 50.471C34.9997 50.1001 35.1356 49.5717 34.9769 49.0578L32.8258 42.0965L37.2955 36.3636C37.6259 35.9404 37.6849 35.3979 37.4546 34.9124C37.2243 34.4268 36.7677 34.133 36.2338 34.1265L29.0007 34.0374L24.9734 27.9807C24.7123 27.5874 24.2998 27.3664 23.8447 27.3664Z" fill="#371A45"/>
</svg>
