<svg width="26" height="24" viewBox="0 0 26 24" fill="none" xmlns="http://www.w3.org/2000/svg">
<g clip-path="url(#clip0_4946_12775)">
<path fill-rule="evenodd" clip-rule="evenodd" d="M6.06946 16.3072C6.81117 16.3072 7.53622 16.5331 8.15292 16.9564C8.76963 17.3797 9.2503 17.9814 9.53414 18.6853C9.81797 19.3892 9.89224 20.1638 9.74754 20.9111C9.60284 21.6583 9.24567 22.3448 8.72121 22.8835C8.19674 23.4223 7.52853 23.7892 6.80107 23.9378C6.07362 24.0865 5.31959 24.0102 4.63434 23.7186C3.9491 23.427 3.3634 22.9333 2.95133 22.2998C2.53926 21.6662 2.31932 20.9214 2.31932 20.1595C2.31932 19.1378 2.71442 18.158 3.41771 17.4355C4.121 16.7131 5.07486 16.3072 6.06946 16.3072ZM6.06946 17.2955C5.51905 17.2955 4.981 17.4632 4.52339 17.7773C4.06578 18.0915 3.70916 18.5381 3.49866 19.0605C3.28816 19.5829 3.23323 20.1578 3.34082 20.7123C3.44841 21.2668 3.71369 21.776 4.10309 22.1756C4.49249 22.5752 4.98852 22.8472 5.52843 22.9572C6.06833 23.0671 6.62785 23.0101 7.13621 22.7933C7.64456 22.5765 8.07889 22.2097 8.38427 21.7393C8.68965 21.2689 8.85234 20.716 8.85177 20.1506C8.85177 19.3926 8.55864 18.6656 8.03685 18.1296C7.51507 17.5936 6.80738 17.2925 6.06946 17.2925" fill="#000044"/>
<path fill-rule="evenodd" clip-rule="evenodd" d="M6.06946 17.2955C6.61987 17.2955 7.15791 17.4632 7.61553 17.7773C8.07314 18.0915 8.42975 18.5381 8.64025 19.0605C8.85076 19.5829 8.90569 20.1578 8.7981 20.7123C8.69051 21.2668 8.42523 21.776 8.03583 22.1756C7.64642 22.5752 7.15039 22.8472 6.61049 22.9572C6.07058 23.0671 5.51106 23.0101 5.00271 22.7933C4.49436 22.5765 4.06002 22.2097 3.75464 21.7393C3.44927 21.2689 3.28657 20.716 3.28714 20.1506C3.28714 19.3926 3.58028 18.6656 4.10206 18.1296C4.62385 17.5936 5.33154 17.2925 6.06946 17.2925M6.06946 18.3697C5.72713 18.3697 5.39249 18.4739 5.10786 18.6693C4.82322 18.8647 4.60138 19.1424 4.47037 19.4673C4.33937 19.7921 4.3051 20.1496 4.37188 20.4945C4.43866 20.8394 4.60351 21.1562 4.84557 21.4049C5.08763 21.6536 5.39604 21.8229 5.73179 21.8915C6.06754 21.9601 6.41555 21.9249 6.73182 21.7903C7.04809 21.6557 7.31841 21.4279 7.50859 21.1355C7.69878 20.8431 7.80029 20.4993 7.80029 20.1477C7.80029 19.6761 7.61793 19.2239 7.29334 18.8904C6.96875 18.557 6.5285 18.3697 6.06946 18.3697Z" fill="#A9C2C2"/>
<path d="M6.06945 22.1761C5.68018 22.1761 5.29964 22.0575 4.97593 21.8354C4.65222 21.6133 4.39987 21.2976 4.25077 20.9282C4.10167 20.5589 4.06252 20.1524 4.13825 19.7601C4.21398 19.3679 4.40121 19.0075 4.67627 18.7245C4.95132 18.4416 5.30186 18.2487 5.68359 18.1703C6.06531 18.092 6.46109 18.1316 6.82089 18.2842C7.1807 18.4368 7.48838 18.6956 7.70507 19.0278C7.92175 19.36 8.0377 19.7508 8.03827 20.1506C8.03827 20.687 7.83084 21.2014 7.46162 21.5807C7.09239 21.96 6.59162 22.1731 6.06945 22.1731M6.06945 17.5325C5.56538 17.5325 5.07262 17.6861 4.6535 17.9738C4.23437 18.2614 3.90771 18.6703 3.7148 19.1487C3.5219 19.6271 3.47143 20.1535 3.56977 20.6614C3.66811 21.1693 3.91085 21.6358 4.26728 22.0019C4.62372 22.3681 5.07784 22.6174 5.57223 22.7184C6.06662 22.8194 6.57907 22.7676 7.04478 22.5694C7.51048 22.3713 7.90853 22.0357 8.18858 21.6052C8.46863 21.1746 8.6181 20.6684 8.6181 20.1506C8.6181 19.4563 8.34959 18.7903 7.87162 18.2994C7.39366 17.8084 6.7454 17.5325 6.06945 17.5325Z" fill="#7E9191"/>
<path fill-rule="evenodd" clip-rule="evenodd" d="M5.7305 19.5194C5.7763 19.4939 5.82466 19.4735 5.87474 19.4587L5.96705 18.2126H6.1733L6.26706 19.4587C6.31702 19.4739 6.36535 19.4942 6.41129 19.5194L7.33585 18.7075L7.40797 18.7816L7.48153 18.8571L6.68967 19.8054C6.71424 19.8526 6.73405 19.9022 6.74881 19.9536L7.96183 20.0499V20.2618L6.74881 20.3566C6.73423 20.408 6.71441 20.4576 6.68967 20.5048L7.48153 21.453L7.40797 21.5286L7.33585 21.6027L6.41129 20.7892C6.36564 20.8151 6.31725 20.8355 6.26706 20.85L6.1733 22.0961H5.9656L5.87329 20.85C5.82301 20.8358 5.77459 20.8154 5.72906 20.7892L4.8045 21.6027L4.73239 21.5286L4.65883 21.453L5.45068 20.5048C5.42595 20.4576 5.40612 20.408 5.39154 20.3566L4.18285 20.2603V20.0484L5.39587 19.9521C5.41063 19.9008 5.43044 19.8511 5.45501 19.8039L4.66315 18.8557L4.73671 18.7801L4.80883 18.706L5.7305 19.5194Z" fill="#A9C2C2"/>
<path fill-rule="evenodd" clip-rule="evenodd" d="M22.2556 21.0218C22.4227 21.0216 22.586 20.9704 22.7248 20.8748C22.8636 20.7792 22.9717 20.6435 23.0355 20.4848C23.0992 20.3262 23.1158 20.1516 23.083 19.9833C23.0502 19.815 22.9696 19.6604 22.8513 19.5391C22.7331 19.4178 22.5825 19.3353 22.4186 19.3019C22.2546 19.2685 22.0848 19.2858 21.9304 19.3516C21.776 19.4173 21.6441 19.5286 21.5513 19.6714C21.4585 19.8141 21.409 19.9819 21.409 20.1536C21.4093 20.384 21.4987 20.6048 21.6575 20.7676C21.8162 20.9304 22.0313 21.0219 22.2556 21.0218Z" fill="#A9C2C2"/>
<path fill-rule="evenodd" clip-rule="evenodd" d="M22.8528 19.5402C22.9709 19.6616 23.0514 19.8163 23.0839 19.9848C23.1165 20.1532 23.0997 20.3277 23.0357 20.4863C22.9718 20.6449 22.8634 20.7805 22.7244 20.8759C22.5854 20.9713 22.4221 21.0222 22.2549 21.0222C22.0878 21.0222 21.9244 20.9713 21.7854 20.8759C21.6464 20.7805 21.5381 20.6449 21.4741 20.4863C21.4101 20.3277 21.3933 20.1532 21.4259 19.9848C21.4585 19.8163 21.5389 19.6616 21.657 19.5402C21.7355 19.4595 21.8287 19.3955 21.9313 19.3518C22.0339 19.3082 22.1439 19.2857 22.2549 19.2857C22.3659 19.2857 22.4759 19.3082 22.5785 19.3518C22.6811 19.3955 22.7743 19.4595 22.8528 19.5402Z" fill="#A9C2C2"/>
<path fill-rule="evenodd" clip-rule="evenodd" d="M23.1008 20.1506C23.1008 20.3224 23.0513 20.4902 22.9584 20.633C22.8655 20.7758 22.7335 20.8871 22.5791 20.9528C22.4246 21.0185 22.2547 21.0357 22.0907 21.0022C21.9268 20.9687 21.7762 20.886 21.658 20.7646C21.5398 20.6432 21.4593 20.4884 21.4266 20.32C21.394 20.1516 21.4108 19.977 21.4747 19.8184C21.5387 19.6597 21.647 19.5241 21.786 19.4287C21.925 19.3333 22.0885 19.2824 22.2556 19.2824C22.4798 19.2824 22.6948 19.3739 22.8533 19.5367C23.0118 19.6995 23.1008 19.9204 23.1008 20.1506Z" fill="#A9C2C2"/>
<path fill-rule="evenodd" clip-rule="evenodd" d="M22.8528 20.7685C22.7345 20.8898 22.5839 20.9725 22.42 21.0059C22.2561 21.0394 22.0861 21.0222 21.9317 20.9564C21.7773 20.8907 21.6453 20.7794 21.5525 20.6366C21.4596 20.4939 21.4101 20.326 21.4101 20.1543C21.4101 19.9826 21.4596 19.8148 21.5525 19.672C21.6453 19.5292 21.7773 19.418 21.9317 19.3522C22.0861 19.2865 22.2561 19.2693 22.42 19.3027C22.5839 19.3362 22.7345 19.4188 22.8528 19.5402C22.9313 19.6208 22.9936 19.7166 23.0361 19.8219C23.0786 19.9273 23.1005 20.0403 23.1005 20.1543C23.1005 20.2684 23.0786 20.3813 23.0361 20.4867C22.9936 20.5921 22.9313 20.6878 22.8528 20.7685Z" fill="#A9C2C2"/>
<path fill-rule="evenodd" clip-rule="evenodd" d="M22.2556 21.0219C22.0885 21.0219 21.925 20.9709 21.786 20.8755C21.647 20.7801 21.5387 20.6445 21.4747 20.4859C21.4108 20.3272 21.394 20.1526 21.4266 19.9842C21.4593 19.8158 21.5398 19.6611 21.658 19.5396C21.7762 19.4182 21.9268 19.3355 22.0907 19.302C22.2547 19.2685 22.4246 19.2857 22.5791 19.3514C22.7335 19.4171 22.8655 19.5284 22.9584 19.6712C23.0513 19.814 23.1008 19.9819 23.1008 20.1536C23.1008 20.2676 23.079 20.3805 23.0365 20.4859C22.994 20.5912 22.9318 20.6869 22.8533 20.7675C22.7748 20.8482 22.6816 20.9121 22.5791 20.9558C22.4765 20.9994 22.3666 21.0219 22.2556 21.0219Z" fill="#A9C2C2"/>
<path fill-rule="evenodd" clip-rule="evenodd" d="M21.657 20.7685C21.5389 20.647 21.4585 20.4923 21.4259 20.3239C21.3933 20.1555 21.4101 19.981 21.4741 19.8223C21.5381 19.6637 21.6464 19.5282 21.7854 19.4328C21.9244 19.3374 22.0878 19.2865 22.2549 19.2865C22.4221 19.2865 22.5854 19.3374 22.7244 19.4328C22.8634 19.5282 22.9718 19.6637 23.0357 19.8223C23.0997 19.981 23.1165 20.1555 23.0839 20.3239C23.0514 20.4923 22.9709 20.647 22.8528 20.7685C22.7743 20.8492 22.6811 20.9132 22.5785 20.9568C22.4759 21.0005 22.3659 21.023 22.2549 21.023C22.1439 21.023 22.0339 21.0005 21.9313 20.9568C21.8287 20.9132 21.7355 20.8492 21.657 20.7685Z" fill="#A9C2C2"/>
<path fill-rule="evenodd" clip-rule="evenodd" d="M21.409 20.1506C21.4087 19.9785 21.4581 19.8102 21.551 19.667C21.6438 19.5238 21.7759 19.4121 21.9306 19.346C22.0853 19.28 22.2556 19.2625 22.4199 19.2959C22.5843 19.3293 22.7353 19.412 22.8538 19.5336C22.9724 19.6552 23.0531 19.8102 23.0859 19.9789C23.1187 20.1477 23.102 20.3226 23.038 20.4816C22.9739 20.6406 22.8654 20.7766 22.7262 20.8722C22.5869 20.9678 22.4232 21.0189 22.2556 21.0189C22.1445 21.0191 22.0345 20.9968 21.9317 20.9532C21.829 20.9097 21.7357 20.8457 21.657 20.7651C21.5784 20.6845 21.516 20.5887 21.4734 20.4832C21.4309 20.3778 21.409 20.2648 21.409 20.1506Z" fill="#A9C2C2"/>
<path fill-rule="evenodd" clip-rule="evenodd" d="M22.2556 16.3072C22.9973 16.3072 23.7224 16.5331 24.3391 16.9564C24.9558 17.3797 25.4365 17.9814 25.7203 18.6853C26.0041 19.3892 26.0784 20.1638 25.9337 20.9111C25.789 21.6583 25.4318 22.3448 24.9074 22.8835C24.3829 23.4223 23.7147 23.7892 22.9872 23.9378C22.2598 24.0865 21.5058 24.0102 20.8205 23.7186C20.1353 23.427 19.5496 22.9333 19.1375 22.2998C18.7254 21.6662 18.5055 20.9214 18.5055 20.1595C18.5055 19.1378 18.9006 18.158 19.6039 17.4355C20.3072 16.7131 21.261 16.3072 22.2556 16.3072ZM22.2556 17.2955C21.7052 17.2955 21.1672 17.4632 20.7096 17.7773C20.2519 18.0915 19.8953 18.5381 19.6848 19.0605C19.4743 19.5829 19.4194 20.1578 19.527 20.7123C19.6346 21.2668 19.8999 21.776 20.2893 22.1756C20.6787 22.5752 21.1747 22.8472 21.7146 22.9572C22.2545 23.0671 22.814 23.0101 23.3224 22.7933C23.8307 22.5765 24.2651 22.2097 24.5704 21.7393C24.8758 21.2689 25.0385 20.716 25.0379 20.1506C25.0379 19.3926 24.7448 18.6656 24.223 18.1296C23.7012 17.5936 22.9935 17.2925 22.2556 17.2925" fill="#000044"/>
<path fill-rule="evenodd" clip-rule="evenodd" d="M22.2556 17.2955C22.806 17.2958 23.3439 17.4637 23.8013 17.7781C24.2587 18.0924 24.6151 18.5391 24.8254 19.0615C25.0357 19.584 25.0904 20.1588 24.9827 20.7132C24.8749 21.2676 24.6095 21.7767 24.2201 22.1762C23.8306 22.5756 23.3346 22.8474 22.7947 22.9573C22.2548 23.0671 21.6954 23.01 21.1871 22.7932C20.6788 22.5763 20.2446 22.2095 19.9393 21.7392C19.634 21.2688 19.4713 20.716 19.4719 20.1506C19.4719 19.3926 19.765 18.6656 20.2868 18.1296C20.8086 17.5936 21.5163 17.2925 22.2542 17.2925M22.2542 18.3697C21.9119 18.3697 21.5772 18.4739 21.2926 18.6693C21.008 18.8647 20.7861 19.1424 20.6551 19.4673C20.5241 19.7921 20.4898 20.1496 20.5566 20.4945C20.6234 20.8394 20.7882 21.1562 21.0303 21.4049C21.2724 21.6536 21.5808 21.8229 21.9165 21.8915C22.2523 21.9601 22.6003 21.9249 22.9166 21.7903C23.2328 21.6557 23.5031 21.4279 23.6933 21.1355C23.8835 20.8431 23.985 20.4993 23.985 20.1477C23.985 19.6761 23.8027 19.2239 23.4781 18.8904C23.1535 18.557 22.7132 18.3697 22.2542 18.3697Z" fill="#A9C2C2"/>
<path d="M22.2556 22.1761C21.8663 22.1764 21.4856 22.0581 21.1617 21.8361C20.8378 21.6142 20.5852 21.2986 20.4359 20.9293C20.2866 20.5599 20.2472 20.1534 20.3228 19.761C20.3984 19.3687 20.5855 19.0082 20.8605 18.7251C21.1355 18.442 21.486 18.2489 21.8678 18.1705C22.2496 18.092 22.6454 18.1315 23.0053 18.2841C23.3652 18.4367 23.673 18.6954 23.8897 19.0277C24.1065 19.3599 24.2224 19.7507 24.223 20.1506C24.223 20.6868 24.0158 21.201 23.6469 21.5802C23.278 21.9595 22.7775 22.1727 22.2556 22.1731M22.2556 17.5325C21.7517 17.5334 21.2594 17.6877 20.8409 17.9759C20.4223 18.2641 20.0963 18.6733 19.9041 19.1518C19.7118 19.6303 19.662 20.1565 19.7608 20.6641C19.8596 21.1717 20.1027 21.6378 20.4593 22.0035C20.8159 22.3692 21.2701 22.6181 21.7643 22.7187C22.2586 22.8194 22.7708 22.7673 23.2363 22.569C23.7017 22.3707 24.0995 22.0352 24.3794 21.6047C24.6592 21.1743 24.8086 20.6683 24.8086 20.1506C24.8086 19.4563 24.5401 18.7903 24.0621 18.2994C23.5842 17.8084 22.9359 17.5325 22.26 17.5325" fill="#7E9191"/>
<path fill-rule="evenodd" clip-rule="evenodd" d="M21.9152 19.5194C21.9611 19.494 22.0094 19.4737 22.0595 19.4587L22.1518 18.2126H22.3566L22.4504 19.4587C22.5003 19.4739 22.5486 19.4942 22.5946 19.5194L23.5177 18.7075L23.5913 18.7816L23.6634 18.8571L22.873 19.8054C22.8975 19.8526 22.9173 19.9022 22.9321 19.9536L24.1451 20.0499V20.2618L22.9321 20.3566C22.9175 20.408 22.8977 20.4576 22.873 20.5048L23.6634 21.453L23.5913 21.5286L23.5177 21.6027L22.5946 20.7892C22.5489 20.8151 22.5005 20.8355 22.4504 20.85L22.3566 22.0961H22.1503L22.058 20.85C22.0078 20.8356 21.9594 20.8153 21.9138 20.7892L20.9907 21.6027L20.9171 21.5286L20.845 21.453L21.6369 20.5048C21.6115 20.4579 21.5917 20.4082 21.5777 20.3566L20.3647 20.2618V20.0499L21.5777 19.9536C21.5918 19.902 21.6117 19.8523 21.6369 19.8054L20.845 18.8571L20.9171 18.7816L20.9907 18.7075L21.9152 19.5194Z" fill="#A9C2C2"/>
<path fill-rule="evenodd" clip-rule="evenodd" d="M19.0579 15.2952L19.7373 14.8922L22.5672 20.0025C22.6739 20.1936 22.5758 20.3951 22.423 20.5522C22.2701 20.7092 21.9902 20.5966 21.8878 20.404L19.0579 15.2952Z" fill="black"/>
<path fill-rule="evenodd" clip-rule="evenodd" d="M22.2556 15.2359C22.6795 15.2369 23.1014 15.2952 23.5105 15.4093C23.5691 15.4252 23.6226 15.4568 23.6655 15.5008C23.7084 15.5448 23.7392 15.5997 23.7548 15.6599C23.7703 15.7202 23.77 15.7835 23.754 15.8436C23.7379 15.9037 23.7067 15.9583 23.6634 16.002L18.204 21.6101C18.1616 21.6545 18.1084 21.6866 18.0499 21.7031C17.9914 21.7196 17.9297 21.7199 17.8711 21.7039C17.8125 21.688 17.759 21.6564 17.7161 21.6123C17.6733 21.5682 17.6426 21.5132 17.6271 21.453C17.4345 20.7237 17.4079 19.9587 17.5493 19.2172C17.6908 18.4757 17.9965 17.7776 18.4427 17.1769C18.889 16.5762 19.4638 16.0891 20.1228 15.7533C20.7817 15.4175 21.5071 15.242 22.2426 15.2404L22.2556 15.2359Z" fill="#463796"/>
<path fill-rule="evenodd" clip-rule="evenodd" d="M5.92667 14.2758L13.3534 14.1632C11.9514 16.9932 11.8894 19.0379 13.3534 20.7448H9.9523L9.71142 20.5003H1.51304C1.41399 20.5001 1.31611 20.4782 1.22594 20.4361C1.13577 20.394 1.05538 20.3326 0.990131 20.2561C0.924884 20.1795 0.87628 20.0895 0.847563 19.9921C0.818845 19.8948 0.810674 19.7922 0.823594 19.6913C1.19717 16.8184 2.90636 14.6848 5.62521 14.5366C5.9483 14.5203 5.98725 14.3499 5.92667 14.2758Z" fill="#463796"/>
<path fill-rule="evenodd" clip-rule="evenodd" d="M12.2255 20.3595H12.6019C11.4596 18.5327 11.8735 16.5072 12.7461 14.5573H12.4577C12.3329 14.5564 12.2107 14.5946 12.1076 14.6669C12.0045 14.7392 11.9254 14.8421 11.8807 14.9618C11.2317 16.6495 10.9706 18.3697 11.6485 19.9699C11.6951 20.0871 11.7752 20.187 11.8782 20.2566C11.9811 20.3262 12.1022 20.3621 12.2255 20.3595Z" fill="#371A45"/>
<path fill-rule="evenodd" clip-rule="evenodd" d="M9.88018 20.5744H13.1976C14.252 20.5744 15.6669 20.7226 16.329 19.6009L19.2353 14.6448C19.6046 14.0136 19.6089 13.532 19.4084 12.6742L18.7449 9.83084C18.6858 9.57748 18.6584 9.38634 18.8892 9.38634H19.1949C19.3349 9.38521 19.4711 9.43299 19.5812 9.52183C19.6913 9.61067 19.7687 9.73531 19.8007 9.87529L20.3878 12.36C20.5075 12.8623 20.9099 14.5233 20.6532 14.9663L17.0963 21.0945H9.80806C9.84133 20.9226 9.86541 20.749 9.88018 20.5744Z" fill="#371A45"/>
<path d="M17.017 21.0455H9.75325C9.70466 21.0455 9.66527 21.086 9.66527 21.1359V21.4693C9.66527 21.5192 9.70466 21.5597 9.75325 21.5597H17.017C17.0656 21.5597 17.105 21.5192 17.105 21.4693V21.1359C17.105 21.086 17.0656 21.0455 17.017 21.0455Z" fill="#463796"/>
<path fill-rule="evenodd" clip-rule="evenodd" d="M6.05792 15.073C7.33671 15.073 8.57209 15.5495 9.53491 16.414C10.4977 17.2785 11.1226 18.4725 11.2937 19.7743C11.3054 19.8647 11.2982 19.9567 11.2725 20.044C11.2469 20.1314 11.2034 20.2121 11.145 20.2808C11.0865 20.3495 11.0145 20.4046 10.9337 20.4425C10.8529 20.4803 10.7652 20.5 10.6764 20.5003H1.44236C1.35355 20.5 1.26582 20.4803 1.18501 20.4425C1.10421 20.4046 1.03219 20.3495 0.973765 20.2808C0.915341 20.2121 0.871854 20.1314 0.846207 20.044C0.820559 19.9567 0.813339 19.8647 0.825031 19.7743C0.996028 18.473 1.62051 17.2794 2.58272 16.415C3.54494 15.5505 4.77962 15.0737 6.05792 15.073Z" fill="#371A45"/>
<path fill-rule="evenodd" clip-rule="evenodd" d="M6.05792 15.5975C7.14367 15.5975 8.19256 16.002 9.01002 16.7361C9.82749 17.4701 10.358 18.4838 10.5033 19.5891C10.5148 19.6659 10.5094 19.7444 10.4874 19.8188C10.4655 19.8931 10.4275 19.9615 10.3764 20.0188C10.3635 20.0346 10.3495 20.0495 10.3345 20.0632C10.0461 19.1305 9.47622 18.3163 8.70736 17.7385C7.9385 17.1607 7.01057 16.8493 6.05792 16.8493C5.10528 16.8493 4.17735 17.1607 3.40849 17.7385C2.63963 18.3163 2.06974 19.1305 1.78132 20.0632C1.76631 20.0495 1.75233 20.0346 1.73949 20.0188C1.68834 19.9615 1.65038 19.8931 1.62841 19.8188C1.60644 19.7444 1.60103 19.6659 1.61257 19.5891C1.7578 18.4838 2.28836 17.4701 3.10582 16.7361C3.92329 16.002 4.97218 15.5975 6.05792 15.5975Z" fill="#463796"/>
<path d="M13.3837 12.8668H5.79396C5.70315 12.8668 5.62953 12.9424 5.62953 13.0357V14.1069C5.62953 14.2002 5.70315 14.2758 5.79396 14.2758H13.3837C13.4745 14.2758 13.5481 14.2002 13.5481 14.1069V13.0357C13.5481 12.9424 13.4745 12.8668 13.3837 12.8668Z" fill="black"/>
<path d="M9.0537 4.33238H0.308665C0.138194 4.33238 0 4.47434 0 4.64946V12.5319C0 12.707 0.138194 12.849 0.308665 12.849H9.0537C9.22417 12.849 9.36237 12.707 9.36237 12.5319V4.64946C9.36237 4.47434 9.22417 4.33238 9.0537 4.33238Z" fill="#371A45"/>
<path fill-rule="evenodd" clip-rule="evenodd" d="M0.810609 4.81985H8.55176C8.62433 4.82024 8.69381 4.85003 8.74512 4.90274C8.79644 4.95545 8.82543 5.02683 8.82581 5.10137V8.00099C6.05792 9.14928 2.47509 6.46598 0.53656 10.2427V5.10137C0.536939 5.02683 0.565934 4.95545 0.617246 4.90274C0.668558 4.85003 0.738043 4.82024 0.810609 4.81985Z" fill="#463796"/>
<path fill-rule="evenodd" clip-rule="evenodd" d="M20.9142 10.4442C21.1032 10.4265 21.2907 10.8295 21.3325 11.3421C21.3743 11.8548 21.2561 12.283 21.0671 12.2993C20.8782 12.3156 20.6907 11.9126 20.6474 11.4014C20.6041 10.8902 20.7282 10.4605 20.9142 10.4442Z" fill="#F1CF00"/>
<path fill-rule="evenodd" clip-rule="evenodd" d="M20.8407 10.3213C20.8574 10.3183 20.8746 10.319 20.8911 10.3231C20.9076 10.3273 20.923 10.3349 20.9366 10.3454C20.9501 10.356 20.9614 10.3693 20.9697 10.3845C20.978 10.3997 20.9832 10.4165 20.9849 10.4339L21.1897 12.2726C21.1922 12.2898 21.1912 12.3072 21.187 12.324C21.1828 12.3408 21.1754 12.3565 21.1652 12.3703C21.155 12.3841 21.1422 12.3957 21.1276 12.4044C21.113 12.413 21.0968 12.4186 21.0801 12.4208C20.4426 12.4964 19.8743 12.0874 19.8108 11.5096C19.7474 10.9317 20.2046 10.3954 20.8407 10.3213Z" fill="#463796"/>
<path fill-rule="evenodd" clip-rule="evenodd" d="M20.6402 10.3613L20.9013 12.4238C20.9591 12.4252 21.0169 12.4222 21.0743 12.4149C21.0911 12.4127 21.1072 12.4071 21.1218 12.3984C21.1364 12.3898 21.1492 12.3782 21.1594 12.3644C21.1696 12.3506 21.1771 12.3349 21.1813 12.3181C21.1855 12.3013 21.1864 12.2838 21.184 12.2667L20.9792 10.428C20.9774 10.4106 20.9722 10.3938 20.9639 10.3786C20.9556 10.3634 20.9443 10.3501 20.9308 10.3395C20.9173 10.329 20.9018 10.3214 20.8853 10.3172C20.8688 10.313 20.8517 10.3124 20.8349 10.3153C20.7689 10.3254 20.7038 10.3407 20.6402 10.3613Z" fill="#9DC6C6"/>
<path d="M17.5233 9.33745L17.4874 9.48095C17.4689 9.55466 17.5122 9.62976 17.5839 9.6487L18.9613 10.0123C19.0331 10.0312 19.1062 9.9868 19.1246 9.9131L19.1605 9.76959C19.179 9.69588 19.1358 9.62078 19.064 9.60184L17.6866 9.23828C17.6148 9.21934 17.5417 9.26374 17.5233 9.33745Z" fill="black"/>
<path d="M13.4053 19.5476C13.3426 19.6759 13.2942 19.8111 13.2611 19.9506C13.2431 20.0208 13.239 20.0939 13.2492 20.1657C13.2593 20.2375 13.2835 20.3065 13.3202 20.3684C13.4644 20.5966 13.7875 20.6025 14.0558 20.5848L14.4496 20.5596C14.6169 20.5477 14.813 20.5196 14.8967 20.3699C14.9804 20.2203 14.9198 20.0736 14.878 19.9254C14.7783 19.5893 14.7297 19.2395 14.7337 18.8883C14.7429 18.7849 14.7321 18.6806 14.702 18.5815C14.672 18.5161 14.6278 18.4586 14.5728 18.4134C14.5178 18.3682 14.4534 18.3365 14.3847 18.3208C14.0774 18.2348 13.8452 18.2422 13.7616 18.5445C13.6684 18.8879 13.5493 19.2233 13.4053 19.5476Z" fill="#191213"/>
<path d="M14.451 14.8581C14.5251 14.9296 14.581 15.0187 14.614 15.1174C14.6316 15.2126 14.6236 15.311 14.5909 15.4019C14.4741 15.8094 14.2145 16.1783 14.1914 16.602C14.1953 16.7297 14.1904 16.8574 14.177 16.9843C14.1425 17.1233 14.0849 17.2551 14.0068 17.374L13.7183 17.86C13.6509 17.9545 13.6122 18.0674 13.6072 18.1845C13.6202 18.4052 13.8539 18.5312 14.0573 18.6008C14.1741 18.6408 14.3227 18.6704 14.4092 18.5786C14.4412 18.538 14.4648 18.4911 14.4784 18.4408C14.8304 17.3641 15.1833 16.2879 15.5371 15.2122C15.6251 14.9426 15.7131 14.6462 15.6164 14.381C15.5083 14.0847 15.2126 13.9262 14.9385 13.7884L14.177 13.4046C13.9549 13.292 13.6534 13.1942 13.4904 13.3854C13.2625 13.6521 13.4904 13.8713 13.6678 14.0136C13.9621 14.2343 14.2087 14.587 14.451 14.8581Z" fill="#2E4C5E"/>
<path d="M13.9289 19.6439C13.8227 19.8653 13.7702 20.1098 13.776 20.3566C13.7775 20.4112 13.7973 20.4635 13.8322 20.5047C13.8666 20.5332 13.9072 20.5525 13.9505 20.561C14.6953 20.7641 15.4746 20.795 16.2323 20.6514C16.3436 20.6395 16.4501 20.5992 16.5424 20.5344C16.5868 20.5017 16.6201 20.4555 16.6374 20.4023C16.6548 20.3491 16.6554 20.2916 16.6391 20.238C16.5843 20.1091 16.4242 20.078 16.2871 20.0632C16.0425 20.0469 15.8034 19.9814 15.5833 19.8706C15.4743 19.8144 15.3813 19.7303 15.3131 19.6266C15.2449 19.5228 15.2038 19.4027 15.1938 19.2779C15.1938 19.0868 15.2732 18.8557 15.1333 18.7297C15.06 18.6781 14.9725 18.6521 14.8837 18.6556C14.5953 18.6364 14.4366 18.5712 14.2592 18.7919C14.102 18.9757 14.0183 19.4098 13.9289 19.6439Z" fill="#281B1C"/>
<path d="M10.1932 7.05864C9.56285 8.27657 9.24409 9.63081 8.93109 10.9747C8.89439 11.0914 8.88646 11.2156 8.90802 11.3362C8.92076 11.3957 8.95414 11.4483 9.00192 11.4843C9.04971 11.5203 9.10862 11.5372 9.16764 11.5318C9.16764 11.6459 9.16764 11.7614 9.16764 11.877C9.25279 11.9895 9.36078 12.0815 9.48408 12.1468C9.60738 12.212 9.74303 12.2489 9.88161 12.2548C10.1587 12.2659 10.4357 12.2344 10.7038 12.1615L12.4678 11.7792C12.588 11.7694 12.7012 11.717 12.788 11.6311C12.863 11.5347 12.8356 11.3525 12.7173 11.3347C13.1327 11.2577 13.3072 10.7554 13.4039 10.3331C13.5005 9.91085 13.5986 9.48264 13.7024 9.05296C13.8806 8.3853 13.9875 7.6997 14.0212 7.00827C14.0212 6.49561 13.9794 5.91183 14.3327 5.55031C14.4424 5.4377 14.5895 5.35028 14.6443 5.20063C14.7279 4.97246 14.5549 4.73539 14.3933 4.55463L13.7529 3.85232C13.7241 3.80962 13.68 3.78033 13.6303 3.77083C13.6015 3.77376 13.5737 3.7831 13.5488 3.7982C13.5239 3.81329 13.5025 3.83379 13.4861 3.85825C13.2381 4.14975 12.9302 4.38102 12.5846 4.53537C12.2317 4.71546 11.9026 4.94101 11.6052 5.20656C11.06 5.68662 10.4629 6.37115 10.1932 7.05864Z" fill="#50429B"/>
<path d="M11.3182 7.96987C11.2331 8.73292 11.4148 9.56858 11.9658 10.0872C12.3518 10.4248 12.832 10.6281 13.3375 10.668C13.8393 10.7057 14.3435 10.6893 14.8419 10.6191L14.9356 10.4428L15.2934 10.5717L15.4232 10.4116C15.447 10.4763 15.4929 10.5298 15.5525 10.562C15.612 10.5942 15.6809 10.6029 15.7463 10.5865C15.7862 10.2314 15.8867 9.8863 16.0434 9.5671C15.1347 9.38337 14.2145 9.19372 13.3837 8.77145C13.2608 8.68675 13.1118 8.6519 12.9654 8.67366C13.0753 8.05115 13.1049 7.41647 13.0534 6.78602C13.0288 6.48968 12.9798 6.17261 12.7923 5.94147C11.9125 4.85837 11.373 7.47054 11.3182 7.96987Z" fill="#50429B"/>
<path d="M13.101 6.39634C13.0834 6.2498 13.0455 6.1066 12.9885 5.9711C12.9236 5.83182 12.7808 5.70144 12.6394 5.74885C12.4663 5.80812 12.462 6.05407 12.4952 6.2378C12.5788 6.77515 12.6634 7.31349 12.749 7.85281C12.8096 8.23508 12.8702 8.63661 12.749 9.00258L12.9885 8.97888L13.0058 9.25002C13.6246 9.43538 14.2601 9.55649 14.9025 9.61155C14.8895 9.36856 14.5967 9.27225 14.3659 9.21743C14.0832 9.15571 13.8087 9.05971 13.5481 8.93146C13.2322 8.767 13.2726 8.70773 13.2683 8.3388C13.2611 7.68786 13.2051 7.03846 13.101 6.39634Z" fill="#371A45"/>
<path d="M14.0457 5.49993C14.1848 5.39818 14.3117 5.2798 14.4236 5.14729L14.0904 4.71909C14.0751 4.69594 14.0549 4.67669 14.0313 4.66279C14.0068 4.65313 13.98 4.65106 13.9544 4.65686C13.9288 4.66265 13.9053 4.67605 13.887 4.69538C13.84 4.74497 13.8086 4.808 13.7971 4.87621C13.7855 4.94442 13.7942 5.01463 13.8221 5.07765C13.8801 5.20276 13.9626 5.31423 14.0645 5.4051" fill="#371A45"/>
<path d="M12.7505 11.2443C12.6233 11.3316 12.4685 11.3655 12.3178 11.3392C12.2432 11.3422 12.1692 11.3253 12.1029 11.2903C12.0691 11.273 12.0433 11.2429 12.0309 11.2064C12.0185 11.1698 12.0205 11.1297 12.0365 11.0947C12.0592 11.067 12.0882 11.0454 12.1208 11.0317C12.1535 11.018 12.1889 11.0127 12.224 11.0162C12.3255 11.0169 12.4266 11.0024 12.524 10.9732C12.5727 10.9578 12.6169 10.9303 12.6527 10.8931C12.6884 10.8558 12.7146 10.81 12.7288 10.7598C12.7495 10.7509 12.7717 10.7465 12.7941 10.7469C12.8165 10.7473 12.8386 10.7525 12.8589 10.7621C12.8793 10.7717 12.8974 10.7855 12.9123 10.8028C12.9271 10.82 12.9383 10.8402 12.9452 10.8621C12.9565 10.9074 12.9562 10.955 12.9443 11.0001C12.9325 11.0453 12.9094 11.0866 12.8774 11.1199C12.8124 11.1857 12.7368 11.2394 12.6538 11.2784" fill="#371A45"/>
<path d="M9.922 13.0461C10.3143 13.2787 10.7773 13.3424 11.2201 13.3898L12.7216 13.5691C13.414 13.6506 14.1856 13.7765 14.6082 14.3455C14.6432 14.412 14.6991 14.4642 14.7669 14.4936C14.8457 14.4975 14.9241 14.4807 14.9948 14.4447C15.0698 14.421 15.178 14.4447 15.1852 14.5262C15.1454 14.5636 15.114 14.6096 15.0933 14.6608C15.0726 14.712 15.0631 14.7672 15.0655 14.8226L15.2357 14.7929C15.241 14.8652 15.2321 14.9379 15.2096 15.0067C15.1871 15.0754 15.1513 15.1387 15.1044 15.193C14.8664 15.577 14.7211 16.0139 14.6803 16.4672C14.6529 16.7887 14.6803 17.1325 14.5102 17.4066C14.4366 17.5311 14.3299 17.6333 14.2534 17.7563C14.1779 17.8779 14.1361 18.0183 14.1326 18.1626C14.1292 18.3068 14.1642 18.4492 14.2338 18.5745C14.3035 18.6997 14.4052 18.803 14.5278 18.8732C14.6505 18.9434 14.7895 18.9778 14.9299 18.9727C15.3712 18.9342 15.6684 18.503 15.8818 18.103C16.5525 16.8906 16.9879 15.5562 17.1641 14.1736C17.2026 13.9456 17.1937 13.7118 17.1381 13.4876C16.9852 12.9897 16.466 12.7305 15.9929 12.5378C15.1977 12.2119 14.3861 11.9195 13.5582 11.6607C13.336 11.585 13.1061 11.5353 12.8731 11.5125C12.6641 11.5064 12.455 11.5203 12.2485 11.554L9.86719 11.8696C9.49795 11.92 9.20082 11.8578 9.33208 12.323C9.43347 12.6315 9.64403 12.8896 9.922 13.0461Z" fill="#3D5E77"/>
<path d="M15.289 12.969C15.5297 13.0473 15.7538 13.1714 15.9496 13.335C16.3924 13.7647 16.3549 14.504 16.1645 15.0996C15.9742 15.6953 15.664 16.2702 15.6684 16.8969C15.7592 16.9799 15.8876 16.8554 15.9439 16.7487C16.3577 15.9424 16.6246 15.0652 16.7314 14.1603C16.7811 13.9241 16.7516 13.6777 16.6477 13.4609C16.5259 13.2949 16.3609 13.1675 16.1718 13.0935C15.2501 12.6312 14.0818 11.9822 13.0534 11.8681C13.0245 12.3378 14.8981 12.8164 15.289 12.969Z" fill="#4A6D82"/>
<path d="M16.5525 10.4561C16.6442 10.4619 16.7362 10.4564 16.8266 10.4398C17.167 10.3568 17.3588 9.9553 17.692 9.85603C17.7128 9.8503 17.7347 9.8503 17.7555 9.85603C17.7854 9.865 17.8117 9.88372 17.8305 9.90937C17.8794 9.97592 17.9355 10.0366 17.9978 10.0901C18.0287 10.1173 18.0664 10.1351 18.1066 10.1417C18.1469 10.1482 18.1881 10.1432 18.2257 10.1272C18.2434 10.1179 18.2588 10.1045 18.2706 10.0879C18.2823 10.0714 18.2902 10.0523 18.2934 10.0321C18.2966 10.0119 18.2952 9.99119 18.2892 9.97167C18.2832 9.95216 18.2728 9.93436 18.2588 9.91974C18.2757 9.9551 18.3055 9.98215 18.3417 9.99494C18.378 10.0077 18.4177 10.0052 18.4521 9.9879C18.4865 9.9706 18.5129 9.93997 18.5253 9.90274C18.5378 9.8655 18.5353 9.82472 18.5185 9.78935C18.5358 9.81759 18.5611 9.8397 18.591 9.85268C18.6209 9.86566 18.654 9.8689 18.6858 9.86195C18.7173 9.85391 18.7456 9.83633 18.7672 9.81149C18.7889 9.78665 18.8027 9.7557 18.8069 9.72268C18.8156 9.62489 18.7391 9.5434 18.6757 9.47079C18.5834 9.36411 18.5055 9.2441 18.4088 9.14186C18.3168 9.03229 18.1902 8.9594 18.0511 8.93591C17.9406 8.93001 17.8302 8.94976 17.7281 8.9937C17.493 9.07632 17.2656 9.18046 17.0487 9.30485C16.8803 9.41381 16.706 9.51275 16.5266 9.60118C16.3467 9.68767 16.1454 9.71559 15.9496 9.68119C15.8299 9.65304 15.6611 10.3139 15.7116 10.4072C15.7621 10.5006 15.977 10.4531 16.0665 10.4561H16.5525Z" fill="#EDB38C"/>
<path d="M17.2521 2.78108C17.3386 2.92924 17.5405 2.97665 17.6055 3.13075C17.4857 3.17935 17.3774 3.25366 17.2879 3.34872C17.1983 3.44377 17.1296 3.55738 17.0862 3.68193C16.9852 3.97826 17.0256 4.34127 16.8179 4.57093C16.6304 4.77688 16.3131 4.79021 16.0463 4.71909C15.7794 4.64797 15.5285 4.52203 15.2544 4.4924C15.0839 4.47563 14.9118 4.49848 14.751 4.55926C14.5902 4.62005 14.4448 4.71721 14.3255 4.84355C14.2707 4.9043 14.2058 4.97542 14.1279 4.9606C14.0746 4.94405 14.0296 4.90686 14.0024 4.85689L13.6087 4.31312C13.7982 4.09951 13.9013 3.81976 13.8971 3.5308C13.8971 3.31003 13.8265 3.09371 13.812 2.87294C13.7587 2.06543 14.438 1.34831 15.2025 1.15717C15.7996 1.009 16.8035 1.06975 17.3199 1.4535C17.8362 1.83726 16.9809 2.33213 17.2521 2.78108Z" fill="#EDB38C"/>
<path d="M16.7487 1.91727C16.7848 2.01358 16.6535 2.08618 16.5525 2.0847C16.3564 2.0847 16.1674 2.00617 15.9756 1.98839C15.7838 1.97061 15.5429 2.04469 15.4852 2.23583C15.4608 2.36868 15.4662 2.5055 15.5011 2.63588C15.5184 2.76923 15.4866 2.93221 15.3568 2.98407C15.2486 2.8359 15.2861 2.61217 15.1549 2.49364C15.0915 2.45384 15.0186 2.43278 14.9443 2.43278C14.87 2.43278 14.7971 2.45384 14.7337 2.49364C14.6137 2.53669 14.5118 2.62094 14.4452 2.73219C14.3154 2.99889 14.5534 3.32485 14.4568 3.62118C14.4206 3.70789 14.3682 3.78643 14.3025 3.85232C14.2259 3.94705 14.1305 4.02385 14.0226 4.07754C13.9685 4.10391 13.9082 4.11401 13.8488 4.10667C13.7893 4.09933 13.7331 4.07484 13.6866 4.03605C13.5423 3.89529 13.6217 3.64489 13.5842 3.44338C13.5467 3.24188 13.3664 3.06112 13.3274 2.85072C13.314 2.73041 13.3238 2.60857 13.3563 2.49216C13.4116 2.18665 13.5148 1.8924 13.662 1.62094C13.9361 1.19067 14.3579 0.882247 14.8433 0.757127C15.3258 0.635221 15.8283 0.622582 16.316 0.720086C16.5308 0.748164 16.7387 0.816994 16.929 0.923074C17.1468 1.05642 17.3458 1.28015 17.5982 1.25645C17.5301 1.31985 17.4494 1.36737 17.3617 1.39572C17.4792 1.45107 17.5847 1.53019 17.6718 1.62835C17.6542 1.65621 17.6303 1.67936 17.6022 1.69585C17.5741 1.71234 17.5426 1.72171 17.5103 1.72317C17.5289 1.75192 17.5404 1.78491 17.5437 1.81926C17.5471 1.85362 17.5423 1.8883 17.5296 1.92029C17.517 1.95227 17.4969 1.9806 17.4711 2.0028C17.4454 2.025 17.4148 2.0404 17.3819 2.04766C17.2752 2.05951 17.1554 1.9395 17.0458 1.9232C17.0732 1.93801 17.1021 1.97506 17.1295 1.99284C17.0602 2.00765 16.7862 2.01654 16.7487 1.91727Z" fill="#9E5E32"/>
<path d="M15.0193 3.16038C15.0193 3.17372 15.0006 3.17964 14.989 3.17372C14.9795 3.16403 14.973 3.15166 14.9703 3.13816C14.9534 3.09063 14.9509 3.039 14.9631 2.98999C14.9667 2.97777 14.9728 2.96647 14.981 2.95681C14.9892 2.94716 14.9992 2.93936 15.0105 2.93392C15.0217 2.92848 15.034 2.92552 15.0464 2.92522C15.0589 2.92493 15.0713 2.92731 15.0828 2.93221C15.1042 2.88943 15.1108 2.84045 15.1015 2.79331C15.0922 2.74618 15.0676 2.70369 15.0317 2.67283C14.9957 2.64198 14.9507 2.62459 14.9039 2.62353C14.8571 2.62246 14.8113 2.63779 14.7741 2.66699C14.719 2.71348 14.6788 2.77595 14.6587 2.84627C14.6338 2.90128 14.6248 2.96247 14.6327 3.02259C14.6469 3.07015 14.6699 3.11444 14.7005 3.15297L14.8001 3.29373C14.8318 3.33966 14.8722 3.38856 14.9255 3.39004C14.9528 3.38796 14.9785 3.3764 14.9984 3.35727C15.0183 3.33814 15.0313 3.31258 15.0352 3.28484C15.0413 3.22876 15.0329 3.172 15.0106 3.12038" fill="#C19272"/>
<path d="M17.0848 2.96332C17.1686 2.91163 17.2654 2.88638 17.3631 2.89072C17.4353 2.91007 17.4984 2.9551 17.5411 3.01779C17.5839 3.08048 17.6037 3.15674 17.5968 3.23299C17.5763 3.38285 17.5215 3.52556 17.4367 3.64934C17.3083 3.8701 17.18 4.09383 17.0487 4.31164C16.9716 4.46622 16.8599 4.59978 16.7227 4.70132C16.6298 4.75259 16.5273 4.78282 16.4221 4.78997C16.3168 4.79713 16.2113 4.78105 16.1126 4.7428C15.9164 4.6661 15.7323 4.56027 15.566 4.42869C15.566 4.31164 15.6842 4.24052 15.7621 4.15606C15.8304 4.06803 15.8797 3.96612 15.9068 3.85706C15.9339 3.748 15.9382 3.63427 15.9193 3.52339C15.8862 3.17372 16.0823 3.25818 16.3521 3.20484C16.6052 3.15629 16.8514 3.07514 17.0848 2.96332Z" fill="#CEEAE8"/>
<path d="M15.2659 2.82849C15.5205 3.0208 15.787 3.19601 16.0636 3.353C16.1068 3.37819 16.1472 3.30855 16.1025 3.28484C15.8256 3.12788 15.5591 2.95216 15.3049 2.75885C15.2645 2.72922 15.2256 2.79886 15.2659 2.82849Z" fill="#CEEAE8"/>
<path d="M14.4409 3.55599C14.863 3.85232 15.2775 4.15557 15.6842 4.46573C15.7246 4.49685 15.7636 4.42721 15.7232 4.39609C15.3164 4.08198 14.902 3.77873 14.4799 3.48635C14.438 3.45227 14.3991 3.52191 14.4409 3.55599Z" fill="#CEEAE8"/>
<path d="M16.1299 3.74712C16.1256 3.66694 16.1426 3.58707 16.179 3.51598C16.2406 3.44964 16.3226 3.40724 16.4112 3.39597C16.5625 3.35196 16.7078 3.28874 16.8439 3.2078C16.8669 3.19057 16.8936 3.17938 16.9218 3.1752C16.9867 3.1752 17.0314 3.24928 17.0271 3.31596C17.0155 3.38137 16.9925 3.44411 16.9593 3.50117V3.53673C16.9593 3.55006 16.9751 3.55747 16.9852 3.56784C17.0061 3.59424 17.0175 3.6272 17.0175 3.66119C17.0175 3.69518 17.0061 3.72814 16.9852 3.75453C16.9629 3.78004 16.9359 3.80067 16.9056 3.81518C16.8754 3.8297 16.8426 3.83779 16.8093 3.83899C16.766 3.83899 16.7126 3.83899 16.691 3.88344C16.6833 3.90319 16.6799 3.92442 16.6809 3.94567C16.676 4.04949 16.6385 4.14889 16.574 4.22901C16.5095 4.30913 16.4215 4.36566 16.3232 4.39017C16.3374 4.43254 16.3437 4.47726 16.3419 4.52203C16.3424 4.53039 16.3413 4.53877 16.3386 4.54666C16.3358 4.55455 16.3316 4.5618 16.3261 4.56797C16.3059 4.58575 16.2742 4.56797 16.2511 4.56056C16.1068 4.47907 15.8963 4.4361 15.9467 4.24348C15.9972 4.05086 16.1299 3.94567 16.1299 3.74712Z" fill="#B7CECC"/>
<path d="M14.7481 3.42263C14.815 3.42297 14.881 3.40617 14.94 3.37374C14.994 3.33367 15.0372 3.28013 15.0655 3.21816C15.2198 2.92183 15.2573 2.53956 15.478 2.29953C15.7477 2.0032 16.1717 2.04617 16.5453 2.04617C16.8443 2.04621 17.1422 2.0089 17.4324 1.93504C17.4874 1.92528 17.5397 1.90301 17.5853 1.86985C17.6235 1.83153 17.6533 1.78527 17.6727 1.73417C17.6921 1.68306 17.7006 1.62829 17.6978 1.57352C17.7107 1.16013 17.428 0.810459 17.1208 0.577838C16.6007 0.172625 15.9584 -0.0319087 15.3063 -1.16117e-05C14.6498 0.0446915 14.0288 0.322273 13.5495 0.785271C13.2717 1.03039 13.076 1.359 12.9899 1.72465C12.9531 1.95971 12.9531 2.1993 12.9899 2.43436C13.0059 2.64207 13.0546 2.84572 13.1341 3.0374C13.4471 3.676 14.2246 3.46412 14.7481 3.42263Z" fill="#50429B"/>
<path d="M14.927 4.46129V4.49981L14.9025 4.52055C14.8561 4.54414 14.8079 4.56348 14.7582 4.57834C14.6409 4.22292 14.5626 3.85517 14.5246 3.48191C14.5152 3.44348 14.5152 3.40328 14.5246 3.36486C14.5491 3.30114 14.6977 3.21669 14.7553 3.27003C14.79 3.30411 14.7553 3.61081 14.7553 3.67008C14.774 3.94111 14.8318 4.20778 14.927 4.46129Z" fill="#681616"/>
<path d="M16.4862 2.44474C16.6277 2.37184 16.7853 2.33813 16.9434 2.34695C17.0199 2.34695 17.1006 2.32472 17.1035 2.23286V2.22397C17.0524 2.22253 17.0013 2.22551 16.9506 2.23286C16.8868 2.22694 16.8226 2.22694 16.7588 2.23286C16.6416 2.24805 16.5347 2.30909 16.4602 2.40325C16.4429 2.43288 16.466 2.45511 16.4862 2.44474Z" fill="#4C3729"/>
<path d="M16.5251 2.68329C16.6255 2.63501 16.7345 2.60829 16.8453 2.60476C16.9016 2.59587 16.9679 2.58698 16.9982 2.53068C17 2.52805 17.0009 2.5249 17.0008 2.52169C17.0008 2.51848 16.9996 2.51539 16.9977 2.51288C16.9957 2.51038 16.993 2.50859 16.99 2.50779C16.987 2.50699 16.9838 2.50722 16.9809 2.50845C16.9434 2.51882 16.9117 2.54105 16.8742 2.5529C16.8367 2.56475 16.792 2.57068 16.7501 2.58105C16.6698 2.60113 16.5933 2.63467 16.5237 2.68032L16.5251 2.68329Z" fill="#4C3729"/>
<path d="M16.7891 2.59143C16.7804 2.62699 16.7574 2.71589 16.8136 2.72626C16.8699 2.73663 16.8756 2.6418 16.8684 2.60328L16.8468 2.58105L16.8223 2.59143V2.62106V2.64328V2.66699L16.8295 2.65366V2.63439C16.8295 2.61958 16.8295 2.60328 16.8208 2.58846L16.7891 2.59143Z" fill="#4C3729"/>
<path d="M16.6622 2.72626C16.7029 2.74988 16.7496 2.7607 16.7963 2.75737C16.8309 2.75737 16.8843 2.747 16.9016 2.70996L16.8944 2.6981C16.8643 2.70425 16.8349 2.71318 16.8064 2.72477C16.761 2.73312 16.7141 2.72691 16.6723 2.707C16.6698 2.70562 16.6668 2.70532 16.6641 2.70615C16.6614 2.70698 16.6592 2.70889 16.6578 2.71144C16.6565 2.71399 16.6562 2.71699 16.657 2.71977C16.6578 2.72255 16.6597 2.72488 16.6622 2.72626Z" fill="#4C3729"/>
<path d="M16.7574 2.81515C16.7784 2.81755 16.7997 2.81287 16.8179 2.80182V2.78255C16.7992 2.78255 16.7819 2.78255 16.7631 2.78255C16.7589 2.78177 16.7546 2.78273 16.7511 2.78523C16.7475 2.78773 16.7451 2.79157 16.7444 2.79589C16.7436 2.80021 16.7445 2.80467 16.747 2.80828C16.7494 2.81189 16.7531 2.81437 16.7574 2.81515Z" fill="#4C3729"/>
<g clip-path="url(#clip1_4946_12775)">
<path d="M6.23968 7.22236C6.30405 7.22236 6.35623 7.16884 6.35623 7.10281C6.35623 7.03679 6.30405 6.98326 6.23968 6.98326C6.17531 6.98326 6.12312 7.03679 6.12312 7.10281C6.12312 7.16884 6.17531 7.22236 6.23968 7.22236Z" fill="white"/>
<path d="M6.36385 6.8974C6.40734 6.8974 6.44259 6.86124 6.44259 6.81663C6.44259 6.77203 6.40734 6.73587 6.36385 6.73587C6.32036 6.73587 6.28511 6.77203 6.28511 6.81663C6.28511 6.86124 6.32036 6.8974 6.36385 6.8974Z" fill="white"/>
<path d="M6.23469 6.67921C6.26571 6.67921 6.29086 6.65341 6.29086 6.62159C6.29086 6.58976 6.26571 6.56396 6.23469 6.56396C6.20366 6.56396 6.17851 6.58976 6.17851 6.62159C6.17851 6.65341 6.20366 6.67921 6.23469 6.67921Z" fill="white"/>
<path d="M7.49172 6.46357L7.49996 6.4018C7.50056 6.39726 7.50003 6.39263 7.4984 6.38836C7.49678 6.3841 7.49412 6.38032 7.49068 6.3774C7.48723 6.37448 7.48312 6.3725 7.47873 6.37166C7.47434 6.37082 7.46981 6.37114 7.46557 6.37259L6.98411 6.54082L6.5081 7.29451C6.50565 7.29834 6.5042 7.30274 6.50388 7.3073C6.50356 7.31186 6.50439 7.31643 6.50627 7.32057C6.50816 7.32471 6.51105 7.32829 6.51466 7.33097C6.51828 7.33364 6.5225 7.33532 6.52693 7.33585L6.6427 7.35054C6.64775 7.35118 6.65287 7.35032 6.65745 7.34806C6.66203 7.34579 6.66588 7.34222 6.66853 7.33777L7.06518 6.66117C7.06818 6.65625 7.07258 6.65241 7.07779 6.65016L7.47553 6.4848C7.4798 6.48301 7.48354 6.48011 7.48637 6.47639C7.48921 6.47267 7.49105 6.46825 7.49172 6.46357Z" fill="white"/>
<path d="M7.11389 7.55517L7.10876 7.59795C7.1065 7.61682 7.09705 7.63402 7.08247 7.64577C7.06789 7.65752 7.04937 7.66288 7.03095 7.66067C7.02186 7.6596 7.0127 7.66205 7.00527 7.66754C6.99794 7.67304 6.99293 7.6812 6.99127 7.69036L6.7787 8.88267C6.77769 8.88827 6.77537 8.89353 6.77194 8.898C6.76851 8.90248 6.76407 8.90604 6.75901 8.90837C6.75395 8.91071 6.74841 8.91176 6.74287 8.91142C6.73733 8.91109 6.73196 8.90938 6.7272 8.90645C6.68886 8.88401 6.64653 8.86968 6.60271 8.86431C6.55391 8.85814 6.50439 8.8631 6.45768 8.87884C6.45317 8.88033 6.44841 8.88084 6.44371 8.88033C6.439 8.87983 6.43445 8.87831 6.43034 8.87589C6.42624 8.87347 6.42267 8.8702 6.41988 8.86628C6.41708 8.86236 6.41512 8.85789 6.41411 8.85314C6.36182 8.62968 6.17042 8.45028 5.92393 8.41947C5.67744 8.38867 5.44994 8.51524 5.34661 8.71939C5.34449 8.72372 5.34151 8.72756 5.33787 8.73065C5.33422 8.73374 5.32999 8.73602 5.32543 8.73734C5.32088 8.73867 5.31611 8.739 5.31142 8.73833C5.30674 8.73765 5.30224 8.73599 5.29822 8.73343C5.25786 8.70748 5.21257 8.69065 5.16537 8.68408C5.11817 8.6775 5.07014 8.68132 5.0245 8.69528C5.01916 8.69703 5.0135 8.69741 5.00798 8.69641C5.00247 8.69541 4.99728 8.69305 4.99285 8.68953C4.98843 8.68601 4.9849 8.68144 4.98258 8.67622C4.98026 8.67099 4.97921 8.66526 4.97953 8.65953L5.05609 7.44791C5.05671 7.43859 5.05384 7.42938 5.04805 7.42216C5.04226 7.41495 5.034 7.41028 5.02497 7.40912C5.00654 7.40685 4.98976 7.39716 4.97829 7.3822C4.96682 7.36724 4.96161 7.34822 4.96381 7.32932L4.96879 7.28654C4.96999 7.27688 4.97488 7.2681 4.98237 7.26212C4.98986 7.25614 4.99936 7.25344 5.00878 7.25462L5.16439 7.27409L5.18135 7.27633C5.19268 7.27781 5.20309 7.2835 5.2106 7.29233C5.21812 7.30115 5.22222 7.31249 5.22212 7.32421C5.22212 7.37912 5.19878 7.46132 5.20563 7.50697C5.21248 7.55262 5.3074 7.58853 5.31674 7.40992C5.32094 7.33012 5.35019 7.31176 5.35579 7.33474C5.38552 7.45509 5.42738 7.36459 5.41804 7.32836C5.41804 7.32836 5.41804 7.3274 5.41804 7.32676C5.41804 7.32612 5.4059 7.31208 5.42847 7.30729L7.08495 7.51479C7.09386 7.5165 7.10181 7.52163 7.10718 7.52912C7.11256 7.53662 7.11495 7.54593 7.11389 7.55517Z" fill="white"/>
<path d="M6.79318 9.30803C6.78615 9.36165 6.76439 9.41211 6.73044 9.45352C6.6965 9.49492 6.65176 9.52557 6.60147 9.54187C6.58966 9.5458 6.57918 9.5531 6.57124 9.5629C6.56331 9.57271 6.55825 9.58462 6.55665 9.59725L6.54249 9.71521C6.54145 9.72397 6.53874 9.73243 6.53451 9.74012C6.53028 9.74781 6.52461 9.75456 6.51783 9.76C6.51106 9.76544 6.5033 9.76946 6.49501 9.77182C6.48672 9.77419 6.47805 9.77485 6.46951 9.77378L5.07539 9.59901C5.06685 9.59794 5.05859 9.59516 5.0511 9.59082C5.0436 9.58648 5.03702 9.58067 5.03171 9.57371C5.02641 9.56676 5.02249 9.55881 5.02019 9.5503C5.01788 9.5418 5.01724 9.53291 5.01828 9.52415L5.03228 9.40651C5.03379 9.39392 5.03179 9.38114 5.0265 9.36967C5.02121 9.3582 5.01286 9.3485 5.00241 9.34171L4.99509 9.33692C4.95384 9.31005 4.9204 9.2723 4.89828 9.22761C4.87615 9.18292 4.86615 9.13295 4.86934 9.08293C4.87252 9.03292 4.88876 8.98471 4.91637 8.94335C4.94397 8.90199 4.98191 8.86901 5.02622 8.84787C5.06862 8.82692 5.11512 8.81619 5.16218 8.8165C5.20925 8.8168 5.25562 8.82813 5.29776 8.84962C5.3125 8.85755 5.32962 8.85945 5.34567 8.85495C5.36172 8.85045 5.37552 8.83988 5.38428 8.82536C5.48574 8.65202 5.68772 8.54668 5.90526 8.57397C6.12281 8.60127 6.29429 8.75338 6.35202 8.94683C6.35713 8.96295 6.36797 8.97651 6.3824 8.9848C6.39682 8.99308 6.41376 8.99548 6.42983 8.99152C6.4641 8.98379 6.49941 8.98206 6.53424 8.98641C6.59085 8.99337 6.64442 9.01642 6.68892 9.05297C6.7261 9.0828 6.7552 9.12191 6.77346 9.16657C6.79171 9.21122 6.7985 9.25992 6.79318 9.30803Z" fill="white"/>
<path d="M5.00397 9.64418C4.9702 9.92654 5.18027 10.1939 5.49554 10.3051C5.47718 10.3583 5.44092 10.4287 5.37277 10.4648C5.49029 10.4621 5.60425 10.4228 5.69955 10.3522C6.11783 10.4017 6.48788 10.1712 6.52787 9.83508L5.00397 9.64418ZM5.51639 9.99437C5.50505 9.99474 5.49386 9.99153 5.48434 9.98518C5.47483 9.97883 5.46743 9.96964 5.46316 9.95885C5.45889 9.94806 5.45795 9.93619 5.46046 9.92483C5.46296 9.91347 5.4688 9.90318 5.47719 9.89533C5.48558 9.88748 5.49611 9.88245 5.50736 9.88093C5.51862 9.8794 5.53006 9.88145 5.54015 9.8868C5.55023 9.89215 5.55848 9.90054 5.56377 9.91084C5.56907 9.92114 5.57116 9.93285 5.56977 9.94441C5.56904 9.95826 5.56304 9.97126 5.55306 9.9806C5.54307 9.98995 5.5299 9.99489 5.51639 9.99437ZM5.82155 10.1174C5.80983 10.1347 5.79375 10.1483 5.77503 10.1569C5.75632 10.1655 5.73567 10.1687 5.71532 10.1662C5.69497 10.1636 5.67567 10.1554 5.65952 10.1425C5.64336 10.1296 5.63094 10.1123 5.62361 10.0927C5.62135 10.0857 5.62185 10.078 5.625 10.0713C5.62815 10.0646 5.63371 10.0595 5.64049 10.0569C5.64728 10.0544 5.65477 10.0546 5.66138 10.0576C5.66798 10.0607 5.67319 10.0662 5.6759 10.0731C5.67974 10.0828 5.68605 10.0913 5.69417 10.0977C5.70229 10.1041 5.71192 10.1081 5.72208 10.1094C5.73223 10.1107 5.74254 10.1092 5.75193 10.105C5.76132 10.1008 5.76945 10.0941 5.77549 10.0857C5.77961 10.0793 5.78603 10.0749 5.79333 10.0734C5.80062 10.0719 5.8082 10.0735 5.81439 10.0777C5.82058 10.0819 5.82488 10.0885 5.82634 10.096C5.8278 10.1035 5.8263 10.1112 5.82217 10.1176L5.82155 10.1174ZM5.94884 10.0486C5.9375 10.049 5.92632 10.0458 5.9168 10.0395C5.90728 10.0331 5.89989 10.024 5.89561 10.0132C5.89133 10.0024 5.89037 9.99053 5.89286 9.97917C5.89536 9.96782 5.90118 9.95752 5.90955 9.94966C5.91792 9.9418 5.92844 9.93676 5.93968 9.93521C5.95093 9.93366 5.96237 9.93569 5.97246 9.94101C5.98255 9.94633 5.99081 9.9547 5.99613 9.96498C6.00145 9.97526 6.00357 9.98697 6.00221 9.99852C6.00141 10.0123 5.99537 10.0252 5.9854 10.0345C5.97542 10.0438 5.9623 10.0487 5.94884 10.0482V10.0486Z" fill="white"/>
<path d="M3.78568 9.33788C3.80021 9.26154 3.80822 9.18405 3.80965 9.10628C3.81131 9.02456 3.81219 8.94555 3.81229 8.86926C3.81229 8.80211 3.81317 8.73401 3.81494 8.66495C3.81667 8.59544 3.82291 8.52612 3.83361 8.45746L3.84155 8.41388L3.88403 8.40574C4.00084 8.3951 4.11729 8.38872 4.23338 8.38659C4.34918 8.38482 4.46497 8.39122 4.57992 8.40574L4.62256 8.41388L4.84042 10.0814L4.81396 10.1032C4.60008 10.2469 4.36632 10.3566 4.12056 10.4288C3.87351 10.4995 3.61707 10.5294 3.36086 10.5174C3.24894 10.5121 3.13754 10.4985 3.02755 10.4766C2.92003 10.4552 2.81466 10.4237 2.71274 10.3825C2.6116 10.3416 2.51533 10.2891 2.4258 10.2258C2.33385 10.1604 2.25021 10.0835 2.17682 9.99692C2.02915 9.82636 1.91629 9.62718 1.8449 9.41114C1.77259 9.1953 1.73445 8.96898 1.73193 8.74077C1.72935 8.5114 1.76116 8.28299 1.82623 8.06353C1.88963 7.84516 1.98712 7.63877 2.11489 7.45237C2.24339 7.26465 2.39927 7.09831 2.57705 6.95917C2.74427 6.83002 2.92854 6.72592 3.12434 6.65C3.32289 6.57378 3.52986 6.52301 3.74056 6.49885C3.96189 6.47319 4.18487 6.46587 4.40735 6.47698H4.43925L4.45481 6.5097C4.51736 6.63498 4.56167 6.76899 4.5863 6.90745C4.6117 7.04698 4.62812 7.18806 4.63548 7.32979V7.39268H4.57432C4.47349 7.39268 4.3615 7.39587 4.23836 7.40226C4.11522 7.40864 3.99135 7.42141 3.86676 7.44056C3.74432 7.45912 3.62335 7.48675 3.50481 7.52324C3.39695 7.5554 3.2941 7.60312 3.19934 7.66498C3.14852 7.69852 3.10154 7.73782 3.05929 7.78213C3.02674 7.81527 2.99652 7.85074 2.96888 7.88828C2.94173 7.9257 2.91689 7.96483 2.8945 8.00543C2.8546 8.07861 2.82211 8.15578 2.79755 8.23575C2.77199 8.31797 2.75595 8.40299 2.74978 8.48906C2.74349 8.57468 2.74794 8.66078 2.76301 8.74524C2.77752 8.82817 2.80584 8.90791 2.84672 8.98099C2.88126 9.04662 2.92665 9.10559 2.98086 9.15528C3.0327 9.20223 3.09088 9.24126 3.15359 9.27116C3.2175 9.3015 3.2849 9.32344 3.35417 9.33645C3.42507 9.35018 3.49707 9.35707 3.56923 9.35704C3.60471 9.35704 3.64102 9.35565 3.67816 9.35289C3.71427 9.35023 3.75019 9.34522 3.78568 9.33788Z" fill="white"/>
</g>
</g>
<defs>
<clipPath id="clip0_4946_12775">
<rect width="26" height="24" fill="white"/>
</clipPath>
<clipPath id="clip1_4946_12775">
<rect width="5.76944" height="4.14866" fill="white" transform="translate(1.73083 6.37115)"/>
</clipPath>
</defs>
</svg>
