<svg width="24" height="24" viewBox="0 0 24 24" fill="none" xmlns="http://www.w3.org/2000/svg">
<path d="M6.74699 4.00001H10.211C10.401 4.00007 10.5839 4.07225 10.7228 4.20198C10.8616 4.33171 10.9461 4.50931 10.959 4.69889C10.972 4.88847 10.9125 5.0759 10.7926 5.22331C10.6726 5.37071 10.5012 5.46711 10.313 5.49301L10.211 5.50001H6.74699C6.17703 5.49992 5.62827 5.71615 5.21156 6.10501C4.79486 6.49388 4.54126 7.0264 4.50199 7.59501L4.49699 7.75001V17.25C4.49718 17.82 4.71366 18.3686 5.1027 18.7851C5.49175 19.2016 6.02438 19.455 6.59299 19.494L6.74699 19.5H16.247C16.8171 19.5001 17.366 19.2837 17.7827 18.8946C18.1995 18.5056 18.453 17.9728 18.492 17.404L18.497 17.25V16.752C18.495 16.5606 18.5663 16.3758 18.6963 16.2352C18.8262 16.0947 19.0049 16.0092 19.1959 15.9961C19.3868 15.9831 19.5755 16.0435 19.7233 16.1651C19.8712 16.2867 19.9669 16.4601 19.991 16.65L19.997 16.752V17.25C19.9968 18.2098 19.6286 19.1331 18.9682 19.8296C18.3078 20.5261 17.4055 20.9428 16.447 20.994L16.247 21H6.74699C5.78683 21.0001 4.86322 20.6319 4.16648 19.9712C3.46974 19.3106 3.05295 18.4078 3.00199 17.449L2.99699 17.249V7.74901C2.99716 6.78919 3.36537 5.86596 4.02578 5.16946C4.68619 4.47296 5.58854 4.0562 6.54699 4.00501L6.74699 4.00001H10.211H6.74699ZM14.5 6.54401V3.75001C14.4999 3.61205 14.5379 3.47675 14.6097 3.35898C14.6816 3.2412 14.7845 3.14553 14.9072 3.08247C15.0299 3.01942 15.1676 2.99142 15.3052 3.00158C15.4428 3.01173 15.5749 3.05963 15.687 3.14001L15.769 3.20801L21.763 8.95801C22.043 9.22701 22.069 9.65801 21.84 9.95601L21.763 10.041L15.769 15.793C15.6695 15.8886 15.5455 15.9549 15.4107 15.9846C15.2759 16.0142 15.1355 16.0061 15.0051 15.9611C14.8746 15.9162 14.7591 15.8361 14.6712 15.7297C14.5833 15.6232 14.5265 15.4946 14.507 15.358L14.5 15.251V12.45L14.179 12.443C11.521 12.435 9.24899 13.527 7.31399 15.745C6.81799 16.312 5.88899 15.876 6.00799 15.132C6.83499 9.99201 9.60799 7.08801 14.198 6.57401L14.5 6.54401V3.75001V6.54401Z" fill="#FF8C21"/>
</svg>
