<svg width="24" height="24" viewBox="0 0 24 24" fill="none" xmlns="http://www.w3.org/2000/svg">
<path d="M10.3073 7.21991C10.9494 5.61922 11.2704 4.81888 11.792 4.70796C11.9291 4.67879 12.0709 4.67879 12.208 4.70796C12.7296 4.81888 13.0506 5.61922 13.6927 7.21991C14.0578 8.13019 14.2404 8.58533 14.582 8.8949C14.6778 8.98173 14.7819 9.05906 14.8926 9.12581C15.2874 9.36378 15.7803 9.40793 16.7661 9.49621C18.4349 9.64566 19.2693 9.72039 19.5241 10.1961C19.5768 10.2947 19.6127 10.4013 19.6302 10.5117C19.7147 11.0448 19.1013 11.6028 17.8745 12.7189L17.5338 13.0289C16.9603 13.5507 16.6735 13.8116 16.5076 14.1372C16.4081 14.3325 16.3414 14.5429 16.3102 14.7598C16.258 15.1215 16.342 15.5 16.51 16.257L16.57 16.5275C16.8712 17.885 17.0218 18.5638 16.8338 18.8974C16.6649 19.1971 16.3539 19.3889 16.0103 19.4053C15.6277 19.4236 15.0888 18.9844 14.0108 18.106C13.3006 17.5273 12.9455 17.238 12.5513 17.1249C12.191 17.0216 11.809 17.0216 11.4487 17.1249C11.0545 17.238 10.6994 17.5273 9.98921 18.106C8.91124 18.9844 8.37225 19.4236 7.98973 19.4053C7.64613 19.3889 7.33508 19.1971 7.16622 18.8974C6.97823 18.5638 7.12882 17.885 7.43002 16.5275L7.49003 16.257C7.65798 15.5 7.74196 15.1215 7.68984 14.7598C7.65858 14.5429 7.59187 14.3325 7.49237 14.1372C7.32649 13.8116 7.03972 13.5507 6.46618 13.0289L6.1255 12.7189C4.89871 11.6028 4.28532 11.0448 4.36979 10.5117C4.38729 10.4013 4.42317 10.2947 4.47594 10.1961C4.73074 9.72039 5.56512 9.64566 7.23388 9.49621C8.21967 9.40793 8.71256 9.36378 9.1074 9.12581C9.21814 9.05906 9.32216 8.98173 9.41798 8.8949C9.75959 8.58533 9.94216 8.13019 10.3073 7.21991Z" fill="#FF8C21" stroke="#FF8C21"/>
</svg>
