<svg width="24" height="24" viewBox="0 0 24 24" fill="none" xmlns="http://www.w3.org/2000/svg">
<path d="M18.6667 20H10.6667V14.6667H9.33333V20H5.33333V14.6667H4V20C4 20.3536 4.14048 20.6928 4.39052 20.9428C4.64057 21.1929 4.97971 21.3333 5.33333 21.3333H18.6667C19.0203 21.3333 19.3594 21.1929 19.6095 20.9428C19.8595 20.6928 20 20.3536 20 20V14.6667H18.6667V20Z" fill="#50429B"/>
<path d="M22.5267 8.84666L19.8067 3.40666C19.6963 3.18451 19.5261 2.99757 19.3153 2.86684C19.1045 2.73612 18.8614 2.66679 18.6133 2.66666H5.38667C5.13862 2.66679 4.89551 2.73612 4.6847 2.86684C4.47389 2.99757 4.30372 3.18451 4.19334 3.40666L1.47334 8.84666C1.38047 9.03298 1.33252 9.23847 1.33334 9.44666V11.5C1.33273 11.8115 1.44123 12.1134 1.64001 12.3533C1.93378 12.6901 2.2966 12.9596 2.70383 13.1437C3.11105 13.3278 3.55312 13.422 4.00001 13.42C4.72919 13.4211 5.43613 13.169 6 12.7067C6.56388 13.1692 7.27067 13.4221 8 13.4221C8.72934 13.4221 9.43613 13.1692 10 12.7067C10.5639 13.1692 11.2707 13.4221 12 13.4221C12.7293 13.4221 13.4361 13.1692 14 12.7067C14.5639 13.1692 15.2707 13.4221 16 13.4221C16.7293 13.4221 17.4361 13.1692 18 12.7067C18.6294 13.2235 19.4347 13.4761 20.2466 13.4115C21.0585 13.3468 21.8136 12.9699 22.3533 12.36C22.5545 12.121 22.6654 11.819 22.6667 11.5067V9.44666C22.6675 9.23847 22.6195 9.03298 22.5267 8.84666ZM10 9.59999V10.6133L9.45334 11.3333C9.28552 11.5621 9.0662 11.7481 8.81313 11.8763C8.56006 12.0045 8.28036 12.0713 7.99667 12.0713C7.71298 12.0713 7.43328 12.0045 7.18021 11.8763C6.92714 11.7481 6.70782 11.5621 6.54001 11.3333L6 10.5867V9.59999L7.72667 3.99999H10.6667L10 9.59999ZM18 10.5867L17.46 11.3333C17.2922 11.5621 17.0729 11.7481 16.8198 11.8763C16.5667 12.0045 16.287 12.0713 16.0033 12.0713C15.7196 12.0713 15.4399 12.0045 15.1869 11.8763C14.9338 11.7481 14.7145 11.5621 14.5467 11.3333L14 10.5867V9.59999L13.3333 3.99999H16.3L18 9.59999V10.5867Z" fill="#50429B"/>
</svg>
