<svg width="18" height="16" viewBox="0 0 18 16" fill="none" xmlns="http://www.w3.org/2000/svg">
<path d="M9 9.99671C7.8948 9.99671 6.99884 10.8927 6.99884 11.9979V16.0002H11.0012V11.9979C11.0012 10.8927 10.1052 9.99671 9 9.99671Z" fill="#50429B"/>
<path d="M12.3353 11.9974V15.9997H15.0035C16.1087 15.9997 17.0046 15.1037 17.0046 13.9985V7.91436C17.0048 7.56782 16.8701 7.23481 16.6291 6.98582L10.9605 0.85758C9.96027 -0.22461 8.27217 -0.291055 7.18998 0.70915C7.13857 0.756678 7.08904 0.806175 7.04155 0.85758L1.38292 6.98382C1.13459 7.23384 0.99526 7.57197 0.995354 7.92437V13.9985C0.995354 15.1037 1.89131 15.9997 2.99651 15.9997H5.66472V11.9974C5.67719 10.1785 7.14576 8.69309 8.91889 8.65032C10.7513 8.60611 12.3213 10.1168 12.3353 11.9974Z" fill="#50429B"/>
<path d="M9 9.99642C7.89479 9.99642 6.99884 10.8924 6.99884 11.9976V15.9999H11.0012V11.9976C11.0012 10.8924 10.1052 9.99642 9 9.99642Z" fill="#50429B"/>
</svg>
