<svg width="16" height="16" viewBox="0 0 16 16" fill="none" xmlns="http://www.w3.org/2000/svg">
<path d="M15.3324 7.33291C15.1553 7.33291 14.9855 7.26269 14.8603 7.13769C14.7351 7.01269 14.6647 6.84316 14.6647 6.66639C14.6633 5.25264 14.1001 3.8972 13.0988 2.89753C12.0975 1.89786 10.7397 1.33563 9.32364 1.33422C9.14657 1.33422 8.97675 1.26399 8.85155 1.139C8.72634 1.014 8.656 0.844467 8.656 0.667694C8.656 0.490922 8.72634 0.321389 8.85155 0.196392C8.97675 0.0713955 9.14657 0.00117285 9.32364 0.00117285C11.0937 0.0031135 12.7908 0.705963 14.0424 1.95551C15.294 3.20506 15.9981 4.89926 16 6.66639C16 6.84316 15.9297 7.01269 15.8045 7.13769C15.6792 7.26269 15.5094 7.33291 15.3324 7.33291ZM13.3295 6.66639C13.3295 5.60575 12.9074 4.58856 12.1562 3.83858C11.4049 3.08859 10.386 2.66726 9.32364 2.66726C9.14657 2.66726 8.97675 2.73748 8.85155 2.86248C8.72634 2.98747 8.656 3.15701 8.656 3.33378C8.656 3.51055 8.72634 3.68008 8.85155 3.80508C8.97675 3.93008 9.14657 4.0003 9.32364 4.0003C10.0319 4.0003 10.7112 4.28119 11.212 4.78118C11.7128 5.28117 11.9942 5.9593 11.9942 6.66639C11.9942 6.84316 12.0645 7.01269 12.1897 7.13769C12.3149 7.26269 12.4847 7.33291 12.6618 7.33291C12.8389 7.33291 13.0087 7.26269 13.1339 7.13769C13.2591 7.01269 13.3295 6.84316 13.3295 6.66639ZM14.7869 14.774L15.3945 14.0748C15.7812 13.6875 15.9983 13.1629 15.9983 12.6161C15.9983 12.0692 15.7812 11.5447 15.3945 11.1574C15.3738 11.1367 13.7674 9.90301 13.7674 9.90301C13.3819 9.53665 12.8698 9.33265 12.3375 9.33339C11.8053 9.33413 11.2938 9.53957 10.9093 9.90701L9.63676 10.9774C8.59803 10.5483 7.65447 9.91846 6.86025 9.1242C6.06603 8.32993 5.4368 7.38685 5.0087 6.34912L6.07692 5.08273C6.44527 4.69893 6.65129 4.18818 6.65216 3.65664C6.65303 3.12511 6.44868 2.61369 6.08159 2.22869C6.08159 2.22869 4.84446 0.627036 4.82377 0.606374C4.44285 0.223623 3.92638 0.00585318 3.38596 0.000116274C2.84554 -0.00562063 2.32456 0.201136 1.93557 0.575714L1.16779 1.24224C-3.36813 6.49576 6.39939 16.1716 11.8353 15.9977C12.3842 16.0009 12.9282 15.8942 13.4351 15.684C13.9421 15.4739 14.4017 15.1644 14.7869 14.774Z" fill="#50429B"/>
</svg>
