<svg width="16" height="24" viewBox="0 0 16 24" fill="none" xmlns="http://www.w3.org/2000/svg">
<path fill-rule="evenodd" clip-rule="evenodd" d="M7.86914 11.0498C8.65872 11.0498 9.43058 11.2817 10.0871 11.716C10.7436 12.1504 11.2553 12.7678 11.5574 13.4901C11.8596 14.2125 11.9386 15.0073 11.7845 15.7741C11.6305 16.5409 11.2502 17.2452 10.6918 17.798C10.1335 18.3508 9.42211 18.7273 8.64768 18.8797C7.87326 19.0322 7.07056 18.9539 6.3411 18.6546C5.61164 18.3554 4.98818 17.8486 4.54958 17.1985C4.11097 16.5484 3.87691 15.7841 3.877 15.0023C3.87712 13.954 4.29777 12.9487 5.04643 12.2075C5.79509 11.4662 6.81043 11.0498 7.86914 11.0498ZM7.86914 8.33557C9.6304 8.33557 11.3195 9.02836 12.5649 10.2615C13.8103 11.4947 14.51 13.1672 14.51 14.9112C14.51 18.5432 9.84435 23.7464 7.86868 23.7464C5.89301 23.7464 1.22781 18.5432 1.22781 14.9112C1.22781 13.1672 1.92747 11.4947 3.17288 10.2615C4.41828 9.02836 6.10741 8.33557 7.86868 8.33557H7.86914Z" fill="#E42027"/>
<path d="M7.86867 24C6.82168 24 5.14923 22.7632 3.60821 20.8491C1.95797 18.7999 0.972626 16.5802 0.972626 14.9112C0.972626 11.1454 4.06644 8.08202 7.86957 8.08202C11.6727 8.08202 14.767 11.1454 14.767 14.9112C14.767 16.5802 13.7816 18.7999 12.1314 20.8491C10.5886 22.7632 8.9161 24 7.86867 24ZM7.86867 8.58914C4.34835 8.58914 1.48388 11.425 1.48388 14.9112C1.48388 16.4694 2.42753 18.5706 4.00752 20.5327C5.41256 22.2753 6.9989 23.4947 7.86867 23.4947C8.73843 23.4947 10.3261 22.2771 11.7303 20.5327C13.3107 18.5706 14.2539 16.4694 14.2539 14.9112C14.2539 11.425 11.3899 8.58914 7.86867 8.58914ZM7.86867 19.2088C7.02845 19.2088 6.2071 18.9621 5.50849 18.4999C4.80987 18.0376 4.26537 17.3807 3.94383 16.612C3.62229 15.8434 3.53816 14.9976 3.70208 14.1817C3.866 13.3657 4.2706 12.6162 4.86473 12.0279C5.45885 11.4396 6.21581 11.039 7.03988 10.8767C7.86396 10.7143 8.71813 10.7976 9.49439 11.116C10.2706 11.4344 10.9341 11.9736 11.4009 12.6653C11.8677 13.3571 12.1169 14.1703 12.1169 15.0023C12.1151 16.1171 11.6669 17.1858 10.8707 17.974C10.0744 18.7621 8.99502 19.2056 7.86912 19.207L7.86867 19.2088ZM7.86867 11.3034C7.12973 11.3034 6.40738 11.5204 5.79298 11.9269C5.17858 12.3334 4.69972 12.9112 4.41696 13.5872C4.1342 14.2632 4.06024 15.007 4.20443 15.7246C4.34863 16.4422 4.7045 17.1014 5.22704 17.6187C5.74958 18.1361 6.41532 18.4884 7.14008 18.6311C7.86483 18.7738 8.61604 18.7004 9.29871 18.4204C9.98137 18.1403 10.5648 17.6661 10.9753 17.0577C11.3858 16.4493 11.6048 15.734 11.6047 15.0023C11.6035 14.0217 11.2096 13.0815 10.5093 12.3881C9.80896 11.6947 8.8595 11.3046 7.86912 11.3034H7.86867Z" fill="#3F266F"/>
<g opacity="0.48">
<path fill-rule="evenodd" clip-rule="evenodd" d="M8.71441 8.48099C10.2956 8.70594 11.742 9.48766 12.7884 10.6828C13.8348 11.878 14.4111 13.4066 14.4116 14.9884C14.4116 16.6354 13.4521 18.6056 12.2193 20.2675C14.6745 15.9264 14.2031 12.1444 11.5395 10.1536C11.5807 10.2532 11.5848 10.3461 11.5422 10.4229C11.4234 10.6329 10.9829 10.6127 10.5582 10.378C10.1335 10.1433 9.88558 9.78112 10.0048 9.57019C10.0533 9.48448 10.1562 9.43556 10.2899 9.42703C10.1237 9.35253 9.95175 9.28312 9.77409 9.21879C8.86753 8.99807 7.92564 8.95846 7.00345 9.1023C6.08127 9.24613 5.19728 9.57052 4.40315 10.0565C3.60902 10.5425 2.92068 11.1803 2.37836 11.9327C1.83603 12.6851 1.45059 13.537 1.24457 14.4386C1.29164 13.5438 1.52873 12.6689 1.94038 11.871C2.35203 11.0731 2.92898 10.3701 3.63357 9.80792C4.33817 9.24572 5.15458 8.83696 6.02951 8.60832C6.90444 8.37968 7.81823 8.33629 8.71124 8.48099H8.71441Z" fill="white"/>
</g>
<g opacity="0.3">
<path fill-rule="evenodd" clip-rule="evenodd" d="M5.51727 18.1968C5.19943 17.9671 4.9175 17.6924 4.68059 17.3813C4.91734 17.6925 5.19928 17.9673 5.51727 18.1968ZM8.16782 18.9444H8.17688C8.07536 18.9519 7.97277 18.9558 7.86913 18.9561C7.68919 18.9562 7.50944 18.9442 7.33114 18.9202C7.58926 18.9551 7.85021 18.9649 8.11026 18.9494L8.16782 18.9444ZM4.13942 16.4151C3.96532 15.964 3.87637 15.4852 3.877 15.0023C3.8634 14.7836 3.85524 14.5695 3.85252 14.3601C3.88908 14.3002 3.92655 14.2353 3.96493 14.1653C4.14116 13.4773 4.49005 12.8446 4.97923 12.3258C5.4684 11.8069 6.08201 11.4189 6.7631 11.1976C7.44419 10.9763 8.1707 10.929 8.8752 11.06C9.5797 11.191 10.2394 11.4961 10.793 11.947C10.1903 11.4888 9.50172 11.1537 8.76723 10.9609C8.03274 10.7682 7.26692 10.7218 6.51417 10.8243C5.76142 10.9268 5.03671 11.1763 4.38204 11.5582C3.72738 11.9401 3.15578 12.4469 2.70039 13.0492C2.58862 13.1942 2.48483 13.345 2.38947 13.5011C1.46576 15.1224 2.19095 17.8101 4.56502 21.564C5.7797 22.8601 7.05285 23.7464 7.86777 23.7464C8.72122 23.7464 10.0769 22.7753 11.3409 21.3795C9.85432 22.4067 8.49657 22.4327 7.26768 21.4576C6.3887 20.447 6.23762 19.737 6.81444 19.3277C6.32022 19.1675 5.86727 18.9024 5.4872 18.551C5.10714 18.1995 4.80913 17.7702 4.61397 17.2929L4.63164 17.3176C4.42874 17.0392 4.26328 16.7358 4.13942 16.4151Z" fill="#3F266F"/>
</g>
<g opacity="0.48">
<path fill-rule="evenodd" clip-rule="evenodd" d="M6.23837 18.6236C6.85478 18.9029 7.53286 19.0222 8.20872 18.9703C8.88458 18.9184 9.53598 18.697 10.1015 18.3269C10.6671 17.9568 11.1282 17.4503 11.4413 16.855C11.7545 16.2597 11.9095 15.5952 11.8916 14.9242C12.0837 15.6406 12.0438 16.3987 11.7775 17.0914C11.5112 17.7841 11.032 18.3766 10.4075 18.7853C9.78296 19.194 9.04463 19.3982 8.29662 19.3692C7.54862 19.3402 6.82869 19.0794 6.23837 18.6236Z" fill="white"/>
</g>
<path d="M7.86867 24C6.82168 24 5.14923 22.7632 3.60821 20.8491C1.95797 18.7999 0.972626 16.5802 0.972626 14.9112C0.972626 11.1454 4.06644 8.08202 7.86957 8.08202C11.6727 8.08202 14.767 11.1454 14.767 14.9112C14.767 16.5802 13.7816 18.7999 12.1314 20.8491C10.5886 22.7632 8.9161 24 7.86867 24ZM7.86867 8.58914C4.34835 8.58914 1.48388 11.425 1.48388 14.9112C1.48388 16.4694 2.42753 18.5706 4.00752 20.5327C5.41256 22.2753 6.9989 23.4947 7.86867 23.4947C8.73843 23.4947 10.3261 22.2771 11.7303 20.5327C13.3107 18.5706 14.2539 16.4694 14.2539 14.9112C14.2539 11.425 11.3899 8.58914 7.86867 8.58914ZM7.86867 19.2088C7.02845 19.2088 6.2071 18.9621 5.50849 18.4999C4.80987 18.0376 4.26537 17.3807 3.94383 16.612C3.62229 15.8434 3.53816 14.9976 3.70208 14.1817C3.866 13.3657 4.2706 12.6162 4.86473 12.0279C5.45885 11.4396 6.21581 11.039 7.03988 10.8767C7.86396 10.7143 8.71813 10.7976 9.49439 11.116C10.2706 11.4344 10.9341 11.9736 11.4009 12.6653C11.8677 13.3571 12.1169 14.1703 12.1169 15.0023C12.1151 16.1171 11.6669 17.1858 10.8707 17.974C10.0744 18.7621 8.99502 19.2056 7.86912 19.207L7.86867 19.2088ZM7.86867 11.3034C7.12973 11.3034 6.40738 11.5204 5.79298 11.9269C5.17858 12.3334 4.69972 12.9112 4.41696 13.5872C4.1342 14.2632 4.06024 15.007 4.20443 15.7246C4.34863 16.4422 4.7045 17.1014 5.22704 17.6187C5.74958 18.1361 6.41532 18.4884 7.14008 18.6311C7.86483 18.7738 8.61604 18.7004 9.29871 18.4204C9.98137 18.1403 10.5648 17.6661 10.9753 17.0577C11.3858 16.4493 11.6048 15.734 11.6047 15.0023C11.6035 14.0217 11.2096 13.0815 10.5093 12.3881C9.80896 11.6947 8.8595 11.3046 7.86912 11.3034H7.86867Z" fill="#3F266F"/>
<path d="M14.2612 14.8793C14.2435 14.8784 14.2263 14.874 14.2104 14.8663C14.1944 14.8587 14.1801 14.848 14.1683 14.8349C14.1564 14.8219 14.1475 14.8066 14.142 14.79C14.1359 14.7737 14.1335 14.7562 14.1347 14.7389L14.355 10.9044C14.3579 10.8698 14.3741 10.8377 14.4003 10.8147C14.4134 10.8029 14.4287 10.7939 14.4454 10.7881C14.462 10.7824 14.4797 10.7799 14.4973 10.781C14.871 10.8026 15.2207 10.9702 15.4697 11.247C15.7187 11.5237 15.8466 11.887 15.8253 12.2571L15.7501 13.5644C15.7286 13.9347 15.5598 14.2815 15.2805 14.5288C15.0015 14.7754 14.635 14.9021 14.2616 14.8811L14.2612 14.8793Z" fill="white"/>
<path d="M14.3423 14.913C14.3151 14.913 14.2875 14.913 14.2594 14.9107C14.2377 14.9095 14.2165 14.904 14.197 14.8946C14.1774 14.8852 14.16 14.8721 14.1456 14.856C14.1166 14.8236 14.1016 14.7812 14.1039 14.7379L14.3246 10.9044C14.326 10.8829 14.3316 10.8619 14.3409 10.8425C14.3505 10.8232 14.3637 10.806 14.3799 10.7918C14.396 10.7773 14.4148 10.7662 14.4352 10.759C14.4558 10.7521 14.4775 10.7492 14.4991 10.7505C14.8808 10.7728 15.238 10.9442 15.4922 11.227C15.7465 11.5097 15.877 11.8809 15.8552 12.2588L15.78 13.5662C15.7587 13.9298 15.5981 14.2716 15.3309 14.5219C15.0637 14.7722 14.7101 14.9121 14.3423 14.913ZM14.263 14.8501C14.6284 14.8696 14.9867 14.745 15.2595 14.5035C15.5324 14.2621 15.6975 13.9234 15.7188 13.5617L15.794 12.2544C15.8148 11.8925 15.6898 11.5372 15.4463 11.2666C15.2029 10.9959 14.8609 10.8319 14.4955 10.8106C14.482 10.8095 14.4684 10.8112 14.4556 10.8156C14.4296 10.8248 14.4083 10.8438 14.3962 10.8685C14.3902 10.8805 14.3868 10.8937 14.3863 10.9071L14.1655 14.7415C14.1647 14.7551 14.1665 14.7686 14.1711 14.7814C14.1756 14.7942 14.1826 14.806 14.1918 14.816C14.2101 14.8362 14.2357 14.8484 14.263 14.8501Z" fill="#371944"/>
<g opacity="0.35">
<path d="M15.7845 12.95L15.7496 13.5635C15.7284 13.9336 15.5597 14.2802 15.2805 14.5271C15.0013 14.774 14.6345 14.9011 14.2607 14.8802C14.2258 14.8774 14.1933 14.8613 14.1701 14.8354C14.1464 14.8089 14.1341 14.7742 14.1361 14.7389L14.1945 13.7197C14.2036 13.7434 14.2194 13.7641 14.2399 13.7794C14.2607 13.7946 14.2856 13.8037 14.3115 13.8054L14.4021 13.8103C14.6944 13.8269 14.9846 13.7529 15.2324 13.5987C15.4802 13.4444 15.6733 13.2175 15.7849 12.9496L15.7845 12.95Z" fill="#371944"/>
</g>
<path d="M14.3423 15.0526C14.3121 15.0526 14.2819 15.0517 14.2517 15.0499C14.1708 15.045 14.0951 15.0086 14.0412 14.9486C13.9874 14.8887 13.9597 14.81 13.9643 14.7299L14.1864 10.8959C14.1909 10.8158 14.2274 10.7407 14.2879 10.6872C14.3483 10.6336 14.4277 10.6061 14.5086 10.6105C14.9275 10.6353 15.3193 10.8235 15.5984 11.1338C15.8774 11.4441 16.0209 11.8512 15.9975 12.266L15.9223 13.5734C15.8987 13.9728 15.7221 14.3483 15.4285 14.6232C15.1349 14.8981 14.7464 15.0516 14.3423 15.0526ZM14.3074 14.7128C14.6302 14.7215 14.9437 14.605 15.1812 14.3883C15.4186 14.1715 15.5613 13.8716 15.5787 13.5523L15.654 12.245C15.6723 11.9262 15.5647 11.6128 15.3539 11.3712C15.1431 11.1296 14.8457 10.9786 14.5245 10.9502L14.3074 14.7128Z" fill="#371944"/>
<path d="M1.73723 10.0576C1.77216 10.0604 1.80463 10.0765 1.82788 10.1024C1.85158 10.1289 1.86379 10.1636 1.86187 10.1989L1.64296 14.0325C1.64062 14.0676 1.62446 14.1005 1.59794 14.124C1.57141 14.1475 1.53664 14.1597 1.50109 14.1581C1.12753 14.1365 0.777914 13.9689 0.529009 13.6923C0.280103 13.4156 0.152261 13.0524 0.173555 12.6825L0.248793 11.3747C0.259039 11.1914 0.305684 11.0119 0.386059 10.8465C0.466435 10.681 0.578963 10.5329 0.717207 10.4106C0.855452 10.2882 1.0167 10.1941 1.19173 10.1335C1.36675 10.0729 1.55212 10.0471 1.73723 10.0576Z" fill="white"/>
<path d="M1.50927 14.1882H1.4993C1.11747 14.1662 0.760089 13.9949 0.505776 13.7121C0.251463 13.4292 0.121042 13.0579 0.143203 12.6798L0.21844 11.3725C0.22886 11.1851 0.276491 11.0017 0.358608 10.8326C0.440724 10.6634 0.555714 10.512 0.696996 10.387C0.838278 10.2619 1.00308 10.1657 1.18197 10.1038C1.36085 10.0419 1.55032 10.0155 1.73951 10.0261C1.76115 10.0274 1.78233 10.0328 1.80185 10.0421C1.82137 10.0514 1.83884 10.0644 1.85328 10.0804C1.88229 10.113 1.89726 10.1556 1.89497 10.1989L1.67425 14.0329C1.67183 14.0746 1.65347 14.1138 1.62291 14.1425C1.59235 14.1713 1.55188 14.1875 1.50972 14.1877L1.50927 14.1882ZM1.65476 10.0854C1.30259 10.0862 0.964051 10.2203 0.708421 10.4601C0.452792 10.7 0.299397 11.0275 0.279628 11.3756L0.20439 12.683C0.193726 12.8622 0.21887 13.0419 0.278383 13.2115C0.337895 13.3812 0.430609 13.5375 0.551218 13.6717C0.671827 13.8058 0.817964 13.9151 0.981269 13.9932C1.14457 14.0714 1.32184 14.1169 1.50292 14.1272C1.51652 14.1281 1.53019 14.1263 1.54305 14.1218C1.55592 14.1174 1.56772 14.1103 1.57771 14.1011C1.58797 14.0922 1.59631 14.0813 1.60223 14.0691C1.60815 14.057 1.61152 14.0437 1.61215 14.0302L1.83288 10.1962C1.83375 10.1827 1.83187 10.1691 1.82735 10.1563C1.82284 10.1436 1.81578 10.1318 1.80659 10.1217C1.78829 10.1016 1.76274 10.0894 1.73543 10.0876C1.70869 10.0863 1.6815 10.0854 1.65476 10.0854Z" fill="#371944"/>
<g opacity="0.35">
<path d="M1.7046 12.9688L1.64341 14.0325C1.64108 14.0677 1.62485 14.1006 1.59823 14.1241C1.5716 14.1476 1.53672 14.1599 1.50109 14.1581C1.12753 14.1365 0.777914 13.9689 0.529009 13.6923C0.280103 13.4156 0.152261 13.0524 0.173555 12.6825L0.205282 12.1314C0.302754 12.3821 0.471132 12.5997 0.690257 12.7581C0.909382 12.9165 1.16997 13.009 1.44081 13.0245L1.58177 13.0326C1.60614 13.0338 1.6304 13.0286 1.65201 13.0174C1.67362 13.0062 1.69178 12.9894 1.7046 12.9688Z" fill="#371944"/>
</g>
<path d="M1.50881 14.3278H1.49114C1.28357 14.3159 1.08041 14.2636 0.893261 14.1739C0.706111 14.0842 0.53864 13.9589 0.400415 13.8051C0.262191 13.6513 0.155922 13.4721 0.0876806 13.2776C0.019439 13.0831 -0.00943807 12.8773 0.00269917 12.6718L0.077937 11.3644C0.0895734 11.159 0.141973 10.9578 0.232143 10.7724C0.322313 10.587 0.448488 10.421 0.603459 10.2839C0.75843 10.1468 0.939163 10.0412 1.13533 9.9733C1.33151 9.90536 1.53927 9.87636 1.74677 9.88794C1.8277 9.8928 1.90341 9.92918 1.95734 9.98914C2.01127 10.0491 2.03903 10.1278 2.03457 10.2079L1.81294 14.0424C1.80876 14.1195 1.77483 14.1921 1.71816 14.2452C1.66149 14.2983 1.58639 14.3279 1.50836 14.3278H1.50881ZM1.65521 10.225C1.33878 10.2256 1.03457 10.346 0.804874 10.5615C0.575178 10.7771 0.437374 11.0714 0.41968 11.3842L0.344895 12.6915C0.326212 13.0103 0.433706 13.3238 0.644573 13.5654C0.855439 13.8071 1.15309 13.9579 1.47437 13.9858L1.69011 10.2254L1.65521 10.225Z" fill="#371944"/>
<g opacity="0.35">
<path d="M12.9486 17.6461C12.7825 17.8323 12.6056 18.0089 12.4187 18.1747C11.7731 18.7527 11.0182 19.1983 10.1977 19.4858C9.37718 19.7733 8.50728 19.8971 7.63821 19.8499C6.76913 19.8028 5.9181 19.5857 5.13422 19.2111C4.35034 18.8365 3.64916 18.312 3.07113 17.6676C2.93455 17.5159 2.80583 17.3583 2.68497 17.1946C2.75663 17.1835 2.82907 17.1779 2.90162 17.178H3.89194C5.24804 16.4451 6.60685 16.056 7.39095 16.056C8.17506 16.056 9.53387 16.4433 10.8895 17.178H11.8866C11.9581 17.178 12.0295 17.1834 12.1001 17.1942C12.4262 17.246 12.7252 17.4052 12.9486 17.6461Z" fill="#371944"/>
</g>
<path d="M8.00012 19.0127C11.6442 19.0127 14.5984 16.0825 14.5984 12.4685C14.5984 8.85438 11.6442 5.92291 8.00012 5.92291C4.35607 5.92291 1.40186 8.85393 1.40186 12.4685C1.40186 16.083 4.35607 19.0127 8.00012 19.0127Z" fill="white"/>
<path d="M8.01373 19.0445C7.72579 19.0445 7.43815 19.0262 7.15257 18.9898C3.52665 18.5266 0.957691 15.2249 1.42453 11.6297C1.64937 9.90308 2.5577 8.33566 3.94969 7.27221C5.34167 6.20876 7.10329 5.73639 8.84701 5.95903C10.5907 6.18167 12.1737 7.08107 13.2477 8.45938C14.3217 9.83768 14.7988 11.582 14.5739 13.3086L14.5431 13.3045L14.5739 13.3086C14.3696 14.8901 13.5913 16.344 12.3843 17.3994C11.1773 18.4547 9.62394 19.0394 8.01373 19.0445ZM7.98653 5.95387C6.39103 5.95846 4.85171 6.53762 3.65571 7.5833C2.45972 8.62897 1.68875 10.0697 1.48662 11.6368C1.02432 15.1993 3.57016 18.4705 7.16118 18.9296C8.88803 19.1425 10.6297 18.6692 12.0049 17.6134C13.3801 16.5575 14.2768 15.0051 14.4986 13.2961C14.7204 11.5871 14.2493 9.86065 13.1884 8.4948C12.1275 7.12896 10.5633 6.23499 8.83817 6.00862C8.55563 5.97222 8.271 5.95393 7.98608 5.95387H7.98653Z" fill="#371944"/>
<g opacity="0.35">
<path d="M14.5979 12.398C14.6014 12.701 14.5836 13.0039 14.5444 13.3045C14.0781 16.889 10.7717 19.421 7.15664 18.9592C3.5416 18.4974 0.99031 15.2181 1.45533 11.6337C1.46848 11.5305 1.48434 11.4277 1.50066 11.3267C1.53193 14.5418 3.94815 17.3243 7.2568 17.7471C10.7685 18.194 13.9888 15.8186 14.5979 12.398Z" fill="#371944"/>
</g>
<path d="M8.01371 19.1832C7.72017 19.1833 7.42692 19.1647 7.13579 19.1275C3.43372 18.6545 0.809466 15.2828 1.28582 11.6113C1.45476 10.3347 1.99152 9.13332 2.83189 8.15086C3.67226 7.1684 4.78066 6.44645 6.02453 6.07135C7.26839 5.69626 8.59505 5.6839 9.84582 6.03577C11.0966 6.38763 12.2185 7.08881 13.0774 8.05545C13.9363 9.02208 14.4958 10.2132 14.6889 11.4864C14.8821 12.7596 14.7007 14.061 14.1666 15.2348C13.6324 16.4087 12.7681 17.4053 11.6769 18.1055C10.5857 18.8057 9.31397 19.1799 8.01371 19.1832ZM7.98652 6.09299C6.42517 6.09791 4.9189 6.66486 3.74852 7.68817C2.57813 8.71147 1.8235 10.1213 1.6253 11.6548C1.17206 15.141 3.66488 18.3417 7.1793 18.7905C8.87253 19.006 10.5829 18.5466 11.934 17.5135C13.2852 16.4803 14.1666 14.958 14.3842 13.2814C14.6019 11.6048 14.1379 9.9113 13.0945 8.57339C12.0511 7.23548 10.5137 6.36279 8.82048 6.14729C8.54394 6.11177 8.26537 6.09393 7.98652 6.09389V6.09299Z" fill="#371944"/>
<path d="M14.5036 13.4679C14.3618 14.7008 13.8293 15.8575 12.9826 16.7723C12.3648 17.4455 10.0229 18.4804 7.30982 18.1999C4.79389 17.9396 2.65867 16.3536 2.20906 15.5606C1.59037 14.4811 1.33255 13.2355 1.47255 12.0021C1.85735 8.63625 4.93439 7.56724 8.53266 7.97204C12.1309 8.37685 14.8866 10.1006 14.5036 13.4679Z" fill="#371944"/>
<path d="M8.24892 18.4184C7.92859 18.4184 7.60847 18.4019 7.28986 18.3691C4.68374 18.0998 2.53085 16.4765 2.05812 15.644C1.42129 14.5339 1.15615 13.2524 1.30076 11.9837C1.48885 10.3318 2.30241 9.13351 3.71652 8.42129C4.95115 7.80062 6.62179 7.58699 8.54806 7.80331C10.4743 8.01962 12.0561 8.59945 13.1194 9.47863C14.3377 10.4866 14.8599 11.8356 14.6713 13.4872C14.5257 14.7555 13.9779 15.9454 13.1067 16.8863C12.5669 17.4751 10.6738 18.4184 8.24892 18.4184ZM7.13531 8.06046C5.85808 8.06046 4.74719 8.28486 3.87198 8.72422C2.56665 9.38124 1.81564 10.4906 1.64068 12.0219C1.5046 13.2198 1.7553 14.4295 2.3568 15.4775C2.78647 16.2342 4.87138 17.7776 7.32612 18.0311C10.0456 18.3125 12.3041 17.2579 12.8556 16.6579C13.6785 15.7697 14.1958 14.6461 14.3332 13.4486C14.5082 11.9178 14.0268 10.6697 12.9023 9.73937C11.8907 8.90283 10.3728 8.34813 8.51316 8.14079C8.05622 8.08845 7.59666 8.06163 7.13667 8.06046H7.13531Z" fill="#371944"/>
<g opacity="0.7">
<path d="M13.2464 13.0137C13.4322 12.4016 13.2201 11.7966 12.7727 11.6629C12.3254 11.5291 11.8119 11.9178 11.626 12.5304C11.4402 13.143 11.6523 13.7479 12.1001 13.8812C12.5479 14.0145 13.061 13.6268 13.2464 13.0137Z" fill="white"/>
</g>
<g opacity="0.7">
<path d="M11.5635 15.1253C11.6868 14.8587 11.6002 14.5571 11.369 14.4521C11.1379 14.3471 10.851 14.4777 10.7277 14.7447C10.6044 15.0117 10.691 15.3128 10.9217 15.4179C11.1524 15.5229 11.4398 15.3923 11.5635 15.1253Z" fill="white"/>
</g>
<g opacity="0.35">
<path d="M13.5935 10.1863C14.3033 11.0296 14.6559 12.1161 14.5 13.4701C14.3583 14.703 13.826 15.8597 12.9794 16.7745C12.3616 17.4477 10.0198 18.4826 7.30621 18.2021C6.34806 18.1034 5.44793 17.8121 4.67017 17.445C8.01281 17.7192 10.8669 16.446 11.6328 15.6117C12.7075 14.4508 13.3833 12.9826 13.5632 11.4178C13.6114 11.0091 13.6211 10.5968 13.5922 10.1863H13.5935Z" fill="#101928"/>
</g>
<path d="M14.277 10.6226C14.2515 10.6226 14.2264 10.617 14.2034 10.6061C14.1804 10.5952 14.1602 10.5794 14.1442 10.5598C14.1376 10.5519 14.1318 10.5433 14.127 10.5342C13.1983 8.87368 11.166 7.75485 8.55214 7.46045C5.92335 7.1647 3.68752 7.83384 2.42071 9.29643C2.40535 9.31512 2.38621 9.33041 2.36451 9.34131C2.3433 9.35163 2.32014 9.35744 2.29652 9.35837C2.27282 9.35956 2.24912 9.35591 2.2269 9.34765C2.20468 9.33939 2.18441 9.32669 2.16735 9.31035C2.13613 9.27897 2.11842 9.23682 2.11795 9.19277C2.11715 9.14884 2.13337 9.10629 2.16327 9.07384C3.50577 7.52687 5.84766 6.81689 8.59021 7.12566C11.3128 7.43218 13.4399 8.61204 14.4225 10.3645C14.4391 10.39 14.4484 10.4195 14.4492 10.4498C14.4502 10.4802 14.4429 10.5103 14.4279 10.5369C14.4136 10.564 14.3921 10.5867 14.3656 10.6026C14.3392 10.6184 14.3088 10.6267 14.2779 10.6266L14.277 10.6226Z" fill="#371944"/>
<g opacity="0.7">
<path d="M2.70491 14.1702C2.70491 14.1702 2.03321 10.7298 3.98849 9.60923C5.94376 8.48861 8.54128 8.7857 8.46151 8.94413C8.46151 8.94413 5.50775 9.31123 4.12536 11.4389C3.0598 13.0797 2.70491 14.1702 2.70491 14.1702Z" fill="white"/>
</g>
<path d="M5.97593 4.65103C5.84697 5.16893 5.7459 5.69326 5.67317 6.22178C5.66565 6.27702 5.67449 6.33323 5.69863 6.38359C5.72277 6.43394 5.76116 6.47626 5.80914 6.50541C6.5171 6.93266 9.49081 8.57387 13.09 8.37461C13.09 8.37461 13.6937 6.67595 13.8696 6.08311" fill="white"/>
<path d="M12.4781 8.56176C9.15904 8.56176 6.49535 7.11667 5.72122 6.65083C5.64462 6.60457 5.58325 6.53727 5.54455 6.45712C5.50585 6.37698 5.49149 6.28743 5.50321 6.19935C5.5766 5.66412 5.67903 5.13319 5.81005 4.60885C5.81499 4.58672 5.8244 4.5658 5.83772 4.54737C5.85104 4.52894 5.86799 4.51336 5.88756 4.50159C5.90703 4.48959 5.92877 4.48165 5.95145 4.47826C5.97412 4.47486 5.99726 4.47608 6.01945 4.48185C6.04155 4.48758 6.06232 4.49749 6.08064 4.51102C6.09886 4.52492 6.11424 4.54213 6.12596 4.56173C6.13729 4.58143 6.14453 4.60316 6.14725 4.62567C6.14998 4.64817 6.14813 4.67099 6.14182 4.69278C6.01491 5.20424 5.91521 5.72196 5.84314 6.24378C5.83996 6.26645 5.84358 6.28955 5.85356 6.3102C5.86377 6.33073 5.87944 6.34811 5.89889 6.36047C6.68888 6.83708 9.51257 8.36564 12.9694 8.21081C13.1054 7.82889 13.5614 6.531 13.7087 6.0351C13.722 5.99253 13.7518 5.95687 13.7914 5.93585C13.8311 5.91482 13.8776 5.9101 13.9208 5.92272C13.9639 5.93534 14.0004 5.96428 14.0222 6.00328C14.044 6.04228 14.0494 6.08821 14.0373 6.13114C13.8619 6.72129 13.279 8.3616 13.2545 8.43116C13.2434 8.46273 13.223 8.49034 13.1961 8.51053C13.1692 8.53073 13.1368 8.54261 13.1031 8.54471C12.8919 8.55638 12.6836 8.56206 12.4781 8.56176Z" fill="#371944"/>
<g opacity="0.3">
<path d="M13.9598 5.78827C13.8319 6.21911 13.3764 7.29216 13.1376 7.84416C12.7845 7.79901 12.4491 7.6646 12.1637 7.45386C11.8783 7.24313 11.6526 6.96317 11.5082 6.64097C10.5876 7.25491 9.38747 7.38595 8.3355 6.87972C7.71422 6.58062 7.21033 6.08641 6.90236 5.47412C6.55925 5.53414 6.20642 5.50791 5.87622 5.39783C5.91055 5.04485 5.97345 4.69517 6.06432 4.35216L13.9598 5.78827Z" fill="#371944"/>
</g>
<path d="M15.5098 6.08446C14.9868 7.15436 13.7096 7.61033 12.659 7.1059C12.2188 6.89421 11.8686 6.53505 11.6704 6.09209C10.7495 6.70603 9.54974 6.83662 8.49777 6.33084C7.87606 6.0321 7.37167 5.53803 7.06326 4.92569C6.63223 5.00152 6.18802 4.94041 5.79419 4.75112C4.71412 4.23142 4.28944 2.8891 4.84239 1.75322C5.39534 0.617347 6.73059 0.117848 7.81066 0.637991C7.90314 0.68197 7.99195 0.733143 8.07626 0.791027C9.01265 0.105731 10.2713 -0.0616665 11.3681 0.467901C12.4187 0.973683 13.0578 1.98973 13.1398 3.08657C13.614 2.96732 14.1155 3.0182 14.5553 3.23018C15.6064 3.73551 16.0342 5.01321 15.5098 6.08446Z" fill="white"/>
<g opacity="0.3">
<path d="M15.5103 6.08537C14.9863 7.15527 13.7091 7.61124 12.659 7.10635C12.219 6.89451 11.8688 6.53539 11.6704 6.09255C10.7499 6.70649 9.54974 6.83753 8.49777 6.3313C7.87606 6.03256 7.37167 5.53849 7.06326 4.92615C6.63302 5.00194 6.18958 4.94099 5.79646 4.75202C5.07127 4.40197 4.63888 3.67942 4.60489 2.89898C4.5893 2.50303 4.67341 2.10945 4.84964 1.75368C5.40622 0.617805 6.7324 0.118306 7.81292 0.638449C7.90511 0.682433 7.99362 0.733606 8.07761 0.791485C9.01446 0.106188 10.2731 -0.0612088 11.3699 0.468359C12.0171 0.780391 12.5362 1.30329 12.8403 1.94935C12.8597 1.98929 12.8779 2.02969 12.8937 2.06963C13.0322 2.3936 13.116 2.73793 13.1417 3.08882C13.5791 2.97899 14.0408 3.01358 14.4565 3.18734C14.8723 3.36109 15.2194 3.66451 15.445 4.05147C15.623 4.35936 15.7221 4.70578 15.7334 5.06037C15.7448 5.41496 15.6682 5.76691 15.5103 6.08537Z" fill="#371944"/>
</g>
<path d="M15.3498 5.22099C14.8264 6.29045 13.9357 6.69211 13.0478 5.95162C12.504 5.49879 12.6889 4.95621 12.6975 4.54647C11.9125 5.61952 10.08 6.22762 8.51998 5.34217C7.67514 4.86241 7.12762 3.96843 7.0406 3.38277C6.47451 4.4778 5.86218 4.19686 5.46061 3.99222C4.84964 3.67897 4.81066 3.25486 4.60671 2.89763C4.59055 2.50211 4.67404 2.10883 4.84964 1.75322C5.40622 0.617347 6.7324 0.117848 7.81247 0.637542C7.90472 0.68185 7.99337 0.733165 8.07761 0.791027C9.01446 0.105731 10.2727 -0.0616665 11.3695 0.467901C12.0167 0.779933 12.5358 1.30283 12.8398 1.94889C12.8448 1.99377 12.8493 2.03506 12.8525 2.07859C12.8661 2.075 12.8797 2.07186 12.8937 2.06917C13.032 2.39321 13.1158 2.7375 13.1417 3.08836C13.5791 2.97822 14.0409 3.01267 14.4567 3.18646C14.8725 3.36024 15.2196 3.66384 15.445 4.05101C15.5665 4.4386 15.5324 4.85765 15.3498 5.22099Z" fill="white"/>
<path d="M13.6176 7.37298C13.2302 7.37227 12.8496 7.27228 12.5129 7.08275C12.1761 6.89322 11.8946 6.62059 11.6958 6.29141C11.2294 6.59009 10.6956 6.76977 10.142 6.81441C9.58837 6.85904 9.03221 6.76725 8.52315 6.54722C7.89672 6.27166 7.37297 5.80907 7.02519 5.22419C6.6002 5.28995 6.16506 5.23292 5.77198 5.05994C5.48665 4.93349 5.23071 4.75014 5.02015 4.52134C4.8096 4.29255 4.64895 4.02322 4.54824 3.73019C4.33535 3.12297 4.36552 2.45808 4.63254 1.87221C5.1864 0.634011 6.59915 0.0501403 7.78074 0.570732C7.84782 0.600352 7.91082 0.631767 7.97065 0.665426C8.95418 -0.0526317 10.2305 -0.203424 11.3305 0.280816C11.8365 0.507674 12.278 0.854969 12.6156 1.29175C12.9532 1.72853 13.1764 2.24122 13.2654 2.78414C13.7915 2.68122 14.3373 2.7682 14.8042 3.02932C15.2712 3.29044 15.6282 3.70846 15.8108 4.20769C16.0229 4.78282 16.0015 5.41697 15.7511 5.97681C15.5007 6.53664 15.0409 6.97855 14.4683 7.20962C14.1982 7.31738 13.9097 7.37298 13.6185 7.37343L13.6176 7.37298ZM11.7561 5.87808C11.7952 5.87795 11.8332 5.89128 11.8635 5.91577C11.8827 5.93137 11.8982 5.95099 11.9088 5.97322C12.12 6.40382 12.4887 6.73875 12.9401 6.91002C13.3916 7.0813 13.8919 7.0761 14.3396 6.89547C14.8297 6.69745 15.2232 6.31907 15.4376 5.83981C15.6519 5.36056 15.6703 4.81771 15.489 4.32528C15.3247 3.87474 14.9933 3.50305 14.5622 3.28573C14.1311 3.06841 13.6325 3.02177 13.1679 3.15529C13.1441 3.16231 13.1191 3.164 13.0945 3.16023C13.0573 3.15449 13.023 3.13673 12.997 3.1097C12.971 3.08267 12.9548 3.04789 12.9508 3.01078C12.8344 1.94447 12.1595 1.01683 11.1909 0.590479C10.1716 0.141693 8.98273 0.299665 8.08758 1.00246C8.05948 1.02441 8.02515 1.03712 7.9894 1.03881C7.95364 1.0405 7.91825 1.03109 7.88816 1.01189C7.80935 0.961845 7.72677 0.917883 7.64114 0.880394C6.63178 0.436096 5.42027 0.942776 4.94437 2.00954C4.71312 2.51647 4.68653 3.09181 4.87004 3.61754C4.95547 3.86671 5.09185 4.09577 5.27066 4.29043C5.44947 4.48509 5.66688 4.64117 5.90932 4.74893C6.27602 4.91023 6.68487 4.95249 7.07731 4.86965C7.11315 4.86197 7.15055 4.86607 7.18383 4.88132C7.21718 4.89658 7.24467 4.92207 7.26224 4.95403C7.57291 5.52365 8.06585 5.97496 8.66365 6.2371C9.63177 6.663 10.7785 6.53734 11.655 5.90859C11.6844 5.88782 11.7196 5.87682 11.7557 5.87718L11.7561 5.87808Z" fill="#371944"/>
<path d="M12.4718 5.31254C12.4414 5.3848 12.4088 5.44987 12.3734 5.51629C12.3381 5.58271 12.3 5.64689 12.2606 5.71062C12.1808 5.83831 12.0942 5.96174 12.0013 6.08042C11.9804 6.10715 11.9518 6.12711 11.9194 6.13778C11.887 6.14846 11.8521 6.14936 11.8191 6.14037C11.7861 6.13138 11.7566 6.11291 11.7343 6.0873C11.7119 6.06169 11.6978 6.03009 11.6936 5.99649C11.6878 5.9514 11.7004 5.90587 11.7285 5.86994C11.7376 5.85816 11.7483 5.84761 11.7602 5.83852C11.8725 5.75366 11.9802 5.66303 12.0829 5.56701C12.1341 5.51854 12.1844 5.46827 12.2329 5.41666C12.2814 5.36505 12.329 5.3103 12.3689 5.2569V5.2542C12.3775 5.24281 12.3899 5.23493 12.404 5.23205C12.418 5.22918 12.4326 5.2315 12.445 5.23859C12.4574 5.24568 12.4668 5.25704 12.4713 5.2705C12.4758 5.28397 12.4752 5.29861 12.4695 5.31165L12.4718 5.31254Z" fill="#371944"/>
<path d="M6.97987 4.15961C6.99211 4.22603 7.00978 4.29649 7.02882 4.3638C7.04785 4.43112 7.07006 4.49844 7.09363 4.56576C7.14079 4.6981 7.19511 4.82784 7.25635 4.95441C7.27479 4.99503 7.27654 5.04117 7.26123 5.08306C7.24592 5.12494 7.21474 5.15928 7.17431 5.1788C7.15403 5.18848 7.13202 5.1941 7.10954 5.19533C7.08706 5.19656 7.06456 5.19339 7.04332 5.18598C7.00021 5.17126 6.96471 5.1403 6.94452 5.09981C6.93835 5.08679 6.93378 5.07308 6.93092 5.05897C6.90259 4.91053 6.88202 4.76073 6.86928 4.61019C6.86384 4.53524 6.85976 4.46074 6.8584 4.38579C6.85704 4.31085 6.8584 4.2377 6.86384 4.1614C6.86505 4.14729 6.87132 4.13408 6.88152 4.12415C6.89178 4.11461 6.90508 4.1089 6.91913 4.108C6.9334 4.10715 6.94747 4.11163 6.95857 4.12056C6.96952 4.12927 6.97705 4.14149 6.97987 4.15512V4.15961Z" fill="#371944"/>
</svg>
