<svg width="16" height="14" viewBox="0 0 16 14" fill="none" xmlns="http://www.w3.org/2000/svg">
<path d="M15.9693 2.89037L10.3573 8.24728C9.73158 8.84308 8.88383 9.17766 8 9.17766C7.11617 9.17766 6.26842 8.84308 5.64267 8.24728L0.0306667 2.89037C0.0213333 2.99091 0 3.08191 0 3.18182V10.8182C0.00105857 11.6617 0.352588 12.4705 0.97748 13.067C1.60237 13.6634 2.4496 13.999 3.33333 14H12.6667C13.5504 13.999 14.3976 13.6634 15.0225 13.067C15.6474 12.4705 15.9989 11.6617 16 10.8182V3.18182C16 3.08191 15.9787 2.99091 15.9693 2.89037Z" fill="#50429B"/>
<path d="M9.41467 7.34746L15.504 1.53427C15.209 1.06738 14.793 0.680933 14.296 0.412192C13.799 0.143451 13.2379 0.00148952 12.6667 0H3.33334C2.76215 0.00148952 2.201 0.143451 1.70402 0.412192C1.20704 0.680933 0.790988 1.06738 0.496002 1.53427L6.58534 7.34746C6.96105 7.70466 7.46972 7.90521 8 7.90521C8.53028 7.90521 9.03895 7.70466 9.41467 7.34746Z" fill="#50429B"/>
</svg>
