<svg width="24" height="22" viewBox="0 0 18 22" fill="none" xmlns="http://www.w3.org/2000/svg">
<path d="M9.01649 21.125C8.79038 20.9677 8.5072 20.9047 8.26792 20.7694C7.54351 20.3603 6.80592 19.969 6.1062 19.5237C4.48724 18.4936 2.98572 17.3277 1.75531 15.8748C1.0276 15.0157 0.413494 14.0863 0.248854 12.9739C0.108635 12.0428 0.0269004 11.1046 0.00408858 10.1642C-0.0133034 9.15749 0.0247995 8.15064 0.118239 7.1478C0.202754 6.21315 0.386054 5.2869 0.521607 4.35593C0.539881 4.22919 0.585093 4.10737 0.654462 3.99796C0.723831 3.88855 0.81589 3.79386 0.924976 3.71972C1.07952 3.60131 1.25103 3.5047 1.43426 3.43282C3.77709 2.60937 6.12431 1.79745 8.46714 0.974523C8.82703 0.841826 9.2257 0.841826 9.58559 0.974523C11.6919 1.71196 13.7993 2.44485 15.9078 3.1732C16.1712 3.26446 16.4374 3.3531 16.6915 3.46481C17.0948 3.64209 17.4664 3.88441 17.5437 4.33023C17.8376 6.00045 17.9901 7.69059 17.9998 9.38424C18.0036 10.3703 17.9515 11.3584 17.8736 12.3418C17.8368 12.8367 17.735 13.3252 17.5706 13.7957C17.1865 14.8741 16.4643 15.7584 15.6564 16.5782C14.3481 17.9067 12.8499 19.0134 11.2287 19.9664C10.5114 20.3855 9.74749 20.7306 9.01649 21.125ZM8.06651 12.462C8.06651 12.7363 8.06267 13.0111 8.06651 13.2859C8.0753 13.8104 8.50116 14.2185 9.02801 14.2159C9.55486 14.2132 9.97085 13.8094 9.97469 13.2786C9.97799 12.7541 9.98183 12.2322 9.97469 11.7093C9.96751 11.6361 9.98266 11.5625 10.0183 11.4973C10.0539 11.4322 10.1086 11.3783 10.1756 11.3422C10.8072 10.9357 11.1365 10.3504 11.1146 9.63022C11.0668 8.03734 9.30351 7.07542 7.6143 8.03629C7.28941 8.22091 6.9766 8.66306 6.91952 9.01971C6.75104 10.0797 7.06166 10.8974 7.90736 11.3941C7.96188 11.4193 8.00693 11.46 8.03639 11.5106C8.06585 11.5612 8.07829 11.6192 8.072 11.6768C8.05883 11.9411 8.06651 12.2002 8.06651 12.462Z" fill="#009EDB"/>
</svg>