<svg width="51" height="43" viewBox="0 0 51 43" fill="none" xmlns="http://www.w3.org/2000/svg">
<rect width="36" height="36" rx="10" fill="#FFFBF5"/>
<g filter="url(#filter0_d_4812_11973)">
<path d="M29.311 15.6989L29.311 15.6989C29.3234 15.8734 29.3532 16.0358 29.388 16.2261C29.4028 16.3064 29.4184 16.3917 29.434 16.485M29.311 15.6989L28.941 16.5682M29.311 15.6989L29.3104 15.6911C29.2976 15.5439 29.3168 15.3953 29.3674 15.2545C29.418 15.1137 29.4992 14.9826 29.6074 14.8702C29.7157 14.7577 29.8486 14.6663 29.9985 14.6032C30.1485 14.5401 30.3115 14.5069 30.4769 14.5064L30.4819 14.5063C31.0992 14.4982 31.7255 14.4982 32.3477 14.5045M29.311 15.6989L32.3477 14.5045M29.434 16.485C29.434 16.4852 29.4341 16.4854 29.4341 16.4856L28.941 16.5682M29.434 16.485C29.434 16.4848 29.434 16.4847 29.4339 16.4846L28.941 16.5682M29.434 16.485C29.5134 16.9532 29.5939 17.421 29.6759 17.897C29.7707 18.4475 29.3985 18.9544 28.8689 19.0577C25.5416 19.7064 22.8153 21.2612 20.7102 23.7961C18.6114 26.3234 17.6995 29.2082 17.7773 32.4091M28.941 16.5682C29.0205 17.0372 29.1011 17.5057 29.1831 17.9819C29.2302 18.2552 29.0454 18.5138 28.7732 18.5669C25.3404 19.2362 22.5092 20.8472 20.3255 23.4767C18.1412 26.107 17.1942 29.1166 17.2778 32.4355C17.2845 32.7011 17.5046 32.9091 17.7703 32.9091H45.1415C45.4068 32.9091 45.6269 32.7019 45.6328 32.4366C45.6659 30.9526 45.4646 29.4725 45.0359 28.0462C44.9421 27.7341 44.5732 27.6109 44.2871 27.767C41.4397 29.3195 38.4297 28.494 36.7699 26.949C35.8034 26.073 35.1613 24.9217 34.9402 23.668C34.6868 22.2411 34.9477 20.9164 35.6929 19.6753C35.8744 19.373 35.7349 18.9627 35.3949 18.8693C35.2239 18.8223 35.0544 18.7774 34.8796 18.7356C34.6208 18.6738 34.3597 18.6218 34.0946 18.569C34.0566 18.5614 34.0185 18.5538 33.9802 18.5462C33.7815 18.5064 33.6306 18.3208 33.6652 18.1211M17.7773 32.4091H17.7703C17.77 32.4091 17.7699 32.4091 17.7699 32.4091C17.7699 32.4091 17.77 32.4091 17.7703 32.4092C17.7704 32.4092 17.7706 32.4093 17.7707 32.4093C17.7713 32.4096 17.7718 32.4099 17.7725 32.4105C17.7732 32.4112 17.7745 32.4127 17.7757 32.4153C17.7771 32.4183 17.7776 32.4213 17.7776 32.4229C17.7775 32.4183 17.7774 32.4137 17.7773 32.4091ZM17.7773 32.4091H45.1333M45.1333 32.4091C45.1332 32.4145 45.1331 32.42 45.133 32.4255C45.133 32.4242 45.1332 32.4224 45.1338 32.4203C45.1342 32.4191 45.1346 32.4179 45.1352 32.4166C45.1366 32.4135 45.1381 32.4117 45.139 32.4108C45.1401 32.4098 45.1411 32.4094 45.1415 32.4092C45.1415 32.4092 45.1416 32.4092 45.1416 32.4092C45.1418 32.4091 45.1418 32.4091 45.1415 32.4091H45.1333ZM45.1333 32.4091C45.1633 30.9868 44.9701 29.5682 44.5602 28.2003M44.5602 28.2003C44.5618 28.2007 44.5632 28.2011 44.5643 28.2015C44.5676 28.2027 44.5666 28.2031 44.5635 28.2C44.562 28.1984 44.5604 28.1964 44.559 28.1941L44.5575 28.1913C44.5573 28.1907 44.5571 28.1903 44.5571 28.1901L44.5571 28.1901C44.5581 28.1935 44.5591 28.1969 44.5602 28.2003ZM44.5602 28.2003C44.5568 28.1996 44.5526 28.1992 44.5477 28.1996C44.5409 28.2001 44.5337 28.202 44.5264 28.2059C41.4706 29.8721 38.2312 28.9905 36.4316 27.3172M36.4316 27.3172C36.4324 27.318 36.4333 27.3187 36.4341 27.3195L36.7698 26.949L36.4292 27.3149C36.43 27.3157 36.4308 27.3165 36.4316 27.3172ZM36.4316 27.3172C35.3866 26.3691 34.6887 25.12 34.4479 23.7554M34.4479 23.7554L34.94 23.668L34.4478 23.7548C34.4478 23.755 34.4478 23.7552 34.4479 23.7554ZM34.4479 23.7554C34.1727 22.2056 34.459 20.7589 35.2642 19.4179C35.2734 19.4026 35.2757 19.3819 35.269 19.3632C35.2665 19.3564 35.2639 19.3528 35.2628 19.3515M35.2628 19.3515C35.2638 19.3518 35.2638 19.3519 35.2631 19.3515C35.2628 19.3514 35.2627 19.3512 35.2625 19.3511C35.2623 19.351 35.2622 19.3509 35.2623 19.351C35.2623 19.351 35.2624 19.3511 35.2625 19.3512C35.2626 19.3513 35.2627 19.3514 35.2628 19.3515ZM35.2628 19.3515C35.2627 19.3515 35.2626 19.3514 35.2624 19.3514C35.0943 19.3052 34.9306 19.2619 34.7634 19.222C34.5145 19.1625 34.2634 19.1124 33.9974 19.0594C33.9593 19.0518 33.9209 19.0442 33.8822 19.0364C33.4654 18.9531 33.0837 18.5481 33.1725 18.0357L33.6652 18.1211M33.6652 18.1211L33.1727 18.0346C33.2363 17.6727 33.301 17.311 33.3656 16.9502C33.4303 16.5891 33.4947 16.229 33.558 15.8689L33.558 15.8688C33.6859 15.1413 33.1795 14.5148 32.3477 14.5045M33.6652 18.1211L32.3477 14.5045" fill="#FFFBF5" stroke="url(#paint0_linear_4812_11973)"/>
<path d="M31.4741 35.2727H47.1537C47.8385 35.2727 47.9976 35.4588 47.9985 36.2561C47.9985 36.6778 47.9928 37.1007 47.9985 37.5225C48.0067 37.6703 47.9796 37.8178 47.9203 37.9482C47.8611 38.0786 47.772 38.1867 47.6633 38.26C46.9471 38.7866 46.2347 39.3257 45.5146 39.8388C45.3612 39.9411 45.1879 39.9947 45.0118 39.9944C35.9727 40.0019 26.933 40.0019 17.8927 39.9944C17.7059 39.9899 17.5232 39.9286 17.3622 39.8162C16.6698 39.3257 15.9936 38.8013 15.304 38.3062C15.0345 38.1123 14.8983 37.8608 14.9097 37.4796C14.9231 37.015 14.9097 36.5504 14.9097 36.0869C14.9154 35.5141 15.1183 35.275 15.6117 35.275C17.5476 35.275 19.4842 35.275 21.4214 35.275L31.4741 35.2727Z" fill="url(#paint1_linear_4812_11973)"/>
<path d="M42.3856 26.4075C45.1591 26.4075 47.4075 24.1591 47.4075 21.3856C47.4075 18.612 45.1591 16.3636 42.3856 16.3636C39.612 16.3636 37.3636 18.612 37.3636 21.3856C37.3636 24.1591 39.612 26.4075 42.3856 26.4075Z" fill="url(#paint2_linear_4812_11973)" stroke="url(#paint3_linear_4812_11973)" stroke-linecap="round" stroke-linejoin="round"/>
<path d="M42.3856 18.5159V21.3856L43.8205 22.8204" fill="url(#paint4_linear_4812_11973)"/>
<path d="M42.3856 18.5159V21.3856L43.8205 22.8204" stroke="white" stroke-linecap="round" stroke-linejoin="round"/>
</g>
<defs>
<filter id="filter0_d_4812_11973" x="13.9091" y="13" width="37.0909" height="30" filterUnits="userSpaceOnUse" color-interpolation-filters="sRGB">
<feFlood flood-opacity="0" result="BackgroundImageFix"/>
<feColorMatrix in="SourceAlpha" type="matrix" values="0 0 0 0 0 0 0 0 0 0 0 0 0 0 0 0 0 0 127 0" result="hardAlpha"/>
<feOffset dx="1" dy="1"/>
<feGaussianBlur stdDeviation="1"/>
<feComposite in2="hardAlpha" operator="out"/>
<feColorMatrix type="matrix" values="0 0 0 0 0.192157 0 0 0 0 0.239216 0 0 0 0 0.682353 0 0 0 0.25 0"/>
<feBlend mode="normal" in2="BackgroundImageFix" result="effect1_dropShadow_4812_11973"/>
<feBlend mode="normal" in="SourceGraphic" in2="effect1_dropShadow_4812_11973" result="shape"/>
</filter>
<linearGradient id="paint0_linear_4812_11973" x1="16.0909" y1="17.5455" x2="44.4545" y2="33.5" gradientUnits="userSpaceOnUse">
<stop offset="0.229167" stop-color="#FFA14A"/>
<stop offset="1" stop-color="#FF7B00"/>
</linearGradient>
<linearGradient id="paint1_linear_4812_11973" x1="6.63633" y1="35.2727" x2="45.6363" y2="40.5909" gradientUnits="userSpaceOnUse">
<stop offset="0.229167" stop-color="#FFA14A"/>
<stop offset="1" stop-color="#FF7B00"/>
</linearGradient>
<linearGradient id="paint2_linear_4812_11973" x1="37.9546" y1="16.3636" x2="43.8636" y2="20.5" gradientUnits="userSpaceOnUse">
<stop offset="0.229167" stop-color="#FFA14A"/>
<stop offset="1" stop-color="#FF7B00"/>
</linearGradient>
<linearGradient id="paint3_linear_4812_11973" x1="42.3856" y1="16.3636" x2="42.3856" y2="26.4075" gradientUnits="userSpaceOnUse">
<stop offset="0.229167" stop-color="#FFA14A"/>
<stop offset="1" stop-color="#FF7B00"/>
</linearGradient>
<linearGradient id="paint4_linear_4812_11973" x1="42.47" y1="18.5159" x2="43.6629" y2="18.7942" gradientUnits="userSpaceOnUse">
<stop offset="0.229167" stop-color="#FFA14A"/>
<stop offset="1" stop-color="#FF7B00"/>
</linearGradient>
</defs>
</svg>
