<svg width="137" height="168" viewBox="0 0 137 168" fill="none" xmlns="http://www.w3.org/2000/svg">
<g clip-path="url(#clip0_1970_6149)">
<g opacity="0.3">
<path d="M68.5 168C106.332 168 137 164.234 137 159.588C137 154.942 106.332 151.176 68.5 151.176C30.6685 151.176 0 154.942 0 159.588C0 164.234 30.6685 168 68.5 168Z" fill="#371A45"/>
</g>
<path d="M100.483 98.1259V124.483C100.485 125.668 100.247 126.841 99.783 127.932C98.5521 130.827 95.8266 132.851 92.6805 132.851H46.1815C43.536 132.851 41.1921 131.424 39.777 129.246C38.8607 127.827 38.3753 126.173 38.38 124.483V98.1259C38.3765 96.5581 38.7947 95.0182 39.5906 93.6679C40.7842 91.6464 42.7657 90.2053 45.0614 89.8462C45.4319 89.7881 45.8065 89.7591 46.1815 89.7595H92.6805C93.0504 89.7596 93.4197 89.7879 93.7853 89.844C95.485 90.1053 97.013 90.9613 98.1776 92.2048C99.5993 93.7234 100.483 95.8206 100.483 98.1259Z" fill="white"/>
<path d="M92.6805 133.741H46.1815C43.3365 133.741 40.6641 132.242 39.0346 129.733C38.024 128.17 37.4889 126.347 37.4945 124.485V98.1265C37.492 96.3995 37.9529 94.7036 38.829 93.2161C40.1893 90.9102 42.411 89.3631 44.9243 88.97C45.3402 88.9051 45.7606 88.8726 46.1815 88.8728H92.6805C93.0951 88.8731 93.5092 88.9046 93.9191 88.9672C95.7597 89.2505 97.5016 90.1861 98.8246 91.6025C100.464 93.3517 101.368 95.6696 101.368 98.1276V124.484C101.371 125.789 101.109 127.081 100.597 128.282C99.1875 131.595 96.0799 133.741 92.6805 133.741ZM46.1815 90.6467C45.8526 90.6463 45.5241 90.6715 45.199 90.7219C43.2098 91.0332 41.4438 92.2712 40.3532 94.1192C39.6385 95.3334 39.2628 96.7176 39.2655 98.127V124.483C39.2599 126.002 39.6956 127.49 40.5194 128.766C41.821 130.77 43.9379 131.967 46.1815 131.967H92.6805C95.3671 131.967 97.8344 130.247 98.9682 127.587C99.3859 126.606 99.5997 125.551 99.5965 124.485V98.1265C99.5965 96.1209 98.8635 94.2345 97.5323 92.8142C96.4631 91.6706 95.1198 90.9475 93.6509 90.7203C93.3298 90.6714 93.0054 90.6468 92.6805 90.6467H46.1815Z" fill="#371A45"/>
<path d="M124.714 128.684C124.714 128.684 118.601 157.891 116.607 158.54C113.755 159.469 106.896 158.492 106.896 158.492C106.896 158.492 92.499 156.539 79.6872 155.667C76.0033 155.417 72.4498 155.255 69.4101 155.255C66.541 155.255 63.2178 155.399 59.7603 155.625C46.7956 156.474 31.9266 158.492 31.9266 158.492C31.9266 158.492 25.0659 159.469 22.2143 158.54C20.2196 157.891 14.1046 128.684 14.1046 128.684C17.7425 123.416 26.1461 123.975 30.1535 133.268C30.9064 132.061 31.8262 130.967 32.8856 130.018C34.1853 128.859 35.6959 127.96 37.3349 127.372C37.8152 127.197 38.2955 127.049 38.7714 126.927C45.3914 125.193 51.4242 128.135 55.6772 131.347C56.0643 131.637 56.4344 131.932 56.7886 132.225C56.8237 132.257 56.8615 132.283 56.8983 132.314C57.1795 132.547 57.4465 132.78 57.7108 133.011C58.9859 134.13 60.4105 135.065 61.9436 135.79C62.1629 135.89 62.3822 135.99 62.6054 136.083C64.7596 136.994 67.0743 137.464 69.4129 137.465C73.7257 137.465 77.8746 135.862 81.1133 133.011C84.7045 129.85 90.2614 126.203 96.6106 126.423C98.2769 126.481 99.9236 126.802 101.49 127.374C103.391 128.055 105.116 129.151 106.54 130.584C107.349 131.396 108.064 132.297 108.672 133.269C112.673 123.975 121.076 123.419 124.714 128.684Z" fill="white"/>
<g opacity="0.35">
<path d="M61.079 155.543C60.7668 155.562 60.4536 155.581 60.1392 155.602C60.4554 155.582 60.7687 155.562 61.079 155.543Z" fill="#371A45"/>
</g>
<g opacity="0.35">
<path d="M63.1493 155.43C62.6898 155.452 62.2238 155.478 61.7567 155.504C62.2249 155.478 62.6891 155.453 63.1493 155.43Z" fill="#371A45"/>
</g>
<g opacity="0.35">
<path d="M61.7567 155.504L61.0812 155.543L61.7567 155.504Z" fill="#371A45"/>
</g>
<g opacity="0.35">
<path d="M124.714 128.684C124.714 128.684 118.601 157.891 116.609 158.538C113.755 159.472 106.894 158.492 106.894 158.492C106.894 158.492 89.3798 156.118 75.7927 155.437C75.7088 155.43 75.6244 155.428 75.5405 155.424C73.3622 155.317 71.2896 155.255 69.4101 155.255C68.7725 155.255 68.1107 155.262 67.4308 155.277C66.9768 155.284 66.5141 155.297 66.0448 155.313C65.1061 155.341 64.1389 155.381 63.1493 155.43C62.1596 155.479 61.1612 155.535 60.1425 155.601C60.0142 155.61 59.8881 155.616 59.7587 155.625C46.7939 156.474 31.9228 158.492 31.9228 158.492C31.9228 158.492 25.0692 159.472 22.2127 158.538C20.2202 157.889 14.1052 128.684 14.1052 128.684C14.677 127.847 15.4047 127.129 16.2484 126.569C18.2074 135.13 20.9883 146.312 22.2127 146.711C25.0665 147.64 31.9228 146.66 31.9228 146.66C31.9228 146.66 35.7608 145.617 41.2436 144.372C37.4549 140.248 34.6033 135.351 32.885 130.018C34.185 128.858 35.6957 127.96 37.3349 127.372C37.8152 127.197 38.2955 127.049 38.7714 126.927C45.3914 125.193 51.4242 128.135 55.6772 131.347C56.0643 131.637 56.4344 131.932 56.7886 132.225C56.8237 132.257 56.8615 132.283 56.8983 132.314C57.1795 132.547 57.4465 132.78 57.7108 133.011C58.9859 134.13 60.4105 135.065 61.9436 135.79C62.1629 135.89 62.3822 135.99 62.6054 136.083C64.7596 136.994 67.0743 137.464 69.4129 137.465C73.7257 137.465 77.8746 135.862 81.1133 133.011C84.7045 129.85 90.2614 126.203 96.6106 126.423C98.2769 126.481 99.9236 126.802 101.49 127.374C103.391 128.055 105.116 129.151 106.54 130.584C104.781 135.763 101.949 140.512 98.2291 144.519C103.359 145.701 106.897 146.66 106.897 146.66C106.897 146.66 113.758 147.64 116.611 146.711C117.834 146.312 120.614 135.13 122.576 126.569C123.417 127.13 124.143 127.848 124.714 128.684Z" fill="#371A45"/>
</g>
<g opacity="0.35">
<path d="M66.0448 155.313C66.5141 155.297 66.9769 155.284 67.4309 155.277C66.9769 155.286 66.5141 155.3 66.0448 155.313Z" fill="#371A45"/>
</g>
<g opacity="0.35">
<path d="M75.5405 155.424C73.3622 155.319 71.2875 155.259 69.4102 155.259C68.7725 155.259 68.1107 155.266 67.4308 155.279C68.1107 155.263 68.7725 155.257 69.4102 155.257C71.2897 155.255 73.3606 155.317 75.5405 155.424Z" fill="#371A45"/>
</g>
<path d="M25.8889 159.825C24.4047 159.825 22.9556 159.715 21.938 159.383C21.2142 159.146 20.2224 158.823 16.5516 143.576C14.7911 136.265 13.2553 128.939 13.24 128.866C13.2153 128.748 13.2148 128.627 13.2385 128.509C13.2623 128.391 13.3098 128.279 13.3782 128.18C15.182 125.567 18.1082 124.192 21.2126 124.499C24.879 124.863 28.1292 127.392 30.296 131.512C32.0802 129.183 34.3402 127.514 37.0312 126.539C42.4263 124.584 48.3374 125.501 54.1256 129.191C54.2237 129.254 54.3086 129.335 54.3753 129.43C54.442 129.526 54.4893 129.633 54.5145 129.747C54.5397 129.861 54.5423 129.978 54.5222 130.093C54.502 130.208 54.4595 130.317 54.397 130.415C54.3345 130.514 54.2534 130.599 54.1581 130.665C54.0629 130.732 53.9554 130.78 53.8419 130.805C53.7283 130.83 53.611 130.833 53.4964 130.812C53.3819 130.792 53.2724 130.75 53.1743 130.687C47.7907 127.255 42.5623 126.421 37.6343 128.207C34.8501 129.215 32.5846 131.077 30.9003 133.741C30.8141 133.878 30.6924 133.988 30.5484 134.06C30.4043 134.132 30.2433 134.163 30.0828 134.151C29.9222 134.138 29.7681 134.082 29.6371 133.988C29.5061 133.894 29.4031 133.766 29.3393 133.618C27.4702 129.281 24.4442 126.601 21.0382 126.261C18.7053 126.029 16.4968 127.006 15.0543 128.885C17.8193 142.041 21.3464 156.196 22.6091 157.733C24.8571 158.386 29.9819 157.871 31.8 157.613C32.0456 157.579 55.8818 154.369 69.4123 154.369C82.9429 154.369 106.777 157.579 107.016 157.611C108.84 157.872 113.965 158.387 116.213 157.733C117.474 156.196 121.004 142.04 123.768 128.886C122.326 127.008 120.121 126.031 117.785 126.263C114.378 126.6 111.352 129.282 109.484 133.619C109.42 133.767 109.317 133.895 109.186 133.989C109.055 134.083 108.901 134.139 108.74 134.152C108.579 134.164 108.418 134.133 108.274 134.061C108.13 133.989 108.009 133.879 107.922 133.742C106.238 131.078 103.975 129.216 101.189 128.208C96.2191 126.407 90.9446 127.269 85.5144 130.774C85.4166 130.837 85.3074 130.881 85.193 130.902C85.0786 130.922 84.9612 130.92 84.8476 130.896C84.7339 130.871 84.6262 130.824 84.5306 130.758C84.435 130.692 84.3533 130.607 84.2903 130.509C84.2273 130.412 84.1842 130.302 84.1634 130.188C84.1426 130.073 84.1445 129.956 84.1691 129.842C84.1937 129.728 84.2404 129.62 84.3066 129.524C84.3728 129.429 84.4571 129.347 84.5549 129.284C90.3908 125.517 96.3507 124.568 101.792 126.539C104.483 127.513 106.743 129.183 108.527 131.511C110.693 127.394 113.944 124.861 117.61 124.498C120.716 124.19 123.641 125.566 125.444 128.179C125.513 128.278 125.56 128.39 125.584 128.508C125.608 128.626 125.607 128.748 125.583 128.865C125.567 128.938 124.031 136.264 122.271 143.575C118.601 158.822 117.61 159.145 116.885 159.382C113.869 160.366 107.061 159.41 106.772 159.369C106.541 159.337 82.8212 156.143 69.4123 156.143C56.0035 156.143 32.2841 159.337 32.0462 159.369C31.8554 159.397 28.8047 159.825 25.8889 159.825Z" fill="#371A45"/>
<path d="M114.836 158.539H116.608C117.626 158.54 118.623 158.245 119.477 157.691C120.331 157.137 121.007 156.346 121.422 155.415C124.075 149.467 128.911 136.397 124.383 128.422C124.251 128.189 124.11 127.965 123.96 127.75C123.96 127.75 119.611 123.789 116.487 129.393C113.566 134.627 107.44 157.011 114.836 158.539Z" fill="#AFAFB2"/>
<g opacity="0.7">
<path d="M114.885 133.124C114.963 132.998 115.041 132.879 115.117 132.77C118.959 127.166 124.307 131.127 124.307 131.127C124.491 131.342 124.665 131.566 124.826 131.799C125.354 132.556 125.79 133.373 126.126 134.233C125.907 132.139 125.369 130.158 124.381 128.422C124.249 128.189 124.108 127.965 123.959 127.75C123.959 127.75 119.61 123.789 116.485 129.393C116.012 130.241 115.455 131.537 114.885 133.124Z" fill="white"/>
</g>
<path d="M126.106 134.896C126.056 134.896 126.007 134.892 125.958 134.884L115.085 133.067C114.97 133.048 114.861 133.006 114.762 132.945C114.663 132.883 114.578 132.802 114.51 132.708C114.443 132.613 114.394 132.506 114.368 132.392C114.342 132.279 114.338 132.161 114.357 132.046C114.377 131.932 114.418 131.822 114.48 131.723C114.541 131.624 114.622 131.538 114.716 131.471C114.811 131.403 114.918 131.355 115.031 131.329C115.145 131.302 115.262 131.299 115.377 131.318L126.248 133.137C126.467 133.173 126.665 133.291 126.801 133.467C126.938 133.642 127.003 133.862 126.985 134.084C126.967 134.306 126.866 134.512 126.703 134.663C126.539 134.814 126.325 134.898 126.103 134.898L126.106 134.896Z" fill="#371A45"/>
<path d="M126.034 140.777C125.994 140.778 125.954 140.775 125.915 140.77L113.198 139.058C112.97 139.021 112.765 138.897 112.628 138.711C112.49 138.525 112.431 138.293 112.461 138.064C112.492 137.835 112.611 137.627 112.793 137.485C112.975 137.342 113.205 137.276 113.434 137.301L126.151 139.011C126.373 139.041 126.577 139.154 126.719 139.328C126.862 139.502 126.933 139.724 126.918 139.949C126.903 140.173 126.803 140.384 126.639 140.538C126.475 140.692 126.259 140.777 126.034 140.777V140.777Z" fill="#371A45"/>
<path d="M124.912 146.538C124.875 146.538 124.839 146.536 124.802 146.532L111.894 144.949C111.661 144.921 111.449 144.801 111.304 144.616C111.159 144.43 111.094 144.195 111.122 143.962C111.151 143.728 111.271 143.515 111.456 143.371C111.641 143.226 111.876 143.16 112.109 143.189L125.018 144.771C125.241 144.799 125.446 144.91 125.591 145.084C125.735 145.257 125.807 145.479 125.794 145.704C125.78 145.93 125.682 146.141 125.518 146.296C125.354 146.451 125.137 146.537 124.911 146.538H124.912Z" fill="#371A45"/>
<path d="M122.865 152.82C122.838 152.82 122.811 152.819 122.784 152.816L111.243 151.773C111.127 151.763 111.015 151.73 110.912 151.676C110.809 151.621 110.717 151.548 110.643 151.458C110.568 151.369 110.512 151.266 110.478 151.155C110.443 151.043 110.43 150.926 110.441 150.811C110.451 150.695 110.484 150.582 110.538 150.479C110.592 150.375 110.666 150.284 110.755 150.209C110.845 150.135 110.948 150.079 111.059 150.044C111.17 150.009 111.286 149.997 111.402 150.007L122.943 151.05C123.171 151.07 123.382 151.177 123.532 151.349C123.683 151.521 123.762 151.744 123.751 151.973C123.741 152.201 123.643 152.417 123.478 152.575C123.313 152.733 123.093 152.821 122.865 152.82V152.82Z" fill="#371A45"/>
<g opacity="0.35">
<path d="M114.836 158.539H116.608C117.626 158.54 118.623 158.245 119.477 157.691C120.331 157.137 121.007 156.346 121.422 155.415C122.108 153.873 122.942 151.857 123.722 149.572C122.658 151.34 120.497 152.461 118.123 152.461H116.012C113.005 151.94 111.874 148.988 111.83 145.119C110.813 151.649 111.092 157.765 114.836 158.539Z" fill="#371A45"/>
</g>
<path d="M116.608 159.426H114.836C114.776 159.426 114.716 159.42 114.657 159.408C113.203 159.108 112.105 158.165 111.393 156.608C108.359 149.965 113.317 133.257 115.712 128.962C116.818 126.977 118.215 125.835 119.862 125.565C122.388 125.152 124.467 127.016 124.554 127.095C124.603 127.14 124.647 127.19 124.685 127.244C124.849 127.48 125.006 127.73 125.151 127.985C129.769 136.115 125.303 148.888 122.231 155.778C121.745 156.864 120.956 157.787 119.958 158.434C118.96 159.081 117.797 159.426 116.608 159.426ZM114.933 157.653H116.608C117.455 157.652 118.283 157.407 118.993 156.946C119.703 156.485 120.265 155.828 120.611 155.054C122.975 149.753 127.999 136.59 123.609 128.86C123.509 128.685 123.403 128.514 123.293 128.35C122.978 128.094 121.61 127.069 120.134 127.317C119.051 127.497 118.083 128.342 117.256 129.825C114.753 134.313 110.428 150.236 113.001 155.869C113.46 156.867 114.091 157.451 114.933 157.653Z" fill="#371A45"/>
<path d="M23.9847 158.539H22.2127C21.1946 158.54 20.198 158.245 19.3436 157.691C18.4892 157.137 17.8135 156.346 17.3982 155.415C14.7456 149.467 9.90915 136.397 14.4374 128.422C14.569 128.189 14.7098 127.965 14.8596 127.75C14.8596 127.75 19.2086 123.789 22.3333 129.393C25.254 134.627 31.38 157.011 23.9847 158.539Z" fill="#AFAFB2"/>
<g opacity="0.7">
<path d="M23.9354 133.124C23.8575 132.998 23.7791 132.879 23.7029 132.77C19.8611 127.166 14.5131 131.127 14.5131 131.127C14.3291 131.342 14.156 131.566 13.9944 131.799C13.4666 132.557 13.0301 133.374 12.6939 134.235C12.9132 132.14 13.4516 130.16 14.4396 128.423C14.5712 128.191 14.712 127.967 14.8618 127.752C14.8618 127.752 19.2108 123.791 22.3355 129.395C22.8087 130.241 23.3657 131.537 23.9354 133.124Z" fill="white"/>
</g>
<path d="M12.7202 134.896C12.4981 134.896 12.2842 134.812 12.1209 134.662C11.9576 134.511 11.8568 134.304 11.8386 134.082C11.8204 133.861 11.886 133.64 12.0225 133.465C12.159 133.289 12.3564 133.172 12.5755 133.135L23.4458 131.318C23.5605 131.299 23.6778 131.302 23.7911 131.329C23.9044 131.355 24.0114 131.403 24.1061 131.471C24.2007 131.538 24.2811 131.624 24.3427 131.723C24.4043 131.822 24.4459 131.932 24.465 132.046C24.4842 132.161 24.4805 132.279 24.4544 132.392C24.4282 132.506 24.3799 132.613 24.3123 132.708C24.2448 132.802 24.1592 132.883 24.0606 132.945C23.962 133.006 23.8521 133.048 23.7374 133.067L12.8671 134.884C12.8186 134.892 12.7694 134.896 12.7202 134.896Z" fill="#371A45"/>
<path d="M12.7866 140.777C12.5618 140.778 12.3454 140.692 12.1812 140.538C12.017 140.385 11.9174 140.174 11.9026 139.949C11.8877 139.725 11.9587 139.503 12.1012 139.329C12.2437 139.155 12.4469 139.041 12.6698 139.012L25.3856 137.3C25.5024 137.281 25.6219 137.286 25.7369 137.314C25.8519 137.342 25.9601 137.392 26.0552 137.463C26.1502 137.533 26.2302 137.622 26.2904 137.724C26.3505 137.827 26.3896 137.94 26.4054 138.057C26.4211 138.175 26.4132 138.294 26.3821 138.408C26.351 138.523 26.2973 138.63 26.2242 138.723C26.1511 138.816 26.0601 138.894 25.9566 138.951C25.853 139.008 25.7391 139.044 25.6214 139.057L12.9061 140.768C12.8665 140.774 12.8266 140.777 12.7866 140.777Z" fill="#371A45"/>
<path d="M13.9089 146.538C13.6832 146.538 13.4659 146.452 13.3013 146.298C13.1367 146.143 13.0372 145.932 13.0232 145.706C13.0092 145.481 13.0817 145.258 13.226 145.084C13.3702 144.911 13.5752 144.799 13.7992 144.771L26.7081 143.189C26.9412 143.16 27.1762 143.225 27.3613 143.37C27.5464 143.515 27.6664 143.728 27.695 143.961C27.7236 144.195 27.6583 144.43 27.5137 144.615C27.369 144.801 27.1567 144.921 26.9235 144.949L14.0175 146.533C13.9814 146.537 13.9451 146.538 13.9089 146.538Z" fill="#371A45"/>
<path d="M15.9551 152.82C15.7266 152.82 15.5067 152.733 15.3414 152.575C15.176 152.417 15.078 152.201 15.0678 151.973C15.0576 151.744 15.136 151.52 15.2867 151.348C15.4373 151.176 15.6485 151.069 15.8762 151.05L27.4176 150.007C27.6515 149.985 27.8842 150.058 28.0645 150.209C28.2448 150.36 28.3579 150.576 28.379 150.81C28.4001 151.044 28.3274 151.277 28.1769 151.458C28.0264 151.638 27.8105 151.752 27.5766 151.773L16.0352 152.816C16.0099 152.819 15.9825 152.82 15.9551 152.82Z" fill="#371A45"/>
<g opacity="0.35">
<path d="M23.9848 158.539H22.2127C21.1946 158.54 20.1981 158.245 19.3436 157.691C18.4892 157.137 17.8135 156.346 17.3982 155.415C16.7123 153.873 15.8789 151.857 15.0987 149.572C16.1624 151.34 18.3237 152.461 20.6972 152.461H22.8087C25.8144 151.94 26.9455 148.988 26.9899 145.119C28.0075 151.649 27.7284 157.765 23.9848 158.539Z" fill="#371A45"/>
</g>
<path d="M23.9847 159.426H22.2127C21.0236 159.426 19.86 159.081 18.8622 158.433C17.8644 157.786 17.0751 156.863 16.5895 155.776C13.5191 148.886 9.05164 136.114 13.6698 127.983C13.814 127.728 13.9709 127.479 14.1353 127.243C14.1732 127.189 14.2169 127.139 14.2658 127.094C14.3536 127.015 16.4338 125.152 18.9592 125.564C20.604 125.834 22.0021 126.976 23.1086 128.96C25.5035 133.255 30.4616 149.964 27.4269 156.607C26.7141 158.165 25.6175 159.108 24.164 159.407C24.1051 159.419 24.045 159.426 23.9847 159.426ZM15.5247 128.352C15.415 128.516 15.3087 128.686 15.2094 128.861C10.8188 136.59 15.8454 149.753 18.2069 155.054C18.5527 155.828 19.115 156.485 19.8258 156.947C20.5367 157.408 21.3657 157.653 22.2127 157.653H23.8877C24.7293 157.451 25.3604 156.867 25.8166 155.869C28.3902 150.235 24.0648 134.313 21.5624 129.825C20.735 128.343 19.7668 127.498 18.6839 127.317C17.209 127.07 15.8454 128.091 15.5247 128.35V128.352Z" fill="#371A45"/>
<path d="M43.9878 157.707C43.8736 157.707 43.7615 157.677 43.6621 157.621C43.5627 157.565 43.4795 157.484 43.4204 157.386C43.3614 157.288 43.3285 157.177 43.3249 157.062C43.3213 156.948 43.3472 156.835 43.4 156.734C46.5285 150.749 46.5746 144.019 43.5382 136.733C41.2508 131.243 37.9769 127.492 37.9457 127.455C37.8842 127.39 37.8364 127.314 37.8051 127.23C37.7739 127.146 37.7598 127.057 37.7638 126.968C37.7677 126.878 37.7897 126.791 37.8282 126.71C37.8668 126.629 37.9212 126.557 37.9882 126.498C38.0552 126.439 38.1334 126.394 38.2181 126.366C38.3029 126.338 38.3924 126.327 38.4814 126.334C38.5704 126.342 38.657 126.367 38.736 126.409C38.8151 126.45 38.8849 126.507 38.9414 126.577C39.0806 126.734 42.3753 130.506 44.7499 136.184C47.9168 143.758 47.8576 151.078 44.5788 157.351C44.5223 157.459 44.4372 157.549 44.333 157.612C44.2288 157.675 44.1094 157.708 43.9878 157.707Z" fill="#371A45"/>
<path d="M95.1357 157.707C95.0143 157.707 94.8952 157.674 94.7913 157.611C94.6874 157.548 94.6026 157.458 94.5463 157.351C91.2675 151.077 91.2083 143.758 94.3752 136.184C96.7504 130.504 100.044 126.733 100.184 126.576C100.303 126.454 100.464 126.382 100.634 126.375C100.805 126.368 100.971 126.428 101.099 126.541C101.227 126.653 101.307 126.811 101.322 126.981C101.337 127.151 101.286 127.321 101.18 127.454C101.147 127.492 97.8727 131.243 95.5875 136.733C92.5511 144.019 92.5971 150.748 95.7256 156.733C95.7785 156.834 95.8043 156.948 95.8008 157.062C95.7972 157.176 95.7643 157.288 95.7052 157.385C95.6462 157.483 95.5629 157.564 95.4636 157.62C95.3642 157.677 95.252 157.706 95.1379 157.706L95.1357 157.707Z" fill="#371A45"/>
<path d="M108.882 119.151H29.9446C29.9446 111.452 33.4141 104.877 38.3799 99.5605C40.9569 96.7984 43.9456 94.3773 47.0582 92.3179C48.4574 91.3911 49.8813 90.538 51.3069 89.7595C58.3249 85.929 65.3567 83.9069 69.4145 83.9069C73.4724 83.9069 80.5041 85.929 87.52 89.7595C90.3023 91.2715 92.9521 93.0163 95.4411 94.9751C97.2361 96.3868 98.9223 97.9319 100.485 99.5973C105.43 104.903 108.882 111.467 108.882 119.151Z" fill="white"/>
<path d="M108.882 120.037H29.9446C29.7098 120.037 29.4846 119.943 29.3186 119.777C29.1526 119.611 29.0592 119.385 29.0591 119.15C29.0591 106.482 37.9068 97.6231 45.3283 92.4222C54.1349 86.2507 64.1109 83.0214 69.4129 83.0214C74.7148 83.0214 84.6914 86.2507 93.4985 92.4222C100.921 97.6231 109.767 106.482 109.767 119.15C109.767 119.385 109.673 119.61 109.508 119.776C109.342 119.943 109.117 120.036 108.882 120.037ZM30.8454 118.263H107.981C107.576 106.827 99.3838 98.7107 92.4836 93.8749C84.0674 87.9774 74.3156 84.7953 69.4134 84.7953C64.5112 84.7953 54.7594 87.9796 46.3432 93.8749C39.4431 98.7134 31.2522 106.827 30.8454 118.263Z" fill="#371A45"/>
<path d="M104.946 121.113C104.924 121.113 104.902 121.113 104.879 121.11C104.716 121.093 104.565 121.015 104.458 120.891C104.35 120.766 104.294 120.606 104.3 120.442C104.305 120.328 104.307 120.212 104.31 120.096V120.061C104.312 119.898 104.376 119.742 104.488 119.625C104.601 119.507 104.753 119.436 104.916 119.426C105.078 119.417 105.238 119.469 105.363 119.572C105.489 119.675 105.571 119.822 105.593 119.983C105.605 120.067 105.61 120.152 105.61 120.236C105.609 120.349 105.6 120.461 105.581 120.573C105.556 120.723 105.478 120.86 105.362 120.959C105.246 121.059 105.098 121.113 104.946 121.113Z" fill="#371A45"/>
<path d="M105.466 111.96C105.466 111.991 105.466 112.019 105.466 112.049C105.365 113.574 102.615 114.977 98.0504 116.098C91.5313 114.492 81.3052 113.457 69.8071 113.457C58.309 113.457 48.0808 114.492 41.5595 116.098C36.9961 114.977 34.247 113.573 34.1456 112.049C34.1456 112.019 34.1456 111.991 34.1456 111.96C34.1456 108.218 50.1127 105.181 69.8093 105.181C89.5059 105.181 105.466 108.218 105.466 111.96Z" fill="white"/>
<path d="M105.466 111.96C105.466 111.99 105.466 112.018 105.466 112.049C105.424 112.697 104.902 113.323 103.964 113.916C103.712 114.075 103.428 114.232 103.118 114.388C101.868 115.008 100.15 115.583 98.0509 116.1C91.5307 114.493 81.3052 113.459 69.8071 113.459C58.309 113.459 48.0819 114.493 41.5595 116.1C39.4612 115.583 37.7434 115.008 36.4933 114.388C36.183 114.232 35.8984 114.075 35.6468 113.916C34.7108 113.324 34.1889 112.699 34.1466 112.049C34.143 112.02 34.1416 111.99 34.1423 111.96C34.1423 108.217 50.11 105.181 69.8071 105.181C89.5043 105.181 105.466 108.217 105.466 111.96Z" fill="white"/>
<path d="M103.115 114.387C101.865 115.006 100.148 115.581 98.0487 116.099C91.5285 114.492 81.303 113.458 69.8049 113.458C58.3068 113.458 48.0796 114.492 41.5572 116.099C39.459 115.581 37.7412 115.006 36.4911 114.387C41.6241 111.841 54.6037 110.032 69.8049 110.032C85.0061 110.032 97.9824 111.841 103.115 114.387Z" fill="#371A45"/>
<path d="M41.56 116.985C41.4889 116.985 41.418 116.977 41.3489 116.959C36.0355 115.654 33.3906 114.067 33.2601 112.109C33.2562 112.066 33.2557 112.016 33.2557 111.962C33.2557 106.338 55.1131 104.296 69.8049 104.296C84.4968 104.296 106.353 106.338 106.353 111.962C106.353 112.017 106.353 112.072 106.346 112.126C106.218 114.066 103.572 115.653 98.2587 116.958C98.12 116.992 97.9752 116.992 97.8365 116.958C91.0893 115.295 80.8726 114.342 69.8049 114.342C58.7372 114.342 48.5183 115.295 41.7689 116.958C41.7006 116.975 41.6305 116.984 41.56 116.985ZM69.8049 106.07C60.3333 106.07 51.4374 106.77 44.7521 108.041C37.0591 109.503 35.0266 111.245 35.0266 111.962C35.0266 111.966 35.0266 111.989 35.0266 111.992C35.0376 112.157 35.3139 113.622 41.5584 115.187C48.4404 113.525 58.7148 112.573 69.8044 112.573C80.894 112.573 91.1661 113.525 98.0454 115.187C104.293 113.621 104.57 112.156 104.58 111.992V111.962C104.58 111.245 102.547 109.503 94.855 108.041C88.1719 106.768 79.2754 106.07 69.8049 106.07Z" fill="#371A45"/>
<path d="M97.6748 116.007C97.6951 116.012 97.7133 116.024 97.7262 116.04C97.7392 116.057 97.7462 116.077 97.7462 116.098C97.7462 116.119 97.7392 116.139 97.7262 116.155C97.7133 116.172 97.6951 116.183 97.6748 116.188C91.1425 117.742 81.0859 118.739 69.8049 118.739C58.524 118.739 48.4531 117.741 41.9186 116.185C41.899 116.181 41.8815 116.169 41.8689 116.154C41.8564 116.138 41.8496 116.118 41.8496 116.098C41.8496 116.078 41.8564 116.058 41.8689 116.042C41.8815 116.026 41.899 116.015 41.9186 116.01C48.4531 114.454 58.5174 113.457 69.8049 113.457C81.0925 113.457 91.1425 114.454 97.6748 116.007Z" fill="#371A45"/>
<path d="M69.8049 119.626C58.8321 119.626 48.5929 118.687 41.7135 117.048C41.5002 116.997 41.3102 116.876 41.1742 116.704C41.0383 116.531 40.9644 116.318 40.9644 116.098C40.9644 115.879 41.0383 115.665 41.1742 115.493C41.3102 115.321 41.5002 115.199 41.7135 115.148C48.5934 113.51 58.8327 112.571 69.8055 112.571C80.7783 112.571 91.0038 113.509 97.8804 115.146C98.0945 115.197 98.2851 115.318 98.4215 115.491C98.5579 115.664 98.632 115.878 98.632 116.098C98.632 116.319 98.5579 116.533 98.4215 116.705C98.2851 116.878 98.0945 117 97.8804 117.051C91.0027 118.688 80.7695 119.626 69.8049 119.626ZM45.9348 116.098C52.4046 117.224 60.8482 117.855 69.8049 117.855C78.7617 117.855 87.2015 117.226 93.6718 116.098C87.202 114.973 78.7584 114.341 69.8049 114.341C60.8514 114.341 52.4062 114.973 45.9348 116.098Z" fill="#371A45"/>
<path d="M88.3676 129.177C87.7185 128.848 87.5633 127.805 88.0337 126.842C95.3194 111.935 102.605 97.0277 109.889 82.1204C110.36 81.1575 111.64 80.788 112.714 81.3359C113.788 81.8849 114.242 83.1378 113.74 84.0854L90.4511 128.075C89.9495 129.023 89.0174 129.509 88.3676 129.177Z" fill="#F9B653"/>
<g opacity="0.3">
<path d="M113.943 83.2509C113.946 83.5412 113.876 83.8276 113.74 84.0843C105.978 98.7493 98.2156 113.413 90.4522 128.076C89.95 129.023 89.0168 129.509 88.3687 129.178C87.7207 128.847 87.5639 127.806 88.0359 126.842L97.3261 107.831C97.3755 107.871 97.4287 107.906 97.4851 107.935C98.1364 108.264 99.068 107.779 99.5686 106.832C104.039 98.3876 108.51 89.9423 112.982 81.4962C113.595 81.9184 113.943 82.5904 113.943 83.2509Z" fill="#371A45"/>
</g>
<path d="M88.8134 129.928C88.5568 129.93 88.3036 129.87 88.0749 129.753C87.0956 129.253 86.8226 127.85 87.4547 126.558L109.31 81.8366C109.458 81.5395 109.663 81.2752 109.915 81.0591C110.166 80.8431 110.459 80.6797 110.774 80.5788C111.513 80.3425 112.316 80.4079 113.007 80.7606C113.698 81.1133 114.223 81.7249 114.466 82.4625C114.57 82.7776 114.609 83.1103 114.583 83.441C114.556 83.7716 114.463 84.0936 114.31 84.3879L91.0213 128.378C90.5087 129.349 89.6342 129.928 88.8134 129.928ZM88.661 128.602C88.9132 128.73 89.5119 128.47 89.8814 127.773L113.17 83.7829C113.243 83.6395 113.286 83.4831 113.297 83.3228C113.309 83.1625 113.288 83.0016 113.236 82.8495C113.096 82.4422 112.804 82.1051 112.421 81.9096C112.038 81.7141 111.594 81.6755 111.183 81.802C111.03 81.8494 110.888 81.9269 110.766 82.0299C110.644 82.133 110.543 82.2595 110.47 82.4021L88.6138 127.126C88.2667 127.836 88.4099 128.474 88.661 128.602Z" fill="#371A45"/>
<path d="M88.0134 128.119C87.4251 127.688 87.4372 126.636 88.0557 125.758L116.749 85.0978C117.368 84.2193 118.689 84.0612 119.663 84.7738C120.636 85.4876 120.884 86.7964 120.238 87.6518L90.2466 127.363C89.5996 128.218 88.6029 128.549 88.0134 128.119Z" fill="#F9B653"/>
<g opacity="0.3">
<path d="M120.597 86.5532C120.6 86.9487 120.474 87.3343 120.238 87.6512C110.24 100.888 100.243 114.125 90.2466 127.363C89.5991 128.217 88.6018 128.548 88.0123 128.118C87.4229 127.687 87.4377 126.635 88.0551 125.757C91.3313 121.116 94.6073 116.474 97.8831 111.832C97.9499 111.954 98.0436 112.06 98.1573 112.14C98.7516 112.565 99.7473 112.221 100.381 111.359C106.879 102.555 113.377 93.7503 119.876 84.9451C120.1 85.1495 120.279 85.3977 120.403 85.6743C120.527 85.9509 120.593 86.2501 120.597 86.5532Z" fill="#371A45"/>
</g>
<path d="M88.6243 128.954C88.2687 128.959 87.9212 128.848 87.633 128.64C86.7453 127.99 86.7009 126.562 87.5288 125.387L116.223 84.7244C116.416 84.4548 116.661 84.2267 116.943 84.0534C117.226 83.8802 117.54 83.7654 117.868 83.7159C118.635 83.6012 119.416 83.7941 120.042 84.2525C120.668 84.711 121.089 85.3982 121.212 86.165C121.264 86.4927 121.251 86.8275 121.171 87.1497C121.092 87.4719 120.95 87.775 120.752 88.041L90.7604 127.753C90.177 128.525 89.3639 128.954 88.6243 128.954ZM88.394 127.597C88.6528 127.786 89.2921 127.554 89.7313 126.974L119.722 87.2614C119.817 87.1319 119.884 86.9848 119.921 86.8287C119.957 86.6726 119.962 86.5108 119.935 86.3528C119.863 85.9284 119.628 85.5489 119.281 85.2947C118.934 85.0406 118.501 84.9317 118.075 84.9912C117.917 85.0136 117.764 85.0675 117.627 85.1497C117.489 85.2319 117.37 85.3408 117.275 85.47L88.581 126.132C88.1259 126.778 88.1659 127.431 88.3929 127.597L88.394 127.597Z" fill="#371A45"/>
<path d="M105.464 112.049V119.343C105.464 119.586 105.462 119.83 105.457 120.074C105.454 120.206 105.452 120.338 105.446 120.467C104.854 139.67 89.1243 155.055 69.8027 155.055C50.4812 155.055 34.7542 139.668 34.1642 120.467C34.1587 120.338 34.1565 120.206 34.1538 120.074C34.1487 119.83 34.1461 119.587 34.1461 119.343V112.049C34.2476 113.574 36.9972 114.977 41.56 116.098C48.0813 117.704 58.3101 118.739 69.8077 118.739C81.3052 118.739 91.5318 117.704 98.0509 116.098C102.611 114.977 105.363 113.574 105.464 112.049Z" fill="#F92323"/>
<g opacity="0.4">
<path d="M105.464 112.531V115.65C105.363 117.089 102.613 118.413 98.0487 119.473C91.5285 120.988 81.303 121.965 69.8049 121.965C58.3068 121.965 48.0797 120.988 41.5573 119.473C36.9934 118.413 34.2454 117.089 34.1445 115.65V112.531C34.2454 113.969 36.9956 115.294 41.5573 116.353C48.0819 117.868 58.3074 118.846 69.8049 118.846C81.3025 118.846 91.5285 117.868 98.0487 116.353C102.611 115.294 105.363 113.969 105.464 112.531Z" fill="white"/>
</g>
<g opacity="0.3">
<path d="M104.895 118V122.223C104.895 122.45 104.895 122.674 104.887 122.896C104.887 123.019 104.883 123.14 104.877 123.259C104.758 126.912 103.994 130.516 102.619 133.902C97.6052 146.269 84.8548 155.057 69.9222 155.057C55.1037 155.057 42.4405 146.407 37.3459 134.195C35.8956 130.725 35.0894 127.02 34.9669 123.261C34.963 123.142 34.9608 123.021 34.957 122.898C34.9526 122.675 34.9506 122.451 34.951 122.225V117.416C35.0513 117.326 35.1522 117.241 35.2569 117.16C36.0558 116.536 36.9709 116.149 37.9649 116.066C41.5956 115.763 44.0958 119.059 44.5191 124.153C44.8097 127.654 44.0432 131.092 42.3561 132.992C48.759 140.679 58.7246 145.614 69.9222 145.614C80.962 145.614 90.807 140.814 97.2159 133.314C95.3292 131.489 94.4602 127.865 94.7667 124.171C95.19 119.077 97.6896 115.78 101.321 116.083C102.527 116.184 103.615 116.731 104.52 117.606C104.65 117.732 104.777 117.863 104.895 118Z" fill="#371A45"/>
</g>
<g opacity="0.3">
<path d="M104.895 115.519V118C104.775 117.863 104.65 117.732 104.52 117.608C104.599 117.097 104.668 116.584 104.722 116.066C104.82 115.899 104.88 115.712 104.895 115.519Z" fill="#343C47"/>
<path d="M104.895 118.105C104.88 118.105 104.866 118.102 104.852 118.095C104.839 118.089 104.827 118.08 104.817 118.069C104.694 117.931 104.571 117.801 104.448 117.685C104.438 117.675 104.43 117.663 104.424 117.65C104.419 117.637 104.416 117.623 104.416 117.609C104.501 117.047 104.567 116.544 104.618 116.054C104.62 116.04 104.624 116.026 104.631 116.013C104.721 115.86 104.776 115.689 104.791 115.512C104.794 115.485 104.806 115.461 104.826 115.443C104.846 115.426 104.872 115.416 104.899 115.417C104.926 115.418 104.951 115.429 104.97 115.448C104.988 115.467 104.999 115.493 105 115.519V118.001C105 118.022 104.994 118.043 104.981 118.06C104.969 118.078 104.952 118.091 104.932 118.098C104.921 118.103 104.908 118.105 104.895 118.105ZM104.631 117.571C104.685 117.622 104.738 117.676 104.791 117.732V116.392C104.747 116.769 104.694 117.16 104.631 117.571Z" fill="#371A45"/>
</g>
<path d="M69.8022 155.701C60.3031 155.701 51.3206 152.052 44.5092 145.424C37.7105 138.812 33.8089 129.955 33.5161 120.485C33.5117 120.368 33.5095 120.244 33.5068 120.12V120.085C33.5013 119.837 33.4988 119.589 33.4991 119.341V112.049C33.4977 111.881 33.562 111.718 33.6785 111.597C33.795 111.475 33.9543 111.404 34.1225 111.398C34.2907 111.393 34.4544 111.453 34.5786 111.567C34.7029 111.68 34.7779 111.838 34.7876 112.006C34.8457 112.873 36.6945 114.238 41.7113 115.471C48.4794 117.137 58.7213 118.094 69.8049 118.094C80.8885 118.094 91.1283 117.138 97.8936 115.472C102.913 114.238 104.763 112.873 104.82 112.007C104.832 111.84 104.908 111.684 105.032 111.573C105.156 111.461 105.318 111.401 105.485 111.407C105.652 111.412 105.81 111.483 105.926 111.602C106.043 111.722 106.108 111.882 106.109 112.05V119.344C106.109 119.592 106.107 119.84 106.101 120.088C106.101 120.223 106.096 120.359 106.091 120.493C105.799 129.958 101.894 138.815 95.0973 145.427C88.2854 152.054 79.3023 155.701 69.8022 155.701ZM34.7887 114.113V119.343C34.7887 119.582 34.7911 119.821 34.7958 120.06V120.096C34.7958 120.212 34.8002 120.328 34.8046 120.442C35.3929 139.493 50.7652 154.411 69.8011 154.411C88.837 154.411 104.213 139.492 104.8 120.447C104.805 120.317 104.808 120.189 104.811 120.063C104.815 119.823 104.817 119.583 104.818 119.344V114.113C103.557 115.086 101.36 115.95 98.2006 116.727C91.3394 118.417 80.9888 119.387 69.8038 119.387C58.6188 119.387 48.2666 118.417 41.4027 116.727C38.2445 115.949 36.0508 115.085 34.7887 114.113Z" fill="#371A45"/>
<path d="M69.8022 155.944C60.2401 155.944 51.1978 152.27 44.3415 145.6C37.5027 138.943 33.5704 130.028 33.276 120.495C33.2716 120.379 33.2689 120.253 33.2661 120.127V120.092C33.2614 119.842 33.2588 119.593 33.2584 119.343V112.049C33.257 111.818 33.3456 111.596 33.5055 111.429C33.6653 111.263 33.8837 111.165 34.1143 111.157C34.3448 111.15 34.5693 111.232 34.7399 111.388C34.9105 111.543 35.0138 111.759 35.0278 111.99C35.0387 112.154 35.3216 113.653 41.7689 115.237C48.5194 116.899 58.7378 117.853 69.8055 117.853C80.8732 117.853 91.0894 116.899 97.8371 115.237C104.288 113.652 104.57 112.156 104.581 111.99C104.595 111.76 104.698 111.544 104.869 111.388C105.039 111.233 105.264 111.15 105.494 111.158C105.725 111.166 105.943 111.263 106.103 111.429C106.263 111.596 106.352 111.818 106.35 112.049V119.343C106.35 119.593 106.348 119.843 106.343 120.092C106.343 120.228 106.337 120.367 106.332 120.502C106.038 130.027 102.11 138.943 95.2656 145.6C88.4077 152.27 79.3648 155.944 69.8022 155.944ZM35.0294 114.57V119.346C35.0294 119.583 35.0318 119.821 35.0365 120.06V120.096C35.0365 120.21 35.0415 120.324 35.0453 120.436C35.6298 139.359 50.8968 154.175 69.8016 154.175C88.7065 154.175 103.977 139.359 104.563 120.444C104.568 120.313 104.571 120.188 104.573 120.06C104.578 119.82 104.58 119.582 104.58 119.346V114.57C103.244 115.459 101.145 116.251 98.2604 116.96C91.381 118.655 81.0097 119.627 69.8044 119.627C58.5991 119.627 48.2277 118.655 41.3451 116.96C38.4628 116.251 36.365 115.458 35.0294 114.57Z" fill="#371A45"/>
<path d="M42.0655 121.694C42.5294 127.27 40.5429 132.701 36.5668 133.033C32.5906 133.364 28.9917 129.112 28.5284 123.535C28.0651 117.957 30.9117 113.169 34.8885 112.837C38.8652 112.506 41.6022 116.117 42.0655 121.694Z" fill="white"/>
<path d="M36.132 133.175C32.2721 133.175 28.8535 128.975 28.4012 123.546C28.1753 120.823 28.7192 118.199 29.9364 116.157C31.1585 114.101 32.9135 112.879 34.8775 112.715C38.8449 112.383 41.7097 115.905 42.19 121.684C42.4268 124.534 42.0381 127.268 41.0934 129.381C40.0774 131.657 38.4726 132.998 36.5755 133.157C36.4292 133.169 36.2811 133.175 36.132 133.175ZM35.3792 112.943C35.2202 112.943 35.0595 112.95 34.8961 112.963C33.0144 113.12 31.3285 114.299 30.148 116.285C28.9599 118.283 28.428 120.854 28.6501 123.526C29.1074 129.024 32.6559 133.233 36.5542 132.908C38.8646 132.715 40.1728 130.828 40.8653 129.279C41.7919 127.204 42.173 124.514 41.9394 121.702C41.4937 116.318 38.9408 112.943 35.3814 112.943H35.3792Z" fill="#371A45"/>
<g opacity="0.35">
<path d="M42.0661 124.852C41.6 119.278 38.8625 115.673 34.8885 116.004C31.5873 116.279 29.0641 119.628 28.5673 123.947C28.5514 123.813 28.5382 123.673 28.5273 123.536C28.0634 117.96 30.9118 113.17 34.8874 112.838C38.863 112.506 41.6022 116.117 42.0661 121.695C42.1544 122.745 42.1544 123.801 42.0661 124.852Z" fill="white"/>
</g>
<g opacity="0.3">
<path d="M36.5662 133.032C32.5901 133.361 28.9911 129.112 28.5273 123.534C28.3995 122.063 28.5121 120.582 28.8606 119.148C29.9358 123.65 33.1087 126.826 36.5662 126.539C39.3625 126.304 41.1762 123.547 41.8451 119.992C41.9422 120.534 42.0173 121.102 42.0644 121.694C42.5299 127.271 40.5424 132.7 36.5662 133.032Z" fill="#371A45"/>
</g>
<path d="M36.1386 133.937C31.885 133.937 28.1303 129.435 27.6456 123.61C27.406 120.73 27.9872 117.945 29.2823 115.767C30.6338 113.494 32.5988 112.14 34.815 111.955C39.2336 111.585 42.4296 115.38 42.9483 121.618C43.1961 124.595 42.7838 127.461 41.7897 129.688C40.6553 132.23 38.8263 133.73 36.6402 133.913C36.4725 133.93 36.3047 133.937 36.1386 133.937ZM35.371 113.705C35.2366 113.705 35.1012 113.711 34.9636 113.723C33.3335 113.859 31.8576 114.907 30.8065 116.674C29.699 118.537 29.2039 120.948 29.4128 123.462C29.8207 128.364 32.7929 132.163 36.1303 132.164C36.2517 132.164 36.3736 132.159 36.496 132.149C38.4353 131.987 39.5664 130.33 40.175 128.968C41.0369 127.037 41.4054 124.411 41.1855 121.767C40.7716 116.813 38.5083 113.705 35.3688 113.705H35.371Z" fill="#371A45"/>
<path d="M97.3288 121.694C96.865 127.27 98.8514 132.701 102.828 133.033C106.804 133.364 110.403 129.112 110.867 123.535C111.33 117.957 108.483 113.169 104.506 112.837C100.53 112.506 97.7921 116.117 97.3288 121.694Z" fill="white"/>
<path d="M103.26 133.175C103.113 133.175 102.966 133.169 102.817 133.157C98.5817 132.804 96.7641 126.982 97.2044 121.682C97.6847 115.905 100.555 112.384 104.517 112.713C108.555 113.05 111.459 117.909 110.991 123.544C110.539 128.975 107.12 133.175 103.26 133.175ZM97.4528 121.704C97.0223 126.882 98.7637 132.569 102.838 132.908C106.743 133.234 110.285 129.024 110.742 123.526C111.199 118.027 108.398 113.289 104.496 112.963C100.691 112.646 97.9204 116.076 97.4528 121.704Z" fill="#371A45"/>
<g opacity="0.35">
<path d="M97.3283 124.852C97.7943 119.278 100.532 115.673 104.506 116.004C107.807 116.279 110.331 119.628 110.828 123.947C110.843 123.813 110.856 123.673 110.867 123.536C111.331 117.96 108.483 113.17 104.507 112.838C100.531 112.506 97.7921 116.117 97.3283 121.695C97.24 122.745 97.24 123.801 97.3283 124.852Z" fill="white"/>
</g>
<g opacity="0.3">
<path d="M102.828 133.032C106.805 133.361 110.404 129.112 110.867 123.534C110.995 122.063 110.883 120.582 110.534 119.148C109.459 123.65 106.286 126.826 102.828 126.539C100.032 126.304 98.2182 123.547 97.5493 119.992C97.4522 120.534 97.3771 121.102 97.33 121.694C96.865 127.271 98.852 132.7 102.828 133.032Z" fill="#371A45"/>
</g>
<path d="M103.256 133.937C103.092 133.937 102.922 133.93 102.754 133.916C98.0263 133.522 95.9751 127.287 96.4489 121.618C96.9681 115.378 100.165 111.583 104.583 111.955C109.039 112.327 112.255 117.555 111.751 123.61C111.265 129.436 107.509 133.937 103.256 133.937ZM98.2121 121.767C97.807 126.644 99.4502 131.861 102.902 132.149C106.387 132.438 109.563 128.543 109.985 123.462C110.408 118.381 107.917 114.013 104.435 113.723C101.071 113.442 98.642 116.601 98.2121 121.767Z" fill="#371A45"/>
<path d="M104.97 77.7513C104.879 77.7462 104.789 77.723 104.707 77.6833C104.625 77.6435 104.551 77.5879 104.49 77.5196C104.429 77.4514 104.383 77.3718 104.353 77.2854C104.323 77.199 104.31 77.1075 104.315 77.0162L105.457 56.9837C105.468 56.7993 105.551 56.6266 105.689 56.5037C105.826 56.3808 106.007 56.3176 106.191 56.3281C107.148 56.3828 108.085 56.6257 108.948 57.0429C109.811 57.46 110.584 58.0434 111.222 58.7596C111.86 59.4758 112.351 60.3108 112.666 61.2169C112.982 62.123 113.116 63.0826 113.062 64.0407L112.673 70.8722C112.618 71.8303 112.375 72.7684 111.959 73.6327C111.542 74.497 110.959 75.2706 110.244 75.9094C109.529 76.5482 108.695 77.0397 107.79 77.3557C106.885 77.6718 105.927 77.8062 104.97 77.7513Z" fill="white"/>
<path d="M105.39 77.9226C105.248 77.9226 105.105 77.9186 104.961 77.9106C104.735 77.8975 104.523 77.7951 104.372 77.6258C104.221 77.4564 104.143 77.234 104.156 77.0074L105.299 56.9749C105.305 56.8626 105.333 56.7527 105.382 56.6515C105.431 56.5502 105.499 56.4595 105.583 56.3847C105.667 56.3098 105.764 56.2522 105.87 56.2152C105.976 56.1782 106.089 56.1625 106.201 56.1689C110.306 56.4039 113.455 59.939 113.219 64.0501L112.829 70.8809C112.605 74.8476 109.309 77.9226 105.39 77.9226ZM104.979 77.5932C108.901 77.8128 112.289 74.7987 112.514 70.8634L112.903 64.0325C113.128 60.0971 110.113 56.7124 106.183 56.4879C106.112 56.4828 106.041 56.4922 105.975 56.5154C105.908 56.5387 105.847 56.5752 105.795 56.623C105.742 56.6698 105.699 56.7266 105.668 56.7903C105.638 56.8539 105.62 56.923 105.616 56.9935L104.474 77.0272C104.466 77.1695 104.515 77.309 104.609 77.4153C104.704 77.5216 104.837 77.586 104.979 77.5943V77.5932Z" fill="#371A45"/>
<g opacity="0.35">
<path d="M112.855 67.6686L112.673 70.8727C112.561 72.8078 111.688 74.6195 110.243 75.9097C108.798 77.1999 106.901 77.8629 104.969 77.753C104.784 77.7421 104.612 77.6584 104.489 77.5202C104.366 77.3821 104.303 77.2008 104.314 77.0162L104.616 71.6907C104.663 71.8162 104.746 71.9252 104.854 72.0049C104.962 72.0845 105.09 72.1313 105.224 72.1398L105.699 72.1651C107.21 72.2521 108.711 71.866 109.994 71.0603C111.276 70.2546 112.276 69.0692 112.855 67.6686Z" fill="#371A45"/>
</g>
<path d="M105.391 78.6506C105.235 78.6506 105.077 78.6457 104.919 78.6369C104.501 78.6128 104.109 78.4233 103.829 78.1099C103.55 77.7965 103.407 77.385 103.431 76.9657L104.573 56.9331C104.585 56.7256 104.638 56.5223 104.728 56.3351C104.818 56.1478 104.944 55.9802 105.099 55.8417C105.254 55.7033 105.435 55.5968 105.631 55.5283C105.827 55.4598 106.034 55.4307 106.242 55.4426C110.747 55.7006 114.203 59.5805 113.946 64.0912L113.556 70.9227C113.309 75.2753 109.692 78.6506 105.391 78.6506ZM105.21 76.8746C106.878 76.9213 108.498 76.3151 109.726 75.1849C110.955 74.0547 111.695 72.4895 111.789 70.8216L112.179 63.9902C112.272 62.3234 111.714 60.6857 110.622 59.4236C109.531 58.1614 107.992 57.3736 106.332 57.2269L105.21 76.8746Z" fill="#371A45"/>
<path d="M40.157 52.5531C40.3411 52.5637 40.5135 52.6471 40.6363 52.7849C40.759 52.9228 40.8221 53.1038 40.8116 53.2882L39.6695 73.3208C39.6589 73.5052 39.5756 73.6778 39.438 73.8007C39.3003 73.9236 39.1195 73.9868 38.9354 73.9763C37.0034 73.8659 35.1943 72.9916 33.9059 71.5458C32.6175 70.1 31.9553 68.2011 32.0648 66.2664L32.4546 59.435C32.5089 58.4766 32.7512 57.5384 33.1677 56.6738C33.5842 55.8092 34.1667 55.0353 34.882 54.3962C35.5972 53.7571 36.4312 53.2654 37.3363 52.9492C38.2414 52.6329 39.1999 52.4983 40.157 52.5531Z" fill="white"/>
<path d="M38.9765 74.1366H38.9266C36.9523 74.0234 35.1037 73.1294 33.7876 71.6514C32.4714 70.1734 31.7955 68.2325 31.9086 66.2555L32.2978 59.4246C32.4109 57.4477 33.3036 55.5968 34.7795 54.2789C36.2554 52.961 38.1937 52.2841 40.1679 52.3972C40.3942 52.4103 40.6059 52.5128 40.7568 52.6821C40.9077 52.8514 40.9854 53.0737 40.9728 53.3003L39.8307 73.3329C39.8184 73.5509 39.7233 73.7559 39.5649 73.9059C39.4065 74.056 39.1968 74.1397 38.9787 74.1399L38.9765 74.1366ZM39.7315 52.7002C37.9101 52.7027 36.1586 53.4021 34.8353 54.6553C33.512 55.9085 32.717 57.6208 32.6131 59.4416L32.2238 66.2725C32.1704 67.2098 32.3018 68.1484 32.6107 69.0348C32.9195 69.9212 33.3997 70.738 34.0238 71.4386C34.6479 72.1392 35.4037 72.7098 36.248 73.1179C37.0923 73.526 38.0087 73.7636 38.9447 73.8171C39.0151 73.8217 39.0856 73.8121 39.1522 73.7889C39.2188 73.7657 39.28 73.7293 39.3323 73.682C39.385 73.6351 39.4279 73.5782 39.4585 73.5146C39.4891 73.451 39.5068 73.3819 39.5105 73.3114L40.6532 53.2789C40.661 53.1366 40.6121 52.9971 40.5174 52.8908C40.4226 52.7845 40.2897 52.7201 40.1476 52.7117C40.0089 52.7057 39.8697 52.7002 39.7315 52.7002Z" fill="#371A45"/>
<g opacity="0.35">
<path d="M39.9881 67.7631L39.6706 73.3208C39.6596 73.5053 39.576 73.6779 39.438 73.8008C39.3001 73.9237 39.1191 73.9868 38.9348 73.9763C37.9782 73.9218 37.0417 73.6791 36.1787 73.2621C35.3157 72.8451 34.5433 72.262 33.9054 71.5461C33.2675 70.8301 32.7767 69.9954 32.4609 69.0895C32.1452 68.1836 32.0108 67.2244 32.0654 66.2665L32.2298 63.3879C32.7349 64.6988 33.6065 65.836 34.7403 66.6637C35.8741 67.4913 37.2221 67.9742 38.6228 68.0546L39.3532 68.0963C39.4791 68.1027 39.6044 68.0752 39.7161 68.0166C39.8278 67.958 39.9217 67.8704 39.9881 67.7631Z" fill="#371A45"/>
</g>
<path d="M38.9771 74.8641C38.9464 74.8641 38.9156 74.8641 38.8849 74.8641C37.8116 74.8027 36.7609 74.5301 35.7929 74.062C34.8248 73.5939 33.9583 72.9394 33.2429 72.1359C32.5274 71.3324 31.9771 70.3956 31.6233 69.3791C31.2696 68.3626 31.1192 67.2862 31.181 66.2115L31.5708 59.3801C31.6321 58.3058 31.9042 57.2542 32.3714 56.2852C32.8386 55.3162 33.4919 54.4489 34.2939 53.7327C35.0958 53.0165 36.0309 52.4655 37.0455 52.1111C38.0602 51.7568 39.1346 51.6061 40.2074 51.6675C40.6258 51.692 41.0175 51.8816 41.2965 52.1948C41.5756 52.508 41.7192 52.9191 41.696 53.3382L40.5534 73.3713C40.5304 73.7745 40.3544 74.1537 40.0614 74.4312C39.7683 74.7088 39.3804 74.8636 38.9771 74.8641ZM39.7326 53.4277C38.0967 53.4303 36.5236 54.0586 35.3351 55.1842C34.1465 56.3097 33.4323 57.8474 33.3385 59.4828L32.952 66.3142C32.8574 67.9811 33.4146 69.6193 34.5057 70.8818C35.5967 72.1443 37.1357 72.9318 38.7967 73.0776L39.9152 53.4299C39.8554 53.4282 39.794 53.4277 39.7326 53.4277Z" fill="#371A45"/>
<g opacity="0.35">
<path d="M98.1776 92.207C97.3186 93.1806 96.405 94.1045 95.4411 94.974C88.2991 101.421 78.4936 104.826 68.2077 103.5C60.0386 102.459 52.524 98.4857 47.0582 92.3179C46.3542 91.5247 45.6886 90.7012 45.0613 89.8473C45.4319 89.7892 45.8064 89.7602 46.1815 89.7606H51.3069C58.3249 85.9301 65.3567 83.908 69.4145 83.908C73.4724 83.908 80.5041 85.9301 87.52 89.7606H92.6805C93.0503 89.7607 93.4197 89.789 93.7852 89.8451C95.4855 90.1053 97.013 90.9613 98.1776 92.207Z" fill="#371A45"/>
</g>
<path d="M72.5677 99.3453C91.4267 99.3453 106.715 84.0367 106.715 65.1525C106.715 46.2683 91.4267 30.9597 72.5677 30.9597C53.7088 30.9597 38.4205 46.2683 38.4205 65.1525C38.4205 84.0367 53.7088 99.3453 72.5677 99.3453Z" fill="white"/>
<path d="M72.6379 99.51C71.1499 99.5096 69.6634 99.4139 68.1875 99.2234C49.4257 96.805 36.1271 79.5527 38.5445 60.7664C39.7123 51.6659 44.3514 43.5662 51.6052 37.9596C58.859 32.3531 67.8591 29.9105 76.9475 31.0815C86.0358 32.2526 94.1252 36.9011 99.7243 44.1619C105.323 51.4227 107.763 60.4375 106.593 69.538L106.435 69.5177L106.593 69.538C105.423 78.6391 100.784 86.7388 93.5298 92.3453C87.4641 97.034 80.1768 99.51 72.6379 99.51ZM72.4981 31.1134C65.0283 31.1134 57.8096 33.5664 51.7998 38.2116C44.6129 43.7666 40.0166 51.791 38.8603 60.8076C36.4681 79.4193 49.6434 96.5113 68.2308 98.9094C77.2347 100.071 86.1515 97.6505 93.3384 92.0955C100.525 86.5406 105.121 78.5161 106.278 69.4996C107.435 60.4831 105.02 51.5528 99.4721 44.3568C93.9246 37.1608 85.9108 32.5584 76.9069 31.4C75.4449 31.2103 73.9723 31.1146 72.4981 31.1134Z" fill="#371A45"/>
<g opacity="0.35">
<path d="M106.714 64.7841C106.731 66.3674 106.639 67.9501 106.436 69.5205C104.023 88.2491 86.9114 101.478 68.2072 99.0686C49.503 96.6595 36.2926 79.5181 38.6985 60.7889C38.7676 60.2503 38.8493 59.7128 38.9436 59.1858C39.1042 75.9857 51.6167 90.5215 68.7303 92.7307C86.8966 95.0663 103.56 82.6563 106.714 64.7841Z" fill="#371A45"/>
</g>
<path d="M72.6396 100.237C71.12 100.237 69.6019 100.14 68.0948 99.9448C48.9361 97.4743 35.3556 79.8585 37.8213 60.6736C39.0165 51.3804 43.7531 43.1089 51.161 37.3837C58.5689 31.6586 67.7598 29.1649 77.0401 30.3601C86.3204 31.5553 94.5792 36.3 100.299 43.7172C106.02 51.1344 108.508 60.3376 107.314 69.6308C106.119 78.9241 101.381 87.1956 93.9739 92.9207C87.7804 97.7092 80.338 100.237 72.6396 100.237ZM72.4992 31.843C65.1895 31.843 58.1253 34.2433 52.2433 38.7898C45.2105 44.225 40.7124 52.076 39.578 60.9025C37.2368 79.1173 50.1308 95.8431 68.3207 98.188C77.1333 99.3245 85.8587 96.9554 92.8916 91.5196C99.9244 86.0838 104.423 78.2334 105.557 69.4068C106.691 60.5836 104.327 51.8459 98.8975 44.8031C93.4684 37.7603 85.629 33.2573 76.8147 32.1208C75.3836 31.936 73.9422 31.8432 72.4992 31.843Z" fill="#371A45"/>
<path d="M106.215 70.3747C105.462 77.0233 102.608 82.9511 98.3432 87.6392C95.1461 91.1529 83.0274 96.5651 68.9858 95.0987C55.9662 93.7388 44.9161 85.4508 42.5886 81.3084C39.4809 75.7831 38.0247 69.3657 38.7775 62.7176C40.7699 45.1238 56.6927 39.5446 75.3146 41.6589C93.9366 43.7732 108.207 52.7815 106.215 70.3747Z" fill="#371A45"/>
<path d="M73.854 96.2384C72.1967 96.2385 70.5404 96.1524 68.892 95.9804C55.4042 94.5716 44.262 86.0937 41.815 81.7438C38.5017 75.8517 37.1463 69.2383 37.8958 62.6177C38.8734 53.9877 43.0826 47.7261 50.4071 44.006C56.7963 40.7618 65.4439 39.6457 75.4128 40.7766C85.3817 41.9076 93.561 44.936 99.0614 49.5302C105.367 54.7975 108.07 61.8441 107.093 70.4736C106.343 77.0942 103.543 83.236 98.9967 88.2348C96.2032 91.3093 86.4059 96.2384 73.854 96.2384ZM68.0915 42.1212C61.4814 42.1212 55.7315 43.2922 51.2098 45.5888C44.45 49.0212 40.5632 54.8178 39.6575 62.8175C38.9496 69.0648 40.2304 75.3088 43.36 80.8736C45.5828 84.8265 56.3736 92.8894 69.0773 94.2148C83.1584 95.685 94.8369 90.1756 97.6885 87.0407C101.983 82.3192 104.628 76.521 105.335 70.2732C106.241 62.274 103.749 55.7528 97.9281 50.8928C92.6931 46.521 84.8394 43.6326 75.2148 42.5395C72.8501 42.2662 70.4719 42.1265 68.0915 42.1212Z" fill="#371A45"/>
<g opacity="0.7">
<path d="M99.7197 68.0034C100.681 64.803 99.5831 61.6431 97.2673 60.9457C94.9515 60.2482 92.295 62.2773 91.3336 65.4777C90.3723 68.6781 91.4703 71.8379 93.7861 72.5353C96.1018 73.2328 98.7584 71.2038 99.7197 68.0034Z" fill="white"/>
</g>
<g opacity="0.7">
<path d="M91.0087 79.0359C91.6484 77.6421 91.1986 76.0666 90.0042 75.517C88.8098 74.9674 87.323 75.6518 86.6833 77.0456C86.0437 78.4395 86.4934 80.0149 87.6878 80.5645C88.8823 81.1141 90.3691 80.4298 91.0087 79.0359Z" fill="white"/>
</g>
<g opacity="0.35">
<path d="M101.516 53.2168C105.189 57.6238 107.014 63.3078 106.214 70.3742C105.462 77.0239 102.606 82.9506 98.3442 87.6397C95.1461 91.1534 83.0268 96.5645 68.9847 95.0998C64.0265 94.5831 59.3562 93.0602 55.3422 91.1424C72.6412 92.5754 87.4109 85.9224 91.3755 81.5632C96.7882 75.6129 100.411 68.0881 101.365 59.6519C101.614 57.5162 101.665 55.3619 101.516 53.2168Z" fill="#111A28"/>
</g>
<path d="M105.062 55.5057C104.946 55.5059 104.83 55.483 104.723 55.4385C104.615 55.3939 104.518 55.3285 104.436 55.246C104.416 55.2257 104.392 55.2004 104.375 55.1785C104.34 55.1369 104.31 55.0922 104.284 55.0451C99.4792 46.3755 88.9609 40.5219 75.4259 38.9847C61.8153 37.4381 50.2492 40.9348 43.6928 48.5771C43.6126 48.6701 43.5143 48.7458 43.4039 48.7996C43.2936 48.8533 43.1734 48.884 43.0508 48.8898C42.9282 48.8955 42.8057 48.8762 42.6908 48.833C42.5759 48.7898 42.471 48.7237 42.3824 48.6386C42.2217 48.474 42.1303 48.2538 42.1273 48.0237C42.1242 47.7935 42.2097 47.571 42.366 47.4022C49.3133 39.3201 61.4331 35.6093 75.6255 37.2234C89.7164 38.8238 100.714 44.9904 105.81 54.1452C105.895 54.2794 105.942 54.4339 105.947 54.5926C105.952 54.7512 105.914 54.9083 105.838 55.0474C105.761 55.1865 105.649 55.3025 105.512 55.3833C105.376 55.4641 105.22 55.5067 105.062 55.5068V55.5057Z" fill="#371A45"/>
<g opacity="0.7">
<path d="M45.165 74.0438C45.165 74.0438 41.6883 56.0695 51.8129 50.2137C61.9376 44.3579 75.3738 45.9122 74.9621 46.7395C74.9621 46.7395 59.6748 48.6567 52.5197 59.7738C47.0023 68.3467 45.165 74.0438 45.165 74.0438Z" fill="white"/>
</g>
<path d="M62.0922 24.3067C61.4258 27.0125 60.9029 29.7517 60.5258 32.5128C60.4877 32.8022 60.5345 33.0964 60.6604 33.3596C60.7864 33.6228 60.9861 33.8437 61.2352 33.9952C64.8989 36.2275 80.2865 44.8026 98.914 43.7628C98.914 43.7628 102.039 34.8857 102.949 31.7898" fill="white"/>
<path d="M95.7432 44.7384C78.5671 44.7384 64.7706 37.1877 60.7747 34.7539C60.3788 34.5126 60.0615 34.1612 59.8615 33.7425C59.6615 33.3239 59.5873 32.856 59.648 32.3959C60.0282 29.5995 60.5578 26.8255 61.2347 24.086C61.2608 23.9703 61.3097 23.861 61.3787 23.7646C61.4476 23.6683 61.5352 23.5867 61.6362 23.5248C61.7372 23.4629 61.8496 23.4219 61.9666 23.4042C62.0837 23.3866 62.2032 23.3926 62.3179 23.422C62.4326 23.4514 62.5403 23.5035 62.6345 23.5753C62.7288 23.6471 62.8077 23.737 62.8666 23.8399C62.9255 23.9428 62.9632 24.0564 62.9775 24.1741C62.9918 24.2918 62.9823 24.4112 62.9497 24.5252C62.2938 27.1973 61.7777 29.902 61.4036 32.6281C61.3881 32.747 61.4074 32.8678 61.4592 32.9759C61.5109 33.084 61.593 33.1747 61.6953 33.237C65.7822 35.7268 80.3951 43.7133 98.2752 42.9063C98.9748 40.909 101.337 34.1286 102.1 31.5383C102.166 31.3126 102.32 31.1226 102.526 31.01C102.732 30.8974 102.975 30.8715 103.2 30.938C103.426 31.0044 103.615 31.1578 103.728 31.3644C103.84 31.571 103.866 31.8139 103.8 32.0396C102.892 35.1223 99.8773 43.6936 99.7495 44.057C99.6918 44.2222 99.5865 44.3665 99.447 44.4718C99.3075 44.5771 99.1399 44.6387 98.9655 44.6489C97.8792 44.71 96.8051 44.7398 95.7432 44.7384Z" fill="#371A45"/>
<g opacity="0.3">
<path d="M103.407 30.2377C102.743 32.4887 100.388 38.0947 99.1513 40.9787C97.3259 40.743 95.5917 40.0407 94.1158 38.9396C92.6399 37.8384 91.4719 36.3754 90.7242 34.6913C85.959 37.8982 79.7491 38.5833 74.3113 35.9387C71.0957 34.3787 68.4856 31.7978 66.8875 28.5978C65.112 28.9105 63.2867 28.7731 61.5779 28.1981C61.8822 25.1088 62.5494 22.7535 62.5494 22.7535L103.407 30.2377Z" fill="#371A45"/>
</g>
<path d="M111.433 31.7986C108.725 37.3881 102.116 39.7769 96.6786 37.1345C94.4019 36.0297 92.5898 34.1531 91.5636 31.8375C86.7979 35.0454 80.588 35.729 75.1507 33.0866C71.9352 31.5258 69.3252 28.9443 67.7269 25.744C65.5 26.1386 63.2054 25.8197 61.17 24.8326C55.5802 22.1155 53.381 15.1029 56.2541 9.16859C59.1271 3.23426 65.9976 0.623681 71.5879 3.34077C72.0663 3.57103 72.5259 3.83849 72.9625 4.14069C77.8099 0.560544 84.3219 -0.306355 89.9994 2.45356C95.4367 5.09598 98.7423 10.4039 99.1678 16.1345C101.622 15.5102 104.217 15.7757 106.494 16.8839C111.931 19.5264 114.147 26.2008 111.433 31.7986Z" fill="white"/>
<g opacity="0.3">
<path d="M111.434 31.7997C108.724 37.3898 102.113 39.7769 96.6796 37.1356C94.4033 36.0295 92.5911 34.1528 91.5636 31.8375C86.799 35.0444 80.5886 35.7295 75.1507 33.0855C71.9352 31.5251 69.3252 28.944 67.7269 25.744C65.5005 26.1387 63.2065 25.82 61.1716 24.8332C57.4087 23.0038 55.1821 19.2299 55.0039 15.1529C54.918 13.0851 55.3476 11.0285 56.254 9.1686C59.1342 3.23316 65.9971 0.624231 71.5885 3.34022C72.0653 3.57122 72.5236 3.83884 72.9592 4.14069C77.8071 0.561094 84.3196 -0.306354 89.9966 2.45246C93.3431 4.0792 96.0293 6.80869 97.6046 10.1832C97.7055 10.3929 97.7992 10.6021 97.8831 10.8113C98.599 12.5041 99.0324 14.3032 99.1661 16.1367C101.429 15.5617 103.817 15.7418 105.969 16.6495C108.12 17.5572 109.917 19.1431 111.086 21.1663C112.892 24.2754 113.152 28.2536 111.434 31.7997Z" fill="#371A45"/>
</g>
<path d="M110.604 27.2862C107.895 32.8746 103.285 34.9724 98.6914 31.1052C95.8797 28.7378 96.8327 25.9038 96.8787 23.7626C92.8154 29.3697 83.3311 32.5469 75.2598 27.9203C70.8862 25.4135 68.0532 20.7424 67.6019 17.6817C64.6741 23.4046 61.5034 21.9355 59.427 20.866C56.253 19.2337 56.0616 17.0141 55.0067 15.1485C54.9206 13.0824 55.3493 11.0274 56.2541 9.1686C59.1342 3.23316 65.9971 0.624231 71.5885 3.34022C72.0654 3.57122 72.5237 3.83884 72.9592 4.14069C77.8072 0.561094 84.3197 -0.306354 89.9967 2.45246C93.3432 4.0792 96.0293 6.80869 97.6047 10.1832C97.631 10.4088 97.6535 10.6334 97.6704 10.8612C97.7401 10.8436 97.8119 10.8261 97.8832 10.8113C98.599 12.5041 99.0325 14.3032 99.1662 16.1367C101.429 15.5617 103.817 15.7418 105.969 16.6495C108.12 17.5572 109.917 19.1431 111.086 21.1663C111.777 23.5529 111.445 25.5507 110.604 27.2862Z" fill="white"/>
<path d="M101.639 38.5273C99.6361 38.5245 97.6675 38.0027 95.925 37.0128C94.1825 36.0229 92.7254 34.5985 91.6952 32.8779C86.7667 36.0364 80.5689 36.5618 75.285 34.2131C72.0383 32.7778 69.3216 30.361 67.5158 27.3016C65.3167 27.6447 63.0654 27.3462 61.0313 26.4418C58.0596 25.1209 55.8111 22.6536 54.7008 19.4962C53.5971 16.3574 53.7517 12.908 55.1361 9.78679C58.0036 3.31826 65.3134 0.267371 71.4295 2.98611C71.7766 3.14038 72.1011 3.30289 72.4115 3.48022C77.5012 -0.282744 84.1069 -1.0596 89.7998 1.47027C95.0864 3.82007 98.8525 8.77221 99.8126 14.5501C102.159 14.0891 104.589 14.3611 106.776 15.3291C109.668 16.6149 111.875 18.9801 112.986 21.9887C114.096 24.9973 113.984 28.2744 112.673 31.2391C111.362 34.2038 109.004 36.4833 106.038 37.672C104.64 38.2352 103.147 38.5256 101.639 38.5273ZM92.005 30.7077C92.0773 30.7076 92.1493 30.7167 92.2194 30.7346C92.3446 30.7658 92.4614 30.8241 92.5617 30.9054C92.662 30.9867 92.7434 31.089 92.8 31.2051C93.8379 33.3281 95.5168 34.9527 97.6556 35.903C100.107 36.9928 102.85 37.0356 105.377 36.0233C107.913 35.0076 109.928 33.0525 111.051 30.5177C112.176 27.9801 112.273 25.1703 111.325 22.6047C110.381 20.0485 108.509 18.0402 106.058 16.9498C103.933 16.0101 101.546 15.8482 99.3136 16.4925C99.1895 16.5282 99.0592 16.5364 98.9316 16.5163C98.804 16.4963 98.6824 16.4485 98.5752 16.3765C98.468 16.3044 98.3779 16.2097 98.3111 16.0991C98.2443 15.9884 98.2025 15.8645 98.1886 15.7359C97.5854 10.1645 94.094 5.31888 89.081 3.09097C83.807 0.746115 77.6525 1.57129 73.0201 5.24367C72.8749 5.3584 72.6976 5.42484 72.5129 5.4337C72.3281 5.44256 72.1453 5.39339 71.9898 5.29308C71.5821 5.031 71.1544 4.80136 70.7107 4.60626C65.4861 2.28337 59.2263 4.93073 56.7547 10.5055C55.555 13.2127 55.4185 16.1966 56.3709 18.9054C57.3172 21.5956 59.2274 23.6978 61.7495 24.8183C63.6475 25.6609 65.7628 25.8811 67.7933 25.4475C67.9791 25.4087 68.1725 25.4307 68.3449 25.5104C68.5173 25.5901 68.6595 25.7232 68.7506 25.89C70.3921 28.8943 72.8994 31.2111 76.0027 32.5881C81.0135 34.8149 86.9465 34.1577 91.4852 30.8718C91.637 30.7639 91.8188 30.7065 92.005 30.7077Z" fill="#371A45"/>
<path d="M95.7103 27.7611C95.554 28.1377 95.3846 28.4781 95.2009 28.8256C95.0172 29.1732 94.8221 29.5075 94.6181 29.8408C94.2041 30.508 93.7558 31.1533 93.2748 31.7739L93.2704 31.7793C93.125 31.9668 92.9112 32.0888 92.676 32.1184C92.4407 32.148 92.2034 32.0828 92.0162 31.9372C91.829 31.7916 91.7072 31.5775 91.6776 31.3419C91.6481 31.1064 91.7132 30.8688 91.8586 30.6813C91.9063 30.6197 91.9616 30.5644 92.0231 30.5166C92.6042 30.0731 93.1618 29.5996 93.6937 29.0979C93.9591 28.8437 94.2195 28.5819 94.4701 28.3112C94.7206 28.0405 94.9673 27.7561 95.1828 27.4772L95.1932 27.463C95.2377 27.4041 95.302 27.3635 95.3743 27.3489C95.4465 27.3342 95.5216 27.3465 95.5854 27.3834C95.6492 27.4203 95.6973 27.4793 95.7207 27.5493C95.7441 27.6192 95.7412 27.6953 95.7125 27.7633L95.7103 27.7611Z" fill="#371A45"/>
<path d="M67.2959 21.7411C67.359 22.087 67.45 22.4548 67.5493 22.8078C67.6485 23.1609 67.7625 23.5144 67.8832 23.862C68.1287 24.5533 68.4099 25.2313 68.7259 25.8933C68.825 26.107 68.836 26.3513 68.7564 26.573C68.6769 26.7948 68.5132 26.9762 68.3009 27.0778C68.0885 27.1794 67.8448 27.1931 67.6224 27.1159C67.4001 27.0386 67.2172 26.8767 67.1134 26.6652C67.0811 26.5971 67.0573 26.5251 67.0426 26.4511V26.439C66.8957 25.6676 66.7892 24.8889 66.7235 24.1063C66.6939 23.7159 66.6725 23.3261 66.666 22.9363C66.6594 22.5465 66.666 22.1633 66.6956 21.7565C66.7014 21.6832 66.7336 21.6145 66.7862 21.5633C66.8388 21.512 66.9082 21.4817 66.9815 21.4778C67.0548 21.474 67.127 21.497 67.1846 21.5425C67.2423 21.588 67.2815 21.6529 67.2948 21.7252L67.2959 21.7411Z" fill="#371A45"/>
<path d="M109.466 132.99L109.253 133.562L109.034 134.176C108.889 134.588 108.752 135.008 108.615 135.431C108.349 136.277 108.089 137.133 107.865 138.011C107.64 138.889 107.447 139.776 107.278 140.677C107.182 141.127 107.122 141.581 107.03 142.036C106.956 142.492 106.887 142.951 106.799 143.412V143.417C106.794 143.445 106.779 143.47 106.757 143.487C106.735 143.505 106.708 143.515 106.68 143.514C106.652 143.513 106.625 143.503 106.604 143.484C106.583 143.466 106.569 143.441 106.565 143.413C106.496 142.949 106.43 142.479 106.385 142.012C106.351 141.543 106.311 141.071 106.303 140.599C106.278 139.65 106.312 138.7 106.405 137.755C106.507 136.808 106.648 135.857 106.904 134.927C106.967 134.693 107.031 134.461 107.111 134.232C107.191 134.002 107.266 133.772 107.359 133.546C107.443 133.317 107.548 133.095 107.653 132.871C107.708 132.761 107.763 132.651 107.825 132.537C107.888 132.423 107.947 132.325 108.032 132.188C108.141 132.018 108.308 131.894 108.503 131.839C108.697 131.785 108.904 131.804 109.085 131.893C109.266 131.981 109.409 132.134 109.485 132.32C109.562 132.507 109.567 132.716 109.5 132.906L109.466 132.99Z" fill="#371A45"/>
<path d="M30.7117 132.187C30.7972 132.324 30.8564 132.421 30.9189 132.536C30.9814 132.651 31.0351 132.756 31.0911 132.87C31.1952 133.094 31.3005 133.317 31.385 133.545C31.4782 133.771 31.5588 134 31.6322 134.231C31.7057 134.462 31.7764 134.693 31.8395 134.926C32.0961 135.856 32.237 136.808 32.339 137.755C32.4315 138.7 32.4655 139.649 32.441 140.599C32.4327 141.071 32.3932 141.542 32.3587 142.012C32.3137 142.481 32.2491 142.948 32.1789 143.412C32.1745 143.44 32.1606 143.465 32.1396 143.483C32.1185 143.502 32.0918 143.512 32.0639 143.513C32.036 143.513 32.0088 143.504 31.987 143.487C31.9652 143.469 31.9503 143.445 31.9448 143.417V143.412C31.8576 142.95 31.7879 142.492 31.7139 142.036C31.6218 141.581 31.5621 141.126 31.4656 140.676C31.2961 139.776 31.0982 138.887 30.8794 138.01C30.6607 137.134 30.3942 136.277 30.1294 135.43C29.9923 135.008 29.8552 134.588 29.7094 134.176L29.4901 133.561L29.2784 132.99L29.2472 132.906C29.1807 132.715 29.1862 132.507 29.2627 132.321C29.3392 132.134 29.4813 131.983 29.6621 131.894C29.8429 131.805 30.0499 131.786 30.2438 131.84C30.4378 131.894 30.6052 132.018 30.7144 132.187H30.7117Z" fill="#371A45"/>
<path d="M47.9897 99.8877C48.0204 101.118 47.9349 102.316 47.8357 103.501C47.7808 104.092 47.7359 104.682 47.6438 105.258C47.5652 105.824 47.4513 106.385 47.3027 106.937L47.2956 106.963C47.2377 107.169 47.1081 107.347 46.9304 107.465C46.7526 107.584 46.5384 107.635 46.3264 107.609C46.1145 107.583 45.9188 107.482 45.7748 107.324C45.6307 107.166 45.5478 106.962 45.5411 106.748C45.5186 106.099 45.6255 105.498 45.7544 104.903C45.8832 104.308 46.0762 103.734 46.2741 103.163C46.4721 102.592 46.6941 102.028 46.9321 101.471C47.1725 100.908 47.4428 100.358 47.7419 99.8241C47.7563 99.7994 47.7784 99.7801 47.8047 99.7691C47.8311 99.758 47.8603 99.7559 47.888 99.763C47.9157 99.77 47.9403 99.7859 47.9581 99.8082C47.976 99.8305 47.9861 99.8581 47.987 99.8866L47.9897 99.8877Z" fill="#371A45"/>
<path d="M91.9726 99.8252C92.2717 100.359 92.542 100.909 92.7825 101.472C93.0221 102.029 93.2436 102.593 93.4404 103.164C93.6372 103.735 93.8335 104.31 93.9602 104.904C94.0868 105.499 94.1959 106.1 94.174 106.749C94.1668 106.963 94.0838 107.166 93.9398 107.324C93.7959 107.481 93.6006 107.582 93.3891 107.608C93.1775 107.634 92.9636 107.584 92.7858 107.466C92.6081 107.348 92.4782 107.171 92.4195 106.966L92.4124 106.938C92.2638 106.386 92.1499 105.825 92.0713 105.259C91.9792 104.684 91.9343 104.094 91.8794 103.502C91.7796 102.317 91.6947 101.119 91.7254 99.8888C91.7258 99.86 91.7357 99.8322 91.7535 99.8096C91.7714 99.7869 91.7961 99.7708 91.824 99.7637C91.8519 99.7566 91.8813 99.7589 91.9078 99.7702C91.9343 99.7815 91.9563 99.8012 91.9705 99.8263L91.9726 99.8252Z" fill="#371A45"/>
<path d="M80.3282 113.546L79.4509 113.542C79.3657 113.542 79.2825 113.568 79.2136 113.619C79.1446 113.669 79.0933 113.739 79.0671 113.821L78.7995 114.655L78.8034 113.776C78.8038 113.691 78.777 113.608 78.7269 113.538C78.6768 113.469 78.606 113.418 78.5249 113.392L77.692 113.124L78.5693 113.128C78.6546 113.128 78.7378 113.101 78.8068 113.051C78.8758 113.001 78.927 112.93 78.9531 112.848L79.2206 112.014L79.2168 112.893C79.2166 112.978 79.2436 113.062 79.2937 113.131C79.3439 113.2 79.4147 113.251 79.4959 113.277L80.3282 113.546Z" fill="#FFF2BD"/>
<path d="M72.969 116.504L72.1576 116.629C72.0785 116.642 72.0053 116.679 71.9487 116.736C71.8921 116.793 71.8551 116.866 71.8429 116.945L71.7173 117.757L71.5923 116.945C71.58 116.866 71.5428 116.793 71.4861 116.736C71.4295 116.679 71.3562 116.642 71.277 116.629L70.4661 116.504L71.277 116.379C71.3563 116.367 71.4296 116.329 71.4863 116.273C71.543 116.216 71.5801 116.143 71.5923 116.063L71.7173 115.251L71.8429 116.063C71.8549 116.143 71.892 116.216 71.9486 116.273C72.0052 116.329 72.0784 116.367 72.1576 116.379L72.969 116.504Z" fill="#FFF2BD"/>
<path d="M59.1775 115.184L58.4017 115.452C58.3259 115.478 58.2605 115.528 58.2149 115.594C58.1692 115.66 58.1457 115.738 58.1478 115.819L58.1692 116.642L57.9011 115.865C57.875 115.789 57.8254 115.724 57.7595 115.678C57.6937 115.632 57.6149 115.609 57.5348 115.611L56.7124 115.632L57.4882 115.364C57.564 115.338 57.6294 115.288 57.675 115.222C57.7207 115.156 57.7442 115.077 57.7421 114.997L57.7207 114.174L57.9888 114.951C58.0149 115.026 58.0644 115.092 58.1301 115.138C58.1959 115.183 58.2745 115.207 58.3545 115.205L59.1775 115.184Z" fill="#FFF2BD"/>
<path d="M66.2219 112.455L65.6319 112.619C65.5744 112.636 65.5234 112.67 65.4864 112.716C65.4495 112.763 65.4284 112.821 65.4263 112.881L65.4038 113.493L65.2393 112.902C65.2234 112.845 65.1896 112.794 65.1427 112.757C65.0959 112.72 65.0385 112.698 64.9789 112.696L64.367 112.674L64.957 112.51C65.0145 112.494 65.0654 112.46 65.1024 112.413C65.1393 112.366 65.1604 112.309 65.1626 112.249L65.185 111.636L65.3495 112.227C65.3655 112.285 65.3993 112.335 65.4461 112.373C65.4929 112.41 65.5503 112.431 65.61 112.433L66.2219 112.455Z" fill="#FFF2BD"/>
<path d="M89.8338 115.484L89.1578 115.506C89.0918 115.508 89.0283 115.531 88.9765 115.572C88.9246 115.613 88.8871 115.669 88.8694 115.733L88.6868 116.385L88.6643 115.709C88.6622 115.643 88.6391 115.579 88.5984 115.527C88.5577 115.475 88.5014 115.437 88.4379 115.419L87.7865 115.237L88.4625 115.214C88.5284 115.212 88.592 115.189 88.6438 115.148C88.6957 115.107 88.7332 115.051 88.7509 114.987L88.9335 114.336L88.956 115.012C88.958 115.078 88.9811 115.142 89.0219 115.194C89.0626 115.246 89.1189 115.283 89.1824 115.301L89.8338 115.484Z" fill="#FFF2BD"/>
<path d="M50.1807 114.525L49.5919 114.69C49.5343 114.706 49.4834 114.74 49.4465 114.787C49.4097 114.835 49.3887 114.892 49.3868 114.952L49.3676 115.564L49.2031 114.975C49.1869 114.917 49.1528 114.866 49.1058 114.829C49.0588 114.792 49.0013 114.771 48.9416 114.769L48.3297 114.75L48.9186 114.586C48.9761 114.569 49.0271 114.535 49.064 114.488C49.1008 114.441 49.1217 114.383 49.1236 114.324L49.1428 113.711L49.3073 114.301C49.3236 114.359 49.3578 114.41 49.4049 114.446C49.452 114.483 49.5096 114.504 49.5694 114.506L50.1807 114.525Z" fill="#FFF2BD"/>
</g>
<defs>
<clipPath id="clip0_1970_6149">
<rect width="137" height="168" fill="white"/>
</clipPath>
</defs>
</svg>
