<svg width="71" height="86" viewBox="0 0 71 86" fill="none" xmlns="http://www.w3.org/2000/svg">
<g opacity="0.3">
<path d="M35.7545 85.8729C54.9589 85.8729 70.5272 83.9604 70.5272 81.6013C70.5272 79.2422 54.9589 77.3297 35.7545 77.3297C16.5501 77.3297 0.981773 79.2422 0.981773 81.6013C0.981773 83.9604 16.5501 85.8729 35.7545 85.8729Z" fill="#371A45"/>
</g>
<path d="M51.9899 50.3915V63.7753C51.9909 64.3772 51.87 64.9731 51.6347 65.5269C51.0099 66.9969 49.6263 68.0248 48.0293 68.0248H24.425C23.082 68.0248 21.8922 67.3 21.1738 66.1943C20.7087 65.4737 20.4623 64.6334 20.4646 63.7753V50.3915C20.4629 49.5954 20.6752 48.8134 21.0792 48.1278C21.6851 47.1013 22.691 46.3695 23.8563 46.1872C24.0444 46.1577 24.2346 46.1429 24.425 46.1431H48.0293C48.217 46.1432 48.4045 46.1575 48.5901 46.186C49.4529 46.3187 50.2286 46.7534 50.8198 47.3848C51.5415 48.156 51.9899 49.2209 51.9899 50.3915Z" fill="white"/>
<path d="M48.0293 68.4762H24.4249C22.9807 68.4762 21.6241 67.7154 20.797 66.4411C20.2839 65.6476 20.0123 64.7218 20.0151 63.7764V50.3916C20.0138 49.5147 20.2478 48.6535 20.6926 47.8981C21.3831 46.7272 22.5109 45.9416 23.7867 45.742C23.9979 45.709 24.2113 45.6925 24.4249 45.6926H48.0293C48.2397 45.6928 48.4499 45.7088 48.658 45.7406C49.5923 45.8844 50.4766 46.3595 51.1482 47.0788C51.9807 47.967 52.4393 49.144 52.4393 50.3922V63.7756C52.441 64.4384 52.3079 65.0947 52.048 65.7043C51.3324 67.3867 49.7549 68.4762 48.0293 68.4762ZM24.4249 46.5934C24.258 46.5932 24.0912 46.606 23.9262 46.6316C22.9164 46.7897 22.0199 47.4183 21.4663 48.3567C21.1035 48.9733 20.9128 49.6762 20.9141 50.3919V63.7753C20.9113 64.5467 21.1325 65.3022 21.5507 65.9499C22.2114 66.9677 23.286 67.5755 24.4249 67.5755H48.0293C49.3931 67.5755 50.6455 66.7023 51.2211 65.3513C51.4331 64.8534 51.5417 64.3175 51.5401 63.7762V50.3916C51.5401 49.3732 51.1679 48.4153 50.4922 47.6941C49.9494 47.1133 49.2675 46.7462 48.5219 46.6308C48.3588 46.606 48.1942 46.5935 48.0293 46.5934H24.4249Z" fill="#371A45"/>
<path d="M64.2905 65.9082C64.2905 65.9082 61.1875 80.7397 60.1749 81.0692C58.7276 81.5409 55.2457 81.0444 55.2457 81.0444C55.2457 81.0444 47.9372 80.0527 41.4335 79.6103C39.5634 79.4832 37.7596 79.4009 36.2166 79.4009C34.7601 79.4009 33.0731 79.474 31.318 79.5889C24.7367 80.0201 17.1888 81.0444 17.1888 81.0444C17.1888 81.0444 13.7061 81.5409 12.2585 81.0692C11.2459 80.7394 8.14175 65.9082 8.14175 65.9082C9.98845 63.2335 14.2544 63.5171 16.2886 68.2361C16.6708 67.6232 17.1378 67.0676 17.6755 66.5859C18.3354 65.997 19.1022 65.5408 19.9342 65.2422C20.178 65.1533 20.4218 65.078 20.6634 65.0161C24.0239 64.1357 27.0863 65.6294 29.2453 67.2606C29.4418 67.4081 29.6297 67.5578 29.8095 67.7067C29.8273 67.7226 29.8465 67.7359 29.8651 67.7518C30.0079 67.87 30.1435 67.9882 30.2776 68.1053C30.9249 68.6736 31.6481 69.1487 32.4263 69.5168C32.5376 69.5676 32.649 69.6183 32.7622 69.6654C33.8558 70.1282 35.0308 70.3668 36.2179 70.3671C38.4073 70.3671 40.5134 69.5531 42.1574 68.1056C43.9805 66.5004 46.8013 64.6487 50.0243 64.7602C50.8702 64.7899 51.7062 64.9529 52.5014 65.243C53.4662 65.5888 54.3419 66.1457 55.0648 66.8731C55.4753 67.2856 55.8384 67.7429 56.1472 68.2364C58.1779 63.5171 62.4438 63.2349 64.2905 65.9082Z" fill="white"/>
<g opacity="0.35">
<path d="M31.9874 79.5474C31.8289 79.5569 31.6699 79.5667 31.5103 79.5769C31.6708 79.5669 31.8298 79.5571 31.9874 79.5474Z" fill="#371A45"/>
</g>
<g opacity="0.35">
<path d="M33.0383 79.49C32.8051 79.5012 32.5685 79.5143 32.3314 79.5277C32.5691 79.5143 32.8047 79.5017 33.0383 79.49Z" fill="#371A45"/>
</g>
<g opacity="0.35">
<path d="M32.3314 79.5274L31.9885 79.5472L32.3314 79.5274Z" fill="#371A45"/>
</g>
<g opacity="0.35">
<path d="M64.2905 65.9085C64.2905 65.9085 61.1875 80.7399 60.176 81.0683C58.7273 81.5423 55.2446 81.0446 55.2446 81.0446C55.2446 81.0446 46.3538 79.8392 39.4566 79.4935C39.414 79.4901 39.3711 79.489 39.3285 79.4868C38.2227 79.4327 37.1707 79.4012 36.2166 79.4012C35.8929 79.4012 35.5569 79.4045 35.2118 79.4123C34.9813 79.4157 34.7464 79.4227 34.5082 79.4305C34.0317 79.445 33.5407 79.4653 33.0383 79.4901C32.536 79.5149 32.0291 79.5431 31.512 79.5768C31.4469 79.5813 31.3829 79.5846 31.3172 79.5891C24.7359 80.0204 17.1868 81.0446 17.1868 81.0446C17.1868 81.0446 13.7077 81.5423 12.2576 81.0683C11.2462 80.7385 8.14203 65.9085 8.14203 65.9085C8.43232 65.4837 8.80174 65.1191 9.23001 64.8346C10.2245 69.182 11.6361 74.86 12.2576 75.0627C13.7063 75.5344 17.1868 75.0368 17.1868 75.0368C17.1868 75.0368 19.1351 74.5071 21.9184 73.8751C19.9951 71.7809 18.5475 69.2942 17.6753 66.5862C18.3352 65.9972 19.1021 65.541 19.9342 65.2424C20.178 65.1535 20.4218 65.0782 20.6634 65.0163C24.0239 64.1359 27.0863 65.6297 29.2453 67.2609C29.4418 67.4083 29.6297 67.558 29.8095 67.7069C29.8273 67.7228 29.8465 67.7362 29.8651 67.7521C30.0079 67.8703 30.1435 67.9885 30.2776 68.1056C30.9249 68.6738 31.6481 69.1489 32.4263 69.5171C32.5376 69.5678 32.649 69.6186 32.7622 69.6657C33.8558 70.1284 35.0308 70.367 36.2179 70.3674C38.4073 70.3674 40.5134 69.5533 42.1574 68.1059C43.9805 66.5006 46.8013 64.6489 50.0243 64.7604C50.8702 64.7902 51.7062 64.9531 52.5014 65.2433C53.4662 65.5891 54.3419 66.146 55.0648 66.8733C54.1721 69.5035 52.7344 71.915 50.8459 73.9495C53.45 74.5497 55.246 75.0368 55.246 75.0368C55.246 75.0368 58.7287 75.5344 60.1774 75.0627C60.7978 74.86 62.2092 69.182 63.205 64.8346C63.6322 65.1196 64.0007 65.4841 64.2905 65.9085Z" fill="#371A45"/>
</g>
<g opacity="0.35">
<path d="M34.5082 79.4303C34.7464 79.4225 34.9813 79.4155 35.2118 79.4122C34.9813 79.4169 34.7464 79.4236 34.5082 79.4303Z" fill="#371A45"/>
</g>
<g opacity="0.35">
<path d="M39.3285 79.4867C38.2227 79.4338 37.1695 79.4031 36.2165 79.4031C35.8928 79.4031 35.5569 79.4065 35.2118 79.4131C35.5569 79.4053 35.8928 79.402 36.2165 79.402C37.1706 79.4012 38.2219 79.4327 39.3285 79.4867Z" fill="#371A45"/>
</g>
<path d="M14.1238 81.7215C13.3704 81.7215 12.6348 81.6658 12.1182 81.4968C11.7508 81.3767 11.2473 81.2125 9.38393 73.4703C8.49022 69.7577 7.71063 66.0378 7.70284 66.0007C7.69029 65.9409 7.69003 65.8792 7.70209 65.8193C7.71415 65.7593 7.73827 65.7025 7.77298 65.6523C8.68867 64.3255 10.1741 63.6274 11.75 63.783C13.6112 63.9678 15.2611 65.2522 16.361 67.3442C17.2667 66.1619 18.414 65.3141 19.78 64.8192C22.5187 63.8265 25.5194 64.292 28.4576 66.1658C28.5074 66.1975 28.5505 66.2388 28.5844 66.2872C28.6183 66.3357 28.6423 66.3903 28.6551 66.448C28.6679 66.5058 28.6692 66.5655 28.659 66.6237C28.6487 66.6819 28.6271 66.7376 28.5954 66.7875C28.5637 66.8374 28.5225 66.8805 28.4742 66.9144C28.4258 66.9484 28.3713 66.9724 28.3136 66.9852C28.256 66.998 28.1964 66.9994 28.1383 66.9891C28.0801 66.9789 28.0246 66.9572 27.9748 66.9255C25.2419 65.1828 22.5877 64.759 20.0861 65.6659C18.6728 66.178 17.5228 67.1234 16.6677 68.4764C16.624 68.5455 16.5622 68.6015 16.4891 68.6381C16.416 68.6747 16.3343 68.6907 16.2528 68.6843C16.1712 68.6779 16.093 68.6493 16.0265 68.6016C15.96 68.554 15.9078 68.4891 15.8753 68.4139C14.9265 66.2115 13.3904 64.8507 11.6615 64.6782C10.4772 64.5602 9.3561 65.0565 8.62382 66.0105C10.0274 72.6908 11.8179 79.8785 12.4589 80.6591C13.6 80.9908 16.2015 80.7293 17.1245 80.598C17.2492 80.581 29.3491 78.9509 36.2177 78.9509C43.0862 78.9509 55.1853 80.581 55.3067 80.5975C56.2324 80.7296 58.8339 80.9911 59.9753 80.6591C60.6155 79.8785 62.4074 72.6902 63.8104 66.0111C63.0781 65.0573 61.959 64.5614 60.773 64.6787C59.0438 64.8502 57.5077 66.2121 56.5592 68.4145C56.5267 68.4897 56.4744 68.5545 56.4079 68.6022C56.3414 68.6498 56.2631 68.6784 56.1816 68.6848C56.1001 68.6912 56.0184 68.6753 55.9452 68.6386C55.8721 68.602 55.8103 68.5461 55.7665 68.4769C54.9118 67.124 53.7625 66.1786 52.3486 65.6665C49.8256 64.752 47.1481 65.19 44.3916 66.9698C44.3419 67.0018 44.2865 67.0238 44.2284 67.0343C44.1704 67.0449 44.1108 67.0439 44.0531 67.0314C43.9954 67.019 43.9407 66.9952 43.8922 66.9615C43.8436 66.9279 43.8022 66.885 43.7702 66.8353C43.7382 66.7856 43.7163 66.7301 43.7058 66.6719C43.6952 66.6137 43.6962 66.554 43.7087 66.4962C43.7211 66.4384 43.7448 66.3837 43.7784 66.3351C43.812 66.2864 43.8549 66.2449 43.9045 66.2129C46.867 64.3001 49.8924 63.8184 52.6545 64.819C54.0208 65.3138 55.1678 66.1616 56.0735 67.3439C57.1732 65.253 58.8234 63.9673 60.6842 63.7827C62.261 63.6263 63.7458 64.3252 64.6612 65.652C64.696 65.7022 64.7201 65.7591 64.7321 65.819C64.7442 65.8789 64.7439 65.9406 64.7314 66.0005C64.7236 66.0375 63.944 69.7574 63.0503 73.47C61.1872 81.2122 60.6845 81.3764 60.316 81.4965C58.7852 81.9961 55.3292 81.5108 55.1828 81.4899C55.0651 81.4737 43.0244 79.8517 36.2177 79.8517C29.4109 79.8517 17.3702 81.4737 17.2494 81.4901C17.1526 81.5041 15.604 81.7215 14.1238 81.7215Z" fill="#371A45"/>
<path d="M59.2759 81.0691H60.1757C60.6925 81.0695 61.1984 80.9199 61.6321 80.6384C62.0658 80.3568 62.4087 79.9555 62.6195 79.4828C63.966 76.4622 66.4211 69.8256 64.1224 65.7757C64.0553 65.6575 63.9837 65.5438 63.9078 65.4347C63.9078 65.4347 61.7001 63.4233 60.1142 66.2689C58.6316 68.9268 55.5218 80.293 59.2759 81.0691Z" fill="#AFAFB2"/>
<g opacity="0.7">
<path d="M59.3009 68.1632C59.3407 68.0994 59.3803 68.0392 59.419 67.9837C61.3692 65.1381 64.084 67.1496 64.084 67.1496C64.1775 67.2587 64.2654 67.3725 64.3473 67.4905C64.6153 67.875 64.8369 68.29 65.0075 68.7267C64.8961 67.6631 64.6228 66.6575 64.1216 65.7757C64.0544 65.6575 63.9829 65.5438 63.907 65.4347C63.907 65.4347 61.6993 63.4233 60.1134 66.2689C59.8729 66.6996 59.5904 67.3575 59.3009 68.1632Z" fill="white"/>
</g>
<path d="M64.9969 69.0631C64.9718 69.0631 64.9468 69.0611 64.9221 69.057L59.4026 68.1342C59.3443 68.1245 59.2886 68.1033 59.2385 68.072C59.1885 68.0407 59.145 67.9998 59.1107 67.9517C59.0764 67.9036 59.0519 67.8491 59.0386 67.7915C59.0253 67.7339 59.0235 67.6743 59.0332 67.6159C59.0429 67.5576 59.064 67.5018 59.0953 67.4516C59.1266 67.4015 59.1674 67.358 59.2154 67.3236C59.2635 67.2893 59.3178 67.2647 59.3753 67.2514C59.4328 67.2381 59.4924 67.2362 59.5506 67.246L65.0693 68.1696C65.1805 68.1882 65.2807 68.2479 65.35 68.337C65.4193 68.4261 65.4526 68.5381 65.4433 68.6506C65.4341 68.7632 65.3829 68.8682 65.3 68.9447C65.2172 69.0213 65.1086 69.0638 64.9958 69.064L64.9969 69.0631Z" fill="#371A45"/>
<path d="M64.9604 72.0494C64.9402 72.0495 64.9201 72.0482 64.9 72.0455L58.4445 71.1762C58.3289 71.1575 58.225 71.0943 58.1552 71C58.0854 70.9058 58.0551 70.788 58.0707 70.6716C58.0863 70.5553 58.1467 70.4497 58.239 70.3773C58.3312 70.3049 58.448 70.2715 58.5645 70.2841L65.0197 71.1525C65.1329 71.1675 65.236 71.2251 65.3084 71.3135C65.3807 71.4019 65.4167 71.5146 65.4092 71.6286C65.4016 71.7427 65.3511 71.8496 65.2677 71.9277C65.1844 72.0057 65.0746 72.0492 64.9604 72.0491V72.0494Z" fill="#371A45"/>
<path d="M64.391 74.9746C64.3724 74.9747 64.3538 74.9737 64.3353 74.9715L57.7827 74.1681C57.6643 74.1536 57.5566 74.0926 57.4831 73.9985C57.4096 73.9044 57.3765 73.7849 57.391 73.6664C57.4054 73.5478 57.4663 73.4399 57.5603 73.3663C57.6542 73.2927 57.7734 73.2595 57.8918 73.274L64.4447 74.0774C64.5583 74.0914 64.6623 74.1482 64.7355 74.2363C64.8087 74.3243 64.8456 74.437 64.8387 74.5514C64.8318 74.6658 64.7817 74.7733 64.6984 74.8519C64.6152 74.9305 64.5051 74.9744 64.3907 74.9746H64.391Z" fill="#371A45"/>
<path d="M63.3517 78.1644C63.3381 78.1644 63.3245 78.1638 63.3108 78.1627L57.4523 77.633C57.3935 77.6277 57.3363 77.6108 57.284 77.5834C57.2317 77.5559 57.1853 77.5185 57.1475 77.4731C57.1097 77.4277 57.0812 77.3753 57.0636 77.3188C57.046 77.2624 57.0396 77.203 57.0449 77.1441C57.0502 77.0852 57.0671 77.028 57.0945 76.9756C57.1219 76.9232 57.1593 76.8768 57.2046 76.8389C57.2499 76.801 57.3022 76.7724 57.3586 76.7548C57.4149 76.7372 57.4742 76.7308 57.533 76.7361L63.3915 77.2658C63.507 77.2758 63.6142 77.3302 63.6907 77.4175C63.7671 77.5048 63.807 77.6183 63.8018 77.7343C63.7967 77.8504 63.747 77.9599 63.6631 78.0401C63.5792 78.1203 63.4676 78.1649 63.3517 78.1646V78.1644Z" fill="#371A45"/>
<g opacity="0.35">
<path d="M59.2759 81.0688H60.1758C60.6926 81.0692 61.1984 80.9196 61.6321 80.638C62.0658 80.3565 62.4087 79.9552 62.6195 79.4825C62.9677 78.6994 63.391 77.6754 63.7868 76.5154C63.2468 77.4131 62.1497 77.9823 60.9448 77.9823H59.8729C58.3469 77.7175 57.7727 76.2187 57.7501 74.2538C57.2339 77.5697 57.3758 80.6757 59.2759 81.0688Z" fill="#371A45"/>
</g>
<path d="M60.1757 81.5192H59.2759C59.2454 81.5192 59.215 81.5161 59.1852 81.51C58.4473 81.3575 57.8898 80.8788 57.5286 80.0881C55.9883 76.7148 58.5049 68.2308 59.7207 66.0495C60.2823 65.042 60.9912 64.4619 61.8273 64.325C63.1099 64.1153 64.1653 65.0615 64.2095 65.1019C64.2343 65.1246 64.2566 65.1499 64.2758 65.1775C64.3593 65.2974 64.4389 65.4239 64.5123 65.5536C66.8567 69.6821 64.5897 76.1678 63.03 79.6666C62.7833 80.2183 62.3826 80.6867 61.8762 81.0154C61.3698 81.3441 60.7792 81.5191 60.1757 81.5192ZM59.3252 80.6187H60.1757C60.6054 80.6185 61.0258 80.4939 61.3864 80.2598C61.7469 80.0256 62.0321 79.692 62.2075 79.2992C63.4077 76.6072 65.958 69.9233 63.7294 65.998C63.6787 65.909 63.625 65.8221 63.5691 65.739C63.4093 65.6091 62.7146 65.0886 61.9657 65.2143C61.416 65.306 60.9244 65.7348 60.5044 66.4881C59.2342 68.7672 57.0384 76.8525 58.3446 79.7129C58.5776 80.2197 58.8979 80.5164 59.3252 80.6187Z" fill="#371A45"/>
<path d="M13.1572 81.0691H12.2576C11.7408 81.0695 11.235 80.9199 10.8012 80.6384C10.3675 80.3568 10.0245 79.9555 9.81366 79.4828C8.46712 76.4622 6.012 69.8256 8.3107 65.7757C8.3775 65.6575 8.44893 65.5438 8.52501 65.4347C8.52501 65.4347 10.7327 63.4233 12.3189 66.2689C13.8015 68.9268 16.9113 80.293 13.1572 81.0691Z" fill="#AFAFB2"/>
<g opacity="0.7">
<path d="M13.1322 68.1628C13.0927 68.099 13.0529 68.0388 13.0142 67.9833C11.0639 65.1377 8.34913 67.1492 8.34913 67.1492C8.25572 67.2583 8.16784 67.3721 8.08583 67.4901C7.81791 67.875 7.59631 68.2902 7.42564 68.7271C7.53697 67.6635 7.81029 66.6579 8.31184 65.7761C8.37863 65.6579 8.45007 65.5443 8.52615 65.4352C8.52615 65.4352 10.7338 63.4237 12.32 66.2693C12.5602 66.6992 12.843 67.3571 13.1322 68.1628Z" fill="white"/>
</g>
<path d="M7.439 69.0631C7.32625 69.063 7.21766 69.0204 7.13476 68.9439C7.05187 68.8673 7.00073 68.7624 6.99148 68.6498C6.98223 68.5372 7.01555 68.4253 7.08484 68.3362C7.15412 68.2471 7.25431 68.1873 7.36552 68.1688L12.8836 67.246C12.9418 67.2362 13.0014 67.2381 13.0589 67.2514C13.1164 67.2647 13.1708 67.2893 13.2188 67.3236C13.2669 67.358 13.3077 67.4015 13.339 67.4516C13.3702 67.5018 13.3913 67.5576 13.401 67.6159C13.4108 67.6743 13.4089 67.7339 13.3956 67.7915C13.3823 67.8491 13.3578 67.9036 13.3235 67.9517C13.2892 67.9998 13.2458 68.0407 13.1957 68.072C13.1457 68.1033 13.0899 68.1245 13.0317 68.1342L7.51359 69.057C7.48894 69.0611 7.46399 69.0631 7.439 69.0631Z" fill="#371A45"/>
<path d="M7.47265 72.0496C7.35854 72.0497 7.24868 72.0062 7.16535 71.9282C7.08201 71.8501 7.03145 71.7432 7.02391 71.6291C7.01637 71.5151 7.05241 71.4024 7.12474 71.314C7.19706 71.2256 7.30025 71.168 7.41337 71.153L13.8683 70.2838C13.9276 70.2741 13.9882 70.2764 14.0466 70.2907C14.105 70.3049 14.1599 70.3306 14.2082 70.3665C14.2565 70.4023 14.2971 70.4475 14.3276 70.4993C14.3581 70.5511 14.378 70.6086 14.386 70.6682C14.394 70.7278 14.39 70.7885 14.3742 70.8465C14.3584 70.9046 14.3311 70.9589 14.294 71.0062C14.2569 71.0536 14.2107 71.093 14.1582 71.1221C14.1056 71.1512 14.0477 71.1695 13.988 71.1759L7.53333 72.0449C7.51323 72.0478 7.49296 72.0494 7.47265 72.0496Z" fill="#371A45"/>
<path d="M8.04238 74.9746C7.92782 74.9749 7.81749 74.9313 7.73393 74.8528C7.65036 74.7743 7.59987 74.6668 7.59277 74.5523C7.58566 74.4378 7.62248 74.3248 7.69569 74.2366C7.76891 74.1483 7.87301 74.0914 7.98671 74.0775L14.5396 73.274C14.658 73.2595 14.7773 73.2926 14.8712 73.3662C14.9652 73.4398 15.0261 73.5477 15.0406 73.6663C15.0551 73.7848 15.022 73.9043 14.9486 73.9984C14.8751 74.0925 14.7674 74.1535 14.649 74.1681L8.09749 74.9721C8.07918 74.974 8.06078 74.9749 8.04238 74.9746Z" fill="#371A45"/>
<path d="M9.08113 78.1642C8.96515 78.1645 8.85351 78.12 8.76957 78.0398C8.68562 77.9597 8.63586 77.8501 8.63069 77.734C8.62551 77.618 8.66532 77.5044 8.7418 77.4171C8.81828 77.3297 8.9255 77.2754 9.04105 77.2654L14.8998 76.7357C15.0186 76.725 15.1367 76.7619 15.2282 76.8384C15.3197 76.9149 15.3772 77.0248 15.3879 77.1437C15.3986 77.2626 15.3617 77.3809 15.2853 77.4726C15.2089 77.5643 15.0993 77.6218 14.9805 77.6325L9.12176 78.1622C9.10896 78.1636 9.09505 78.1642 9.08113 78.1642Z" fill="#371A45"/>
<g opacity="0.35">
<path d="M13.1572 81.0688H12.2576C11.7408 81.0692 11.235 80.9195 10.8012 80.638C10.3675 80.3565 10.0245 79.9552 9.81366 79.4825C9.46547 78.6994 9.04242 77.6754 8.64636 76.5154C9.18631 77.4131 10.2835 77.9823 11.4884 77.9823H12.5602C14.086 77.7175 14.6602 76.2187 14.6827 74.2538C15.1993 77.5697 15.0576 80.6757 13.1572 81.0688Z" fill="#371A45"/>
</g>
<path d="M13.1572 81.5191H12.2577C11.6541 81.519 11.0634 81.344 10.5569 81.0151C10.0504 80.6863 9.64969 80.2176 9.40315 79.6658C7.84453 76.1673 5.57672 69.6816 7.92106 65.5527C7.99426 65.4234 8.07387 65.2968 8.15736 65.1769C8.17656 65.1493 8.19878 65.124 8.22361 65.1014C8.26814 65.0609 9.32411 64.1153 10.6061 64.3244C11.4411 64.4613 12.1508 65.0414 12.7125 66.049C13.9282 68.2299 16.4451 76.7145 14.9046 80.0876C14.5427 80.8788 13.9861 81.3574 13.2482 81.5094C13.2183 81.5157 13.1878 81.519 13.1572 81.5191ZM8.86264 65.7398C8.80698 65.8234 8.75298 65.9099 8.70261 65.9985C6.47377 69.9233 9.02547 76.6072 10.2242 79.2989C10.3998 79.692 10.6852 80.0259 11.046 80.2601C11.4069 80.4943 11.8277 80.6188 12.2577 80.6187H13.108C13.5352 80.5163 13.8555 80.2197 14.0871 79.7129C15.3936 76.852 13.1979 68.7669 11.9276 66.4881C11.5076 65.7353 11.0161 65.3063 10.4664 65.2143C9.71766 65.0888 9.02546 65.6074 8.86264 65.739V65.7398Z" fill="#371A45"/>
<path d="M23.3114 80.6463C23.2535 80.6462 23.1965 80.6311 23.1461 80.6026C23.0956 80.574 23.0534 80.5329 23.0234 80.4833C22.9934 80.4336 22.9767 80.377 22.9749 80.319C22.9731 80.261 22.9862 80.2035 23.013 80.152C24.6012 77.1133 24.6246 73.6959 23.0832 69.9961C21.922 67.2082 20.2601 65.3036 20.2443 65.2846C20.213 65.2517 20.1888 65.2128 20.1729 65.1703C20.157 65.1277 20.1499 65.0825 20.1519 65.0371C20.1539 64.9917 20.165 64.9473 20.1846 64.9063C20.2042 64.8654 20.2318 64.8288 20.2658 64.7988C20.2998 64.7688 20.3395 64.7459 20.3825 64.7316C20.4256 64.7173 20.471 64.7119 20.5162 64.7156C20.5614 64.7193 20.6053 64.7321 20.6454 64.7532C20.6856 64.7744 20.721 64.8034 20.7497 64.8385C20.8204 64.9186 22.4929 66.8338 23.6983 69.7173C25.3059 73.5632 25.2758 77.28 23.6114 80.4657C23.5827 80.5204 23.5396 80.5662 23.4867 80.598C23.4338 80.6299 23.3731 80.6466 23.3114 80.6463Z" fill="#371A45"/>
<path d="M49.2756 80.6458C49.214 80.6459 49.1536 80.6291 49.1008 80.5972C49.0481 80.5653 49.0051 80.5195 48.9764 80.4649C47.312 77.2792 47.282 73.5624 48.8896 69.7165C50.0953 66.8325 51.7675 64.9172 51.8382 64.8377C51.8985 64.7756 51.9805 64.739 52.067 64.7356C52.1535 64.7323 52.238 64.7624 52.303 64.8197C52.368 64.877 52.4085 64.9572 52.4161 65.0435C52.4237 65.1299 52.3979 65.216 52.3439 65.2838C52.3269 65.3028 50.665 67.2074 49.505 69.9953C47.9636 73.6951 47.987 77.1119 49.5751 80.1512C49.6019 80.2027 49.6151 80.2602 49.6133 80.3182C49.6115 80.3762 49.5948 80.4328 49.5648 80.4825C49.5348 80.5321 49.4925 80.5732 49.4421 80.6018C49.3916 80.6303 49.3347 80.6454 49.2768 80.6455L49.2756 80.6458Z" fill="#371A45"/>
<path d="M56.2538 61.0676H16.1826C16.1826 57.1579 17.9438 53.8191 20.4647 51.1196C21.7728 49.717 23.2899 48.4876 24.87 47.4419C25.5803 46.9713 26.3031 46.538 27.0268 46.1427C30.5893 44.1976 34.1589 43.1708 36.2188 43.1708C38.2787 43.1708 41.8482 44.1976 45.4097 46.1427C46.8221 46.9105 48.1672 47.7965 49.4307 48.7912C50.3419 49.508 51.1978 50.2926 51.9913 51.1383C54.5015 53.8325 56.2538 57.1657 56.2538 61.0676Z" fill="white"/>
<path d="M56.2538 61.5174H16.1826C16.0634 61.5173 15.9491 61.4698 15.8648 61.3854C15.7805 61.301 15.7331 61.1865 15.7331 61.0671C15.7331 54.6344 20.2244 50.1359 23.9919 47.4949C28.4623 44.3611 33.5265 42.7213 36.2179 42.7213C38.9093 42.7213 43.9738 44.3611 48.4445 47.4949C52.2122 50.1359 56.7027 54.6344 56.7027 61.0671C56.7027 61.1864 56.6554 61.3008 56.5712 61.3852C56.487 61.4696 56.3729 61.5171 56.2538 61.5174ZM16.6399 60.6169H55.7965C55.5905 54.8095 51.4321 50.6882 47.9293 48.2326C43.657 45.2379 38.7067 43.622 36.2182 43.622C33.7297 43.622 28.7794 45.239 24.507 48.2326C21.0043 50.6896 16.8464 54.8095 16.6399 60.6169Z" fill="#371A45"/>
<path d="M54.2555 62.0644C54.2444 62.0644 54.2332 62.0644 54.2218 62.0627C54.139 62.0541 54.0625 62.0143 54.0079 61.9513C53.9533 61.8883 53.9247 61.8068 53.9279 61.7234C53.9301 61.6655 53.9312 61.6069 53.9326 61.5478V61.53C53.9339 61.4473 53.9663 61.3682 54.0234 61.3085C54.0804 61.2488 54.1579 61.2128 54.2402 61.2078C54.3226 61.2029 54.4038 61.2292 54.4676 61.2817C54.5314 61.3341 54.573 61.4088 54.5842 61.4907C54.59 61.5331 54.5928 61.576 54.5925 61.6189C54.5924 61.6762 54.5875 61.7333 54.5778 61.7898C54.5652 61.8664 54.5259 61.936 54.4669 61.9863C54.4079 62.0366 54.333 62.0642 54.2555 62.0644Z" fill="#371A45"/>
<path d="M54.5199 57.4162C54.5199 57.4318 54.5199 57.446 54.5199 57.4614C54.4684 58.2356 53.0726 58.9481 50.7552 59.5174C47.4459 58.702 42.2548 58.1764 36.4181 58.1764C30.5813 58.1764 25.3891 58.702 22.0787 59.5174C19.7622 58.9481 18.3666 58.235 18.3151 57.4614C18.3151 57.446 18.3151 57.4318 18.3151 57.4162C18.3151 55.516 26.4206 53.974 36.4192 53.974C46.4178 53.974 54.5199 55.516 54.5199 57.4162Z" fill="white"/>
<path d="M54.5196 57.416C54.5196 57.4314 54.5196 57.4456 54.5196 57.4612C54.4981 57.7902 54.2332 58.108 53.7572 58.4091C53.6292 58.4902 53.485 58.5699 53.3275 58.6491C52.6929 58.9636 51.8209 59.2557 50.7555 59.5184C47.4456 58.7024 42.2548 58.1774 36.418 58.1774C30.5812 58.1774 25.3896 58.7024 22.0787 59.5184C21.0135 59.2557 20.1415 58.9636 19.5069 58.6491C19.3494 58.5699 19.2049 58.4902 19.0772 58.4091C18.6021 58.1088 18.3371 57.791 18.3157 57.4612C18.3138 57.4462 18.3131 57.4311 18.3134 57.416C18.3134 55.5153 26.4192 53.9736 36.418 53.9736C46.4169 53.9736 54.5196 55.5153 54.5196 57.416Z" fill="white"/>
<path d="M53.3263 58.6485C52.6918 58.9629 51.8198 59.2551 50.7543 59.5177C47.4445 58.7017 42.2537 58.1767 36.4169 58.1767C30.5801 58.1767 25.3885 58.7017 22.0775 59.5177C21.0124 59.2551 20.1404 58.9629 19.5058 58.6485C22.1115 57.3557 28.7003 56.4371 36.4169 56.4371C44.1335 56.4371 50.7207 57.3557 53.3263 58.6485Z" fill="#371A45"/>
<path d="M22.079 59.968C22.0429 59.968 22.0069 59.9636 21.9718 59.9549C19.2746 59.2923 17.9319 58.4863 17.8657 57.4921C17.8637 57.4701 17.8634 57.4447 17.8634 57.4171C17.8634 54.5612 28.9589 53.5244 36.417 53.5244C43.875 53.5244 54.9697 54.5612 54.9697 57.4171C54.9697 57.445 54.9697 57.4729 54.9663 57.5008C54.9012 58.4857 53.558 59.2917 50.861 59.9541C50.7906 59.9714 50.7171 59.9714 50.6467 59.9541C47.2216 59.1099 42.0353 58.6259 36.417 58.6259C30.7987 58.6259 25.6112 59.1099 22.185 59.9541C22.1504 59.9629 22.1148 59.9676 22.079 59.968ZM36.417 54.4255C31.6089 54.4255 27.093 54.7809 23.6994 55.426C19.7942 56.1687 18.7624 57.0533 18.7624 57.4174C18.7624 57.4194 18.7624 57.4308 18.7624 57.4325C18.768 57.5161 18.9083 58.2602 22.0781 59.055C25.5717 58.2108 30.7873 57.7274 36.4167 57.7274C42.0461 57.7274 47.2606 58.2108 50.7527 59.055C53.924 58.2599 54.0648 57.5158 54.0698 57.4327V57.4174C54.0698 57.0533 53.0381 56.1687 49.1332 55.426C45.7406 54.7798 41.2245 54.4255 36.417 54.4255Z" fill="#371A45"/>
<path d="M50.5645 59.4715C50.5748 59.474 50.584 59.4798 50.5906 59.4881C50.5972 59.4965 50.6008 59.5068 50.6008 59.5174C50.6008 59.528 50.5972 59.5383 50.5906 59.5466C50.584 59.555 50.5748 59.5608 50.5645 59.5632C47.2485 60.3525 42.1435 60.8585 36.4169 60.8585C30.6903 60.8585 25.578 60.3519 22.2609 59.5619C22.251 59.5595 22.2421 59.5538 22.2357 59.5457C22.2294 59.5376 22.2259 59.5277 22.2259 59.5174C22.2259 59.5071 22.2294 59.4971 22.2357 59.4891C22.2421 59.481 22.251 59.4753 22.2609 59.4729C25.578 58.6828 30.687 58.1763 36.4169 58.1763C42.1468 58.1763 47.2485 58.6826 50.5645 59.4715Z" fill="#371A45"/>
<path d="M36.4169 61.3089C30.8468 61.3089 25.649 60.8319 22.1569 60C22.0486 59.9742 21.9521 59.9125 21.8831 59.825C21.8141 59.7374 21.7766 59.6291 21.7766 59.5176C21.7766 59.4061 21.8141 59.2978 21.8831 59.2103C21.9521 59.1227 22.0486 59.061 22.1569 59.0352C25.6493 58.2033 30.8471 57.7263 36.4172 57.7263C41.9874 57.7263 47.1782 58.2027 50.6689 59.0338C50.7776 59.0597 50.8743 59.1215 50.9436 59.2093C51.0128 59.2971 51.0505 59.4057 51.0505 59.5176C51.0505 59.6295 51.0128 59.7381 50.9436 59.8259C50.8743 59.9137 50.7776 59.9755 50.6689 60.0014C47.1776 60.8325 41.9829 61.3089 36.4169 61.3089ZM24.2997 59.5175C27.584 60.089 31.8702 60.4096 36.4169 60.4096C40.9637 60.4096 45.248 60.0901 48.5325 59.5175C45.2482 58.9462 40.962 58.6253 36.4169 58.6253C31.8719 58.6253 27.5848 58.9462 24.2997 59.5175Z" fill="#371A45"/>
<path d="M45.8399 66.1592C45.5104 65.9919 45.4316 65.4622 45.6704 64.9732C49.3688 57.4036 53.067 49.8339 56.7651 42.2641C57.0042 41.7751 57.6535 41.5874 58.199 41.8657C58.7442 42.1445 58.9744 42.7807 58.7198 43.2618L46.8976 65.5996C46.6429 66.0808 46.1697 66.3276 45.8399 66.1592Z" fill="#F9B653"/>
<g opacity="0.3">
<path d="M58.8231 42.8376C58.8242 42.9851 58.7887 43.1305 58.7198 43.2608C54.7796 50.7076 50.8391 58.1538 46.8982 65.5995C46.6432 66.0804 46.1695 66.3274 45.8405 66.1593C45.5116 65.9912 45.432 65.4623 45.6716 64.973L50.3876 55.3195C50.4126 55.3396 50.4397 55.3572 50.4683 55.3719C50.7989 55.5392 51.2718 55.2927 51.5259 54.8121C53.7952 50.524 56.0649 46.2355 58.3349 41.9466C58.6461 42.161 58.8231 42.5022 58.8231 42.8376Z" fill="#371A45"/>
</g>
<path d="M46.0662 66.5406C45.936 66.5412 45.8075 66.5107 45.6913 66.4517C45.1942 66.1977 45.0556 65.4851 45.3765 64.8291L56.4709 42.12C56.5459 41.9691 56.6503 41.8349 56.778 41.7252C56.9057 41.6155 57.0541 41.5325 57.2143 41.4813C57.5895 41.3613 57.9968 41.3945 58.3477 41.5736C58.6985 41.7527 58.9647 42.0632 59.0883 42.4378C59.141 42.5978 59.1611 42.7667 59.1475 42.9346C59.134 43.1026 59.0869 43.2661 59.0093 43.4155L47.1871 65.7533C46.9268 66.2462 46.4829 66.5406 46.0662 66.5406ZM45.9889 65.867C46.1169 65.932 46.4208 65.8001 46.6084 65.4461L58.4306 43.1083C58.4675 43.0355 58.4894 42.9561 58.4951 42.8746C58.5007 42.7932 58.4901 42.7115 58.4637 42.6343C58.393 42.4275 58.2447 42.2563 58.0502 42.1571C57.8557 42.0578 57.6303 42.0382 57.4217 42.1024C57.3441 42.1265 57.2722 42.1658 57.21 42.2181C57.1479 42.2705 57.0968 42.3347 57.0599 42.4071L45.9649 65.1177C45.7887 65.4779 45.8614 65.8021 45.9889 65.867Z" fill="#371A45"/>
<path d="M45.6601 65.6217C45.3615 65.4029 45.3676 64.869 45.6816 64.423L60.2472 43.776C60.5612 43.3299 61.232 43.2496 61.7263 43.6115C62.2203 43.9739 62.3461 44.6386 62.0182 45.0729L46.7938 65.2381C46.4653 65.6722 45.9593 65.8403 45.6601 65.6217Z" fill="#F9B653"/>
<g opacity="0.3">
<path d="M62.2006 44.5148C62.2022 44.7156 62.1382 44.9114 62.0183 45.0724C56.9431 51.7939 51.8683 58.5157 46.7938 65.2376C46.4651 65.6711 45.9588 65.8395 45.6596 65.6209C45.3604 65.4024 45.3679 64.8682 45.6813 64.4222C47.3444 62.0657 49.0074 59.7086 50.6703 57.351C50.7042 57.4131 50.7518 57.4667 50.8095 57.5077C51.1112 57.7232 51.6167 57.5487 51.9381 57.111C55.2368 52.6403 58.5358 48.1694 61.8348 43.6982C61.9484 43.802 62.0394 43.9281 62.1023 44.0685C62.1652 44.209 62.1987 44.3609 62.2006 44.5148Z" fill="#371A45"/>
</g>
<path d="M45.9702 66.0458C45.7898 66.0482 45.6133 65.9923 45.467 65.8863C45.0164 65.5565 44.9939 64.8311 45.4141 64.2345L59.9801 43.5864C60.0781 43.4495 60.2024 43.3337 60.3458 43.2457C60.4892 43.1578 60.6488 43.0995 60.8151 43.0743C61.2045 43.0161 61.6012 43.114 61.919 43.3468C62.2368 43.5797 62.4502 43.9286 62.5129 44.318C62.5394 44.4844 62.5324 44.6544 62.4922 44.818C62.4521 44.9816 62.3796 45.1355 62.2791 45.2706L47.0546 65.4358C46.7585 65.8281 46.3457 66.0458 45.9702 66.0458ZM45.8533 65.3569C45.9847 65.4528 46.3092 65.3352 46.5322 65.0402L61.7566 44.8747C61.8045 44.809 61.8387 44.7342 61.8573 44.655C61.8758 44.5757 61.8783 44.4936 61.8646 44.4133C61.8278 44.1978 61.7087 44.0051 61.5325 43.876C61.3562 43.747 61.1368 43.6917 60.9206 43.7219C60.8401 43.7333 60.7626 43.7606 60.6929 43.8024C60.6231 43.8441 60.5623 43.8994 60.5142 43.965L45.9483 64.6131C45.7172 64.9407 45.7376 65.2725 45.8528 65.3566L45.8533 65.3569Z" fill="#371A45"/>
<path d="M54.5187 57.4612V61.1652C54.5187 61.2886 54.5174 61.4123 54.5148 61.5363C54.5135 61.6032 54.5123 61.6701 54.5096 61.7359C54.2087 71.487 46.2241 79.2994 36.4158 79.2994C26.6076 79.2994 18.6241 71.4859 18.3246 61.7359C18.3218 61.6701 18.3207 61.6032 18.3193 61.5363C18.3167 61.4125 18.3154 61.2888 18.3154 61.1652V57.4612C18.3669 58.2354 19.7627 58.948 22.0789 59.5173C25.3894 60.3327 30.5818 60.8585 36.4183 60.8585C42.2548 60.8585 47.4462 60.3327 50.7555 59.5173C53.0703 58.948 54.4672 58.2354 54.5187 57.4612Z" fill="#F92323"/>
<g opacity="0.4">
<path d="M54.5185 57.7058V59.2899C54.4673 60.0206 53.0712 60.693 50.7544 61.2311C47.4445 62.0005 42.2537 62.4968 36.4169 62.4968C30.5802 62.4968 25.3885 62.0005 22.0776 61.2311C19.7608 60.693 18.3658 60.0206 18.3146 59.2899V57.7058C18.3658 58.4362 19.7619 59.1089 22.0776 59.647C25.3896 60.4162 30.5804 60.9127 36.4169 60.9127C42.2535 60.9127 47.4445 60.4162 50.7544 59.647C53.0703 59.1089 54.4673 58.4362 54.5185 57.7058Z" fill="white"/>
</g>
<g opacity="0.3">
<path d="M54.2298 60.4834V62.6278C54.2298 62.7427 54.2298 62.8564 54.2259 62.9694C54.2259 63.0318 54.2237 63.0934 54.2206 63.1536C54.1603 65.0088 53.7722 66.8386 53.0745 68.5582C50.5292 74.8381 44.0567 79.3007 36.4765 79.3007C28.9542 79.3007 22.5259 74.9078 19.9397 68.7068C19.2035 66.9449 18.7943 65.0634 18.7321 63.1545C18.7301 63.0943 18.729 63.0326 18.7271 62.9702C18.7248 62.8574 18.7238 62.7435 18.724 62.6287V60.1868C18.7749 60.1408 18.8261 60.0976 18.8793 60.0566C19.2848 59.7399 19.7493 59.5431 20.254 59.501C22.097 59.3474 23.3662 61.0212 23.5811 63.6078C23.7286 65.3853 23.3395 67.1311 22.4831 68.0962C25.7334 71.9993 30.7922 74.5056 36.4765 74.5056C42.0806 74.5056 47.0782 72.0678 50.3316 68.2593C49.3739 67.3326 48.9327 65.4927 49.0883 63.6167C49.3032 61.0301 50.5721 59.356 52.4154 59.5099C53.0277 59.5612 53.5799 59.8389 54.0395 60.283C54.1051 60.3471 54.17 60.4137 54.2298 60.4834Z" fill="#371A45"/>
</g>
<g opacity="0.3">
<path d="M54.2299 59.2236V60.4838C54.1687 60.4141 54.1052 60.3474 54.0395 60.2847C54.0796 60.0252 54.1144 59.7648 54.1419 59.5013C54.1919 59.4167 54.222 59.3217 54.2299 59.2236Z" fill="#343C47"/>
<path d="M54.2299 60.5366C54.2224 60.5366 54.215 60.535 54.2082 60.5319C54.2013 60.5287 54.1953 60.5242 54.1904 60.5185C54.128 60.4483 54.0651 60.3825 54.0031 60.3234C53.9979 60.3184 53.9937 60.3124 53.9909 60.3058C53.9881 60.2992 53.9866 60.2921 53.9866 60.2849C54.0298 59.9997 54.0632 59.7443 54.0893 59.4954C54.09 59.488 54.0923 59.4808 54.096 59.4745C54.1417 59.3967 54.1693 59.3098 54.177 59.2199C54.1783 59.2064 54.1848 59.194 54.195 59.1851C54.2051 59.1762 54.2183 59.1715 54.2319 59.172C54.2454 59.1725 54.2582 59.1781 54.2677 59.1877C54.2772 59.1974 54.2827 59.2103 54.2831 59.2238V60.4839C54.2831 60.4947 54.2798 60.5052 54.2737 60.514C54.2676 60.5228 54.2589 60.5296 54.2488 60.5333C54.2428 60.5356 54.2364 60.5368 54.2299 60.5366ZM54.096 60.2654C54.1231 60.2916 54.1501 60.3189 54.177 60.3473V59.6668C54.1547 59.8583 54.128 60.0571 54.096 60.2654Z" fill="#371A45"/>
</g>
<path d="M36.4155 79.6279C31.5935 79.6279 27.0337 77.7745 23.5761 74.4093C20.1248 71.0516 18.1442 66.5542 17.9956 61.7451C17.9934 61.686 17.9923 61.623 17.9909 61.56V61.5421C17.9881 61.4161 17.9868 61.2902 17.987 61.1644V57.4615C17.9862 57.376 18.0189 57.2935 18.078 57.2318C18.1372 57.17 18.218 57.1338 18.3034 57.131C18.3888 57.1282 18.4719 57.1589 18.535 57.2166C18.5981 57.2743 18.6361 57.3544 18.641 57.4398C18.6705 57.8797 19.6091 58.5731 22.1558 59.1992C25.5914 60.0453 30.7906 60.531 36.4169 60.531C42.0433 60.531 47.2413 60.0456 50.6756 59.1995C53.2237 58.5731 54.1628 57.88 54.1917 57.4401C54.1977 57.3554 54.2363 57.2764 54.2992 57.2196C54.3622 57.1628 54.4446 57.1327 54.5293 57.1355C54.614 57.1383 54.6943 57.1738 54.7533 57.2347C54.8124 57.2955 54.8456 57.3769 54.846 57.4618V61.1658C54.846 61.2918 54.8447 61.4177 54.8421 61.5435C54.8421 61.6121 54.8396 61.6812 54.8369 61.7493C54.6885 66.5556 52.7065 71.053 49.2561 74.4107C45.7982 77.7756 41.2381 79.6279 36.4155 79.6279ZM18.6416 58.5095V61.1655C18.6416 61.2867 18.6428 61.408 18.6452 61.5296V61.5477C18.6452 61.6068 18.6474 61.6654 18.6497 61.7233C18.9483 71.3973 26.7518 78.9727 36.415 78.9727C46.0782 78.9727 53.8833 71.397 54.1817 61.7261C54.1842 61.6598 54.1856 61.5951 54.187 61.531C54.1892 61.4089 54.1904 61.2872 54.1906 61.166V58.5098C53.5504 59.0035 52.4355 59.4426 50.8315 59.8368C47.3485 60.6952 42.0942 61.1875 36.4164 61.1875C30.7385 61.1875 25.4834 60.6952 21.9991 59.8368C20.3959 59.442 19.2823 59.0032 18.6416 58.5095Z" fill="#371A45"/>
<path d="M36.4155 79.7512C31.5615 79.7512 26.9714 77.8855 23.4909 74.4983C20.0193 71.1183 18.0232 66.591 17.8737 61.7502C17.8715 61.6914 17.8701 61.6275 17.8687 61.5637V61.5456C17.8663 61.419 17.865 61.2923 17.8648 61.1656V57.4616C17.8641 57.3443 17.909 57.2314 17.9902 57.1468C18.0713 57.0622 18.1822 57.0127 18.2992 57.0088C18.4163 57.0049 18.5302 57.0469 18.6168 57.1258C18.7034 57.2047 18.7559 57.3144 18.763 57.4315C18.7685 57.5151 18.9121 58.2759 22.185 59.0805C25.6117 59.9244 30.7989 60.4087 36.4172 60.4087C42.0355 60.4087 47.2216 59.9244 50.6469 59.0805C53.9214 58.2754 54.0648 57.5157 54.0703 57.4318C54.0774 57.3147 54.1299 57.2051 54.2164 57.1261C54.303 57.0472 54.4169 57.0052 54.5339 57.0091C54.6509 57.013 54.7618 57.0624 54.843 57.147C54.9241 57.2315 54.9692 57.3444 54.9685 57.4616V61.1656C54.9685 61.2923 54.9672 61.4191 54.9646 61.5458C54.9646 61.615 54.9618 61.6852 54.959 61.7538C54.8099 66.5908 52.8159 71.1183 49.3416 74.4983C45.8603 77.8855 41.2698 79.7512 36.4155 79.7512ZM18.7638 58.7415V61.167C18.7638 61.2874 18.765 61.4082 18.7674 61.5294V61.5478C18.7674 61.6058 18.7699 61.6638 18.7719 61.7206C19.0686 71.3293 26.8186 78.8529 36.4153 78.8529C46.012 78.8529 53.7636 71.3293 54.0612 61.7245C54.0637 61.6582 54.0651 61.5944 54.0662 61.5294C54.0686 61.4078 54.0698 61.287 54.0698 61.167V58.7415C53.3915 59.1932 52.3264 59.5954 50.8618 59.9554C47.3696 60.816 42.1048 61.3094 36.4166 61.3094C30.7285 61.3094 25.4637 60.816 21.9698 59.9554C20.5067 59.5952 19.4418 59.1929 18.7638 58.7415Z" fill="#371A45"/>
<path d="M22.3356 62.359C22.5711 65.1907 21.5627 67.9484 19.5443 68.1168C17.5258 68.2852 15.6989 66.126 15.4637 63.2938C15.2285 60.4616 16.6736 58.0303 18.6923 57.8619C20.711 57.6935 22.1004 59.5274 22.3356 62.359Z" fill="white"/>
<path d="M19.3235 68.189C17.3641 68.189 15.6287 66.0563 15.3991 63.2994C15.2844 61.9169 15.5605 60.5843 16.1784 59.5472C16.7988 58.5031 17.6897 57.8826 18.6867 57.7995C20.7007 57.6308 22.1549 59.4192 22.3987 62.3537C22.519 63.8012 22.3216 65.1893 21.8421 66.2623C21.3264 67.4182 20.5117 68.0993 19.5487 68.1796C19.4744 68.1857 19.3992 68.189 19.3235 68.189ZM18.9414 57.9152C18.8607 57.9152 18.7791 57.9188 18.6962 57.9255C17.7409 58.0052 16.8851 58.6041 16.2859 59.6122C15.6827 60.6267 15.4127 61.9325 15.5255 63.2891C15.7576 66.0811 17.5589 68.2186 19.5378 68.0533C20.7107 67.9554 21.3748 66.9972 21.7263 66.2105C22.1967 65.1567 22.3901 63.7909 22.2715 62.3632C22.0453 59.6289 20.7494 57.9152 18.9425 57.9152H18.9414Z" fill="#371A45"/>
<g opacity="0.35">
<path d="M22.3359 63.9623C22.0993 61.1321 20.7096 59.3013 18.6923 59.4697C17.0165 59.6091 15.7356 61.3097 15.4835 63.5032C15.4754 63.4349 15.4687 63.3638 15.4632 63.2943C15.2277 60.463 16.6736 58.0303 18.6917 57.8619C20.7099 57.6935 22.1004 59.5271 22.3359 62.3593C22.3807 62.8927 22.3807 63.4289 22.3359 63.9623Z" fill="white"/>
</g>
<g opacity="0.3">
<path d="M19.5439 68.1165C17.5255 68.2838 15.6986 66.126 15.4631 63.2935C15.3982 62.5468 15.4554 61.7945 15.6323 61.0663C16.1781 63.3523 17.7888 64.9651 19.5439 64.8193C20.9634 64.7003 21.8841 63.3002 22.2236 61.4951C22.2729 61.7702 22.311 62.0588 22.335 62.3593C22.5713 65.1909 21.5623 67.9481 19.5439 68.1165Z" fill="#371A45"/>
</g>
<path d="M19.3269 68.5759C17.1676 68.5759 15.2616 66.2898 15.0156 63.3319C14.894 61.8697 15.189 60.4554 15.8464 59.3494C16.5325 58.1952 17.53 57.5077 18.655 57.4138C20.898 57.2259 22.5204 59.1529 22.7837 62.3204C22.9095 63.832 22.7002 65.2876 22.1956 66.4186C21.6197 67.7094 20.6912 68.471 19.5815 68.5636C19.4964 68.5725 19.4112 68.5759 19.3269 68.5759ZM18.9372 58.3026C18.869 58.3026 18.8003 58.3056 18.7304 58.3115C17.9029 58.3804 17.1537 58.9126 16.6201 59.81C16.0579 60.7562 15.8066 61.9803 15.9126 63.2569C16.1197 65.7459 17.6285 67.6754 19.3227 67.6757C19.3843 67.6757 19.4462 67.6731 19.5083 67.6679C20.4928 67.5859 21.067 66.7442 21.3759 66.0529C21.8134 65.0721 22.0005 63.7389 21.8889 62.3963C21.6787 59.8805 20.5298 58.3026 18.9361 58.3026H18.9372Z" fill="#371A45"/>
<path d="M50.3889 62.359C50.1534 65.1907 51.1618 67.9484 53.1802 68.1168C55.1987 68.2852 57.0256 66.126 57.2611 63.2938C57.4965 60.4616 56.0509 58.0303 54.0325 57.8619C52.0141 57.6935 50.6241 59.5274 50.3889 62.359Z" fill="white"/>
<path d="M53.3999 68.1888C53.325 68.1888 53.2504 68.1858 53.175 68.1793C51.0249 68.0001 50.1023 65.0438 50.3257 62.3527C50.5696 59.419 52.0269 57.6312 54.0378 57.7984C56.0877 57.9693 57.562 60.4366 57.3243 63.2983C57.0949 66.0561 55.3593 68.1888 53.3999 68.1888ZM50.4518 62.3638C50.2333 64.9931 51.1173 67.8808 53.1856 68.053C55.1681 68.2186 56.9658 66.0809 57.1979 63.2889C57.43 60.4968 56.0078 58.0906 54.0272 57.9253C52.0956 57.7641 50.6892 59.506 50.4518 62.3638Z" fill="#371A45"/>
<g opacity="0.35">
<path d="M50.3887 63.9623C50.6253 61.1321 52.0149 59.3013 54.0325 59.4697C55.7081 59.6091 56.9892 61.3097 57.2413 63.5032C57.2491 63.4349 57.2558 63.3638 57.2614 63.2943C57.4969 60.463 56.0509 58.0303 54.0328 57.8619C52.0147 57.6935 50.6241 59.5271 50.3887 62.3593C50.3439 62.8927 50.3439 63.4289 50.3887 63.9623Z" fill="white"/>
</g>
<g opacity="0.3">
<path d="M53.1806 68.1165C55.1993 68.2838 57.0262 66.126 57.2614 63.2935C57.3264 62.5468 57.2692 61.7945 57.0922 61.0663C56.5464 63.3523 54.9357 64.9651 53.1806 64.8193C51.7611 64.7003 50.8404 63.3002 50.5008 61.4951C50.4516 61.7702 50.4134 62.0588 50.3895 62.3593C50.1535 65.1909 51.1621 67.9481 53.1806 68.1165Z" fill="#371A45"/>
</g>
<path d="M53.3979 68.576C53.3144 68.576 53.2281 68.5727 53.143 68.5654C50.743 68.3653 49.7017 65.1993 49.9422 62.3206C50.2058 59.1519 51.8284 57.2249 54.0712 57.4139C56.3334 57.6027 57.9658 60.2576 57.7103 63.332C57.4631 66.2905 55.5569 68.576 53.3979 68.576ZM50.8373 62.3964C50.6316 64.8729 51.4658 67.5219 53.2181 67.668C54.9869 67.8152 56.5992 65.8369 56.8138 63.257C57.0284 60.6771 55.764 58.4588 53.996 58.3116C52.2888 58.1692 51.0555 59.7733 50.8373 62.3964Z" fill="#371A45"/>
<path d="M54.2677 40.0455C54.2214 40.0429 54.1761 40.0311 54.1343 40.0109C54.0925 39.9907 54.0551 39.9625 54.0243 39.9278C53.9934 39.8932 53.9697 39.8527 53.9544 39.8089C53.9392 39.765 53.9327 39.7186 53.9354 39.6722L54.5151 29.4998C54.5205 29.4062 54.5628 29.3185 54.6327 29.2561C54.7025 29.1937 54.7943 29.1616 54.8878 29.167C55.3735 29.1947 55.8491 29.318 56.2872 29.5299C56.7254 29.7417 57.1176 30.0379 57.4414 30.4016C57.7653 30.7653 58.0145 31.1893 58.1747 31.6494C58.335 32.1096 58.4032 32.5968 58.3755 33.0834L58.1779 36.5523C58.1502 37.0389 58.027 37.5152 57.8155 37.9541C57.604 38.3929 57.3083 38.7858 56.9451 39.1102C56.582 39.4346 56.1587 39.6841 55.6993 39.8446C55.2399 40.0051 54.7534 40.0733 54.2677 40.0455Z" fill="white"/>
<path d="M54.4812 40.1325C54.4088 40.1325 54.3362 40.1305 54.2633 40.1264C54.1484 40.1198 54.0409 40.0678 53.9642 39.9818C53.8876 39.8958 53.8482 39.7829 53.8547 39.6678L54.4347 29.4954C54.4379 29.4384 54.4523 29.3826 54.4771 29.3312C54.5018 29.2798 54.5364 29.2337 54.579 29.1957C54.6215 29.1577 54.6711 29.1285 54.7249 29.1097C54.7787 29.0909 54.8357 29.0829 54.8926 29.0862C56.9764 29.2055 58.5751 31.0006 58.4552 33.0882L58.2575 36.5568C58.1437 38.5711 56.4707 40.1325 54.4812 40.1325ZM54.2725 39.9653C56.2636 40.0768 57.9831 38.5462 58.0972 36.5479L58.2948 33.0792C58.4089 31.0809 56.8784 29.3622 54.8834 29.2481C54.8477 29.2456 54.8118 29.2503 54.7779 29.2621C54.7441 29.2739 54.713 29.2925 54.6866 29.3167C54.6598 29.3405 54.6379 29.3694 54.6224 29.4017C54.6068 29.434 54.5978 29.4691 54.5959 29.5049L54.0158 39.6778C54.0119 39.7501 54.0367 39.8209 54.0848 39.8749C54.1329 39.9289 54.2004 39.9616 54.2725 39.9658V39.9653Z" fill="#371A45"/>
<g opacity="0.35">
<path d="M58.2706 34.925L58.1779 36.552C58.1215 37.5347 57.6779 38.4547 56.9446 39.1098C56.2113 39.7649 55.2482 40.1016 54.2672 40.0458C54.1736 40.0403 54.086 39.9978 54.0237 39.9276C53.9614 39.8575 53.9295 39.7654 53.9349 39.6717L54.0879 36.9674C54.1122 37.0311 54.1542 37.0865 54.2089 37.1269C54.2637 37.1674 54.329 37.1912 54.3969 37.1955L54.6379 37.2083C55.4051 37.2525 56.1671 37.0564 56.818 36.6473C57.469 36.2382 57.9766 35.6363 58.2706 34.925Z" fill="#371A45"/>
</g>
<path d="M54.4814 40.5021C54.4021 40.5021 54.3222 40.4996 54.242 40.4951C54.0295 40.4829 53.8305 40.3867 53.6888 40.2275C53.5471 40.0684 53.4743 39.8594 53.4864 39.6465L54.0664 29.4741C54.0724 29.3687 54.099 29.2655 54.1448 29.1704C54.1906 29.0753 54.2547 28.9902 54.3333 28.9199C54.412 28.8496 54.5037 28.7956 54.6032 28.7608C54.7027 28.726 54.8081 28.7112 54.9134 28.7172C57.2004 28.8483 58.9547 30.8184 58.8241 33.109L58.6265 36.5779C58.5007 38.7881 56.6646 40.5021 54.4814 40.5021ZM54.3896 39.6002C55.2361 39.6239 56.0585 39.3162 56.6822 38.7422C57.3058 38.1683 57.6815 37.3735 57.7295 36.5266L57.9274 33.0577C57.9744 32.2112 57.691 31.3797 57.1371 30.7387C56.5831 30.0978 55.8021 29.6978 54.959 29.6233L54.3896 39.6002Z" fill="#371A45"/>
<path d="M21.3667 27.2501C21.4602 27.2555 21.5477 27.2978 21.61 27.3678C21.6723 27.4378 21.7044 27.5297 21.699 27.6234L21.1193 37.7957C21.1139 37.8894 21.0716 37.977 21.0017 38.0394C20.9319 38.1019 20.8401 38.1339 20.7466 38.1286C19.7659 38.0725 18.8475 37.6286 18.1935 36.8944C17.5395 36.1603 17.2033 35.196 17.2589 34.2136L17.4568 30.7447C17.4843 30.258 17.6073 29.7816 17.8187 29.3425C18.0302 28.9035 18.3259 28.5105 18.689 28.186C19.0521 27.8615 19.4754 27.6118 19.9349 27.4512C20.3943 27.2906 20.8809 27.2223 21.3667 27.2501Z" fill="white"/>
<path d="M20.7675 38.2097H20.7421C19.7399 38.1522 18.8015 37.6983 18.1334 36.9478C17.4653 36.1973 17.1222 35.2116 17.1795 34.2077L17.3772 30.7391C17.4346 29.7352 17.8877 28.7953 18.6369 28.1261C19.3861 27.4569 20.3701 27.1132 21.3723 27.1706C21.4871 27.1773 21.5946 27.2293 21.6712 27.3153C21.7478 27.4013 21.7872 27.5142 21.7808 27.6292L21.2011 37.8016C21.1948 37.9123 21.1466 38.0164 21.0661 38.0926C20.9857 38.1688 20.8793 38.2113 20.7686 38.2114L20.7675 38.2097ZM21.1507 27.3245C20.2261 27.3258 19.337 27.6809 18.6652 28.3173C17.9935 28.9536 17.59 29.8231 17.5372 30.7477L17.3396 34.2164C17.3125 34.6923 17.3792 35.169 17.536 35.6191C17.6927 36.0692 17.9365 36.484 18.2533 36.8397C18.5701 37.1955 18.9538 37.4852 19.3824 37.6924C19.811 37.8997 20.2762 38.0203 20.7513 38.0475C20.787 38.0498 20.8228 38.0449 20.8566 38.0331C20.8904 38.0214 20.9215 38.0029 20.9481 37.9789C20.9748 37.9551 20.9966 37.9262 21.0121 37.8939C21.0277 37.8616 21.0366 37.8265 21.0385 37.7907L21.6186 27.6183C21.6225 27.5461 21.5977 27.4752 21.5497 27.4213C21.5016 27.3673 21.4341 27.3346 21.362 27.3303C21.2915 27.3273 21.2209 27.3245 21.1507 27.3245Z" fill="#371A45"/>
<g opacity="0.35">
<path d="M21.281 34.9735L21.1198 37.7957C21.1143 37.8894 21.0718 37.9771 21.0018 38.0395C20.9318 38.1019 20.8399 38.1339 20.7463 38.1286C20.2607 38.1009 19.7853 37.9776 19.3472 37.7659C18.9092 37.5542 18.517 37.2581 18.1932 36.8945C17.8694 36.531 17.6203 36.1071 17.46 35.6471C17.2997 35.1871 17.2315 34.7 17.2592 34.2136L17.3427 32.7519C17.599 33.4175 18.0415 33.995 18.617 34.4153C19.1926 34.8355 19.8769 35.0808 20.588 35.1216L20.9587 35.1428C21.0226 35.146 21.0863 35.132 21.1429 35.1023C21.1996 35.0725 21.2473 35.028 21.281 34.9735Z" fill="#371A45"/>
</g>
<path d="M20.7678 38.5794C20.7522 38.5794 20.7366 38.5794 20.721 38.5794C20.1762 38.5482 19.6428 38.4098 19.1514 38.1721C18.6599 37.9344 18.2201 37.6021 17.8569 37.194C17.4937 36.786 17.2144 36.3103 17.0348 35.7942C16.8552 35.278 16.7789 34.7314 16.8102 34.1857L17.0081 30.7167C17.0393 30.1712 17.1773 29.6372 17.4145 29.1452C17.6517 28.6531 17.9833 28.2127 18.3904 27.849C18.7975 27.4853 19.2722 27.2055 19.7872 27.0256C20.3023 26.8457 20.8477 26.7691 21.3923 26.8003C21.6047 26.8128 21.8035 26.9091 21.9452 27.0681C22.0868 27.2271 22.1598 27.4359 22.148 27.6487L21.5679 37.8213C21.5563 38.0261 21.4669 38.2187 21.3182 38.3596C21.1694 38.5005 20.9725 38.5791 20.7678 38.5794ZM21.1513 27.6941C20.3209 27.6955 19.5223 28.0145 18.919 28.5861C18.3156 29.1576 17.9531 29.9384 17.9054 30.7689L17.7092 34.2378C17.6612 35.0842 17.9441 35.9161 18.4979 36.5572C19.0518 37.1983 19.833 37.5982 20.6762 37.6722L21.244 27.6952C21.2136 27.6944 21.1825 27.6941 21.1513 27.6941Z" fill="#371A45"/>
<g opacity="0.35">
<path d="M50.8198 47.3854C50.3838 47.8798 49.92 48.349 49.4307 48.7905C45.8052 52.064 40.8276 53.7931 35.6062 53.1198C31.4593 52.5912 27.6446 50.5737 24.87 47.4417C24.5126 47.039 24.1748 46.6208 23.8564 46.1872C24.0445 46.1577 24.2346 46.143 24.425 46.1432H27.0268C30.5894 44.1981 34.1589 43.1713 36.2188 43.1713C38.2787 43.1713 41.8482 44.1981 45.4097 46.1432H48.0293C48.2171 46.1432 48.4045 46.1576 48.5901 46.1861C49.4532 46.3182 50.2286 46.7529 50.8198 47.3854Z" fill="#371A45"/>
</g>
<path d="M37.8194 51.0105C47.3928 51.0105 55.1536 43.2369 55.1536 33.6476C55.1536 24.0584 47.3928 16.2848 37.8194 16.2848C28.246 16.2848 20.4853 24.0584 20.4853 33.6476C20.4853 43.2369 28.246 51.0105 37.8194 51.0105Z" fill="white"/>
<path d="M37.8551 51.0941C37.0997 51.0939 36.3451 51.0453 35.5959 50.9486C26.0719 49.7205 19.321 40.9599 20.5482 31.4204C21.141 26.7992 23.4959 22.6863 27.1782 19.8393C30.8605 16.9923 35.4292 15.752 40.0427 16.3467C44.6563 16.9413 48.7627 19.3018 51.605 22.9888C54.4472 26.6757 55.6855 31.2534 55.0916 35.8746L55.0114 35.8643L55.0916 35.8746C54.4979 40.496 52.1427 44.609 48.4604 47.456C45.3813 49.8368 41.6821 51.0941 37.8551 51.0941ZM37.7841 16.3628C33.9922 16.3628 30.3277 17.6085 27.277 19.9673C23.6287 22.788 21.2955 26.8628 20.7085 31.4413C19.4942 40.8922 26.1823 49.5714 35.6179 50.7891C40.1886 51.3788 44.715 50.1499 48.3633 47.3291C52.0116 44.5083 54.3445 40.4336 54.9318 35.8551C55.5191 31.2766 54.293 26.7418 51.4769 23.0877C48.6608 19.4337 44.5928 17.0966 40.0221 16.5084C39.28 16.4121 38.5325 16.3635 37.7841 16.3628Z" fill="#371A45"/>
<g opacity="0.35">
<path d="M55.1531 33.4606C55.162 34.2646 55.1149 35.0683 55.0119 35.8657C53.7873 45.376 45.1007 52.0933 35.6059 50.87C26.1111 49.6467 19.4051 40.9424 20.6264 31.4319C20.6614 31.1584 20.7029 30.8855 20.7508 30.6178C20.8323 39.1487 27.184 46.5299 35.8714 47.6517C45.0932 48.8377 53.5521 42.536 55.1531 33.4606Z" fill="#371A45"/>
</g>
<path d="M37.8559 51.4637C37.0845 51.4636 36.3139 51.414 35.5488 51.3151C25.8233 50.0606 18.9294 41.1154 20.181 31.3735C20.7878 26.6545 23.1923 22.4543 26.9527 19.5471C30.7132 16.6399 35.3788 15.3736 40.0897 15.9805C44.8007 16.5875 48.9931 18.9967 51.8969 22.7632C54.8007 26.5296 56.0637 31.2029 55.4575 35.9219C54.8513 40.6409 52.446 44.8411 48.6859 47.7483C45.5419 50.1799 41.7639 51.4637 37.8559 51.4637ZM37.7846 16.7336C34.074 16.7336 30.488 17.9524 27.5021 20.261C23.932 23.021 21.6487 27.0077 21.0728 31.4897C19.8843 40.7391 26.4297 49.2323 35.6635 50.423C40.1371 51.0001 44.5663 49.7971 48.1364 47.0369C51.7065 44.2766 53.9899 40.2902 54.5658 35.8082C55.1416 31.3278 53.9412 26.8909 51.1852 23.3146C48.4292 19.7383 44.4497 17.4517 39.9753 16.8746C39.2489 16.7808 38.5171 16.7336 37.7846 16.7336Z" fill="#371A45"/>
<path d="M54.8997 36.2994C54.5176 39.6755 53.0686 42.6855 50.9038 45.0661C49.2809 46.8503 43.129 49.5986 36.0011 48.854C29.392 48.1634 23.7826 43.9549 22.6011 41.8514C21.0235 39.0457 20.2843 35.787 20.6664 32.4111C21.6779 23.4771 29.7607 20.6441 39.2138 21.7177C48.6669 22.7913 55.9112 27.3656 54.8997 36.2994Z" fill="#371A45"/>
<path d="M38.4724 49.433C37.6311 49.4331 36.7903 49.3893 35.9536 49.302C29.1067 48.5866 23.4506 44.2816 22.2084 42.0728C20.5265 39.0808 19.8385 35.7226 20.2189 32.3607C20.7152 27.9784 22.8519 24.7989 26.5701 22.9098C29.8134 21.2624 34.2032 20.6957 39.2637 21.27C44.3242 21.8443 48.4763 23.3821 51.2685 25.715C54.4692 28.3896 55.8417 31.9679 55.3457 36.3498C54.9649 39.7117 53.5435 42.8305 51.2356 45.3689C49.8176 46.9301 44.8441 49.433 38.4724 49.433ZM35.5472 21.9527C32.1917 21.9527 29.2729 22.5474 26.9775 23.7135C23.546 25.4565 21.573 28.4 21.1132 32.4622C20.7539 35.6345 21.404 38.8051 22.9927 41.6309C24.1211 43.6382 29.5988 47.7324 36.0476 48.4054C43.1956 49.152 49.124 46.3544 50.5715 44.7625C52.7517 42.365 54.094 39.4207 54.4531 36.2481C54.9129 32.1862 53.6482 28.8747 50.6932 26.4069C48.0357 24.1869 44.049 22.7202 39.1632 22.1652C37.9628 22.0263 36.7556 21.9554 35.5472 21.9527Z" fill="#371A45"/>
<g opacity="0.7">
<path d="M51.6026 35.0953C52.0906 33.4701 51.5332 31.8656 50.3577 31.5114C49.1821 31.1573 47.8335 32.1876 47.3455 33.8127C46.8576 35.4379 47.4149 37.0424 48.5905 37.3966C49.766 37.7507 51.1146 36.7204 51.6026 35.0953Z" fill="white"/>
</g>
<g opacity="0.7">
<path d="M47.1806 40.6978C47.5053 39.99 47.277 39.19 46.6707 38.9109C46.0644 38.6318 45.3096 38.9793 44.9849 39.6871C44.6602 40.3949 44.8885 41.1949 45.4949 41.474C46.1012 41.7531 46.8559 41.4056 47.1806 40.6978Z" fill="white"/>
</g>
<g opacity="0.35">
<path d="M52.5143 27.5869C54.3791 29.8247 55.3053 32.711 54.8995 36.2992C54.5174 39.6759 53.0679 42.6854 50.9044 45.0665C49.281 46.8508 43.1288 49.5985 36.0006 48.8547C33.4837 48.5924 31.1129 47.819 29.0753 46.8452C37.8568 47.5728 45.3543 44.1945 47.3669 41.9809C50.1145 38.9594 51.9534 35.1384 52.4377 30.8545C52.5645 29.7701 52.5901 28.6761 52.5143 27.5869Z" fill="#111A28"/>
</g>
<path d="M54.3145 28.7491C54.2554 28.7492 54.1969 28.7376 54.1424 28.715C54.0878 28.6924 54.0383 28.6592 53.9966 28.6173C53.9866 28.607 53.9746 28.5941 53.9657 28.583C53.9483 28.5619 53.9328 28.5392 53.9195 28.5152C51.4805 24.1129 46.1411 21.1405 39.2703 20.3599C32.3612 19.5745 26.4899 21.3501 23.1616 25.2309C23.1209 25.2781 23.071 25.3165 23.015 25.3438C22.959 25.3711 22.898 25.3867 22.8357 25.3896C22.7735 25.3926 22.7113 25.3827 22.653 25.3608C22.5947 25.3389 22.5414 25.3053 22.4964 25.2621C22.4149 25.1785 22.3685 25.0667 22.3669 24.9498C22.3654 24.833 22.4088 24.72 22.4881 24.6343C26.0148 20.5302 32.1672 18.6459 39.3717 19.4655C46.5247 20.2782 52.1076 23.4095 54.6944 28.0583C54.7374 28.1264 54.7614 28.2049 54.7638 28.2855C54.7663 28.366 54.7471 28.4458 54.7083 28.5164C54.6695 28.587 54.6125 28.6459 54.5432 28.687C54.4739 28.728 54.3949 28.7497 54.3145 28.7497V28.7491Z" fill="#371A45"/>
<g opacity="0.7">
<path d="M23.909 38.1626C23.909 38.1626 22.1441 29.0354 27.2837 26.0618C32.4232 23.0883 39.2439 23.8775 39.0349 24.2977C39.0349 24.2977 31.2746 25.2712 27.6424 30.9163C24.8416 35.2696 23.909 38.1626 23.909 38.1626Z" fill="white"/>
</g>
<path d="M32.5018 12.9065C32.1635 14.2805 31.898 15.6714 31.7066 17.0735C31.6872 17.2205 31.711 17.3699 31.7749 17.5035C31.8389 17.6372 31.9403 17.7493 32.0667 17.8262C33.9265 18.9598 41.7378 23.3142 51.1936 22.7861C51.1936 22.7861 52.7801 18.2784 53.2421 16.7064" fill="white"/>
<path d="M49.584 23.2814C40.8648 23.2814 33.8613 19.4473 31.8329 18.2114C31.6319 18.0889 31.4709 17.9104 31.3693 17.6978C31.2678 17.4853 31.2301 17.2477 31.2609 17.014C31.4539 15.5941 31.7228 14.1855 32.0664 12.7943C32.0796 12.7356 32.1045 12.6801 32.1395 12.6312C32.1745 12.5822 32.2189 12.5408 32.2702 12.5094C32.3215 12.4779 32.3785 12.4571 32.4379 12.4481C32.4974 12.4392 32.558 12.4423 32.6162 12.4572C32.6745 12.4721 32.7291 12.4986 32.777 12.535C32.8248 12.5715 32.8649 12.6171 32.8948 12.6694C32.9247 12.7216 32.9438 12.7793 32.9511 12.8391C32.9583 12.8988 32.9535 12.9595 32.937 13.0173C32.604 14.3743 32.342 15.7477 32.1521 17.132C32.1442 17.1923 32.154 17.2537 32.1803 17.3086C32.2066 17.3635 32.2483 17.4095 32.3002 17.4411C34.3748 18.7054 41.7928 22.761 50.8693 22.3511C51.2244 21.3369 52.4237 17.8939 52.8109 16.5786C52.8446 16.464 52.9224 16.3675 53.0271 16.3103C53.1318 16.2531 53.2549 16.24 53.3694 16.2737C53.4838 16.3075 53.5801 16.3854 53.6372 16.4903C53.6943 16.5952 53.7074 16.7185 53.6737 16.8331C53.2128 18.3985 51.6826 22.7509 51.6177 22.9355C51.5884 23.0193 51.535 23.0926 51.4641 23.1461C51.3933 23.1996 51.3083 23.2309 51.2197 23.236C50.6683 23.267 50.123 23.2822 49.584 23.2814Z" fill="#371A45"/>
<g opacity="0.3">
<path d="M53.4742 15.918C53.1374 17.0611 51.9417 19.9078 51.3141 21.3722C50.3875 21.2525 49.5072 20.8959 48.7579 20.3368C48.0087 19.7776 47.4158 19.0347 47.0362 18.1796C44.6173 19.808 41.465 20.1559 38.7045 18.813C37.0722 18.0208 35.7473 16.7102 34.936 15.0853C34.0347 15.2441 33.1081 15.1743 32.2407 14.8823C32.3951 13.3136 32.7339 12.1176 32.7339 12.1176L53.4742 15.918Z" fill="#371A45"/>
</g>
<path d="M57.5489 16.7109C56.174 19.5492 52.819 20.7622 50.0588 19.4204C48.9032 18.8594 47.9832 17.9065 47.4623 16.7307C45.0431 18.3596 41.8908 18.7067 39.1306 17.3649C37.4983 16.5724 36.1734 15.2615 35.3621 13.6364C34.2316 13.8368 33.0668 13.6749 32.0336 13.1736C29.196 11.7939 28.0797 8.23297 29.5381 5.21956C30.9965 2.20615 34.4842 0.880519 37.3221 2.26024C37.5649 2.37716 37.7982 2.51297 38.0198 2.66643C40.4805 0.848458 43.7862 0.408254 46.6683 1.80972C49.4284 3.15152 51.1065 5.84683 51.3224 8.75681C52.5681 8.43976 53.8855 8.57457 55.0414 9.13735C57.8016 10.4792 58.9263 13.8684 57.5489 16.7109Z" fill="white"/>
<g opacity="0.3">
<path d="M57.5492 16.7115C56.1737 19.5501 52.8176 20.7623 50.0594 19.421C48.9039 18.8594 47.9839 17.9064 47.4624 16.7307C45.0437 18.3591 41.8911 18.707 39.1307 17.3644C37.4984 16.5721 36.1735 15.2614 35.3621 13.6365C34.2319 13.8369 33.0674 13.675 32.0344 13.1739C30.1243 12.245 28.994 10.3286 28.9035 8.25838C28.8599 7.20839 29.078 6.16404 29.5381 5.2196C31.0002 2.20563 34.484 0.880837 37.3224 2.26C37.5644 2.37729 37.7971 2.51319 38.0182 2.66647C40.4792 0.848777 43.7851 0.408293 46.6669 1.8092C48.3657 2.63525 49.7293 4.02126 50.529 5.7348C50.5802 5.84129 50.6278 5.94751 50.6704 6.05373C51.0337 6.91336 51.2538 7.82692 51.3216 8.75796C52.4703 8.46599 53.6827 8.5574 54.7748 9.01834C55.8669 9.47928 56.7791 10.2846 57.3727 11.3119C58.2893 12.8907 58.4215 14.9108 57.5492 16.7115Z" fill="#371A45"/>
</g>
<path d="M57.1281 14.4196C55.7526 17.2573 53.4124 18.3226 51.0806 16.3588C49.6533 15.1567 50.137 13.7176 50.1604 12.6303C48.0977 15.4776 43.2833 17.0909 39.186 14.7416C36.9658 13.4686 35.5277 11.0967 35.2986 9.54247C33.8124 12.4485 32.2028 11.7025 31.1488 11.1594C29.5375 10.3306 29.4404 9.20347 28.9049 8.25615C28.8612 7.20702 29.0788 6.16349 29.5381 5.2196C31.0001 2.20563 34.484 0.880837 37.3223 2.26C37.5644 2.37729 37.797 2.51319 38.0182 2.66647C40.4791 0.848777 43.7851 0.408293 46.6669 1.8092C48.3657 2.63525 49.7293 4.02126 50.5289 5.7348C50.5423 5.84938 50.5537 5.9634 50.5623 6.0791C50.5977 6.07018 50.6341 6.06126 50.6703 6.05373C51.0337 6.91336 51.2537 7.82692 51.3216 8.75796C52.4703 8.46599 53.6827 8.55741 54.7748 9.01834C55.8669 9.47928 56.779 10.2846 57.3727 11.3119C57.7234 12.5238 57.5547 13.5383 57.1281 14.4196Z" fill="white"/>
<path d="M52.5771 20.1276C51.5602 20.1262 50.5608 19.8612 49.6763 19.3586C48.7918 18.8559 48.0521 18.1326 47.5291 17.2589C45.0273 18.8627 41.881 19.1295 39.1988 17.9369C37.5507 17.2081 36.1716 15.9808 35.2549 14.4272C34.1386 14.6015 32.9958 14.4499 31.9632 13.9907C30.4546 13.3199 29.3132 12.067 28.7496 10.4637C28.1893 8.86991 28.2678 7.11829 28.9706 5.53339C30.4262 2.24872 34.1369 0.6995 37.2416 2.08005C37.4178 2.15839 37.5826 2.24091 37.7401 2.33096C40.3238 0.420155 43.6771 0.0256718 46.567 1.31032C49.2506 2.50353 51.1624 5.01819 51.6497 7.95214C52.8406 7.71809 54.0746 7.85619 55.1845 8.34774C56.6527 9.00066 57.7729 10.2017 58.3368 11.7294C58.9007 13.2572 58.8434 14.9213 58.1779 16.4267C57.5124 17.9322 56.3156 19.0897 54.8102 19.6933C54.1003 19.9793 53.3423 20.1267 52.5771 20.1276ZM47.6864 16.1568C47.7231 16.1568 47.7596 16.1614 47.7952 16.1705C47.8588 16.1864 47.9181 16.216 47.969 16.2573C48.0199 16.2985 48.0612 16.3505 48.09 16.4094C48.6168 17.4875 49.4691 18.3124 50.5548 18.795C51.7992 19.3484 53.1917 19.3701 54.4745 18.8561C55.7617 18.3403 56.7846 17.3475 57.3549 16.0604C57.926 14.7718 57.9753 13.345 57.4941 12.0422C57.0145 10.7442 56.0646 9.72439 54.8199 9.17072C53.7413 8.69355 52.5295 8.61135 51.3965 8.93849C51.3335 8.95664 51.2673 8.96077 51.2025 8.95059C51.1378 8.94041 51.076 8.91617 51.0216 8.87957C50.9672 8.84297 50.9215 8.79489 50.8875 8.73871C50.8536 8.68252 50.8324 8.61959 50.8253 8.55432C50.5192 5.72519 48.7468 3.26462 46.2021 2.1333C43.5248 0.942602 40.4006 1.36162 38.049 3.22643C37.9754 3.28469 37.8853 3.31842 37.7916 3.32292C37.6978 3.32742 37.605 3.30245 37.5261 3.25152C37.3191 3.11843 37.102 3.00182 36.8767 2.90275C34.2246 1.72321 31.0469 3.06752 29.7922 5.89832C29.1832 7.27302 29.1139 8.78823 29.5974 10.1638C30.0778 11.5298 31.0475 12.5973 32.3278 13.1663C33.2912 13.5941 34.365 13.706 35.3958 13.4858C35.4901 13.4661 35.5883 13.4773 35.6758 13.5177C35.7633 13.5582 35.8355 13.6258 35.8817 13.7105C36.715 15.236 37.9878 16.4125 39.5631 17.1117C42.1068 18.2424 45.1185 17.9087 47.4225 16.2402C47.4996 16.1854 47.5919 16.1562 47.6864 16.1568Z" fill="#371A45"/>
<path d="M49.5673 14.6606C49.488 14.8518 49.402 15.0247 49.3088 15.2012C49.2155 15.3776 49.1164 15.5474 49.0129 15.7166C48.8028 16.0555 48.5752 16.3831 48.331 16.6982L48.3288 16.701C48.255 16.7962 48.1464 16.8582 48.027 16.8732C47.9076 16.8882 47.7871 16.8551 47.6921 16.7812C47.5971 16.7072 47.5352 16.5985 47.5202 16.4789C47.5052 16.3593 47.5383 16.2387 47.6121 16.1435C47.6363 16.1122 47.6644 16.0841 47.6956 16.0598C47.9906 15.8346 48.2736 15.5942 48.5436 15.3394C48.6784 15.2104 48.8106 15.0774 48.9378 14.9399C49.065 14.8025 49.1902 14.6581 49.2996 14.5165L49.3049 14.5092C49.3274 14.4793 49.3601 14.4587 49.3968 14.4513C49.4334 14.4438 49.4715 14.4501 49.5039 14.4688C49.5363 14.4875 49.5607 14.5175 49.5726 14.553C49.5845 14.5886 49.583 14.6272 49.5684 14.6617L49.5673 14.6606Z" fill="#371A45"/>
<path d="M35.1433 11.6036C35.1753 11.7792 35.2215 11.966 35.2719 12.1453C35.3223 12.3246 35.3802 12.5041 35.4414 12.6806C35.566 13.0316 35.7088 13.3759 35.8692 13.7121C35.9195 13.8206 35.9251 13.9446 35.8847 14.0572C35.8443 14.1698 35.7612 14.2619 35.6534 14.3135C35.5457 14.3651 35.4219 14.3721 35.3091 14.3329C35.1962 14.2937 35.1033 14.2114 35.0506 14.104C35.0342 14.0694 35.0222 14.0329 35.0147 13.9953V13.9892C34.9401 13.5974 34.8861 13.202 34.8527 12.8046C34.8377 12.6064 34.8269 12.4085 34.8235 12.2105C34.8202 12.0126 34.8235 11.818 34.8385 11.6114C34.8415 11.5742 34.8578 11.5393 34.8845 11.5133C34.9113 11.4873 34.9465 11.4719 34.9837 11.4699C35.0209 11.468 35.0576 11.4796 35.0868 11.5028C35.1161 11.5259 35.136 11.5588 35.1428 11.5955L35.1433 11.6036Z" fill="#371A45"/>
<path d="M56.5502 68.0947L56.4423 68.3852L56.3309 68.6972C56.2572 68.9065 56.1876 69.1198 56.118 69.3342C55.9833 69.7641 55.8511 70.1984 55.7373 70.6445C55.6234 71.0905 55.5254 71.5408 55.4394 71.9983C55.3905 72.2266 55.3604 72.4574 55.3136 72.6886C55.2761 72.9199 55.2407 73.153 55.1962 73.3872V73.3897C55.1936 73.4037 55.1861 73.4163 55.1751 73.4253C55.164 73.4343 55.1502 73.4391 55.136 73.4389C55.1217 73.4386 55.1081 73.4333 55.0974 73.4239C55.0867 73.4145 55.0797 73.4016 55.0776 73.3875C55.0423 73.1519 55.0089 72.9135 54.9863 72.6763C54.9688 72.4379 54.9485 72.1984 54.9443 71.9587C54.9318 71.4767 54.9492 70.9944 54.9963 70.5146C55.0481 70.0337 55.1197 69.5505 55.2496 69.0783C55.2816 68.9598 55.3142 68.8418 55.3548 68.7253C55.3955 68.6088 55.4333 68.492 55.4804 68.3771C55.5232 68.2611 55.5767 68.1479 55.6298 68.0342C55.6577 67.9784 55.6855 67.9227 55.7172 67.8647C55.7489 67.8067 55.779 67.7571 55.8221 67.6874C55.8774 67.6011 55.9625 67.5382 56.061 67.5105C56.1596 67.4829 56.2649 67.4926 56.3569 67.5376C56.4489 67.5826 56.5211 67.66 56.5599 67.7549C56.5986 67.8498 56.6013 67.9556 56.5672 68.0523L56.5502 68.0947Z" fill="#371A45"/>
<path d="M16.572 67.6873C16.6154 67.757 16.6455 67.8061 16.6772 67.8646C16.7089 67.9232 16.7362 67.9761 16.7646 68.0341C16.8175 68.1479 16.8709 68.2611 16.9138 68.377C16.9611 68.4919 17.002 68.6082 17.0393 68.7252C17.0766 68.8423 17.1125 68.9597 17.1445 69.0782C17.2748 69.5505 17.3463 70.0336 17.3981 70.5145C17.445 70.9943 17.4623 71.4766 17.4498 71.9586C17.4457 72.1984 17.4256 72.4378 17.4081 72.6762C17.3853 72.9143 17.3524 73.1518 17.3168 73.3874C17.3146 73.4014 17.3075 73.4142 17.2969 73.4235C17.2862 73.4328 17.2726 73.4381 17.2584 73.4384C17.2443 73.4387 17.2305 73.434 17.2194 73.4251C17.2084 73.4163 17.2008 73.4038 17.198 73.3899V73.3871C17.1537 73.1529 17.1184 72.9199 17.0808 72.6885C17.034 72.4574 17.0037 72.2265 16.9547 71.9982C16.8687 71.5407 16.7682 71.0894 16.6572 70.6444C16.5461 70.1995 16.4109 69.7643 16.2764 69.3341C16.2068 69.1197 16.1373 68.9065 16.0632 68.6971L15.9519 68.3851L15.8445 68.0949L15.8286 68.0523C15.7948 67.9556 15.7976 67.85 15.8365 67.7553C15.8753 67.6606 15.9474 67.5835 16.0392 67.5385C16.131 67.4935 16.2361 67.4838 16.3345 67.5113C16.433 67.5387 16.518 67.6013 16.5734 67.6873H16.572Z" fill="#371A45"/>
<path d="M25.3429 51.286C25.3585 51.9107 25.3151 52.519 25.2647 53.1207C25.2369 53.4209 25.214 53.7206 25.1673 54.0128C25.1274 54.3004 25.0696 54.5852 24.9942 54.8656L24.9905 54.8787C24.9611 54.9832 24.8954 55.0737 24.8051 55.1338C24.7149 55.194 24.6062 55.2198 24.4986 55.2067C24.391 55.1935 24.2916 55.1422 24.2185 55.0621C24.1454 54.9819 24.1033 54.8782 24.0999 54.7697C24.0885 54.4399 24.1428 54.1349 24.2082 53.8327C24.2736 53.5305 24.3715 53.2389 24.472 52.9489C24.5725 52.659 24.6852 52.373 24.806 52.09C24.9281 51.8041 25.0653 51.5249 25.2171 51.2536C25.2244 51.2411 25.2356 51.2313 25.249 51.2257C25.2624 51.2201 25.2772 51.219 25.2913 51.2226C25.3053 51.2262 25.3178 51.2343 25.3269 51.2456C25.3359 51.2569 25.3411 51.2709 25.3415 51.2854L25.3429 51.286Z" fill="#371A45"/>
<path d="M47.67 51.2542C47.8218 51.5255 47.959 51.8047 48.0811 52.0906C48.2027 52.3736 48.3151 52.6596 48.415 52.9495C48.515 53.2395 48.6146 53.5314 48.6789 53.8333C48.7432 54.1352 48.7986 54.4405 48.7874 54.7703C48.7838 54.8786 48.7416 54.9821 48.6686 55.062C48.5955 55.142 48.4964 55.1932 48.389 55.2064C48.2816 55.2197 48.173 55.1941 48.0828 55.1343C47.9925 55.0745 47.9266 54.9843 47.8968 54.8801L47.8932 54.8662C47.8178 54.5858 47.7599 54.301 47.7201 54.0134C47.6733 53.7215 47.6505 53.4218 47.6227 53.1213C47.572 52.5196 47.5289 51.9113 47.5444 51.2866C47.5447 51.2719 47.5497 51.2578 47.5587 51.2463C47.5678 51.2348 47.5804 51.2266 47.5945 51.223C47.6087 51.2194 47.6236 51.2206 47.6371 51.2263C47.6505 51.232 47.6617 51.2421 47.6689 51.2548L47.67 51.2542Z" fill="#371A45"/>
<path d="M41.7588 58.2214L41.3135 58.2195C41.2702 58.2193 41.228 58.233 41.193 58.2584C41.158 58.2839 41.132 58.3198 41.1187 58.3611L40.9829 58.7846L40.9848 58.3385C40.985 58.2952 40.9714 58.2529 40.946 58.2178C40.9205 58.1827 40.8846 58.1566 40.8434 58.1434L40.4206 58.0073L40.866 58.0093C40.9093 58.0094 40.9515 57.9957 40.9865 57.9702C41.0215 57.9447 41.0476 57.9087 41.0608 57.8674L41.1966 57.4439L41.1947 57.8899C41.1946 57.9333 41.2083 57.9756 41.2337 58.0107C41.2592 58.0457 41.2951 58.0718 41.3363 58.0851L41.7588 58.2214Z" fill="#FFF2BD"/>
<path d="M38.0232 59.7239L37.6112 59.7875C37.5711 59.7937 37.5339 59.8127 37.5052 59.8415C37.4765 59.8703 37.4577 59.9075 37.4515 59.9478L37.3877 60.3601L37.3243 59.9478C37.318 59.9075 37.2992 59.8703 37.2704 59.8415C37.2416 59.8126 37.2045 59.7937 37.1642 59.7875L36.7526 59.7239L37.1642 59.6601C37.2045 59.6539 37.2417 59.6351 37.2705 59.6063C37.2992 59.5775 37.3181 59.5403 37.3243 59.5L37.3877 59.0874L37.4515 59.5C37.4576 59.5403 37.4764 59.5775 37.5051 59.6063C37.5339 59.6351 37.5711 59.6539 37.6112 59.6601L38.0232 59.7239Z" fill="#FFF2BD"/>
<path d="M31.0221 59.0534L30.6283 59.1895C30.5899 59.2028 30.5566 59.228 30.5335 59.2615C30.5103 59.295 30.4984 59.335 30.4994 59.3757L30.5103 59.7939L30.3742 59.3994C30.3609 59.3609 30.3358 59.3276 30.3023 59.3044C30.2689 59.2812 30.2289 59.2692 30.1883 59.2703L29.7708 59.2812L30.1646 59.1449C30.203 59.1316 30.2363 59.1064 30.2594 59.0729C30.2826 59.0394 30.2945 58.9994 30.2935 58.9587L30.2826 58.5405L30.4187 58.935C30.432 58.9734 30.4571 59.0067 30.4905 59.0299C30.5238 59.0531 30.5637 59.0651 30.6044 59.064L31.0221 59.0534Z" fill="#FFF2BD"/>
<path d="M34.5981 57.6675L34.2986 57.7511C34.2694 57.7592 34.2435 57.7765 34.2247 57.8004C34.206 57.8242 34.1953 57.8534 34.1942 57.8838L34.1828 58.1946L34.0993 57.8947C34.0912 57.8654 34.074 57.8395 34.0503 57.8207C34.0265 57.8019 33.9974 57.7912 33.9671 57.7901L33.6565 57.779L33.956 57.6953C33.9852 57.6872 34.011 57.67 34.0298 57.6462C34.0485 57.6224 34.0592 57.5932 34.0603 57.5629L34.0717 57.2518L34.1552 57.5518C34.1633 57.581 34.1805 57.6069 34.2043 57.6257C34.228 57.6445 34.2572 57.6552 34.2875 57.6563L34.5981 57.6675Z" fill="#FFF2BD"/>
<path d="M46.5842 59.2057L46.2411 59.2171C46.2076 59.2182 46.1754 59.23 46.149 59.2507C46.1227 59.2714 46.1036 59.3 46.0947 59.3323L46.002 59.6634L45.9906 59.32C45.9895 59.2864 45.9778 59.2541 45.9571 59.2277C45.9364 59.2013 45.9079 59.1821 45.8756 59.1731L45.545 59.0805L45.8881 59.0688C45.9216 59.0677 45.9538 59.056 45.9802 59.0353C46.0065 59.0146 46.0255 58.986 46.0345 58.9537L46.1272 58.6227L46.1386 58.9662C46.1397 58.9997 46.1514 59.0321 46.1721 59.0584C46.1927 59.0848 46.2213 59.1039 46.2536 59.1128L46.5842 59.2057Z" fill="#FFF2BD"/>
<path d="M26.4551 58.7187L26.1562 58.8023C26.127 58.8106 26.1011 58.828 26.0824 58.8519C26.0637 58.8759 26.0531 58.9052 26.0521 58.9356L26.0423 59.2464L25.9588 58.947C25.9506 58.9178 25.9333 58.8919 25.9094 58.8732C25.8856 58.8544 25.8564 58.8438 25.8261 58.8427L25.5155 58.833L25.8144 58.7493C25.8436 58.7412 25.8695 58.7239 25.8882 58.6999C25.9069 58.676 25.9175 58.6467 25.9185 58.6164L25.9282 58.3052L26.0117 58.6049C26.02 58.6342 26.0374 58.66 26.0613 58.6787C26.0852 58.6974 26.1144 58.708 26.1448 58.7089L26.4551 58.7187Z" fill="#FFF2BD"/>
</svg>
