<svg width="18" height="20" viewBox="0 0 18 20" fill="none" xmlns="http://www.w3.org/2000/svg">
<path fill-rule="evenodd" clip-rule="evenodd" d="M17.5999 6.11729C17.4184 5.51884 17.1614 4.94497 16.8347 4.40901C16.0394 3.06303 14.8958 1.94661 13.5195 1.1725C12.1433 0.398395 10.583 -0.00599354 8.99627 0.000173386C7.81293 -0.00712346 6.63989 0.21596 5.54517 0.656487C4.45046 1.09701 3.45584 1.74622 2.61901 2.56645C1.78218 3.38669 1.11978 4.36163 0.67023 5.43475C0.22068 6.50786 -0.00707639 7.65779 0.000167519 8.81785C0.000167519 12.5983 2.44125 15.6213 4.75506 17.5108L4.80354 17.5494C5.93514 18.4699 7.17055 19.2604 8.48563 19.9053C8.81649 20.0316 9.18362 20.0316 9.51449 19.9053C11.4419 18.8967 17.9999 15.1177 17.9999 8.81785C18.003 7.90327 17.8682 6.99325 17.5999 6.11729ZM14.2436 12.9964C14.2436 13.2782 14.1869 13.5571 14.0767 13.8173C13.9665 14.0775 13.805 14.3138 13.6014 14.5127C13.3979 14.7115 13.1563 14.8691 12.8905 14.9762C12.6247 15.0833 12.3399 15.138 12.0526 15.137H5.93696C5.35811 15.1362 4.80319 14.9104 4.39388 14.5092C3.98457 14.1079 3.75427 13.5639 3.75347 12.9964V10.8559H8.55836V11.2897C8.55836 11.4031 8.60434 11.5119 8.68618 11.5922C8.76802 11.6724 8.87902 11.7175 8.99475 11.7175C9.11049 11.7175 9.22149 11.6724 9.30333 11.5922C9.38517 11.5119 9.43115 11.4031 9.43115 11.2897V10.8559H14.2436V12.9964ZM14.2436 9.99879H3.75347V8.71536C3.75427 8.14775 3.98452 7.6036 4.39379 7.2021C4.80306 6.80061 5.35797 6.57451 5.93696 6.57333H6.4173C6.519 6.09009 6.78743 5.65596 7.17739 5.34401C7.56736 5.03206 8.05504 4.86134 8.55836 4.86059H9.43115C9.76706 4.86093 10.0984 4.93723 10.3993 5.08357C10.7002 5.22991 10.9626 5.44234 11.1661 5.70433C11.3676 5.95969 11.5065 6.257 11.5722 6.57333H12.0526C12.3399 6.57274 12.6246 6.6277 12.8903 6.73507C13.156 6.84244 13.3976 7.0001 13.6011 7.19905C13.8046 7.39799 13.9661 7.63431 14.0763 7.8945C14.1866 8.15468 14.2434 8.43362 14.2436 8.71536V9.99879ZM10.2615 6.01034C10.028 5.82036 9.73461 5.7154 9.43115 5.71325H8.55836C8.28835 5.71425 8.02525 5.79699 7.80502 5.95014C7.58479 6.10329 7.41818 6.31938 7.32797 6.56887H10.6615C10.5814 6.35105 10.4433 6.15821 10.2615 6.01034Z" fill="#786EAD"/>
<path fill-rule="evenodd" clip-rule="evenodd" d="M10.6615 6.57327H9.07959C9.45929 6.35809 9.85427 6.16994 10.2615 6.01028C10.4439 6.15939 10.5821 6.35384 10.6615 6.57327Z" fill="#50429B"/>
<path fill-rule="evenodd" clip-rule="evenodd" d="M17.9908 8.81854C17.9908 15.1184 11.4373 18.8974 9.50539 19.906C9.17722 20.0299 8.81379 20.0299 8.48562 19.906C7.17054 19.2611 5.93513 18.4706 4.80353 17.5501C4.48534 16.608 4.32367 15.622 4.32471 14.6297C4.32471 14.5673 4.32471 14.5049 4.32471 14.4425C4.52871 14.6619 4.77725 14.8371 5.05437 14.9568C5.33149 15.0765 5.63108 15.1381 5.93392 15.1377H12.0525C12.3399 15.1387 12.6247 15.084 12.8905 14.9769C13.1562 14.8697 13.3978 14.7122 13.6014 14.5134C13.805 14.3145 13.9665 14.0782 14.0767 13.818C14.1869 13.5578 14.2436 13.2789 14.2436 12.9971V10.8566H9.43114V11.2903C9.43114 11.4038 9.38516 11.5126 9.30332 11.5929C9.22148 11.6731 9.11048 11.7182 8.99475 11.7182C8.87901 11.7182 8.76801 11.6731 8.68617 11.5929C8.60433 11.5126 8.55835 11.4038 8.55835 11.2903V10.8566H5.13841C5.27201 10.5637 5.42069 10.2776 5.58389 9.99948H14.2436V8.71605C14.2434 8.4343 14.1866 8.15537 14.0763 7.89518C13.966 7.635 13.8045 7.39868 13.6011 7.19973C13.3976 7.00079 13.156 6.84312 12.8903 6.73576C12.6246 6.62839 12.3399 6.57343 12.0525 6.57402H11.5722C11.5065 6.25769 11.3676 5.96038 11.1661 5.70502C13.2944 5.10452 15.5697 5.25056 17.5999 6.11798C17.8651 6.99439 17.9968 7.9044 17.9908 8.81854Z" fill="#50429B"/>
</svg>
